<svg width="25" height="25" viewBox="0 0 25 25" fill="none" xmlns="http://www.w3.org/2000/svg">
<path d="M17.1875 8.98961C16.7604 8.98961 16.4063 8.63544 16.4063 8.20836V6.77086C16.4063 5.67711 15.9375 4.61461 15.125 3.87503C14.3021 3.12503 13.2396 2.78128 12.1146 2.88544C10.2396 3.06253 8.59375 4.97919 8.59375 6.97919V7.98961C8.59375 8.41669 8.23958 8.77086 7.8125 8.77086C7.38542 8.77086 7.03125 8.41669 7.03125 7.98961V6.96878C7.03125 4.16669 9.29167 1.58336 11.9688 1.32294C13.5313 1.17711 15.0313 1.66669 16.1771 2.71878C17.3125 3.75003 17.9688 5.22919 17.9688 6.77086V8.20836C17.9688 8.63544 17.6146 8.98961 17.1875 8.98961Z" fill="#121212"/>
<path d="M15.6251 23.698H9.37506C4.56256 23.698 3.66672 21.4584 3.43755 19.2813L2.6563 13.0417C2.54172 11.9167 2.50005 10.3021 3.5938 9.09379C4.53131 8.05212 6.08339 7.55212 8.33339 7.55212H16.6667C18.9271 7.55212 20.4792 8.06254 21.4063 9.09379C22.4896 10.3021 22.4584 11.9167 22.3438 13.0209L21.5626 19.2813C21.3334 21.4584 20.4376 23.698 15.6251 23.698ZM8.33339 9.11462C6.57297 9.11462 5.36464 9.45837 4.75006 10.1459C4.23964 10.7084 4.07297 11.573 4.20839 12.8646L4.98964 19.1042C5.16672 20.7709 5.62506 22.1459 9.37506 22.1459H15.6251C19.3751 22.1459 19.8334 20.7813 20.0105 19.125L20.7917 12.8646C20.9271 11.5938 20.7605 10.7292 20.2501 10.1563C19.6355 9.45837 18.4271 9.11462 16.6667 9.11462H8.33339Z" fill="#121212"/>
<path d="M16.0625 13.698C15.4791 13.698 15.0104 13.2292 15.0104 12.6563C15.0104 12.0834 15.4791 11.6146 16.052 11.6146C16.625 11.6146 17.0937 12.0834 17.0937 12.6563C17.0937 13.2292 16.6354 13.698 16.0625 13.698Z" fill="#121212"/>
<path d="M8.77083 13.698C8.1875 13.698 7.71875 13.2292 7.71875 12.6563C7.71875 12.0834 8.1875 11.6146 8.76042 11.6146C9.33333 11.6146 9.80208 12.0834 9.80208 12.6563C9.80208 13.2292 9.34375 13.698 8.77083 13.698Z" fill="#121212"/>
<circle cx="16.054" cy="12.5726" r="1.17543" fill="#FEFEFE"/>
<circle cx="8.91594" cy="12.4556" r="1.46928" fill="#FEFEFE"/>
<path d="M8.97363 15.5743L11.4791 18.0798L16.2624 13.0688" stroke="#121212" stroke-width="1.36664" stroke-linecap="round"/>
</svg>
