<svg width="25" height="25" viewBox="0 0 25 25" fill="none" xmlns="http://www.w3.org/2000/svg">
<g clip-path="url(#clip0_187_1030)">
<path d="M21.7291 8.7188L14.5104 2.94796C13.3958 2.05213 11.5937 2.05213 10.4895 2.93755L3.27078 8.7188C2.45828 9.36463 1.93745 10.7292 2.11453 11.75L3.49995 20.0417C3.74995 21.5209 5.16662 22.7188 6.66662 22.7188H18.3333C19.8229 22.7188 21.25 21.5105 21.5 20.0417L22.8854 11.75C23.052 10.7292 22.5312 9.36463 21.7291 8.7188ZM12.5 16.1459C11.0625 16.1459 9.89578 14.9792 9.89578 13.5417C9.89578 12.1042 11.0625 10.9375 12.5 10.9375C13.9375 10.9375 15.1041 12.1042 15.1041 13.5417C15.1041 14.9792 13.9375 16.1459 12.5 16.1459Z" fill="#121212"/>
</g>
<defs>
<clipPath id="clip0_187_1030">
<rect width="25" height="25" fill="white"/>
</clipPath>
</defs>
</svg>
