<svg width="280" height="41" viewBox="0 0 280 41" fill="none" xmlns="http://www.w3.org/2000/svg">
<path d="M36.4738 3.26085C36.4801 3.26742 36.4881 3.27234 36.4929 3.27973C36.8962 3.90786 36.6343 20.9099 36.6319 23.053L189.781 23.0546L209.996 23.0505C211.372 23.0497 219.907 23.2771 220.459 22.7524C220.447 22.2425 220.417 22.2089 220.046 21.8181C218.662 20.3574 217.064 20.2161 215.215 20.2104C212.609 20.2022 210.032 20.1882 207.441 20.1833L185.379 20.2054C186.325 17.3834 187.246 14.5531 188.142 11.7147L215.591 11.7171C222.865 11.8173 227.302 16.2084 229.507 23.0217L234.848 23.0489C232.986 25.8512 231.155 28.6757 229.355 31.5216L28.3277 31.4912L28.3421 6.06565C31.058 5.14686 33.7683 4.21248 36.4738 3.26085Z" fill="#F9F9F9"/>
<path d="M267.783 14.7681C270.426 13.9977 273.53 12.8609 276.152 11.9565C276.094 18.3722 275.967 25.0033 276.106 31.4077H267.389L244.906 31.4335C243.416 35.3836 242.604 37.0472 239.648 40.2172C237.664 38.2744 235.702 36.3082 233.761 34.3202C237.509 30.7243 237.252 26.6871 237.247 21.9503L237.23 14.7964L245.437 12.0605C245.745 12.4914 245.593 21.8995 245.589 23.1331C252.985 23.1767 260.382 23.1726 267.778 23.121L267.783 14.7681Z" fill="#F9F9F9"/>
<path d="M23.6032 3.86318L23.8295 3.83839C24.2939 4.62993 23.79 21.5183 23.9379 23.9169C24.165 27.6112 21.2432 31.651 17.5802 33.256C14.6219 34.5176 11.2709 34.609 8.24401 33.5102C5.31722 32.4425 3.4116 30.6195 2.12095 27.9036C1.44556 26.3984 1.28545 24.8819 1.20517 23.2684L8.81415 20.8556C8.77929 22.3863 8.5471 24.3941 9.61318 25.6685C11.4174 27.8243 15.8033 27.1758 16.2091 24.1945C16.494 22.1038 16.3776 19.8382 16.3746 17.6958L16.36 6.20661C18.769 5.41154 21.1839 4.63064 23.6032 3.86318Z" fill="#F9F9F9"/>
<path d="M268.047 5.17464C269.847 3.44207 271.739 1.71173 273.569 0C275.389 1.82039 277.493 3.67799 279.413 5.40981L273.541 10.8449C271.821 9.39815 269.703 7.31653 268.018 5.75811C266.161 7.43189 264.335 9.13619 262.541 10.8695C260.549 9.11014 258.599 7.23393 256.587 5.45075C258.552 3.68543 260.494 1.89853 262.413 0.0907941C263.055 0.401883 267.328 4.4959 268.047 5.17464Z" fill="#F9F9F9"/>
<path d="M3.43892 5.70661C5.52789 5.47554 7.41854 6.95625 7.69446 9.03946C7.97037 11.1234 6.53041 13.0454 4.45324 13.3657C3.06942 13.5795 1.67834 13.0274 0.817195 11.9231C-0.0439476 10.8196 -0.240394 9.33603 0.30366 8.04536C0.847714 6.75541 2.04725 5.86065 3.43892 5.70661Z" fill="#231F21"/>
<path d="M3.4362 6.15006C5.29604 5.91611 6.99867 7.22047 7.2563 9.07693C7.51386 10.9341 6.23068 12.6524 4.37731 12.9331C3.15762 13.1181 1.93289 12.6329 1.17108 11.6626C0.409348 10.6922 0.228305 9.38718 0.697136 8.24624C1.16604 7.10529 2.21233 6.30482 3.4362 6.15006Z" fill="#014B37"/>
<path d="M2.87086 7.28308C3.72624 7.33203 4.77231 7.327 5.42873 7.92663C5.56953 8.72061 4.62899 9.33175 4.7906 9.91986C4.88619 10.2675 5.64324 11.1666 5.55175 11.7504L5.23445 11.8368C4.46127 11.2552 4.01511 10.1524 3.47919 9.98608C3.26202 10.3964 3.27332 11.2055 3.24337 11.7022C2.88734 11.8505 3.0686 11.8188 2.68607 11.7382C2.27087 11.0198 2.41606 8.29879 2.57788 7.47673L2.87086 7.28308Z" fill="#231F21"/>
</svg>
