<svg width="216" height="166" viewBox="0 0 216 166" fill="none" xmlns="http://www.w3.org/2000/svg">
<path d="M54.7589 97.6953C54.7649 97.7013 54.7725 97.7058 54.777 97.7126C55.1579 98.2897 54.9105 113.911 54.9082 115.88L111.07 115.881L130.167 115.878C131.466 115.877 139.529 116.086 140.051 115.604C140.04 115.135 140.011 115.104 139.661 114.745C138.354 113.403 136.845 113.273 135.097 113.268C132.635 113.261 130.201 113.248 127.753 113.243L106.912 113.264C107.805 110.671 108.675 108.07 109.521 105.462L135.453 105.465C142.324 105.557 146.516 109.591 148.599 115.851L153.645 115.876C151.886 118.451 150.156 121.046 148.455 123.661L47.0633 123.633L47.0769 100.272C49.6426 99.4281 52.203 98.5696 54.7589 97.6953Z" fill="#F9F9F9"/>
<path d="M184.221 108.055C186.699 107.335 189.608 106.272 192.067 105.426C192.012 111.425 191.893 117.626 192.023 123.614H183.852L162.776 123.638C161.379 127.332 160.618 128.887 157.847 131.851C155.987 130.035 154.147 128.196 152.328 126.337C155.842 122.975 155.601 119.2 155.596 114.771L155.58 108.082L163.274 105.524C163.562 105.926 163.42 114.723 163.416 115.877C170.349 115.918 177.283 115.914 184.217 115.866L184.221 108.055Z" fill="#F9F9F9"/>
<path d="M42.9081 97.8099L43.1412 97.7835C43.6195 98.6269 43.1004 116.622 43.2528 119.178C43.4867 123.115 40.4774 127.419 36.7047 129.129C33.6577 130.474 30.2063 130.571 27.0887 129.4C24.0742 128.263 22.1115 126.32 20.7822 123.426C20.0866 121.822 19.9217 120.206 19.839 118.487L27.6759 115.916C27.64 117.547 27.4009 119.687 28.4989 121.045C30.3572 123.342 34.8745 122.651 35.2925 119.474C35.5859 117.246 35.466 114.832 35.463 112.549L35.4479 100.307C37.9291 99.4598 40.4163 98.6277 42.9081 97.8099Z" fill="#F9F9F9"/>
<path d="M184.766 98.6956C186.458 96.9393 188.238 95.1854 189.958 93.4503C191.669 95.2955 193.648 97.1785 195.453 98.934L189.932 104.443C188.315 102.977 186.323 100.867 184.739 99.287C182.992 100.984 181.275 102.711 179.589 104.468C177.715 102.685 175.882 100.783 173.99 98.9755C175.838 97.186 177.664 95.3747 179.468 93.5423C180.072 93.8576 184.09 98.0076 184.766 98.6956Z" fill="#F9F9F9"/>
<path d="M22.2525 100.275C24.4418 100.033 26.4232 101.585 26.7123 103.768C27.0015 105.952 25.4924 107.966 23.3155 108.302C21.8653 108.526 20.4074 107.947 19.5049 106.79C18.6024 105.634 18.3966 104.079 18.9667 102.726C19.5369 101.374 20.794 100.437 22.2525 100.275Z" fill="#141111"/>
<path d="M21.6572 101.927C22.5536 101.979 23.6499 101.973 24.3378 102.602C24.4854 103.434 23.4997 104.074 23.6691 104.691C23.7692 105.055 24.5626 105.997 24.4667 106.609L24.1342 106.7C23.3239 106.09 22.8563 104.934 22.2947 104.76C22.0671 105.19 22.0789 106.038 22.0476 106.559C21.6744 106.714 21.8644 106.681 21.4635 106.596C21.0284 105.843 21.1805 102.992 21.3501 102.13L21.6572 101.927Z" fill="#231F21"/>
<path d="M22.0476 127.559C21.6744 127.714 21.8644 127.681 21.4635 127.596C21.0284 126.843 21.1805 123.992 21.3501 123.13L21.6572 122.927L22.0769 123.667L22.0768 124.708L21.8584 124.795C21.9042 125.624 21.9566 126.749 22.0476 127.559Z" fill="#141111"/>
<path d="M107.657 4.81711C108.146 5.25089 112.665 15.7837 113.491 17.6486C118.83 29.8162 124.254 41.9454 129.765 54.0361L134.498 64.4957C135.356 66.3908 136.424 68.9308 137.404 70.6976L107.746 59.3598L78.1617 70.6667C79.2993 68.396 80.5184 65.5119 81.5791 63.1718L88.0427 48.9039C94.6708 34.2483 101.209 19.5527 107.657 4.81711Z" fill="#231F21"/>
<path d="M107.725 34.1389L116.016 40.6697C117.239 41.6323 118.879 42.6621 119.884 43.8404C121.106 45.2715 126.682 59.2165 127.941 62.1028C125.615 61.0655 122.812 60.0229 120.418 59.0618L107.767 54.0089C106.531 54.3439 101.469 56.4509 100.167 56.9993C96.1208 58.705 91.4767 60.3157 87.5697 62.1232C88.5783 59.5809 94.5011 45.0912 95.6214 43.8382C96.8306 42.4855 98.5544 41.3668 99.9878 40.2457C102.581 38.2277 105.159 36.1916 107.725 34.1389Z" fill="#F9F9F9"/>
<path d="M107.719 64.0288L135.193 74.5345C135.889 76.1202 136.561 77.7188 137.376 79.2464L107.764 67.9411C107.141 68.098 105.188 68.8909 104.541 69.1398L98.6835 71.3811L78.1783 79.2019C78.9131 77.6449 79.6169 76.0742 80.2913 74.49C89.1125 71.3509 98.9566 67.447 107.719 64.0288Z" fill="#231F21"/>
</svg>
