<svg width="316" height="286" viewBox="0 0 316 286" fill="none" xmlns="http://www.w3.org/2000/svg">
<g clip-path="url(#clip0_871_55)">
<mask id="mask0_871_55" style="mask-type:luminance" maskUnits="userSpaceOnUse" x="0" y="0" width="316" height="316">
<path d="M316 0H0V316H316V0Z" fill="white"/>
</mask>
<g mask="url(#mask0_871_55)">
<path d="M67.7148 223.408V81.3472C67.7148 80.3806 68.1111 79.8283 69.0356 79.8283C82.6823 79.8283 96.3233 79 109.974 79C132.124 79 156.108 86.7198 164.515 110.339C166.495 116.137 167.552 122.074 167.552 128.287C167.552 140.16 164.911 149.962 159.628 157.693C144.873 179.289 119.298 178.954 96.3715 178.954V223.27C96.5511 224.582 95.4543 225.203 94.3909 225.203H69.2992C68.2432 225.203 67.7148 224.651 67.7148 223.408ZM96.5036 106.473V152.861C105.594 153.54 115.106 153.613 123.84 150.652C133.482 147.817 138.763 139.309 138.763 129.115C139.031 120.428 134.387 112.094 126.482 108.958C117.853 105.301 105.818 105.082 96.5036 106.473Z" fill="#F1EFC8"/>
<path d="M185.454 115.249H208.629C209.907 115.26 211.055 116.183 211.393 117.472C213.091 121.414 213.3 126.168 213.307 130.425C217.281 125.587 222.074 121.556 227.445 118.533C233.206 115.125 239.738 113.398 246.356 113.532C247.454 113.367 248.427 114.384 248.27 115.533V142.427C248.27 143.466 247.559 143.983 246.144 143.983C236.335 143.276 221.062 145.699 213.934 153.763V223.695C213.934 225.028 213.367 225.695 212.233 225.695H187.368C186.146 225.878 185.068 224.729 185.241 223.472V147.54C185.241 137.365 185.452 126.884 183.966 116.805C183.737 115.878 184.586 115.015 185.454 115.249Z" fill="#F1EFC8"/>
</g>
</g>
<defs>
<clipPath id="clip0_871_55">
<rect width="316" height="316" fill="white"/>
</clipPath>
</defs>
</svg>
