<svg width="794" height="208" viewBox="0 0 794 208" fill="none" xmlns="http://www.w3.org/2000/svg">
<path d="M67.7186 73.5H53.9498C53.8393 73.5 53.7498 73.5895 53.7498 73.7V87.8C53.7498 87.9105 53.8393 88 53.9498 88H81.4874C81.5979 88 81.6874 87.9105 81.6874 87.8V73.7C81.6874 73.5895 81.5979 73.5 81.4874 73.5H67.7186ZM67.7186 73.5V67.2402M67.7186 67.2402H51.2C51.0895 67.2402 51 67.1506 51 67.0402V49.2818M67.7186 67.2402H92.3016M67.7186 67.2402L79.7076 49.2818M67.7186 67.2402L51 49.2818M51 49.2818H79.7076M171 49.2818V67.0402C171 67.1506 170.91 67.2402 170.8 67.2402H158.571M171 49.2818H158.571M171 49.2818L141.742 27M158.571 67.2402V76.352C158.571 76.4624 158.481 76.552 158.371 76.552H150.597M158.571 67.2402V49.2818M124.364 67.2402V76.352C124.364 76.4624 124.453 76.552 124.564 76.552H132.723M124.364 67.2402V49.2818M124.364 67.2402H116.885M124.364 49.2818L116.885 67.2402M124.364 49.2818H104.126M124.364 49.2818H132.723M158.571 49.2818H132.723M116.885 67.2402L104.126 49.2818M116.885 67.2402H92.3016M104.126 49.2818L92.3016 67.2402M104.126 49.2818H91.9166H89.7168M92.3016 67.2402L79.7076 49.2818M79.7076 49.2818H89.7168M132.723 76.552H150.597M132.723 76.552V92.2933M150.597 76.552V79.9885M132.723 92.2933L150.597 79.9885M132.723 92.2933L150.597 104.376M132.723 92.2933V116.016M150.597 79.9885V104.376M150.597 104.376V121.026C150.597 121.137 150.507 121.226 150.397 121.226H132.923C132.813 121.226 132.723 121.137 132.723 121.026V116.016M150.597 104.376L132.723 116.016M89.7168 49.2818L141.742 27M141.742 27L132.723 49.2818M141.742 27L151.422 48.8383" stroke="white" stroke-width="2"/>
<path d="M767.312 152.244V77.3096H782.195V152.244H767.312Z" fill="white"/>
<path d="M739.852 162.2H754.734V174.462H739.852V162.2ZM721.826 152.244C720.359 152.244 719.625 151.929 719.625 151.091V141.344C719.625 140.715 719.835 140.296 720.254 140.087C720.673 139.982 721.197 139.877 721.826 139.877H739.852V107.598H754.734V152.244H721.826Z" fill="white"/>
<path d="M693.256 77.3096H708.138V89.5715H693.256V77.3096ZM672.086 152.244C670.618 152.244 669.885 151.929 669.885 151.091V141.344C669.885 140.715 670.094 140.296 670.514 140.087C670.933 139.982 671.457 139.877 672.086 139.877H686.129C686.758 139.877 687.596 139.772 688.435 139.563C689.273 139.353 690.007 138.829 690.741 138.2C691.474 137.571 692.103 136.733 692.627 135.685C693.046 134.637 693.361 133.379 693.361 131.702V107.598H708.243V129.606C708.243 131.493 708.452 133.065 708.976 134.322C709.5 135.58 710.234 136.628 711.072 137.466C711.911 138.305 712.854 138.934 713.902 139.353C714.95 139.772 716.103 139.877 717.151 139.877H721.867C722.391 139.877 722.915 139.982 723.334 140.087C723.753 140.296 724.068 140.715 724.068 141.344V151.091C724.068 151.929 723.334 152.244 721.867 152.244H717.151C715.788 152.244 714.426 152.034 713.168 151.615C711.806 151.196 710.548 150.672 709.395 150.043C708.138 149.414 707.09 148.576 706.042 147.737C704.994 146.899 704.155 145.955 703.526 145.012C702.269 146.479 700.802 147.737 699.23 148.576C697.658 149.519 696.085 150.252 694.513 150.776C692.941 151.405 691.474 151.72 690.007 151.929C688.54 152.139 687.177 152.244 686.129 152.244H672.086Z" fill="white"/>
<path d="M637.025 196.053H649.077V208.001H637.025V196.053ZM619.208 196.053H631.156V208.001H619.208V196.053ZM634.719 181.381C626.964 181.381 620.571 180.437 615.54 178.446C610.405 176.56 606.317 173.835 603.278 170.272C600.239 166.708 598.038 162.516 596.78 157.486C595.523 152.455 594.789 146.901 594.789 140.822H607.68C607.68 146.272 608.309 150.673 609.461 154.237C610.614 157.8 612.291 160.735 614.597 162.935C616.902 165.136 619.732 166.708 623.086 167.547C626.44 168.49 630.317 168.909 634.929 168.909C638.282 168.909 641.322 168.7 644.151 168.28C646.876 167.861 649.287 167.128 651.278 166.184C653.269 165.346 654.841 164.193 655.994 162.726C657.042 161.363 657.671 159.687 657.671 157.8C657.671 157.381 657.566 156.857 657.356 156.228C657.147 155.599 656.832 155.075 656.413 154.446C655.994 153.818 655.47 153.294 654.841 152.874C654.212 152.455 653.583 152.246 652.955 152.246C651.487 152.246 649.601 152.036 647.505 151.407C645.409 150.883 643.313 149.94 641.322 148.577V136.63C642.16 137.154 643.208 137.573 644.675 137.992C646.142 138.412 647.61 138.831 649.287 139.04C650.859 139.355 652.431 139.564 654.003 139.669C655.47 139.879 656.832 139.879 657.88 139.879H672.134C672.658 139.879 673.182 139.984 673.601 140.088C674.02 140.298 674.334 140.717 674.334 141.346V151.093C674.334 151.931 673.601 152.246 672.134 152.246H666.474C667.417 153.294 668.256 154.761 668.885 156.438C669.514 158.114 669.828 159.687 669.828 161.049C669.828 163.564 668.99 165.975 667.417 168.385C665.741 170.796 663.435 172.996 660.5 174.883C657.461 176.874 653.793 178.446 649.496 179.599C645.094 180.857 640.169 181.381 634.719 181.381Z" fill="white"/>
<path d="M504.133 152.243C502.665 152.243 501.932 151.929 501.932 151.091V141.344C501.932 140.715 502.141 140.296 502.56 140.086C502.98 139.981 503.504 139.877 504.133 139.877H514.718V139.457C513.041 137.99 511.678 136.104 510.525 133.798C509.373 131.492 508.849 129.082 508.849 126.567C508.849 122.375 509.477 118.706 510.84 115.562C512.202 112.418 514.089 109.693 516.604 107.493C519.015 105.292 521.844 103.615 525.198 102.462C528.552 101.414 532.115 100.785 536.097 100.785C539.975 100.785 543.643 101.309 546.997 102.357C550.351 103.405 553.18 105.082 555.696 107.178C558.211 109.379 560.097 112.104 561.565 115.248C563.032 118.497 563.765 122.27 563.765 126.567C563.765 130.968 563.032 134.741 561.565 137.885C560.097 141.134 558.211 143.859 555.696 145.955C553.18 148.051 550.351 149.623 546.997 150.671C543.643 151.719 539.975 152.243 536.097 152.243H504.133ZM523.94 126.567C523.94 130.759 524.884 134.112 526.98 136.628C528.971 139.248 532.01 140.505 536.097 140.505C538.089 140.505 539.87 140.191 541.338 139.457C542.805 138.724 544.062 137.676 545.11 136.418C546.158 135.161 546.892 133.693 547.416 132.016C547.94 130.34 548.255 128.558 548.255 126.567C548.255 124.68 547.94 122.794 547.416 121.117C546.892 119.44 546.158 117.868 545.11 116.61C544.062 115.353 542.805 114.305 541.338 113.571C539.87 112.837 538.089 112.418 536.097 112.418C534.001 112.418 532.22 112.837 530.752 113.571C529.285 114.305 528.028 115.353 526.98 116.61C525.932 117.868 525.198 119.44 524.674 121.117C524.15 122.794 523.94 124.68 523.94 126.567Z" fill="white"/>
<path d="M458.486 166.077C464.04 166.077 468.337 165.029 471.272 162.724C474.206 160.523 476.093 157.064 476.826 152.243H463.831C460.267 152.243 457.123 151.719 454.294 150.567C451.464 149.519 449.054 147.946 447.062 145.85C445.071 143.754 443.499 141.239 442.451 138.305C441.403 135.37 440.879 132.016 440.879 128.244C440.879 124.785 441.298 121.431 442.241 118.078C443.08 114.829 444.547 111.894 446.643 109.274C448.739 106.759 451.359 104.663 454.713 103.091C458.067 101.624 462.049 100.785 466.87 100.785C471.586 100.785 475.569 101.519 478.922 102.986C482.171 104.453 484.791 106.549 486.887 109.274C488.983 111.999 490.451 115.353 491.394 119.23C492.232 123.213 492.756 127.615 492.756 132.54C492.756 133.903 492.652 135.161 492.652 136.313C492.652 137.571 492.547 138.724 492.547 139.877H504.285C504.809 139.877 505.333 139.981 505.752 140.086C506.171 140.296 506.486 140.715 506.486 141.344V151.091C506.486 151.929 505.752 152.243 504.285 152.243H491.289C489.822 160.523 486.468 166.706 481.438 170.898C476.302 175.09 469.176 177.186 460.058 177.186C458.591 177.186 457.228 177.186 456.075 176.977C454.818 176.872 453.874 176.662 453.036 176.453C451.988 176.243 451.15 175.929 450.416 175.614V164.401C451.778 165.029 453.141 165.449 454.398 165.658C455.656 165.973 457.019 166.077 458.486 166.077ZM455.761 128.034C455.761 130.025 455.866 131.702 456.18 133.169C456.495 134.636 457.123 135.894 457.962 136.942C458.8 137.99 459.848 138.724 461.315 139.143C462.783 139.667 464.564 139.877 466.87 139.877H477.979V132.121C477.979 129.082 477.77 126.357 477.455 123.842C477.036 121.431 476.512 119.335 475.673 117.658C474.835 115.982 473.682 114.724 472.215 113.781C470.748 112.942 468.966 112.418 466.87 112.418C464.774 112.418 462.992 112.942 461.63 113.781C460.163 114.619 459.01 115.772 458.171 117.239C457.333 118.706 456.704 120.383 456.285 122.27C455.866 124.156 455.761 126.147 455.761 128.034Z" fill="white"/>
<path d="M407.783 77.3096H419.835V89.2571H407.783V77.3096ZM389.966 77.3096H401.914V89.2571H389.966V77.3096ZM392.796 126.567C392.796 130.759 393.739 134.113 395.835 136.628C397.827 139.248 400.866 140.506 404.953 140.506C406.944 140.506 408.726 140.191 410.193 139.458C411.661 138.724 412.918 137.676 413.966 136.418C415.014 135.161 415.748 133.694 416.272 132.017C416.796 130.34 417.11 128.558 417.11 126.567C417.11 124.68 416.796 122.794 416.272 121.117C415.748 119.44 415.014 117.868 413.966 116.611C412.918 115.353 411.661 114.305 410.193 113.571C408.726 112.838 406.944 112.419 404.953 112.419C402.857 112.419 401.075 112.838 399.608 113.571C398.141 114.305 396.883 115.353 395.835 116.611C394.787 117.868 394.054 119.44 393.53 121.117C393.006 122.794 392.796 124.68 392.796 126.567ZM383.573 139.877V139.458C381.897 137.99 380.534 136.104 379.381 133.798C378.228 131.493 377.704 129.082 377.704 126.567C377.704 122.375 378.333 118.707 379.696 115.563C381.058 112.419 382.945 109.694 385.46 107.493C387.87 105.292 390.7 103.615 394.054 102.462C397.407 101.414 400.971 100.785 404.953 100.785C408.831 100.785 412.499 101.309 415.853 102.357C419.206 103.405 422.036 105.082 424.551 107.178C427.067 109.379 428.953 112.104 430.42 115.248C431.887 118.497 432.621 122.27 432.621 126.567C432.621 130.969 431.887 134.742 430.42 137.886C428.953 141.135 427.067 143.859 424.551 145.955C422.036 148.052 419.206 149.624 415.853 150.672C412.499 151.72 408.831 152.244 404.953 152.244H370.263C368.796 152.244 368.062 151.929 368.062 151.091V141.344C368.062 140.715 368.272 140.296 368.691 140.087C369.111 139.982 369.635 139.877 370.263 139.877H383.573Z" fill="white"/>
<path d="M334.075 140.506C336.171 140.506 338.057 139.982 339.734 138.725C341.411 137.572 342.878 136.105 344.136 134.323C345.289 132.541 346.232 130.55 346.861 128.454C347.489 126.358 347.909 124.471 347.909 122.585C347.909 120.384 347.07 118.707 345.393 117.659C343.716 116.611 341.725 116.087 339.42 116.087H318.878C319.612 116.821 320.345 117.974 320.974 119.441C321.603 120.908 322.232 122.585 322.861 124.367C323.49 126.253 324.223 128.035 324.957 129.921C325.586 131.808 326.424 133.589 327.262 135.161C328.101 136.733 329.149 137.991 330.302 139.039C331.35 140.087 332.607 140.506 334.075 140.506ZM317.201 139.877V139.458C315.42 137.781 313.848 135.371 312.485 132.332C311.123 129.397 309.76 126.253 308.503 122.899C307.245 119.65 305.883 116.506 304.415 113.362C302.948 110.323 301.376 107.913 299.49 106.026V104.14H342.249C345.184 104.14 348.013 104.559 350.529 105.188C353.044 105.921 355.245 107.074 357.026 108.541C358.808 110.009 360.171 112 361.219 114.41C362.267 116.821 362.791 119.65 362.791 123.004C362.791 125.729 362.267 128.349 361.323 130.969C360.38 133.694 358.389 136.524 355.35 139.458V139.982H359.018C360.59 139.982 362.162 139.982 363.839 139.982C365.515 139.982 366.983 139.877 368.24 139.877H370.232C370.756 139.877 371.28 139.982 371.699 140.087C372.118 140.297 372.432 140.716 372.432 141.345V151.091C372.432 151.93 371.699 152.244 370.232 152.244H292.992C291.525 152.244 290.791 151.93 290.791 151.091V141.345C290.791 140.716 291.001 140.297 291.42 140.087C291.839 139.982 292.363 139.877 292.992 139.877H317.201Z" fill="white"/>
<path d="M282.933 74.6899L281.57 69.6594L302.845 64L304.103 69.0305L282.933 74.6899Z" fill="white"/>
<path d="M772.362 182.69L771 177.659L792.275 172L793.533 177.031L772.362 182.69Z" fill="white"/>
<path d="M523.362 80.6899L522 75.6594L543.275 70L544.533 75.0305L523.362 80.6899Z" fill="white"/>
<path d="M275.082 152.245C273.614 152.245 272.881 151.93 272.881 151.092V141.345C272.881 140.716 273.09 140.297 273.51 140.088C273.929 139.983 274.453 139.878 275.082 139.878H293.003C294.47 139.878 295.309 140.297 295.309 141.031V150.777C295.309 151.511 294.994 151.93 294.575 152.035C294.156 152.245 293.632 152.245 293.003 152.245H275.082Z" fill="white"/>
<path d="M257.172 152.245C255.704 152.245 254.971 151.93 254.971 151.092V141.345C254.971 140.716 255.18 140.297 255.6 140.088C256.019 139.983 256.543 139.878 257.172 139.878H275.093C276.56 139.878 277.399 140.297 277.399 141.031V150.777C277.399 151.511 277.084 151.93 276.665 152.035C276.246 152.245 275.722 152.245 275.093 152.245H257.172Z" fill="white"/>
<path d="M239.259 152.245C237.792 152.245 237.059 151.93 237.059 151.092V141.345C237.059 140.716 237.268 140.297 237.687 140.088C238.107 139.983 238.631 139.878 239.259 139.878H257.181C258.648 139.878 259.486 140.297 259.486 141.031V150.777C259.486 151.511 259.172 151.93 258.753 152.035C258.334 152.245 257.81 152.245 257.181 152.245H239.259Z" fill="white"/>
<path d="M221.351 152.245C219.884 152.245 219.15 151.93 219.15 151.092V141.345C219.15 140.716 219.36 140.297 219.779 140.088C220.198 139.983 220.722 139.878 221.351 139.878H239.273C240.74 139.878 241.578 140.297 241.578 141.031V150.777C241.578 151.511 241.264 151.93 240.845 152.035C240.425 152.245 239.901 152.245 239.273 152.245H221.351Z" fill="white"/>
<path d="M263.297 139.877C263.821 139.877 264.345 139.982 264.764 140.087C265.183 140.296 265.498 140.715 265.498 141.344V151.091C265.498 151.929 264.764 152.244 263.297 152.244H261.096C260.048 152.244 259 152.139 257.952 151.824C256.904 151.51 255.856 151.091 254.808 150.462C253.76 149.938 252.921 149.309 252.083 148.471C251.244 147.632 250.72 146.689 250.301 145.641H249.882C249.672 146.479 249.463 147.528 249.044 148.785C248.624 150.148 247.996 151.3 247.367 152.244H158.541C155.502 152.244 152.777 151.824 150.262 150.776C147.747 149.833 142.782 148.991 141 147C139.114 145.009 136.548 141.973 135.5 138.934C134.452 135.999 132.5 133.692 132.5 129.5V121.012H151.1V126.462C151.1 128.558 151.205 130.445 151.52 132.121C151.834 133.798 152.358 135.161 153.196 136.314C154.035 137.466 155.083 138.305 156.445 138.934C157.808 139.563 159.485 139.877 161.581 139.877H235V77.3096H249.987V130.759C249.987 132.436 250.301 133.903 251.035 135.056C251.664 136.209 252.607 137.152 253.655 137.886C254.703 138.619 255.856 139.143 257.218 139.458C258.476 139.772 259.838 139.877 261.096 139.877H263.297Z" fill="white"/>
<path d="M206.745 115.571H203V121H225V115.571H215.755C214.351 115.571 213.298 115.217 212.713 114.391C212.128 113.683 211.894 112.621 211.894 111.205C211.894 109.907 212.128 108.845 212.83 108.137C213.415 107.429 214.117 107.075 215.053 107.075C215.989 107.075 216.691 107.429 217.394 107.901C217.979 108.491 218.33 109.317 218.447 110.379H224.766C224.649 108.963 224.298 107.665 223.713 106.602C223.128 105.54 222.426 104.714 221.489 104.006C220.553 103.298 219.617 102.826 218.447 102.472C217.277 102.236 216.223 102 215.053 102C212.011 102 209.67 102.826 207.798 104.242C205.926 105.776 205.106 107.901 205.106 110.615C205.106 112.385 205.574 113.919 206.745 115.217V115.571Z" fill="white"/>
<path d="M737 87C737 85.2985 737.537 83.8657 738.612 82.7015C739.687 81.6269 741.209 81 743 81C744.791 81 746.224 81.6269 747.299 82.7015C748.373 83.8657 749 85.2985 749 87C749 88.791 748.373 90.2239 747.299 91.2985C746.224 92.4627 744.791 93 743 93C741.209 93 739.687 92.4627 738.612 91.2985C737.537 90.2239 737 88.791 737 87ZM740.313 87.1791C740.313 87.9851 740.493 88.6119 741.03 89.1492C741.478 89.6866 742.104 89.8657 743 89.8657C743.806 89.8657 744.433 89.6866 744.97 89.1492C745.418 88.6119 745.687 87.9851 745.687 87.1791C745.687 86.4627 745.418 85.8358 744.97 85.2985C744.433 84.7612 743.806 84.4925 743 84.4925C742.104 84.4925 741.478 84.7612 741.03 85.2985C740.493 85.8358 740.313 86.4627 740.313 87.1791Z" fill="white"/>
</svg>
