<svg width="285" height="285" viewBox="0 0 285 285" fill="none" xmlns="http://www.w3.org/2000/svg">
<g clip-path="url(#clip0_871_24)">
<mask id="mask0_871_24" style="mask-type:luminance" maskUnits="userSpaceOnUse" x="0" y="0" width="285" height="285">
<path d="M285 0H0V285H285V0Z" fill="white"/>
</mask>
<g mask="url(#mask0_871_24)">
<path d="M95.3709 285C121.591 285 142.871 263.72 142.871 237.5V190H95.3709C69.1509 190 47.8711 211.28 47.8711 237.5C47.8711 263.72 69.1509 285 95.3709 285Z" fill="#F1EFC8"/>
<path d="M47.8711 142.5C47.8711 116.28 69.1509 95 95.3709 95H142.871V190H95.3709C69.1509 190 47.8711 168.72 47.8711 142.5Z" fill="white"/>
<path d="M47.8711 47.5C47.8711 21.28 69.1509 0 95.3709 0H142.871V95.0002H95.3709C69.1509 95.0002 47.8711 73.7198 47.8711 47.5Z" fill="#F1EFC8"/>
<path d="M142.871 0H190.371C216.591 0 237.871 21.28 237.871 47.5C237.871 73.7198 216.591 95.0002 190.371 95.0002H142.871V0Z" fill="white"/>
<path d="M237.871 142.5C237.871 168.72 216.591 190 190.371 190C164.151 190 142.871 168.72 142.871 142.5C142.871 116.28 164.151 95 190.371 95C216.591 95 237.871 116.28 237.871 142.5Z" fill="#F1F1F1"/>
</g>
</g>
<defs>
<clipPath id="clip0_871_24">
<rect width="285" height="285" fill="white"/>
</clipPath>
</defs>
</svg>
