<svg width="61" height="62" viewBox="0 0 61 62" fill="none" xmlns="http://www.w3.org/2000/svg">
<rect width="61" height="62" rx="16" fill="#F9F9F9"/>
<g clip-path="url(#clip0_515_17)">
<path d="M50.6427 24.0186L37.8045 11.7143C36.0646 9.99273 33.7173 9.02476 31.2696 9.01955C28.8219 9.01435 26.4705 9.97233 24.7233 11.6865L11.8554 24.0186C10.9554 24.8854 10.2389 25.9243 9.74836 27.0735C9.25783 28.2228 9.00334 29.4589 9 30.7084V44.229C9.00294 46.6869 9.98064 49.0432 11.7186 50.7812C13.4566 52.5192 15.813 53.4969 18.2708 53.4998H44.2292C46.687 53.4969 49.0434 52.5192 50.7814 50.7812C52.5194 49.0432 53.4971 46.6869 53.5 44.229V30.7084C53.4967 29.4587 53.2421 28.2224 52.7512 27.0731C52.2604 25.9238 51.5433 24.885 50.6427 24.0186ZM27.3173 14.3361C28.3687 13.2941 29.7907 12.7119 31.271 12.7175C32.7513 12.723 34.1688 13.3159 35.2124 14.3658L47.7224 26.3511L35.1827 38.8927C34.1227 39.9031 32.7144 40.4668 31.25 40.4668C29.7856 40.4668 28.3773 39.9031 27.3173 38.8927L14.7757 26.3511L27.3173 14.3361ZM49.7917 44.229C49.7917 45.7043 49.2056 47.1191 48.1624 48.1623C47.1193 49.2054 45.7044 49.7915 44.2292 49.7915H18.2708C16.7956 49.7915 15.3807 49.2054 14.3376 48.1623C13.2944 47.1191 12.7083 45.7043 12.7083 44.229V30.7084C12.7102 30.3485 12.7468 29.9896 12.8177 29.6367L24.6955 41.5145C26.4398 43.2417 28.7953 44.2106 31.25 44.2106C33.7047 44.2106 36.0602 43.2417 37.8045 41.5145L49.6823 29.6367C49.7532 29.9896 49.7898 30.3485 49.7917 30.7084V44.229Z" fill="#381668"/>
</g>
<defs>
<clipPath id="clip0_515_17">
<rect width="44.5" height="44.5" fill="white" transform="translate(9 9)"/>
</clipPath>
</defs>
</svg>
