<svg width="252" height="60" viewBox="0 0 252 60" fill="none" xmlns="http://www.w3.org/2000/svg">
<circle cx="29.5919" cy="29.5919" r="29.5919" fill="#26CF7B"/>
<path d="M41.6478 50.1114H30.9513L27.4842 35.8235H10.96L13.9107 23.0555H24.5334L23.9433 8.76758H38.9921L35.1562 23.0555H24.5334L27.4842 35.8235H41.6478V50.1114Z" fill="#EFEFEF"/>
<path d="M30.73 50.1114H41.6478V35.8235H27.4842M27.4842 35.8235L24.5334 23.0555M27.4842 35.8235H10.96L13.9107 23.0555H24.5334M27.4842 35.8235L31.0251 50.4154M24.5334 23.0555H35.1562L38.9921 8.76758H23.9433L24.5334 23.0555Z" stroke="#EFEFEF" stroke-width="1.31519"/>
<path d="M70.2809 15.1303H75.4938V33.0002L94.5522 15.1303H101.121L86.6494 28.6839L100.995 45.1568H95.0318L83.3757 31.77L75.4938 39.1515V45.1568H70.2809V15.1303ZM107.814 45.1568H102.601V15.1303H107.814V22.4284H118.761C120.944 22.4284 122.792 23.186 124.308 24.7013C125.823 26.2165 126.58 28.0306 126.58 30.1436V45.1568H121.368V30.1436C121.368 29.379 121.103 28.7395 120.575 28.2252C120.061 27.697 119.456 27.4328 118.761 27.4328H107.814V45.1568ZM134.921 37.4417C134.921 38.2062 135.178 38.8526 135.693 39.3809C136.221 39.8952 136.833 40.1524 137.528 40.1524H145.868C146.563 40.1524 147.168 39.8952 147.682 39.3809C148.211 38.8526 148.475 38.2062 148.475 37.4417V30.1436C148.475 29.379 148.211 28.7395 147.682 28.2252C147.168 27.697 146.563 27.4328 145.868 27.4328H137.528C136.833 27.4328 136.221 27.697 135.693 28.2252C135.178 28.7395 134.921 29.379 134.921 30.1436V37.4417ZM153.688 37.4417C153.688 39.5546 152.93 41.3687 151.415 42.8839C149.9 44.3992 148.051 45.1568 145.868 45.1568H137.528C135.345 45.1568 133.496 44.3992 131.981 42.8839C130.466 41.3687 129.708 39.5546 129.708 37.4417V30.1436C129.708 28.0306 130.466 26.2165 131.981 24.7013C133.496 23.186 135.345 22.4284 137.528 22.4284H145.868C148.051 22.4284 149.9 23.186 151.415 24.7013C152.93 26.2165 153.688 28.0306 153.688 30.1436V37.4417ZM162.028 37.4417C162.028 38.2062 162.285 38.8526 162.8 39.3809C163.328 39.8952 163.94 40.1524 164.635 40.1524H175.582V27.4328H164.635C163.94 27.4328 163.328 27.697 162.8 28.2252C162.285 28.7395 162.028 29.379 162.028 30.1436V37.4417ZM180.795 45.1568H164.635C162.452 45.1568 160.603 44.3992 159.088 42.8839C157.573 41.3687 156.815 39.5546 156.815 37.4417V30.1436C156.815 28.0306 157.573 26.2165 159.088 24.7013C160.603 23.186 162.452 22.4284 164.635 22.4284H175.582V15.1303H180.795V45.1568ZM189.136 37.4417C189.136 38.2062 189.393 38.8526 189.907 39.3809C190.435 39.8952 191.047 40.1524 191.742 40.1524H200.083C200.778 40.1524 201.382 39.8952 201.897 39.3809C202.425 38.8526 202.689 38.2062 202.689 37.4417V30.1436C202.689 29.379 202.425 28.7395 201.897 28.2252C201.382 27.697 200.778 27.4328 200.083 27.4328H191.742C191.047 27.4328 190.435 27.697 189.907 28.2252C189.393 28.7395 189.136 29.379 189.136 30.1436V37.4417ZM207.902 37.4417C207.902 39.5546 207.144 41.3687 205.629 42.8839C204.114 44.3992 202.265 45.1568 200.083 45.1568H191.742C189.56 45.1568 187.711 44.3992 186.195 42.8839C184.68 41.3687 183.923 39.5546 183.923 37.4417V30.1436C183.923 28.0306 184.68 26.2165 186.195 24.7013C187.711 23.186 189.56 22.4284 191.742 22.4284H200.083C202.265 22.4284 204.114 23.186 205.629 24.7013C207.144 26.2165 207.902 28.0306 207.902 30.1436V37.4417ZM211.03 45.1568V30.1436C211.03 28.0306 211.787 26.2165 213.303 24.7013C214.818 23.186 216.667 22.4284 218.849 22.4284H226.689L226.669 27.4328H218.849C218.154 27.4328 217.542 27.697 217.014 28.2252C216.5 28.7395 216.243 29.379 216.243 30.1436V45.1568H211.03Z" fill="url(#paint0_linear_1160_72)"/>
<defs>
<linearGradient id="paint0_linear_1160_72" x1="148.475" y1="2.73975" x2="148.475" y2="56.4436" gradientUnits="userSpaceOnUse">
<stop offset="0.36" stop-color="#26CF7B"/>
<stop offset="1" stop-color="#1FAD67"/>
</linearGradient>
</defs>
</svg>
