<svg width="432" height="267" viewBox="0 0 432 267" fill="none" xmlns="http://www.w3.org/2000/svg">
<path d="M420.393 175.356H422.182V175.189C421.959 174.91 421.734 174.574 421.623 174.184C421.455 173.849 421.399 173.458 421.399 173.011C421.399 171.727 421.791 170.722 422.685 169.996C423.58 169.327 424.699 168.936 426.154 168.936C426.712 168.936 427.216 169.047 427.775 169.159C428.335 169.327 428.783 169.55 429.23 169.884C429.678 170.22 430.013 170.611 430.292 171.113C430.572 171.615 430.74 172.229 430.796 172.9H427.775C427.72 172.397 427.552 172.006 427.272 171.727C426.937 171.504 426.601 171.336 426.154 171.336C425.706 171.336 425.371 171.504 425.091 171.839C424.755 172.174 424.643 172.676 424.643 173.29C424.643 173.849 424.755 174.351 424.979 174.686C425.203 175.077 425.65 175.301 426.209 175.356H430.908V177.925H420.393V175.356ZM422.126 163.519V123.598H430.069V163.519H422.126Z" fill="#0F4415"/>
<path d="M407.477 156.93V123.598H415.42V163.519H399.87C399.087 163.519 398.695 163.352 398.695 162.905V157.712C398.695 157.378 398.808 157.154 399.031 157.043C399.255 156.987 399.535 156.93 399.87 156.93H407.477Z" fill="#0F4415"/>
<path d="M379.982 179.041C375.844 179.041 372.432 178.538 369.747 177.478C367.007 176.472 364.825 175.02 363.203 173.122C361.581 171.224 360.406 168.99 359.735 166.31C359.063 163.631 358.672 160.671 358.672 157.433H365.552C365.552 160.336 365.887 162.681 366.502 164.579C367.118 166.478 368.013 168.042 369.243 169.214C370.474 170.387 371.984 171.224 373.774 171.671C375.564 172.173 377.633 172.396 380.094 172.396C381.885 172.396 383.506 172.285 385.017 172.062C386.471 171.838 387.758 171.448 388.82 170.945C389.883 170.498 390.722 169.884 391.338 169.103C391.896 168.376 392.232 167.483 392.232 166.478C392.232 166.254 392.176 165.976 392.064 165.64C391.953 165.306 391.785 165.026 391.561 164.691C391.338 164.356 391.058 164.077 390.722 163.854C390.386 163.631 390.05 163.518 389.715 163.518C388.932 163.518 387.926 163.407 386.806 163.072C385.688 162.793 384.569 162.291 383.506 161.564V155.199C383.954 155.479 384.514 155.702 385.297 155.925C386.08 156.149 386.863 156.372 387.758 156.483C388.597 156.651 389.435 156.763 390.275 156.819C391.058 156.93 391.785 156.93 392.344 156.93H399.951C400.231 156.93 400.51 156.986 400.734 157.042C400.958 157.153 401.126 157.377 401.126 157.712V162.904C401.126 163.352 400.734 163.518 399.951 163.518H396.931C397.434 164.077 397.882 164.859 398.217 165.752C398.552 166.645 398.72 167.483 398.72 168.208C398.72 169.549 398.273 170.833 397.434 172.118C396.539 173.402 395.308 174.574 393.742 175.579C392.121 176.64 390.163 177.478 387.869 178.092C385.52 178.762 382.891 179.041 379.982 179.041Z" fill="#0F4415"/>
<path d="M331.357 175.356H333.148V175.189C332.924 174.91 332.7 174.574 332.588 174.184C332.42 173.849 332.365 173.458 332.365 173.011C332.365 171.727 332.756 170.722 333.651 169.996C334.546 169.327 335.664 168.936 337.119 168.936C337.678 168.936 338.181 169.047 338.741 169.159C339.301 169.327 339.748 169.55 340.195 169.884C340.642 170.22 340.978 170.611 341.258 171.113C341.537 171.615 341.705 172.229 341.761 172.9H338.741C338.685 172.397 338.518 172.006 338.238 171.727C337.902 171.504 337.566 171.336 337.119 171.336C336.672 171.336 336.336 171.504 336.056 171.839C335.721 172.174 335.609 172.676 335.609 173.29C335.609 173.849 335.721 174.351 335.944 174.686C336.168 175.077 336.615 175.301 337.175 175.356H341.873V177.925H331.357V175.356ZM333.092 163.519V123.598H341.034V163.519H333.092Z" fill="#0F4415"/>
<path d="M318.436 168.824H326.379V175.357H318.436V168.824ZM308.815 163.52C308.032 163.52 307.641 163.352 307.641 162.905V157.713C307.641 157.378 307.752 157.154 307.977 157.043C308.2 156.987 308.48 156.931 308.815 156.931H318.436V139.734H326.379V163.52H308.815Z" fill="#0F4415"/>
<path d="M308.796 156.93C309.076 156.93 309.356 156.986 309.579 157.042C309.803 157.153 309.971 157.376 309.971 157.712V162.904C309.971 163.351 309.579 163.518 308.796 163.518H307.622C307.062 163.518 306.503 163.463 305.944 163.295C305.384 163.127 304.825 162.904 304.266 162.57C303.706 162.29 303.258 161.955 302.811 161.509C302.364 161.062 302.084 160.559 301.86 160.001H301.637C301.525 160.448 301.413 161.006 301.189 161.676C300.966 162.402 300.629 163.016 300.294 163.518H278.48V156.93H293.694V152.463C293.694 151.123 293.527 149.895 293.19 148.778C292.855 147.662 292.352 146.656 291.736 145.819C291.121 145.037 290.394 144.367 289.555 143.92C288.66 143.474 287.709 143.25 286.703 143.25H280.941V137.053H286.703C288.716 137.053 290.673 137.387 292.464 137.946C294.253 138.505 295.876 139.398 297.217 140.57C298.56 141.743 299.679 143.25 300.462 145.037C301.245 146.824 301.692 149.001 301.692 151.514V152.631C301.692 153.524 301.917 154.25 302.308 154.808C302.643 155.367 303.147 155.813 303.706 156.149C304.266 156.483 304.881 156.651 305.552 156.762C306.223 156.874 306.95 156.93 307.622 156.93H308.796Z" fill="#0F4415"/>
<path d="M265.797 163.519V123.598H273.739V163.519H265.797Z" fill="#0F4415"/>
<path d="M229.586 169.66C229.586 168.432 229.699 167.259 230.034 166.087C230.314 164.914 230.761 163.798 231.376 162.793C231.991 161.787 232.774 160.839 233.726 160.001C234.62 159.163 235.739 158.493 237.081 157.935V157.711C236.075 156.874 235.292 155.702 234.677 154.194C234.061 152.742 233.781 151.012 233.781 149.057C233.781 147.27 234.005 145.54 234.452 143.976C234.9 142.413 235.627 141.017 236.69 139.844C237.696 138.672 239.095 137.778 240.773 137.108C242.451 136.438 244.577 136.104 247.149 136.104C249.051 136.104 250.729 136.383 252.184 136.885C253.582 137.388 254.756 138.113 255.763 139.062C256.77 140.068 257.553 141.241 258.112 142.58C258.672 143.976 259.119 145.54 259.343 147.326H252.295C251.959 145.763 251.344 144.534 250.561 143.641C249.723 142.748 248.604 142.301 247.149 142.301C245.192 142.301 243.794 142.916 242.899 144.088C242.004 145.316 241.556 146.935 241.556 149.057C241.556 151.682 242.059 153.636 243.122 154.975C244.129 156.316 245.863 156.93 248.324 156.93H260.182V163.518H244.185C242.954 163.518 241.948 163.742 241.108 164.132C240.213 164.523 239.542 165.026 238.983 165.584C238.424 166.198 238.032 166.868 237.809 167.595C237.529 168.32 237.417 168.99 237.417 169.66C237.417 171.112 237.585 172.34 237.921 173.346C238.256 174.35 238.871 175.523 239.767 176.807H232.215C231.432 175.914 230.817 174.853 230.314 173.736C229.81 172.619 229.586 171.224 229.586 169.66Z" fill="#0F4415"/>
<path d="M212.564 139.734V162.626C212.564 164.748 212.341 166.702 212.005 168.433C211.669 170.164 211.054 171.672 210.271 172.9C209.487 174.128 208.425 175.134 207.083 175.804C205.74 176.473 204.062 176.809 202.048 176.809C201.154 176.809 200.315 176.753 199.419 176.586C198.525 176.473 197.742 176.25 197.07 175.916V170.164C197.518 170.499 197.965 170.667 198.525 170.778C199.028 170.89 199.588 170.89 200.259 170.89C201.825 170.89 202.943 170.22 203.615 168.88C204.23 167.54 204.566 165.418 204.566 162.626V139.734H212.564Z" fill="#0F4415"/>
<path d="M181.087 123.598H187.519V129.963H181.087V123.598ZM171.578 123.598H177.955V129.963H171.578V123.598ZM173.089 149.84C173.089 152.074 173.592 153.86 174.71 155.2C175.773 156.596 177.396 157.266 179.577 157.266C180.64 157.266 181.591 157.098 182.374 156.707C183.157 156.317 183.828 155.758 184.387 155.089C184.946 154.419 185.338 153.637 185.618 152.743C185.898 151.85 186.066 150.901 186.066 149.84C186.066 148.834 185.898 147.83 185.618 146.936C185.338 146.043 184.946 145.205 184.387 144.535C183.828 143.865 183.157 143.307 182.374 142.916C181.591 142.526 180.64 142.302 179.577 142.302C178.459 142.302 177.507 142.526 176.724 142.916C175.941 143.307 175.27 143.865 174.71 144.535C174.152 145.205 173.76 146.043 173.48 146.936C173.201 147.83 173.089 148.834 173.089 149.84ZM168.166 156.93V156.707C167.271 155.926 166.545 154.921 165.929 153.692C165.314 152.464 165.034 151.179 165.034 149.84C165.034 147.607 165.37 145.652 166.097 143.977C166.824 142.302 167.831 140.851 169.174 139.678C170.46 138.505 171.97 137.612 173.76 136.998C175.55 136.439 177.451 136.104 179.577 136.104C181.646 136.104 183.604 136.384 185.394 136.942C187.184 137.5 188.694 138.393 190.036 139.511C191.379 140.683 192.385 142.135 193.169 143.81C193.952 145.541 194.343 147.55 194.343 149.84C194.343 152.185 193.952 154.195 193.169 155.87C192.385 157.601 191.379 159.052 190.036 160.17C188.694 161.286 187.184 162.124 185.394 162.682C183.604 163.24 181.646 163.519 179.577 163.519H161.063C160.28 163.519 159.889 163.352 159.889 162.905V157.712C159.889 157.378 160 157.154 160.224 157.043C160.447 156.987 160.727 156.93 161.063 156.93H168.166Z" fill="#0F4415"/>
<path d="M140.035 143.976C138.917 143.976 137.966 144.199 137.183 144.59C136.4 144.981 135.729 145.54 135.169 146.21C134.61 146.879 134.219 147.717 133.939 148.61C133.659 149.503 133.547 150.509 133.547 151.514C133.547 152.575 133.659 153.58 133.939 154.473C134.219 155.366 134.61 156.148 135.169 156.818C135.729 157.488 136.4 158.047 137.183 158.437C137.966 158.828 138.917 158.996 140.035 158.996C141.098 158.996 142.049 158.828 142.832 158.437C143.615 158.047 144.287 157.488 144.845 156.818C145.405 156.148 145.797 155.366 146.076 154.473C146.356 153.58 146.524 152.575 146.524 151.514C146.524 150.509 146.356 149.503 146.076 148.61C145.797 147.717 145.405 146.879 144.845 146.21C144.287 145.54 143.615 144.981 142.832 144.59C142.049 144.199 141.098 143.976 140.035 143.976ZM140.035 165.193C137.351 165.193 134.889 164.747 132.764 163.853C130.582 162.96 128.849 161.564 127.562 159.666C126.892 160.782 125.94 161.676 124.654 162.402C123.311 163.184 121.913 163.518 120.459 163.518H119.005C118.222 163.518 117.83 163.351 117.83 162.904V157.711C117.83 157.376 117.942 157.153 118.165 157.042C118.39 156.986 118.669 156.929 119.005 156.929H120.068C120.627 156.929 121.242 156.874 121.913 156.763C122.528 156.651 123.088 156.427 123.591 156.092C124.038 155.813 124.43 155.422 124.766 154.92C125.101 154.473 125.269 153.859 125.269 153.133V151.57C125.269 149.28 125.604 147.27 126.387 145.54C127.17 143.809 128.178 142.357 129.52 141.241C130.862 140.123 132.428 139.23 134.219 138.672C136.008 138.114 137.91 137.778 140.035 137.778C142.105 137.778 144.062 138.114 145.853 138.672C147.642 139.23 149.153 140.123 150.495 141.241C151.838 142.357 152.844 143.809 153.627 145.54C154.41 147.27 154.802 149.28 154.802 151.57V153.133C154.802 153.859 154.913 154.473 155.25 154.92C155.585 155.422 155.976 155.813 156.48 156.092C156.927 156.427 157.487 156.651 158.102 156.763C158.717 156.874 159.333 156.929 160.004 156.929H161.066C161.346 156.929 161.626 156.986 161.849 157.042C162.074 157.153 162.241 157.376 162.241 157.711V162.904C162.241 163.351 161.849 163.518 161.066 163.518H159.613C158.102 163.518 156.704 163.184 155.418 162.402C154.075 161.676 153.124 160.782 152.509 159.666C151.166 161.564 149.432 162.96 147.307 163.853C145.125 164.747 142.721 165.193 140.035 165.193Z" fill="#0F4415"/>
<path d="M100.289 186.858H106.722V193.224H100.289V186.858ZM90.7809 186.858H97.1571V193.224H90.7809V186.858ZM99.0584 179.041C94.9196 179.041 91.5076 178.539 88.8233 177.478C86.0821 176.473 83.9007 175.021 82.2787 173.123C80.6566 171.224 79.4819 168.991 78.8108 166.311C78.1396 163.631 77.748 160.672 77.748 157.434L85.1901 152.781C85.1901 155.685 84.3297 162.66 85.5787 164.58C86.194 166.478 87.0889 168.042 88.3191 169.214C89.55 170.387 91.0598 171.224 92.8503 171.671C94.6399 172.174 96.7092 172.397 99.1701 172.397C100.961 172.397 102.582 172.285 104.093 172.062C105.547 171.838 106.834 171.448 107.896 170.945C108.959 170.499 109.798 169.884 110.414 169.102C110.972 168.377 111.308 167.484 111.308 166.478C111.308 166.255 111.252 165.976 111.14 165.641C111.029 165.306 110.861 165.026 110.637 164.692C110.414 164.357 110.134 164.078 109.798 163.854C109.462 163.631 109.126 163.519 108.791 163.519C108.008 163.519 107.002 163.408 105.882 163.072C104.764 162.794 103.645 162.29 102.582 161.565V155.2C103.03 155.479 103.59 155.702 104.373 155.926C105.156 156.149 105.939 156.373 106.834 156.484C107.673 156.652 108.511 156.763 109.351 156.819C110.134 156.93 110.861 156.93 111.42 156.93H119.027C119.307 156.93 119.586 156.986 119.81 157.043C120.034 157.154 120.202 157.377 120.202 157.712V162.905C120.202 163.351 119.81 163.519 119.027 163.519H116.007C116.51 164.078 116.958 164.859 117.293 165.753C117.628 166.646 117.796 167.484 117.796 168.209C117.796 169.55 117.349 170.834 116.51 172.118C115.615 173.402 114.384 174.574 112.818 175.58C111.197 176.641 109.239 177.478 106.945 178.092C104.596 178.762 101.967 179.041 99.0584 179.041Z" fill="#0F4415"/>
<path d="M104.701 41.2795C104.701 25.2723 117.701 12.2959 133.736 12.2959H280.829C296.864 12.2959 309.863 25.2723 309.863 41.2795V62.3584C309.863 78.3656 296.864 91.3419 280.829 91.3419H133.736C117.701 91.3419 104.701 78.3656 104.701 62.3584V41.2795Z" fill="#0F4415"/>
<mask id="mask0_382_649" style="mask-type:luminance" maskUnits="userSpaceOnUse" x="0" y="52" width="114" height="123">
<path d="M62.4858 52.7083L0 90.1875L50.6966 174.412L113.182 136.933L62.4858 52.7083Z" fill="white"/>
</mask>
<g mask="url(#mask0_382_649)">
<path d="M18.5135 79.3247L18.4997 79.344C18.2077 79.7528 18.3068 80.3465 18.7213 80.6703L27.0081 87.1432C27.4225 87.4669 27.9953 87.398 28.2873 86.9892L28.3011 86.97C28.5931 86.5612 28.4939 85.9674 28.0795 85.6437L19.7927 79.1708C19.3783 78.8471 18.8055 78.9161 18.5135 79.3247Z" fill="#0F4415"/>
<path d="M45.1802 63.8742L45.1531 63.8769C44.6517 63.9252 44.3062 64.3852 44.3814 64.9044L45.8841 75.2814C45.9594 75.8005 46.4267 76.1821 46.9282 76.1338L46.9553 76.1312C47.4567 76.0829 47.8022 75.6229 47.727 75.1037L46.2242 64.7267C46.149 64.2075 45.6816 63.8259 45.1802 63.8742Z" fill="#0F4415"/>
<path d="M22.5302 106.654L12.5046 107.62C12.0032 107.668 11.6577 108.128 11.7329 108.647L11.737 108.675C11.8121 109.194 12.2796 109.576 12.781 109.528L22.8065 108.561C23.3079 108.513 23.6534 108.053 23.5783 107.534L23.5742 107.505C23.499 106.986 23.0316 106.605 22.5302 106.654Z" fill="#0F4415"/>
<path d="M72.8141 72.6346L66.991 80.8157C66.6996 81.225 66.7998 81.8186 67.2149 82.1417L67.2372 82.1591C67.6521 82.4821 68.2247 82.4122 68.5161 82.0029L74.3393 73.8218C74.6306 73.4125 74.5304 72.8189 74.1154 72.4959L74.093 72.4784C73.6781 72.1554 73.1056 72.2253 72.8141 72.6346Z" fill="#0F4415"/>
<path d="M33.8844 127.482L28.0652 135.658C27.7739 136.067 27.8741 136.661 28.289 136.984L28.3115 137.002C28.7264 137.324 29.299 137.255 29.5903 136.845L35.4095 128.669C35.7009 128.26 35.6006 127.666 35.1857 127.343L35.1633 127.326C34.7483 127.003 34.1758 127.073 33.8844 127.482Z" fill="#0F4415"/>
<path d="M89.6123 99.9504L79.5907 100.917C79.0892 100.965 78.7437 101.425 78.8189 101.944L78.8229 101.972C78.8981 102.491 79.3655 102.873 79.8669 102.825L89.8895 101.859C90.3901 101.811 90.7359 101.35 90.6611 100.831L90.6567 100.803C90.5819 100.284 90.1139 99.9021 89.6123 99.9504Z" fill="#0F4415"/>
<path d="M62.7303 143.174C62.0776 142.074 62.3322 140.566 62.9807 139.671C63.2465 139.303 63.7943 138.869 64.6239 138.37C68.1455 136.251 71.6706 134.136 75.1995 132.024C76.6085 131.182 78.5804 131.583 79.6178 133.043C80.0872 133.705 79.7781 134.126 79.2478 134.557C74.8574 138.136 70.461 141.708 66.0587 145.269C65.2522 145.922 64.6744 146.427 63.9748 145.258C63.5561 144.56 63.1413 143.865 62.7303 143.174Z" fill="#0F4415"/>
<path d="M79.3992 135.94L66.387 146.694C65.7681 147.205 65.6983 148.16 66.2312 148.826L66.3472 148.972C66.88 149.637 67.8138 149.763 68.4327 149.251L81.4449 138.497C82.0638 137.985 82.1336 137.03 81.6007 136.365L81.4847 136.22C80.9518 135.553 80.0181 135.428 79.3992 135.94Z" fill="#0F4415"/>
<path d="M81.6754 139.797L68.6827 150.576C68.0662 151.087 67.9981 152.04 68.5309 152.703L68.6516 152.854C69.1843 153.517 70.116 153.641 70.7325 153.129L83.7252 142.351C84.3417 141.84 84.4097 140.887 83.877 140.223L83.7563 140.073C83.2236 139.409 82.2919 139.286 81.6754 139.797Z" fill="#0F4415"/>
<path d="M84.0541 143.699L71.0444 154.451C70.4241 154.964 70.3542 155.921 70.8883 156.589L70.9998 156.728C71.5339 157.396 72.4698 157.522 73.0901 157.009L86.0998 146.257C86.7201 145.744 86.79 144.787 86.2559 144.119L86.1444 143.98C85.6102 143.312 84.6744 143.186 84.0541 143.699Z" fill="#0F4415"/>
<path d="M78.6129 157.635C77.6646 158.201 76.639 158.025 75.8664 157.125C75.4251 156.611 75.6342 156.339 76.0597 155.988C78.7212 153.786 81.3885 151.569 84.0617 149.336C84.1168 149.289 84.1813 149.257 84.251 149.238C84.3208 149.221 84.3943 149.219 84.4667 149.232C84.539 149.245 84.6087 149.274 84.6711 149.317C84.7336 149.359 84.7874 149.414 84.8291 149.477C86.0078 151.293 86.8234 152.706 84.7002 153.984C82.6707 155.203 80.6416 156.419 78.6129 157.635Z" fill="#0F4415"/>
</g>
<path d="M421.088 25.2619H422.877V25.0944C422.654 24.8152 422.43 24.4802 422.318 24.0894C422.151 23.7543 422.094 23.3635 422.094 22.9168C422.094 21.6326 422.486 20.6276 423.381 19.9017C424.276 19.2317 425.395 18.8408 426.849 18.8408C427.408 18.8408 427.911 18.9525 428.471 19.0642C429.03 19.2317 429.478 19.455 429.925 19.7901C430.373 20.1251 430.708 20.5159 430.988 21.0185C431.268 21.5209 431.436 22.1351 431.491 22.8052H428.471C428.415 22.3026 428.247 21.9118 427.967 21.6326C427.632 21.4093 427.296 21.2418 426.849 21.2418C426.401 21.2418 426.066 21.4093 425.786 21.7443C425.45 22.0793 425.338 22.5818 425.338 23.196C425.338 24.4802 425.842 25.1502 426.905 25.2619H431.603V27.8303H421.088V25.2619ZM422.318 71.605V31.6829H430.261V71.605H422.318Z" fill="#0F4415"/>
<path d="M407.664 31.6836H415.606V38.2163H407.664V31.6836ZM397.987 71.6057C397.204 71.6057 396.812 71.4382 396.812 70.9915V65.7988C396.812 65.4638 396.924 65.2405 397.148 65.1289C397.372 65.073 397.651 65.0171 397.987 65.0171H407.607V47.82H415.55V71.6057H397.987Z" fill="#0F4415"/>
<path d="M380.565 31.6836H386.997V38.0488H380.565V31.6836ZM371.055 31.6836H377.433V38.0488H371.055V31.6836ZM361.995 71.6057C361.212 71.6057 360.82 71.4382 360.82 70.9915V65.7988C360.82 65.4638 360.932 65.2405 361.156 65.1289C361.379 65.073 361.659 65.0171 361.995 65.0171H368.371V64.7938C367.476 64.0121 366.749 63.0071 366.134 61.7787C365.519 60.5503 365.239 59.2662 365.239 57.9261C365.239 55.6927 365.574 53.7385 366.302 52.0634C367.028 50.3883 368.035 48.9366 369.378 47.7641C370.664 46.5916 372.175 45.6982 373.964 45.084C375.755 44.5257 377.656 44.1907 379.782 44.1907C381.851 44.1907 383.809 44.4698 385.598 45.0282C387.389 45.5866 388.899 46.4799 390.241 47.5966C391.584 48.7691 392.59 50.2209 393.373 51.8959C394.156 53.6268 394.548 55.6368 394.548 57.9261C394.548 59.2103 394.212 60.4946 393.597 61.7228C392.926 63.0071 392.199 64.0121 391.359 64.7938V65.0171H398.015C398.295 65.0171 398.575 65.073 398.798 65.1289C399.023 65.2405 399.19 65.4638 399.19 65.7988V70.9915C399.19 71.4382 398.798 71.6057 398.015 71.6057H361.995ZM379.782 65.3522C381.907 65.3522 383.529 64.6822 384.648 63.2863C385.71 61.9462 386.27 60.1595 386.27 57.9261C386.27 56.9211 386.102 55.916 385.823 55.0226C385.543 54.1293 385.151 53.2918 384.592 52.6217C384.032 51.9518 383.361 51.3934 382.578 51.0025C381.795 50.6117 380.845 50.3883 379.782 50.3883C378.663 50.3883 377.712 50.6117 376.929 51.0025C376.146 51.3934 375.475 51.9518 374.915 52.6217C374.356 53.2918 373.964 54.1293 373.684 55.0226C373.405 55.916 373.293 56.9211 373.293 57.9261C373.293 60.1595 373.796 61.9462 374.915 63.2863C375.978 64.6822 377.6 65.3522 379.782 65.3522Z" fill="#0F4415"/>
<path d="M335.638 84.8945C331.834 84.8945 328.814 84.3361 326.465 83.1636C324.115 82.0469 322.27 80.4277 320.928 78.3059C319.585 76.24 318.69 73.7274 318.242 70.824C317.739 67.9206 317.516 64.738 317.516 61.1645H324.675C324.675 64.5147 324.843 67.3064 325.29 69.4839C325.738 71.7173 326.409 73.4483 327.304 74.7883C328.199 76.1284 329.318 77.0217 330.716 77.5801C332.114 78.1384 333.793 78.3618 335.806 78.3618C337.708 78.3618 339.386 78.1384 340.84 77.5801C342.238 77.0217 343.413 76.1284 344.308 74.7883C345.202 73.4483 345.818 71.7173 346.265 69.4839C346.713 67.3064 346.936 64.5147 346.936 61.1645V31.6836H354.879V59.8804C354.879 60.8854 355.047 61.6671 355.383 62.337C355.718 63.0071 356.221 63.5096 356.781 63.9005C357.341 64.2913 358.011 64.5705 358.739 64.738C359.41 64.9614 360.137 65.0171 360.808 65.0171H361.983C362.262 65.0171 362.542 65.073 362.766 65.1289C362.989 65.2405 363.157 65.4638 363.157 65.7988V70.9915C363.157 71.4382 362.766 71.6057 361.983 71.6057H360.808C360.248 71.6057 359.633 71.5499 359.018 71.3265C358.347 71.159 357.788 70.8798 357.228 70.489C356.669 70.154 356.166 69.7073 355.718 69.2048C355.27 68.7023 355.047 68.1439 354.935 67.4739H354.712C354.376 70.3773 353.816 72.8899 352.977 75.0675C352.083 77.245 350.908 79.0317 349.397 80.4835C347.888 81.9352 345.985 83.0519 343.748 83.7778C341.455 84.5594 338.77 84.8945 335.638 84.8945Z" fill="#0F4415"/>
<path d="M282.787 25.2619H284.578V25.0944C284.353 24.8152 284.13 24.4802 284.018 24.0894C283.85 23.7543 283.795 23.3635 283.795 22.9168C283.795 21.6326 284.186 20.6276 285.081 19.9017C285.976 19.2317 287.094 18.8408 288.548 18.8408C289.108 18.8408 289.611 18.9525 290.171 19.0642C290.73 19.2317 291.177 19.455 291.625 19.7901C292.072 20.1251 292.408 20.5159 292.688 21.0185C292.967 21.5209 293.135 22.1351 293.191 22.8052H290.171C290.114 22.3026 289.946 21.9118 289.667 21.6326C289.331 21.4093 288.996 21.2418 288.548 21.2418C288.101 21.2418 287.765 21.4093 287.485 21.7443C287.15 22.0793 287.038 22.5818 287.038 23.196C287.038 24.4802 287.542 25.1502 288.605 25.2619H293.303V27.8303H282.787V25.2619ZM284.018 71.605V31.6829H291.96V71.605H284.018Z" fill="#F1EFC8"/>
<path d="M259.697 31.6836H267.639V38.2163H259.697V31.6836ZM257.235 57.9261C257.235 60.1595 257.739 61.9462 258.858 63.2863C259.921 64.6822 261.542 65.3522 263.724 65.3522C264.787 65.3522 265.737 65.1846 266.52 64.7938C267.303 64.4029 267.975 63.8446 268.534 63.1746C269.094 62.5046 269.485 61.7229 269.765 60.8295C270.045 59.9361 270.212 58.987 270.212 57.9261C270.212 56.9211 270.045 55.916 269.765 55.0226C269.485 54.1293 269.094 53.2918 268.534 52.6217C267.975 51.9518 267.303 51.3934 266.52 51.0025C265.737 50.6117 264.787 50.3883 263.724 50.3883C262.605 50.3883 261.655 50.6117 260.872 51.0025C260.089 51.3934 259.417 51.9518 258.858 52.6217C258.298 53.2918 257.907 54.1293 257.627 55.0226C257.348 55.916 257.235 56.9211 257.235 57.9261ZM252.314 65.0171V64.7938C251.419 64.0121 250.691 63.0071 250.076 61.7787C249.461 60.5503 249.181 59.2662 249.181 57.9261C249.181 55.6927 249.517 53.7385 250.244 52.0634C250.971 50.3883 251.978 48.9366 253.32 47.7641C254.606 46.5916 256.117 45.6982 257.907 45.084C259.697 44.5257 261.598 44.1907 263.724 44.1907C265.794 44.1907 267.751 44.4698 269.541 45.0282C271.331 45.5866 272.841 46.4799 274.184 47.5966C275.526 48.7691 276.533 50.2209 277.316 51.8959C278.099 53.6268 278.49 55.6368 278.49 57.9261C278.49 60.2712 278.099 62.2813 277.316 63.9563C276.533 65.6872 275.526 67.1389 274.184 68.2556C272.841 69.3723 271.331 70.2098 269.541 70.7682C267.751 71.3265 265.794 71.6057 263.724 71.6057H245.21C244.427 71.6057 244.035 71.4382 244.035 70.9915V65.7988C244.035 65.4638 244.147 65.2405 244.371 65.1289C244.595 65.073 244.875 65.0171 245.21 65.0171H252.314Z" fill="#F1EFC8"/>
<path d="M230.162 65.0171V59.8245C230.162 56.8652 229.547 54.6877 228.428 53.3477C227.253 52.0076 225.575 51.3376 223.45 51.3376H205.886V45.1399L219.311 31.6836H227.756L214.501 45.1399H223.394C228.539 45.1399 232.287 46.3682 234.637 48.7691C236.93 51.2259 238.104 54.6877 238.104 59.2662V60.1595C238.104 61.0529 238.328 61.8346 238.719 62.4488C239.055 63.0629 239.558 63.5654 240.118 63.9563C240.678 64.3472 241.293 64.6263 241.964 64.7938C242.635 64.9614 243.362 65.0171 244.033 65.0171H245.208C245.488 65.0171 245.767 65.073 245.991 65.1289C246.214 65.2405 246.382 65.4638 246.382 65.7988V70.9915C246.382 71.4382 245.991 71.6057 245.208 71.6057H244.033C243.474 71.6057 242.914 71.5499 242.355 71.3824C241.796 71.2149 241.236 70.9915 240.678 70.6565C240.118 70.3773 239.67 70.0424 239.223 69.5957C238.775 69.149 238.496 68.6464 238.272 68.0881H238.049C237.936 68.5348 237.824 69.0931 237.601 69.7632C237.377 70.489 237.041 71.1032 236.706 71.6057H203.37C202.587 71.6057 202.195 71.4382 202.195 70.9915V65.7988C202.195 65.4638 202.307 65.2405 202.531 65.1289C202.754 65.073 203.034 65.0171 203.37 65.0171H230.162Z" fill="#F1EFC8"/>
<path d="M193.811 71.6051C193.028 71.6051 192.637 71.4376 192.637 70.9909V65.7983C192.637 65.4633 192.748 65.24 192.973 65.1282C193.196 65.0724 193.476 65.0166 193.811 65.0166H203.376C204.159 65.0166 204.607 65.24 204.607 65.6308V70.8234C204.607 71.2143 204.439 71.4376 204.215 71.4935C203.992 71.6051 203.712 71.6051 203.376 71.6051H193.811Z" fill="#F1EFC8"/>
<path d="M193.787 65.0171C194.066 65.0171 194.346 65.073 194.57 65.1289C194.793 65.2405 194.961 65.4638 194.961 65.7988V70.9915C194.961 71.4382 194.57 71.6057 193.787 71.6057H181.816V31.6836H189.76V65.0171H193.787Z" fill="#F1EFC8"/>
<path d="M175.122 47.8203V70.7127C175.122 72.8344 174.898 74.7886 174.563 76.5196C174.227 78.2504 173.612 79.758 172.829 80.9864C172.046 82.2147 170.983 83.2198 169.641 83.8897C168.298 84.5598 166.62 84.8948 164.607 84.8948C163.711 84.8948 162.873 84.839 161.978 84.6714C161.083 84.5598 160.3 84.3364 159.629 84.0014V78.2504C160.076 78.5854 160.524 78.753 161.083 78.8646C161.587 78.9762 162.145 78.9762 162.817 78.9762C164.383 78.9762 165.502 78.3063 166.173 76.9662C166.788 75.6262 167.123 73.5044 167.123 70.7127V47.8203H175.122Z" fill="#F1EFC8"/>
<path d="M147.72 65.0171V31.6836H155.719V71.6057H129.318C127.696 71.6057 126.241 71.3824 124.9 70.824C123.557 70.3215 122.382 69.5398 121.431 68.4789C120.425 67.418 119.697 66.078 119.139 64.4588C118.579 62.8955 118.355 60.997 118.355 58.7636V54.9669H125.347V57.8702C125.347 58.987 125.403 59.992 125.57 60.8854C125.738 61.7787 126.018 62.5046 126.466 63.1188C126.913 63.733 127.472 64.1796 128.199 64.5147C128.927 64.8497 129.822 65.0171 130.94 65.0171H147.72ZM131.052 52.6217H132.842V52.4543C132.282 51.8401 132.059 51.1143 132.059 50.2767C132.059 48.9925 132.45 47.9875 133.345 47.2616C134.24 46.5916 135.359 46.2008 136.813 46.2008C137.372 46.2008 137.876 46.3124 138.435 46.4241C138.995 46.5916 139.442 46.8149 139.889 47.1499C140.337 47.485 140.673 47.8758 140.952 48.3783C141.232 48.8809 141.399 49.495 141.456 50.165H138.435C138.38 49.6625 138.212 49.2717 137.932 48.9925C137.596 48.7691 137.261 48.6016 136.813 48.6016C136.366 48.6016 136.03 48.7691 135.751 49.1042C135.415 49.4392 135.303 49.9417 135.303 50.5558C135.303 51.2259 135.415 51.7284 135.694 52.0634C135.974 52.4543 136.477 52.6217 137.149 52.6217H141.567V55.1902H131.052V52.6217Z" fill="#F1EFC8"/>
<path d="M420.351 13.9647L419.607 11.2244L431.217 8.1416L431.903 10.8819L420.351 13.9647Z" fill="#0F4415"/>
<path d="M331.488 186.988L330.744 184.248L342.354 181.165L343.04 183.905L331.488 186.988Z" fill="#0F4415"/>
<path d="M73.0569 109.517C72.7679 115.076 73.953 120.714 76.4747 125.808C77.3265 127.529 76.8414 129.448 75.2939 130.387C71.3008 132.805 67.3029 135.216 63.3 137.618C62.6022 138.037 62.0329 138.282 61.5919 138.355C60.6641 138.509 59.8001 138.305 59.0001 137.745C58.67 137.513 58.2243 137.039 57.6629 136.32C54.4075 132.162 50.4556 128.965 45.8074 126.727C44.5989 126.144 42.7965 125.51 41.4993 124.84C28.2607 117.997 23.5008 100.449 32.4359 88.9725C41.8433 76.8942 60.3118 78.2575 69.2266 91.7558C72.0269 95.9979 73.3891 100.656 73.3129 105.727C73.2967 106.884 73.1122 108.427 73.0569 109.517ZM29.9362 106.821C31.2852 113.815 35.726 119.943 41.9867 123.195C43.4126 123.936 45.5838 124.707 47.2339 125.548C51.8434 127.899 55.7862 131.193 59.0624 135.429C60.203 136.904 60.9463 136.989 62.4898 136.064C66.4392 133.697 70.3882 131.329 74.337 128.96C74.9465 128.595 75.2419 128.084 75.2229 127.43C75.2136 127.107 75.0355 126.576 74.6887 125.84C72.2902 120.759 71.1767 115.483 71.3485 110.013C71.3904 108.666 71.661 106.534 71.6367 104.885C71.4597 92.1712 60.507 81.694 48.1933 82.4561C36.2075 83.1966 27.5434 94.4109 29.9362 106.821Z" fill="#0F4415"/>
<path d="M74.5421 130.093L61.1666 138.416C59.2614 139.47 51.132 126.251 42.4577 123.897C42.3081 123.857 42.1613 123.802 42.024 123.73C33.8385 119.438 31.2751 113.806 28.5331 105.145C28.4648 104.929 28.4353 104.7 28.4364 104.474C28.4473 102.197 27.7694 101.481 29.0742 96.926C31.7265 87.6672 41.253 82.6243 47.5487 82.1866C62.0775 81.1769 74.5996 93.3692 72.1474 109.787C71.4227 114.638 74.0869 122.747 75.4142 127.969C75.6234 128.792 75.2631 129.645 74.5421 130.093Z" fill="#0F4415"/>
<path d="M34.6922 105.04C35.0165 107.514 35.8434 109.999 37.1731 112.494C37.8204 113.714 36.1596 114.672 35.4511 113.423C31.527 106.523 31.4196 97.6812 36.0591 91.5824C36.3508 91.2012 36.7132 90.69 37.1728 90.5873C37.8234 90.4406 38.5231 91.174 38.3713 91.8301C38.3325 91.9978 38.1864 92.235 37.933 92.5406C35.1341 95.9282 34.0999 100.536 34.6922 105.04Z" fill="#F1EFC8"/>
</svg>
