<svg width="906" height="53" viewBox="0 0 906 53" fill="none" xmlns="http://www.w3.org/2000/svg">
<rect x="259" y="11" width="192" height="42" rx="1.77551" fill="#EFEFEF"/>
<path d="M9.97408 38C7.99251 38 6.52106 37.5291 5.55971 36.5874C4.59835 35.6457 4.11768 34.1154 4.11768 31.9965V16.2224H7.64917V31.4079C7.64917 32.2907 7.82575 32.8793 8.1789 33.1736C8.53205 33.4483 9.14025 33.5856 10.0035 33.5856H10.8864V37.1171L10.0035 38H9.97408ZM23.494 20.1977L16.1956 23.5527L15.3421 21.6692L22.6406 18.2848L23.494 20.1977ZM23.494 15.7245L16.1956 19.0794L15.3421 17.196L22.6406 13.8116L23.494 15.7245ZM10.0047 34.4685L10.8875 33.5856H13.4479C13.4282 33.4679 13.4184 33.3502 13.4184 33.2325C13.4184 33.1148 13.4184 32.997 13.4184 32.8793C13.4184 30.5054 14.7918 28.5238 17.5385 26.9346L19.422 25.8458H23.3066L25.6315 32.0847C25.8473 32.6929 26.1122 33.0951 26.4261 33.2913C26.7596 33.4875 27.2501 33.5856 27.8976 33.5856H28.7804V37.1171L27.8976 38C26.6027 38 25.5825 37.8038 24.8369 37.4114C24.0914 36.9994 23.4734 36.3618 22.9829 35.4985L22.8063 35.528V38H19.0688C17.6366 38 16.4889 37.7155 15.6256 37.1466C14.7624 36.558 14.1542 35.8222 13.801 34.9394H13.5362C12.9868 36.9798 11.8096 38 10.0047 38V34.4685ZM16.0965 32.4673C16.0965 32.8989 16.2633 33.1932 16.5968 33.3502C16.9303 33.5072 17.3325 33.5856 17.8034 33.5856H22.1295L20.658 29.701L17.98 30.7604C17.3521 31.0155 16.8813 31.2803 16.5674 31.555C16.2534 31.8101 16.0965 32.1142 16.0965 32.4673ZM33.7657 45.9459C33.3341 45.3377 32.9515 44.7883 32.618 44.2978C32.304 43.8074 32.0294 43.3561 31.7939 42.9441C31.5781 42.5321 31.4114 42.1397 31.2936 41.7669C31.1956 41.4138 31.1465 41.041 31.1465 40.6486C31.1465 39.8246 31.3035 39.0987 31.6174 38.4709C31.9313 37.843 32.2256 37.3624 32.5002 37.0288L32.3237 36.8817C32.1471 37.0583 31.9411 37.2152 31.7057 37.3526C31.4702 37.4899 31.1759 37.6076 30.8228 37.7057C30.4893 37.8038 30.0871 37.8823 29.6162 37.9411C29.1453 37.9804 28.5764 38 27.9093 38V34.4685L28.7922 33.5856H29.3808C30.3225 33.5856 31.0288 33.4777 31.4997 33.2619C31.9705 33.0265 32.3433 32.6243 32.618 32.0553L33.7657 29.6716L36.6792 31.0842L35.502 33.4973C35.2666 33.9878 35.0704 34.4096 34.9134 34.7628C34.7565 35.0963 34.629 35.4004 34.5309 35.6751C34.4524 35.9498 34.3935 36.2146 34.3543 36.4697C34.315 36.7051 34.2954 36.97 34.2954 37.2643C34.2954 37.8921 34.472 38.5788 34.8251 39.3243C35.1783 40.0698 35.6394 40.9135 36.2083 41.8552L38.7687 35.8517C38.9452 35.42 39.1218 35.0571 39.2984 34.7628C39.475 34.4685 39.6613 34.2331 39.8575 34.0565C40.0537 33.8799 40.2793 33.7622 40.5344 33.7033C40.7895 33.6249 41.0837 33.5856 41.4173 33.5856H43.8599V37.1171L42.977 38H41.0053L37.7386 45.9459H33.7657ZM42.9687 34.4685L43.8516 33.5856H44.5873C46.1569 33.5856 46.9417 32.8989 46.9417 31.5256V16.2224H50.4732V31.5256C50.4732 32.8989 51.1599 33.5856 52.5332 33.5856H53.5632V37.1171L52.6804 38C51.0716 38 49.8454 37.6861 49.0017 37.0583C48.1581 36.4108 47.5989 35.4004 47.3243 34.0271H47.1477C46.8926 35.4004 46.4414 36.4108 45.7939 37.0583C45.1465 37.6861 44.2048 38 42.9687 38V34.4685ZM58.1926 21.6692L61.6652 20.08V19.9329C61.2728 19.6778 60.9687 19.3541 60.7529 18.9617C60.5371 18.5693 60.4292 18.1377 60.4292 17.6668C60.4292 16.8232 60.7039 16.1169 61.2532 15.5479C61.8222 14.9593 62.5383 14.6651 63.4015 14.6651C64.2452 14.6651 64.9417 14.9397 65.491 15.4891C66.06 16.0384 66.3444 16.7349 66.3444 17.5785C66.3444 19.3443 65.3242 20.6882 63.2838 21.6103L59.046 23.5527L58.1926 21.6692ZM62.3127 17.5785C62.3127 18.0102 62.6364 18.3829 63.2838 18.6968L63.8135 18.9617C64.0294 18.8048 64.1863 18.6478 64.2844 18.4908C64.3825 18.3143 64.4316 18.0886 64.4316 17.814C64.4316 17.5001 64.3236 17.245 64.1078 17.0488C63.9116 16.833 63.6468 16.7251 63.3132 16.7251C63.0386 16.7251 62.8031 16.8036 62.6069 16.9605C62.4108 17.1175 62.3127 17.3235 62.3127 17.5785ZM57.0087 36.352C56.5575 36.9602 55.9885 37.3918 55.3018 37.6469C54.6348 37.8823 53.7617 38 52.6827 38V34.4685L53.5655 33.5856C54.2914 33.5856 54.8212 33.4777 55.1547 33.2619C55.4882 33.0461 55.7629 32.6635 55.9787 32.1142L56.8027 30.0836C57.0578 29.4557 57.3423 28.8672 57.6562 28.3178C57.9701 27.7685 58.3429 27.2878 58.7745 26.8758C59.2061 26.4638 59.6868 26.1401 60.2165 25.9046C60.7659 25.6692 61.3937 25.5515 62.1 25.5515C63.9442 25.5515 65.3274 26.2774 66.2495 27.7292C67.1912 29.1811 67.6621 31.1921 67.6621 33.7622V34.6156L64.8663 38.7652L57.0087 36.352ZM58.6273 32.2613L64.5426 34.0565V33.7622C64.5426 32.585 64.2581 31.6629 63.6892 30.9959C63.1202 30.3288 62.3452 29.9953 61.3643 29.9953C60.7364 29.9953 60.1871 30.162 59.7162 30.4956C59.265 30.8291 58.9216 31.3588 58.6862 32.0847L58.6273 32.2613ZM69.5653 40.6486H71.4488C74.0189 40.6486 75.9024 40.1974 77.0992 39.2949C78.296 38.412 78.8944 37.2643 78.8944 35.8517V35.0865H78.7178C78.4235 36.0871 77.9428 36.8228 77.2758 37.2937C76.6283 37.7646 75.8043 38 74.8037 38C73.2145 38 71.9687 37.5389 71.0662 36.6168C70.1833 35.6751 69.7419 34.3704 69.7419 32.7028C69.7419 31.6825 69.889 30.7408 70.1833 29.8776C70.4972 28.9947 70.9191 28.2393 71.4488 27.6115C71.9981 26.9641 72.6358 26.4638 73.3617 26.1106C74.1072 25.7379 74.9116 25.5515 75.7749 25.5515C76.7362 25.5515 77.5897 25.7575 78.3352 26.1695C79.1004 26.5619 79.738 27.1406 80.2481 27.9058C80.7778 28.6513 81.18 29.5735 81.4547 30.6721C81.7294 31.7708 81.8667 33.0069 81.8667 34.3802C81.8667 37.7351 81.0034 40.3543 79.2769 42.2378C77.57 44.1213 75.0588 45.063 71.7431 45.063H69.5653V40.6486ZM75.716 33.5856C76.4812 33.5856 77.1188 33.5562 77.6289 33.4973C78.139 33.4189 78.551 33.3011 78.8649 33.1442C78.7865 32.1828 78.4235 31.4177 77.7761 30.8487C77.1286 30.2601 76.334 29.9658 75.3923 29.9658C74.6271 29.9658 73.9797 30.1718 73.45 30.5839C72.9399 30.9762 72.6848 31.4864 72.6848 32.1142C72.6848 32.6439 72.9006 33.0265 73.3323 33.2619C73.7639 33.4777 74.3525 33.5856 75.098 33.5856H75.716ZM94.366 38.3531C93.4832 38.3531 92.8259 38.1373 92.3943 37.7057C91.9823 37.2545 91.7763 36.6855 91.7763 35.9988V35.4102C91.7763 34.2135 92.0608 33.0363 92.6297 31.8787C93.2183 30.7212 93.9835 29.7795 94.9252 29.0535H97.8681C97.1814 29.701 96.5929 30.3484 96.1024 30.9959C95.6119 31.6237 95.2391 32.33 94.9841 33.1148C95.6707 33.2325 96.171 33.5072 96.4849 33.9388C96.7989 34.3508 96.9558 34.8413 96.9558 35.4102V35.9988C96.9558 36.6855 96.74 37.2545 96.3084 37.7057C95.8964 38.1373 95.2489 38.3531 94.366 38.3531ZM107.557 15.1977L100.258 18.5527L99.4049 16.6692L106.703 13.2848L107.557 15.1977ZM107.557 10.7245L100.258 14.0794L99.4049 12.196L106.703 8.81161L107.557 10.7245ZM99.2681 34.5862L104.036 33.4679L101.74 20.4897L105.213 19.8716L107.479 32.585C108.185 32.3692 108.764 32.1338 109.215 31.8787C109.686 31.6237 110.059 31.3392 110.333 31.0253C110.608 30.6918 110.794 30.3092 110.893 29.8776C111.01 29.4263 111.069 28.9064 111.069 28.3178V16.2224H114.601V31.5256C114.601 32.8989 115.287 33.5856 116.661 33.5856H117.838V37.1171L116.955 38C115.052 37.9804 113.659 37.4899 112.776 36.5285C111.893 35.5672 111.452 34.0565 111.452 31.9965V31.7022H111.275C111 33.3306 110.53 34.596 109.863 35.4985C109.215 36.401 108.313 36.9896 107.155 37.2643L100.269 38.8829L99.2681 34.5862ZM121.27 36.352C120.819 36.9602 120.25 37.3918 119.563 37.6469C118.896 37.8823 118.023 38 116.944 38V34.4685L117.827 33.5856C118.553 33.5856 119.082 33.4777 119.416 33.2619C119.75 33.0461 120.024 32.6635 120.24 32.1142L121.064 30.0836C121.319 29.4557 121.604 28.8672 121.917 28.3178C122.231 27.7685 122.604 27.2878 123.036 26.8758C123.467 26.4638 123.948 26.1401 124.478 25.9046C125.027 25.6692 125.655 25.5515 126.361 25.5515C128.205 25.5515 129.589 26.2774 130.511 27.7292C131.453 29.1811 131.923 31.1921 131.923 33.7622V34.6156L129.128 38.7652L121.27 36.352ZM122.889 32.2613L128.804 34.0565V33.7622C128.804 32.585 128.519 31.6629 127.95 30.9959C127.381 30.3288 126.607 29.9953 125.626 29.9953C124.998 29.9953 124.448 30.162 123.978 30.4956C123.526 30.8291 123.183 31.3588 122.947 32.0847L122.889 32.2613ZM140.566 38C138.584 38 137.113 37.5291 136.152 36.5874C135.19 35.6457 134.709 34.1154 134.709 31.9965V16.2224H138.241V31.4079C138.241 32.2907 138.418 32.8793 138.771 33.1736C139.124 33.4483 139.732 33.5856 140.595 33.5856H141.478V37.1171L140.595 38H140.566ZM140.596 34.4685L141.479 33.5856H144.246C144.952 33.5856 145.433 33.517 145.688 33.3796C145.962 33.2227 146.1 32.9578 146.1 32.585C146.1 32.33 146.031 32.1044 145.894 31.9082C145.756 31.6924 145.521 31.4471 145.187 31.1724L141.774 28.1118V20.3425L155.9 15.8693V19.7539L143.245 23.7269V23.9034L150.75 30.7604C151.377 31.349 151.936 31.8297 152.427 32.2025C152.937 32.5556 153.398 32.8401 153.81 33.0559C154.242 33.2521 154.644 33.3894 155.017 33.4679C155.39 33.5464 155.782 33.5856 156.194 33.5856V37.1171L155.311 38C154.644 38 154.036 37.9411 153.486 37.8234C152.957 37.6861 152.427 37.4507 151.897 37.1171C151.368 36.764 150.808 36.3029 150.22 35.734C149.651 35.1454 149.003 34.3998 148.277 33.4973L147.483 32.5262L147.336 32.6145C147.414 32.9872 147.453 33.3796 147.453 33.7916C147.453 34.3802 147.365 34.9296 147.189 35.4397C147.012 35.9498 146.757 36.401 146.423 36.7934C146.09 37.1662 145.688 37.4605 145.217 37.6763C144.746 37.8921 144.216 38 143.628 38H140.596V34.4685ZM155.311 34.4685L156.194 33.5856H157.077C158.646 33.5856 159.431 32.8989 159.431 31.5256V27.3172H162.668V31.5256C162.668 32.8989 163.355 33.5856 164.728 33.5856H165.906V37.1171L165.023 38C163.453 38 162.256 37.6861 161.432 37.0583C160.628 36.4108 160.088 35.4004 159.814 34.0271H159.637C159.362 35.4004 158.892 36.4108 158.225 37.0583C157.557 37.6861 156.586 38 155.311 38V34.4685ZM163.08 24.9629C162.57 24.9629 162.148 24.8059 161.815 24.492C161.501 24.1781 161.344 23.6778 161.344 22.9911C161.344 22.3045 161.501 21.8042 161.815 21.4903C162.148 21.1763 162.57 21.0194 163.08 21.0194H163.669C164.179 21.0194 164.591 21.1763 164.905 21.4903C165.238 21.8042 165.405 22.3045 165.405 22.9911C165.405 23.6778 165.238 24.1781 164.905 24.492C164.591 24.8059 164.179 24.9629 163.669 24.9629H163.08ZM158.431 24.9629C157.92 24.9629 157.499 24.8059 157.165 24.492C156.851 24.1781 156.694 23.6778 156.694 22.9911C156.694 22.3045 156.851 21.8042 157.165 21.4903C157.499 21.1763 157.92 21.0194 158.431 21.0194H159.019C159.529 21.0194 159.941 21.1763 160.255 21.4903C160.589 21.8042 160.755 22.3045 160.755 22.9911C160.755 23.6778 160.589 24.1781 160.255 24.492C159.941 24.8059 159.529 24.9629 159.019 24.9629H158.431ZM170.535 21.6692L174.008 20.08V19.9329C173.615 19.6778 173.311 19.3541 173.095 18.9617C172.879 18.5693 172.771 18.1377 172.771 17.6668C172.771 16.8232 173.046 16.1169 173.595 15.5479C174.164 14.9593 174.881 14.6651 175.744 14.6651C176.587 14.6651 177.284 14.9397 177.833 15.4891C178.402 16.0384 178.687 16.7349 178.687 17.5785C178.687 19.3443 177.667 20.6882 175.626 21.6103L171.388 23.5527L170.535 21.6692ZM174.655 17.5785C174.655 18.0102 174.979 18.3829 175.626 18.6968L176.156 18.9617C176.372 18.8048 176.529 18.6478 176.627 18.4908C176.725 18.3143 176.774 18.0886 176.774 17.814C176.774 17.5001 176.666 17.245 176.45 17.0488C176.254 16.833 175.989 16.7251 175.656 16.7251C175.381 16.7251 175.145 16.8036 174.949 16.9605C174.753 17.1175 174.655 17.3235 174.655 17.5785ZM169.351 36.352C168.9 36.9602 168.331 37.3918 167.644 37.6469C166.977 37.8823 166.104 38 165.025 38V34.4685L165.908 33.5856C166.634 33.5856 167.163 33.4777 167.497 33.2619C167.831 33.0461 168.105 32.6635 168.321 32.1142L169.145 30.0836C169.4 29.4557 169.685 28.8672 169.998 28.3178C170.312 27.7685 170.685 27.2878 171.117 26.8758C171.548 26.4638 172.029 26.1401 172.559 25.9046C173.108 25.6692 173.736 25.5515 174.442 25.5515C176.286 25.5515 177.67 26.2774 178.592 27.7292C179.534 29.1811 180.004 31.1921 180.004 33.7622V34.6156L177.209 38.7652L169.351 36.352ZM170.97 32.2613L176.885 34.0565V33.7622C176.885 32.585 176.6 31.6629 176.031 30.9959C175.462 30.3288 174.688 29.9953 173.707 29.9953C173.079 29.9953 172.529 30.162 172.059 30.4956C171.607 30.8291 171.264 31.3588 171.028 32.0847L170.97 32.2613ZM192.482 38.3531C191.599 38.3531 190.942 38.1373 190.511 37.7057C190.099 37.2545 189.893 36.6855 189.893 35.9988V35.4102C189.893 34.2135 190.177 33.0363 190.746 31.8787C191.335 30.7212 192.1 29.7795 193.041 29.0535H195.984C195.298 29.701 194.709 30.3484 194.219 30.9959C193.728 31.6237 193.355 32.33 193.1 33.1148C193.787 33.2325 194.287 33.5072 194.601 33.9388C194.915 34.3508 195.072 34.8413 195.072 35.4102V35.9988C195.072 36.6855 194.856 37.2545 194.425 37.7057C194.013 38.1373 193.365 38.3531 192.482 38.3531ZM204.696 10.1977L197.397 13.5527L196.544 11.6692L203.842 8.28484L204.696 10.1977ZM204.696 5.7245L197.397 9.07943L196.544 7.19596L203.842 3.81161L204.696 5.7245ZM204.712 38C202.731 38 201.259 37.5291 200.298 36.5874C199.336 35.6457 198.856 34.1154 198.856 31.9965V16.2224H202.387V31.4079C202.387 32.2907 202.564 32.8793 202.917 33.1736C203.27 33.4483 203.878 33.5856 204.742 33.5856H205.625V37.1171L204.742 38H204.712ZM204.743 34.4685L205.626 33.5856H206.509C208.078 33.5856 208.863 32.8989 208.863 31.5256V27.3172H212.1V31.5256C212.1 32.8989 212.787 33.5856 214.16 33.5856H215.337V37.1171L214.454 38C212.885 38 211.688 37.6861 210.864 37.0583C210.06 36.4108 209.52 35.4004 209.245 34.0271H209.069C208.794 35.4004 208.323 36.4108 207.656 37.0583C206.989 37.6861 206.018 38 204.743 38V34.4685ZM212.512 24.9629C212.002 24.9629 211.58 24.8059 211.247 24.492C210.933 24.1781 210.776 23.6778 210.776 22.9911C210.776 22.3045 210.933 21.8042 211.247 21.4903C211.58 21.1763 212.002 21.0194 212.512 21.0194H213.101C213.611 21.0194 214.023 21.1763 214.337 21.4903C214.67 21.8042 214.837 22.3045 214.837 22.9911C214.837 23.6778 214.67 24.1781 214.337 24.492C214.023 24.8059 213.611 24.9629 213.101 24.9629H212.512ZM207.862 24.9629C207.352 24.9629 206.93 24.8059 206.597 24.492C206.283 24.1781 206.126 23.6778 206.126 22.9911C206.126 22.3045 206.283 21.8042 206.597 21.4903C206.93 21.1763 207.352 21.0194 207.862 21.0194H208.451C208.961 21.0194 209.373 21.1763 209.687 21.4903C210.02 21.8042 210.187 22.3045 210.187 22.9911C210.187 23.6778 210.02 24.1781 209.687 24.492C209.373 24.8059 208.961 24.9629 208.451 24.9629H207.862ZM214.457 34.4685L215.34 33.5856H218.489L218.547 33.4385C217.802 32.6929 217.282 31.9082 216.988 31.0842C216.713 30.2405 216.576 29.4263 216.576 28.6415C216.576 27.7587 216.713 26.9346 216.988 26.1695C217.262 25.3847 217.655 24.7078 218.165 24.1389C218.675 23.5503 219.283 23.0892 219.989 22.7557C220.715 22.4222 221.51 22.2554 222.373 22.2554C223.236 22.2554 224.021 22.4222 224.727 22.7557C225.453 23.0892 226.071 23.5503 226.582 24.1389C227.092 24.7078 227.484 25.3847 227.759 26.1695C228.033 26.9346 228.171 27.7587 228.171 28.6415C228.171 29.4263 228.024 30.2405 227.729 31.0842C227.455 31.9082 226.944 32.6929 226.199 33.4385L226.258 33.5856H229.524V37.1171L228.642 38H228.347C227.288 38 226.258 37.8627 225.257 37.588C224.257 37.3133 223.305 36.8228 222.403 36.1165C221.5 36.8228 220.549 37.3133 219.548 37.588C218.547 37.8627 217.517 38 216.458 38H214.457V34.4685ZM222.373 33.2031C223.374 32.6341 224.129 32.0455 224.639 31.4373C225.149 30.8095 225.404 30.1032 225.404 29.3184C225.404 28.4944 225.13 27.8469 224.58 27.3761C224.031 26.9052 223.354 26.6698 222.55 26.6698H222.197C221.392 26.6698 220.715 26.9052 220.166 27.3761C219.617 27.8469 219.342 28.4944 219.342 29.3184C219.342 30.1032 219.597 30.8095 220.107 31.4373C220.617 32.0455 221.373 32.6341 222.373 33.2031ZM222.079 19.9011C221.569 19.9011 221.147 19.7441 220.813 19.4302C220.499 19.1163 220.343 18.616 220.343 17.9293C220.343 17.2426 220.499 16.7424 220.813 16.4284C221.147 16.1145 221.569 15.9576 222.079 15.9576H222.667C223.178 15.9576 223.59 16.1145 223.903 16.4284C224.237 16.7424 224.404 17.2426 224.404 17.9293C224.404 18.616 224.237 19.1163 223.903 19.4302C223.59 19.7441 223.178 19.9011 222.667 19.9011H222.079ZM228.654 34.4685L229.537 33.5856H230.273C231.842 33.5856 232.627 32.8989 232.627 31.5256V16.2224H236.158V31.5256C236.158 32.8989 236.845 33.5856 238.218 33.5856H239.248V37.1171L238.366 38C236.757 38 235.531 37.6861 234.687 37.0583C233.843 36.4108 233.284 35.4004 233.009 34.0271H232.833C232.578 35.4004 232.127 36.4108 231.479 37.0583C230.832 37.6861 229.89 38 228.654 38V34.4685ZM243.878 21.6692L247.35 20.08V19.9329C246.958 19.6778 246.654 19.3541 246.438 18.9617C246.222 18.5693 246.114 18.1377 246.114 17.6668C246.114 16.8232 246.389 16.1169 246.938 15.5479C247.507 14.9593 248.224 14.6651 249.087 14.6651C249.93 14.6651 250.627 14.9397 251.176 15.4891C251.745 16.0384 252.03 16.7349 252.03 17.5785C252.03 19.3443 251.009 20.6882 248.969 21.6103L244.731 23.5527L243.878 21.6692ZM247.998 17.5785C247.998 18.0102 248.322 18.3829 248.969 18.6968L249.499 18.9617C249.715 18.8048 249.872 18.6478 249.97 18.4908C250.068 18.3143 250.117 18.0886 250.117 17.814C250.117 17.5001 250.009 17.245 249.793 17.0488C249.597 16.833 249.332 16.7251 248.998 16.7251C248.724 16.7251 248.488 16.8036 248.292 16.9605C248.096 17.1175 247.998 17.3235 247.998 17.5785ZM242.694 36.352C242.243 36.9602 241.674 37.3918 240.987 37.6469C240.32 37.8823 239.447 38 238.368 38V34.4685L239.251 33.5856C239.977 33.5856 240.506 33.4777 240.84 33.2619C241.173 33.0461 241.448 32.6635 241.664 32.1142L242.488 30.0836C242.743 29.4557 243.028 28.8672 243.341 28.3178C243.655 27.7685 244.028 27.2878 244.46 26.8758C244.891 26.4638 245.372 26.1401 245.902 25.9046C246.451 25.6692 247.079 25.5515 247.785 25.5515C249.629 25.5515 251.013 26.2774 251.935 27.7292C252.876 29.1811 253.347 31.1921 253.347 33.7622V34.6156L250.552 38.7652L242.694 36.352ZM244.313 32.2613L250.228 34.0565V33.7622C250.228 32.585 249.943 31.6629 249.374 30.9959C248.805 30.3288 248.03 29.9953 247.049 29.9953C246.422 29.9953 245.872 30.162 245.401 30.4956C244.95 30.8291 244.607 31.3588 244.371 32.0847L244.313 32.2613ZM463.866 45.063C461.139 45.063 459.079 44.3567 457.686 42.9441C456.293 41.5511 455.596 39.5696 455.596 36.9994C455.596 36.1165 455.714 35.1258 455.949 34.0271C456.205 32.9088 456.548 31.8297 456.98 30.7899L459.805 31.6139C459.412 32.4575 459.098 33.311 458.863 34.1742C458.647 35.0375 458.539 35.783 458.539 36.4108C458.539 37.6469 458.902 38.5984 459.628 39.2655C460.374 39.9521 461.394 40.2955 462.689 40.2955H465.043C465.808 40.2955 466.456 40.1974 466.985 40.0012C467.515 39.8246 467.937 39.5205 468.251 39.0889C468.584 38.6769 468.82 38.1373 468.957 37.4703C469.114 36.7836 469.193 35.9498 469.193 34.9688V16.2224H472.724V33.5856H475.991V37.1171L475.108 38H472.489C472.096 40.4132 471.204 42.1887 469.811 43.3267C468.418 44.4842 466.436 45.063 463.866 45.063ZM475.094 34.4685L475.977 33.5856H479.126V37.1171L478.243 38H475.094V34.4685ZM478.256 34.4685L479.138 33.5856H482.287V37.1171L481.405 38H478.256V34.4685ZM481.417 34.4685L482.3 33.5856H485.449V37.1171L484.566 38H481.417V34.4685ZM484.578 34.4685L485.461 33.5856H488.61V37.1171L487.727 38H484.578V34.4685ZM487.74 34.4685L488.622 33.5856H491.771V37.1171L490.889 38H487.74V34.4685ZM490.901 34.4685L491.784 33.5856H494.933V37.1171L494.05 38H490.901V34.4685ZM494.062 34.4685L494.945 33.5856H498.094V37.1171L497.211 38H494.062V34.4685ZM497.224 34.4685L498.106 33.5856H501.255V37.1171L500.373 38H497.224V34.4685ZM500.385 34.4685L501.268 33.5856H504.417V37.1171L503.534 38H500.385V34.4685ZM503.546 34.4685L504.429 33.5856H507.578V37.1171L506.695 38H503.546V34.4685ZM506.708 34.4685L507.59 33.5856H510.739V37.1171L509.857 38H506.708V34.4685ZM509.869 34.4685L510.752 33.5856H513.901V37.1171L513.018 38H509.869V34.4685ZM513.03 34.4685L513.913 33.5856H517.062V37.1171L516.179 38H513.03V34.4685ZM516.192 34.4685L517.074 33.5856H520.223V37.1171L519.341 38H516.192V34.4685ZM519.353 34.4685L520.236 33.5856H523.385V37.1171L522.502 38H519.353V34.4685ZM522.514 34.4685L523.397 33.5856H526.546V37.1171L525.663 38H522.514V34.4685ZM525.676 34.4685L526.558 33.5856H529.707V37.1171L528.825 38H525.676V34.4685ZM528.837 34.4685L529.72 33.5856H532.869V37.1171L531.986 38H528.837V34.4685ZM531.998 34.4685L532.881 33.5856H536.03V37.1171L535.147 38H531.998V34.4685ZM535.16 34.4685L536.042 33.5856H539.191V37.1171L538.309 38H535.16V34.4685ZM538.321 34.4685L539.204 33.5856H542.353V37.1171L541.47 38H538.321V34.4685ZM541.482 34.4685L542.365 33.5856H545.514V37.1171L544.631 38H541.482V34.4685ZM544.644 34.4685L545.526 33.5856H548.675V37.1171L547.793 38H544.644V34.4685ZM547.805 34.4685L548.688 33.5856H551.837V37.1171L550.954 38H547.805V34.4685ZM550.966 34.4685L551.849 33.5856H554.998V37.1171L554.115 38H550.966V34.4685ZM554.128 34.4685L555.01 33.5856H558.159V37.1171L557.277 38H554.128V34.4685ZM557.289 34.4685L558.172 33.5856H561.321V37.1171L560.438 38H557.289V34.4685ZM560.45 34.4685L561.333 33.5856H564.482V37.1171L563.599 38H560.45V34.4685ZM563.612 34.4685L564.495 33.5856H567.643V37.1171L566.761 38H563.612V34.4685ZM566.773 34.4685L567.656 33.5856H570.805V37.1171L569.922 38H566.773V34.4685ZM569.934 34.4685L570.817 33.5856H573.966V37.1171L573.083 38H569.934V34.4685ZM573.096 34.4685L573.979 33.5856H577.127V37.1171L576.245 38H573.096V34.4685ZM576.257 34.4685L577.14 33.5856H580.289V37.1171L579.406 38H576.257V34.4685ZM579.418 34.4685L580.301 33.5856H584.127L584.186 33.4385L581.331 29.9364V25.3749C582.312 24.9237 583.342 24.5803 584.421 24.3449C585.52 24.0898 586.589 23.9623 587.629 23.9623C589.905 23.9623 591.573 24.3645 592.632 25.1689C593.691 25.9733 594.221 27.2387 594.221 28.9653C594.221 29.495 594.172 29.9658 594.074 30.3779C593.976 30.7702 593.819 31.143 593.603 31.4962C593.407 31.8297 593.142 32.1534 592.809 32.4673C592.495 32.7812 592.102 33.1246 591.631 33.4973L591.661 33.5856H595.251V37.1171L594.368 38H594.074C593.015 38 591.916 37.8823 590.778 37.6469C589.66 37.3918 588.649 36.9798 587.747 36.4108C586.844 36.9798 585.893 37.3918 584.892 37.6469C583.892 37.8823 582.861 38 581.802 38H579.418V34.4685ZM584.156 28.9358L587.982 33.4385L589.777 31.967C590.052 31.7316 590.287 31.5354 590.484 31.3784C590.68 31.2215 590.837 31.0743 590.954 30.937C591.072 30.7801 591.151 30.6329 591.19 30.4956C591.249 30.3386 591.278 30.1522 591.278 29.9364C591.278 29.3675 591.004 28.9653 590.454 28.7298C589.924 28.4944 588.983 28.3767 587.629 28.3767C587.021 28.3767 586.403 28.4159 585.775 28.4944C585.147 28.5729 584.608 28.6612 584.156 28.7592V28.9358ZM594.363 34.4685L595.246 33.5856H597.276C598.375 33.5856 599.356 33.5758 600.219 33.5562C601.102 33.517 601.936 33.4385 602.721 33.3208C603.505 33.203 604.271 33.0265 605.016 32.791C605.762 32.5556 606.556 32.2319 607.4 31.8199L608.489 31.2902V31.143L603.78 30.1424L599.336 29.0535V31.2607H595.952V28.9947C595.952 27.6017 596.246 26.5815 596.835 25.9341C597.443 25.2866 598.365 24.9629 599.601 24.9629C599.758 24.9629 599.915 24.9727 600.072 24.9923C600.249 25.0119 600.445 25.0414 600.661 25.0806C600.896 25.1198 601.171 25.1787 601.485 25.2572C601.799 25.3357 602.191 25.4338 602.662 25.5515L608.342 27.0229C609.126 27.2387 609.97 27.4055 610.873 27.5232C611.775 27.6409 612.668 27.6998 613.551 27.6998H614.139V32.1142H611.844L609.077 33.9976C607.782 34.8805 606.615 35.5868 605.575 36.1165C604.555 36.6266 603.584 37.0288 602.662 37.3231C601.74 37.5978 600.847 37.7842 599.984 37.8823C599.121 37.9608 598.218 38 597.276 38H594.363V34.4685ZM604.516 44.3273C604.006 44.3273 603.584 44.1703 603.25 43.8564C602.936 43.5425 602.78 43.0422 602.78 42.3555C602.78 41.6688 602.936 41.1685 603.25 40.8546C603.584 40.5407 604.006 40.3838 604.516 40.3838H605.104C605.615 40.3838 606.027 40.5407 606.34 40.8546C606.674 41.1685 606.841 41.6688 606.841 42.3555C606.841 43.0422 606.674 43.5425 606.34 43.8564C606.027 44.1703 605.615 44.3273 605.104 44.3273H604.516ZM615.908 33.5856L620.97 29.0241L614.142 22.6086L616.703 19.8422L623.766 26.4932C624.099 26.1204 624.335 25.7182 624.472 25.2866C624.629 24.8354 624.707 24.2468 624.707 23.5209V16.2224H628.239V23.5209C628.239 24.031 628.19 24.5018 628.092 24.9335C628.013 25.3651 627.876 25.7771 627.68 26.1695C627.503 26.5619 627.258 26.9445 626.944 27.3172C626.63 27.6704 626.257 28.0431 625.826 28.4355L626.856 29.3773C627.268 29.7697 627.621 30.1424 627.915 30.4956C628.21 30.8487 628.445 31.2019 628.622 31.555C628.798 31.9082 628.926 32.2809 629.004 32.6733C629.083 33.0461 629.122 33.4483 629.122 33.8799C629.122 34.4685 629.014 35.0178 628.798 35.528C628.602 36.0184 628.317 36.4501 627.945 36.8228C627.591 37.1956 627.17 37.4899 626.679 37.7057C626.189 37.9019 625.649 38 625.061 38H615.908V33.5856ZM622.942 30.8487L619.822 33.4679L619.852 33.5856H625.885L622.942 30.8487ZM615.526 16.2519H616.762L616.791 16.1047C616.399 15.6731 616.202 15.1532 616.202 14.545C616.202 13.721 616.497 13.0441 617.085 12.5144C617.693 11.965 618.468 11.6903 619.41 11.6903C619.979 11.6903 620.528 11.8081 621.058 12.0435C621.588 12.2789 622.049 12.6027 622.441 13.0147L621.029 14.9864C620.558 14.5155 620.018 14.2801 619.41 14.2801C619.077 14.2801 618.802 14.3586 618.586 14.5155C618.39 14.6725 618.292 14.8589 618.292 15.0747C618.292 15.7221 618.969 16.0459 620.322 16.0459H622.5V18.6356H615.526V16.2519ZM641.68 38.3237C640.798 38.3237 640.14 38.1079 639.709 37.6763C639.297 37.225 639.091 36.6561 639.091 35.9694V35.3808C639.091 34.6941 639.297 34.135 639.709 33.7033C640.14 33.2521 640.798 33.0265 641.68 33.0265C642.563 33.0265 643.211 33.2521 643.623 33.7033C644.054 34.135 644.27 34.6941 644.27 35.3808V35.9694C644.27 36.6561 644.054 37.225 643.623 37.6763C643.211 38.1079 642.563 38.3237 641.68 38.3237ZM650.303 38.3237C649.42 38.3237 648.763 38.1079 648.331 37.6763C647.919 37.225 647.713 36.6561 647.713 35.9694V35.3808C647.713 34.6941 647.919 34.135 648.331 33.7033C648.763 33.2521 649.42 33.0265 650.303 33.0265C651.186 33.0265 651.834 33.2521 652.246 33.7033C652.677 34.135 652.893 34.6941 652.893 35.3808V35.9694C652.893 36.6561 652.677 37.225 652.246 37.6763C651.834 38.1079 651.186 38.3237 650.303 38.3237ZM658.955 38.3237C658.073 38.3237 657.415 38.1079 656.984 37.6763C656.572 37.225 656.366 36.6561 656.366 35.9694V35.3808C656.366 34.6941 656.572 34.135 656.984 33.7033C657.415 33.2521 658.073 33.0265 658.955 33.0265C659.838 33.0265 660.486 33.2521 660.898 33.7033C661.329 34.135 661.545 34.6941 661.545 35.3808V35.9694C661.545 36.6561 661.329 37.225 660.898 37.6763C660.486 38.1079 659.838 38.3237 658.955 38.3237ZM680.55 46.9465C677.686 46.9465 675.459 46.2794 673.87 44.9453C672.3 43.6112 671.515 41.7277 671.515 39.2949C671.515 37.7449 671.957 36.352 672.84 35.1159C673.742 33.8799 675.174 32.791 677.136 31.8493V31.7022C675.92 30.9566 675.027 30.1326 674.458 29.2301C673.909 28.308 673.634 27.2682 673.634 26.1106C673.634 25.2081 673.791 24.3351 674.105 23.4914C674.419 22.6282 674.87 21.8728 675.459 21.2254C676.067 20.5583 676.793 20.0286 677.637 19.6362C678.5 19.2438 679.471 19.0476 680.55 19.0476C682.002 19.0476 683.238 19.3812 684.258 20.0482C685.278 20.7153 686.102 21.5883 686.73 22.6674L683.581 25.4632C683.15 24.7765 682.649 24.2762 682.08 23.9623C681.511 23.6288 680.805 23.462 679.962 23.462C678.902 23.462 678.068 23.6876 677.46 24.1389C676.871 24.5901 676.577 25.2572 676.577 26.1401C676.577 27.945 678.039 28.8475 680.962 28.8475C681.511 28.8475 682.1 28.8181 682.728 28.7592C683.356 28.7004 684.052 28.6023 684.817 28.465L687.172 28.0529L687.849 32.1142L683.993 32.7616C680.795 33.2913 678.461 34.0173 676.989 34.9394C675.518 35.8615 674.782 37.0681 674.782 38.5592V38.9123C674.782 40.1483 675.292 41.0606 676.312 41.6492C677.333 42.2378 678.745 42.5321 680.55 42.5321C681.963 42.5321 683.356 42.277 684.729 41.7669C686.122 41.2764 687.319 40.5701 688.319 39.648L690.527 43.1207C689.291 44.3175 687.799 45.2494 686.053 45.9164C684.307 46.6031 682.473 46.9465 680.55 46.9465ZM694.775 38C693.402 38 692.352 37.6567 691.626 36.97C690.9 36.2833 690.537 35.1846 690.537 33.6739V31.7022H693.922V33.5856H697.954C698.601 33.5856 699.072 33.4875 699.366 33.2913C699.68 33.0951 699.837 32.7714 699.837 32.3202C699.837 32.1044 699.788 31.8493 699.69 31.555C699.611 31.2607 699.523 30.9664 699.425 30.6721L696.835 23.2266L700.602 21.9023L703.575 30.4073C703.79 31.0547 704.006 31.5844 704.222 31.9965C704.438 32.4085 704.663 32.7322 704.899 32.9676C705.154 33.203 705.419 33.3698 705.693 33.4679C705.988 33.5464 706.331 33.5856 706.723 33.5856H707.606V37.1171L706.723 38C705.899 38 705.183 37.9411 704.575 37.8234C703.967 37.7057 703.418 37.4899 702.927 37.176C702.456 36.8621 702.025 36.4501 701.632 35.94C701.259 35.4299 700.896 34.7726 700.543 33.9682L700.426 34.0271C700.308 34.7334 700.141 35.3416 699.925 35.8517C699.729 36.3618 699.474 36.7738 699.16 37.0877C698.846 37.4016 698.464 37.637 698.012 37.794C697.561 37.9313 697.022 38 696.394 38H694.775ZM706.734 34.4685L707.617 33.5856H708.47C709.176 33.5856 709.755 33.5562 710.206 33.4973C710.677 33.4385 711.05 33.3404 711.325 33.2031C711.619 33.0461 711.815 32.8597 711.913 32.6439C712.031 32.4085 712.09 32.124 712.09 31.7905C712.09 31.4962 712.06 31.1234 712.002 30.6721C711.962 30.2013 711.874 29.5931 711.737 28.8475L711.236 26.1106L714.444 25.5809L714.886 28.3178C714.984 28.8475 715.062 29.4361 715.121 30.0836C715.18 30.731 715.209 31.3 715.209 31.7905C715.209 33.929 714.68 35.4985 713.62 36.4991C712.58 37.4997 710.864 38 708.47 38H706.734V34.4685ZM711.884 44.3273C711.374 44.3273 710.952 44.1703 710.618 43.8564C710.305 43.5425 710.148 43.0422 710.148 42.3555C710.148 41.6688 710.305 41.1685 710.618 40.8546C710.952 40.5407 711.374 40.3838 711.884 40.3838H712.473C712.983 40.3838 713.395 40.5407 713.709 40.8546C714.042 41.1685 714.209 41.6688 714.209 42.3555C714.209 43.0422 714.042 43.5425 713.709 43.8564C713.395 44.1703 712.983 44.3273 712.473 44.3273H711.884ZM715.721 7.66919L719.194 6.08002V5.93287C718.801 5.67782 718.497 5.3541 718.282 4.96171C718.066 4.56932 717.958 4.13769 717.958 3.66683C717.958 2.82319 718.232 2.11689 718.782 1.54793C719.351 0.959346 720.067 0.665055 720.93 0.665055C721.774 0.665055 722.47 0.939727 723.02 1.48907C723.589 2.03841 723.873 2.7349 723.873 3.57854C723.873 5.34429 722.853 6.68822 720.812 7.61033L716.575 9.55265L715.721 7.66919ZM719.841 3.57854C719.841 4.01017 720.165 4.38294 720.812 4.69685L721.342 4.96171C721.558 4.80475 721.715 4.6478 721.813 4.49084C721.911 4.31427 721.96 4.08864 721.96 3.81397C721.96 3.50006 721.852 3.24501 721.636 3.04881C721.44 2.833 721.175 2.72509 720.842 2.72509C720.567 2.72509 720.332 2.80357 720.136 2.96053C719.939 3.11748 719.841 3.32349 719.841 3.57854ZM718.155 19.8128H721.686V38H718.155V19.8128ZM716.419 15.0747H717.655L717.684 14.9276C717.292 14.4959 717.095 13.976 717.095 13.3678C717.095 12.5438 717.39 11.8669 717.978 11.3372C718.586 10.7879 719.361 10.5132 720.303 10.5132C720.872 10.5132 721.421 10.6309 721.951 10.8663C722.481 11.1018 722.942 11.4255 723.334 11.8375L721.922 13.8092C721.451 13.3384 720.911 13.1029 720.303 13.1029C719.97 13.1029 719.695 13.1814 719.479 13.3384C719.283 13.4953 719.185 13.6817 719.185 13.8975C719.185 14.545 719.862 14.8687 721.215 14.8687H723.393V17.4585H716.419V15.0747ZM724.622 40.6486H726.506C729.076 40.6486 730.959 40.1974 732.156 39.2949C733.353 38.412 733.951 37.2643 733.951 35.8517V35.0865H733.775C733.481 36.0871 733 36.8228 732.333 37.2937C731.685 37.7646 730.861 38 729.861 38C728.272 38 727.026 37.5389 726.123 36.6168C725.24 35.6751 724.799 34.3704 724.799 32.7028C724.799 31.6825 724.946 30.7408 725.24 29.8776C725.554 28.9947 725.976 28.2393 726.506 27.6115C727.055 26.9641 727.693 26.4638 728.419 26.1106C729.164 25.7379 729.969 25.5515 730.832 25.5515C731.793 25.5515 732.647 25.7575 733.392 26.1695C734.157 26.5619 734.795 27.1406 735.305 27.9058C735.835 28.6513 736.237 29.5735 736.512 30.6721C736.786 31.7708 736.924 33.0069 736.924 34.3802C736.924 37.7351 736.061 40.3543 734.334 42.2378C732.627 44.1213 730.116 45.063 726.8 45.063H724.622V40.6486ZM730.773 33.5856C731.538 33.5856 732.176 33.5562 732.686 33.4973C733.196 33.4189 733.608 33.3011 733.922 33.1442C733.844 32.1828 733.481 31.4177 732.833 30.8487C732.186 30.2601 731.391 29.9658 730.449 29.9658C729.684 29.9658 729.037 30.1718 728.507 30.5839C727.997 30.9762 727.742 31.4864 727.742 32.1142C727.742 32.6439 727.958 33.0265 728.389 33.2619C728.821 33.4777 729.41 33.5856 730.155 33.5856H730.773ZM749.423 38.3531C748.54 38.3531 747.883 38.1373 747.451 37.7057C747.039 37.2545 746.833 36.6855 746.833 35.9988V35.4102C746.833 34.2135 747.118 33.0363 747.687 31.8787C748.275 30.7212 749.04 29.7795 749.982 29.0535H752.925C752.238 29.701 751.65 30.3484 751.159 30.9959C750.669 31.6237 750.296 32.33 750.041 33.1148C750.728 33.2325 751.228 33.5072 751.542 33.9388C751.856 34.3508 752.013 34.8413 752.013 35.4102V35.9988C752.013 36.6855 751.797 37.2545 751.365 37.7057C750.953 38.1373 750.306 38.3531 749.423 38.3531ZM763.948 46.9465C762.497 46.9465 761.202 46.7601 760.064 46.3873C758.926 46.0145 757.955 45.475 757.15 44.7687C756.366 44.0624 755.757 43.1991 755.326 42.1789C754.914 41.1783 754.708 40.0306 754.708 38.7357C754.708 36.6561 755.424 34.9197 756.856 33.5268C758.288 32.1142 760.535 30.9272 763.595 29.9658L769.452 28.1412V27.9647L759.004 27.7292V29.8187H755.62V27.6115C755.62 26.1204 755.993 25.0316 756.738 24.3449C757.503 23.6386 758.749 23.3345 760.476 23.4326L771.983 24.1389V30.8193L770.482 31.2313V31.9965C770.482 32.585 770.639 32.997 770.953 33.2325C771.266 33.4679 771.796 33.5856 772.542 33.5856H773.425V37.1171L772.542 38C770.854 37.9804 769.599 37.5389 768.775 36.6757C767.951 35.7928 767.539 34.4293 767.539 32.585V32.0259L765.42 32.585C764.047 32.9578 762.889 33.311 761.947 33.6445C761.006 33.978 760.24 34.3508 759.652 34.7628C759.063 35.1552 758.632 35.6162 758.357 36.146C758.102 36.6561 757.974 37.2643 757.974 37.9706V38.3237C757.974 39.0104 758.072 39.6088 758.269 40.1189C758.484 40.6486 758.838 41.0901 759.328 41.4432C759.819 41.7964 760.456 42.0612 761.241 42.2378C762.045 42.434 763.036 42.5321 764.213 42.5321C765.567 42.5321 766.872 42.277 768.127 41.7669C769.383 41.2764 770.482 40.5701 771.423 39.648L773.631 43.1207C772.434 44.3175 770.982 45.2494 769.275 45.9164C767.588 46.6031 765.812 46.9465 763.948 46.9465ZM763.566 39.6775C763.056 39.6775 762.634 39.5205 762.3 39.2066C761.987 38.8927 761.83 38.3924 761.83 37.7057C761.83 37.019 761.987 36.5187 762.3 36.2048C762.634 35.8909 763.056 35.734 763.566 35.734H764.154C764.665 35.734 765.077 35.8909 765.39 36.2048C765.724 36.5187 765.891 37.019 765.891 37.7057C765.891 38.3924 765.724 38.8927 765.39 39.2066C765.077 39.5205 764.665 39.6775 764.154 39.6775H763.566ZM785.433 42.1977L778.134 45.5527L777.281 43.6692L784.579 40.2848L785.433 42.1977ZM776.873 36.352C776.422 36.9602 775.853 37.3918 775.166 37.6469C774.499 37.8823 773.626 38 772.547 38V34.4685L773.43 33.5856C774.156 33.5856 774.686 33.4777 775.019 33.2619C775.353 33.0461 775.627 32.6635 775.843 32.1142L776.667 30.0836C776.922 29.4557 777.207 28.8672 777.521 28.3178C777.834 27.7685 778.207 27.2878 778.639 26.8758C779.07 26.4638 779.551 26.1401 780.081 25.9046C780.63 25.6692 781.258 25.5515 781.964 25.5515C783.809 25.5515 785.192 26.2774 786.114 27.7292C787.056 29.1811 787.526 31.1921 787.526 33.7622V34.6156L784.731 38.7652L776.873 36.352ZM778.492 32.2613L784.407 34.0565V33.7622C784.407 32.585 784.122 31.6629 783.553 30.9959C782.985 30.3288 782.21 29.9953 781.229 29.9953C780.601 29.9953 780.051 30.162 779.581 30.4956C779.129 30.8291 778.786 31.3588 778.551 32.0847L778.492 32.2613ZM786.781 40.6486H787.958C789.744 40.6486 791.048 40.2857 791.872 39.5597C792.716 38.8338 793.128 37.6272 793.108 35.94C793.108 35.4887 793.079 35.0178 793.02 34.5274C792.961 34.0173 792.883 33.4777 792.785 32.9088L792.167 28.9947L795.374 28.4944L795.816 31.2313C795.894 31.6629 795.953 32.0749 795.992 32.4673C796.051 32.8597 796.1 33.2325 796.14 33.5856H798.847V37.1171L797.964 38H796.14C795.806 40.1778 794.943 41.8945 793.55 43.1501C792.176 44.4254 790.322 45.063 787.988 45.063H786.781V40.6486ZM797.953 34.4685L798.836 33.5856H799.689C800.395 33.5856 800.974 33.5562 801.425 33.4973C801.896 33.4385 802.269 33.3404 802.544 33.2031C802.838 33.0461 803.034 32.8597 803.132 32.6439C803.25 32.4085 803.309 32.124 803.309 31.7905C803.309 31.4962 803.279 31.1234 803.22 30.6721C803.181 30.2013 803.093 29.5931 802.956 28.8475L802.455 26.1106L805.663 25.5809L806.105 28.3178C806.203 28.8475 806.281 29.4361 806.34 30.0836C806.399 30.731 806.428 31.3 806.428 31.7905C806.428 33.929 805.899 35.4985 804.839 36.4991C803.799 37.4997 802.083 38 799.689 38H797.953V34.4685ZM803.103 44.3273C802.593 44.3273 802.171 44.1703 801.837 43.8564C801.523 43.5425 801.366 43.0422 801.366 42.3555C801.366 41.6688 801.523 41.1685 801.837 40.8546C802.171 40.5407 802.593 40.3838 803.103 40.3838H803.691C804.201 40.3838 804.613 40.5407 804.927 40.8546C805.261 41.1685 805.428 41.6688 805.428 42.3555C805.428 43.0422 805.261 43.5425 804.927 43.8564C804.613 44.1703 804.201 44.3273 803.691 44.3273H803.103ZM806.94 7.66919L810.413 6.08002V5.93287C810.02 5.67782 809.716 5.3541 809.5 4.96171C809.285 4.56932 809.177 4.13769 809.177 3.66683C809.177 2.82319 809.451 2.11689 810.001 1.54793C810.57 0.959346 811.286 0.665055 812.149 0.665055C812.993 0.665055 813.689 0.939727 814.238 1.48907C814.807 2.03841 815.092 2.7349 815.092 3.57854C815.092 5.34429 814.072 6.68822 812.031 7.61033L807.793 9.55265L806.94 7.66919ZM811.06 3.57854C811.06 4.01017 811.384 4.38294 812.031 4.69685L812.561 4.96171C812.777 4.80475 812.934 4.6478 813.032 4.49084C813.13 4.31427 813.179 4.08864 813.179 3.81397C813.179 3.50006 813.071 3.24501 812.855 3.04881C812.659 2.833 812.394 2.72509 812.061 2.72509C811.786 2.72509 811.551 2.80357 811.354 2.96053C811.158 3.11748 811.06 3.32349 811.06 3.57854ZM809.374 19.8128H812.905V38H809.374V19.8128ZM807.637 15.0747H808.873L808.903 14.9276C808.51 14.4959 808.314 13.976 808.314 13.3678C808.314 12.5438 808.609 11.8669 809.197 11.3372C809.805 10.7879 810.58 10.5132 811.522 10.5132C812.091 10.5132 812.64 10.6309 813.17 10.8663C813.7 11.1018 814.161 11.4255 814.553 11.8375L813.141 13.8092C812.67 13.3384 812.13 13.1029 811.522 13.1029C811.188 13.1029 810.914 13.1814 810.698 13.3384C810.502 13.4953 810.404 13.6817 810.404 13.8975C810.404 14.545 811.081 14.8687 812.434 14.8687H814.612V17.4585H807.637V15.0747ZM826.416 38.3531C825.533 38.3531 824.876 38.1373 824.444 37.7057C824.032 37.2545 823.826 36.6855 823.826 35.9988V35.4102C823.826 34.2135 824.111 33.0363 824.68 31.8787C825.268 30.7212 826.033 29.7795 826.975 29.0535H829.918C829.231 29.701 828.643 30.3484 828.152 30.9959C827.662 31.6237 827.289 32.33 827.034 33.1148C827.721 33.2325 828.221 33.5072 828.535 33.9388C828.849 34.3508 829.006 34.8413 829.006 35.4102V35.9988C829.006 36.6855 828.79 37.2545 828.358 37.7057C827.946 38.1373 827.299 38.3531 826.416 38.3531ZM832.201 36.9994C832.201 35.7438 832.269 34.6843 832.407 33.8211C832.544 32.9578 832.78 32.2123 833.113 31.5844C833.466 30.9566 833.937 30.4171 834.526 29.9658C835.114 29.5146 835.86 29.0732 836.762 28.6415L842.648 25.8458H846.533L848.858 32.0847C849.073 32.6929 849.338 33.0951 849.652 33.2913C849.986 33.4875 850.476 33.5856 851.124 33.5856H852.007V37.1171L851.124 38C849.829 38 848.809 37.8038 848.063 37.4114C847.318 36.9994 846.7 36.3618 846.209 35.4985L846.032 35.528V38H841.059C839.862 38 838.901 37.7057 838.175 37.1171C837.449 36.5089 837.086 35.734 837.086 34.7922C837.086 34.1055 837.312 33.4581 837.763 32.8499L837.645 32.7028L836.968 32.997C836.713 33.1148 836.507 33.2619 836.35 33.4385C836.193 33.5954 836.066 33.8309 835.968 34.1448C835.889 34.4391 835.83 34.8217 835.791 35.2925C835.752 35.7438 835.732 36.3127 835.732 36.9994V46.9465H832.201V36.9994ZM839.323 32.379C839.323 32.7714 839.47 33.0755 839.764 33.2913C840.078 33.4875 840.5 33.5856 841.03 33.5856H845.356L843.884 29.701L840.794 30.937C839.813 31.3294 839.323 31.8101 839.323 32.379ZM857.801 23.5527C857.232 23.5527 856.781 23.3368 856.447 22.9052C856.133 22.4736 855.976 21.8556 855.976 21.0512V18.7851H857.977V20.4332C857.977 20.8256 858.154 21.0217 858.507 21.0217C858.978 21.0217 859.214 20.6784 859.214 19.9917V17.9023H861.215V19.1971C861.215 19.668 861.421 19.9034 861.833 19.9034C862.284 19.9034 862.51 19.668 862.51 19.1971C862.51 18.9225 862.47 18.6086 862.392 18.2554C862.313 17.9023 862.196 17.5295 862.039 17.1371L864.04 16.5779C864.197 17.0292 864.315 17.4903 864.393 17.9611C864.472 18.4124 864.511 18.8244 864.511 19.1971C864.511 20.2174 864.275 21.0119 863.804 21.5809C863.334 22.1499 862.676 22.4343 861.833 22.4343C861.323 22.4343 860.901 22.3068 860.567 22.0518C860.234 21.7771 860.018 21.4043 859.92 20.9335H859.773C859.675 21.836 859.469 22.503 859.155 22.9346C858.86 23.3467 858.409 23.5527 857.801 23.5527ZM851.121 34.4685L852.003 33.5856H854.564C854.544 33.4679 854.534 33.3502 854.534 33.2325C854.534 33.1148 854.534 32.997 854.534 32.8793C854.534 30.5054 855.908 28.5238 858.654 26.9346L860.538 25.8458H864.423L866.747 32.0847C866.963 32.6929 867.228 33.0951 867.542 33.2913C867.876 33.4875 868.366 33.5856 869.013 33.5856H869.896V37.1171L869.013 38C867.719 38 866.698 37.8038 865.953 37.4114C865.207 36.9994 864.589 36.3618 864.099 35.4985L863.922 35.528V38H860.185C858.753 38 857.605 37.7155 856.742 37.1466C855.878 36.558 855.27 35.8222 854.917 34.9394H854.652C854.103 36.9798 852.926 38 851.121 38V34.4685ZM857.212 32.4673C857.212 32.8989 857.379 33.1932 857.713 33.3502C858.046 33.5072 858.448 33.5856 858.919 33.5856H863.245L861.774 29.701L859.096 30.7604C858.468 31.0155 857.997 31.2803 857.683 31.555C857.369 31.8101 857.212 32.1142 857.212 32.4673ZM876.382 31.5256C876.382 32.3692 876.618 32.948 877.089 33.2619L878.384 31.0253C879.07 29.8285 879.767 28.8083 880.473 27.9647C881.199 27.121 881.954 26.4343 882.739 25.9046C883.524 25.3749 884.348 24.9923 885.211 24.7569C886.094 24.5018 887.036 24.3743 888.036 24.3743C890.351 24.3743 892.088 25.0119 893.245 26.2872C894.403 27.5428 894.982 29.2988 894.982 31.555C894.982 33.772 894.354 35.4004 893.098 36.4403C891.843 37.4801 889.861 38 887.153 38H878.737C877.167 38 875.97 37.6861 875.146 37.0583C874.342 36.4108 873.802 35.4004 873.528 34.0271H873.351C873.077 35.4004 872.606 36.4108 871.939 37.0583C871.272 37.6861 870.3 38 869.025 38V34.4685L869.908 33.5856H870.791C872.36 33.5856 873.145 32.8989 873.145 31.5256V29.6716H876.382V31.5256ZM887.153 33.5856C888.095 33.5856 888.87 33.5562 889.478 33.4973C890.106 33.4189 890.607 33.3011 890.979 33.1442C891.372 32.9676 891.646 32.7322 891.803 32.4379C891.96 32.1436 892.039 31.761 892.039 31.2902C892.039 30.4465 891.764 29.8187 891.215 29.4067C890.665 28.9947 889.753 28.7887 888.478 28.7887H887.595C886.712 28.7887 885.937 28.8279 885.27 28.9064C884.603 28.9653 884.014 29.0928 883.504 29.289C882.994 29.4852 882.533 29.7598 882.121 30.113C881.709 30.4661 881.317 30.9272 880.944 31.4962L879.678 33.4091L879.767 33.5856H887.153ZM895.63 7.66919L899.102 6.08002V5.93287C898.71 5.67782 898.406 5.3541 898.19 4.96171C897.974 4.56932 897.866 4.13769 897.866 3.66683C897.866 2.82319 898.141 2.11689 898.69 1.54793C899.259 0.959346 899.975 0.665055 900.839 0.665055C901.682 0.665055 902.379 0.939727 902.928 1.48907C903.497 2.03841 903.782 2.7349 903.782 3.57854C903.782 5.34429 902.761 6.68822 900.721 7.61033L896.483 9.55265L895.63 7.66919ZM899.75 3.57854C899.75 4.01017 900.074 4.38294 900.721 4.69685L901.251 4.96171C901.467 4.80475 901.623 4.6478 901.722 4.49084C901.82 4.31427 901.869 4.08864 901.869 3.81397C901.869 3.50006 901.761 3.24501 901.545 3.04881C901.349 2.833 901.084 2.72509 900.75 2.72509C900.476 2.72509 900.24 2.80357 900.044 2.96053C899.848 3.11748 899.75 3.32349 899.75 3.57854ZM898.063 19.8128H901.595V38H898.063V19.8128ZM896.327 15.0747H897.563L897.593 14.9276C897.2 14.4959 897.004 13.976 897.004 13.3678C897.004 12.5438 897.298 11.8669 897.887 11.3372C898.495 10.7879 899.27 10.5132 900.212 10.5132C900.781 10.5132 901.33 10.6309 901.86 10.8663C902.39 11.1018 902.851 11.4255 903.243 11.8375L901.83 13.8092C901.36 13.3384 900.82 13.1029 900.212 13.1029C899.878 13.1029 899.604 13.1814 899.388 13.3384C899.192 13.4953 899.093 13.6817 899.093 13.8975C899.093 14.545 899.77 14.8687 901.124 14.8687H903.302V17.4585H896.327V15.0747Z" fill="#EFEFEF"/>
<path d="M272.388 45.063C270.818 45.063 269.406 44.8766 268.15 44.5038C266.914 44.1507 265.864 43.621 265.001 42.9147C264.138 42.228 263.481 41.3844 263.029 40.3838C262.578 39.4028 262.353 38.2747 262.353 36.9994C262.353 36.1165 262.47 35.1258 262.706 34.0271C262.961 32.9088 263.304 31.8297 263.736 30.7899L266.561 31.6139C266.169 32.4575 265.855 33.311 265.619 34.1742C265.403 35.0375 265.296 35.783 265.296 36.4108C265.296 37.6469 265.815 38.5984 266.855 39.2655C267.895 39.9521 269.347 40.2955 271.211 40.2955H273.565C275.252 40.2955 276.645 40.0895 277.744 39.6775C278.862 39.2655 279.637 38.6867 280.069 37.9411L273.124 36.8523V32.4379L276.626 32.9676C277.371 33.0853 278.038 33.1834 278.627 33.2619C279.216 33.3404 279.755 33.4091 280.246 33.4679C280.756 33.5072 281.217 33.5366 281.629 33.5562C282.06 33.5758 282.472 33.5856 282.865 33.5856V35.4691L283.365 36.2343C283.365 37.6272 283.11 38.8633 282.6 39.9423C282.109 41.041 281.393 41.9631 280.452 42.7087C279.51 43.4738 278.362 44.0526 277.008 44.445C275.655 44.857 274.114 45.063 272.388 45.063ZM274.419 51.3903C273.908 51.3903 273.487 51.2333 273.153 50.9194C272.839 50.6055 272.682 50.1052 272.682 49.4185C272.682 48.7318 272.839 48.2315 273.153 47.9176C273.487 47.6037 273.908 47.4468 274.419 47.4468H275.007C275.517 47.4468 275.929 47.6037 276.243 47.9176C276.577 48.2315 276.743 48.7318 276.743 49.4185C276.743 50.1052 276.577 50.6055 276.243 50.9194C275.929 51.2333 275.517 51.3903 275.007 51.3903H274.419ZM269.769 51.3903C269.259 51.3903 268.837 51.2333 268.503 50.9194C268.189 50.6055 268.032 50.1052 268.032 49.4185C268.032 48.7318 268.189 48.2315 268.503 47.9176C268.837 47.6037 269.259 47.4468 269.769 47.4468H270.357C270.867 47.4468 271.279 47.6037 271.593 47.9176C271.927 48.2315 272.094 48.7318 272.094 49.4185C272.094 50.1052 271.927 50.6055 271.593 50.9194C271.279 51.2333 270.867 51.3903 270.357 51.3903H269.769ZM281.994 34.4685L282.877 33.5856H286.026V37.1171L285.143 38H281.994V34.4685ZM285.156 34.4685L286.038 33.5856H289.187V37.1171L288.305 38H285.156V34.4685ZM288.317 34.4685L289.2 33.5856H291.76C291.741 33.4679 291.731 33.3502 291.731 33.2325C291.731 33.1148 291.731 32.997 291.731 32.8793C291.731 30.5054 293.104 28.5238 295.851 26.9346L297.734 25.8458H301.619L303.944 32.0847C304.16 32.6929 304.425 33.0951 304.738 33.2913C305.072 33.4875 305.562 33.5856 306.21 33.5856H307.093V37.1171L306.21 38C304.915 38 303.895 37.8038 303.149 37.4114C302.404 36.9994 301.786 36.3618 301.295 35.4985L301.119 35.528V38H297.381C295.949 38 294.801 37.7155 293.938 37.1466C293.075 36.558 292.466 35.8222 292.113 34.9394H291.848C291.299 36.9798 290.122 38 288.317 38V34.4685ZM294.409 32.4673C294.409 32.8989 294.576 33.1932 294.909 33.3502C295.243 33.5072 295.645 33.5856 296.116 33.5856H300.442L298.97 29.701L296.292 30.7604C295.664 31.0155 295.194 31.2803 294.88 31.555C294.566 31.8101 294.409 32.1142 294.409 32.4673ZM306.222 34.4685L307.104 33.5856H312.814C313.481 33.5856 314.089 33.5464 314.638 33.4679C315.207 33.3894 315.678 33.2521 316.051 33.0559C316.443 32.8597 316.747 32.5948 316.963 32.2613C317.179 31.9278 317.287 31.506 317.287 30.9959V29.6421H317.11C316.541 31.1921 315.237 31.967 313.196 31.967C311.607 31.967 310.361 31.555 309.459 30.731C308.576 29.8874 308.134 28.7298 308.134 27.2584C308.134 26.2382 308.282 25.2964 308.576 24.4332C308.89 23.5503 309.312 22.7949 309.841 22.1671C310.391 21.5197 311.028 21.0194 311.754 20.6662C312.5 20.2935 313.304 20.1071 314.167 20.1071C316.09 20.1071 317.581 20.9115 318.641 22.5203C319.72 24.1291 320.259 26.3657 320.259 29.2301C320.259 31.0155 320.102 32.4771 319.788 33.6151C319.475 34.753 319.004 35.6457 318.376 36.2931C317.768 36.9406 316.993 37.3918 316.051 37.6469C315.129 37.8823 314.05 38 312.814 38H306.222V34.4685ZM314.109 28.1412C314.854 28.1412 315.482 28.1118 315.992 28.0529C316.502 27.9745 316.914 27.8568 317.228 27.6998C317.11 26.7384 316.728 25.9733 316.08 25.4043C315.453 24.8157 314.687 24.5215 313.785 24.5215C313.02 24.5215 312.372 24.7275 311.843 25.1395C311.332 25.5319 311.077 26.042 311.077 26.6698C311.077 27.1995 311.293 27.5821 311.725 27.8175C312.156 28.0333 312.745 28.1412 313.491 28.1412H314.109ZM316.198 17.7528C315.688 17.7528 315.266 17.5958 314.933 17.2819C314.619 16.968 314.462 16.4677 314.462 15.781C314.462 15.0943 314.619 14.594 314.933 14.2801C315.266 13.9662 315.688 13.8092 316.198 13.8092H316.787C317.297 13.8092 317.709 13.9662 318.023 14.2801C318.356 14.594 318.523 15.0943 318.523 15.781C318.523 16.4677 318.356 16.968 318.023 17.2819C317.709 17.5958 317.297 17.7528 316.787 17.7528H316.198ZM311.548 17.7528C311.038 17.7528 310.616 17.5958 310.283 17.2819C309.969 16.968 309.812 16.4677 309.812 15.781C309.812 15.0943 309.969 14.594 310.283 14.2801C310.616 13.9662 311.038 13.8092 311.548 13.8092H312.137C312.647 13.8092 313.059 13.9662 313.373 14.2801C313.706 14.594 313.873 15.0943 313.873 15.781C313.873 16.4677 313.706 16.968 313.373 17.2819C313.059 17.5958 312.647 17.7528 312.137 17.7528H311.548ZM319.536 40.6486H320.713C322.499 40.6486 323.803 40.2857 324.627 39.5597C325.471 38.8338 325.883 37.6272 325.863 35.94C325.863 35.4887 325.834 35.0178 325.775 34.5274C325.716 34.0173 325.638 33.4777 325.54 32.9088L324.922 28.9947L328.129 28.4944L328.571 31.2313C328.649 31.6629 328.708 32.0749 328.747 32.4673C328.806 32.8597 328.855 33.2325 328.894 33.5856H331.602V37.1171L330.719 38H328.894C328.561 40.1778 327.698 41.8945 326.305 43.1501C324.931 44.4254 323.077 45.063 320.743 45.063H319.536V40.6486ZM330.708 34.4685L331.59 33.5856H332.885C333.631 33.5856 334.121 33.4483 334.357 33.1736C334.612 32.8793 334.739 32.4281 334.739 31.8199V16.2224H338.271V31.8199C338.271 33.9192 337.859 35.4691 337.035 36.4697C336.23 37.4703 334.847 37.9804 332.885 38H330.708V34.4685ZM341.806 16.2224H345.337V38H341.806V16.2224ZM355.242 33.5856H370.427C371.604 33.5856 372.193 32.997 372.193 31.8199V16.193H375.724V31.8199C375.724 33.9388 375.293 35.4985 374.43 36.4991C373.586 37.4997 372.252 38 370.427 38H355.242V33.5856ZM361.54 28.8475L366.16 26.6698L366.101 26.4638H363.747C362.275 26.4638 361.54 25.7771 361.54 24.4037C361.54 23.7171 361.765 23.1579 362.217 22.7263C362.668 22.2946 363.315 21.8336 364.159 21.3431L366.101 20.2248L367.161 21.9905L363.541 24.0212L363.6 24.2566H365.895C367.406 24.2566 368.161 24.8648 368.161 26.0812C368.161 26.7875 367.955 27.3663 367.543 27.8175C367.151 28.2688 366.543 28.7004 365.719 29.1124L362.511 30.731L361.54 28.8475ZM375.721 40.6486H376.899C378.684 40.6486 379.989 40.2857 380.813 39.5597C381.656 38.8338 382.068 37.6272 382.049 35.94C382.049 35.4887 382.019 35.0178 381.96 34.5274C381.902 34.0173 381.823 33.4777 381.725 32.9088L381.107 28.9947L384.315 28.4944L384.756 31.2313C384.913 32.173 385.031 33.0461 385.109 33.8505C385.207 34.6353 385.257 35.2827 385.257 35.7928C385.257 37.2054 385.08 38.4807 384.727 39.6186C384.374 40.7565 383.844 41.7277 383.138 42.5321C382.431 43.3561 381.558 43.9839 380.518 44.4156C379.479 44.8472 378.282 45.063 376.928 45.063H375.721V40.6486ZM387.164 40.6486H389.048C390.912 40.6486 392.403 40.4132 393.521 39.9423C394.659 39.4715 395.463 38.824 395.934 38H392.52C390.931 38 389.685 37.5389 388.783 36.6168C387.9 35.6751 387.459 34.3704 387.459 32.7028C387.459 31.6825 387.606 30.7408 387.9 29.8776C388.214 28.9947 388.636 28.2393 389.166 27.6115C389.715 26.9641 390.353 26.4638 391.078 26.1106C391.824 25.7379 392.628 25.5515 393.492 25.5515C395.277 25.5515 396.69 26.2578 397.729 27.6704C398.769 29.083 399.338 31.0547 399.436 33.5856H400.937V37.1171L400.054 38H399.054C398.504 40.2562 397.416 41.9926 395.787 43.209C394.178 44.445 392.03 45.063 389.342 45.063H387.164V40.6486ZM390.402 32.1142C390.402 32.6439 390.617 33.0265 391.049 33.2619C391.481 33.4777 392.069 33.5856 392.815 33.5856H396.493V33.4973C396.493 32.4379 396.17 31.5844 395.522 30.937C394.894 30.2896 394.09 29.9658 393.109 29.9658C392.344 29.9658 391.696 30.1718 391.167 30.5839C390.657 30.9762 390.402 31.4864 390.402 32.1142ZM427.248 38C426.562 38 425.904 37.9215 425.276 37.7646C424.668 37.588 424.09 37.2741 423.54 36.8228C422.285 37.6076 420.499 38 418.184 38H409.767C408.198 38 407.001 37.6861 406.177 37.0583C405.373 36.4108 404.833 35.4004 404.558 34.0271H404.382C404.107 35.4004 403.636 36.4108 402.969 37.0583C402.302 37.6861 401.331 38 400.056 38V34.4685L400.939 33.5856H401.821C403.391 33.5856 404.176 32.8989 404.176 31.5256V29.6716H407.413V31.5256C407.413 32.3692 407.648 32.948 408.119 33.2619L409.414 31.0253C410.101 29.8285 410.797 28.8083 411.504 27.9647C412.23 27.121 412.985 26.4343 413.77 25.9046C414.554 25.3749 415.378 24.9923 416.242 24.7569C417.125 24.5018 418.066 24.3743 419.067 24.3743C421.382 24.3743 423.118 25.0119 424.276 26.2872C425.433 27.5428 426.012 29.2988 426.012 31.555C426.012 32.3006 425.944 32.948 425.806 33.4973C426.297 33.5562 426.777 33.5856 427.248 33.5856H428.131V37.1171L427.248 38ZM418.184 33.5856C419.126 33.5856 419.901 33.5562 420.509 33.4973C421.137 33.4189 421.637 33.3011 422.01 33.1442C422.402 32.9676 422.677 32.7322 422.834 32.4379C422.991 32.1436 423.069 31.761 423.069 31.2902C423.069 30.4465 422.795 29.8187 422.245 29.4067C421.696 28.9947 420.784 28.7887 419.508 28.7887H418.626C417.743 28.7887 416.968 28.8279 416.301 28.9064C415.634 28.9653 415.045 29.0928 414.535 29.289C414.025 29.4852 413.564 29.7598 413.152 30.113C412.74 30.4661 412.347 30.9272 411.975 31.4962L410.709 33.4091L410.797 33.5856H418.184ZM417.89 22.02C417.38 22.02 416.958 21.863 416.624 21.5491C416.31 21.2352 416.153 20.7349 416.153 20.0482C416.153 19.3615 416.31 18.8612 416.624 18.5473C416.958 18.2334 417.38 18.0765 417.89 18.0765H418.478C418.988 18.0765 419.4 18.2334 419.714 18.5473C420.048 18.8612 420.215 19.3615 420.215 20.0482C420.215 20.7349 420.048 21.2352 419.714 21.5491C419.4 21.863 418.988 22.02 418.478 22.02H417.89ZM427.243 34.4685L428.126 33.5856H430.157C431.255 33.5856 432.236 33.5758 433.1 33.5562C433.982 33.517 434.816 33.4385 435.601 33.3208C436.386 33.203 437.151 33.0265 437.897 32.791C438.642 32.5556 439.437 32.2319 440.28 31.8199L441.369 31.2902V31.143L436.661 30.1424L432.217 29.0535V31.2607H428.832V28.9947C428.832 27.6017 429.127 26.5815 429.715 25.9341C430.323 25.2866 431.246 24.9629 432.482 24.9629C432.639 24.9629 432.795 24.9727 432.952 24.9923C433.129 25.0119 433.325 25.0414 433.541 25.0806C433.776 25.1198 434.051 25.1787 434.365 25.2572C434.679 25.3357 435.071 25.4338 435.542 25.5515L441.222 27.0229C442.007 27.2387 442.85 27.4055 443.753 27.5232C444.655 27.6409 445.548 27.6998 446.431 27.6998H447.02V32.1142H444.724L441.958 33.9976C440.663 34.8805 439.496 35.5868 438.456 36.1165C437.435 36.6266 436.464 37.0288 435.542 37.3231C434.62 37.5978 433.727 37.7842 432.864 37.8823C432.001 37.9608 431.098 38 430.157 38H427.243V34.4685Z" fill="#088F4C"/>
</svg>
