<svg width="452" height="96" viewBox="0 0 452 96" fill="none" xmlns="http://www.w3.org/2000/svg">
<rect x="260.245" y="56.6021" width="191.755" height="37.2858" rx="1.77551" fill="#EFEFEF"/>
<path d="M10.6928 45.063C7.96573 45.063 5.90569 44.3567 4.51271 42.9441C3.11973 41.5511 2.42324 39.5696 2.42324 36.9994C2.42324 36.1165 2.54096 35.1258 2.77639 34.0271C3.03144 32.9088 3.37478 31.8297 3.80641 30.7899L6.63161 31.6139C6.23922 32.4575 5.92531 33.311 5.68987 34.1742C5.47406 35.0375 5.36615 35.783 5.36615 36.4108C5.36615 37.6469 5.72911 38.5984 6.45503 39.2655C7.20057 39.9521 8.22078 40.2955 9.51566 40.2955H11.87C12.6352 40.2955 13.2826 40.1974 13.8123 40.0012C14.342 39.8246 14.7639 39.5205 15.0778 39.0889C15.4113 38.6769 15.6467 38.1373 15.7841 37.4703C15.941 36.7836 16.0195 35.9498 16.0195 34.9688V16.2224H19.551V33.5856H22.8176V37.1171L21.9348 38H19.3156C18.9232 40.4132 18.0305 42.1887 16.6375 43.3267C15.2445 44.4842 13.263 45.063 10.6928 45.063ZM21.9212 34.4685L22.8041 33.5856H25.953V37.1171L25.0701 38H21.9212V34.4685ZM25.0825 34.4685L25.9654 33.5856H29.1143V37.1171L28.2314 38H25.0825V34.4685ZM28.2439 34.4685L29.1267 33.5856H32.2757V37.1171L31.3928 38H28.2439V34.4685ZM31.4052 34.4685L32.2881 33.5856H35.437V37.1171L34.5541 38H31.4052V34.4685ZM34.5665 34.4685L35.4494 33.5856H38.5983V37.1171L37.7154 38H34.5665V34.4685ZM37.7279 34.4685L38.6107 33.5856H41.7597V37.1171L40.8768 38H37.7279V34.4685ZM40.8892 34.4685L41.7721 33.5856H44.921V37.1171L44.0381 38H40.8892V34.4685ZM44.0505 34.4685L44.9334 33.5856H48.0823V37.1171L47.1994 38H44.0505V34.4685ZM47.2119 34.4685L48.0947 33.5856H51.2437V37.1171L50.3608 38H47.2119V34.4685ZM50.3732 34.4685L51.2561 33.5856H54.405V37.1171L53.5221 38H50.3732V34.4685ZM53.5345 34.4685L54.4174 33.5856H57.5663V37.1171L56.6834 38H53.5345V34.4685ZM56.6959 34.4685L57.5787 33.5856H60.7277V37.1171L59.8448 38H56.6959V34.4685ZM59.8572 34.4685L60.7401 33.5856H63.889V37.1171L63.0061 38H59.8572V34.4685ZM63.0185 34.4685L63.9014 33.5856H67.0503V37.1171L66.1674 38H63.0185V34.4685ZM66.1799 34.4685L67.0627 33.5856H70.2117V37.1171L69.3288 38H66.1799V34.4685ZM69.3412 34.4685L70.2241 33.5856H73.373V37.1171L72.4901 38H69.3412V34.4685ZM72.5025 34.4685L73.3854 33.5856H76.5343V37.1171L75.6514 38H72.5025V34.4685ZM75.6639 34.4685L76.5467 33.5856H79.6957V37.1171L78.8128 38H75.6639V34.4685ZM78.8252 34.4685L79.7081 33.5856H82.857V37.1171L81.9741 38H78.8252V34.4685ZM81.9865 34.4685L82.8694 33.5856H86.0183V37.1171L85.1354 38H81.9865V34.4685ZM85.1479 34.4685L86.0307 33.5856H89.1796V37.1171L88.2968 38H85.1479V34.4685ZM88.3092 34.4685L89.1921 33.5856H92.341V37.1171L91.4581 38H88.3092V34.4685ZM91.4705 34.4685L92.3534 33.5856H95.5023V37.1171L94.6194 38H91.4705V34.4685ZM94.6319 34.4685L95.5147 33.5856H98.6637V37.1171L97.7808 38H94.6319V34.4685ZM97.7932 34.4685L98.6761 33.5856H101.825V37.1171L100.942 38H97.7932V34.4685ZM100.955 34.4685L101.837 33.5856H104.986V37.1171L104.103 38H100.955V34.4685ZM104.116 34.4685L104.999 33.5856H108.148V37.1171L107.265 38H104.116V34.4685ZM107.277 34.4685L108.16 33.5856H111.309V37.1171L110.426 38H107.277V34.4685ZM110.439 34.4685L111.321 33.5856H114.47V37.1171L113.587 38H110.439V34.4685ZM113.6 34.4685L114.483 33.5856H117.632V37.1171L116.749 38H113.6V34.4685ZM116.761 34.4685L117.644 33.5856H120.793V37.1171L119.91 38H116.761V34.4685ZM119.923 34.4685L120.805 33.5856H123.954V37.1171L123.071 38H119.923V34.4685ZM123.084 34.4685L123.967 33.5856H127.116V37.1171L126.233 38H123.084V34.4685ZM126.245 34.4685L127.128 33.5856H130.954L131.013 33.4385L128.158 29.9364V25.3749C129.139 24.9237 130.169 24.5803 131.248 24.3449C132.347 24.0898 133.416 23.9623 134.456 23.9623C136.732 23.9623 138.399 24.3645 139.459 25.1689C140.518 25.9733 141.048 27.2387 141.048 28.9653C141.048 29.495 140.999 29.9658 140.901 30.3779C140.803 30.7702 140.646 31.143 140.43 31.4962C140.234 31.8297 139.969 32.1534 139.635 32.4673C139.322 32.7812 138.929 33.1246 138.458 33.4973L138.488 33.5856H142.078V37.1171L141.195 38H140.901C139.841 38 138.743 37.8823 137.605 37.6469C136.487 37.3918 135.476 36.9798 134.574 36.4108C133.671 36.9798 132.72 37.3918 131.719 37.6469C130.718 37.8823 129.688 38 128.629 38H126.245V34.4685ZM130.983 28.9358L134.809 33.4385L136.604 31.967C136.879 31.7316 137.114 31.5354 137.311 31.3784C137.507 31.2215 137.664 31.0743 137.781 30.937C137.899 30.7801 137.978 30.6329 138.017 30.4956C138.076 30.3386 138.105 30.1522 138.105 29.9364C138.105 29.3675 137.83 28.9653 137.281 28.7298C136.751 28.4944 135.81 28.3767 134.456 28.3767C133.848 28.3767 133.23 28.4159 132.602 28.4944C131.974 28.5729 131.435 28.6612 130.983 28.7592V28.9358ZM141.19 34.4685L142.073 33.5856H144.103C145.202 33.5856 146.183 33.5758 147.046 33.5562C147.929 33.517 148.763 33.4385 149.548 33.3208C150.332 33.203 151.097 33.0265 151.843 32.791C152.589 32.5556 153.383 32.2319 154.227 31.8199L155.316 31.2902V31.143L150.607 30.1424L146.163 29.0535V31.2607H142.779V28.9947C142.779 27.6017 143.073 26.5815 143.662 25.9341C144.27 25.2866 145.192 24.9629 146.428 24.9629C146.585 24.9629 146.742 24.9727 146.899 24.9923C147.075 25.0119 147.272 25.0414 147.488 25.0806C147.723 25.1198 147.998 25.1787 148.312 25.2572C148.625 25.3357 149.018 25.4338 149.489 25.5515L155.169 27.0229C155.953 27.2387 156.797 27.4055 157.699 27.5232C158.602 27.6409 159.495 27.6998 160.377 27.6998H160.966V32.1142H158.671L155.904 33.9976C154.609 34.8805 153.442 35.5868 152.402 36.1165C151.382 36.6266 150.411 37.0288 149.489 37.3231C148.567 37.5978 147.674 37.7842 146.811 37.8823C145.947 37.9608 145.045 38 144.103 38H141.19V34.4685ZM151.343 44.3273C150.833 44.3273 150.411 44.1703 150.077 43.8564C149.763 43.5425 149.606 43.0422 149.606 42.3555C149.606 41.6688 149.763 41.1685 150.077 40.8546C150.411 40.5407 150.833 40.3838 151.343 40.3838H151.931C152.441 40.3838 152.853 40.5407 153.167 40.8546C153.501 41.1685 153.668 41.6688 153.668 42.3555C153.668 43.0422 153.501 43.5425 153.167 43.8564C152.853 44.1703 152.441 44.3273 151.931 44.3273H151.343ZM162.735 33.5856L167.797 29.0241L160.969 22.6086L163.53 19.8422L170.593 26.4932C170.926 26.1204 171.162 25.7182 171.299 25.2866C171.456 24.8354 171.534 24.2468 171.534 23.5209V16.2224H175.066V23.5209C175.066 24.031 175.017 24.5018 174.919 24.9335C174.84 25.3651 174.703 25.7771 174.507 26.1695C174.33 26.5619 174.085 26.9445 173.771 27.3172C173.457 27.6704 173.084 28.0431 172.653 28.4355L173.683 29.3773C174.095 29.7697 174.448 30.1424 174.742 30.4956C175.036 30.8487 175.272 31.2019 175.448 31.555C175.625 31.9082 175.753 32.2809 175.831 32.6733C175.909 33.0461 175.949 33.4483 175.949 33.8799C175.949 34.4685 175.841 35.0178 175.625 35.528C175.429 36.0184 175.144 36.4501 174.772 36.8228C174.418 37.1956 173.997 37.4899 173.506 37.7057C173.016 37.9019 172.476 38 171.887 38H162.735V33.5856ZM169.769 30.8487L166.649 33.4679L166.679 33.5856H172.712L169.769 30.8487ZM162.352 16.2519H163.588L163.618 16.1047C163.226 15.6731 163.029 15.1532 163.029 14.545C163.029 13.721 163.324 13.0441 163.912 12.5144C164.52 11.965 165.295 11.6903 166.237 11.6903C166.806 11.6903 167.355 11.8081 167.885 12.0435C168.415 12.2789 168.876 12.6027 169.268 13.0147L167.856 14.9864C167.385 14.5155 166.845 14.2801 166.237 14.2801C165.904 14.2801 165.629 14.3586 165.413 14.5155C165.217 14.6725 165.119 14.8589 165.119 15.0747C165.119 15.7221 165.796 16.0459 167.149 16.0459H169.327V18.6356H162.352V16.2519ZM188.507 38.3237C187.624 38.3237 186.967 38.1079 186.536 37.6763C186.124 37.225 185.918 36.6561 185.918 35.9694V35.3808C185.918 34.6941 186.124 34.135 186.536 33.7033C186.967 33.2521 187.624 33.0265 188.507 33.0265C189.39 33.0265 190.038 33.2521 190.45 33.7033C190.881 34.135 191.097 34.6941 191.097 35.3808V35.9694C191.097 36.6561 190.881 37.225 190.45 37.6763C190.038 38.1079 189.39 38.3237 188.507 38.3237ZM197.13 38.3237C196.247 38.3237 195.59 38.1079 195.158 37.6763C194.746 37.225 194.54 36.6561 194.54 35.9694V35.3808C194.54 34.6941 194.746 34.135 195.158 33.7033C195.59 33.2521 196.247 33.0265 197.13 33.0265C198.013 33.0265 198.66 33.2521 199.072 33.7033C199.504 34.135 199.72 34.6941 199.72 35.3808V35.9694C199.72 36.6561 199.504 37.225 199.072 37.6763C198.66 38.1079 198.013 38.3237 197.13 38.3237ZM205.782 38.3237C204.899 38.3237 204.242 38.1079 203.811 37.6763C203.399 37.225 203.193 36.6561 203.193 35.9694V35.3808C203.193 34.6941 203.399 34.135 203.811 33.7033C204.242 33.2521 204.899 33.0265 205.782 33.0265C206.665 33.0265 207.313 33.2521 207.725 33.7033C208.156 34.135 208.372 34.6941 208.372 35.3808V35.9694C208.372 36.6561 208.156 37.225 207.725 37.6763C207.313 38.1079 206.665 38.3237 205.782 38.3237ZM227.377 46.9465C224.513 46.9465 222.286 46.2794 220.697 44.9453C219.127 43.6112 218.342 41.7277 218.342 39.2949C218.342 37.7449 218.784 36.352 219.667 35.1159C220.569 33.8799 222.001 32.791 223.963 31.8493V31.7022C222.747 30.9566 221.854 30.1326 221.285 29.2301C220.736 28.308 220.461 27.2682 220.461 26.1106C220.461 25.2081 220.618 24.3351 220.932 23.4914C221.246 22.6282 221.697 21.8728 222.286 21.2254C222.894 20.5583 223.62 20.0286 224.464 19.6362C225.327 19.2438 226.298 19.0476 227.377 19.0476C228.829 19.0476 230.065 19.3812 231.085 20.0482C232.105 20.7153 232.929 21.5883 233.557 22.6674L230.408 25.4632C229.977 24.7765 229.476 24.2762 228.907 23.9623C228.338 23.6288 227.632 23.462 226.788 23.462C225.729 23.462 224.895 23.6876 224.287 24.1389C223.698 24.5901 223.404 25.2572 223.404 26.1401C223.404 27.945 224.866 28.8475 227.789 28.8475C228.338 28.8475 228.927 28.8181 229.555 28.7592C230.183 28.7004 230.879 28.6023 231.644 28.465L233.999 28.0529L234.675 32.1142L230.82 32.7616C227.622 33.2913 225.288 34.0173 223.816 34.9394C222.345 35.8615 221.609 37.0681 221.609 38.5592V38.9123C221.609 40.1483 222.119 41.0606 223.139 41.6492C224.159 42.2378 225.572 42.5321 227.377 42.5321C228.79 42.5321 230.183 42.277 231.556 41.7669C232.949 41.2764 234.146 40.5701 235.146 39.648L237.354 43.1207C236.118 44.3175 234.626 45.2494 232.88 45.9164C231.134 46.6031 229.3 46.9465 227.377 46.9465ZM241.602 38C240.229 38 239.179 37.6567 238.453 36.97C237.727 36.2833 237.364 35.1846 237.364 33.6739V31.7022H240.749V33.5856H244.78C245.428 33.5856 245.899 33.4875 246.193 33.2913C246.507 33.0951 246.664 32.7714 246.664 32.3202C246.664 32.1044 246.615 31.8493 246.517 31.555C246.438 31.2607 246.35 30.9664 246.252 30.6721L243.662 23.2266L247.429 21.9023L250.401 30.4073C250.617 31.0547 250.833 31.5844 251.049 31.9965C251.265 32.4085 251.49 32.7322 251.726 32.9676C251.981 33.203 252.246 33.3698 252.52 33.4679C252.815 33.5464 253.158 33.5856 253.55 33.5856H254.433V37.1171L253.55 38C252.726 38 252.01 37.9411 251.402 37.8234C250.794 37.7057 250.244 37.4899 249.754 37.176C249.283 36.8621 248.852 36.4501 248.459 35.94C248.086 35.4299 247.723 34.7726 247.37 33.9682L247.253 34.0271C247.135 34.7334 246.968 35.3416 246.752 35.8517C246.556 36.3618 246.301 36.7738 245.987 37.0877C245.673 37.4016 245.291 37.637 244.839 37.794C244.388 37.9313 243.849 38 243.221 38H241.602ZM253.561 34.4685L254.444 33.5856H255.297C256.003 33.5856 256.582 33.5562 257.033 33.4973C257.504 33.4385 257.877 33.3404 258.152 33.2031C258.446 33.0461 258.642 32.8597 258.74 32.6439C258.858 32.4085 258.917 32.124 258.917 31.7905C258.917 31.4962 258.887 31.1234 258.829 30.6721C258.789 30.2013 258.701 29.5931 258.564 28.8475L258.063 26.1106L261.271 25.5809L261.713 28.3178C261.811 28.8475 261.889 29.4361 261.948 30.0836C262.007 30.731 262.036 31.3 262.036 31.7905C262.036 33.929 261.507 35.4985 260.447 36.4991C259.407 37.4997 257.691 38 255.297 38H253.561V34.4685ZM258.711 44.3273C258.201 44.3273 257.779 44.1703 257.445 43.8564C257.131 43.5425 256.974 43.0422 256.974 42.3555C256.974 41.6688 257.131 41.1685 257.445 40.8546C257.779 40.5407 258.201 40.3838 258.711 40.3838H259.299C259.81 40.3838 260.222 40.5407 260.535 40.8546C260.869 41.1685 261.036 41.6688 261.036 42.3555C261.036 43.0422 260.869 43.5425 260.535 43.8564C260.222 44.1703 259.81 44.3273 259.299 44.3273H258.711ZM262.548 7.66919L266.021 6.08002V5.93287C265.628 5.67782 265.324 5.3541 265.108 4.96171C264.893 4.56932 264.785 4.13769 264.785 3.66683C264.785 2.82319 265.059 2.11689 265.609 1.54793C266.178 0.959346 266.894 0.665055 267.757 0.665055C268.601 0.665055 269.297 0.939727 269.847 1.48907C270.415 2.03841 270.7 2.7349 270.7 3.57854C270.7 5.34429 269.68 6.68822 267.639 7.61033L263.402 9.55265L262.548 7.66919ZM266.668 3.57854C266.668 4.01017 266.992 4.38294 267.639 4.69685L268.169 4.96171C268.385 4.80475 268.542 4.6478 268.64 4.49084C268.738 4.31427 268.787 4.08864 268.787 3.81397C268.787 3.50006 268.679 3.24501 268.463 3.04881C268.267 2.833 268.002 2.72509 267.669 2.72509C267.394 2.72509 267.159 2.80357 266.962 2.96053C266.766 3.11748 266.668 3.32349 266.668 3.57854ZM264.982 19.8128H268.513V38H264.982V19.8128ZM263.245 15.0747H264.481L264.511 14.9276C264.119 14.4959 263.922 13.976 263.922 13.3678C263.922 12.5438 264.217 11.8669 264.805 11.3372C265.413 10.7879 266.188 10.5132 267.13 10.5132C267.699 10.5132 268.248 10.6309 268.778 10.8663C269.308 11.1018 269.769 11.4255 270.161 11.8375L268.749 13.8092C268.278 13.3384 267.738 13.1029 267.13 13.1029C266.797 13.1029 266.522 13.1814 266.306 13.3384C266.11 13.4953 266.012 13.6817 266.012 13.8975C266.012 14.545 266.689 14.8687 268.042 14.8687H270.22V17.4585H263.245V15.0747ZM271.449 40.6486H273.333C275.903 40.6486 277.786 40.1974 278.983 39.2949C280.18 38.412 280.778 37.2643 280.778 35.8517V35.0865H280.602C280.307 36.0871 279.827 36.8228 279.16 37.2937C278.512 37.7646 277.688 38 276.688 38C275.098 38 273.853 37.5389 272.95 36.6168C272.067 35.6751 271.626 34.3704 271.626 32.7028C271.626 31.6825 271.773 30.7408 272.067 29.8776C272.381 28.9947 272.803 28.2393 273.333 27.6115C273.882 26.9641 274.52 26.4638 275.246 26.1106C275.991 25.7379 276.796 25.5515 277.659 25.5515C278.62 25.5515 279.474 25.7575 280.219 26.1695C280.984 26.5619 281.622 27.1406 282.132 27.9058C282.662 28.6513 283.064 29.5735 283.339 30.6721C283.613 31.7708 283.751 33.0069 283.751 34.3802C283.751 37.7351 282.887 40.3543 281.161 42.2378C279.454 44.1213 276.943 45.063 273.627 45.063H271.449V40.6486ZM277.6 33.5856C278.365 33.5856 279.003 33.5562 279.513 33.4973C280.023 33.4189 280.435 33.3011 280.749 33.1442C280.67 32.1828 280.307 31.4177 279.66 30.8487C279.013 30.2601 278.218 29.9658 277.276 29.9658C276.511 29.9658 275.864 30.1718 275.334 30.5839C274.824 30.9762 274.569 31.4864 274.569 32.1142C274.569 32.6439 274.785 33.0265 275.216 33.2619C275.648 33.4777 276.236 33.5856 276.982 33.5856H277.6ZM296.25 38.3531C295.367 38.3531 294.71 38.1373 294.278 37.7057C293.866 37.2545 293.66 36.6855 293.66 35.9988V35.4102C293.66 34.2135 293.945 33.0363 294.514 31.8787C295.102 30.7212 295.867 29.7795 296.809 29.0535H299.752C299.065 29.701 298.477 30.3484 297.986 30.9959C297.496 31.6237 297.123 32.33 296.868 33.1148C297.555 33.2325 298.055 33.5072 298.369 33.9388C298.683 34.3508 298.84 34.8413 298.84 35.4102V35.9988C298.84 36.6855 298.624 37.2545 298.192 37.7057C297.78 38.1373 297.133 38.3531 296.25 38.3531ZM310.775 46.9465C309.324 46.9465 308.029 46.7601 306.891 46.3873C305.753 46.0145 304.782 45.475 303.977 44.7687C303.192 44.0624 302.584 43.1991 302.153 42.1789C301.741 41.1783 301.535 40.0306 301.535 38.7357C301.535 36.6561 302.251 34.9197 303.683 33.5268C305.115 32.1142 307.362 30.9272 310.422 29.9658L316.279 28.1412V27.9647L305.831 27.7292V29.8187H302.447V27.6115C302.447 26.1204 302.82 25.0316 303.565 24.3449C304.33 23.6386 305.576 23.3345 307.303 23.4326L318.81 24.1389V30.8193L317.309 31.2313V31.9965C317.309 32.585 317.466 32.997 317.779 33.2325C318.093 33.4679 318.623 33.5856 319.369 33.5856H320.252V37.1171L319.369 38C317.681 37.9804 316.426 37.5389 315.602 36.6757C314.778 35.7928 314.366 34.4293 314.366 32.585V32.0259L312.247 32.585C310.873 32.9578 309.716 33.311 308.774 33.6445C307.832 33.978 307.067 34.3508 306.479 34.7628C305.89 35.1552 305.458 35.6162 305.184 36.146C304.929 36.6561 304.801 37.2643 304.801 37.9706V38.3237C304.801 39.0104 304.899 39.6088 305.096 40.1189C305.311 40.6486 305.664 41.0901 306.155 41.4432C306.645 41.7964 307.283 42.0612 308.068 42.2378C308.872 42.434 309.863 42.5321 311.04 42.5321C312.394 42.5321 313.699 42.277 314.954 41.7669C316.21 41.2764 317.309 40.5701 318.25 39.648L320.458 43.1207C319.261 44.3175 317.809 45.2494 316.102 45.9164C314.415 46.6031 312.639 46.9465 310.775 46.9465ZM310.393 39.6775C309.883 39.6775 309.461 39.5205 309.127 39.2066C308.813 38.8927 308.656 38.3924 308.656 37.7057C308.656 37.019 308.813 36.5187 309.127 36.2048C309.461 35.8909 309.883 35.734 310.393 35.734H310.981C311.491 35.734 311.903 35.8909 312.217 36.2048C312.551 36.5187 312.718 37.019 312.718 37.7057C312.718 38.3924 312.551 38.8927 312.217 39.2066C311.903 39.5205 311.491 39.6775 310.981 39.6775H310.393ZM332.26 42.1977L324.961 45.5527L324.108 43.6692L331.406 40.2848L332.26 42.1977ZM323.7 36.352C323.249 36.9602 322.68 37.3918 321.993 37.6469C321.326 37.8823 320.453 38 319.374 38V34.4685L320.257 33.5856C320.983 33.5856 321.512 33.4777 321.846 33.2619C322.18 33.0461 322.454 32.6635 322.67 32.1142L323.494 30.0836C323.749 29.4557 324.034 28.8672 324.347 28.3178C324.661 27.7685 325.034 27.2878 325.466 26.8758C325.897 26.4638 326.378 26.1401 326.908 25.9046C327.457 25.6692 328.085 25.5515 328.791 25.5515C330.635 25.5515 332.019 26.2774 332.941 27.7292C333.882 29.1811 334.353 31.1921 334.353 33.7622V34.6156L331.558 38.7652L323.7 36.352ZM325.319 32.2613L331.234 34.0565V33.7622C331.234 32.585 330.949 31.6629 330.38 30.9959C329.811 30.3288 329.036 29.9953 328.056 29.9953C327.428 29.9953 326.878 30.162 326.407 30.4956C325.956 30.8291 325.613 31.3588 325.377 32.0847L325.319 32.2613ZM333.608 40.6486H334.785C336.571 40.6486 337.875 40.2857 338.699 39.5597C339.543 38.8338 339.955 37.6272 339.935 35.94C339.935 35.4887 339.906 35.0178 339.847 34.5274C339.788 34.0173 339.71 33.4777 339.612 32.9088L338.994 28.9947L342.201 28.4944L342.643 31.2313C342.721 31.6629 342.78 32.0749 342.819 32.4673C342.878 32.8597 342.927 33.2325 342.966 33.5856H345.674V37.1171L344.791 38H342.966C342.633 40.1778 341.77 41.8945 340.377 43.1501C339.003 44.4254 337.149 45.063 334.815 45.063H333.608V40.6486ZM344.78 34.4685L345.662 33.5856H346.516C347.222 33.5856 347.801 33.5562 348.252 33.4973C348.723 33.4385 349.096 33.3404 349.371 33.2031C349.665 33.0461 349.861 32.8597 349.959 32.6439C350.077 32.4085 350.136 32.124 350.136 31.7905C350.136 31.4962 350.106 31.1234 350.047 30.6721C350.008 30.2013 349.92 29.5931 349.783 28.8475L349.282 26.1106L352.49 25.5809L352.931 28.3178C353.03 28.8475 353.108 29.4361 353.167 30.0836C353.226 30.731 353.255 31.3 353.255 31.7905C353.255 33.929 352.725 35.4985 351.666 36.4991C350.626 37.4997 348.909 38 346.516 38H344.78V34.4685ZM349.93 44.3273C349.42 44.3273 348.998 44.1703 348.664 43.8564C348.35 43.5425 348.193 43.0422 348.193 42.3555C348.193 41.6688 348.35 41.1685 348.664 40.8546C348.998 40.5407 349.42 40.3838 349.93 40.3838H350.518C351.028 40.3838 351.44 40.5407 351.754 40.8546C352.088 41.1685 352.255 41.6688 352.255 42.3555C352.255 43.0422 352.088 43.5425 351.754 43.8564C351.44 44.1703 351.028 44.3273 350.518 44.3273H349.93ZM353.767 7.66919L357.24 6.08002V5.93287C356.847 5.67782 356.543 5.3541 356.327 4.96171C356.111 4.56932 356.004 4.13769 356.004 3.66683C356.004 2.82319 356.278 2.11689 356.828 1.54793C357.397 0.959346 358.113 0.665055 358.976 0.665055C359.82 0.665055 360.516 0.939727 361.065 1.48907C361.634 2.03841 361.919 2.7349 361.919 3.57854C361.919 5.34429 360.899 6.68822 358.858 7.61033L354.62 9.55265L353.767 7.66919ZM357.887 3.57854C357.887 4.01017 358.211 4.38294 358.858 4.69685L359.388 4.96171C359.604 4.80475 359.761 4.6478 359.859 4.49084C359.957 4.31427 360.006 4.08864 360.006 3.81397C360.006 3.50006 359.898 3.24501 359.682 3.04881C359.486 2.833 359.221 2.72509 358.888 2.72509C358.613 2.72509 358.378 2.80357 358.181 2.96053C357.985 3.11748 357.887 3.32349 357.887 3.57854ZM356.201 19.8128H359.732V38H356.201V19.8128ZM354.464 15.0747H355.7L355.73 14.9276C355.337 14.4959 355.141 13.976 355.141 13.3678C355.141 12.5438 355.435 11.8669 356.024 11.3372C356.632 10.7879 357.407 10.5132 358.349 10.5132C358.918 10.5132 359.467 10.6309 359.997 10.8663C360.527 11.1018 360.988 11.4255 361.38 11.8375L359.968 13.8092C359.497 13.3384 358.957 13.1029 358.349 13.1029C358.015 13.1029 357.741 13.1814 357.525 13.3384C357.329 13.4953 357.231 13.6817 357.231 13.8975C357.231 14.545 357.907 14.8687 359.261 14.8687H361.439V17.4585H354.464V15.0747ZM373.243 38.3531C372.36 38.3531 371.703 38.1373 371.271 37.7057C370.859 37.2545 370.653 36.6855 370.653 35.9988V35.4102C370.653 34.2135 370.938 33.0363 371.507 31.8787C372.095 30.7212 372.86 29.7795 373.802 29.0535H376.745C376.058 29.701 375.47 30.3484 374.979 30.9959C374.489 31.6237 374.116 32.33 373.861 33.1148C374.548 33.2325 375.048 33.5072 375.362 33.9388C375.676 34.3508 375.833 34.8413 375.833 35.4102V35.9988C375.833 36.6855 375.617 37.2545 375.185 37.7057C374.773 38.1373 374.126 38.3531 373.243 38.3531ZM379.028 36.9994C379.028 35.7438 379.096 34.6843 379.234 33.8211C379.371 32.9578 379.606 32.2123 379.94 31.5844C380.293 30.9566 380.764 30.4171 381.353 29.9658C381.941 29.5146 382.687 29.0732 383.589 28.6415L389.475 25.8458H393.36L395.685 32.0847C395.9 32.6929 396.165 33.0951 396.479 33.2913C396.813 33.4875 397.303 33.5856 397.951 33.5856H398.834V37.1171L397.951 38C396.656 38 395.636 37.8038 394.89 37.4114C394.144 36.9994 393.526 36.3618 393.036 35.4985L392.859 35.528V38H387.886C386.689 38 385.728 37.7057 385.002 37.1171C384.276 36.5089 383.913 35.734 383.913 34.7922C383.913 34.1055 384.139 33.4581 384.59 32.8499L384.472 32.7028L383.795 32.997C383.54 33.1148 383.334 33.2619 383.177 33.4385C383.02 33.5954 382.893 33.8309 382.795 34.1448C382.716 34.4391 382.657 34.8217 382.618 35.2925C382.579 35.7438 382.559 36.3127 382.559 36.9994V46.9465H379.028V36.9994ZM386.15 32.379C386.15 32.7714 386.297 33.0755 386.591 33.2913C386.905 33.4875 387.327 33.5856 387.856 33.5856H392.183L390.711 29.701L387.621 30.937C386.64 31.3294 386.15 31.8101 386.15 32.379ZM404.628 23.5527C404.059 23.5527 403.608 23.3368 403.274 22.9052C402.96 22.4736 402.803 21.8556 402.803 21.0512V18.7851H404.804V20.4332C404.804 20.8256 404.981 21.0217 405.334 21.0217C405.805 21.0217 406.04 20.6784 406.04 19.9917V17.9023H408.042V19.1971C408.042 19.668 408.248 19.9034 408.66 19.9034C409.111 19.9034 409.337 19.668 409.337 19.1971C409.337 18.9225 409.297 18.6086 409.219 18.2554C409.14 17.9023 409.023 17.5295 408.866 17.1371L410.867 16.5779C411.024 17.0292 411.141 17.4903 411.22 17.9611C411.298 18.4124 411.338 18.8244 411.338 19.1971C411.338 20.2174 411.102 21.0119 410.631 21.5809C410.161 22.1499 409.503 22.4343 408.66 22.4343C408.15 22.4343 407.728 22.3068 407.394 22.0518C407.061 21.7771 406.845 21.4043 406.747 20.9335H406.6C406.501 21.836 406.295 22.503 405.982 22.9346C405.687 23.3467 405.236 23.5527 404.628 23.5527ZM397.947 34.4685L398.83 33.5856H401.391C401.371 33.4679 401.361 33.3502 401.361 33.2325C401.361 33.1148 401.361 32.997 401.361 32.8793C401.361 30.5054 402.735 28.5238 405.481 26.9346L407.365 25.8458H411.249L413.574 32.0847C413.79 32.6929 414.055 33.0951 414.369 33.2913C414.702 33.4875 415.193 33.5856 415.84 33.5856H416.723V37.1171L415.84 38C414.545 38 413.525 37.8038 412.78 37.4114C412.034 36.9994 411.416 36.3618 410.926 35.4985L410.749 35.528V38H407.012C405.579 38 404.432 37.7155 403.568 37.1466C402.705 36.558 402.097 35.8222 401.744 34.9394H401.479C400.93 36.9798 399.752 38 397.947 38V34.4685ZM404.039 32.4673C404.039 32.8989 404.206 33.1932 404.54 33.3502C404.873 33.5072 405.275 33.5856 405.746 33.5856H410.072L408.601 29.701L405.923 30.7604C405.295 31.0155 404.824 31.2803 404.51 31.555C404.196 31.8101 404.039 32.1142 404.039 32.4673ZM423.209 31.5256C423.209 32.3692 423.445 32.948 423.916 33.2619L425.211 31.0253C425.897 29.8285 426.594 28.8083 427.3 27.9647C428.026 27.121 428.781 26.4343 429.566 25.9046C430.351 25.3749 431.175 24.9923 432.038 24.7569C432.921 24.5018 433.863 24.3743 434.863 24.3743C437.178 24.3743 438.915 25.0119 440.072 26.2872C441.23 27.5428 441.809 29.2988 441.809 31.555C441.809 33.772 441.181 35.4004 439.925 36.4403C438.669 37.4801 436.688 38 433.98 38H425.564C423.994 38 422.797 37.6861 421.973 37.0583C421.169 36.4108 420.629 35.4004 420.355 34.0271H420.178C419.903 35.4004 419.433 36.4108 418.766 37.0583C418.099 37.6861 417.127 38 415.852 38V34.4685L416.735 33.5856H417.618C419.187 33.5856 419.972 32.8989 419.972 31.5256V29.6716H423.209V31.5256ZM433.98 33.5856C434.922 33.5856 435.697 33.5562 436.305 33.4973C436.933 33.4189 437.433 33.3011 437.806 33.1442C438.199 32.9676 438.473 32.7322 438.63 32.4379C438.787 32.1436 438.866 31.761 438.866 31.2902C438.866 30.4465 438.591 29.8187 438.042 29.4067C437.492 28.9947 436.58 28.7887 435.305 28.7887H434.422C433.539 28.7887 432.764 28.8279 432.097 28.9064C431.43 28.9653 430.841 29.0928 430.331 29.289C429.821 29.4852 429.36 29.7598 428.948 30.113C428.536 30.4661 428.144 30.9272 427.771 31.4962L426.505 33.4091L426.594 33.5856H433.98ZM442.457 7.66919L445.929 6.08002V5.93287C445.537 5.67782 445.233 5.3541 445.017 4.96171C444.801 4.56932 444.693 4.13769 444.693 3.66683C444.693 2.82319 444.968 2.11689 445.517 1.54793C446.086 0.959346 446.802 0.665055 447.666 0.665055C448.509 0.665055 449.206 0.939727 449.755 1.48907C450.324 2.03841 450.609 2.7349 450.609 3.57854C450.609 5.34429 449.588 6.68822 447.548 7.61033L443.31 9.55265L442.457 7.66919ZM446.577 3.57854C446.577 4.01017 446.901 4.38294 447.548 4.69685L448.078 4.96171C448.294 4.80475 448.45 4.6478 448.549 4.49084C448.647 4.31427 448.696 4.08864 448.696 3.81397C448.696 3.50006 448.588 3.24501 448.372 3.04881C448.176 2.833 447.911 2.72509 447.577 2.72509C447.303 2.72509 447.067 2.80357 446.871 2.96053C446.675 3.11748 446.577 3.32349 446.577 3.57854ZM444.89 19.8128H448.422V38H444.89V19.8128ZM443.154 15.0747H444.39L444.419 14.9276C444.027 14.4959 443.831 13.976 443.831 13.3678C443.831 12.5438 444.125 11.8669 444.714 11.3372C445.322 10.7879 446.097 10.5132 447.039 10.5132C447.608 10.5132 448.157 10.6309 448.687 10.8663C449.216 11.1018 449.678 11.4255 450.07 11.8375L448.657 13.8092C448.186 13.3384 447.647 13.1029 447.039 13.1029C446.705 13.1029 446.43 13.1814 446.215 13.3384C446.018 13.4953 445.92 13.6817 445.92 13.8975C445.92 14.545 446.597 14.8687 447.951 14.8687H450.129V17.4585H443.154V15.0747ZM10.9265 82C8.94498 82 7.47353 81.5291 6.51217 80.5874C5.55082 79.6457 5.07015 78.1154 5.07015 75.9965V60.2224H8.60164V75.4079C8.60164 76.2907 8.77822 76.8793 9.13137 77.1736C9.48452 77.4483 10.0927 77.5856 10.956 77.5856H11.8388V81.1171L10.956 82H10.9265ZM24.4465 64.1977L17.1481 67.5527L16.2946 65.6692L23.593 62.2848L24.4465 64.1977ZM24.4465 59.7245L17.1481 63.0794L16.2946 61.196L23.593 57.8116L24.4465 59.7245ZM10.9571 78.4685L11.84 77.5856H14.4003C14.3807 77.4679 14.3709 77.3502 14.3709 77.2325C14.3709 77.1148 14.3709 76.997 14.3709 76.8793C14.3709 74.5054 15.7443 72.5238 18.491 70.9346L20.3744 69.8458H24.2591L26.584 76.0847C26.7998 76.6929 27.0647 77.0951 27.3786 77.2913C27.7121 77.4875 28.2026 77.5856 28.85 77.5856H29.7329V81.1171L28.85 82C27.5552 82 26.5349 81.8038 25.7894 81.4114C25.0439 80.9994 24.4259 80.3618 23.9354 79.4985L23.7588 79.528V82H20.0213C18.5891 82 17.4413 81.7155 16.5781 81.1466C15.7148 80.558 15.1066 79.8222 14.7535 78.9394H14.4886C13.9393 80.9798 12.7621 82 10.9571 82V78.4685ZM17.049 76.4673C17.049 76.8989 17.2157 77.1932 17.5493 77.3502C17.8828 77.5072 18.285 77.5856 18.7558 77.5856H23.0819L21.6105 73.701L18.9324 74.7604C18.3046 75.0155 17.8337 75.2803 17.5198 75.555C17.2059 75.8101 17.049 76.1142 17.049 76.4673ZM34.7182 89.9459C34.2865 89.3377 33.904 88.7883 33.5704 88.2978C33.2565 87.8074 32.9818 87.3561 32.7464 86.9441C32.5306 86.5321 32.3638 86.1397 32.2461 85.7669C32.148 85.4138 32.099 85.041 32.099 84.6486C32.099 83.8246 32.2559 83.0987 32.5698 82.4709C32.8837 81.843 33.178 81.3624 33.4527 81.0288L33.2761 80.8817C33.0996 81.0583 32.8936 81.2152 32.6581 81.3526C32.4227 81.4899 32.1284 81.6076 31.7753 81.7057C31.4417 81.8038 31.0395 81.8823 30.5687 81.9411C30.0978 81.9804 29.5288 82 28.8618 82V78.4685L29.7446 77.5856H30.3332C31.275 77.5856 31.9813 77.4777 32.4521 77.2619C32.923 77.0265 33.2958 76.6243 33.5704 76.0553L34.7182 73.6716L37.6317 75.0842L36.4545 77.4973C36.2191 77.9878 36.0229 78.4096 35.8659 78.7628C35.7089 79.0963 35.5814 79.4004 35.4833 79.6751C35.4048 79.9498 35.346 80.2146 35.3067 80.4697C35.2675 80.7051 35.2479 80.97 35.2479 81.2643C35.2479 81.8921 35.4245 82.5788 35.7776 83.3243C36.1308 84.0698 36.5918 84.9135 37.1608 85.8552L39.7211 79.8517C39.8977 79.42 40.0743 79.0571 40.2508 78.7628C40.4274 78.4685 40.6138 78.2331 40.81 78.0565C41.0062 77.8799 41.2318 77.7622 41.4869 77.7033C41.7419 77.6249 42.0362 77.5856 42.3697 77.5856H44.8124V81.1171L43.9295 82H41.9577L38.6911 89.9459H34.7182ZM43.9212 78.4685L44.8041 77.5856H45.5398C47.1094 77.5856 47.8941 76.8989 47.8941 75.5256V60.2224H51.4256V75.5256C51.4256 76.8989 52.1123 77.5856 53.4857 77.5856H54.5157V81.1171L53.6328 82C52.024 82 50.7978 81.6861 49.9542 81.0583C49.1105 80.4108 48.5514 79.4004 48.2767 78.0271H48.1001C47.8451 79.4004 47.3938 80.4108 46.7464 81.0583C46.099 81.6861 45.1572 82 43.9212 82V78.4685ZM59.145 65.6692L62.6177 64.08V63.9329C62.2253 63.6778 61.9212 63.3541 61.7054 62.9617C61.4896 62.5693 61.3817 62.1377 61.3817 61.6668C61.3817 60.8232 61.6563 60.1169 62.2057 59.5479C62.7746 58.9593 63.4907 58.6651 64.354 58.6651C65.1976 58.6651 65.8941 58.9397 66.4435 59.4891C67.0124 60.0384 67.2969 60.7349 67.2969 61.5785C67.2969 63.3443 66.2767 64.6882 64.2363 65.6103L59.9985 67.5527L59.145 65.6692ZM63.2651 61.5785C63.2651 62.0102 63.5888 62.3829 64.2363 62.6968L64.766 62.9617C64.9818 62.8048 65.1388 62.6478 65.2369 62.4908C65.335 62.3143 65.384 62.0886 65.384 61.814C65.384 61.5001 65.2761 61.245 65.0603 61.0488C64.8641 60.833 64.5992 60.7251 64.2657 60.7251C63.991 60.7251 63.7556 60.8036 63.5594 60.9605C63.3632 61.1175 63.2651 61.3235 63.2651 61.5785ZM57.9612 80.352C57.51 80.9602 56.941 81.3918 56.2543 81.6469C55.5873 81.8823 54.7142 82 53.6351 82V78.4685L54.518 77.5856C55.2439 77.5856 55.7736 77.4777 56.1072 77.2619C56.4407 77.0461 56.7154 76.6635 56.9312 76.1142L57.7552 74.0836C58.0103 73.4557 58.2947 72.8672 58.6086 72.3178C58.9226 71.7685 59.2953 71.2878 59.727 70.8758C60.1586 70.4638 60.6393 70.1401 61.169 69.9046C61.7183 69.6692 62.3461 69.5515 63.0524 69.5515C64.8967 69.5515 66.2798 70.2774 67.202 71.7292C68.1437 73.1811 68.6146 75.1921 68.6146 77.7622V78.6156L65.8188 82.7652L57.9612 80.352ZM59.5798 76.2613L65.4951 78.0565V77.7622C65.4951 76.585 65.2106 75.6629 64.6416 74.9959C64.0727 74.3288 63.2977 73.9953 62.3167 73.9953C61.6889 73.9953 61.1396 74.162 60.6687 74.4956C60.2174 74.8291 59.8741 75.3588 59.6387 76.0847L59.5798 76.2613ZM70.5178 84.6486H72.4013C74.9714 84.6486 76.8549 84.1974 78.0517 83.2949C79.2484 82.412 79.8468 81.2643 79.8468 79.8517V79.0865H79.6703C79.376 80.0871 78.8953 80.8228 78.2282 81.2937C77.5808 81.7646 76.7568 82 75.7562 82C74.167 82 72.9212 81.5389 72.0187 80.6168C71.1358 79.6751 70.6944 78.3704 70.6944 76.7028C70.6944 75.6825 70.8415 74.7408 71.1358 73.8776C71.4497 72.9947 71.8715 72.2393 72.4013 71.6115C72.9506 70.9641 73.5882 70.4638 74.3142 70.1106C75.0597 69.7379 75.8641 69.5515 76.7273 69.5515C77.6887 69.5515 78.5421 69.7575 79.2877 70.1695C80.0528 70.5619 80.6905 71.1406 81.2006 71.9058C81.7303 72.6513 82.1325 73.5735 82.4072 74.6721C82.6818 75.7708 82.8192 77.0069 82.8192 78.3802C82.8192 81.7351 81.9559 84.3543 80.2294 86.2378C78.5225 88.1213 76.0112 89.063 72.6955 89.063H70.5178V84.6486ZM76.6685 77.5856C77.4336 77.5856 78.0713 77.5562 78.5814 77.4973C79.0915 77.4189 79.5035 77.3011 79.8174 77.1442C79.7389 76.1828 79.376 75.4177 78.7285 74.8487C78.0811 74.2601 77.2865 73.9658 76.3448 73.9658C75.5796 73.9658 74.9322 74.1718 74.4024 74.5839C73.8923 74.9762 73.6373 75.4864 73.6373 76.1142C73.6373 76.6439 73.8531 77.0265 74.2847 77.2619C74.7163 77.4777 75.3049 77.5856 76.0505 77.5856H76.6685ZM95.3185 82.3531C94.4356 82.3531 93.7784 82.1373 93.3468 81.7057C92.9348 81.2545 92.7288 80.6855 92.7288 79.9988V79.4102C92.7288 78.2135 93.0132 77.0363 93.5822 75.8787C94.1708 74.7212 94.9359 73.7795 95.8777 73.0535H98.8206C98.1339 73.701 97.5453 74.3484 97.0548 74.9959C96.5643 75.6237 96.1916 76.33 95.9365 77.1148C96.6232 77.2325 97.1235 77.5072 97.4374 77.9388C97.7513 78.3508 97.9083 78.8413 97.9083 79.4102V79.9988C97.9083 80.6855 97.6925 81.2545 97.2608 81.7057C96.8488 82.1373 96.2014 82.3531 95.3185 82.3531ZM108.509 59.1977L101.211 62.5527L100.357 60.6692L107.656 57.2848L108.509 59.1977ZM108.509 54.7245L101.211 58.0794L100.357 56.196L107.656 52.8116L108.509 54.7245ZM100.221 78.5862L104.988 77.4679L102.693 64.4897L106.165 63.8716L108.431 76.585C109.138 76.3692 109.716 76.1338 110.168 75.8787C110.638 75.6237 111.011 75.3392 111.286 75.0253C111.561 74.6918 111.747 74.3092 111.845 73.8776C111.963 73.4263 112.022 72.9064 112.022 72.3178V60.2224H115.553V75.5256C115.553 76.8989 116.24 77.5856 117.613 77.5856H118.79V81.1171L117.907 82C116.004 81.9804 114.611 81.4899 113.729 80.5285C112.846 79.5672 112.404 78.0565 112.404 75.9965V75.7022H112.228C111.953 77.3306 111.482 78.596 110.815 79.4985C110.168 80.401 109.265 80.9896 108.108 81.2643L101.221 82.8829L100.221 78.5862ZM122.222 80.352C121.771 80.9602 121.202 81.3918 120.516 81.6469C119.849 81.8823 118.975 82 117.896 82V78.4685L118.779 77.5856C119.505 77.5856 120.035 77.4777 120.368 77.2619C120.702 77.0461 120.977 76.6635 121.192 76.1142L122.016 74.0836C122.272 73.4557 122.556 72.8672 122.87 72.3178C123.184 71.7685 123.557 71.2878 123.988 70.8758C124.42 70.4638 124.901 70.1401 125.43 69.9046C125.98 69.6692 126.607 69.5515 127.314 69.5515C129.158 69.5515 130.541 70.2774 131.463 71.7292C132.405 73.1811 132.876 75.1921 132.876 77.7622V78.6156L130.08 82.7652L122.222 80.352ZM123.841 76.2613L129.756 78.0565V77.7622C129.756 76.585 129.472 75.6629 128.903 74.9959C128.334 74.3288 127.559 73.9953 126.578 73.9953C125.95 73.9953 125.401 74.162 124.93 74.4956C124.479 74.8291 124.135 75.3588 123.9 76.0847L123.841 76.2613ZM141.518 82C139.537 82 138.065 81.5291 137.104 80.5874C136.143 79.6457 135.662 78.1154 135.662 75.9965V60.2224H139.193V75.4079C139.193 76.2907 139.37 76.8793 139.723 77.1736C140.076 77.4483 140.685 77.5856 141.548 77.5856H142.431V81.1171L141.548 82H141.518ZM141.549 78.4685L142.432 77.5856H145.198C145.904 77.5856 146.385 77.517 146.64 77.3796C146.915 77.2227 147.052 76.9578 147.052 76.585C147.052 76.33 146.984 76.1044 146.846 75.9082C146.709 75.6924 146.473 75.4471 146.14 75.1724L142.726 72.1118V64.3425L156.852 59.8693V63.7539L144.198 67.7269V67.9034L151.702 74.7604C152.33 75.349 152.889 75.8297 153.379 76.2025C153.89 76.5556 154.351 76.8401 154.763 77.0559C155.194 77.2521 155.596 77.3894 155.969 77.4679C156.342 77.5464 156.734 77.5856 157.146 77.5856V81.1171L156.264 82C155.596 82 154.988 81.9411 154.439 81.8234C153.909 81.6861 153.379 81.4507 152.85 81.1171C152.32 80.764 151.761 80.3029 151.172 79.734C150.603 79.1454 149.956 78.3998 149.23 77.4973L148.435 76.5262L148.288 76.6145C148.367 76.9872 148.406 77.3796 148.406 77.7916C148.406 78.3802 148.318 78.9296 148.141 79.4397C147.964 79.9498 147.709 80.401 147.376 80.7934C147.042 81.1662 146.64 81.4605 146.169 81.6763C145.698 81.8921 145.169 82 144.58 82H141.549V78.4685ZM156.264 78.4685L157.146 77.5856H158.029C159.599 77.5856 160.384 76.8989 160.384 75.5256V71.3172H163.621V75.5256C163.621 76.8989 164.307 77.5856 165.681 77.5856H166.858V81.1171L165.975 82C164.406 82 163.209 81.6861 162.385 81.0583C161.58 80.4108 161.041 79.4004 160.766 78.0271H160.59C160.315 79.4004 159.844 80.4108 159.177 81.0583C158.51 81.6861 157.539 82 156.264 82V78.4685ZM164.033 68.9629C163.523 68.9629 163.101 68.8059 162.767 68.492C162.453 68.1781 162.296 67.6778 162.296 66.9911C162.296 66.3045 162.453 65.8042 162.767 65.4903C163.101 65.1763 163.523 65.0194 164.033 65.0194H164.621C165.131 65.0194 165.543 65.1763 165.857 65.4903C166.191 65.8042 166.358 66.3045 166.358 66.9911C166.358 67.6778 166.191 68.1781 165.857 68.492C165.543 68.8059 165.131 68.9629 164.621 68.9629H164.033ZM159.383 68.9629C158.873 68.9629 158.451 68.8059 158.118 68.492C157.804 68.1781 157.647 67.6778 157.647 66.9911C157.647 66.3045 157.804 65.8042 158.118 65.4903C158.451 65.1763 158.873 65.0194 159.383 65.0194H159.972C160.482 65.0194 160.894 65.1763 161.208 65.4903C161.541 65.8042 161.708 66.3045 161.708 66.9911C161.708 67.6778 161.541 68.1781 161.208 68.492C160.894 68.8059 160.482 68.9629 159.972 68.9629H159.383ZM171.487 65.6692L174.96 64.08V63.9329C174.568 63.6778 174.263 63.3541 174.048 62.9617C173.832 62.5693 173.724 62.1377 173.724 61.6668C173.724 60.8232 173.999 60.1169 174.548 59.5479C175.117 58.9593 175.833 58.6651 176.696 58.6651C177.54 58.6651 178.236 58.9397 178.786 59.4891C179.355 60.0384 179.639 60.7349 179.639 61.5785C179.639 63.3443 178.619 64.6882 176.579 65.6103L172.341 67.5527L171.487 65.6692ZM175.607 61.5785C175.607 62.0102 175.931 62.3829 176.579 62.6968L177.108 62.9617C177.324 62.8048 177.481 62.6478 177.579 62.4908C177.677 62.3143 177.726 62.0886 177.726 61.814C177.726 61.5001 177.618 61.245 177.403 61.0488C177.206 60.833 176.942 60.7251 176.608 60.7251C176.333 60.7251 176.098 60.8036 175.902 60.9605C175.706 61.1175 175.607 61.3235 175.607 61.5785ZM170.304 80.352C169.852 80.9602 169.283 81.3918 168.597 81.6469C167.93 81.8823 167.056 82 165.977 82V78.4685L166.86 77.5856C167.586 77.5856 168.116 77.4777 168.449 77.2619C168.783 77.0461 169.058 76.6635 169.273 76.1142L170.097 74.0836C170.353 73.4557 170.637 72.8672 170.951 72.3178C171.265 71.7685 171.638 71.2878 172.069 70.8758C172.501 70.4638 172.982 70.1401 173.511 69.9046C174.061 69.6692 174.688 69.5515 175.395 69.5515C177.239 69.5515 178.622 70.2774 179.544 71.7292C180.486 73.1811 180.957 75.1921 180.957 77.7622V78.6156L178.161 82.7652L170.304 80.352ZM171.922 76.2613L177.837 78.0565V77.7622C177.837 76.585 177.553 75.6629 176.984 74.9959C176.415 74.3288 175.64 73.9953 174.659 73.9953C174.031 73.9953 173.482 74.162 173.011 74.4956C172.56 74.8291 172.216 75.3588 171.981 76.0847L171.922 76.2613ZM193.435 82.3531C192.552 82.3531 191.895 82.1373 191.463 81.7057C191.051 81.2545 190.845 80.6855 190.845 79.9988V79.4102C190.845 78.2135 191.13 77.0363 191.698 75.8787C192.287 74.7212 193.052 73.7795 193.994 73.0535H196.937C196.25 73.701 195.662 74.3484 195.171 74.9959C194.681 75.6237 194.308 76.33 194.053 77.1148C194.739 77.2325 195.24 77.5072 195.554 77.9388C195.868 78.3508 196.025 78.8413 196.025 79.4102V79.9988C196.025 80.6855 195.809 81.2545 195.377 81.7057C194.965 82.1373 194.318 82.3531 193.435 82.3531ZM205.648 54.1977L198.35 57.5527L197.496 55.6692L204.795 52.2848L205.648 54.1977ZM205.648 49.7245L198.35 53.0794L197.496 51.196L204.795 47.8116L205.648 49.7245ZM205.665 82C203.683 82 202.212 81.5291 201.25 80.5874C200.289 79.6457 199.808 78.1154 199.808 75.9965V60.2224H203.34V75.4079C203.34 76.2907 203.516 76.8793 203.87 77.1736C204.223 77.4483 204.831 77.5856 205.694 77.5856H206.577V81.1171L205.694 82H205.665ZM205.695 78.4685L206.578 77.5856H207.461C209.031 77.5856 209.815 76.8989 209.815 75.5256V71.3172H213.053V75.5256C213.053 76.8989 213.739 77.5856 215.113 77.5856H216.29V81.1171L215.407 82C213.837 82 212.641 81.6861 211.817 81.0583C211.012 80.4108 210.473 79.4004 210.198 78.0271H210.021C209.747 79.4004 209.276 80.4108 208.609 81.0583C207.942 81.6861 206.971 82 205.695 82V78.4685ZM213.465 68.9629C212.954 68.9629 212.533 68.8059 212.199 68.492C211.885 68.1781 211.728 67.6778 211.728 66.9911C211.728 66.3045 211.885 65.8042 212.199 65.4903C212.533 65.1763 212.954 65.0194 213.465 65.0194H214.053C214.563 65.0194 214.975 65.1763 215.289 65.4903C215.623 65.8042 215.789 66.3045 215.789 66.9911C215.789 67.6778 215.623 68.1781 215.289 68.492C214.975 68.8059 214.563 68.9629 214.053 68.9629H213.465ZM208.815 68.9629C208.305 68.9629 207.883 68.8059 207.549 68.492C207.235 68.1781 207.078 67.6778 207.078 66.9911C207.078 66.3045 207.235 65.8042 207.549 65.4903C207.883 65.1763 208.305 65.0194 208.815 65.0194H209.403C209.913 65.0194 210.325 65.1763 210.639 65.4903C210.973 65.8042 211.14 66.3045 211.14 66.9911C211.14 67.6778 210.973 68.1781 210.639 68.492C210.325 68.8059 209.913 68.9629 209.403 68.9629H208.815ZM215.409 78.4685L216.292 77.5856H219.441L219.5 77.4385C218.754 76.6929 218.234 75.9082 217.94 75.0842C217.665 74.2405 217.528 73.4263 217.528 72.6415C217.528 71.7587 217.665 70.9346 217.94 70.1695C218.215 69.3847 218.607 68.7078 219.117 68.1389C219.627 67.5503 220.236 67.0892 220.942 66.7557C221.668 66.4222 222.462 66.2554 223.326 66.2554C224.189 66.2554 224.974 66.4222 225.68 66.7557C226.406 67.0892 227.024 67.5503 227.534 68.1389C228.044 68.7078 228.436 69.3847 228.711 70.1695C228.986 70.9346 229.123 71.7587 229.123 72.6415C229.123 73.4263 228.976 74.2405 228.682 75.0842C228.407 75.9082 227.897 76.6929 227.151 77.4385L227.21 77.5856H230.477V81.1171L229.594 82H229.3C228.24 82 227.21 81.8627 226.21 81.588C225.209 81.3133 224.258 80.8228 223.355 80.1165C222.453 80.8228 221.501 81.3133 220.5 81.588C219.5 81.8627 218.47 82 217.41 82H215.409V78.4685ZM223.326 77.2031C224.326 76.6341 225.082 76.0455 225.592 75.4373C226.102 74.8095 226.357 74.1032 226.357 73.3184C226.357 72.4944 226.082 71.8469 225.533 71.3761C224.983 70.9052 224.307 70.6698 223.502 70.6698H223.149C222.345 70.6698 221.668 70.9052 221.118 71.3761C220.569 71.8469 220.294 72.4944 220.294 73.3184C220.294 74.1032 220.549 74.8095 221.06 75.4373C221.57 76.0455 222.325 76.6341 223.326 77.2031ZM223.031 63.9011C222.521 63.9011 222.099 63.7441 221.766 63.4302C221.452 63.1163 221.295 62.616 221.295 61.9293C221.295 61.2426 221.452 60.7424 221.766 60.4284C222.099 60.1145 222.521 59.9576 223.031 59.9576H223.62C224.13 59.9576 224.542 60.1145 224.856 60.4284C225.189 60.7424 225.356 61.2426 225.356 61.9293C225.356 62.616 225.189 63.1163 224.856 63.4302C224.542 63.7441 224.13 63.9011 223.62 63.9011H223.031ZM229.606 78.4685L230.489 77.5856H231.225C232.795 77.5856 233.579 76.8989 233.579 75.5256V60.2224H237.111V75.5256C237.111 76.8989 237.798 77.5856 239.171 77.5856H240.201V81.1171L239.318 82C237.709 82 236.483 81.6861 235.639 81.0583C234.796 80.4108 234.237 79.4004 233.962 78.0271H233.785C233.53 79.4004 233.079 80.4108 232.432 81.0583C231.784 81.6861 230.842 82 229.606 82V78.4685ZM244.83 65.6692L248.303 64.08V63.9329C247.911 63.6778 247.606 63.3541 247.391 62.9617C247.175 62.5693 247.067 62.1377 247.067 61.6668C247.067 60.8232 247.342 60.1169 247.891 59.5479C248.46 58.9593 249.176 58.6651 250.039 58.6651C250.883 58.6651 251.579 58.9397 252.129 59.4891C252.698 60.0384 252.982 60.7349 252.982 61.5785C252.982 63.3443 251.962 64.6882 249.922 65.6103L245.684 67.5527L244.83 65.6692ZM248.95 61.5785C248.95 62.0102 249.274 62.3829 249.922 62.6968L250.451 62.9617C250.667 62.8048 250.824 62.6478 250.922 62.4908C251.02 62.3143 251.069 62.0886 251.069 61.814C251.069 61.5001 250.961 61.245 250.746 61.0488C250.549 60.833 250.284 60.7251 249.951 60.7251C249.676 60.7251 249.441 60.8036 249.245 60.9605C249.048 61.1175 248.95 61.3235 248.95 61.5785ZM243.646 80.352C243.195 80.9602 242.626 81.3918 241.94 81.6469C241.272 81.8823 240.399 82 239.32 82V78.4685L240.203 77.5856C240.929 77.5856 241.459 77.4777 241.792 77.2619C242.126 77.0461 242.401 76.6635 242.616 76.1142L243.44 74.0836C243.695 73.4557 243.98 72.8672 244.294 72.3178C244.608 71.7685 244.981 71.2878 245.412 70.8758C245.844 70.4638 246.324 70.1401 246.854 69.9046C247.404 69.6692 248.031 69.5515 248.738 69.5515C250.582 69.5515 251.965 70.2774 252.887 71.7292C253.829 73.1811 254.3 75.1921 254.3 77.7622V78.6156L251.504 82.7652L243.646 80.352ZM245.265 76.2613L251.18 78.0565V77.7622C251.18 76.585 250.896 75.6629 250.327 74.9959C249.758 74.3288 248.983 73.9953 248.002 73.9953C247.374 73.9953 246.825 74.162 246.354 74.4956C245.903 74.8291 245.559 75.3588 245.324 76.0847L245.265 76.2613Z" fill="#EFEFEF"/>
<path d="M273.34 89.063C271.771 89.063 270.358 88.8766 269.103 88.5038C267.867 88.1507 266.817 87.621 265.954 86.9147C265.09 86.228 264.433 85.3844 263.982 84.3838C263.531 83.4028 263.305 82.2747 263.305 80.9994C263.305 80.1165 263.423 79.1258 263.658 78.0271C263.913 76.9088 264.257 75.8297 264.688 74.7899L267.513 75.6139C267.121 76.4575 266.807 77.311 266.572 78.1742C266.356 79.0375 266.248 79.783 266.248 80.4108C266.248 81.6469 266.768 82.5984 267.808 83.2655C268.848 83.9521 270.299 84.2955 272.163 84.2955H274.518C276.205 84.2955 277.598 84.0895 278.697 83.6775C279.815 83.2655 280.59 82.6867 281.021 81.9411L274.076 80.8523V76.4379L277.578 76.9676C278.324 77.0853 278.991 77.1834 279.579 77.2619C280.168 77.3404 280.708 77.4091 281.198 77.4679C281.708 77.5072 282.169 77.5366 282.581 77.5562C283.013 77.5758 283.425 77.5856 283.817 77.5856V79.4691L284.318 80.2343C284.318 81.6272 284.062 82.8633 283.552 83.9423C283.062 85.041 282.346 85.9631 281.404 86.7087C280.462 87.4738 279.315 88.0526 277.961 88.445C276.607 88.857 275.067 89.063 273.34 89.063ZM275.371 95.3903C274.861 95.3903 274.439 95.2333 274.106 94.9194C273.792 94.6055 273.635 94.1052 273.635 93.4185C273.635 92.7318 273.792 92.2315 274.106 91.9176C274.439 91.6037 274.861 91.4468 275.371 91.4468H275.96C276.47 91.4468 276.882 91.6037 277.196 91.9176C277.529 92.2315 277.696 92.7318 277.696 93.4185C277.696 94.1052 277.529 94.6055 277.196 94.9194C276.882 95.2333 276.47 95.3903 275.96 95.3903H275.371ZM270.721 95.3903C270.211 95.3903 269.789 95.2333 269.456 94.9194C269.142 94.6055 268.985 94.1052 268.985 93.4185C268.985 92.7318 269.142 92.2315 269.456 91.9176C269.789 91.6037 270.211 91.4468 270.721 91.4468H271.31C271.82 91.4468 272.232 91.6037 272.546 91.9176C272.879 92.2315 273.046 92.7318 273.046 93.4185C273.046 94.1052 272.879 94.6055 272.546 94.9194C272.232 95.2333 271.82 95.3903 271.31 95.3903H270.721ZM282.947 78.4685L283.83 77.5856H286.979V81.1171L286.096 82H282.947V78.4685ZM286.108 78.4685L286.991 77.5856H290.14V81.1171L289.257 82H286.108V78.4685ZM289.269 78.4685L290.152 77.5856H292.713C292.693 77.4679 292.683 77.3502 292.683 77.2325C292.683 77.1148 292.683 76.997 292.683 76.8793C292.683 74.5054 294.057 72.5238 296.803 70.9346L298.687 69.8458H302.571L304.896 76.0847C305.112 76.6929 305.377 77.0951 305.691 77.2913C306.024 77.4875 306.515 77.5856 307.162 77.5856H308.045V81.1171L307.162 82C305.867 82 304.847 81.8038 304.102 81.4114C303.356 80.9994 302.738 80.3618 302.248 79.4985L302.071 79.528V82H298.334C296.901 82 295.754 81.7155 294.89 81.1466C294.027 80.558 293.419 79.8222 293.066 78.9394H292.801C292.252 80.9798 291.074 82 289.269 82V78.4685ZM295.361 76.4673C295.361 76.8989 295.528 77.1932 295.862 77.3502C296.195 77.5072 296.597 77.5856 297.068 77.5856H301.394L299.923 73.701L297.245 74.7604C296.617 75.0155 296.146 75.2803 295.832 75.555C295.518 75.8101 295.361 76.1142 295.361 76.4673ZM307.174 78.4685L308.057 77.5856H313.766C314.433 77.5856 315.041 77.5464 315.591 77.4679C316.16 77.3894 316.631 77.2521 317.003 77.0559C317.396 76.8597 317.7 76.5948 317.916 76.2613C318.132 75.9278 318.239 75.506 318.239 74.9959V73.6421H318.063C317.494 75.1921 316.189 75.967 314.149 75.967C312.56 75.967 311.314 75.555 310.411 74.731C309.528 73.8874 309.087 72.7298 309.087 71.2584C309.087 70.2382 309.234 69.2964 309.528 68.4332C309.842 67.5503 310.264 66.7949 310.794 66.1671C311.343 65.5197 311.981 65.0194 312.707 64.6662C313.452 64.2935 314.257 64.1071 315.12 64.1071C317.043 64.1071 318.534 64.9115 319.593 66.5203C320.672 68.1291 321.212 70.3657 321.212 73.2301C321.212 75.0155 321.055 76.4771 320.741 77.6151C320.427 78.753 319.956 79.6457 319.328 80.2931C318.72 80.9406 317.945 81.3918 317.003 81.6469C316.081 81.8823 315.002 82 313.766 82H307.174V78.4685ZM315.061 72.1412C315.807 72.1412 316.434 72.1118 316.945 72.0529C317.455 71.9745 317.867 71.8568 318.181 71.6998C318.063 70.7384 317.68 69.9733 317.033 69.4043C316.405 68.8157 315.64 68.5215 314.737 68.5215C313.972 68.5215 313.325 68.7275 312.795 69.1395C312.285 69.5319 312.03 70.042 312.03 70.6698C312.03 71.1995 312.246 71.5821 312.677 71.8175C313.109 72.0333 313.698 72.1412 314.443 72.1412H315.061ZM317.151 61.7528C316.64 61.7528 316.219 61.5958 315.885 61.2819C315.571 60.968 315.414 60.4677 315.414 59.781C315.414 59.0943 315.571 58.594 315.885 58.2801C316.219 57.9662 316.64 57.8092 317.151 57.8092H317.739C318.249 57.8092 318.661 57.9662 318.975 58.2801C319.309 58.594 319.475 59.0943 319.475 59.781C319.475 60.4677 319.309 60.968 318.975 61.2819C318.661 61.5958 318.249 61.7528 317.739 61.7528H317.151ZM312.501 61.7528C311.991 61.7528 311.569 61.5958 311.235 61.2819C310.921 60.968 310.764 60.4677 310.764 59.781C310.764 59.0943 310.921 58.594 311.235 58.2801C311.569 57.9662 311.991 57.8092 312.501 57.8092H313.089C313.599 57.8092 314.011 57.9662 314.325 58.2801C314.659 58.594 314.826 59.0943 314.826 59.781C314.826 60.4677 314.659 60.968 314.325 61.2819C314.011 61.5958 313.599 61.7528 313.089 61.7528H312.501ZM320.488 84.6486H321.666C323.451 84.6486 324.756 84.2857 325.58 83.5597C326.423 82.8338 326.835 81.6272 326.816 79.94C326.816 79.4887 326.786 79.0178 326.727 78.5274C326.669 78.0173 326.59 77.4777 326.492 76.9088L325.874 72.9947L329.082 72.4944L329.523 75.2313C329.602 75.6629 329.661 76.0749 329.7 76.4673C329.759 76.8597 329.808 77.2325 329.847 77.5856H332.554V81.1171L331.672 82H329.847C329.513 84.1778 328.65 85.8945 327.257 87.1501C325.884 88.4254 324.03 89.063 321.695 89.063H320.488V84.6486ZM331.66 78.4685L332.543 77.5856H333.838C334.583 77.5856 335.074 77.4483 335.309 77.1736C335.564 76.8793 335.692 76.4281 335.692 75.8199V60.2224H339.223V75.8199C339.223 77.9192 338.811 79.4691 337.987 80.4697C337.183 81.4703 335.8 81.9804 333.838 82H331.66V78.4685ZM342.758 60.2224H346.29V82H342.758V60.2224ZM356.194 77.5856H371.38C372.557 77.5856 373.145 76.997 373.145 75.8199V60.193H376.677V75.8199C376.677 77.9388 376.245 79.4985 375.382 80.4991C374.538 81.4997 373.204 82 371.38 82H356.194V77.5856ZM362.492 72.8475L367.112 70.6698L367.054 70.4638H364.699C363.228 70.4638 362.492 69.7771 362.492 68.4037C362.492 67.7171 362.718 67.1579 363.169 66.7263C363.62 66.2946 364.268 65.8336 365.111 65.3431L367.054 64.2248L368.113 65.9905L364.493 68.0212L364.552 68.2566H366.848C368.358 68.2566 369.114 68.8648 369.114 70.0812C369.114 70.7875 368.908 71.3663 368.496 71.8175C368.103 72.2688 367.495 72.7004 366.671 73.1124L363.463 74.731L362.492 72.8475ZM376.674 84.6486H377.851C379.636 84.6486 380.941 84.2857 381.765 83.5597C382.609 82.8338 383.021 81.6272 383.001 79.94C383.001 79.4887 382.972 79.0178 382.913 78.5274C382.854 78.0173 382.776 77.4777 382.677 76.9088L382.059 72.9947L385.267 72.4944L385.709 75.2313C385.866 76.173 385.983 77.0461 386.062 77.8505C386.16 78.6353 386.209 79.2827 386.209 79.7928C386.209 81.2054 386.032 82.4807 385.679 83.6186C385.326 84.7565 384.796 85.7277 384.09 86.5321C383.384 87.3561 382.511 87.9839 381.471 88.4156C380.431 88.8472 379.234 89.063 377.881 89.063H376.674V84.6486ZM388.117 84.6486H390C391.864 84.6486 393.355 84.4132 394.474 83.9423C395.611 83.4715 396.416 82.824 396.887 82H393.473C391.884 82 390.638 81.5389 389.735 80.6168C388.853 79.6751 388.411 78.3704 388.411 76.7028C388.411 75.6825 388.558 74.7408 388.853 73.8776C389.166 72.9947 389.588 72.2393 390.118 71.6115C390.667 70.9641 391.305 70.4638 392.031 70.1106C392.776 69.7379 393.581 69.5515 394.444 69.5515C396.229 69.5515 397.642 70.2578 398.682 71.6704C399.722 73.083 400.291 75.0547 400.389 77.5856H401.89V81.1171L401.007 82H400.006C399.457 84.2562 398.368 85.9926 396.74 87.209C395.131 88.445 392.982 89.063 390.295 89.063H388.117V84.6486ZM391.354 76.1142C391.354 76.6439 391.57 77.0265 392.001 77.2619C392.433 77.4777 393.022 77.5856 393.767 77.5856H397.446V77.4973C397.446 76.4379 397.122 75.5844 396.475 74.937C395.847 74.2896 395.042 73.9658 394.062 73.9658C393.296 73.9658 392.649 74.1718 392.119 74.5839C391.609 74.9762 391.354 75.4864 391.354 76.1142ZM428.201 82C427.514 82 426.857 81.9215 426.229 81.7646C425.621 81.588 425.042 81.2741 424.493 80.8228C423.237 81.6076 421.452 82 419.137 82H410.72C409.15 82 407.953 81.6861 407.129 81.0583C406.325 80.4108 405.786 79.4004 405.511 78.0271H405.334C405.06 79.4004 404.589 80.4108 403.922 81.0583C403.255 81.6861 402.283 82 401.008 82V78.4685L401.891 77.5856H402.774C404.343 77.5856 405.128 76.8989 405.128 75.5256V73.6716H408.365V75.5256C408.365 76.3692 408.601 76.948 409.072 77.2619L410.367 75.0253C411.053 73.8285 411.75 72.8083 412.456 71.9647C413.182 71.121 413.937 70.4343 414.722 69.9046C415.507 69.3749 416.331 68.9923 417.194 68.7569C418.077 68.5018 419.019 68.3743 420.019 68.3743C422.334 68.3743 424.071 69.0119 425.228 70.2872C426.386 71.5428 426.965 73.2988 426.965 75.555C426.965 76.3006 426.896 76.948 426.759 77.4973C427.249 77.5562 427.73 77.5856 428.201 77.5856H429.084V81.1171L428.201 82ZM419.137 77.5856C420.078 77.5856 420.853 77.5562 421.461 77.4973C422.089 77.4189 422.59 77.3011 422.962 77.1442C423.355 76.9676 423.629 76.7322 423.786 76.4379C423.943 76.1436 424.022 75.761 424.022 75.2902C424.022 74.4465 423.747 73.8187 423.198 73.4067C422.648 72.9947 421.736 72.7887 420.461 72.7887H419.578C418.695 72.7887 417.92 72.8279 417.253 72.9064C416.586 72.9653 415.997 73.0928 415.487 73.289C414.977 73.4852 414.516 73.7598 414.104 74.113C413.692 74.4661 413.3 74.9272 412.927 75.4962L411.662 77.4091L411.75 77.5856H419.137ZM418.842 66.02C418.332 66.02 417.91 65.863 417.577 65.5491C417.263 65.2352 417.106 64.7349 417.106 64.0482C417.106 63.3615 417.263 62.8612 417.577 62.5473C417.91 62.2334 418.332 62.0765 418.842 62.0765H419.431C419.941 62.0765 420.353 62.2334 420.667 62.5473C421 62.8612 421.167 63.3615 421.167 64.0482C421.167 64.7349 421 65.2352 420.667 65.5491C420.353 65.863 419.941 66.02 419.431 66.02H418.842ZM428.196 78.4685L429.079 77.5856H431.109C432.208 77.5856 433.189 77.5758 434.052 77.5562C434.935 77.517 435.769 77.4385 436.554 77.3208C437.338 77.203 438.103 77.0265 438.849 76.791C439.595 76.5556 440.389 76.2319 441.233 75.8199L442.322 75.2902V75.143L437.613 74.1424L433.169 73.0535V75.2607H429.785V72.9947C429.785 71.6017 430.079 70.5815 430.668 69.9341C431.276 69.2866 432.198 68.9629 433.434 68.9629C433.591 68.9629 433.748 68.9727 433.905 68.9923C434.082 69.0119 434.278 69.0414 434.494 69.0806C434.729 69.1198 435.004 69.1787 435.318 69.2572C435.631 69.3357 436.024 69.4338 436.495 69.5515L442.175 71.0229C442.959 71.2387 443.803 71.4055 444.705 71.5232C445.608 71.6409 446.501 71.6998 447.383 71.6998H447.972V76.1142H445.677L442.91 77.9976C441.615 78.8805 440.448 79.5868 439.408 80.1165C438.388 80.6266 437.417 81.0288 436.495 81.3231C435.573 81.5978 434.68 81.7842 433.817 81.8823C432.953 81.9608 432.051 82 431.109 82H428.196V78.4685Z" fill="#088F4C"/>
</svg>
