<svg width="491" height="304" viewBox="0 0 491 304" fill="none" xmlns="http://www.w3.org/2000/svg">
<path d="M477.807 199.656H479.841V199.466C479.587 199.148 479.332 198.766 479.205 198.321C479.015 197.94 478.951 197.495 478.951 196.986C478.951 195.524 479.396 194.38 480.413 193.553C481.43 192.791 482.702 192.346 484.355 192.346C484.99 192.346 485.562 192.473 486.198 192.6C486.834 192.791 487.343 193.045 487.851 193.426C488.36 193.808 488.741 194.253 489.059 194.825C489.377 195.397 489.568 196.096 489.631 196.859H486.198C486.135 196.287 485.944 195.842 485.626 195.524C485.245 195.27 484.863 195.079 484.355 195.079C483.846 195.079 483.465 195.27 483.147 195.651C482.765 196.033 482.638 196.605 482.638 197.304C482.638 197.94 482.765 198.512 483.02 198.893C483.274 199.338 483.782 199.593 484.418 199.656H489.758V202.581H477.807V199.656ZM479.777 186.179V140.725H488.805V186.179H479.777Z" fill="#551AA6"/>
<path d="M463.127 178.677V140.725H472.155V186.179H454.481C453.591 186.179 453.146 185.988 453.146 185.48V179.567C453.146 179.186 453.274 178.932 453.528 178.805C453.782 178.741 454.1 178.677 454.481 178.677H463.127Z" fill="#551AA6"/>
<path d="M431.879 203.852C427.175 203.852 423.297 203.279 420.246 202.072C417.131 200.927 414.651 199.274 412.808 197.113C410.964 194.951 409.629 192.408 408.866 189.357C408.103 186.306 407.658 182.936 407.658 179.249H415.478C415.478 182.555 415.859 185.225 416.558 187.386C417.258 189.548 418.275 191.328 419.673 192.663C421.072 193.998 422.788 194.951 424.823 195.46C426.857 196.032 429.209 196.286 432.006 196.286C434.041 196.286 435.884 196.159 437.601 195.905C439.254 195.651 440.716 195.206 441.924 194.634C443.132 194.125 444.085 193.426 444.785 192.536C445.42 191.709 445.802 190.692 445.802 189.548C445.802 189.293 445.738 188.976 445.611 188.594C445.484 188.213 445.293 187.895 445.039 187.513C444.785 187.132 444.467 186.814 444.085 186.56C443.704 186.306 443.322 186.178 442.941 186.178C442.051 186.178 440.907 186.051 439.635 185.67C438.364 185.352 437.092 184.78 435.884 183.953V176.706C436.393 177.024 437.029 177.278 437.919 177.532C438.809 177.787 439.699 178.041 440.716 178.168C441.67 178.359 442.623 178.486 443.577 178.55C444.467 178.677 445.293 178.677 445.929 178.677H454.575C454.893 178.677 455.21 178.74 455.465 178.804C455.719 178.931 455.91 179.185 455.91 179.567V185.479C455.91 185.988 455.465 186.178 454.575 186.178H451.142C451.714 186.814 452.223 187.704 452.604 188.721C452.985 189.738 453.176 190.692 453.176 191.518C453.176 193.044 452.668 194.506 451.714 195.969C450.697 197.431 449.298 198.766 447.518 199.91C445.675 201.118 443.45 202.072 440.843 202.771C438.173 203.534 435.185 203.852 431.879 203.852Z" fill="#551AA6"/>
<path d="M376.613 199.656H378.648V199.466C378.393 199.148 378.139 198.766 378.012 198.321C377.821 197.94 377.758 197.495 377.758 196.986C377.758 195.524 378.203 194.38 379.22 193.553C380.237 192.791 381.508 192.346 383.161 192.346C383.797 192.346 384.369 192.473 385.005 192.6C385.641 192.791 386.149 193.045 386.658 193.426C387.166 193.808 387.548 194.253 387.866 194.825C388.183 195.397 388.374 196.096 388.438 196.859H385.005C384.941 196.287 384.751 195.842 384.433 195.524C384.051 195.27 383.67 195.079 383.161 195.079C382.653 195.079 382.271 195.27 381.953 195.651C381.572 196.033 381.445 196.605 381.445 197.304C381.445 197.94 381.572 198.512 381.826 198.893C382.081 199.338 382.589 199.593 383.225 199.656H388.565V202.581H376.613V199.656ZM378.584 186.179V140.725H387.611V186.179H378.584Z" fill="#551AA6"/>
<path d="M361.926 192.219H370.953V199.657H361.926V192.219ZM350.991 186.18C350.101 186.18 349.656 185.989 349.656 185.48V179.568C349.656 179.187 349.783 178.932 350.038 178.805C350.292 178.742 350.61 178.678 350.991 178.678H361.926V159.098H370.953V186.18H350.991Z" fill="#551AA6"/>
<path d="M350.97 178.677C351.288 178.677 351.606 178.74 351.86 178.804C352.114 178.931 352.305 179.185 352.305 179.567V185.479C352.305 185.988 351.86 186.178 350.97 186.178H349.635C348.999 186.178 348.364 186.115 347.728 185.924C347.092 185.733 346.456 185.479 345.821 185.098C345.185 184.78 344.676 184.398 344.168 183.89C343.659 183.381 343.341 182.809 343.087 182.173H342.833C342.706 182.682 342.578 183.318 342.324 184.08C342.07 184.907 341.688 185.606 341.307 186.178H316.514V178.677H333.805V173.591C333.805 172.065 333.615 170.667 333.233 169.395C332.852 168.124 332.28 166.979 331.58 166.026C330.881 165.136 330.055 164.373 329.101 163.864C328.084 163.356 327.003 163.101 325.859 163.101H319.311V156.045H325.859C328.147 156.045 330.372 156.426 332.407 157.062C334.441 157.698 336.285 158.715 337.81 160.05C339.336 161.385 340.608 163.101 341.498 165.136C342.388 167.17 342.896 169.649 342.896 172.51V173.782C342.896 174.799 343.151 175.625 343.596 176.261C343.977 176.897 344.549 177.405 345.185 177.787C345.821 178.168 346.52 178.359 347.283 178.486C348.046 178.613 348.872 178.677 349.635 178.677H350.97Z" fill="#551AA6"/>
<path d="M302.098 186.179V140.725H311.125V186.179H302.098Z" fill="#551AA6"/>
<path d="M260.941 193.171C260.941 191.772 261.069 190.437 261.45 189.102C261.768 187.767 262.276 186.496 262.976 185.352C263.675 184.207 264.565 183.127 265.646 182.173C266.663 181.219 267.934 180.456 269.46 179.821V179.566C268.316 178.613 267.426 177.278 266.727 175.561C266.027 173.908 265.709 171.938 265.709 169.713C265.709 167.678 265.964 165.708 266.472 163.928C266.981 162.148 267.807 160.558 269.015 159.223C270.159 157.888 271.749 156.871 273.656 156.108C275.563 155.345 277.979 154.964 280.903 154.964C283.065 154.964 284.972 155.282 286.625 155.854C288.214 156.426 289.549 157.252 290.693 158.333C291.838 159.478 292.728 160.813 293.363 162.338C293.999 163.928 294.508 165.708 294.762 167.742H286.752C286.37 165.962 285.671 164.563 284.781 163.546C283.828 162.529 282.556 162.02 280.903 162.02C278.678 162.02 277.089 162.72 276.072 164.055C275.055 165.453 274.546 167.297 274.546 169.713C274.546 172.701 275.118 174.926 276.326 176.451C277.47 177.977 279.441 178.676 282.238 178.676H295.716V186.178H277.534C276.135 186.178 274.991 186.432 274.037 186.877C273.02 187.322 272.257 187.894 271.622 188.53C270.986 189.229 270.541 189.992 270.287 190.819C269.969 191.645 269.842 192.408 269.842 193.171C269.842 194.824 270.032 196.222 270.414 197.367C270.795 198.511 271.494 199.846 272.512 201.308H263.929C263.039 200.291 262.34 199.083 261.768 197.812C261.196 196.54 260.941 194.951 260.941 193.171Z" fill="#551AA6"/>
<path d="M241.596 159.098V185.162C241.596 187.578 241.342 189.803 240.96 191.774C240.579 193.745 239.879 195.461 238.989 196.86C238.099 198.258 236.892 199.403 235.366 200.166C233.84 200.928 231.933 201.31 229.644 201.31C228.627 201.31 227.674 201.246 226.656 201.056C225.639 200.928 224.749 200.674 223.986 200.293V193.745C224.495 194.126 225.003 194.317 225.639 194.444C226.211 194.571 226.847 194.571 227.61 194.571C229.39 194.571 230.661 193.808 231.424 192.283C232.124 190.757 232.505 188.341 232.505 185.162V159.098H241.596Z" fill="#551AA6"/>
<path d="M205.819 140.725H213.129V147.972H205.819V140.725ZM195.011 140.725H202.259V147.972H195.011V140.725ZM196.728 170.604C196.728 173.147 197.3 175.181 198.571 176.707C199.779 178.296 201.623 179.059 204.102 179.059C205.31 179.059 206.391 178.868 207.281 178.423C208.171 177.978 208.934 177.342 209.569 176.58C210.205 175.817 210.65 174.927 210.968 173.909C211.286 172.892 211.477 171.812 211.477 170.604C211.477 169.459 211.286 168.315 210.968 167.298C210.65 166.281 210.205 165.327 209.569 164.564C208.934 163.801 208.171 163.166 207.281 162.721C206.391 162.276 205.31 162.021 204.102 162.021C202.831 162.021 201.75 162.276 200.86 162.721C199.97 163.166 199.207 163.801 198.571 164.564C197.936 165.327 197.491 166.281 197.173 167.298C196.855 168.315 196.728 169.459 196.728 170.604ZM191.133 178.677V178.423C190.116 177.533 189.29 176.389 188.59 174.99C187.891 173.592 187.573 172.129 187.573 170.604C187.573 168.061 187.955 165.836 188.781 163.929C189.608 162.021 190.752 160.369 192.278 159.034C193.74 157.698 195.456 156.681 197.491 155.982C199.525 155.346 201.686 154.965 204.102 154.965C206.454 154.965 208.679 155.283 210.714 155.918C212.748 156.554 214.464 157.571 215.99 158.843C217.516 160.178 218.66 161.831 219.55 163.738C220.44 165.709 220.885 167.997 220.885 170.604C220.885 173.274 220.44 175.562 219.55 177.47C218.66 179.44 217.516 181.093 215.99 182.365C214.464 183.636 212.748 184.59 210.714 185.225C208.679 185.861 206.454 186.179 204.102 186.179H183.06C182.17 186.179 181.725 185.988 181.725 185.48V179.567C181.725 179.186 181.852 178.932 182.106 178.805C182.36 178.741 182.678 178.677 183.06 178.677H191.133Z" fill="#551AA6"/>
<path d="M159.16 163.928C157.889 163.928 156.808 164.182 155.918 164.627C155.028 165.072 154.265 165.708 153.629 166.471C152.994 167.233 152.549 168.187 152.231 169.204C151.913 170.221 151.786 171.366 151.786 172.51C151.786 173.718 151.913 174.862 152.231 175.879C152.549 176.896 152.994 177.786 153.629 178.549C154.265 179.312 155.028 179.948 155.918 180.393C156.808 180.838 157.889 181.029 159.16 181.029C160.368 181.029 161.449 180.838 162.339 180.393C163.229 179.948 163.992 179.312 164.627 178.549C165.263 177.786 165.708 176.896 166.026 175.879C166.344 174.862 166.535 173.718 166.535 172.51C166.535 171.366 166.344 170.221 166.026 169.204C165.708 168.187 165.263 167.233 164.627 166.471C163.992 165.708 163.229 165.072 162.339 164.627C161.449 164.182 160.368 163.928 159.16 163.928ZM159.16 188.085C156.109 188.085 153.311 187.577 150.896 186.559C148.416 185.542 146.446 183.953 144.983 181.792C144.221 183.063 143.14 184.08 141.678 184.907C140.152 185.797 138.563 186.178 136.91 186.178H135.257C134.367 186.178 133.922 185.987 133.922 185.479V179.566C133.922 179.185 134.049 178.931 134.303 178.804C134.558 178.74 134.875 178.676 135.257 178.676H136.465C137.101 178.676 137.8 178.613 138.563 178.486C139.262 178.359 139.898 178.104 140.47 177.723C140.978 177.405 141.423 176.96 141.805 176.388C142.186 175.879 142.377 175.18 142.377 174.354V172.574C142.377 169.967 142.758 167.678 143.648 165.708C144.538 163.737 145.683 162.084 147.209 160.813C148.734 159.541 150.514 158.524 152.549 157.888C154.583 157.253 156.744 156.871 159.16 156.871C161.512 156.871 163.737 157.253 165.772 157.888C167.806 158.524 169.523 159.541 171.048 160.813C172.574 162.084 173.718 163.737 174.608 165.708C175.498 167.678 175.943 169.967 175.943 172.574V174.354C175.943 175.18 176.07 175.879 176.452 176.388C176.833 176.96 177.278 177.405 177.851 177.723C178.359 178.104 178.995 178.359 179.694 178.486C180.393 178.613 181.093 178.676 181.856 178.676H183.063C183.381 178.676 183.699 178.74 183.953 178.804C184.208 178.931 184.398 179.185 184.398 179.566V185.479C184.398 185.987 183.953 186.178 183.063 186.178H181.411C179.694 186.178 178.105 185.797 176.643 184.907C175.117 184.08 174.036 183.063 173.337 181.792C171.811 183.953 169.84 185.542 167.425 186.559C164.945 187.577 162.212 188.085 159.16 188.085Z" fill="#551AA6"/>
<path d="M113.987 212.752H121.298V220H113.987V212.752ZM103.18 212.752H110.427V220H103.18V212.752ZM112.588 203.852C107.884 203.852 104.006 203.28 100.955 202.072C97.8395 200.928 95.3602 199.275 93.5166 197.114C91.673 194.952 90.3379 192.409 89.5751 189.358C88.8122 186.306 88.3672 182.937 88.3672 179.25L96.8257 173.953C96.8257 177.259 95.8477 185.201 97.2673 187.387C97.9666 189.548 98.9838 191.328 100.382 192.663C101.781 193.998 103.497 194.952 105.532 195.461C107.566 196.033 109.918 196.287 112.715 196.287C114.75 196.287 116.593 196.16 118.31 195.906C119.963 195.651 121.425 195.206 122.633 194.634C123.841 194.126 124.794 193.426 125.494 192.536C126.129 191.71 126.511 190.693 126.511 189.548C126.511 189.294 126.447 188.976 126.32 188.595C126.193 188.213 126.002 187.895 125.748 187.514C125.494 187.133 125.176 186.815 124.794 186.56C124.413 186.306 124.031 186.179 123.65 186.179C122.76 186.179 121.616 186.052 120.344 185.67C119.073 185.353 117.801 184.78 116.593 183.954V176.707C117.102 177.025 117.738 177.279 118.628 177.533C119.518 177.787 120.408 178.042 121.425 178.169C122.379 178.36 123.332 178.487 124.286 178.55C125.176 178.677 126.002 178.677 126.638 178.677H135.284C135.602 178.677 135.919 178.741 136.174 178.805C136.428 178.932 136.619 179.186 136.619 179.567V185.48C136.619 185.988 136.174 186.179 135.284 186.179H131.851C132.423 186.815 132.932 187.705 133.313 188.722C133.694 189.739 133.885 190.693 133.885 191.519C133.885 193.045 133.377 194.507 132.423 195.969C131.406 197.431 130.007 198.766 128.227 199.911C126.384 201.119 124.159 202.072 121.552 202.771C118.882 203.534 115.894 203.852 112.588 203.852Z" fill="#551AA6"/>
<path d="M119 47C119 28.7746 133.775 14 152 14H319.182C337.407 14 352.182 28.7746 352.182 47V71C352.182 89.2254 337.407 104 319.182 104H152C133.775 104 119 89.2254 119 71V47Z" fill="#551AA6"/>
<g clip-path="url(#clip0_309_1611)">
<path d="M21.0425 90.317L21.0268 90.339C20.6949 90.8044 20.8076 91.4804 21.2787 91.849L30.6972 99.2189C31.1682 99.5875 31.8192 99.509 32.1511 99.0436L32.1668 99.0217C32.4987 98.5563 32.386 97.8802 31.9149 97.5116L22.4964 90.1418C22.0254 89.7732 21.3744 89.8517 21.0425 90.317Z" fill="#551AA6"/>
<path d="M51.3517 72.7255L51.3209 72.7285C50.751 72.7835 50.3583 73.3073 50.4438 73.8984L52.1518 85.7134C52.2373 86.3045 52.7685 86.739 53.3384 86.684L53.3692 86.681C53.9391 86.626 54.3318 86.1022 54.2463 85.5111L52.5383 73.6961C52.4528 73.105 51.9216 72.6705 51.3517 72.7255Z" fill="#551AA6"/>
<path d="M83.0345 124.694C82.7061 131.023 84.053 137.442 86.9191 143.242C87.8873 145.202 87.3359 147.387 85.5771 148.456C81.0386 151.209 76.4947 153.954 71.9451 156.689C71.152 157.166 70.5049 157.445 70.0037 157.528C68.9492 157.703 67.9672 157.471 67.0579 156.833C66.6828 156.569 66.1762 156.029 65.5381 155.211C61.8381 150.477 57.3465 146.836 52.0635 144.288C50.6899 143.625 48.6413 142.903 47.167 142.14C32.1203 134.349 26.7103 114.369 36.8658 101.302C47.558 87.5499 68.5488 89.1021 78.6811 104.471C81.8639 109.301 83.4121 114.604 83.3255 120.378C83.3071 121.696 83.0974 123.453 83.0345 124.694ZM34.0247 121.624C35.5579 129.587 40.6052 136.564 47.7209 140.267C49.3416 141.111 51.8093 141.989 53.6848 142.946C58.9238 145.623 63.4051 149.373 67.1287 154.196C68.4251 155.876 69.2699 155.973 71.0242 154.919C75.513 152.224 80.0014 149.528 84.4895 146.831C85.1822 146.415 85.5179 145.834 85.4964 145.089C85.4858 144.721 85.2834 144.117 84.8892 143.278C82.1631 137.493 80.8976 131.486 81.0928 125.258C81.1404 123.724 81.448 121.297 81.4204 119.42C81.2192 104.944 68.7706 93.0149 54.7752 93.8826C41.1525 94.7257 31.3051 107.494 34.0247 121.624Z" fill="#551AA6"/>
<path d="M39.4302 119.596C39.7988 122.413 40.7387 125.243 42.25 128.084C42.9857 129.472 41.0981 130.563 40.2928 129.141C35.8328 121.285 35.7107 111.218 40.9838 104.274C41.3154 103.84 41.7273 103.258 42.2496 103.141C42.9891 102.974 43.7844 103.809 43.6118 104.556C43.5677 104.747 43.4017 105.017 43.1137 105.365C39.9325 109.222 38.7571 114.468 39.4302 119.596Z" fill="#551AA6"/>
<path d="M25.6083 121.433L14.2135 122.533C13.6436 122.588 13.2509 123.112 13.3364 123.703L13.341 123.735C13.4264 124.326 13.9577 124.761 14.5276 124.706L25.9223 123.605C26.4922 123.55 26.8849 123.026 26.7995 122.435L26.7949 122.403C26.7094 121.812 26.1782 121.378 25.6083 121.433Z" fill="#551AA6"/>
<path d="M82.759 82.6998L76.1406 92.0146C75.8094 92.4806 75.9233 93.1565 76.395 93.5243L76.4204 93.5442C76.892 93.9119 77.5428 93.8323 77.8739 93.3663L84.4924 84.0515C84.8235 83.5855 84.7096 82.9096 84.238 82.5418L84.2125 82.5219C83.7409 82.1542 83.0902 82.2338 82.759 82.6998Z" fill="#551AA6"/>
<path d="M38.5143 145.148L31.9003 154.457C31.5692 154.923 31.6831 155.599 32.1547 155.967L32.1802 155.987C32.6518 156.354 33.3026 156.275 33.6337 155.809L40.2477 146.5C40.5788 146.034 40.4649 145.358 39.9933 144.99L39.9678 144.971C39.4962 144.603 38.8455 144.682 38.5143 145.148Z" fill="#551AA6"/>
<path d="M101.852 113.801L90.4616 114.901C89.8917 114.956 89.499 115.48 89.5844 116.071L89.589 116.103C89.6745 116.694 90.2057 117.129 90.7756 117.074L102.167 115.974C102.736 115.919 103.129 115.395 103.044 114.804L103.039 114.772C102.954 114.181 102.422 113.746 101.852 113.801Z" fill="#551AA6"/>
<path d="M71.2983 163.015C70.5564 161.762 70.8458 160.045 71.5829 159.026C71.885 158.607 72.5076 158.113 73.4505 157.545C77.453 155.132 81.4596 152.724 85.4705 150.32C87.0719 149.361 89.3131 149.817 90.4922 151.48C91.0257 152.234 90.6744 152.713 90.0716 153.204C85.0816 157.279 80.0848 161.345 75.0812 165.4C74.1646 166.143 73.5079 166.718 72.7128 165.388C72.2369 164.593 71.7654 163.802 71.2983 163.015Z" fill="#551AA6"/>
<path d="M90.2447 154.777L75.4553 167.022C74.7519 167.604 74.6726 168.691 75.2783 169.449L75.4101 169.615C76.0157 170.373 77.077 170.516 77.7804 169.933L92.5698 157.689C93.2732 157.106 93.3525 156.019 92.7468 155.261L92.615 155.096C92.0093 154.337 90.9481 154.195 90.2447 154.777Z" fill="#551AA6"/>
<path d="M92.8309 159.169L78.0637 171.442C77.363 172.024 77.2857 173.109 77.8912 173.864L78.0284 174.036C78.6339 174.791 79.6928 174.932 80.3935 174.349L95.1607 162.077C95.8614 161.495 95.9387 160.41 95.3332 159.654L95.196 159.483C94.5905 158.727 93.5316 158.587 92.8309 159.169Z" fill="#551AA6"/>
<path d="M95.5357 163.613L80.7493 175.855C80.0442 176.439 79.9648 177.528 80.5718 178.289L80.6986 178.447C81.3056 179.208 82.3693 179.351 83.0744 178.767L97.8608 166.525C98.5658 165.941 98.6453 164.851 98.0383 164.091L97.9115 163.932C97.3044 163.172 96.2408 163.029 95.5357 163.613Z" fill="#551AA6"/>
<path d="M89.3514 179.479C88.2736 180.124 87.108 179.923 86.2298 178.899C85.7283 178.313 85.9659 178.004 86.4495 177.604C89.4745 175.097 92.5061 172.572 95.5444 170.03C95.607 169.977 95.6803 169.94 95.7596 169.919C95.8389 169.899 95.9224 169.897 96.0047 169.912C96.0869 169.927 96.1661 169.96 96.2371 170.008C96.3081 170.056 96.3692 170.119 96.4166 170.191C97.7563 172.258 98.6833 173.867 96.2701 175.322C93.9634 176.71 91.6572 178.095 89.3514 179.479Z" fill="#551AA6"/>
</g>
<path d="M478.598 28.763H480.632V28.5723C480.378 28.2544 480.123 27.873 479.996 27.428C479.806 27.0465 479.742 26.6015 479.742 26.0929C479.742 24.6308 480.187 23.4865 481.204 22.66C482.221 21.8972 483.493 21.4521 485.146 21.4521C485.781 21.4521 486.353 21.5793 486.989 21.7064C487.625 21.8972 488.134 22.1514 488.642 22.5329C489.151 22.9143 489.532 23.3593 489.85 23.9315C490.168 24.5036 490.359 25.2029 490.422 25.9658H486.989C486.926 25.3936 486.735 24.9486 486.417 24.6308C486.036 24.3765 485.654 24.1858 485.146 24.1858C484.637 24.1858 484.256 24.3765 483.938 24.7579C483.556 25.1394 483.429 25.7115 483.429 26.4108C483.429 27.873 484.001 28.6358 485.209 28.763H490.549V31.6873H478.598V28.763ZM479.996 81.5282V36.0738H489.024V81.5282H479.996Z" fill="#551AA6"/>
<path d="M463.339 36.0742H472.366V43.5122H463.339V36.0742ZM452.341 81.5286C451.451 81.5286 451.006 81.3379 451.006 80.8293V74.917C451.006 74.5356 451.133 74.2813 451.387 74.1542C451.642 74.0906 451.959 74.027 452.341 74.027H463.275V54.4467H472.303V81.5286H452.341Z" fill="#551AA6"/>
<path d="M432.539 36.0742H439.85V43.3215H432.539V36.0742ZM421.731 36.0742H428.979V43.3215H421.731V36.0742ZM411.433 81.5286C410.543 81.5286 410.098 81.3379 410.098 80.8293V74.917C410.098 74.5356 410.225 74.2813 410.479 74.1542C410.733 74.0906 411.051 74.027 411.433 74.027H418.68V73.7727C417.663 72.8827 416.836 71.7384 416.137 70.3398C415.438 68.9412 415.12 67.4791 415.12 65.9533C415.12 63.4104 415.501 61.1854 416.328 59.2782C417.154 57.371 418.298 55.7181 419.824 54.3831C421.286 53.0481 423.003 52.0309 425.037 51.3316C427.072 50.6959 429.233 50.3145 431.649 50.3145C434.001 50.3145 436.226 50.6323 438.26 51.2681C440.295 51.9038 442.011 52.9209 443.537 54.1924C445.063 55.5274 446.207 57.1803 447.097 59.0875C447.987 61.0582 448.432 63.3468 448.432 65.9533C448.432 67.4155 448.05 68.8777 447.351 70.2762C446.588 71.7384 445.762 72.8827 444.808 73.7727V74.027H452.373C452.691 74.027 453.009 74.0906 453.263 74.1542C453.518 74.2813 453.708 74.5356 453.708 74.917V80.8293C453.708 81.3379 453.263 81.5286 452.373 81.5286H411.433ZM431.649 74.4085C434.065 74.4085 435.908 73.6456 437.18 72.0563C438.387 70.5305 439.023 68.4962 439.023 65.9533C439.023 64.809 438.832 63.6647 438.515 62.6475C438.197 61.6304 437.752 60.6768 437.116 59.9139C436.48 59.1511 435.717 58.5153 434.827 58.0703C433.937 57.6253 432.857 57.371 431.649 57.371C430.377 57.371 429.297 57.6253 428.407 58.0703C427.517 58.5153 426.754 59.1511 426.118 59.9139C425.482 60.6768 425.037 61.6304 424.719 62.6475C424.401 63.6647 424.274 64.809 424.274 65.9533C424.274 68.4962 424.846 70.5305 426.118 72.0563C427.326 73.6456 429.169 74.4085 431.649 74.4085Z" fill="#551AA6"/>
<path d="M381.476 96.6589C377.153 96.6589 373.721 96.0231 371.051 94.6881C368.38 93.4167 366.283 91.5731 364.757 89.1573C363.231 86.8051 362.214 83.9443 361.705 80.6386C361.133 77.3328 360.879 73.7092 360.879 69.6405H369.016C369.016 73.4549 369.207 76.6335 369.715 79.1128C370.224 81.6557 370.987 83.6265 372.004 85.1522C373.021 86.678 374.293 87.6951 375.882 88.3309C377.471 88.9666 379.379 89.2209 381.667 89.2209C383.829 89.2209 385.736 88.9666 387.389 88.3309C388.978 87.6951 390.313 86.678 391.33 85.1522C392.347 83.6265 393.047 81.6557 393.555 79.1128C394.064 76.6335 394.318 73.4549 394.318 69.6405V36.0742H403.345V68.1784C403.345 69.3227 403.536 70.2127 403.918 70.9755C404.299 71.7384 404.871 72.3106 405.507 72.7556C406.143 73.2006 406.905 73.5185 407.732 73.7092C408.495 73.9635 409.321 74.027 410.084 74.027H411.419C411.737 74.027 412.055 74.0906 412.309 74.1542C412.563 74.2813 412.754 74.5356 412.754 74.917V80.8293C412.754 81.3379 412.309 81.5286 411.419 81.5286H410.084C409.448 81.5286 408.749 81.465 408.05 81.2107C407.287 81.02 406.651 80.7021 406.015 80.2571C405.38 79.8757 404.808 79.3671 404.299 78.795C403.79 78.2228 403.536 77.5871 403.409 76.8242H403.155C402.773 80.13 402.137 82.9908 401.184 85.4701C400.167 87.9494 398.832 89.9837 397.115 91.6366C395.399 93.2895 393.237 94.561 390.694 95.3874C388.088 96.2774 385.036 96.6589 381.476 96.6589Z" fill="#551AA6"/>
<path d="M321.408 28.763H323.443V28.5723C323.188 28.2544 322.934 27.873 322.807 27.428C322.616 27.0465 322.553 26.6015 322.553 26.0929C322.553 24.6308 322.998 23.4865 324.015 22.66C325.032 21.8972 326.303 21.4521 327.956 21.4521C328.592 21.4521 329.164 21.5793 329.8 21.7064C330.436 21.8972 330.944 22.1514 331.453 22.5329C331.961 22.9143 332.343 23.3593 332.661 23.9315C332.978 24.5036 333.169 25.2029 333.233 25.9658H329.8C329.736 25.3936 329.545 24.9486 329.228 24.6308C328.846 24.3765 328.465 24.1858 327.956 24.1858C327.448 24.1858 327.066 24.3765 326.748 24.7579C326.367 25.1394 326.24 25.7115 326.24 26.4108C326.24 27.873 326.812 28.6358 328.02 28.763H333.36V31.6873H321.408V28.763ZM322.807 81.5282V36.0738H331.834V81.5282H322.807Z" fill="#F9F9F9"/>
<path d="M295.164 36.0742H304.191V43.5122H295.164V36.0742ZM292.366 65.9533C292.366 68.4962 292.939 70.5305 294.21 72.0563C295.418 73.6456 297.261 74.4085 299.741 74.4085C300.949 74.4085 302.029 74.2177 302.919 73.7727C303.809 73.3277 304.572 72.692 305.208 71.9291C305.844 71.1663 306.289 70.2762 306.607 69.2591C306.925 68.2419 307.115 67.1612 307.115 65.9533C307.115 64.809 306.925 63.6647 306.607 62.6475C306.289 61.6304 305.844 60.6768 305.208 59.9139C304.572 59.1511 303.809 58.5153 302.919 58.0703C302.029 57.6253 300.949 57.371 299.741 57.371C298.469 57.371 297.389 57.6253 296.499 58.0703C295.609 58.5153 294.846 59.1511 294.21 59.9139C293.574 60.6768 293.129 61.6304 292.811 62.6475C292.494 63.6647 292.366 64.809 292.366 65.9533ZM286.772 74.027V73.7727C285.755 72.8827 284.928 71.7384 284.229 70.3398C283.53 68.9412 283.212 67.4791 283.212 65.9533C283.212 63.4104 283.593 61.1854 284.42 59.2782C285.246 57.371 286.391 55.7181 287.916 54.3831C289.378 53.0481 291.095 52.0309 293.129 51.3316C295.164 50.6959 297.325 50.3145 299.741 50.3145C302.093 50.3145 304.318 50.6323 306.352 51.2681C308.387 51.9038 310.103 52.9209 311.629 54.1924C313.155 55.5274 314.299 57.1803 315.189 59.0875C316.079 61.0582 316.524 63.3468 316.524 65.9533C316.524 68.6234 316.079 70.912 315.189 72.8192C314.299 74.7899 313.155 76.4428 311.629 77.7142C310.103 78.9857 308.387 79.9393 306.352 80.575C304.318 81.2107 302.093 81.5286 299.741 81.5286H278.698C277.808 81.5286 277.363 81.3379 277.363 80.8293V74.917C277.363 74.5356 277.49 74.2813 277.745 74.1542C277.999 74.0906 278.317 74.027 278.698 74.027H286.772Z" fill="#F9F9F9"/>
<path d="M261.595 74.027V68.1148C261.595 64.7454 260.896 62.2661 259.624 60.7404C258.289 59.2146 256.382 58.4518 253.966 58.4518H234.004V51.3952L249.262 36.0742H258.861L243.795 51.3952H253.903C259.751 51.3952 264.011 52.7938 266.681 55.5274C269.287 58.3246 270.622 62.2661 270.622 67.4791V68.4962C270.622 69.5134 270.876 70.4034 271.321 71.1027C271.703 71.802 272.275 72.3741 272.911 72.8192C273.547 73.2642 274.246 73.582 275.009 73.7727C275.772 73.9635 276.598 74.027 277.361 74.027H278.696C279.014 74.027 279.332 74.0906 279.586 74.1542C279.84 74.2813 280.031 74.5356 280.031 74.917V80.8293C280.031 81.3379 279.586 81.5286 278.696 81.5286H277.361C276.725 81.5286 276.089 81.465 275.454 81.2743C274.818 81.0836 274.182 80.8293 273.547 80.4479C272.911 80.13 272.402 79.7486 271.894 79.24C271.385 78.7314 271.067 78.1592 270.813 77.5235H270.559C270.431 78.0321 270.304 78.6678 270.05 79.4307C269.796 80.2571 269.414 80.9564 269.033 81.5286H231.144C230.254 81.5286 229.809 81.3379 229.809 80.8293V74.917C229.809 74.5356 229.936 74.2813 230.19 74.1542C230.444 74.0906 230.762 74.027 231.144 74.027H261.595Z" fill="#F9F9F9"/>
<path d="M220.28 81.5279C219.39 81.5279 218.945 81.3372 218.945 80.8286V74.9164C218.945 74.535 219.072 74.2807 219.327 74.1535C219.581 74.0899 219.899 74.0264 220.28 74.0264H231.151C232.041 74.0264 232.55 74.2807 232.55 74.7257V80.6379C232.55 81.0829 232.359 81.3372 232.105 81.4008C231.851 81.5279 231.533 81.5279 231.151 81.5279H220.28Z" fill="#F9F9F9"/>
<path d="M220.253 74.027C220.571 74.027 220.889 74.0906 221.143 74.1542C221.397 74.2813 221.588 74.5356 221.588 74.917V80.8293C221.588 81.3379 221.143 81.5286 220.253 81.5286H206.648V36.0742H215.676V74.027H220.253Z" fill="#F9F9F9"/>
<path d="M199.039 54.4473V80.512C199.039 82.9278 198.785 85.1528 198.404 87.1236C198.022 89.0943 197.323 90.8108 196.433 92.2094C195.543 93.608 194.335 94.7523 192.809 95.5151C191.283 96.278 189.376 96.6594 187.088 96.6594C186.07 96.6594 185.117 96.5959 184.1 96.4051C183.083 96.278 182.193 96.0237 181.43 95.6423V89.0943C181.938 89.4757 182.447 89.6665 183.083 89.7936C183.655 89.9207 184.29 89.9207 185.053 89.9207C186.833 89.9207 188.105 89.1579 188.868 87.6321C189.567 86.1064 189.948 83.6906 189.948 80.512V54.4473H199.039Z" fill="#F9F9F9"/>
<path d="M167.895 74.027V36.0742H176.986V81.5286H146.98C145.136 81.5286 143.483 81.2743 141.958 80.6386C140.432 80.0664 139.097 79.1764 138.016 77.9685C136.872 76.7606 136.045 75.2349 135.41 73.3913C134.774 71.6113 134.52 69.4498 134.52 66.9069V62.584H142.466V65.8897C142.466 67.1612 142.53 68.3055 142.72 69.3227C142.911 70.3398 143.229 71.1663 143.738 71.8656C144.246 72.5649 144.882 73.0734 145.708 73.4549C146.535 73.8363 147.552 74.027 148.823 74.027H167.895ZM148.95 59.9139H150.985V59.7232C150.349 59.0239 150.095 58.1975 150.095 57.2439C150.095 55.7817 150.54 54.6374 151.557 53.811C152.574 53.0481 153.846 52.6031 155.498 52.6031C156.134 52.6031 156.706 52.7302 157.342 52.8574C157.978 53.0481 158.486 53.3024 158.995 53.6838C159.504 54.0653 159.885 54.5103 160.203 55.0824C160.521 55.6546 160.711 56.3539 160.775 57.1167H157.342C157.279 56.5446 157.088 56.0996 156.77 55.7817C156.388 55.5274 156.007 55.3367 155.498 55.3367C154.99 55.3367 154.608 55.5274 154.291 55.9089C153.909 56.2903 153.782 56.8624 153.782 57.5617C153.782 58.3246 153.909 58.8968 154.227 59.2782C154.545 59.7232 155.117 59.9139 155.88 59.9139H160.902V62.8383H148.95V59.9139Z" fill="#F9F9F9"/>
<path d="M477.76 15.9L476.915 12.78L490.11 9.27L490.89 12.39L477.76 15.9Z" fill="#551AA6"/>
<path d="M376.76 212.9L375.915 209.78L389.11 206.27L389.89 209.39L376.76 212.9Z" fill="#551AA6"/>
<defs>
<clipPath id="clip0_309_1611">
<rect width="82.854" height="111.876" fill="white" transform="translate(0 102.685) rotate(-31)"/>
</clipPath>
</defs>
</svg>
