<svg width="821" height="103" viewBox="0 0 821 103" fill="none" xmlns="http://www.w3.org/2000/svg">
<g clip-path="url(#clip0_234_1894)">
<mask id="mask0_234_1894" style="mask-type:luminance" maskUnits="userSpaceOnUse" x="0" y="0" width="821" height="103">
<path d="M821 0H0V103H821V0Z" fill="white"/>
</mask>
<g mask="url(#mask0_234_1894)">
<mask id="mask1_234_1894" style="mask-type:luminance" maskUnits="userSpaceOnUse" x="406" y="15" width="84" height="84">
<path d="M490.001 56.6782L448.323 15L406.002 57.3215L447.68 98.9998L490.001 56.6782Z" fill="white"/>
</mask>
<g mask="url(#mask1_234_1894)">
<path d="M429.809 61.9821L429.883 57.1346L429.932 52.2536L485.041 51.8291C485.053 51.8294 485.065 51.8342 485.073 51.8425C485.081 51.8509 485.086 51.8621 485.086 51.8739L485.011 61.6167C485.011 61.6234 485.009 61.6301 485.007 61.6364C485.004 61.6426 485 61.6483 484.995 61.6532C484.991 61.658 484.985 61.6619 484.978 61.6646C484.972 61.6672 484.965 61.6687 484.958 61.6688L430.001 62.0881C429.965 62.0884 429.93 62.0768 429.902 62.0552L429.809 61.9821Z" fill="#551AA6"/>
<path d="M429.932 52.2532L429.883 57.1342L422.797 57.2163C422.757 57.2051 422.737 57.1829 422.737 57.1495C422.645 54.1948 418.429 54.1959 418.234 57.2365L406.124 57.3137C406.118 57.3137 406.114 57.317 406.113 57.3236C406.113 57.3269 406.112 57.3302 406.111 57.3334C406.091 57.3309 406.08 57.3252 406.077 57.3165C406.073 57.3029 406.073 57.289 406.076 57.2766C406.079 57.2642 406.085 57.254 406.094 57.2474L420.523 46.7778C420.532 46.7717 420.542 46.7681 420.552 46.7676C420.563 46.7671 420.573 46.7697 420.582 46.7749L429.932 52.2532Z" fill="#430995"/>
<path d="M429.881 57.1348L429.807 61.9823L420.446 67.5596C420.41 67.5812 420.376 67.5795 420.342 67.5546L406.109 57.3341C406.11 57.3308 406.111 57.3275 406.111 57.3242C406.112 57.3177 406.116 57.3143 406.122 57.3143L418.233 57.2371C418.423 60.0697 422.357 60.1511 422.721 57.384C422.726 57.3463 422.738 57.3112 422.758 57.2788L422.795 57.217L429.881 57.1348Z" fill="#381668"/>
<path d="M422.797 57.216L422.759 57.2778C422.74 57.3102 422.728 57.3453 422.722 57.383C422.358 60.1501 418.425 60.0687 418.234 57.2361C418.429 54.1956 422.645 54.1945 422.736 57.1492C422.737 57.1825 422.757 57.2048 422.797 57.216Z" fill="white"/>
</g>
<path d="M297 10H154V90H297V10Z" fill="#551AA6"/>
<path d="M38.124 39.0146C40.8487 39.0146 43.126 39.6653 44.956 40.9666C46.8267 42.2679 48.3314 43.8946 49.47 45.8466C50.6087 47.7579 51.4424 49.8523 51.971 52.1296C52.4997 54.3663 52.8454 56.4403 53.008 58.3516H58.071V65.0006H46.42C46.42 61.6659 46.2574 58.8599 45.932 56.5826C45.6067 54.2646 45.1797 52.3533 44.651 50.8486C44.1224 49.3439 43.5327 48.2053 42.882 47.4326C42.2314 46.6193 41.5604 46.0296 40.869 45.6636C40.2184 45.2976 39.6084 45.0943 39.039 45.0536C38.4697 44.9723 37.9817 44.9316 37.575 44.9316C36.233 44.9316 35.013 45.1349 33.915 45.5416C32.8577 45.9483 31.9427 46.4769 31.17 47.1276C30.438 47.7783 29.8484 48.5103 29.401 49.3236C28.9944 50.1369 28.791 50.9503 28.791 51.7636C28.791 52.1703 28.8724 52.6176 29.035 53.1056C29.2384 53.5936 29.6654 53.8376 30.316 53.8376H36.416C37.026 53.8376 37.5954 53.9393 38.124 54.1426C38.6527 54.3053 39.1 54.6306 39.466 55.1186C39.8727 55.6066 40.1777 56.2573 40.381 57.0706C40.625 57.8839 40.747 58.9006 40.747 60.1206C40.747 65.6106 39.0797 69.6163 35.745 72.1376C32.451 74.6996 27.1847 75.9806 19.946 75.9806C17.262 75.9806 14.8424 75.5943 12.687 74.8216C10.5317 74.0489 8.70167 73.0323 7.197 71.7716C5.69234 70.5516 4.53334 69.1689 3.72 67.6236C2.90667 66.1189 2.5 64.6143 2.5 63.1096C2.5 60.8323 2.70334 58.8803 3.11 57.2536C3.55734 55.5863 4.06567 54.1629 4.635 52.9836C5.245 51.8043 5.87534 50.7876 6.526 49.9336C7.17667 49.0389 7.72567 48.2053 8.173 47.4326H12.87C11.8127 49.1813 10.8977 51.1943 10.125 53.4716C9.35234 55.7489 8.966 57.9449 8.966 60.0596C8.966 61.1576 9.18967 62.2353 9.637 63.2926C10.125 64.3499 10.8164 65.2853 11.711 66.0986C12.6464 66.9526 13.7647 67.6236 15.066 68.1116C16.408 68.6403 17.933 68.9046 19.641 68.9046C22.8537 68.9046 25.314 68.7623 27.022 68.4776C28.73 68.1929 29.9907 67.7659 30.804 67.1966C31.658 66.6273 32.207 65.8953 32.451 65.0006C32.7357 64.0653 33.0407 62.9673 33.366 61.7066C33.4067 61.5846 33.427 61.4219 33.427 61.2186C33.427 60.7306 33.1017 60.4866 32.451 60.4866H29.34C27.754 60.4866 26.4324 60.3849 25.375 60.1816C24.3584 59.9376 23.545 59.5919 22.935 59.1446C22.325 58.6566 21.898 58.0873 21.654 57.4366C21.41 56.7453 21.288 55.9726 21.288 55.1186C21.288 53.5326 21.6134 51.8043 22.264 49.9336C22.9147 48.0223 23.9314 46.2736 25.314 44.6876C26.6967 43.0609 28.4454 41.7189 30.56 40.6616C32.6747 39.5636 35.196 39.0146 38.124 39.0146ZM10.43 83.6056C10.43 82.3043 10.8774 81.1859 11.772 80.2506C12.7074 79.3559 13.8257 78.9086 15.127 78.9086C16.3877 78.9086 17.445 79.3559 18.299 80.2506C19.1937 81.1859 19.641 82.3043 19.641 83.6056C19.641 84.8663 19.1937 85.9236 18.299 86.7776C17.445 87.6723 16.3877 88.1196 15.127 88.1196C13.8257 88.1196 12.7074 87.6723 11.772 86.7776C10.8774 85.9236 10.43 84.8663 10.43 83.6056ZM22.508 83.6056C22.508 82.3043 22.9554 81.1859 23.85 80.2506C24.7854 79.3559 25.9037 78.9086 27.205 78.9086C28.4657 78.9086 29.523 79.3559 30.377 80.2506C31.2717 81.1859 31.719 82.3043 31.719 83.6056C31.719 84.8663 31.2717 85.9236 30.377 86.7776C29.523 87.6723 28.4657 88.1196 27.205 88.1196C25.9037 88.1196 24.7854 87.6723 23.85 86.7776C22.9554 85.9236 22.508 84.8663 22.508 83.6056ZM79.3467 68.7216C78.818 68.7216 78.2487 68.5793 77.6387 68.2946C76.4187 67.8066 74.7513 67.0543 72.6367 66.0376C70.5627 65.0209 68.0413 63.7603 65.0727 62.2556C64.3813 63.4756 63.5883 64.2686 62.6937 64.6346C62.0023 64.8786 60.8637 65.0006 59.2777 65.0006H55.3127V58.3516H59.8267C61.0467 55.5456 62.3277 53.0039 63.6697 50.7266C65.0117 48.4086 66.3333 46.4566 67.6347 44.8706C68.9767 43.2439 70.2577 41.9833 71.4777 41.0886C72.7383 40.1939 73.8973 39.7466 74.9547 39.7466C77.6387 39.7466 79.8753 41.6579 81.6647 45.4806C82.1933 46.6193 82.722 48.0629 83.2507 49.8116C83.7793 51.5196 84.3487 53.5936 84.9587 56.0336C85.1213 56.9283 85.2433 57.7009 85.3247 58.3516H91.6077V65.0006H83.3117C81.929 67.4813 80.6073 68.7216 79.3467 68.7216ZM78.5537 60.7306C78.0657 57.0706 77.415 54.1223 76.6017 51.8856C75.829 49.6083 74.853 48.4696 73.6737 48.4696C73.267 48.4696 72.5553 48.9373 71.5387 49.8726C70.9287 50.4826 70.278 51.3366 69.5867 52.4346C68.936 53.4919 68.387 54.4476 67.9397 55.3016C69.6477 56.6029 71.4167 57.7213 73.2467 58.6566C75.0767 59.5513 76.8457 60.2426 78.5537 60.7306ZM121.092 58.5956C121.092 62.8656 119.547 65.0006 116.456 65.0006H89.9826V58.3516H101.877C101.186 57.9856 100.515 57.5179 99.8644 56.9486C99.2546 56.3386 98.7056 55.6676 98.2176 54.9356C97.7296 54.2036 97.3229 53.4309 96.9976 52.6176C96.7129 51.8043 96.5706 50.9909 96.5706 50.1776C96.5706 46.1923 97.7093 43.1219 99.9864 40.9666C102.263 38.7706 105.639 37.6726 110.112 37.6726C112.186 37.6726 113.894 38.0386 115.236 38.7706C116.578 39.4619 117.656 40.3973 118.469 41.5766C119.282 42.7153 119.872 44.0369 120.238 45.5416C120.645 47.0056 120.909 48.5306 121.031 50.1166C121.153 51.6619 121.194 53.1869 121.153 54.6916C121.112 56.1556 121.092 57.4569 121.092 58.5956ZM114.321 57.3756C114.321 55.1389 114.26 53.1666 114.138 51.4586C114.057 49.7506 113.833 48.3273 113.467 47.1886C113.101 46.0093 112.552 45.1349 111.82 44.5656C111.088 43.9963 110.071 43.7116 108.77 43.7116C107.591 43.7116 106.635 43.8946 105.903 44.2606C105.212 44.6266 104.683 45.0739 104.317 45.6026C103.951 46.0906 103.707 46.6396 103.585 47.2496C103.463 47.8596 103.402 48.4086 103.402 48.8966C103.402 49.7099 103.646 50.6046 104.134 51.5806C104.622 52.5159 105.313 53.3903 106.208 54.2036C107.143 55.0169 108.282 55.7286 109.624 56.3386C111.007 56.9079 112.572 57.2536 114.321 57.3756ZM97.0586 30.4136C97.0586 29.1123 97.5059 28.0143 98.4006 27.1196C99.3359 26.1843 100.454 25.7166 101.755 25.7166C103.016 25.7166 104.073 26.1843 104.927 27.1196C105.822 28.0143 106.269 29.1123 106.269 30.4136C106.269 31.6743 105.822 32.7519 104.927 33.6466C104.073 34.5006 103.016 34.9276 101.755 34.9276C100.454 34.9276 99.3359 34.5006 98.4006 33.6466C97.5059 32.7519 97.0586 31.6743 97.0586 30.4136ZM109.136 30.4136C109.136 29.1123 109.583 28.0143 110.478 27.1196C111.413 26.1843 112.532 25.7166 113.833 25.7166C115.094 25.7166 116.151 26.1843 117.005 27.1196C117.9 28.0143 118.347 29.1123 118.347 30.4136C118.347 31.6743 117.9 32.7519 117.005 33.6466C116.151 34.5006 115.094 34.9276 113.833 34.9276C112.532 34.9276 111.413 34.5006 110.478 33.6466C109.583 32.7519 109.136 31.6743 109.136 30.4136ZM138.604 38.3436C139.418 42.8983 139.967 47.3513 140.251 51.7026C140.536 56.0133 140.678 59.8563 140.678 63.2316C140.678 63.5163 140.658 64.1059 140.617 65.0006C140.577 65.8953 140.414 66.9119 140.129 68.0506C139.845 69.2299 139.357 70.4499 138.665 71.7106C138.015 73.0119 137.059 74.1913 135.798 75.2486C134.538 76.3466 132.911 77.2413 130.918 77.9326C128.966 78.6239 126.526 78.9696 123.598 78.9696L122.195 74.5776C124.269 74.4149 126.12 73.9269 127.746 73.1136C128.438 72.7476 129.109 72.3003 129.759 71.7716C130.451 71.2429 131.061 70.5923 131.589 69.8196C132.118 69.0876 132.545 68.1929 132.87 67.1356C133.196 66.1189 133.358 64.9396 133.358 63.5976C133.358 59.8969 133.257 56.1149 133.053 52.2516C132.891 48.3476 132.301 44.5046 131.284 40.7226L138.604 38.3436ZM338.179 39.0146C340.904 39.0146 343.181 39.6653 345.011 40.9666C346.882 42.2679 348.387 43.8946 349.525 45.8466C350.664 47.7579 351.498 49.8523 352.026 52.1296C352.555 54.3663 352.901 56.4403 353.063 58.3516H358.126V65.0006H346.475C346.475 61.6659 346.313 58.8599 345.987 56.5826C345.662 54.2646 345.235 52.3533 344.706 50.8486C344.178 49.3439 343.588 48.2053 342.937 47.4326C342.287 46.6193 341.616 46.0296 340.924 45.6636C340.274 45.2976 339.664 45.0943 339.094 45.0536C338.525 44.9723 338.037 44.9316 337.63 44.9316C336.288 44.9316 335.068 45.1349 333.97 45.5416C332.913 45.9483 331.998 46.4769 331.225 47.1276C330.493 47.7783 329.904 48.5103 329.456 49.3236C329.05 50.1369 328.846 50.9503 328.846 51.7636C328.846 52.1703 328.928 52.6176 329.09 53.1056C329.294 53.5936 329.721 53.8376 330.371 53.8376H336.471C337.081 53.8376 337.651 53.9393 338.179 54.1426C338.708 54.3053 339.155 54.6306 339.521 55.1186C339.928 55.6066 340.233 56.2573 340.436 57.0706C340.68 57.8839 340.802 58.9006 340.802 60.1206C340.802 65.6106 339.135 69.6163 335.8 72.1376C332.506 74.6996 327.24 75.9806 320.001 75.9806C317.317 75.9806 314.898 75.5943 312.742 74.8216C310.587 74.0489 308.757 73.0323 307.252 71.7716C305.748 70.5516 304.589 69.1689 303.775 67.6236C302.962 66.1189 302.555 64.6143 302.555 63.1096C302.555 60.8323 302.759 58.8803 303.165 57.2536C303.613 55.5863 304.121 54.1629 304.69 52.9836C305.3 51.8043 305.931 50.7876 306.581 49.9336C307.232 49.0389 307.781 48.2053 308.228 47.4326H312.925C311.868 49.1813 310.953 51.1943 310.18 53.4716C309.408 55.7489 309.021 57.9449 309.021 60.0596C309.021 61.1576 309.245 62.2353 309.692 63.2926C310.18 64.3499 310.872 65.2853 311.766 66.0986C312.702 66.9526 313.82 67.6236 315.121 68.1116C316.463 68.6403 317.988 68.9046 319.696 68.9046C322.909 68.9046 325.369 68.7623 327.077 68.4776C328.785 68.1929 330.046 67.7659 330.859 67.1966C331.713 66.6273 332.262 65.8953 332.506 65.0006C332.791 64.0653 333.096 62.9673 333.421 61.7066C333.462 61.5846 333.482 61.4219 333.482 61.2186C333.482 60.7306 333.157 60.4866 332.506 60.4866H329.395C327.809 60.4866 326.488 60.3849 325.43 60.1816C324.414 59.9376 323.6 59.5919 322.99 59.1446C322.38 58.6566 321.953 58.0873 321.709 57.4366C321.465 56.7453 321.343 55.9726 321.343 55.1186C321.343 53.5326 321.669 51.8043 322.319 49.9336C322.97 48.0223 323.987 46.2736 325.369 44.6876C326.752 43.0609 328.501 41.7189 330.615 40.6616C332.73 39.5636 335.251 39.0146 338.179 39.0146ZM355.368 58.3516H363.481V25.8386L371.228 23.6426V65.0006H355.368V58.3516ZM386.099 23.6426V65.0006H378.352V25.8386L386.099 23.6426ZM388.722 82.5686L374.081 86.8996V83.0566L378.108 81.8366C377.66 81.7553 377.254 81.5519 376.888 81.2266C376.562 80.9419 376.278 80.5759 376.034 80.1286C375.79 79.7219 375.586 79.2746 375.424 78.7866C375.302 78.2986 375.241 77.8716 375.241 77.5056C375.241 76.2449 375.525 75.1063 376.095 74.0896C376.664 73.1136 377.376 72.2596 378.23 71.5276C379.124 70.8363 380.08 70.3076 381.097 69.9416C382.113 69.5756 383.069 69.3926 383.964 69.3926C384.899 69.3926 385.794 69.5349 386.648 69.8196C387.502 70.1449 388.335 70.8363 389.149 71.8936C388.742 72.2189 388.234 72.6256 387.624 73.1136C387.054 73.6016 386.363 74.1913 385.55 74.8826C384.818 74.1099 383.903 73.7236 382.805 73.7236C381.747 73.7236 380.995 74.0083 380.548 74.5776C380.1 75.1469 379.877 75.7163 379.877 76.2856C379.877 76.8143 380.019 77.3023 380.304 77.7496C380.629 78.1969 381.015 78.5629 381.463 78.8476C381.91 79.1729 382.378 79.4169 382.866 79.5796C383.354 79.7829 383.781 79.9049 384.147 79.9456L388.722 78.6036V82.5686ZM727.323 65.0006C726.388 69.9619 724.436 73.5203 721.467 75.6756C718.499 77.8716 714.493 78.9696 709.45 78.9696C706.766 78.9696 704.387 78.5833 702.313 77.8106C700.28 77.0379 698.552 76.0213 697.128 74.7606C695.746 73.5406 694.688 72.1579 693.956 70.6126C693.265 69.1079 692.919 67.6033 692.919 66.0986C692.919 63.8213 693.123 61.8693 693.529 60.2426C693.977 58.5753 694.485 57.1519 695.054 55.9726C695.664 54.7933 696.295 53.7766 696.945 52.9226C697.596 52.0279 698.145 51.1943 698.592 50.4216H703.289C702.232 52.1703 701.317 54.1833 700.544 56.4606C699.772 58.7379 699.385 60.9339 699.385 63.0486C699.385 64.1466 699.568 65.2243 699.934 66.2816C700.3 67.3389 700.87 68.2743 701.642 69.0876C702.456 69.9416 703.472 70.6126 704.692 71.1006C705.953 71.6293 707.437 71.8936 709.145 71.8936C712.399 71.8936 715.022 71.1006 717.014 69.5146C719.048 67.9693 720.064 65.5903 720.064 62.3776V25.8386L727.811 23.6426V58.3516H733.972V65.0006H727.323ZM749.901 43.7116C748.437 43.7116 747.258 43.8946 746.363 44.2606C745.509 44.6266 744.838 45.0739 744.35 45.6026C743.903 46.0906 743.598 46.6396 743.435 47.2496C743.313 47.8596 743.252 48.4086 743.252 48.8966C743.252 49.5066 743.333 50.2183 743.496 51.0316C743.659 51.8449 743.964 52.6583 744.411 53.4716C744.899 54.2849 745.57 55.0576 746.424 55.7896C747.319 56.4809 748.478 57.0299 749.901 57.4366C751.324 57.0706 752.483 56.5419 753.378 55.8506C754.273 55.1186 754.964 54.3459 755.452 53.5326C755.94 52.7193 756.265 51.9059 756.428 51.0926C756.591 50.2386 756.672 49.5066 756.672 48.8966C756.672 48.4086 756.611 47.8596 756.489 47.2496C756.367 46.6396 756.062 46.0906 755.574 45.6026C755.127 45.0739 754.456 44.6266 753.561 44.2606C752.666 43.8946 751.446 43.7116 749.901 43.7116ZM732.15 65.0006V58.3516H740.873C739.531 57.5789 738.453 56.4403 737.64 54.9356C736.827 53.4309 736.42 51.8449 736.42 50.1776C736.42 48.1849 736.745 46.4159 737.396 44.8706C738.047 43.3253 738.962 42.0239 740.141 40.9666C741.32 39.9093 742.744 39.0959 744.411 38.5266C746.078 37.9573 747.929 37.6726 749.962 37.6726C754.191 37.6726 757.506 38.7706 759.905 40.9666C762.304 43.1219 763.504 46.1923 763.504 50.1776C763.504 51.8449 763.118 53.4309 762.345 54.9356C761.613 56.4403 760.576 57.5789 759.234 58.3516H770.031V65.0006H754.415H745.448H732.15ZM739.043 30.4136C739.043 29.1123 739.49 28.0143 740.385 27.1196C741.32 26.1843 742.439 25.7166 743.74 25.7166C745.001 25.7166 746.058 26.1843 746.912 27.1196C747.807 28.0143 748.254 29.1123 748.254 30.4136C748.254 31.6743 747.807 32.7519 746.912 33.6466C746.058 34.5006 745.001 34.9276 743.74 34.9276C742.439 34.9276 741.32 34.5006 740.385 33.6466C739.49 32.7519 739.043 31.6743 739.043 30.4136ZM751.121 30.4136C751.121 29.1123 751.568 28.0143 752.463 27.1196C753.398 26.1843 754.517 25.7166 755.818 25.7166C757.079 25.7166 758.136 26.1843 758.99 27.1196C759.885 28.0143 760.332 29.1123 760.332 30.4136C760.332 31.6743 759.885 32.7519 758.99 33.6466C758.136 34.5006 757.079 34.9276 755.818 34.9276C754.517 34.9276 753.398 34.5006 752.463 33.6466C751.568 32.7519 751.121 31.6743 751.121 30.4136ZM768.19 58.3516H779.658V40.4786L787.405 38.2826V58.3516V58.3716V65.0006H768.19V58.3516ZM778.499 30.4136C778.499 29.1123 778.946 28.0143 779.841 27.1196C780.776 26.1843 781.895 25.7166 783.196 25.7166C784.457 25.7166 785.514 26.1843 786.368 27.1196C787.263 28.0143 787.71 29.1123 787.71 30.4136C787.71 31.6743 787.263 32.7519 786.368 33.6466C785.514 34.5006 784.457 34.9276 783.196 34.9276C781.895 34.9276 780.776 34.5006 779.841 33.6466C778.946 32.7519 778.499 31.6743 778.499 30.4136Z" fill="#551AA6"/>
<path d="M174.974 63.6586C178.878 61.5846 184.47 59.9579 191.749 58.7786L191.688 52.1296C190.672 52.3329 189.594 52.5363 188.455 52.7396C187.317 52.9429 186.178 53.1869 185.039 53.4716C183.941 53.7156 182.884 54.0003 181.867 54.3256C180.851 54.6103 179.976 54.9356 179.244 55.3016C178.634 55.3016 177.923 55.1796 177.109 54.9356C176.296 54.6916 175.503 54.3053 174.73 53.7766C173.998 53.2073 173.368 52.4753 172.839 51.5806C172.311 50.6859 172.046 49.5676 172.046 48.2256C172.046 46.7209 172.555 45.5823 173.571 44.8096C174.588 43.9963 175.828 43.4676 177.292 43.2236C178.756 42.9389 180.281 42.8779 181.867 43.0406C183.453 43.1626 184.836 43.4066 186.015 43.7726L185.893 38.5876C183.331 37.6523 180.81 37.1846 178.329 37.1846C176.296 37.1846 174.446 37.4896 172.778 38.0996C171.152 38.6689 169.749 39.5026 168.569 40.6006C167.431 41.6579 166.536 42.9389 165.885 44.4436C165.275 45.9483 164.97 47.5953 164.97 49.3846C164.97 51.6619 165.458 53.6343 166.434 55.3016C167.41 56.9283 169.078 58.2296 171.436 59.2056C170.094 59.8563 168.834 60.6493 167.654 61.5846C166.516 62.4793 165.499 63.4756 164.604 64.5736C163.75 65.6716 163.079 66.8509 162.591 68.1116C162.103 69.4129 161.859 70.7549 161.859 72.1376C161.859 74.6183 162.49 76.7329 163.75 78.4816C165.011 80.2303 166.597 81.6536 168.508 82.7516C170.46 83.8496 172.575 84.6426 174.852 85.1306C177.13 85.6593 179.285 85.9236 181.318 85.9236C184.694 85.9236 188.232 85.4763 191.932 84.5816L191.993 78.2986C190.692 78.4613 189.452 78.5629 188.272 78.6036C187.093 78.6849 185.975 78.7256 184.917 78.7256C181.542 78.7256 178.817 78.5019 176.743 78.0546C174.71 77.6479 173.124 77.0583 171.985 76.2856C170.847 75.5536 170.094 74.6793 169.728 73.6626C169.362 72.6866 169.179 71.6496 169.179 70.5516C169.179 68.0303 171.111 65.7326 174.974 63.6586Z" fill="white"/>
<path d="M204.599 65.0006V23.6426L196.852 25.8386V65.0006H204.599Z" fill="white"/>
<path d="M212.455 57.4362C212.903 57.5989 213.391 57.7615 213.919 57.9242C214.367 58.0462 214.895 58.1479 215.505 58.2292C216.115 58.3105 216.786 58.3512 217.518 58.3512H231.304C231.304 57.5785 231.182 56.5619 230.938 55.3012C230.694 53.9999 230.206 52.6375 229.474 51.2142C228.742 49.7909 227.665 48.3879 226.241 47.0052C224.818 45.5819 222.907 44.3415 220.507 43.2842L222.215 36.5742C224.94 37.3062 227.441 38.5669 229.718 40.3562C230.694 41.1289 231.67 42.0642 232.646 43.1622C233.622 44.2195 234.537 45.4802 235.391 46.9442C236.245 48.4082 236.977 50.0959 237.587 52.0072C238.238 53.8779 238.706 55.9925 238.99 58.3512H243.505H245.334H257.291V40.4782L265.038 38.2822L265.099 65.0002H245.334H243.505H216.969C216.237 65.0002 215.566 64.9595 214.956 64.8782C214.346 64.7969 213.818 64.6952 213.37 64.5732C212.842 64.4105 212.354 64.2479 211.906 64.0852L212.455 57.4362Z" fill="white"/>
<path d="M252.289 71.5275C251.394 72.4628 250.947 73.5813 250.947 74.8826C250.947 76.1433 251.394 77.2006 252.289 78.0546C253.224 78.9493 254.343 79.3966 255.644 79.3966C256.905 79.3966 257.962 78.9493 258.816 78.0546C259.711 77.2006 260.158 76.1433 260.158 74.8826C260.158 73.5813 259.711 72.4628 258.816 71.5275C257.962 70.6328 256.905 70.1855 255.644 70.1855C254.343 70.1855 253.224 70.6328 252.289 71.5275Z" fill="white"/>
<path d="M280.251 65.0006V23.6426L272.504 25.8386V65.0006H280.251Z" fill="white"/>
<path d="M268.234 86.8996L282.874 82.5686V78.6036L278.299 79.9456C277.933 79.9049 277.506 79.7829 277.018 79.5796C276.53 79.4169 276.063 79.1729 275.615 78.8476C275.168 78.5629 274.782 78.1969 274.456 77.7496C274.172 77.3023 274.029 76.8143 274.029 76.2856C274.029 75.7163 274.253 75.1469 274.7 74.5776C275.148 74.0083 275.9 73.7236 276.957 73.7236C278.055 73.7236 278.97 74.1099 279.702 74.8826C280.516 74.1913 281.207 73.6016 281.776 73.1136C282.386 72.6256 282.895 72.2189 283.301 71.8936C282.488 70.8363 281.654 70.1449 280.8 69.8196C279.946 69.5349 279.052 69.3926 278.116 69.3926C277.222 69.3926 276.266 69.5756 275.249 69.9416C274.233 70.3076 273.277 70.8363 272.382 71.5276C271.528 72.2596 270.817 73.1136 270.247 74.0896C269.678 75.1063 269.393 76.2449 269.393 77.5056C269.393 77.8716 269.454 78.2986 269.576 78.7866C269.739 79.2746 269.942 79.7219 270.186 80.1286C270.43 80.5759 270.715 80.9419 271.04 81.2266C271.406 81.5519 271.813 81.7553 272.26 81.8366L268.234 83.0566V86.8996Z" fill="white"/>
<path d="M681 5H496V85H681V5Z" fill="#551AA6"/>
<path d="M514.865 68.0004C513.157 68.0004 511.571 67.8581 510.107 67.5734C508.643 67.2887 507.362 66.8211 506.264 66.1704C505.166 65.5197 504.312 64.6657 503.702 63.6084C503.092 62.5511 502.787 61.2701 502.787 59.7654C502.787 57.4881 502.99 55.5361 503.397 53.9094C503.844 52.2421 504.353 50.8187 504.922 49.6394C505.532 48.4601 506.162 47.4434 506.813 46.5894C507.464 45.6947 508.013 44.8611 508.46 44.0884H514.377C513.645 45.2677 512.954 46.5081 512.303 47.8094C511.652 49.1107 511.103 50.4121 510.656 51.7134C510.249 52.9741 509.985 54.1941 509.863 55.3734C509.782 56.5121 509.924 57.5287 510.29 58.4234C510.697 59.3181 511.368 60.0297 512.303 60.5584C513.279 61.0871 514.621 61.3514 516.329 61.3514H540.363V28.8384L548.11 26.6424V68.0004H514.865ZM533.348 46.6504L518.708 50.9814V47.1384L522.734 45.9184C522.287 45.8371 521.88 45.6541 521.514 45.3694C521.189 45.0441 520.904 44.6781 520.66 44.2714C520.416 43.8241 520.213 43.3564 520.05 42.8684C519.928 42.3804 519.867 41.9534 519.867 41.5874C519.867 40.3267 520.152 39.2084 520.721 38.2324C521.29 37.2157 522.002 36.3617 522.856 35.6704C523.751 34.9384 524.706 34.3894 525.723 34.0234C526.74 33.6574 527.695 33.4744 528.59 33.4744C529.525 33.4744 530.42 33.6371 531.274 33.9624C532.128 34.2471 532.962 34.9181 533.775 35.9754C533.368 36.3007 532.86 36.7074 532.25 37.1954C531.681 37.6834 530.989 38.2731 530.176 38.9644C529.444 38.1917 528.529 37.8054 527.431 37.8054C526.374 37.8054 525.621 38.0901 525.174 38.6594C524.727 39.2287 524.503 39.7981 524.503 40.3674C524.503 40.8961 524.645 41.3841 524.93 41.8314C525.255 42.2787 525.642 42.6651 526.089 42.9904C526.536 43.2751 527.004 43.5191 527.492 43.7224C527.98 43.8851 528.407 43.9867 528.773 44.0274L533.348 42.6854V46.6504ZM567.288 41.3434C568.102 45.8981 568.651 50.3511 568.935 54.7024C569.22 59.0131 569.362 62.8561 569.362 66.2314C569.362 66.5161 569.342 67.1057 569.301 68.0004C569.261 68.8951 569.098 69.9117 568.813 71.0504C568.529 72.2297 568.041 73.4497 567.349 74.7104C566.699 76.0117 565.743 77.1911 564.482 78.2484C563.222 79.3464 561.595 80.2411 559.602 80.9324C557.65 81.6237 555.21 81.9694 552.282 81.9694L550.879 77.5774C552.953 77.4147 554.804 76.9267 556.43 76.1134C557.122 75.7474 557.793 75.3001 558.443 74.7714C559.135 74.2427 559.745 73.5921 560.273 72.8194C560.802 72.0874 561.229 71.1927 561.554 70.1354C561.88 69.1187 562.042 67.9394 562.042 66.5974C562.042 62.8967 561.941 59.1147 561.737 55.2514C561.575 51.3474 560.985 47.5044 559.968 43.7224L567.288 41.3434ZM576.398 28.8384L584.145 26.6424V61.3514H590.977V68.0004H576.398V28.8384ZM626.47 68.0004H590.053V61.3514H610.427V59.5214C610.427 58.3421 610.101 57.0814 609.451 55.7394C608.8 54.3567 607.885 53.0147 606.706 51.7134C605.567 50.4121 604.184 49.1717 602.558 47.9924C600.931 46.7724 599.142 45.7354 597.19 44.8814L597.678 34.3894L621.285 26.3984L619.333 34.5114L603.961 39.2084C605.669 40.3877 607.295 41.7704 608.841 43.3564C610.427 44.9424 611.83 46.5691 613.05 48.2364C614.351 50.0664 615.449 51.9371 616.344 53.8484C617.238 55.7191 617.686 57.6101 617.686 59.5214V61.3514H626.47V68.0004ZM656.645 61.5954C656.645 65.8654 655.1 68.0004 652.009 68.0004H625.535V61.3514H637.43C636.739 60.9854 636.068 60.5177 635.417 59.9484C634.807 59.3384 634.258 58.6674 633.77 57.9354C633.282 57.2034 632.876 56.4307 632.55 55.6174C632.266 54.8041 632.123 53.9907 632.123 53.1774C632.123 49.1921 633.262 46.1217 635.539 43.9664C637.817 41.7704 641.192 40.6724 645.665 40.6724C647.739 40.6724 649.447 41.0384 650.789 41.7704C652.131 42.4617 653.209 43.3971 654.022 44.5764C654.836 45.7151 655.425 47.0367 655.791 48.5414C656.198 50.0054 656.462 51.5304 656.584 53.1164C656.706 54.6617 656.747 56.1867 656.706 57.6914C656.666 59.1554 656.645 60.4567 656.645 61.5954ZM649.874 60.3754C649.874 58.1387 649.813 56.1664 649.691 54.4584C649.61 52.7504 649.386 51.3271 649.02 50.1884C648.654 49.0091 648.105 48.1347 647.373 47.5654C646.641 46.9961 645.625 46.7114 644.323 46.7114C643.144 46.7114 642.188 46.8944 641.456 47.2604C640.765 47.6264 640.236 48.0737 639.87 48.6024C639.504 49.0904 639.26 49.6394 639.138 50.2494C639.016 50.8594 638.955 51.4084 638.955 51.8964C638.955 52.7097 639.199 53.6044 639.687 54.5804C640.175 55.5157 640.867 56.3901 641.761 57.2034C642.697 58.0167 643.835 58.7284 645.177 59.3384C646.56 59.9077 648.126 60.2534 649.874 60.3754ZM640.419 33.4134C640.419 32.1121 640.867 31.0141 641.761 30.1194C642.697 29.1841 643.815 28.7164 645.116 28.7164C646.377 28.7164 647.434 29.1841 648.288 30.1194C649.183 31.0141 649.63 32.1121 649.63 33.4134C649.63 34.6741 649.183 35.7517 648.288 36.6464C647.434 37.5004 646.377 37.9274 645.116 37.9274C643.815 37.9274 642.697 37.5004 641.761 36.6464C640.867 35.7517 640.419 34.6741 640.419 33.4134Z" fill="white"/>
</g>
<path d="M670.741 68.0001V26.6421L662.994 28.8381V68.0001H670.741Z" fill="white"/>
<path d="M659.334 26.4591L673.974 22.1281V18.1631L669.399 19.5051C669.033 19.4644 668.606 19.3628 668.118 19.2001C667.63 18.9968 667.163 18.7528 666.715 18.4681C666.268 18.1428 665.882 17.7564 665.556 17.3091C665.272 16.8618 665.129 16.3738 665.129 15.8451C665.129 15.2758 665.353 14.7064 665.8 14.1371C666.248 13.5678 667 13.2831 668.057 13.2831C669.155 13.2831 670.07 13.6694 670.802 14.4421C671.616 13.7508 672.307 13.1611 672.876 12.6731C673.486 12.1851 673.995 11.7784 674.401 11.4531C673.588 10.3958 672.754 9.72481 671.9 9.44015C671.046 9.11481 670.152 8.95215 669.216 8.95215C668.322 8.95215 667.366 9.13515 666.349 9.50115C665.333 9.86715 664.377 10.4161 663.482 11.1481C662.628 11.8394 661.917 12.6934 661.347 13.7101C660.778 14.6861 660.493 15.8044 660.493 17.0651C660.493 17.4311 660.554 17.8581 660.676 18.3461C660.839 18.8341 661.042 19.3018 661.286 19.7491C661.53 20.1558 661.815 20.5218 662.14 20.8471C662.506 21.1318 662.913 21.3148 663.36 21.3961L659.334 22.6161V26.4591Z" fill="white"/>
<path d="M803.113 68V24.5744L794.887 26.8802V68H803.113Z" fill="#551AA6"/>
<path d="M791 24.3822L806.547 19.8347V15.6715L801.688 17.0806C801.3 17.0378 800.846 16.9312 800.328 16.7603C799.81 16.5469 799.314 16.2907 798.838 15.9917C798.363 15.6502 797.954 15.2445 797.607 14.7748C797.306 14.3051 797.154 13.7927 797.154 13.2376C797.154 12.6398 797.392 12.042 797.866 11.4442C798.342 10.8465 799.141 10.5475 800.263 10.5475C801.429 10.5475 802.401 10.9531 803.178 11.7645C804.043 11.0386 804.776 10.4194 805.381 9.90703C806.028 9.39463 806.569 8.9676 807 8.62603C806.137 7.51588 805.251 6.81129 804.344 6.5124C803.437 6.17079 802.488 6 801.494 6C800.545 6 799.529 6.19215 798.449 6.57645C797.37 6.96074 796.355 7.53719 795.405 8.30579C794.498 9.03165 793.743 9.92834 793.138 10.9959C792.533 12.0207 792.231 13.1949 792.231 14.5186C792.231 14.9029 792.296 15.3512 792.425 15.8636C792.598 16.376 792.814 16.8671 793.073 17.3368C793.332 17.7638 793.635 18.1481 793.98 18.4897C794.368 18.7886 794.801 18.9808 795.275 19.0661L791 20.3471V24.3822Z" fill="#551AA6"/>
</g>
<defs>
<clipPath id="clip0_234_1894">
<rect width="821" height="103" fill="white"/>
</clipPath>
</defs>
</svg>
