<svg width="647" height="498" viewBox="0 0 647 498" fill="none" xmlns="http://www.w3.org/2000/svg">
<path d="M46.2362 6.52795L49.9568 6.59289L49.5762 28.3958C49.5746 28.489 49.6093 28.5791 49.6728 28.6462C49.7363 28.7133 49.8233 28.7519 49.9147 28.7534L56.314 28.9144C56.6753 28.9226 57.0187 29.0737 57.2697 29.335C57.5207 29.5962 57.659 29.9465 57.6545 30.3097L57.4144 46.4868L53.6349 44.9574L53.8746 32.8397C53.876 32.7577 53.8448 32.6784 53.7878 32.6193C53.7307 32.5603 53.6526 32.5263 53.5705 32.5249L41.7406 32.3254C41.4874 32.321 41.3633 32.4455 41.3682 32.6988L41.5092 39.9406C41.232 40.5033 41.0972 40.97 41.1048 41.3407C41.1476 45.0701 41.1298 48.7774 41.0514 52.4626C41.0499 52.549 41.073 52.6339 41.1178 52.707C41.1627 52.7802 41.2275 52.8385 41.3045 52.875C43.5165 53.9197 45.2655 55.688 45.8141 58.1177C47.5305 65.788 37.2561 69.5766 33.0409 63.1853C30.5461 59.406 32.7531 54.6886 36.6262 52.8637C36.7984 52.7845 36.9448 52.6583 37.0484 52.4995C37.152 52.3408 37.2086 52.1559 37.2117 51.9664C37.2879 48.1405 37.4213 44.2593 37.612 40.3229C37.6367 39.7136 37.4618 38.9859 37.0872 38.1398C37.2418 38.1519 37.37 38.065 37.4717 37.8792C37.5252 37.7722 37.551 37.6367 37.5491 37.4725C37.4714 34.9431 37.5455 32.3061 37.7717 29.5616C37.7945 29.284 37.922 29.0257 38.128 28.8396C38.334 28.6535 38.603 28.5537 38.8796 28.5608L45.2513 28.6932C45.6263 28.7044 45.8195 28.5225 45.8307 28.1475L46.2362 6.52795ZM41.2931 59.5725C41.3038 58.9607 41.071 58.3697 40.6459 57.9295C40.2209 57.4893 39.6383 57.236 39.0265 57.2253C38.4147 57.2146 37.8237 57.4475 37.3835 57.8725C36.9433 58.2976 36.69 58.8801 36.6794 59.4919C36.6687 60.1038 36.9015 60.6948 37.3266 61.135C37.7516 61.5751 38.3342 61.8284 38.946 61.8391C39.5578 61.8498 40.1488 61.617 40.589 61.1919C41.0292 60.7668 41.2825 60.1843 41.2931 59.5725Z" fill="#656565"/>
<g filter="url(#filter0_f_264_6183)">
<path d="M394.568 11.7605L596.832 15.2911L589.284 447.688L284.397 442.366C210.938 324.776 137.468 207.188 63.9869 89.6019C63.7775 89.2626 63.4074 89.0598 63.1025 88.7505L63.1513 88.1307L74.3807 61.5644C74.4644 61.3633 74.6021 61.2158 74.7937 61.122L75.3241 60.8526C76.3094 60.6355 77.4038 60.7053 78.2801 60.5686C181.173 44.4893 284.071 28.4565 386.975 12.4703C389.485 12.0792 392.016 11.8427 394.568 11.7605Z" fill="url(#paint0_linear_264_6183)"/>
</g>
<path d="M37.0864 38.1398C37.4609 38.9858 37.6358 39.7135 37.6111 40.3228C37.4204 44.2593 37.287 48.1405 37.2109 51.9663C37.2078 52.1559 37.1511 52.3407 37.0475 52.4995C36.9439 52.6582 36.7976 52.7845 36.6253 52.8637C32.7522 54.6886 30.5452 59.4059 33.0401 63.1853C37.2553 69.5766 47.5296 65.788 45.8132 58.1176C45.2647 55.6879 43.5156 53.9197 41.3036 52.875C41.2267 52.8384 41.1619 52.7801 41.117 52.707C41.0721 52.6338 41.049 52.5489 41.0505 52.4625C41.1289 48.7774 41.1467 45.0701 41.104 41.3406C41.0964 40.9699 41.2311 40.5033 41.5083 39.9406L53.6341 44.9574L57.4135 46.4867L76.1117 54.2424C76.2257 54.2889 76.3505 54.3028 76.4725 54.2826C76.5945 54.2624 76.709 54.2088 76.8032 54.1278L84.3605 47.5973C84.4294 47.5387 84.5149 47.5027 84.6055 47.4942C84.6962 47.4858 84.7878 47.5052 84.8679 47.5498L105.397 59.221C105.95 59.5355 105.918 59.7624 105.301 59.9017L89.5929 63.4266C89.5182 63.4429 89.4512 63.4839 89.4029 63.5431C89.3546 63.6024 89.3278 63.6762 89.3269 63.7527C89.3276 64.2498 89.5425 64.5655 89.9717 64.6996C90.8809 66.6197 91.2032 68.3068 90.9387 69.7608L90.1775 69.839C89.8818 69.8526 89.6386 69.8108 89.448 69.7137C89.2853 69.6264 89.1667 69.4344 89.0922 69.1376C88.0618 65.0251 85.3667 62.6376 81.007 61.9752C80.9172 61.9614 80.8319 61.9271 80.7576 61.8749C80.6832 61.8227 80.6219 61.7541 80.5784 61.6744C80.5349 61.5948 80.5103 61.5061 80.5066 61.4154C80.5029 61.3246 80.5202 61.2343 80.557 61.1513L83.3998 54.6721C83.5563 54.309 83.4675 54.0214 83.1335 53.8092C82.9386 53.6885 82.6101 53.6968 82.1481 53.8342C77.7446 55.1409 73.3885 56.4204 69.0798 57.6725C68.9171 57.7198 68.7674 57.8035 68.6422 57.9171C68.5171 58.0308 68.4198 58.1714 68.3578 58.3282C64.7997 67.0931 61.1877 75.8571 57.5218 84.6201C56.9346 86.0169 56.667 86.8354 57.4933 88.2639C59.5649 91.8459 61.5867 95.4551 63.5588 99.0916C63.7223 99.3946 63.8987 99.6322 64.088 99.8044C64.141 99.8533 64.2051 99.8886 64.2747 99.9072C64.3444 99.9258 64.4176 99.9271 64.4879 99.911C64.5582 99.8949 64.6235 99.8619 64.6781 99.8148C64.7328 99.7678 64.7751 99.7081 64.8015 99.6409L67.6691 92.5431C67.6969 92.4764 67.7401 92.4173 67.7952 92.3705C67.8503 92.3238 67.9156 92.2907 67.9859 92.2741C68.0563 92.2575 68.1295 92.2577 68.1997 92.2749C68.2699 92.292 68.335 92.3256 68.3897 92.3728C70.9727 94.5988 73.9511 95.1315 77.3248 93.971C78.7875 93.4712 80.1643 92.6533 81.4552 91.5174L82.6581 93.1354C80.9779 94.8086 78.9355 96.0112 76.5307 96.7431C76.2659 96.8651 76.0184 96.9382 75.7882 96.9623C75.7221 96.9701 75.6589 96.9942 75.6045 97.0325C75.5501 97.0708 75.5063 97.1219 75.4771 97.1811C75.448 97.2404 75.4345 97.3058 75.4378 97.3712C75.4412 97.4366 75.4613 97.4999 75.4964 97.5552L84.1457 111.094C84.5064 111.659 84.3622 111.853 83.7134 111.678L61.0418 105.443C60.7944 105.377 60.6612 105.216 60.6422 104.957L59.9166 95.3415C59.901 95.1419 59.8314 94.9503 59.7153 94.7871C59.5992 94.624 59.4409 94.4955 59.2574 94.4154L53.1675 91.8397C53.1062 91.8139 53.0403 91.8006 52.9737 91.8005C52.907 91.8004 52.8409 91.8136 52.779 91.8393C52.7171 91.865 52.6608 91.9028 52.6131 91.9503C52.5655 91.9979 52.5275 92.0544 52.5014 92.1165L49.5383 99.4378C49.5107 99.5077 49.4693 99.5714 49.4167 99.625C49.364 99.6787 49.3012 99.7212 49.2318 99.7502C49.1625 99.7791 49.088 99.7939 49.0128 99.7936C48.9377 99.7933 48.8633 99.778 48.7942 99.7485C41.06 96.5273 33.2927 93.3173 25.4924 90.1184C21.7158 88.5657 19.316 87.2621 18.2932 86.2078C16.1233 83.9608 15.5633 80.9774 16.6132 77.2576C16.6512 77.1194 16.635 76.9719 16.5679 76.8452C16.5008 76.7185 16.3879 76.6222 16.2522 76.5759C4.13888 72.4599 -2.40979 59.492 2.70607 47.3328C5.94336 39.6153 13.2298 34.5011 21.6032 34.0212C27.1386 33.6957 31.2058 35.6662 37.0864 38.1398Z" fill="#333333"/>
<path d="M90.1792 69.839C89.4261 69.9947 88.6493 70.0257 87.8489 69.932C87.6102 69.9044 87.434 69.7864 87.3204 69.5781C85.4709 66.3095 83.9084 63.9254 79.6935 64.3725C79.4445 64.3963 79.2735 64.5223 79.1804 64.7505L69.0513 89.2325C68.9192 89.5444 68.9754 89.8221 69.2197 90.0656C72.9341 93.7044 76.3044 92.4758 80.3651 90.3868C80.5875 90.2734 80.7483 90.3302 80.8475 90.557C81.064 91.0533 81.2671 91.3734 81.4569 91.5174C80.166 92.6534 78.7893 93.4712 77.3266 93.971C73.9528 95.1316 70.9744 94.5988 68.3915 92.3728C68.3367 92.3256 68.2716 92.2921 68.2014 92.2749C68.1313 92.2578 68.058 92.2575 67.9877 92.2741C67.9174 92.2908 67.852 92.3238 67.797 92.3706C67.7419 92.4173 67.6987 92.4765 67.6709 92.5432L64.8032 99.641C64.7769 99.7081 64.7345 99.7678 64.6799 99.8149C64.6252 99.8619 64.5599 99.8949 64.4896 99.911C64.4193 99.9271 64.3462 99.9259 64.2765 99.9073C64.2068 99.8887 64.1427 99.8534 64.0898 99.8044C63.9005 99.6323 63.7241 99.3947 63.5605 99.0917C61.5884 95.4551 59.5666 91.8459 57.4951 88.2639C56.6688 86.8354 56.9363 86.0169 57.5235 84.6201C61.1895 75.8571 64.8015 67.0932 68.3596 58.3283C68.4216 58.1715 68.5188 58.0308 68.644 57.9172C68.7691 57.8035 68.9188 57.7198 69.0816 57.6725C73.3903 56.4204 77.7464 55.141 82.1499 53.8342C82.6119 53.6969 82.9404 53.6886 83.1352 53.8092C83.4692 54.0214 83.558 54.3091 83.4016 54.6722L80.5588 61.1513C80.5219 61.2343 80.5047 61.3247 80.5084 61.4154C80.5121 61.5061 80.5366 61.5948 80.5802 61.6745C80.6237 61.7542 80.685 61.8228 80.7593 61.875C80.8336 61.9271 80.919 61.9615 81.0087 61.9753C85.3685 62.6377 88.0635 65.0251 89.0939 69.1377C89.1685 69.4345 89.2871 69.6265 89.4497 69.7137C89.6403 69.8109 89.8835 69.8526 90.1792 69.839Z" fill="#656565"/>
<path d="M38.9451 61.8391C40.2192 61.8613 41.27 60.8465 41.2923 59.5725C41.3145 58.2984 40.2997 57.2476 39.0256 57.2253C37.7516 57.2031 36.7007 58.2179 36.6785 59.4919C36.6562 60.766 37.671 61.8169 38.9451 61.8391Z" fill="#333333"/>
<path d="M98.9313 67.7898L98.7426 68.1172C98.6216 68.3308 98.4412 68.459 98.2012 68.5017L90.9399 69.7609C91.2045 68.3069 90.8822 66.6198 89.973 64.6997L99.9062 64.3314C100.225 64.3229 100.324 64.4653 100.201 64.7587L98.9313 67.7898Z" fill="#656565"/>
<path d="M82.6583 93.1354L86.0121 98.4915L85.9579 99.18L84.0834 103.791C84.0489 103.878 83.9926 103.955 83.9198 104.015C83.8469 104.074 83.7599 104.114 83.6669 104.13C83.5738 104.147 83.4778 104.14 83.3877 104.11C83.2977 104.079 83.2165 104.027 83.1518 103.957L76.5309 96.7431C78.9357 96.0112 80.9782 94.8086 82.6583 93.1354Z" fill="#656565"/>
<defs>
<filter id="filter0_f_264_6183" x="13.1016" y="-38.2395" width="633.73" height="535.927" filterUnits="userSpaceOnUse" color-interpolation-filters="sRGB">
<feFlood flood-opacity="0" result="BackgroundImageFix"/>
<feBlend mode="normal" in="SourceGraphic" in2="BackgroundImageFix" result="shape"/>
<feGaussianBlur stdDeviation="25" result="effect1_foregroundBlur_264_6183"/>
</filter>
<linearGradient id="paint0_linear_264_6183" x1="92" y1="88" x2="552" y2="238.5" gradientUnits="userSpaceOnUse">
<stop stop-color="white"/>
<stop offset="1" stop-color="white" stop-opacity="0"/>
</linearGradient>
</defs>
</svg>
