<svg width="646" height="492" viewBox="0 0 646 492" fill="none" xmlns="http://www.w3.org/2000/svg">
<path d="M599.825 0.527949L596.11 0.592891L596.49 22.3958C596.492 22.489 596.457 22.5791 596.394 22.6462C596.33 22.7133 596.243 22.7519 596.152 22.7534L589.762 22.9144C589.401 22.9226 589.058 23.0737 588.807 23.3349C588.557 23.5962 588.418 23.9465 588.423 24.3097L588.663 40.4868L592.437 38.9574L592.198 26.8397C592.196 26.7577 592.227 26.6784 592.284 26.6193C592.341 26.5603 592.419 26.5263 592.501 26.5249L604.315 26.3254C604.568 26.321 604.691 26.4455 604.687 26.6988L604.546 33.9406C604.823 34.5033 604.957 34.97 604.95 35.3407C604.907 39.0701 604.925 42.7774 605.003 46.4626C605.004 46.549 604.981 46.6339 604.937 46.707C604.892 46.7802 604.827 46.8385 604.75 46.875C602.541 47.9197 600.795 49.688 600.247 52.1177C598.533 59.788 608.793 63.5766 613.002 57.1853C615.494 53.406 613.29 48.6886 609.422 46.8637C609.25 46.7845 609.104 46.6583 609 46.4995C608.897 46.3408 608.84 46.1559 608.837 45.9664C608.761 42.1405 608.628 38.2593 608.438 34.3229C608.413 33.7136 608.588 32.9859 608.962 32.1398C608.807 32.1519 608.679 32.065 608.578 31.8792C608.524 31.7722 608.498 31.6367 608.5 31.4725C608.578 28.9431 608.504 26.3061 608.278 23.5616C608.255 23.284 608.128 23.0257 607.922 22.8396C607.716 22.6535 607.448 22.5537 607.172 22.5608L600.809 22.6932C600.434 22.7044 600.242 22.5225 600.23 22.1475L599.825 0.527949ZM604.762 53.5725C604.751 52.9607 604.983 52.3697 605.408 51.9295C605.832 51.4893 606.414 51.236 607.025 51.2253C607.636 51.2146 608.226 51.4475 608.666 51.8725C609.105 52.2976 609.358 52.8801 609.369 53.4919C609.38 54.1038 609.147 54.6948 608.723 55.135C608.298 55.5751 607.716 55.8284 607.105 55.8391C606.494 55.8498 605.904 55.617 605.465 55.1919C605.025 54.7668 604.772 54.1843 604.762 53.5725Z" fill="#656565"/>
<g filter="url(#filter0_f_265_6194)">
<path d="M251.982 5.76053L50.0002 9.29107L57.5371 441.688L361.999 436.366C435.356 318.776 508.724 201.188 582.102 83.6019C582.311 83.2626 582.681 83.0598 582.985 82.7505L582.937 82.1307L571.723 55.5644C571.639 55.3633 571.502 55.2158 571.31 55.122L570.781 54.8526C569.797 54.6355 568.704 54.7053 567.829 54.5686C465.08 38.4893 362.325 22.4565 259.565 6.47026C257.058 6.07923 254.53 5.84265 251.982 5.76053Z" fill="url(#paint0_linear_265_6194)"/>
</g>
<path d="M608.965 32.1398C608.591 32.9858 608.417 33.7135 608.441 34.3228C608.632 38.2593 608.765 42.1405 608.841 45.9663C608.844 46.1559 608.901 46.3407 609.004 46.4995C609.108 46.6582 609.254 46.7845 609.426 46.8637C613.294 48.6886 615.497 53.4059 613.006 57.1853C608.797 63.5766 598.537 59.788 600.251 52.1176C600.799 49.6879 602.545 47.9197 604.754 46.875C604.831 46.8384 604.896 46.7801 604.94 46.707C604.985 46.6338 605.008 46.5489 605.007 46.4625C604.929 42.7774 604.911 39.0701 604.953 35.3406C604.961 34.9699 604.826 34.5033 604.55 33.9406L592.441 38.9574L588.667 40.4867L569.995 48.2424C569.881 48.2889 569.756 48.3028 569.634 48.2826C569.512 48.2624 569.398 48.2088 569.304 48.1278L561.757 41.5973C561.688 41.5387 561.603 41.5027 561.513 41.4942C561.422 41.4858 561.331 41.5052 561.251 41.5498L540.75 53.221C540.198 53.5355 540.23 53.7624 540.846 53.9017L556.532 57.4266C556.607 57.4429 556.674 57.4839 556.722 57.5431C556.77 57.6024 556.797 57.6762 556.798 57.7527C556.797 58.2498 556.582 58.5655 556.154 58.6996C555.246 60.6197 554.924 62.3068 555.188 63.7608L555.948 63.839C556.244 63.8526 556.487 63.8108 556.677 63.7137C556.839 63.6264 556.958 63.4344 557.032 63.1376C558.061 59.0251 560.752 56.6376 565.106 55.9752C565.196 55.9614 565.281 55.9271 565.355 55.8749C565.429 55.8227 565.491 55.7541 565.534 55.6744C565.578 55.5948 565.602 55.5061 565.606 55.4154C565.609 55.3246 565.592 55.2343 565.555 55.1513L562.717 48.6721C562.56 48.309 562.649 48.0214 562.983 47.8092C563.177 47.6885 563.505 47.6968 563.967 47.8342C568.364 49.1409 572.714 50.4204 577.017 51.6725C577.179 51.7198 577.329 51.8035 577.454 51.9171C577.579 52.0308 577.676 52.1714 577.738 52.3282C581.291 61.0931 584.898 69.8571 588.559 78.6201C589.145 80.0169 589.412 80.8354 588.587 82.2639C586.518 85.8459 584.499 89.4551 582.53 93.0916C582.367 93.3946 582.19 93.6322 582.001 93.8044C581.949 93.8533 581.885 93.8886 581.815 93.9072C581.745 93.9258 581.672 93.9271 581.602 93.911C581.532 93.8949 581.467 93.8619 581.412 93.8148C581.358 93.7678 581.315 93.7081 581.289 93.6409L578.425 86.5431C578.398 86.4764 578.354 86.4173 578.299 86.3705C578.244 86.3238 578.179 86.2907 578.109 86.2741C578.039 86.2575 577.966 86.2577 577.896 86.2749C577.825 86.292 577.76 86.3256 577.706 86.3728C575.126 88.5988 572.152 89.1315 568.783 87.971C567.322 87.4712 565.948 86.6533 564.659 85.5174L563.457 87.1354C565.135 88.8086 567.175 90.0112 569.576 90.7431C569.841 90.8651 570.088 90.9382 570.318 90.9623C570.384 90.9701 570.447 90.9942 570.501 91.0325C570.555 91.0708 570.599 91.1219 570.628 91.1811C570.657 91.2404 570.671 91.3058 570.667 91.3712C570.664 91.4366 570.644 91.4999 570.609 91.5552L561.972 105.094C561.612 105.659 561.755 105.853 562.403 105.678L585.043 99.4428C585.29 99.3775 585.424 99.2157 585.442 98.9574L586.167 89.3415C586.183 89.1419 586.252 88.9503 586.368 88.7871C586.484 88.624 586.642 88.4955 586.825 88.4154L592.907 85.8397C592.968 85.8139 593.034 85.8006 593.1 85.8005C593.167 85.8004 593.233 85.8136 593.295 85.8393C593.356 85.865 593.413 85.9028 593.46 85.9503C593.508 85.9979 593.546 86.0544 593.572 86.1165L596.531 93.4378C596.558 93.5077 596.6 93.5714 596.652 93.625C596.705 93.6787 596.768 93.7212 596.837 93.7502C596.906 93.7791 596.981 93.7939 597.056 93.7936C597.131 93.7933 597.205 93.778 597.274 93.7485C604.997 90.5273 612.754 87.3173 620.543 84.1184C624.315 82.5657 626.711 81.2621 627.732 80.2078C629.899 77.9608 630.458 74.9774 629.41 71.2576C629.372 71.1194 629.388 70.9719 629.455 70.8452C629.522 70.7185 629.635 70.6222 629.771 70.5759C641.867 66.4599 648.407 53.492 643.298 41.3328C640.065 33.6153 632.789 28.5011 624.427 28.0212C618.899 27.6957 614.838 29.6662 608.965 32.1398Z" fill="#333333"/>
<path d="M555.944 63.839C556.696 63.9947 557.472 64.0257 558.271 63.932C558.51 63.9044 558.686 63.7864 558.799 63.5781C560.646 60.3095 562.206 57.9254 566.415 58.3725C566.664 58.3963 566.835 58.5223 566.928 58.7505L577.043 83.2325C577.175 83.5444 577.119 83.8221 576.875 84.0656C573.165 87.7044 569.8 86.4758 565.745 84.3868C565.523 84.2734 565.362 84.3302 565.263 84.557C565.047 85.0533 564.844 85.3734 564.655 85.5174C565.944 86.6534 567.318 87.4712 568.779 87.971C572.148 89.1316 575.122 88.5988 577.702 86.3728C577.756 86.3256 577.821 86.2921 577.892 86.2749C577.962 86.2578 578.035 86.2575 578.105 86.2741C578.175 86.2908 578.24 86.3238 578.295 86.3706C578.35 86.4173 578.394 86.4765 578.421 86.5432L581.285 93.641C581.311 93.7081 581.354 93.7678 581.408 93.8149C581.463 93.8619 581.528 93.8949 581.598 93.911C581.668 93.9271 581.741 93.9259 581.811 93.9073C581.881 93.8887 581.945 93.8534 581.997 93.8044C582.186 93.6323 582.363 93.3947 582.526 93.0916C584.495 89.4551 586.514 85.8459 588.583 82.2639C589.408 80.8354 589.141 80.0169 588.555 78.6201C584.894 69.8571 581.287 61.0932 577.734 52.3283C577.672 52.1715 577.575 52.0308 577.45 51.9172C577.325 51.8035 577.175 51.7198 577.013 51.6725C572.71 50.4204 568.36 49.141 563.963 47.8342C563.501 47.6969 563.173 47.6886 562.979 47.8092C562.645 48.0214 562.556 48.3091 562.713 48.6722L565.551 55.1513C565.588 55.2343 565.605 55.3247 565.602 55.4154C565.598 55.5061 565.574 55.5948 565.53 55.6745C565.487 55.7542 565.425 55.8228 565.351 55.875C565.277 55.9271 565.192 55.9615 565.102 55.9753C560.748 56.6377 558.057 59.0251 557.028 63.1377C556.954 63.4345 556.835 63.6265 556.673 63.7137C556.483 63.8109 556.24 63.8526 555.944 63.839Z" fill="#656565"/>
<path d="M607.109 55.8391C605.837 55.8613 604.787 54.8465 604.765 53.5725C604.743 52.2984 605.756 51.2476 607.028 51.2253C608.301 51.2031 609.35 52.2179 609.372 53.4919C609.394 54.766 608.381 55.8169 607.109 55.8391Z" fill="#333333"/>
<path d="M547.204 61.7898L547.393 62.1172C547.513 62.3308 547.694 62.459 547.933 62.5017L555.184 63.7609C554.92 62.3069 555.242 60.6198 556.15 58.6997L546.231 58.3314C545.912 58.3229 545.814 58.4653 545.936 58.7587L547.204 61.7898Z" fill="#656565"/>
<path d="M563.456 87.1354L560.106 92.4915L560.161 93.18L562.032 97.7906C562.067 97.878 562.123 97.9551 562.196 98.0145C562.269 98.0739 562.356 98.1138 562.448 98.1305C562.541 98.1471 562.637 98.14 562.727 98.1097C562.817 98.0794 562.898 98.027 562.963 97.9573L569.574 90.7431C567.173 90.0112 565.133 88.8086 563.456 87.1354Z" fill="#656565"/>
<defs>
<filter id="filter0_f_265_6194" x="0" y="-44.2395" width="632.986" height="535.927" filterUnits="userSpaceOnUse" color-interpolation-filters="sRGB">
<feFlood flood-opacity="0" result="BackgroundImageFix"/>
<feBlend mode="normal" in="SourceGraphic" in2="BackgroundImageFix" result="shape"/>
<feGaussianBlur stdDeviation="25" result="effect1_foregroundBlur_265_6194"/>
</filter>
<linearGradient id="paint0_linear_265_6194" x1="554.128" y1="82" x2="94.6458" y2="232.121" gradientUnits="userSpaceOnUse">
<stop stop-color="white"/>
<stop offset="1" stop-color="white" stop-opacity="0"/>
</linearGradient>
</defs>
</svg>
