<svg width="192" height="97" viewBox="0 0 192 97" fill="none" xmlns="http://www.w3.org/2000/svg">
<path d="M131.846 71.8582C130.871 71.8582 130.222 72.0044 129.897 70.9003C129.54 69.7961 129.361 68.4808 129.361 66.9545C129.361 65.4281 129.556 64.1129 129.946 63.0087C130.336 61.9046 130.888 61.3525 131.602 61.3525C135.109 61.3525 142.391 61.0115 144.794 60.3295C147.197 59.6475 149.341 58.8031 151.224 57.7964C153.14 56.7897 155.056 55.7829 156.972 54.7762C158.921 53.7694 161.162 52.9251 163.695 52.2431C166.228 51.5611 169.345 51.2201 173.048 51.2201L171.489 58.5758C168.404 58.5758 165.708 58.1861 163.402 57.4067C161.097 56.6273 159.002 55.7342 157.118 54.7275C155.267 53.6883 153.497 52.7789 151.809 51.9995C150.152 51.2201 148.447 50.8304 146.694 50.8304C145.07 50.8304 143.641 51.1552 142.407 51.8047C141.205 52.4542 140.004 53.4285 138.802 54.7275L137.877 54.3865C138.429 50.8467 139.63 47.794 141.481 45.2284C143.365 42.6628 145.784 41.3801 148.74 41.3801C150.753 41.3801 152.572 41.7535 154.196 42.5005C155.819 43.2474 157.524 44.108 159.311 45.0823C161.129 46.0565 163.273 46.9171 165.741 47.6641C168.209 48.3785 171.31 48.7357 175.045 48.7357V58.5099C171.375 58.5424 165.968 59.1928 163.5 60.0696C161.032 60.9465 158.856 62.0344 156.972 63.3334C155.089 64.6324 153.221 65.9477 151.37 67.2792C149.552 68.5782 147.441 69.6661 145.038 70.543C142.667 71.4198 135.386 71.8582 131.846 71.8582ZM151.818 24.4766C154.027 25.9704 155.829 27.7728 157.225 29.8837L151.818 35.2909C150.454 33.2774 148.652 31.475 146.411 29.8837L151.818 24.4766Z" fill="#D2B0FF"/>
<path d="M139.446 20.216L138.082 18.0726C140.031 17.1958 142.028 15.9617 144.074 14.3704C146.12 12.7791 147.841 11.1229 149.237 9.40165C150.634 7.64798 151.332 6.08915 151.332 4.72518C151.332 4.07567 151.153 3.58854 150.796 3.26379C150.439 2.90656 150.033 2.72794 149.578 2.72794C149.124 2.72794 148.588 2.98774 147.971 3.50735C147.354 4.02696 147.045 4.7739 147.045 5.74816C147.045 6.625 147.532 7.43688 148.507 8.18382C149.481 8.93076 151.559 10.1323 154.742 11.7886L152.258 15.4908C149.757 13.9969 147.711 12.5355 146.12 11.1066C144.496 9.64522 143.684 8.05392 143.684 6.33272C143.684 4.64399 144.058 3.34497 144.804 2.43566C145.551 1.52635 146.461 0.893076 147.532 0.535845C148.604 0.178615 149.611 0 150.553 0C151.689 0 152.599 0.308517 153.281 0.925551C153.995 1.51011 154.352 2.33823 154.352 3.40993C154.352 5.45588 153.573 7.56679 152.014 9.74264C150.455 11.9185 148.539 13.932 146.266 15.7831C143.96 17.6342 141.687 19.1118 139.446 20.216Z" fill="#D2B0FF"/>
<path d="M93.7041 62.0841L95.7966 72.556C91.6723 72.556 88.3922 72.0202 85.9566 70.9485C83.5209 69.8443 81.9296 68.3342 81.1827 66.4181L81.7672 65.931C80.6306 68.1718 79.494 69.7144 78.3573 70.5588C77.2532 71.4031 75.743 71.8253 73.827 71.8253H73.0963C72.2844 71.8253 71.6836 71.4064 71.2939 70.0749C70.9042 68.7109 70.127 67.9459 70.127 66.8093C70.127 65.6726 70.3218 64.4873 70.7115 63.2532C71.1012 61.9867 71.702 61.3534 72.5139 61.3534H72.7575C75.2581 61.3534 77.1092 60.6876 78.3108 59.3562C79.5448 58.0247 80.4542 56.271 81.0387 54.0951H81.7694C82.2241 57.4401 83.5068 59.616 85.6178 60.6227C87.7611 61.597 90.4566 62.0841 93.7041 62.0841ZM120.594 42.3552C123.776 42.3552 126.066 43.1671 127.462 44.7909C128.891 46.3822 129.606 48.3307 129.606 50.6365C129.606 53.6242 128.599 56.4821 126.586 59.21C124.572 61.9055 122.475 63.8396 119.13 65.983C115.785 68.0939 112.067 69.5195 107.975 70.7536C103.916 71.9552 99.8236 72.556 95.6992 72.556L93.6067 62.0841C97.4064 62.0841 101.092 61.9704 104.665 61.7431C108.269 61.5158 111.484 61.1748 114.31 60.7201C117.168 60.2655 119.425 59.6809 121.081 58.9664C122.77 58.2195 123.614 57.3427 123.614 56.3359C123.614 55.0044 122.9 53.8191 121.471 52.7799C120.074 51.7082 118.028 51.1723 115.333 51.1723C114.521 51.1723 113.271 51.5296 111.582 52.244C109.926 52.9585 108.058 53.9165 105.98 55.1181C103.901 56.2872 101.872 57.6025 99.8907 59.0639C97.9097 60.4928 96.221 61.9542 94.8246 63.4481L91.8043 63.2045C94.1101 60.7364 96.5133 58.2682 99.0139 55.8001C101.547 53.332 104.08 51.0911 106.613 49.0777C109.146 47.0317 111.598 45.4079 113.969 44.2063C116.372 42.9723 118.58 42.3552 120.594 42.3552ZM122.445 60.8663C123.711 60.9637 125.173 61.0774 126.829 61.2073C128.518 61.3047 130.109 61.3534 131.603 61.3534C132.123 61.3534 132.561 61.9542 132.918 63.1558C133.276 64.3249 134.037 65.1061 134.037 66.4701C134.037 67.9315 133.842 69.2305 133.452 70.3671C133.095 71.5038 132.673 71.8253 132.185 71.8253C127.899 71.8253 124.326 71.533 121.469 70.9485C118.643 70.3314 115.72 69.3929 112.7 67.6392L122.445 60.8663ZM98.9165 33.1484C101.125 34.6423 102.927 36.4447 104.324 38.5556L98.9165 43.9628C97.5525 41.9493 95.7501 40.1469 93.5093 38.5556L98.9165 33.1484Z" fill="#D2B0FF"/>
<path d="M88.6862 30.1945L87.3223 28.0511C89.2708 27.1743 91.268 25.9402 93.314 24.3489C95.3599 22.7576 97.0811 21.1014 98.4776 19.3802C99.874 17.6265 100.572 16.0677 100.572 14.7037C100.572 14.0542 100.394 13.5671 100.036 13.2423C99.6792 12.8851 99.2732 12.7065 98.8186 12.7065C98.3639 12.7065 97.8281 12.9663 97.211 13.4859C96.594 14.0055 96.2855 14.7524 96.2855 15.7267C96.2855 16.6035 96.7726 17.4154 97.7469 18.1623C98.7212 18.9093 100.8 20.1109 103.982 21.7671L101.498 25.4693C98.9972 23.9754 96.9512 22.5141 95.3599 21.0851C93.7362 19.6237 92.9243 18.0324 92.9243 16.3112C92.9243 14.6225 93.2978 13.3235 94.0447 12.4142C94.7916 11.5049 95.7009 10.8716 96.7726 10.5144C97.8443 10.1571 98.8511 9.97852 99.7928 9.97852C100.929 9.97852 101.839 10.287 102.521 10.9041C103.235 11.4886 103.592 12.3168 103.592 13.3884C103.592 15.4344 102.813 17.5453 101.254 19.7212C99.6954 21.897 97.7794 23.9105 95.5061 25.7616C93.2003 27.6127 90.927 29.0903 88.6862 30.1945Z" fill="#D2B0FF"/>
<path d="M60.2865 61.3535H72.7571C73.6664 61.3535 74.3322 62.003 74.7544 63.302C75.209 64.6011 75.4363 65.8189 75.4363 66.9555C75.4363 68.0597 75.209 69.2775 74.7544 70.609C74.3322 71.908 73.6664 71.8268 72.7571 71.8268H60.2865C59.3772 71.8268 58.6952 71.908 58.2406 70.609C57.7859 69.2775 57.5586 68.0597 57.5586 66.9555C57.5586 65.8189 57.7859 64.6011 58.2406 63.302C58.6952 62.003 59.3772 61.3535 60.2865 61.3535Z" fill="#D2B0FF"/>
<path d="M47.8158 61.3535H60.2864C61.1957 61.3535 61.8615 62.003 62.2837 63.302C62.7383 64.6011 62.9656 65.8189 62.9656 66.9555C62.9656 68.0597 62.7383 69.2775 62.2837 70.609C61.8615 71.908 61.1957 71.8268 60.2864 71.8268H47.8158C46.9065 71.8268 46.2245 71.908 45.7699 70.609C45.3152 69.2775 45.0879 68.0597 45.0879 66.9555C45.0879 65.8189 45.3152 64.6011 45.7699 63.302C46.2245 62.003 46.9065 61.3535 47.8158 61.3535Z" fill="#D2B0FF"/>
<path d="M35.3451 61.3535H47.8157C48.725 61.3535 49.3908 62.003 49.813 63.302C50.2676 64.6011 50.4949 65.8189 50.4949 66.9555C50.4949 68.0597 50.2676 69.2775 49.813 70.609C49.3908 71.908 48.725 71.8268 47.8157 71.8268H35.3451C34.4358 71.8268 33.7538 71.908 33.2992 70.609C32.8445 69.2775 32.6172 68.0597 32.6172 66.9555C32.6172 65.8189 32.8445 64.6011 33.2992 63.302C33.7538 62.003 34.4358 61.3535 35.3451 61.3535Z" fill="#D2B0FF"/>
<path d="M3 91.0084L3.34099 90.3264C3.7307 90.4238 4.15288 90.505 4.60754 90.57C5.02972 90.6349 5.56556 90.6674 6.21507 90.6674C8.91054 90.6674 11.5735 90.229 14.204 89.3522C16.8346 88.4753 19.2215 87.3712 21.3649 86.0397C23.5083 84.7082 25.2132 83.328 26.4798 81.899C27.7463 80.4701 28.7693 73.9867 28.7693 72.8501C28.7693 72.0057 28.0224 70.9178 26.5285 69.5863C25.0671 68.2548 23.5732 67.1993 22.0469 66.4199L24.6774 55.6543C27.0156 56.9533 28.6394 58.9668 29.5487 61.6947C30.4905 64.4227 30.9614 67.037 30.9614 69.5376C30.9614 72.1681 30.2307 79.9992 29.5487 82.6297C28.8667 85.2602 27.8925 87.6472 26.6259 89.7906C25.3594 91.9664 23.833 93.7039 22.0469 95.0029C20.2607 96.3344 18.2635 97.0001 16.0551 97.0001C14.0092 97.0001 11.7521 96.4156 9.284 95.2465C6.81587 94.0773 4.7212 92.6647 3 91.0084ZM35.3456 61.3537C36.3523 61.3537 37.0992 62.0033 37.5864 63.3023C38.106 64.6013 38.3658 65.8191 38.3658 66.9558C38.3658 68.0924 38.106 69.3102 37.5864 70.6093C37.0992 71.9083 36.3523 71.8805 35.3456 71.8805C33.7868 71.8805 32.3578 71.5395 31.0588 70.8575C29.7598 70.143 28.6394 69.976 27.6976 69.0017V58.2361C28.8667 59.5676 30.1008 60.4282 31.3998 60.8179C32.7313 61.1751 34.0466 61.3537 35.3456 61.3537Z" fill="#D2B0FF"/>
<path d="M167.807 85.2212C167.791 85.2057 167.772 85.1979 167.748 85.1979C167.725 85.1902 167.702 85.1863 167.679 85.1863C167.585 85.1863 167.484 85.2329 167.376 85.3261C167.267 85.4192 167.166 85.5357 167.073 85.6755C166.98 85.8153 166.902 85.9628 166.84 86.1181C166.731 86.3821 166.646 86.6655 166.584 86.9684C166.522 87.2635 166.491 87.5935 166.491 87.9584V89.9735L167.748 90.1948V90.7539H164.301V90.1948L165.198 89.9735V85.163L164.301 84.9417V84.4641H166.141L166.397 86.0016H166.444C166.623 85.4736 166.863 85.0659 167.166 84.7786C167.469 84.4913 167.803 84.3477 168.168 84.3477C168.471 84.3477 168.723 84.4447 168.925 84.6388C169.127 84.8252 169.228 85.0776 169.228 85.3959C169.228 85.6289 169.162 85.8269 169.03 85.99C168.898 86.1453 168.719 86.2229 168.494 86.2229C168.245 86.2229 168.059 86.1569 167.935 86.0249C167.811 85.8929 167.748 85.7298 167.748 85.5357C167.748 85.4814 167.748 85.4387 167.748 85.4076C167.756 85.3688 167.776 85.3066 167.807 85.2212Z" fill="#D2B0FF"/>
<path d="M162.85 87.7255H158.785C158.785 88.269 158.862 88.7233 159.018 89.0883C159.158 89.4066 159.352 89.6396 159.6 89.7871C159.856 89.9347 160.144 90.0084 160.462 90.0084C160.819 90.0084 161.157 89.9347 161.475 89.7871C161.794 89.6318 162.073 89.4105 162.314 89.1232L162.803 89.4959C162.531 89.8764 162.182 90.2026 161.755 90.4743C161.336 90.7383 160.808 90.8704 160.171 90.8704C159.62 90.8704 159.138 90.7578 158.727 90.5326C158.315 90.2996 158.001 89.9618 157.783 89.5192C157.667 89.2785 157.581 89.0106 157.527 88.7155C157.472 88.4205 157.445 88.106 157.445 87.7721C157.445 86.685 157.694 85.8424 158.191 85.2445C158.695 84.6466 159.39 84.3477 160.276 84.3477C161.091 84.3477 161.728 84.5961 162.186 85.0931C162.652 85.5823 162.885 86.2618 162.885 87.1314C162.885 87.2091 162.881 87.2868 162.873 87.3644C162.873 87.4343 162.865 87.5546 162.85 87.7255ZM160.229 85.0582C159.359 85.0582 158.882 85.7298 158.796 87.0732H161.545V86.7238C161.545 86.188 161.429 85.7764 161.196 85.4891C160.971 85.2018 160.648 85.0582 160.229 85.0582Z" fill="#D2B0FF"/>
<path d="M149.918 89.9735V85.2445L149.021 85.0232V84.4641H150.85L151.106 85.6289H151.153C151.386 85.2329 151.7 84.9223 152.096 84.6971C152.492 84.4641 152.916 84.3477 153.366 84.3477C154.011 84.3477 154.488 84.5573 154.799 84.9766C154.954 85.1941 155.063 85.5008 155.125 85.8968C155.195 86.2851 155.23 86.8131 155.23 87.4809V89.9735L156.127 90.1948V90.7539H153.168V90.1948L153.948 89.9735V87.5391C153.948 87.0499 153.933 86.6811 153.902 86.4326C153.879 86.1763 153.832 85.9744 153.762 85.8269C153.669 85.6328 153.541 85.493 153.378 85.4076C153.215 85.3144 153.024 85.2678 152.807 85.2678C152.388 85.2678 152.027 85.4037 151.724 85.6755C151.405 85.9628 151.231 86.4132 151.2 87.0266V89.9735L151.98 90.1948V90.7539H149.021V90.1948L149.918 89.9735Z" fill="#D2B0FF"/>
<path d="M147.457 90.8483C147.457 91.4928 147.201 91.9937 146.689 92.3508C146.184 92.7158 145.434 92.8983 144.441 92.8983C143.889 92.8983 143.412 92.8439 143.008 92.7352C142.604 92.6343 142.29 92.4751 142.064 92.2577C141.847 92.0402 141.738 91.7685 141.738 91.4423C141.738 91.0774 141.847 90.7939 142.064 90.592C142.29 90.3824 142.604 90.2581 143.008 90.2193V90.1727C142.464 90.0174 142.193 89.7185 142.193 89.2759C142.193 89.1128 142.231 88.9536 142.309 88.7983C142.387 88.643 142.507 88.5032 142.67 88.379C142.841 88.247 143.058 88.1499 143.322 88.0878C142.934 87.9636 142.627 87.75 142.402 87.4472C142.185 87.1443 142.076 86.7794 142.076 86.3523C142.076 85.7311 142.29 85.2419 142.717 84.8847C143.144 84.5275 143.73 84.3489 144.475 84.3489C144.91 84.3489 145.271 84.3955 145.559 84.4887C145.854 84.5741 146.11 84.7061 146.327 84.8847L146.723 84.7449L147.795 84.2324H147.993V85.339H147.795L146.98 85.2458H146.63C146.824 85.5253 146.921 85.8709 146.921 86.2824C146.921 86.9036 146.716 87.3967 146.304 87.7617C145.893 88.1189 145.314 88.2975 144.569 88.2975C144.491 88.2975 144.413 88.2975 144.336 88.2975C144.258 88.2897 144.18 88.2819 144.103 88.2742C143.792 88.3208 143.555 88.3984 143.392 88.5071C143.229 88.6081 143.148 88.7478 143.148 88.9264C143.148 89.0895 143.218 89.2021 143.357 89.2642C143.505 89.3186 143.777 89.3457 144.173 89.3457H145.524C146.161 89.3457 146.642 89.47 146.968 89.7185C147.294 89.9592 147.457 90.3358 147.457 90.8483ZM144.848 90.3242H144.254C143.734 90.3242 143.357 90.4096 143.124 90.5804C142.891 90.7512 142.775 90.9764 142.775 91.256C142.775 91.9082 143.357 92.2344 144.522 92.2344C145.151 92.2344 145.629 92.1373 145.955 91.9432C146.289 91.7568 146.456 91.485 146.456 91.1278C146.456 90.8328 146.335 90.627 146.095 90.5105C145.854 90.3863 145.438 90.3242 144.848 90.3242ZM143.264 86.3057C143.264 86.7561 143.365 87.1016 143.567 87.3423C143.769 87.5753 144.068 87.6918 144.464 87.6918C144.906 87.6918 145.229 87.5753 145.431 87.3423C145.632 87.1016 145.733 86.7561 145.733 86.3057C145.733 85.8631 145.632 85.5292 145.431 85.304C145.229 85.0788 144.906 84.9662 144.464 84.9662C144.06 84.9662 143.757 85.0788 143.555 85.304C143.361 85.5292 143.264 85.8631 143.264 86.3057Z" fill="#D2B0FF"/>
<path d="M138.403 85.2469L137.506 85.0256V84.4665H139.684V89.9758L140.581 90.1972V90.7562H137.506V90.1972L138.403 89.9758V85.2469ZM138.251 82.6378C138.251 82.4049 138.321 82.2185 138.461 82.0787C138.601 81.9312 138.795 81.8574 139.043 81.8574C139.284 81.8574 139.474 81.9312 139.614 82.0787C139.762 82.2185 139.835 82.4049 139.835 82.6378C139.835 82.863 139.766 83.0494 139.626 83.1969C139.486 83.3367 139.292 83.4066 139.043 83.4066C138.787 83.4066 138.589 83.3367 138.449 83.1969C138.317 83.0571 138.251 82.8708 138.251 82.6378Z" fill="#D2B0FF"/>
<path d="M133.443 90.253C133.854 90.253 134.196 90.1715 134.468 90.0084C134.747 89.8454 134.887 89.6163 134.887 89.3212C134.887 89.0883 134.801 88.898 134.631 88.7505C134.46 88.6029 134.246 88.4826 133.99 88.3894C133.742 88.2885 133.489 88.203 133.233 88.1331C132.915 88.0322 132.608 87.908 132.313 87.7604C132.018 87.6129 131.777 87.4149 131.591 87.1664C131.404 86.9179 131.311 86.5957 131.311 86.1996C131.311 85.6405 131.513 85.1941 131.917 84.8602C132.328 84.5185 132.903 84.3477 133.641 84.3477C134.301 84.3477 134.825 84.4874 135.213 84.767C135.609 85.0465 135.807 85.4154 135.807 85.8735C135.807 86.122 135.741 86.32 135.609 86.4675C135.485 86.6073 135.314 86.6772 135.097 86.6772C134.887 86.6772 134.716 86.6228 134.584 86.5141C134.46 86.3976 134.398 86.254 134.398 86.0832C134.398 85.9434 134.437 85.8153 134.514 85.6988C134.592 85.5745 134.693 85.4852 134.817 85.4309C134.708 85.2756 134.561 85.1591 134.374 85.0815C134.188 85.0038 133.955 84.965 133.676 84.965C133.264 84.965 132.953 85.0465 132.744 85.2096C132.534 85.3649 132.429 85.594 132.429 85.8968C132.429 86.1142 132.48 86.2928 132.581 86.4326C132.682 86.5646 132.829 86.6772 133.023 86.7704C133.217 86.8558 133.454 86.9412 133.734 87.0266C134.021 87.112 134.301 87.2052 134.572 87.3062C134.852 87.4071 135.1 87.5314 135.318 87.6789C135.543 87.8187 135.722 87.9934 135.854 88.203C135.993 88.4127 136.063 88.6728 136.063 88.9834C136.063 89.3794 135.947 89.7211 135.714 90.0084C135.481 90.288 135.163 90.5015 134.759 90.649C134.363 90.7966 133.909 90.8704 133.396 90.8704C132.689 90.8704 132.126 90.7306 131.707 90.451C131.288 90.1715 131.078 89.7988 131.078 89.3329C131.078 89.0533 131.148 88.8359 131.288 88.6806C131.435 88.5175 131.622 88.436 131.847 88.436C132.033 88.436 132.196 88.4903 132.336 88.5991C132.484 88.7078 132.557 88.8553 132.557 89.0417C132.557 89.1814 132.515 89.3173 132.429 89.4493C132.344 89.5813 132.247 89.6784 132.138 89.7405C132.223 89.8803 132.379 90.0007 132.604 90.1016C132.829 90.2026 133.109 90.253 133.443 90.253Z" fill="#D2B0FF"/>
<path d="M129.531 87.7255H125.466C125.466 88.269 125.544 88.7233 125.699 89.0883C125.839 89.4066 126.033 89.6396 126.282 89.7871C126.538 89.9347 126.825 90.0084 127.144 90.0084C127.501 90.0084 127.839 89.9347 128.157 89.7871C128.475 89.6318 128.755 89.4105 128.996 89.1232L129.485 89.4959C129.213 89.8764 128.864 90.2026 128.437 90.4743C128.017 90.7383 127.489 90.8704 126.853 90.8704C126.301 90.8704 125.82 90.7578 125.408 90.5326C124.997 90.2996 124.682 89.9618 124.465 89.5192C124.348 89.2785 124.263 89.0106 124.208 88.7155C124.154 88.4205 124.127 88.106 124.127 87.7721C124.127 86.685 124.375 85.8424 124.872 85.2445C125.377 84.6466 126.072 84.3477 126.957 84.3477C127.773 84.3477 128.409 84.5961 128.868 85.0931C129.333 85.5823 129.566 86.2618 129.566 87.1314C129.566 87.2091 129.563 87.2868 129.555 87.3644C129.555 87.4343 129.547 87.5546 129.531 87.7255ZM126.911 85.0582C126.041 85.0582 125.563 85.7298 125.478 87.0732H128.227V86.7238C128.227 86.188 128.11 85.7764 127.878 85.4891C127.652 85.2018 127.33 85.0582 126.911 85.0582Z" fill="#D2B0FF"/>
<path d="M116.879 89.9751H118.521C118.94 89.9751 119.297 89.9129 119.592 89.7887C119.887 89.6645 120.136 89.4703 120.338 89.2063C120.548 88.9423 120.707 88.5968 120.815 88.1697C120.924 87.7348 120.978 87.2223 120.978 86.6322C120.978 85.4674 120.765 84.5938 120.338 84.0115C120.128 83.7164 119.864 83.499 119.546 83.3592C119.235 83.2194 118.855 83.1495 118.404 83.1495H116.879V89.9751ZM114.572 82.3691H118.649C119.806 82.3691 120.707 82.6953 121.351 83.3475C121.716 83.7203 121.996 84.1784 122.19 84.722C122.384 85.2655 122.481 85.8479 122.481 86.4691C122.481 87.1214 122.376 87.7348 122.167 88.3095C121.965 88.8763 121.681 89.3539 121.316 89.7421C120.672 90.4177 119.748 90.7555 118.544 90.7555H114.572V90.1731L115.551 89.9285V83.1961L114.572 82.9515V82.3691Z" fill="#D2B0FF"/>
<path d="M109.436 86.8316L108.551 87.0529C108.551 87.511 108.481 87.9731 108.341 88.439C108.201 88.8971 108.011 89.3048 107.77 89.662C107.848 89.794 107.965 89.9066 108.12 89.9997C108.283 90.0929 108.446 90.1395 108.609 90.1395C108.795 90.1395 108.97 90.0929 109.133 89.9997C109.304 89.9066 109.448 89.7862 109.564 89.6387L109.925 90.1628C109.591 90.6365 109.106 90.8733 108.469 90.8733C108.198 90.8733 107.934 90.8267 107.677 90.7336C107.429 90.6326 107.192 90.4928 106.967 90.3142C106.679 90.5084 106.365 90.652 106.023 90.7452C105.689 90.8306 105.305 90.8733 104.87 90.8733C103.931 90.8733 103.189 90.6675 102.645 90.256C102.11 89.8444 101.842 89.2815 101.842 88.5671C101.842 88.0856 101.978 87.6702 102.249 87.3208C102.521 86.9714 102.979 86.618 103.624 86.2608C103.197 85.5775 102.983 84.9291 102.983 84.3157C102.983 83.9119 103.069 83.5586 103.24 83.2557C103.41 82.9451 103.655 82.7044 103.973 82.5336C104.292 82.3628 104.664 82.2773 105.091 82.2773C105.488 82.2773 105.833 82.3472 106.128 82.487C106.423 82.6268 106.652 82.8209 106.815 83.0694C106.978 83.3179 107.06 83.6013 107.06 83.9197C107.06 84.3545 106.901 84.7816 106.582 85.2009C106.264 85.6125 105.779 85.9891 105.126 86.3307L107.188 88.998C107.343 88.7573 107.472 88.47 107.572 88.1361C107.681 87.8022 107.739 87.4411 107.747 87.0529L106.85 86.8316V86.2725H109.436V86.8316ZM105.01 90.1162C105.305 90.1162 105.569 90.0852 105.802 90.023C106.035 89.9609 106.229 89.8716 106.384 89.7551L104.113 86.8432C103.81 87.0063 103.573 87.2393 103.403 87.5421C103.24 87.8449 103.158 88.1827 103.158 88.5554C103.158 89.0524 103.317 89.4368 103.636 89.7086C103.962 89.9803 104.42 90.1162 105.01 90.1162ZM104.125 84.0478C104.125 84.3196 104.167 84.5836 104.253 84.8398C104.338 85.0883 104.478 85.3679 104.672 85.6785C105.154 85.3834 105.511 85.1077 105.744 84.8515C105.984 84.5875 106.105 84.2963 106.105 83.9779C106.105 83.6828 106.012 83.446 105.825 83.2674C105.639 83.081 105.383 82.9879 105.057 82.9879C104.769 82.9879 104.54 83.0772 104.369 83.2557C104.206 83.4343 104.125 83.6984 104.125 84.0478Z" fill="#D2B0FF"/>
<path d="M95.8517 85.2212C95.8361 85.2057 95.8167 85.1979 95.7934 85.1979C95.7701 85.1902 95.7468 85.1863 95.7235 85.1863C95.6303 85.1863 95.5294 85.2329 95.4207 85.3261C95.312 85.4192 95.211 85.5357 95.1178 85.6755C95.0247 85.8153 94.947 85.9628 94.8849 86.1181C94.7762 86.3821 94.6908 86.6655 94.6286 86.9684C94.5665 87.2635 94.5355 87.5935 94.5355 87.9584V89.9735L95.7934 90.1948V90.7539H92.3457V90.1948L93.2426 89.9735V85.163L92.3457 84.9417V84.4641H94.186L94.4423 86.0016H94.4889C94.6675 85.4736 94.9082 85.0659 95.211 84.7786C95.5139 84.4913 95.8478 84.3477 96.2127 84.3477C96.5156 84.3477 96.7679 84.4447 96.9698 84.6388C97.1717 84.8252 97.2727 85.0776 97.2727 85.3959C97.2727 85.6289 97.2067 85.8269 97.0747 85.99C96.9427 86.1453 96.7641 86.2229 96.5389 86.2229C96.2904 86.2229 96.104 86.1569 95.9798 86.0249C95.8555 85.8929 95.7934 85.7298 95.7934 85.5357C95.7934 85.4814 95.7934 85.4387 95.7934 85.4076C95.8012 85.3688 95.8206 85.3066 95.8517 85.2212Z" fill="#D2B0FF"/>
<path d="M90.8889 87.7255H86.8239C86.8239 88.269 86.9015 88.7233 87.0568 89.0883C87.1966 89.4066 87.3907 89.6396 87.6392 89.7871C87.8954 89.9347 88.1828 90.0084 88.5011 90.0084C88.8583 90.0084 89.1961 89.9347 89.5145 89.7871C89.8328 89.6318 90.1124 89.4105 90.3531 89.1232L90.8423 89.4959C90.5705 89.8764 90.2211 90.2026 89.794 90.4743C89.3747 90.7383 88.8467 90.8704 88.2099 90.8704C87.6586 90.8704 87.1772 90.7578 86.7656 90.5326C86.3541 90.2996 86.0396 89.9618 85.8222 89.5192C85.7057 89.2785 85.6203 89.0106 85.5659 88.7155C85.5116 88.4205 85.4844 88.106 85.4844 87.7721C85.4844 86.685 85.7329 85.8424 86.2298 85.2445C86.7346 84.6466 87.4295 84.3477 88.3148 84.3477C89.1301 84.3477 89.7668 84.5961 90.225 85.0931C90.6909 85.5823 90.9238 86.2618 90.9238 87.1314C90.9238 87.2091 90.92 87.2868 90.9122 87.3644C90.9122 87.4343 90.9044 87.5546 90.8889 87.7255ZM88.2682 85.0582C87.3985 85.0582 86.9209 85.7298 86.8355 87.0732H89.5844V86.7238C89.5844 86.188 89.4679 85.7764 89.2349 85.4891C89.0097 85.2018 88.6875 85.0582 88.2682 85.0582Z" fill="#D2B0FF"/>
<path d="M79.5569 92.0701L80.6868 92.2914V92.8505H77.3672V92.2914L78.2641 92.0701V85.2445L77.3672 85.0232V84.4641H79.2075L79.3822 85.361C79.6307 84.9727 79.9103 84.7087 80.2209 84.569C80.5392 84.4214 80.8964 84.3477 81.2925 84.3477C81.6885 84.3477 82.0457 84.4059 82.364 84.5224C82.6902 84.6388 82.9542 84.8252 83.1561 85.0815C83.389 85.3765 83.5715 85.7337 83.7035 86.153C83.8433 86.5646 83.9132 87.0111 83.9132 87.4925C83.9132 87.9895 83.8355 88.4593 83.6802 88.9019C83.5327 89.3367 83.3308 89.7017 83.0745 89.9968C82.6397 90.5015 82.0146 90.7539 81.1993 90.7539C80.8654 90.7539 80.5625 90.6918 80.2908 90.5675C80.0267 90.4355 79.7821 90.2103 79.5569 89.8919V92.0701ZM79.5453 87.5042C79.5453 87.9468 79.5802 88.3312 79.6501 88.6573C79.72 88.9834 79.8171 89.2474 79.9413 89.4493C80.0656 89.6435 80.217 89.7949 80.3956 89.9036C80.5819 90.0123 80.8071 90.0667 81.0711 90.0667C81.3196 90.0667 81.5332 90.0201 81.7118 89.9269C81.8904 89.8259 82.034 89.6901 82.1427 89.5192C82.2747 89.3251 82.3718 89.0611 82.4339 88.7272C82.496 88.3855 82.5271 88.0089 82.5271 87.5974C82.5271 87.1703 82.4922 86.7898 82.4223 86.4559C82.3524 86.1142 82.2553 85.8347 82.1311 85.6173C82.0146 85.4154 81.8671 85.2678 81.6885 85.1746C81.5099 85.0815 81.2925 85.0349 81.0362 85.0349C80.78 85.0349 80.5586 85.0815 80.3723 85.1746C80.1937 85.2601 80.05 85.3921 79.9413 85.5707C79.8248 85.7648 79.7278 86.0249 79.6501 86.3511C79.5802 86.6694 79.5453 87.0538 79.5453 87.5042Z" fill="#D2B0FF"/>
<path d="M76.0521 87.5741C76.0521 88.0788 75.9783 88.5563 75.8308 89.0067C75.6832 89.4493 75.4736 89.8182 75.2018 90.1133C74.9533 90.3773 74.6543 90.5714 74.3049 90.6956C73.9555 90.8121 73.5517 90.8704 73.0936 90.8704C72.6432 90.8704 72.2433 90.8121 71.8938 90.6956C71.5522 90.5714 71.2571 90.3811 71.0086 90.1249C70.7446 89.8376 70.5388 89.4804 70.3913 89.0533C70.2515 88.6185 70.1816 88.1526 70.1816 87.6556C70.1816 87.1509 70.2515 86.6733 70.3913 86.2229C70.5388 85.7726 70.7524 85.3998 71.0319 85.1048C71.2804 84.8407 71.5755 84.6505 71.9171 84.534C72.2666 84.4098 72.6665 84.3477 73.1169 84.3477C73.5672 84.3477 73.9671 84.4098 74.3166 84.534C74.6738 84.6505 74.9727 84.8369 75.2134 85.0931C75.4852 85.3804 75.691 85.7415 75.8308 86.1763C75.9783 86.6112 76.0521 87.0771 76.0521 87.5741ZM71.7541 88.5059C71.8084 88.832 71.8938 89.1077 72.0103 89.3329C72.1268 89.558 72.2782 89.7289 72.4646 89.8454C72.6509 89.9541 72.8334 90.0201 73.012 90.0434C73.1984 90.0667 73.3925 90.0434 73.5944 89.9735C73.9982 89.8026 74.2739 89.395 74.4214 88.7505C74.499 88.4166 74.5418 88.0788 74.5495 87.7371C74.5573 87.3877 74.5301 87.046 74.468 86.7121C74.4214 86.386 74.336 86.1103 74.2117 85.8851C74.0953 85.66 73.9438 85.4891 73.7575 85.3727C73.5789 85.2639 73.3964 85.1979 73.21 85.1746C73.0314 85.1513 72.8373 85.1746 72.6276 85.2445C72.2161 85.4154 71.9443 85.8191 71.8123 86.4559C71.6648 87.1314 71.6454 87.8148 71.7541 88.5059Z" fill="#D2B0FF"/>
<path d="M66.6137 89.9747V82.4503L65.7168 82.229V81.6699H67.9066V89.9747L68.8034 90.196V90.7551H65.7168V90.196L66.6137 89.9747Z" fill="#D2B0FF"/>
<path d="M64.3557 87.7255H60.2907C60.2907 88.269 60.3683 88.7233 60.5236 89.0883C60.6634 89.4066 60.8575 89.6396 61.106 89.7871C61.3622 89.9347 61.6495 90.0084 61.9679 90.0084C62.3251 90.0084 62.6629 89.9347 62.9813 89.7871C63.2996 89.6318 63.5792 89.4105 63.8199 89.1232L64.3091 89.4959C64.0373 89.8764 63.6879 90.2026 63.2608 90.4743C62.8415 90.7383 62.3135 90.8704 61.6767 90.8704C61.1254 90.8704 60.644 90.7578 60.2324 90.5326C59.8209 90.2996 59.5064 89.9618 59.289 89.5192C59.1725 89.2785 59.0871 89.0106 59.0327 88.7155C58.9783 88.4205 58.9512 88.106 58.9512 87.7721C58.9512 86.685 59.1997 85.8424 59.6966 85.2445C60.2014 84.6466 60.8963 84.3477 61.7816 84.3477C62.5969 84.3477 63.2336 84.5961 63.6918 85.0931C64.1577 85.5823 64.3906 86.2618 64.3906 87.1314C64.3906 87.2091 64.3868 87.2868 64.379 87.3644C64.379 87.4343 64.3712 87.5546 64.3557 87.7255ZM61.735 85.0582C60.8653 85.0582 60.3877 85.7298 60.3023 87.0732H63.0512V86.7238C63.0512 86.188 62.9347 85.7764 62.7017 85.4891C62.4765 85.2018 62.1543 85.0582 61.735 85.0582Z" fill="#D2B0FF"/>
<path d="M55.2546 90.8711H53.8918L51.8534 85.2336L51.2012 85.0123V84.4648H53.9617V85.0123L53.1929 85.2336L54.7304 89.8461H54.777L56.3261 85.2452L55.604 85.0239V84.4648H57.9685V85.0239L57.2929 85.2452L55.2546 90.8711Z" fill="#D2B0FF"/>
<path d="M50.1643 87.7255H46.0992C46.0992 88.269 46.1769 88.7233 46.3322 89.0883C46.472 89.4066 46.6661 89.6396 46.9146 89.7871C47.1708 89.9347 47.4581 90.0084 47.7765 90.0084C48.1337 90.0084 48.4715 89.9347 48.7899 89.7871C49.1082 89.6318 49.3878 89.4105 49.6285 89.1232L50.1177 89.4959C49.8459 89.8764 49.4965 90.2026 49.0694 90.4743C48.6501 90.7383 48.1221 90.8704 47.4853 90.8704C46.934 90.8704 46.4526 90.7578 46.041 90.5326C45.6295 90.2996 45.315 89.9618 45.0975 89.5192C44.9811 89.2785 44.8957 89.0106 44.8413 88.7155C44.7869 88.4205 44.7598 88.106 44.7598 87.7721C44.7598 86.685 45.0082 85.8424 45.5052 85.2445C46.0099 84.6466 46.7049 84.3477 47.5901 84.3477C48.4055 84.3477 49.0422 84.5961 49.5004 85.0931C49.9663 85.5823 50.1992 86.2618 50.1992 87.1314C50.1992 87.2091 50.1953 87.2868 50.1876 87.3644C50.1876 87.4343 50.1798 87.5546 50.1643 87.7255ZM47.5436 85.0582C46.6739 85.0582 46.1963 85.7298 46.1109 87.0732H48.8597V86.7238C48.8597 86.188 48.7433 85.7764 48.5103 85.4891C48.2851 85.2018 47.9629 85.0582 47.5436 85.0582Z" fill="#D2B0FF"/>
<path d="M37.5113 89.9751H39.1536C39.573 89.9751 39.9301 89.9129 40.2252 89.7887C40.5203 89.6645 40.7688 89.4703 40.9707 89.2063C41.1803 88.9423 41.3395 88.5968 41.4482 88.1697C41.5569 87.7348 41.6113 87.2223 41.6113 86.6322C41.6113 85.4674 41.3978 84.5938 40.9707 84.0115C40.761 83.7164 40.497 83.499 40.1786 83.3592C39.868 83.2194 39.4875 83.1495 39.0372 83.1495H37.5113V89.9751ZM35.2051 82.3691H39.2818C40.4388 82.3691 41.3395 82.6953 41.984 83.3475C42.349 83.7203 42.6285 84.1784 42.8227 84.722C43.0168 85.2655 43.1138 85.8479 43.1138 86.4691C43.1138 87.1214 43.009 87.7348 42.7994 88.3095C42.5975 88.8763 42.314 89.3539 41.9491 89.7421C41.3046 90.4177 40.3805 90.7555 39.1769 90.7555H35.2051V90.1731L36.1835 89.9285V83.1961L35.2051 82.9515V82.3691Z" fill="#D2B0FF"/>
<path d="M24.8373 43.0387C24.8373 44.5529 24.4 45.7662 23.5255 46.6786C22.6708 47.591 21.4583 48.0472 19.888 48.0472C19.1129 48.0472 18.4768 47.9501 17.9799 47.756C17.5029 47.5424 17.1153 47.2513 16.8171 46.8824C16.5388 46.4942 16.35 46.0282 16.2506 45.4847C16.1513 44.9411 16.1016 44.3296 16.1016 43.6502C16.1016 43.029 16.191 42.3786 16.3699 41.6992C16.5488 41.0003 16.8271 40.3694 17.2047 39.8065C17.5824 39.2435 18.0495 38.7776 18.606 38.4087C19.1626 38.0399 19.8185 37.8555 20.5738 37.8555C21.2893 37.8555 21.9155 38.0205 22.4521 38.3505C22.9888 38.6611 23.4261 39.0688 23.764 39.5735C24.1218 40.0588 24.3901 40.6121 24.569 41.2333C24.7479 41.8351 24.8373 42.4369 24.8373 43.0387ZM20.216 44.8441C20.6135 44.8441 20.9514 44.8247 21.2297 44.7858C21.5279 44.747 21.7664 44.6596 21.9453 44.5238C22.144 44.3879 22.2832 44.1937 22.3627 43.9414C22.4621 43.689 22.5118 43.3493 22.5118 42.9222C22.5118 42.2622 22.313 41.6798 21.9155 41.1751C21.5179 40.6703 20.9514 40.418 20.216 40.418C19.898 40.418 19.5998 40.515 19.3216 40.7091C19.0433 40.8839 18.8048 41.1168 18.606 41.408C18.4271 41.6798 18.278 41.9807 18.1588 42.3107C18.0594 42.6407 18.0097 42.9416 18.0097 43.2134C18.0097 43.5822 18.0693 43.8831 18.1886 44.1161C18.3079 44.3296 18.4669 44.4946 18.6656 44.6111C18.8644 44.7082 19.093 44.7761 19.3514 44.815C19.6297 44.8344 19.9179 44.8441 20.216 44.8441Z" fill="#D2B0FF"/>
<path d="M192 53L188 49L184 53L188 57L192 53Z" fill="#D2B0FF"/>
<path d="M8 57L4 53L0 57L4 61L8 57Z" fill="#D2B0FF"/>
</svg>
