<svg width="390" height="92" viewBox="0 0 390 92" fill="none" xmlns="http://www.w3.org/2000/svg">
<circle cx="45.7346" cy="45.7346" r="45.7346" fill="#EFEFEF"/>
<path d="M64.367 77.4482H47.8354L42.4769 55.366H16.9385L21.4989 35.633H37.9165L37.0044 13.5508H60.2626L54.334 35.633H37.9165L42.4769 55.366H64.367V77.4482Z" fill="#26CF7B"/>
<path d="M47.4934 77.4482H64.367V55.366H42.4769M42.4769 55.366L37.9165 35.633M42.4769 55.366H16.9385L21.4989 35.633H37.9165M42.4769 55.366L47.9494 77.918M37.9165 35.633H54.334L60.2626 13.5508H37.0044L37.9165 35.633Z" stroke="#26CF7B" stroke-width="2.03264"/>
<path d="M108.619 22.4729H116.676V50.0911L146.131 22.4729H156.282L133.917 43.4202L156.089 68.8792H146.872L128.857 48.1897L116.676 59.5979V68.8792H108.619V22.4729ZM166.627 68.8792H158.57V22.4729H166.627V33.7522H183.546C186.919 33.7522 189.776 34.9231 192.118 37.2649C194.46 39.6067 195.631 42.4104 195.631 45.676V68.8792H187.574V45.676C187.574 44.4944 187.166 43.5061 186.35 42.7112C185.555 41.8948 184.62 41.4866 183.546 41.4866H166.627V68.8792ZM208.521 56.9553C208.521 58.137 208.919 59.136 209.714 59.9524C210.53 60.7473 211.476 61.1448 212.55 61.1448H225.44C226.515 61.1448 227.449 60.7473 228.244 59.9524C229.061 59.136 229.469 58.137 229.469 56.9553V45.676C229.469 44.4944 229.061 43.5061 228.244 42.7112C227.449 41.8948 226.515 41.4866 225.44 41.4866H212.55C211.476 41.4866 210.53 41.8948 209.714 42.7112C208.919 43.5061 208.521 44.4944 208.521 45.676V56.9553ZM237.525 56.9553C237.525 60.2209 236.354 63.0247 234.013 65.3665C231.671 67.7083 228.813 68.8792 225.44 68.8792H212.55C209.177 68.8792 206.319 67.7083 203.978 65.3665C201.636 63.0247 200.465 60.2209 200.465 56.9553V45.676C200.465 42.4104 201.636 39.6067 203.978 37.2649C206.319 34.9231 209.177 33.7522 212.55 33.7522H225.44C228.813 33.7522 231.671 34.9231 234.013 37.2649C236.354 39.6067 237.525 42.4104 237.525 45.676V56.9553ZM250.416 56.9553C250.416 58.137 250.813 59.136 251.608 59.9524C252.425 60.7473 253.37 61.1448 254.444 61.1448H271.363V41.4866H254.444C253.37 41.4866 252.425 41.8948 251.608 42.7112C250.813 43.5061 250.416 44.4944 250.416 45.676V56.9553ZM279.42 68.8792H254.444C251.071 68.8792 248.214 67.7083 245.872 65.3665C243.53 63.0247 242.359 60.2209 242.359 56.9553V45.676C242.359 42.4104 243.53 39.6067 245.872 37.2649C248.214 34.9231 251.071 33.7522 254.444 33.7522H271.363V22.4729H279.42V68.8792ZM292.311 56.9553C292.311 58.137 292.708 59.136 293.503 59.9524C294.319 60.7473 295.265 61.1448 296.339 61.1448H309.229C310.304 61.1448 311.238 60.7473 312.033 59.9524C312.85 59.136 313.258 58.137 313.258 56.9553V45.676C313.258 44.4944 312.85 43.5061 312.033 42.7112C311.238 41.8948 310.304 41.4866 309.229 41.4866H296.339C295.265 41.4866 294.319 41.8948 293.503 42.7112C292.708 43.5061 292.311 44.4944 292.311 45.676V56.9553ZM321.314 56.9553C321.314 60.2209 320.144 63.0247 317.802 65.3665C315.46 67.7083 312.603 68.8792 309.229 68.8792H296.339C292.966 68.8792 290.108 67.7083 287.767 65.3665C285.425 63.0247 284.254 60.2209 284.254 56.9553V45.676C284.254 42.4104 285.425 39.6067 287.767 37.2649C290.108 34.9231 292.966 33.7522 296.339 33.7522H309.229C312.603 33.7522 315.46 34.9231 317.802 37.2649C320.144 39.6067 321.314 42.4104 321.314 45.676V56.9553ZM326.148 68.8792V45.676C326.148 42.4104 327.319 39.6067 329.661 37.2649C332.003 34.9231 334.86 33.7522 338.233 33.7522H350.351L350.318 41.4866H338.233C337.159 41.4866 336.214 41.8948 335.397 42.7112C334.603 43.5061 334.205 44.4944 334.205 45.676V68.8792H326.148Z" fill="url(#paint0_linear_1155_709)"/>
<defs>
<linearGradient id="paint0_linear_1155_709" x1="229.469" y1="4.23462" x2="229.469" y2="87.2346" gradientUnits="userSpaceOnUse">
<stop offset="0.36" stop-color="#26CF7B"/>
<stop offset="1" stop-color="#209D5F"/>
</linearGradient>
</defs>
</svg>
