<svg width="583" height="137" viewBox="0 0 583 137" fill="none" xmlns="http://www.w3.org/2000/svg">
<path d="M33.0418 136.173C22.2731 136.173 14.1267 133.656 8.60252 128.621C3.14826 123.657 0.421134 116.594 0.421134 107.434C0.421134 104.287 0.840692 100.756 1.67981 96.8399C2.58885 92.8541 3.81256 89.0082 5.35094 85.3021L15.4203 88.239C14.0218 91.2458 12.903 94.2876 12.0639 97.3644C11.2947 100.441 10.9101 103.098 10.9101 105.336C10.9101 109.741 12.4834 113.133 15.6301 115.51C18.7768 117.958 23.1822 119.181 28.8462 119.181H37.2374C43.1811 119.181 47.5515 117.818 50.3486 115.091C53.1456 112.364 54.5441 108.098 54.5441 102.294C54.5441 100.686 54.3693 98.623 54.0197 96.1057C53.6701 93.5883 53.2505 91.2108 52.761 88.9732L50.6632 79.2185L61.9913 77.0158L63.9842 86.6656C64.2639 87.9243 64.5086 89.3228 64.7184 90.8612C64.9282 92.3297 65.103 93.7981 65.2429 95.2666H74.6829V107.853L71.5362 111H65.0331C63.8443 119.601 60.6277 125.929 55.3833 129.985C50.2087 134.111 42.7615 136.173 33.0418 136.173ZM31.9929 79.7429C30.1748 79.7429 28.6714 79.1835 27.4826 78.0647C26.3638 76.9459 25.8044 75.1627 25.8044 72.7153C25.8044 70.2679 26.3638 68.4848 27.4826 67.3659C28.6714 66.2471 30.1748 65.6877 31.9929 65.6877H34.0907C35.9088 65.6877 37.3772 66.2471 38.496 67.3659C39.6848 68.4848 40.2792 70.2679 40.2792 72.7153C40.2792 75.1627 39.6848 76.9459 38.496 78.0647C37.3772 79.1835 35.9088 79.7429 34.0907 79.7429H31.9929ZM71.5534 98.4133L74.7001 95.2666H85.9233V107.853L82.7766 111H71.5534V98.4133ZM82.8209 98.4133L85.9676 95.2666H97.1907V107.853L94.0441 111H82.8209V98.4133ZM94.0883 98.4133L97.235 95.2666H108.458V107.853L105.311 111H94.0883V98.4133ZM105.356 98.4133L108.502 95.2666H119.726V107.853L116.579 111H105.356V98.4133ZM116.623 98.4133L119.77 95.2666H130.993V107.853L127.846 111H116.623V98.4133ZM127.891 98.4133L131.037 95.2666H142.26V107.853L139.114 111H127.891V98.4133ZM202.806 61.8068L176.793 73.7642L173.751 67.0513L199.764 54.989L202.806 61.8068ZM139.158 98.4133L142.305 95.2666H142.41C145.696 95.2666 148.179 94.882 149.857 94.1128C151.535 93.2737 152.864 91.8402 153.843 89.8123L157.933 81.3163L168.317 86.351L164.646 94.1128C166.324 94.882 168.038 95.5113 169.786 96.0008C171.534 96.4903 173.317 96.735 175.135 96.735C178.142 96.735 180.31 96.1057 181.638 94.847C182.967 93.5184 183.631 91.2108 183.631 87.9243V81.3163H195.169V87.9243C195.169 90.8612 195.589 92.994 196.428 94.3226C197.267 95.6512 198.805 96.3155 201.043 96.3155H202.092C203.91 96.3155 205.343 95.6512 206.392 94.3226C207.511 92.994 208.07 90.8612 208.07 87.9243V77.1207H219.608V87.9243C219.608 92.8191 222.056 95.2666 226.951 95.2666H231.146V107.853L227.999 111C222.685 111 218.629 109.951 215.832 107.853C213.105 105.686 211.357 102.294 210.588 97.679H209.958C209.539 102.714 208.28 106.42 206.182 108.797C204.085 111.105 201.288 112.259 197.791 112.259C194.085 112.259 191.218 111.105 189.19 108.797C187.162 106.42 185.764 102.714 184.995 97.679H184.365C183.806 102.714 182.547 106.42 180.589 108.797C178.701 111.105 176.184 112.259 173.037 112.259C171.009 112.259 168.982 111.874 166.954 111.105C164.996 110.406 162.409 109.112 159.192 107.224L157.094 105.965C154.926 107.993 152.444 109.357 149.647 110.056C146.92 110.685 143.424 111 139.158 111V98.4133ZM273.278 44.8068L247.266 56.7642L244.224 50.0513L270.236 37.989L273.278 44.8068ZM227.966 98.4133L231.113 95.2666H238.35C242.266 95.2666 245.762 95.2316 248.839 95.1617C251.986 95.0218 254.957 94.7421 257.755 94.3226C260.552 93.903 263.279 93.2737 265.936 92.4346C268.593 91.5954 271.425 90.4416 274.432 88.9732L278.313 87.0852V86.5607L261.531 82.9945L245.692 79.1136V86.9803H233.63V78.9038C233.63 73.939 234.679 70.3029 236.777 67.9953C238.944 65.6877 242.231 64.5339 246.636 64.5339C247.196 64.5339 247.755 64.5689 248.314 64.6388C248.944 64.7087 249.643 64.8136 250.412 64.9535C251.251 65.0933 252.23 65.3031 253.349 65.5828C254.468 65.8625 255.866 66.2122 257.545 66.6317L277.788 71.8762C280.585 72.6454 283.592 73.2398 286.809 73.6593C290.026 74.0789 293.207 74.2887 296.354 74.2887H298.452V90.0221H290.27L280.411 96.735C275.796 99.8817 271.635 102.399 267.929 104.287C264.293 106.105 260.831 107.539 257.545 108.588C254.258 109.567 251.077 110.231 248 110.58C244.923 110.86 241.706 111 238.35 111H227.966V98.4133ZM319.056 120.44H323.251C329.615 120.44 334.265 119.146 337.202 116.559C340.209 113.972 341.677 109.671 341.607 103.658C341.607 102.049 341.502 100.371 341.292 98.623C341.083 96.8049 340.803 94.882 340.453 92.8541L338.251 78.9038L349.684 77.1207L351.257 86.8754C351.537 88.4138 351.746 89.8822 351.886 91.2808C352.096 92.6793 352.271 94.0079 352.411 95.2666H362.061V107.853L358.914 111H352.411C351.222 118.762 348.145 124.88 343.18 129.356C338.286 133.901 331.678 136.173 323.356 136.173H319.056V120.44ZM358.873 98.4133L362.02 95.2666H373.243V107.853L370.096 111H358.873V98.4133ZM370.14 98.4133L373.287 95.2666H384.51V107.853L381.364 111H370.14V98.4133ZM381.408 98.4133L384.555 95.2666H395.778V107.853L392.631 111H381.408V98.4133ZM442.326 25.0513L454.703 19.3872V18.8628C453.304 17.9538 452.22 16.8 451.451 15.4014C450.682 14.0029 450.297 12.4645 450.297 10.7863C450.297 7.77947 451.276 5.26212 453.234 3.23425C455.262 1.13647 457.814 0.0875706 460.891 0.0875706C463.898 0.0875706 466.38 1.06654 468.338 3.02448C470.366 4.98242 471.38 7.4648 471.38 10.4716C471.38 16.765 467.744 21.555 460.472 24.8415L445.367 31.7642L442.326 25.0513ZM457.01 10.4716C457.01 12.01 458.164 13.3386 460.472 14.4574L462.36 15.4014C463.129 14.842 463.688 14.2826 464.038 13.7232C464.387 13.0939 464.562 12.2897 464.562 11.3108C464.562 10.1919 464.178 9.28288 463.408 8.58362C462.709 7.81443 461.765 7.42984 460.576 7.42984C459.597 7.42984 458.758 7.70954 458.059 8.26895C457.36 8.82836 457.01 9.56259 457.01 10.4716ZM489.593 111C487.146 111 484.803 110.72 482.566 110.161C480.398 109.532 478.335 108.413 476.377 106.804C471.902 109.601 465.539 111 457.287 111H427.289C421.695 111 417.429 109.881 414.492 107.644C411.625 105.336 409.702 101.735 408.723 96.8399H408.094C407.115 101.735 405.437 105.336 403.059 107.644C400.682 109.881 397.22 111 392.675 111V98.4133L395.822 95.2666H398.969C404.563 95.2666 407.36 92.8191 407.36 87.9243V81.3163H418.898V87.9243C418.898 90.9311 419.737 92.994 421.415 94.1128L426.03 86.1412C428.478 81.8757 430.96 78.2395 433.477 75.2327C436.065 72.2258 438.757 69.7784 441.554 67.8904C444.351 66.0024 447.288 64.6388 450.364 63.7997C453.511 62.8907 456.868 62.4361 460.434 62.4361C468.685 62.4361 474.874 64.7087 478.999 69.254C483.125 73.7292 485.188 79.9877 485.188 88.0292C485.188 90.6864 484.943 92.994 484.454 94.9519C486.202 95.1617 487.915 95.2666 489.593 95.2666H492.74V107.853L489.593 111ZM457.287 95.2666C460.644 95.2666 463.406 95.1617 465.573 94.9519C467.811 94.6722 469.594 94.2526 470.923 93.6932C472.321 93.0639 473.3 92.2248 473.86 91.1759C474.419 90.127 474.699 88.7634 474.699 87.0852C474.699 84.0783 473.72 81.8407 471.762 80.3723C469.804 78.9038 466.552 78.1696 462.007 78.1696H458.861C455.714 78.1696 452.952 78.3094 450.574 78.5891C448.197 78.7989 446.099 79.2534 444.281 79.9527C442.463 80.652 440.82 81.6309 439.351 82.8896C437.883 84.1483 436.484 85.7915 435.156 87.8194L430.645 94.6372L430.96 95.2666H457.287ZM456.238 54.045C454.42 54.045 452.917 53.4856 451.728 52.3667C450.609 51.2479 450.05 49.4648 450.05 47.0174C450.05 44.57 450.609 42.7868 451.728 41.668C452.917 40.5492 454.42 39.9898 456.238 39.9898H458.336C460.154 39.9898 461.623 40.5492 462.741 41.668C463.93 42.7868 464.525 44.57 464.525 47.0174C464.525 49.4648 463.93 51.2479 462.741 52.3667C461.623 53.4856 460.154 54.045 458.336 54.045H456.238ZM489.575 98.4133L492.722 95.2666H503.945V107.853L500.798 111H489.575V98.4133ZM500.843 98.4133L503.989 95.2666H515.212V107.853L512.066 111H500.843V98.4133ZM528.982 27.0513L541.359 21.3872V20.8628C539.961 19.9538 538.877 18.8 538.108 17.4014C537.339 16.0029 536.954 14.4645 536.954 12.7863C536.954 9.77947 537.933 7.26212 539.891 5.23425C541.919 3.13647 544.471 2.08757 547.548 2.08757C550.555 2.08757 553.037 3.06654 554.995 5.02448C557.023 6.98242 558.037 9.4648 558.037 12.4716C558.037 18.765 554.401 23.555 547.128 26.8415L532.024 33.7642L528.982 27.0513ZM543.667 12.4716C543.667 14.01 544.821 15.3386 547.128 16.4574L549.016 17.4014C549.786 16.842 550.345 16.2826 550.695 15.7232C551.044 15.0939 551.219 14.2897 551.219 13.3108C551.219 12.1919 550.834 11.2829 550.065 10.5836C549.366 9.81443 548.422 9.42984 547.233 9.42984C546.254 9.42984 545.415 9.70954 544.716 10.2689C544.017 10.8284 543.667 11.5626 543.667 12.4716ZM512.11 98.4133L515.257 95.2666H522.494C526.41 95.2666 529.906 95.2316 532.983 95.1617C536.13 95.0218 539.102 94.7421 541.899 94.3226C544.696 93.903 547.423 93.2737 550.08 92.4346C552.737 91.5954 555.569 90.4416 558.576 88.9732L562.457 87.0852V86.5607L545.675 82.9945L529.836 79.1136V86.9803H517.774V78.9038C517.774 73.939 518.823 70.3029 520.921 67.9953C523.088 65.6877 526.375 64.5339 530.78 64.5339C531.34 64.5339 531.899 64.5689 532.459 64.6388C533.088 64.7087 533.787 64.8136 534.556 64.9535C535.396 65.0933 536.374 65.3031 537.493 65.5828C538.612 65.8625 540.011 66.2122 541.689 66.6317L561.933 71.8762C564.73 72.6454 567.736 73.2398 570.953 73.6593C574.17 74.0789 577.351 74.2887 580.498 74.2887H582.596V90.0221H574.414L564.555 96.735C559.94 99.8817 555.779 102.399 552.073 104.287C548.437 106.105 544.975 107.539 541.689 108.588C538.402 109.567 535.221 110.231 532.144 110.58C529.067 110.86 525.851 111 522.494 111H512.11V98.4133ZM542.948 56.1428C541.129 56.1428 539.626 55.5834 538.437 54.4645C537.318 53.3457 536.759 51.5626 536.759 49.1152C536.759 46.6677 537.318 44.8846 538.437 43.7658C539.626 42.647 541.129 42.0876 542.948 42.0876H545.045C546.863 42.0876 548.332 42.647 549.451 43.7658C550.639 44.8846 551.234 46.6677 551.234 49.1152C551.234 51.5626 550.639 53.3457 549.451 54.4645C548.332 55.5834 546.863 56.1428 545.045 56.1428H542.948Z" fill="url(#paint0_linear_1128_17)"/>
<defs>
<linearGradient id="paint0_linear_1128_17" x1="293.5" y1="-3" x2="293.937" y2="137.29" gradientUnits="userSpaceOnUse">
<stop offset="0.355769" stop-color="#26CF7B"/>
<stop offset="1" stop-color="#209D5F"/>
</linearGradient>
</defs>
</svg>
