<svg width="603" height="481" viewBox="0 0 603 481" fill="none" xmlns="http://www.w3.org/2000/svg">
<path d="M490.465 196.29C501.091 198.347 511.475 201.13 521.502 204.609C531.852 208.114 541.525 212.773 550.234 218.446C552.444 219.946 554.554 221.537 556.554 223.213L557.317 223.839L558.101 224.591L559.653 226.111C560.654 227.144 561.477 228.291 562.36 229.391C565.491 233.968 567.06 239.121 566.909 244.334C566.759 249.547 564.894 254.636 561.501 259.093L560.889 259.925L560.183 260.709L558.754 262.268C557.725 263.255 556.632 264.209 555.499 265.118L553.687 266.393C553.097 266.829 552.467 267.229 551.801 267.588C550.573 268.308 549.299 268.977 547.986 269.593C528.13 279.085 506.464 285.544 484.802 290.599C470.332 294.003 455.715 296.736 441.131 299.252C433.837 300.515 426.54 301.677 419.244 302.894C411.942 304.077 404.613 305.172 397.298 306.316C367.991 310.714 338.466 314.375 308.749 316.973C278.994 319.637 249.081 321.009 219.139 321.084C189.111 321.158 159.114 319.518 129.379 316.175C127.08 315.968 124.807 315.609 122.522 315.319L115.678 314.391C111.115 313.757 106.561 313.187 101.993 312.416C92.6385 310.998 83.4527 308.947 74.5346 306.286C69.9602 304.87 65.53 303.175 61.2835 301.214C60.2156 300.714 59.1477 300.215 58.1139 299.661C57.0266 299.13 55.9801 298.548 54.9801 297.917L51.8467 295.939C50.8718 295.214 49.9471 294.44 49.0051 293.686C48.0589 292.934 47.1906 292.121 46.4087 291.256C45.5546 290.437 44.7767 289.569 44.0812 288.659C43.3948 287.745 42.6958 286.836 42.0422 285.91L40.3988 283.003C38.4325 279.062 37.3201 274.884 37.109 270.647C37.0153 266.42 37.8038 262.21 39.4423 258.19C41.1297 254.174 43.7037 250.431 47.0426 247.138L49.6484 244.747C50.6012 244.02 51.5901 243.321 52.5678 242.614C53.0502 242.279 53.5688 241.872 54.0234 241.601L55.4038 240.75L58.1648 239.047C60.01 237.917 61.8349 236.764 63.6987 235.655L69.3601 232.403C76.9023 228.06 84.7316 224.058 92.6368 220.168C96.6423 218.296 100.636 216.404 104.686 214.597L110.804 211.95L113.863 210.627L116.966 209.373C133.477 202.654 150.488 196.747 167.903 191.685C185.293 186.655 203.008 182.375 220.974 178.863C256.862 171.831 293.438 167.548 330.073 164.974C352.185 163.395 374.569 162.775 396.427 162.501C417.366 162.264 430.918 163.131 439.318 164.335C445.434 165.211 445.415 166.181 440.18 167.037C434.944 167.894 424.489 168.615 409.729 169.181C391.05 169.888 370.66 170.586 351.403 171.55C307.092 173.775 262.952 178.305 220.179 187.169C177.487 196.033 136.1 209.217 98.8366 227.734C88.5935 232.88 78.4914 238.537 68.8026 244.49C66.4042 246.002 64.0112 247.511 61.6235 249.016C60.5311 249.753 59.6746 250.447 58.6753 251.147C57.7529 251.877 56.9786 252.711 56.1066 253.471C52.9389 256.692 50.7625 260.461 49.7523 264.474C48.9993 267.653 48.9615 270.913 49.6405 274.102L49.9299 275.291C50.0018 275.691 50.1189 276.085 50.2796 276.468L51.1896 278.778L52.4266 280.983L52.734 281.536L53.128 282.052L53.9081 283.086C54.1706 283.429 54.4137 283.784 54.6873 284.121L55.6226 285.07C56.2043 285.729 56.8506 286.349 57.5556 286.926L59.6911 288.645L62.0946 290.141C62.9341 290.673 63.8172 291.161 64.738 291.599C65.6499 292.09 66.6203 292.518 67.5721 292.967C69.4897 293.85 71.4845 294.644 73.5049 295.407C81.8978 298.335 90.6646 300.526 99.651 301.943C108.778 303.545 118.258 304.52 127.567 305.809C132.249 306.378 136.964 306.78 141.66 307.274L148.712 307.982C151.066 308.191 153.431 308.332 155.79 308.511L169.952 309.525L184.152 310.173C186.519 310.268 188.881 310.424 191.252 310.47L198.362 310.622C203.103 310.701 207.839 310.884 212.581 310.886C222.066 310.87 231.546 310.957 241.025 310.68C297.418 309.583 353.834 303.004 409.499 294.457C434.321 290.549 459.186 286.688 483.178 281.081C495.138 278.319 506.865 274.952 518.289 271.001C521.092 269.959 523.945 268.987 526.685 267.852C528.064 267.298 529.456 266.762 530.824 266.193L534.886 264.429C536.253 263.856 537.577 263.232 538.895 262.597C540.2 261.97 541.578 261.339 542.825 260.718C543.918 260.15 544.958 259.519 545.936 258.831C546.439 258.501 546.917 258.148 547.368 257.774L548.676 256.617C552.025 253.374 554.021 249.377 554.383 245.185C554.579 243.106 554.342 241.015 553.684 238.997C553.606 238.746 553.55 238.489 553.457 238.241L553.123 237.511C552.885 237.03 552.731 236.52 552.439 236.058L551.58 234.664C551.281 234.204 550.944 233.76 550.573 233.335C549.869 232.458 549.083 231.625 548.222 230.843C547.255 230.022 546.209 229.171 545.171 228.358C543.007 226.741 540.728 225.225 538.345 223.818C533.461 220.968 528.276 218.462 522.848 216.327C511.74 212.026 500.101 208.656 488.12 206.272C475.897 203.772 463.606 201.491 451.246 199.428C431.522 196.164 412.291 193.234 393.763 190.722C384.503 189.449 375.418 188.288 366.545 187.196C357.678 186.055 349.01 185.08 340.589 184.135C332.84 183.307 329.239 182.49 329.856 181.868C330.47 181.272 335.315 180.791 344.431 180.936C371.067 181.349 397.648 183.042 424.029 186.004C435.027 187.181 446.093 188.803 457.156 190.572C468.218 192.356 479.271 194.33 490.216 196.433C490.295 196.383 490.37 196.338 490.465 196.29Z" fill="#838383"/>
</svg>
