<svg width="795" height="147" viewBox="0 0 795 147" fill="none" xmlns="http://www.w3.org/2000/svg">
<path d="M753.35 13.375H765.548V25.894H753.35V13.375ZM758.486 48.043C756.453 48.043 754.42 48.364 752.494 49.006C750.461 49.648 748.642 50.611 746.93 51.788C745.218 52.965 743.827 54.356 742.65 55.854C741.473 57.459 740.724 59.171 740.403 60.99H728.526C728.74 57.459 729.703 54.249 731.522 51.253C733.234 48.364 735.588 45.903 738.37 43.763C741.152 41.73 744.255 40.125 747.786 39.055C751.21 37.985 754.848 37.343 758.486 37.343C763.194 37.343 767.367 38.092 771.112 39.483C774.857 40.874 778.067 42.8 780.849 45.368C783.524 47.936 785.664 51.146 787.376 54.784C788.981 58.422 790.051 62.595 790.693 67.089C791.121 71.048 791.549 74.258 791.87 76.612C792.084 78.966 792.405 80.999 792.619 82.497C792.833 83.995 793.154 85.279 793.368 86.349C793.582 87.419 793.796 88.596 794.224 89.88H721.036C719.538 89.88 718.789 89.559 718.789 88.703V80.357C718.789 79.715 719.003 79.287 719.431 79.073C719.859 78.966 720.394 78.859 721.036 78.859H780.314C780.1 78.431 779.886 77.789 779.672 76.933C779.458 76.077 779.244 75.007 779.03 73.83C778.816 72.653 778.602 71.369 778.388 70.085C778.174 68.801 777.96 67.41 777.853 66.126C777.425 63.13 776.676 60.455 775.606 58.208C774.429 55.961 773.038 54.035 771.326 52.537C769.614 51.039 767.581 49.969 765.441 49.22C763.194 48.471 760.84 48.043 758.486 48.043Z" fill="#F1EFC8"/>
<path d="M710.657 10.272L709.48 5.778L731.094 0L732.271 4.494L710.657 10.272Z" fill="#F1EFC8"/>
<path d="M721.014 78.8591C721.549 78.8591 722.084 78.9661 722.512 79.0731C722.94 79.2871 723.261 79.7151 723.261 80.3571V88.7031C723.261 89.5591 722.512 89.8801 721.014 89.8801H717.59C716.52 89.8801 715.45 89.7731 714.38 89.4521C713.31 89.1311 712.24 88.7031 711.17 88.0611C710.1 87.5261 709.244 86.8841 708.495 86.0281C707.639 85.1721 707.104 84.2091 706.676 83.1391H706.248C706.034 83.9951 705.82 84.9581 705.392 86.2421C704.964 87.5261 704.215 88.7031 703.252 89.8801H663.555V78.8591H694.05V67.6241C694.05 65.0561 693.729 62.7021 693.087 60.5621C692.445 58.4221 691.482 56.4961 690.198 54.8911C688.807 53.3931 687.095 52.1091 685.062 51.2531C682.922 50.3971 680.461 49.8621 677.572 49.8621H668.37V39.1621H677.572C681.424 39.1621 685.169 39.6971 688.593 40.7671C692.017 41.8371 695.12 43.5491 697.688 45.9031C700.256 48.2571 702.396 51.1461 703.894 54.7841C705.392 58.4221 706.248 62.8091 706.248 67.9451V69.6571C706.355 73.2951 707.532 75.7561 709.672 77.0401C711.812 78.3241 714.487 78.8591 717.697 78.8591H721.014Z" fill="#F1EFC8"/>
<path d="M649.216 10.272L648.039 5.778L669.653 0L670.83 4.494L649.216 10.272Z" fill="#F1EFC8"/>
<path d="M595.751 89.8798C594.253 89.8798 593.504 89.5588 593.504 88.7028V80.3568C593.504 79.7148 593.718 79.2868 594.146 79.0728C594.574 78.9658 595.109 78.8588 595.751 78.8588H608.698V78.4308C608.056 78.1098 607.307 77.4678 606.451 76.5048C605.595 75.5418 604.846 74.3648 604.204 72.9738C603.562 71.6898 602.92 70.1918 602.492 68.5868C601.957 66.9818 601.743 65.3768 601.743 63.6648C601.743 59.3848 602.385 55.6398 603.669 52.4298C604.953 49.2198 606.879 46.4378 609.233 44.1908C611.587 41.9438 614.476 40.2318 617.686 39.0548C620.896 37.9848 624.534 37.3428 628.386 37.3428C632.238 37.3428 635.769 37.8778 638.979 38.9478C642.189 40.0178 645.078 41.7298 647.432 43.8698C649.786 46.1168 651.712 48.8988 652.996 52.1088C654.28 55.4258 655.029 59.2778 655.029 63.6648C655.029 68.1588 654.387 72.0108 653.103 75.2208C651.819 78.5378 650 81.3198 647.646 83.4598C645.292 85.5998 642.51 87.2048 639.3 88.2748C635.983 89.3448 632.345 89.8798 628.386 89.8798H595.751ZM628.386 47.9358C623.678 47.9358 620.254 49.4338 617.9 52.3228C615.546 55.2118 614.369 58.9568 614.369 63.6648C614.369 68.3728 615.546 72.2248 617.9 75.0068C620.254 77.8958 623.785 79.2868 628.386 79.2868C632.88 79.2868 636.411 77.8958 638.765 75.0068C641.119 72.2248 642.403 68.3728 642.403 63.6648C642.403 58.9568 641.226 55.2118 638.872 52.3228C636.518 49.4338 632.987 47.9358 628.386 47.9358Z" fill="#F1EFC8"/>
<path d="M577.466 89.8804C575.968 89.8804 575.219 89.5594 575.219 88.7034V80.3574C575.219 79.7154 575.433 79.2874 575.861 79.0734C576.289 78.9664 576.824 78.8594 577.466 78.8594H595.763C597.261 78.8594 598.117 79.2874 598.117 80.0364V88.3824C598.117 89.1314 597.796 89.5594 597.368 89.6664C596.94 89.8804 596.405 89.8804 595.763 89.8804H577.466Z" fill="#F1EFC8"/>
<path d="M559.179 89.8804C557.681 89.8804 556.932 89.5594 556.932 88.7034V80.3574C556.932 79.7154 557.146 79.2874 557.574 79.0734C558.002 78.9664 558.537 78.8594 559.179 78.8594H577.476C578.974 78.8594 579.83 79.2874 579.83 80.0364V88.3824C579.83 89.1314 579.509 89.5594 579.081 89.6664C578.653 89.8804 578.118 89.8804 577.476 89.8804H559.179Z" fill="#F1EFC8"/>
<path d="M540.892 89.8804C539.394 89.8804 538.645 89.5594 538.645 88.7034V80.3574C538.645 79.7154 538.859 79.2874 539.287 79.0734C539.715 78.9664 540.25 78.8594 540.892 78.8594H559.189C560.687 78.8594 561.543 79.2874 561.543 80.0364V88.3824C561.543 89.1314 561.222 89.5594 560.794 89.6664C560.366 89.8804 559.831 89.8804 559.189 89.8804H540.892Z" fill="#F1EFC8"/>
<path d="M522.606 89.8804C521.108 89.8804 520.359 89.5594 520.359 88.7034V80.3574C520.359 79.7154 520.573 79.2874 521.001 79.0734C521.429 78.9664 521.964 78.8594 522.606 78.8594H540.903C542.401 78.8594 543.257 79.2874 543.257 80.0364V88.3824C543.257 89.1314 542.936 89.5594 542.508 89.6664C542.08 89.8804 541.545 89.8804 540.903 89.8804H522.606Z" fill="#F1EFC8"/>
<path d="M504.321 89.8804C502.823 89.8804 502.074 89.5594 502.074 88.7034V80.3574C502.074 79.7154 502.288 79.2874 502.716 79.0734C503.144 78.9664 503.679 78.8594 504.321 78.8594H522.618C524.116 78.8594 524.972 79.2874 524.972 80.0364V88.3824C524.972 89.1314 524.651 89.5594 524.223 89.6664C523.795 89.8804 523.26 89.8804 522.618 89.8804H504.321Z" fill="#F1EFC8"/>
<path d="M486.034 89.8804C484.536 89.8804 483.787 89.5594 483.787 88.7034V80.3574C483.787 79.7154 484.001 79.2874 484.429 79.0734C484.857 78.9664 485.392 78.8594 486.034 78.8594H504.331C505.829 78.8594 506.685 79.2874 506.685 80.0364V88.3824C506.685 89.1314 506.364 89.5594 505.936 89.6664C505.508 89.8804 504.973 89.8804 504.331 89.8804H486.034Z" fill="#F1EFC8"/>
<path d="M467.747 89.8804C466.249 89.8804 465.5 89.5594 465.5 88.7034V80.3574C465.5 79.7154 465.714 79.2874 466.142 79.0734C466.57 78.9664 467.105 78.8594 467.747 78.8594H486.044C487.542 78.8594 488.398 79.2874 488.398 80.0364V88.3824C488.398 89.1314 488.077 89.5594 487.649 89.6664C487.221 89.8804 486.686 89.8804 486.044 89.8804H467.747Z" fill="#F1EFC8"/>
<path d="M449.462 89.8804C447.964 89.8804 447.215 89.5594 447.215 88.7034V80.3574C447.215 79.7154 447.429 79.2874 447.857 79.0734C448.285 78.9664 448.82 78.8594 449.462 78.8594H467.759C469.257 78.8594 470.113 79.2874 470.113 80.0364V88.3824C470.113 89.1314 469.792 89.5594 469.364 89.6664C468.936 89.8804 468.401 89.8804 467.759 89.8804H449.462Z" fill="#F1EFC8"/>
<path d="M431.177 89.8804C429.679 89.8804 428.93 89.5594 428.93 88.7034V80.3574C428.93 79.7154 429.144 79.2874 429.572 79.0734C430 78.9664 430.535 78.8594 431.177 78.8594H449.474C450.972 78.8594 451.828 79.2874 451.828 80.0364V88.3824C451.828 89.1314 451.507 89.5594 451.079 89.6664C450.651 89.8804 450.116 89.8804 449.474 89.8804H431.177Z" fill="#F1EFC8"/>
<path d="M412.89 89.8804C411.392 89.8804 410.643 89.5594 410.643 88.7034V80.3574C410.643 79.7154 410.857 79.2874 411.285 79.0734C411.713 78.9664 412.248 78.8594 412.89 78.8594H431.187C432.685 78.8594 433.541 79.2874 433.541 80.0364V88.3824C433.541 89.1314 433.22 89.5594 432.792 89.6664C432.364 89.8804 431.829 89.8804 431.187 89.8804H412.89Z" fill="#F1EFC8"/>
<path d="M394.602 89.8804C393.104 89.8804 392.355 89.5594 392.355 88.7034V80.3574C392.355 79.7154 392.569 79.2874 392.997 79.0734C393.425 78.9664 393.96 78.8594 394.602 78.8594H412.899C414.397 78.8594 415.253 79.2874 415.253 80.0364V88.3824C415.253 89.1314 414.932 89.5594 414.504 89.6664C414.076 89.8804 413.541 89.8804 412.899 89.8804H394.602Z" fill="#F1EFC8"/>
<path d="M376.317 89.8804C374.819 89.8804 374.07 89.5594 374.07 88.7034V80.3574C374.07 79.7154 374.284 79.2874 374.712 79.0734C375.14 78.9664 375.675 78.8594 376.317 78.8594H394.614C396.112 78.8594 396.968 79.2874 396.968 80.0364V88.3824C396.968 89.1314 396.647 89.5594 396.219 89.6664C395.791 89.8804 395.256 89.8804 394.614 89.8804H376.317Z" fill="#F1EFC8"/>
<path d="M358.032 89.8804C356.534 89.8804 355.785 89.5594 355.785 88.7034V80.3574C355.785 79.7154 355.999 79.2874 356.427 79.0734C356.855 78.9664 357.39 78.8594 358.032 78.8594H376.329C377.827 78.8594 378.683 79.2874 378.683 80.0364V88.3824C378.683 89.1314 378.362 89.5594 377.934 89.6664C377.506 89.8804 376.971 89.8804 376.329 89.8804H358.032Z" fill="#F1EFC8"/>
<path d="M339.745 89.8804C338.247 89.8804 337.498 89.5594 337.498 88.7034V80.3574C337.498 79.7154 337.712 79.2874 338.14 79.0734C338.568 78.9664 339.103 78.8594 339.745 78.8594H358.042C359.54 78.8594 360.396 79.2874 360.396 80.0364V88.3824C360.396 89.1314 360.075 89.5594 359.647 89.6664C359.219 89.8804 358.684 89.8804 358.042 89.8804H339.745Z" fill="#F1EFC8"/>
<path d="M321.458 89.8804C319.96 89.8804 319.211 89.5594 319.211 88.7034V80.3574C319.211 79.7154 319.425 79.2874 319.853 79.0734C320.281 78.9664 320.816 78.8594 321.458 78.8594H339.755C341.253 78.8594 342.109 79.2874 342.109 80.0364V88.3824C342.109 89.1314 341.788 89.5594 341.36 89.6664C340.932 89.8804 340.397 89.8804 339.755 89.8804H321.458Z" fill="#F1EFC8"/>
<path d="M303.173 89.8804C301.675 89.8804 300.926 89.5594 300.926 88.7034V80.3574C300.926 79.7154 301.14 79.2874 301.568 79.0734C301.996 78.9664 302.531 78.8594 303.173 78.8594H321.47C322.968 78.8594 323.824 79.2874 323.824 80.0364V88.3824C323.824 89.1314 323.503 89.5594 323.075 89.6664C322.647 89.8804 322.112 89.8804 321.47 89.8804H303.173Z" fill="#F1EFC8"/>
<path d="M284.888 89.8804C283.39 89.8804 282.641 89.5594 282.641 88.7034V80.3574C282.641 79.7154 282.855 79.2874 283.283 79.0734C283.711 78.9664 284.246 78.8594 284.888 78.8594H303.185C304.683 78.8594 305.539 79.2874 305.539 80.0364V88.3824C305.539 89.1314 305.218 89.5594 304.79 89.6664C304.362 89.8804 303.827 89.8804 303.185 89.8804H284.888Z" fill="#F1EFC8"/>
<path d="M266.601 89.8804C265.103 89.8804 264.354 89.5594 264.354 88.7034V80.3574C264.354 79.7154 264.568 79.2874 264.996 79.0734C265.424 78.9664 265.959 78.8594 266.601 78.8594H284.898C286.396 78.8594 287.252 79.2874 287.252 80.0364V88.3824C287.252 89.1314 286.931 89.5594 286.503 89.6664C286.075 89.8804 285.54 89.8804 284.898 89.8804H266.601Z" fill="#F1EFC8"/>
<path d="M248.315 89.8804C246.817 89.8804 246.068 89.5594 246.068 88.7034V80.3574C246.068 79.7154 246.282 79.2874 246.71 79.0734C247.138 78.9664 247.673 78.8594 248.315 78.8594H266.612C268.11 78.8594 268.966 79.2874 268.966 80.0364V88.3824C268.966 89.1314 268.645 89.5594 268.217 89.6664C267.789 89.8804 267.254 89.8804 266.612 89.8804H248.315Z" fill="#F1EFC8"/>
<path d="M248.349 78.859C248.884 78.859 249.419 78.966 249.847 79.073C250.275 79.287 250.596 79.715 250.596 80.357V88.703C250.596 89.559 249.847 89.88 248.349 89.88H226.521V13.375H238.719V78.859H248.349Z" fill="#F1EFC8"/>
<path d="M183.816 13.375H196.014V25.894H183.816V13.375ZM201.899 13.375H214.097V25.894H201.899V13.375ZM200.294 78.859V44.298H212.492V89.88H180.499C179.001 89.88 178.252 89.559 178.252 88.703V80.357C178.252 79.715 178.466 79.287 178.894 79.073C179.322 78.966 179.857 78.859 180.499 78.859H200.294Z" fill="#F1EFC8"/>
<path d="M169.585 131.075L168.408 126.581L190.022 120.803L191.199 125.297L169.585 131.075Z" fill="#F1EFC8"/>
<path d="M127.982 134.285H140.18V146.804H127.982V134.285ZM146.065 134.285H158.263V146.804H146.065V134.285ZM142.32 119.626C134.83 119.626 128.624 118.663 123.595 116.63C118.566 114.704 114.5 111.922 111.397 108.284C108.294 104.646 106.047 100.366 104.763 95.23C103.372 90.094 102.623 84.423 102.623 78.217L113.014 49.3799C113.014 54.9439 114.393 88.489 115.677 92.341C116.961 96.193 118.78 99.403 121.241 101.864C123.702 104.325 126.698 106.144 130.229 107.321C133.76 108.498 137.826 109.033 142.534 109.033C145.958 109.033 149.061 108.819 152.057 108.391C155.053 107.963 157.621 107.107 159.761 106.037C161.901 104.967 163.613 103.576 164.897 101.864C166.181 100.152 166.823 98.119 166.823 95.551C166.823 95.123 166.716 94.588 166.502 93.946C166.288 93.304 165.967 92.769 165.539 92.127C165.111 91.485 164.576 90.95 163.934 90.522C163.292 90.094 162.65 89.88 162.008 89.88C161.152 89.88 160.296 89.88 159.226 89.666C158.156 89.559 157.086 89.345 155.909 89.024C154.732 88.81 153.555 88.382 152.378 87.847C151.094 87.419 150.024 86.777 149.061 86.135V75.542C149.917 76.077 150.987 76.505 152.485 76.933C153.983 77.361 155.481 77.789 157.193 78.003C158.798 78.324 160.403 78.538 162.008 78.645C163.506 78.859 164.897 78.859 165.967 78.859H180.519C181.054 78.859 181.589 78.966 182.017 79.073C182.445 79.287 182.766 79.715 182.766 80.357V88.703C182.766 89.559 182.017 89.88 180.519 89.88H173.029C173.992 90.95 174.848 92.448 175.49 94.16C176.132 95.872 176.453 97.477 176.453 98.868C176.453 101.65 175.704 104.218 174.206 106.679C172.708 109.247 170.568 111.387 167.786 113.313C164.897 115.239 161.366 116.844 157.086 117.914C152.806 119.091 147.884 119.626 142.32 119.626Z" fill="#F1EFC8"/>
<path d="M99.1401 78.487L103.028 79.1027L112.654 51.1208L112.709 50.5513L112.915 49.9823C110.105 49.318 105.04 48.4965 102.229 47.8279C101.326 47.6138 100.715 47.5497 100.396 47.6357C99.2295 47.9505 98.8223 48.648 98.5419 49.7178C96.3783 57.9785 94.2605 66.0763 92.1883 74.0113C91.881 75.1879 92.0822 76.0607 92.7917 76.6299C93.1392 76.9069 93.8416 77.1711 94.8989 77.4225C96.3166 77.7609 97.7304 78.1157 99.1401 78.487ZM98.988 70.1619C99.0278 69.9104 99.1168 69.6691 99.2499 69.452C99.383 69.2348 99.5575 69.046 99.7636 68.8962C99.9697 68.7465 100.203 68.6389 100.451 68.5794C100.699 68.52 100.955 68.5099 101.207 68.5497C101.715 68.6302 102.17 68.9092 102.473 69.3253C102.775 69.7415 102.9 70.2607 102.819 70.7688C102.739 71.2768 102.46 71.7321 102.044 72.0345C101.628 72.3368 101.108 72.4615 100.6 72.381C100.349 72.3412 100.107 72.2522 99.8902 72.1191C99.6731 71.986 99.4842 71.8114 99.3345 71.6054C99.1848 71.3993 99.0772 71.1658 99.0177 70.9181C98.9582 70.6705 98.9481 70.4135 98.988 70.1619Z" fill="#F1EFC8"/>
<path d="M67.6935 52.5484C70.9215 53.3959 69.6385 58.294 66.3653 57.4393C59.2701 55.5832 52.0416 53.6905 44.6798 51.7613C43.0825 51.3421 41.7747 50.5775 40.7563 49.4675C40.3442 49.0196 39.9398 48.6754 39.5431 48.4348C30.1675 42.7258 20.7916 37.0187 11.4154 31.3135C10.7403 30.9033 9.83778 30.8125 8.70786 31.0412C4.48029 31.8933 3.26422 37.7962 6.72609 40.3328C20.0642 50.1088 33.441 59.9268 46.8566 69.7866C48.8177 71.2276 50.3919 72.2257 51.5793 72.7809C56.9262 75.2741 62.3741 75.5196 68.0013 73.9558C68.9534 73.6912 69.9359 73.411 70.9488 73.1155C76.172 71.5892 81.3596 71.5142 86.5114 72.8906C86.6209 72.9195 86.6902 72.8783 86.7194 72.767L94.4701 43.1377C94.5076 42.9988 94.4567 42.9115 94.3174 42.8759C93.1306 42.5855 91.8353 42.248 90.4315 41.8633C86.2938 40.7326 82.1963 40.7271 78.1389 41.8467C76.8641 42.1975 75.5772 42.5569 74.2784 42.9251C69.5529 44.2616 64.6155 44.2757 59.4664 42.9674C55.8274 42.0432 52.0564 41.0498 48.1533 39.9872C47.3753 39.7751 46.7257 39.735 46.2043 39.8669C44.1062 40.3955 43.0295 42.7466 43.7183 44.7658C44.1257 45.9636 44.9884 46.6104 46.1883 46.9221C53.1991 48.7494 60.3675 50.6248 67.6935 52.5484Z" fill="#F1EFC8"/>
</svg>
