<svg width="305" height="373" viewBox="0 0 305 373" fill="none" xmlns="http://www.w3.org/2000/svg">
<g clip-path="url(#clip0_141_207)">
<path d="M74.5204 45.5288C102.132 46.4715 129.531 52.3986 154.639 64.0341C172.304 72.2163 187.244 83.6965 197.52 100.423C200.806 105.774 203.751 112.77 206.674 118.985C211.852 129.989 221.431 140.106 231.036 147.409C248.54 160.703 268.452 170.112 285.72 183.768C300.048 195.108 310.826 212.136 311.757 230.603C313.027 255.689 292.867 269.649 270.984 274.708C242.409 281.316 210.954 276.551 189.138 300.868C181.603 309.263 175.46 318.899 169.133 328.202C156.754 346.413 140.705 358.514 117.815 357.282C83.0268 355.41 60.8632 321.802 63.8981 289.018C66.4902 261.04 82.8737 237.051 83.8696 208.254C84.9627 176.639 60.3927 157.598 39.4918 138.85C34.2725 134.17 29.2765 128.979 24.5038 123.275C9.09038 104.88 1.89326 75.6219 23.526 58.2885C37.5413 47.0693 57.2578 44.943 74.5204 45.5288ZM67.6505 272.569C62.5665 291.816 63.1196 310.453 73.1666 328.135C76.308 333.673 80.0492 338.419 84.3902 342.373C102.46 358.841 130.52 361.723 150.512 347.031C164.285 336.902 173.275 319.177 182.744 307.094C191.721 295.631 201.306 287.394 215.618 283.104C229.247 279.019 246.402 277.491 256.767 276.284C271.052 274.634 286.924 270.594 297.383 261.421C321.038 240.669 310.577 207.49 290.223 188.86C265.587 166.316 231.624 156.442 211.525 128.594C207.024 122.355 204.183 114.857 200.718 108.014C192.332 91.4554 180.203 79.2275 164.202 70.1514C133.914 52.9734 98.0442 45.6179 63.4643 46.5885C40.8436 47.2196 14.3454 55.8347 11.3006 82.3605C7.93195 111.626 33.2389 132.215 52.5587 149.396C67.0841 162.315 80.9464 177.139 83.9374 197.28C87.763 223.042 74.1262 248.068 67.6505 272.569Z" fill="#551AA6"/>
<path d="M75.0138 257.182C83.0791 233.808 94.835 206.03 82.4431 181.694C71.5829 160.356 52.5885 149.534 34.6745 130.271C24.6265 119.474 16.9544 105.231 17.4078 90.1424C18.2436 62.4837 46.1607 52.8648 69.6314 52.281C98.8152 51.5573 128.486 57.5296 155.02 69.7202C172.073 77.5644 186.974 88.9449 196.724 105.567C199.252 109.867 201.578 115.278 203.86 120.17C209.36 131.959 218.066 141.775 228.405 149.54C246.671 163.26 266.532 172.086 283.371 186.829C301.907 203.06 315.095 234.814 294.8 255.644C286.899 263.757 275.168 268.585 264.175 270.904C237.048 276.616 207.663 272.749 187.382 296.133C178.091 306.852 171.333 319.296 162.238 330.147C151.147 343.379 135.497 350.919 118.152 349.012C84.2752 345.302 64.4587 312.347 69.3369 280.246C70.5307 272.386 72.4229 264.698 75.0138 257.182ZM86.7905 221.4C81.405 245.524 68.0009 268.653 69.52 293.98C70.9716 318.2 85.733 339.993 109.727 346.53C126.697 351.157 144.159 347.121 156.683 334.587C170.048 321.213 177.799 303.307 191.573 290.555C211.429 272.177 239.474 275.38 265.558 269.644C276.828 267.164 288.064 262.093 295.621 253.213C313.455 232.234 300.493 203.157 282.86 187.418C258.134 165.355 223.745 156.13 206.325 126.572C203.688 122.098 200.588 114.174 197.938 109.36C190.528 95.8955 180.283 85.2178 167.204 77.327C138.632 60.0904 103.369 52.5998 70.2667 53.1243C57.851 53.3207 44.6182 55.7433 34.1473 62.4641C21.6602 70.4837 16.2593 85.2192 19.0749 99.5945C21.9961 114.524 31.7328 127.188 43.1993 137.714C54.8021 148.373 67.2656 158.423 76.7955 170.933C88.0542 185.704 90.7983 203.414 86.7905 221.4Z" fill="#551AA6"/>
<path d="M81.8469 58.8246C105.77 59.495 129.219 64.1432 151.371 73.6462C169.455 81.3974 184.546 91.9812 194.876 109.015C198.116 114.351 200.372 120.756 203.474 126.458C211 140.27 222.332 150.164 235.585 158.48C243.88 163.683 252.189 168.865 260.51 174.026C266.611 177.806 272.646 182.409 278.615 187.834C295.505 203.179 306.922 231.996 289.088 251.445C281.576 259.637 269.723 264.515 258.938 266.735C232.929 272.09 204.879 268.522 185.692 291.319C179.383 298.817 174.072 307.118 168.519 315.182C157.027 331.89 141.962 342.745 120.677 340.823C93.0674 338.338 74.4532 313.523 73.422 287.131C72.2431 257.08 93.306 231.448 91.6324 201.045C90.9383 188.464 85.2795 176.973 76.9879 167.579C64.0707 152.938 47.7252 142.015 35.8406 126.416C27.5494 115.527 22.3728 100.49 25.9458 87.2049C32.3837 63.2888 61.0616 58.2374 81.8469 58.8246ZM80.8357 171.142C105.35 202.769 84.5988 234.073 76.5561 266.474C71.8114 285.595 74.1321 305.039 86.2471 320.846C101.578 340.856 131.058 347.007 151.89 331.608C158.346 326.833 164.275 319.607 168.991 312.771C174.573 304.677 179.912 296.454 186.524 289.137C201.14 272.953 221.806 270.523 242.188 268.393C256.347 266.914 272.396 264.103 283.351 255.395C301.801 240.736 300.237 217.681 287.675 199.43C278.66 186.324 264.682 177.136 250.999 169.056C234.75 159.462 216.61 148.62 206.091 132.389C202.695 127.14 199.445 118.936 196.739 113.888C189.654 100.69 180.102 90.5053 168.084 83.3332C144.415 69.2073 117.321 61.6669 89.7036 60.1313C73.5861 59.2301 56.2963 59.4483 42.047 67.8725C32.467 73.5337 26.7688 83.003 25.9044 93.9835C24.4964 111.807 36.3753 128.085 49.1267 139.856C60.0933 149.979 71.6347 159.276 80.8357 171.142Z" fill="#551AA6"/>
<path d="M82.7993 65.5058C111.588 65.6341 140.772 72.1961 165.786 86.2943C177.308 92.7915 186.536 101.737 193.47 113.13C195.884 117.088 197.999 122.154 200.128 126.665C210.491 148.57 231.271 159.751 251.267 171.867C263.651 179.371 275.953 188.322 283.636 200.894C296.191 221.427 293.701 245.735 270.193 256.955C263.397 260.196 256.265 262.376 248.798 263.495C236.73 265.298 224.47 266.002 212.582 268.823C197.924 272.304 187.984 280.419 179.403 292.559C173.793 300.497 168.583 308.789 162.278 316.196C151.844 328.455 137.177 334.771 121.089 332.483C96.8154 329.037 80.4573 307.919 78.5295 284.113C77.0317 265.605 85.092 247.345 90.8125 230.189C94.0266 220.552 96.3229 209.165 95.4696 199.137C92.8068 167.751 61.5728 153.691 43.2642 130.258C34.7144 119.31 29.1836 103.735 34.1189 89.9988C41.1551 70.4505 64.5757 65.4243 82.7993 65.5058ZM86.6436 173.508C106.503 200.849 90.969 229.232 82.7559 256.766C77.3886 274.765 77.3302 292.53 87.3599 309.057C96.9292 324.829 113.629 333.409 131.763 331.829C156.638 329.662 167.168 307.583 180.202 289.995C186.992 280.834 194.669 274.209 205.366 270.188C211.342 267.946 218.478 266.351 226.773 265.404C237.728 264.15 248.818 263.053 259.492 260.196C282.485 254.03 296.24 235.322 287.78 211.722C282.173 196.074 270.712 185.403 257.145 176.541C247.983 170.561 238.48 165.181 229.33 159.174C218.067 151.779 206.266 141.486 200.656 129.265C198.204 123.917 196.522 120.372 195.611 118.629C188.317 104.611 177.762 94.1673 164.103 86.508C140.093 73.0367 111.905 66.6712 84.5116 66.3061C64.7432 66.0429 39.4553 71.0639 34.1518 93.6827C29.6311 112.954 42.4945 130.391 55.7703 142.597C66.4443 152.415 78.2031 161.889 86.6436 173.508Z" fill="#551AA6"/>
<path d="M92.7818 72.2122C118.143 73.183 143.566 79.2963 165.624 91.688C176.699 97.9081 185.546 106.496 192.163 117.453C194.506 121.336 196.805 126.957 198.543 130.56C212.815 160.181 246.446 167.454 268.371 188.955C284.897 205.163 293.004 234.69 269.779 249.955C262.186 254.942 253.739 257.494 244.861 259.087C223.927 262.852 201.833 260.881 185.873 277.831C168.731 296.046 161.159 324.536 129.758 324.711C105.567 324.842 87.1649 305.401 83.7373 282.472C79.3961 253.381 100.631 228.87 99.5055 199.972C99.0615 188.651 93.9368 178.206 86.5001 169.728C74.6465 156.223 59.5556 146.234 48.852 131.675C38.6458 117.79 34.9435 97.3793 48.6989 84.1749C59.8391 73.4889 78.1879 71.6472 92.7818 72.2122ZM99.723 194.53C103.117 216.597 90.9991 237.447 85.98 258.355C82.3301 273.565 83.5564 288.848 91.8221 302.299C99.6839 315.091 112.451 322.958 127.478 323.779C166.597 325.901 169.133 282.637 197.928 267.778C205.413 263.919 214.884 261.924 223.504 260.95C235.677 259.581 248.838 258.517 260.271 253.951C279.675 246.201 288.063 229.259 280.696 209.279C275.174 194.314 262.798 183.688 249.746 175.551C234.351 165.968 217.997 157.544 205.952 143.534C200.322 136.982 196.883 128.027 193.585 121.604C187.065 108.922 177.191 98.9718 163.963 91.7529C141.236 79.3473 114.994 73.3602 89.2119 72.977C77.3764 72.798 63.9692 74.5975 53.996 81.0625C42.33 88.6255 38.2411 102.758 42.059 115.864C45.8443 128.845 55.2128 139.241 65.201 148.034C79.4699 160.594 96.672 174.672 99.723 194.53Z" fill="#551AA6"/>
<path d="M87.4606 79.0507C114.536 78.1209 142.641 84.066 166.101 97.4322C176.069 103.111 184.11 110.877 190.225 120.728C192.71 124.743 195.063 130.532 196.95 134.356C206.676 154.14 227.47 164.508 245.444 175.698C253.079 180.448 261.02 186.442 266.52 193.261C276.609 205.749 282.441 225.394 271.143 239.433C258.17 255.556 233.685 255.347 215.234 258.038C203.106 259.812 192.182 264.12 183.865 273.408C173.955 284.487 167.578 299.346 155.704 308.471C145.759 316.113 132.565 318.491 120.573 315.038C98.7809 308.754 86.0709 286.195 88.2721 264.17C89.8812 248.025 96.7899 235.358 101.261 217.688C103.087 210.47 104.068 202.495 103.016 195.313C100.101 175.419 83.6902 162.775 69.4324 149.902C58.2776 139.826 48.023 127.464 47.2545 111.765C46.1148 88.5892 68.2122 79.7092 87.4606 79.0507ZM167.552 99.4043C143.822 84.7092 112.602 78.562 84.68 79.9718C80.2705 80.1929 75.7673 81.0181 71.1705 82.4473C57.6163 86.6607 48.2849 95.7499 48.1816 110.65C48.0368 131.086 66.2136 146.079 80.0682 158.27C86.7773 164.172 93.3954 170.831 97.96 178.557C111.451 201.376 99.7982 224.216 92.8929 246.131C87.5689 263.035 86.7877 279.009 95.8429 294.819C109.047 317.867 141.534 323.48 160.134 303.311C174.334 287.911 180.743 267.188 202.784 260.132C214.594 256.35 226.737 255.689 238.689 254.049C249.739 252.535 261.726 248.654 269.229 240.17C278.977 229.143 278.03 214.215 271.231 201.875C265.465 191.403 256.642 183.832 246.581 177.376C230.772 167.227 213.141 158.696 201.623 143.469C198.253 139.018 195.958 133.781 193.414 128.362C187.694 116.19 179.074 106.538 167.552 99.4043Z" fill="#551AA6"/>
<path d="M96.5013 85.4474C120.266 85.5694 144.256 90.8709 165.041 102.297C174.72 107.613 182.522 114.939 188.446 124.275C191.245 128.691 193.678 135.166 196.024 139.402C201.789 149.808 210.532 157.402 220.418 163.739C231.442 170.8 242.985 177.085 253.066 185.499C262.915 193.722 270.741 206.63 270.36 219.824C269.873 236.618 256.29 245.837 241.132 249.335C220.675 254.049 198.016 250.686 182.524 268.226C177.107 274.359 172.636 281.389 168.014 288.127C158.445 302.086 144.896 310.895 127.24 307.836C106.095 304.175 92.1952 283.303 92.9029 262.579C93.3905 248.33 100.792 231.009 104.213 220.085C105.788 215.057 106.802 209.604 107.253 203.727C110.048 167.22 68.4353 157.124 57.0093 127.534C50.2012 109.903 58.0146 94.1801 75.8781 88.5587C82.5902 86.4478 89.4647 85.4107 96.5013 85.4474ZM104.261 293.09C117.201 308.716 139.719 312.769 155.967 299.996C167.319 291.071 172.018 278.141 182.942 266.523C195.231 253.45 212.648 252.389 229.378 250.441C242.982 248.864 258.633 245.057 266.062 232.129C275.254 216.143 265.022 196.719 252.541 186.102C235.677 171.754 213.583 164.531 199.734 146.548C196.377 142.19 194.198 137.246 191.724 131.902C175.844 97.5939 128.839 85.9556 94.7374 86.3805C85.0594 86.4991 73.7341 88.5223 65.9962 94.2961C55.244 102.319 53.1137 116.293 58.2288 128.331C69.7033 155.354 105.643 165.101 108.036 197.109C109.366 214.855 100.059 231.825 95.7805 248.62C91.7289 264.509 93.563 280.168 104.261 293.09Z" fill="#551AA6"/>
<path d="M247.358 185.494C266.272 201.327 272.268 231.374 244.29 242.452C239.492 244.348 234.535 245.674 229.419 246.43C212.364 248.938 194.241 248.313 181.488 262.733C172.978 272.356 167.456 284.602 157.641 292.768C146.534 302.001 129.988 302.391 117.734 295.213C105.081 287.802 97.795 273.033 97.8015 258.694C97.8027 250.879 99.9664 242.624 102.572 235.09C106.286 224.332 110.421 213.496 111.222 202.133C112.767 180.211 95.6693 167.215 81.3503 154.223C70.394 144.291 59.1796 130.038 62.6424 114.202C66.2055 97.9068 83.9356 92.5898 98.5268 92.267C111.712 91.9812 124.68 93.5078 137.431 96.847C156.195 101.759 175.68 110.712 186.498 127.558C189.951 132.934 192.216 139.978 195.984 145.677C206.523 161.609 225.116 169.834 239.867 179.722C241.869 181.065 244.366 182.989 247.358 185.494ZM111.653 193.489C115.46 219.981 93.1885 242.186 99.906 269.187C103.749 284.64 116.447 297.431 132.602 299.189C147.627 300.82 158.378 293.074 166.716 281.345C172.517 273.18 179.219 261.487 188.967 255.118C204.646 244.866 225.632 248.657 242.938 242.08C259.712 235.706 267.033 220.97 259.965 203.982C253.059 187.385 237.385 178.659 222.723 169.929C213.634 164.515 204.981 158.306 198.203 150.102C193.493 144.406 190.797 136.433 188.051 131.675C171.313 102.699 130.796 92.76 100.05 93.0236C91.0401 93.0962 80.3513 94.9241 73.1018 100.144C64.8582 106.079 61.8342 115.538 63.5049 125.29C65.7087 138.199 75.97 148.447 85.4405 156.696C96.7736 166.567 109.371 177.614 111.653 193.489Z" fill="#551AA6"/>
<path d="M108.039 98.7666C126.526 99.2122 144.865 103.194 161.512 111.359C171.254 116.142 179.689 123.105 185.437 132.224C188.025 136.325 190.371 142.674 192.583 146.417C204.669 166.834 228.365 172.528 244.608 188.22C255.533 198.771 261.937 218.056 250.458 230.62C237.529 244.777 214.82 241.604 198.038 246.299C188.205 249.05 181.418 254.951 175.683 263.174C171.047 269.819 166.714 276.933 160.949 282.672C148.283 295.267 128.529 294.905 115.529 283.15C104.916 273.559 100.863 258.87 103.52 245C106.434 229.773 114.207 216.118 115.11 200.466C117.015 167.305 76.31 159.363 70.209 130.688C66.7178 114.319 76.9601 103.446 92.2783 100.22C97.474 99.1239 102.728 98.6393 108.039 98.7666ZM131.79 290.539C146.671 293.641 158.41 286.393 166.587 274.584C172.23 266.435 178.198 256.488 186.112 250.893C192.07 246.68 200.488 244.332 208.019 243.404C219.128 242.027 232.618 241.236 242.054 236.001C264.248 223.68 256.152 198.52 240.424 185.533C233.204 179.571 225.138 174.936 217.116 170.172C207.645 164.545 195.969 155.63 191.362 145.644C188.955 140.434 187.341 137.123 186.52 135.709C170.319 107.902 131.341 98.6869 101.6 99.8652C88.5504 100.382 72.8463 105.887 70.7308 120.89C68.9657 133.365 76.2098 144.578 84.9521 152.874C95.2339 162.626 107.73 171.529 113.462 185.002C117.415 194.287 116.254 205.816 113.257 215.318C110.315 224.627 103.902 239.938 103.529 252.524C103.021 269.701 114.509 286.932 131.79 290.539Z" fill="#551AA6"/>
<path d="M107.814 105.585C127.52 105.045 147.692 109.328 164.928 118.651C174.17 123.655 182.075 131.541 186.629 141.249C188.18 144.563 189.796 148.24 191.648 151.112C204.266 170.611 229.803 175.29 242.597 192.651C249.682 202.272 253.064 216.119 244.809 226.294C238.446 234.134 226.995 237.114 217.026 238.237C204.591 239.644 191.344 240.443 182.128 248.92C171.279 258.914 166.755 275.065 152.458 281.375C146.423 284.038 140.172 284.626 133.703 283.141C115.097 278.861 105.128 259.627 108.155 241.459C110.501 227.397 117.671 214.944 118.979 200.629C121.208 176.191 97.9065 165.66 84.8836 149.703C76.3465 139.238 72.763 123.226 84.1201 113.25C90.2339 107.881 99.6994 105.803 107.814 105.585ZM110.749 174.105C138.614 206.646 91.2814 236.914 115.694 270.008C124.411 281.827 140.246 286.959 153.528 279.917C165.104 273.79 170.637 260.046 179.161 250.685C189.469 239.359 204.645 238.936 218.739 237.123C228.115 235.922 238.47 233.001 244.503 225.081C251.691 215.649 249.064 203.232 242.521 194.072C238.292 188.153 232.362 183.232 226.217 179.395C213.808 171.662 199.557 164.494 191.187 151.966C187.956 147.125 185.998 141.102 183.128 136.55C176.615 126.208 166.439 119.548 155.335 115.019C139.992 108.766 123.939 105.92 107.177 106.482C101.098 106.682 94.7421 107.889 89.3314 110.75C78.867 116.287 75.7734 127.141 79.3499 137.982C84.3888 153.247 100.707 162.376 110.749 174.105Z" fill="#551AA6"/>
<path d="M112.233 112.172C129.704 111.705 147.479 115.267 163.116 123.196C173.196 128.307 180.557 135.827 185.199 145.755C185.862 147.178 186.858 149.109 188.189 151.547C200.185 173.573 228.852 175.78 239.795 197.904C242.025 202.408 243.014 206.801 242.764 211.083C241.92 225.6 228.238 231.839 215.566 233.482C208.685 234.369 201.687 235.01 194.917 236.533C185.974 238.554 180.029 243.388 174.814 250.727C166.761 262.047 159.958 274.961 143.951 275.651C125.868 276.428 112.645 260.772 112.431 243.419C112.155 221.428 133.087 200.121 117.056 178.538C111.266 170.748 101.485 162.955 96.5242 158.11C89.2934 151.052 83.0469 141.229 84.6185 130.753C86.5672 117.759 100.395 112.491 112.233 112.172ZM120.794 183.589C129.588 201.332 116.946 218.363 113.862 236.627C111.786 248.91 115.914 261.133 125.595 268.846C132.486 274.337 141.889 276.366 150.424 273.777C163.619 269.766 169.339 254.981 177.827 245.507C187.509 234.711 201.802 234.481 215.099 232.699C223.817 231.536 233.646 228.457 238.739 220.629C246.249 209.1 239.202 194.381 229.752 186.338C215.478 174.182 195.333 168.501 186.668 150.436C184.946 146.853 183.188 142.899 181.218 139.927C167.146 118.696 133.105 111.87 109.451 113.255C94.5681 114.126 82.1841 123.732 86.034 139.868C87.8431 147.448 93.464 154.271 99.3112 159.534C107.13 166.562 116.171 174.261 120.794 183.589Z" fill="#551AA6"/>
<path d="M234.036 199.435C237.598 209.222 234.931 219.542 225.404 224.663C216.987 229.189 208.748 229.5 198.053 230.843C193.259 231.442 187.976 232.841 183.906 235.261C170.417 243.283 167.686 263.152 150.172 266.947C139.227 269.322 128.757 264.387 122.612 255.239C109.027 235.026 125.879 216.687 126.871 196.989C128.174 171.133 96.9426 165.979 92.3339 143.054C88.5971 124.458 106.612 118.534 121.131 118.718C139.518 118.945 165.921 125.042 177.862 140.257C181.105 144.392 183.261 148.946 185.689 153.567C186.952 155.967 188.105 157.856 189.15 159.235C201.603 175.697 226.437 178.562 234.036 199.435ZM124.098 213.446C120.904 222.413 117.393 231.928 118.35 240.973C119.592 252.688 128.226 264.116 140.325 266.298C151.4 268.294 159.785 263.163 166.154 254.392C169.473 249.821 174.079 242.133 179.023 237.727C189.634 228.276 204.256 230.497 217.767 226.899C234.587 222.411 239.953 207.485 230.017 193.117C218.955 177.128 197.07 173.821 186.273 156.479C184.405 153.48 182.7 148.735 180.825 145.67C169.661 127.452 144.153 120.595 124.262 119.782C116.822 119.478 110.116 119.8 103.782 122.55C91.2404 128.001 90.094 141.748 97.0179 152.189C108.151 168.968 131.776 176.873 127.105 201.956C126.31 206.218 125.308 210.048 124.098 213.446Z" fill="#551AA6"/>
<path d="M121.668 125.62C137.074 125.064 152.346 128.198 165.881 135.697C172.256 139.228 177.158 144.211 180.587 150.648C182.663 154.546 184.745 159.091 187.238 162.264C199.59 177.973 225.608 180.959 228.453 202.842C230.234 216.525 219.449 222.958 207.542 224.673C194.686 226.524 182.378 226.211 173.993 237.944C168.447 245.7 163.063 256.111 152.757 258.668C137.829 262.375 124.438 251.154 122.482 236.644C119.542 214.763 142.775 196.489 122.479 175.819C118.915 172.187 115.238 168.668 111.45 165.26C104.428 158.932 97.9404 150.403 99.4878 140.405C101.116 129.911 112.552 125.955 121.668 125.62ZM130.712 202.438C126.565 219.068 116.285 235.098 130.185 250.892C134.268 255.53 139.413 258.055 145.621 258.468C159.748 259.402 165.922 247.881 172.686 238.09C182.053 224.54 195.625 226.252 209.256 223.559C235.505 218.375 231.447 194.542 213.766 182.756C203.6 175.974 191.299 170.499 184.524 159.798C182.699 156.915 181.102 152.537 179.158 149.35C168.311 131.544 140.534 125.619 121.008 126.469C99.4541 127.401 93.782 145.999 108.159 160.762C120.013 172.94 135.748 182.235 130.712 202.438Z" fill="#551AA6"/>
<path d="M128.266 131.899C140.99 131.487 156.538 135.384 166.929 141.698C171.84 144.683 175.66 148.512 178.39 153.185C180.475 156.757 182.36 161.53 184.974 164.797C192.914 174.74 205.461 178.573 214.622 187.147C217.409 189.759 219.412 192.958 220.628 196.745C225.106 210.695 215.864 218.595 203.022 220.346C191.372 221.94 180.526 221.815 172.953 232.433C168.898 238.114 165.802 242.943 161.099 246.872C153.145 253.52 141.918 252.197 134.643 245.239C127.827 238.724 125.814 229.591 127.947 220.148C130.437 209.134 138.209 196.661 133.102 185.395C128.636 175.536 118.658 169.927 111.992 161.741C106.544 155.055 104.437 144.52 111.189 137.834C115.342 133.716 122.323 132.088 128.266 131.899ZM133.998 203.558C129.697 217.597 122.763 230.936 134.596 243.893C141.517 251.466 153.109 252.729 161.076 246C165.678 242.105 168.744 236.88 172.135 232.025C179.803 221.038 190.996 221.276 202.848 219.525C210.906 218.334 220.462 214.058 221.129 204.578C222.123 190.395 207.396 182.087 197.252 175.979C191.72 172.648 186.845 169.027 183.198 163.836C181.742 161.757 180.649 159.211 179.473 156.814C177.044 151.881 173.821 147.645 169.553 144.531C158.455 136.441 142.664 132.956 128.944 132.973C120.545 132.982 109.669 135.624 107.924 145.399C106.572 152.955 110.845 160.155 116.437 165.346C128.269 176.322 139.743 184.794 133.998 203.558Z" fill="#551AA6"/>
<path d="M214.739 199.131C215.878 209.374 208.261 214.503 199.235 215.966C194.745 216.692 187.051 217.109 181.033 219.259C175.136 221.358 170.862 228.436 167.141 233.488C163.212 238.831 158.183 243.176 150.989 242.983C146.052 242.85 141.843 241.056 138.301 237.524C131.295 230.533 130.796 221.385 133.815 212.209C137.911 199.779 143.046 188.785 131.865 177.742C128.619 174.535 125.309 171.394 121.935 168.318C120.753 167.237 119.38 165.604 117.816 163.42C112.043 155.345 113.225 144.279 123.342 140.466C133.437 136.664 144.965 138.925 155.702 142.236C165.276 145.188 173.788 150.425 178.1 159.189C179.922 162.906 181.388 166.106 184.088 168.983C193.547 179.071 212.985 183.312 214.739 199.131ZM139.194 196.554C136.888 209.755 127.556 221.977 137.209 234.785C144.656 244.665 157.935 244.718 165.318 234.65C167.569 231.579 169.821 228.508 172.073 225.436C181.499 212.588 196.797 219.233 208.179 211.772C218.012 205.325 214.548 192.84 206.893 186.467C198.88 179.798 188.558 176.009 181.945 167.764C179.979 165.319 178.636 162.22 177.296 159.276C170.462 144.26 142.769 137.231 127.753 140.045C113.268 142.758 111.518 156.207 121.03 166.092C129.596 175.002 141.749 181.949 139.194 196.554Z" fill="#551AA6"/>
<path d="M207.963 200.625C206.76 209.163 197.931 211.472 190.792 212.185C183.518 212.915 176.726 213.764 172.012 220.072C167.33 226.33 162.478 234.929 153.446 234.869C143.046 234.805 136.455 225.421 136.911 215.458C136.998 213.551 137.56 211.095 138.597 208.089C139.92 204.263 141.068 200.384 142.041 196.453C146.196 179.725 128.813 175.636 123.15 163.847C119.76 156.789 122.531 149.358 129.918 146.732C139.906 143.187 153.812 146.334 163.21 150.77C169.879 153.914 174.244 157.877 177.142 164.427C182.496 176.517 194.204 178.439 202.739 186.774C206.072 190.032 208.605 196.048 207.963 200.625ZM173.748 160.173C166.22 149.518 145.194 144.157 133.184 146.686C127.607 147.859 123.026 151.066 122.595 156.859C122.195 162.201 125.25 166.611 129.065 170.301C133.137 174.243 137.799 177.909 140.861 182.63C146.453 191.266 141.72 200.788 138.901 209.351C137.038 215.02 137.41 220.375 140.017 225.414C145.164 235.369 157.651 237.174 164.84 228.282C170.143 221.723 173.094 214.098 183.497 212.475C190.96 211.309 204.902 211.01 207.068 201.439C208.778 193.898 202.726 186.854 196.808 183.149C190.232 179.031 182.982 175.327 178.524 168.755C176.916 166.384 175.352 162.443 173.748 160.173Z" fill="#551AA6"/>
<path d="M177.797 171.712C181.974 177.138 188.067 180.11 193.613 183.871C199.431 187.813 204.118 196.623 198.993 202.946C195.789 206.898 188.731 207.768 183.782 208.172C183.082 208.229 181.561 208.592 179.219 209.262C170.972 211.621 169.493 218.105 163.939 223.336C160.39 226.683 155.585 227.597 151.028 225.835C144.654 223.372 141.02 216.409 141.867 209.753C142.924 201.427 149.441 192.677 145.004 184.45C142.53 179.869 136.808 175.678 133.787 172.557C130.45 169.113 128.077 164.018 129.615 159.256C131.678 152.87 139.94 151.594 145.767 151.988C156.451 152.706 169.91 156.771 175.156 167.136C176.286 169.369 177.167 170.894 177.797 171.712ZM152.758 153.797C147.102 152.538 140.5 152.051 135.17 154.474C127.516 157.962 129.372 167.314 134.576 172.089C137.223 174.515 139.817 176.995 142.355 179.528C150.522 187.658 146.844 195.96 143.756 205.061C141.18 212.648 143.561 222.38 151.852 225.251C155.94 226.669 160.553 225.646 163.783 222.517C166.466 219.925 168.848 215.859 170.341 213.904C173.028 210.38 176.679 208.309 181.292 207.693C185.692 207.106 191.243 206.91 195.031 204.827C204.008 199.888 200.378 189.784 193.707 185.075C191.665 183.636 188.302 181.444 183.62 178.499C179.313 175.795 176.81 172.66 174.518 168.118C173.404 165.906 172.595 164.492 172.092 163.875C167.26 157.94 160.095 155.424 152.758 153.797Z" fill="#551AA6"/>
</g>
<defs>
<clipPath id="clip0_141_207">
<rect width="271.175" height="322.871" fill="white" transform="translate(0 56.3809) rotate(-12)"/>
</clipPath>
</defs>
</svg>
