<svg width="91" height="192" viewBox="0 0 91 192" fill="none" xmlns="http://www.w3.org/2000/svg">
<g clip-path="url(#clip0_141_305)">
<path d="M9.2305 189.747C9.2305 188.664 8.35277 187.786 7.27004 187.786C6.1873 187.786 5.30957 188.664 5.30957 189.747C5.30957 190.829 6.1873 191.707 7.27004 191.707C8.35277 191.707 9.2305 190.829 9.2305 189.747Z" fill="#381668"/>
<path d="M9.23748 168.921C9.23748 167.836 8.35819 166.957 7.27352 166.957C6.18886 166.957 5.30957 167.836 5.30957 168.921C5.30957 170.005 6.18886 170.885 7.27352 170.885C8.35819 170.885 9.23748 170.005 9.23748 168.921Z" fill="#381668"/>
<path d="M9.23441 148.092C9.23441 147.01 8.35668 146.132 7.27394 146.132C6.19121 146.132 5.31348 147.01 5.31348 148.092C5.31348 149.175 6.19121 150.053 7.27394 150.053C8.35668 150.053 9.23441 149.175 9.23441 148.092Z" fill="#381668"/>
<path d="M9.23441 127.255C9.23441 126.173 8.35668 125.295 7.27394 125.295C6.19121 125.295 5.31348 126.173 5.31348 127.255C5.31348 128.338 6.19121 129.216 7.27394 129.216C8.35668 129.216 9.23441 128.338 9.23441 127.255Z" fill="#381668"/>
<path d="M9.2305 106.423C9.2305 105.341 8.35277 104.463 7.27004 104.463C6.1873 104.463 5.30957 105.341 5.30957 106.423C5.30957 107.506 6.1873 108.384 7.27004 108.384C8.35277 108.384 9.2305 107.506 9.2305 106.423Z" fill="#381668"/>
<path d="M9.23441 85.604C9.23441 84.5213 8.35668 83.6435 7.27394 83.6435C6.19121 83.6435 5.31348 84.5213 5.31348 85.604C5.31348 86.6867 6.19121 87.5645 7.27394 87.5645C8.35668 87.5645 9.23441 86.6867 9.23441 85.604Z" fill="#381668"/>
<path d="M9.23748 64.7753C9.23748 63.6906 8.35819 62.8113 7.27352 62.8113C6.18886 62.8113 5.30957 63.6906 5.30957 64.7753C5.30957 65.86 6.18886 66.7393 7.27352 66.7393C8.35819 66.7393 9.23748 65.86 9.23748 64.7753Z" fill="#381668"/>
<path d="M9.2305 43.9468C9.2305 42.864 8.35277 41.9863 7.27004 41.9863C6.1873 41.9863 5.30957 42.864 5.30957 43.9468C5.30957 45.0295 6.1873 45.9072 7.27004 45.9072C8.35277 45.9072 9.2305 45.0295 9.2305 43.9468Z" fill="#381668"/>
<path d="M9.2305 23.1167C9.2305 22.0339 8.35277 21.1562 7.27004 21.1562C6.1873 21.1562 5.30957 22.0339 5.30957 23.1167C5.30957 24.1994 6.1873 25.0771 7.27004 25.0771C8.35277 25.0771 9.2305 24.1994 9.2305 23.1167Z" fill="#381668"/>
<path d="M9.22353 2.3194C9.22353 1.23859 8.34736 0.362402 7.26655 0.362402C6.18574 0.362402 5.30957 1.23859 5.30957 2.3194C5.30957 3.4002 6.18574 4.27637 7.26655 4.27637C8.34736 4.27637 9.22353 3.4002 9.22353 2.3194Z" fill="#381668"/>
<path d="M28.3877 189.747C28.3877 188.664 27.51 187.786 26.4273 187.786C25.3445 187.786 24.4668 188.664 24.4668 189.747C24.4668 190.829 25.3445 191.707 26.4273 191.707C27.51 191.707 28.3877 190.829 28.3877 189.747Z" fill="#381668"/>
<path d="M28.3837 168.914C28.3837 167.833 27.5075 166.957 26.4267 166.957C25.3459 166.957 24.4697 167.833 24.4697 168.914C24.4697 169.995 25.3459 170.871 26.4267 170.871C27.5075 170.871 28.3837 169.995 28.3837 168.914Z" fill="#381668"/>
<path d="M28.3877 148.095C28.3877 147.012 27.51 146.135 26.4273 146.135C25.3445 146.135 24.4668 147.012 24.4668 148.095C24.4668 149.178 25.3445 150.056 26.4273 150.056C27.51 150.056 28.3877 149.178 28.3877 148.095Z" fill="#381668"/>
<path d="M28.3946 127.262C28.3946 126.179 27.5168 125.302 26.4341 125.302C25.3514 125.302 24.4736 126.179 24.4736 127.262C24.4736 128.345 25.3514 129.223 26.4341 129.223C27.5168 129.223 28.3946 128.345 28.3946 127.262Z" fill="#381668"/>
<path d="M28.3947 106.436C28.3947 105.352 27.5154 104.472 26.4307 104.472C25.3461 104.472 24.4668 105.352 24.4668 106.436C24.4668 107.521 25.3461 108.4 26.4307 108.4C27.5154 108.4 28.3947 107.521 28.3947 106.436Z" fill="#381668"/>
<path d="M28.3837 85.6114C28.3837 84.5306 27.5075 83.6544 26.4267 83.6544C25.3459 83.6544 24.4697 84.5306 24.4697 85.6114C24.4697 86.6922 25.3459 87.5684 26.4267 87.5684C27.5075 87.5684 28.3837 86.6922 28.3837 85.6114Z" fill="#381668"/>
<path d="M28.3947 64.7655C28.3947 63.6809 27.5154 62.8016 26.4307 62.8016C25.3461 62.8016 24.4668 63.6809 24.4668 64.7655C24.4668 65.8502 25.3461 66.7295 26.4307 66.7295C27.5154 66.7295 28.3947 65.8502 28.3947 64.7655Z" fill="#381668"/>
<path d="M28.3907 43.9604C28.3907 42.8777 27.5129 42 26.4302 42C25.3475 42 24.4697 42.8777 24.4697 43.9604C24.4697 45.0432 25.3475 45.9209 26.4302 45.9209C27.5129 45.9209 28.3907 45.0432 28.3907 43.9604Z" fill="#381668"/>
<path d="M28.3947 23.1308C28.3947 22.0461 27.5154 21.1668 26.4307 21.1668C25.3461 21.1668 24.4668 22.0461 24.4668 23.1308C24.4668 24.2154 25.3461 25.0947 26.4307 25.0947C27.5154 25.0947 28.3947 24.2154 28.3947 23.1308Z" fill="#381668"/>
<path d="M28.3907 2.31981C28.3907 1.23707 27.5129 0.359346 26.4302 0.359346C25.3475 0.359346 24.4697 1.23707 24.4697 2.31981C24.4697 3.40254 25.3475 4.28027 26.4302 4.28027C27.5129 4.28027 28.3907 3.40254 28.3907 2.31981Z" fill="#381668"/>
<path d="M47.5469 189.747C47.5469 188.664 46.6692 187.786 45.5864 187.786C44.5037 187.786 43.626 188.664 43.626 189.747C43.626 190.829 44.5037 191.707 45.5864 191.707C46.6692 191.707 47.5469 190.829 47.5469 189.747Z" fill="#381668"/>
<path d="M47.544 168.92C47.544 167.838 46.6663 166.96 45.5835 166.96C44.5008 166.96 43.623 167.838 43.623 168.92C43.623 170.003 44.5008 170.881 45.5835 170.881C46.6663 170.881 47.544 170.003 47.544 168.92Z" fill="#381668"/>
<path d="M47.544 148.095C47.544 147.012 46.6663 146.135 45.5835 146.135C44.5008 146.135 43.623 147.012 43.623 148.095C43.623 149.178 44.5008 150.056 45.5835 150.056C46.6663 150.056 47.544 149.178 47.544 148.095Z" fill="#381668"/>
<path d="M47.544 127.262C47.544 126.179 46.6663 125.302 45.5835 125.302C44.5008 125.302 43.623 126.179 43.623 127.262C43.623 128.345 44.5008 129.223 45.5835 129.223C46.6663 129.223 47.544 128.345 47.544 127.262Z" fill="#381668"/>
<path d="M47.5469 106.437C47.5469 105.354 46.6692 104.477 45.5864 104.477C44.5037 104.477 43.626 105.354 43.626 106.437C43.626 107.52 44.5037 108.397 45.5864 108.397C46.6692 108.397 47.5469 107.52 47.5469 106.437Z" fill="#381668"/>
<path d="M47.5469 85.6147C47.5469 84.532 46.6692 83.6543 45.5864 83.6543C44.5037 83.6543 43.626 84.532 43.626 85.6147C43.626 86.6975 44.5037 87.5752 45.5864 87.5752C46.6692 87.5752 47.5469 86.6975 47.5469 85.6147Z" fill="#381668"/>
<path d="M47.544 64.769C47.544 63.6863 46.6663 62.8086 45.5835 62.8086C44.5008 62.8086 43.623 63.6863 43.623 64.769C43.623 65.8518 44.5008 66.7295 45.5835 66.7295C46.6663 66.7295 47.544 65.8518 47.544 64.769Z" fill="#381668"/>
<path d="M47.544 43.9604C47.544 42.8777 46.6663 42 45.5835 42C44.5008 42 43.623 42.8777 43.623 43.9604C43.623 45.0432 44.5008 45.9209 45.5835 45.9209C46.6663 45.9209 47.544 45.0432 47.544 43.9604Z" fill="#381668"/>
<path d="M47.5469 23.1313C47.5469 22.0486 46.6692 21.1709 45.5864 21.1709C44.5037 21.1709 43.626 22.0486 43.626 23.1313C43.626 24.2141 44.5037 25.0918 45.5864 25.0918C46.6692 25.0918 47.5469 24.2141 47.5469 23.1313Z" fill="#381668"/>
<path d="M47.544 2.32665C47.544 1.24391 46.6663 0.366182 45.5835 0.366182C44.5008 0.366182 43.623 1.24391 43.623 2.32665C43.623 3.40938 44.5008 4.28711 45.5835 4.28711C46.6663 4.28711 47.544 3.40938 47.544 2.32665Z" fill="#381668"/>
<path d="M66.6941 189.743C66.6941 188.664 65.8195 187.789 64.7406 187.789C63.6617 187.789 62.7871 188.664 62.7871 189.743C62.7871 190.822 63.6617 191.696 64.7406 191.696C65.8195 191.696 66.6941 190.822 66.6941 189.743Z" fill="#381668"/>
<path d="M66.6972 168.914C66.6972 167.833 65.821 166.957 64.7402 166.957C63.6594 166.957 62.7832 167.833 62.7832 168.914C62.7832 169.995 63.6594 170.871 64.7402 170.871C65.821 170.871 66.6972 169.995 66.6972 168.914Z" fill="#381668"/>
<path d="M66.7002 148.092C66.7002 147.01 65.8225 146.132 64.7398 146.132C63.657 146.132 62.7793 147.01 62.7793 148.092C62.7793 149.175 63.657 150.053 64.7398 150.053C65.8225 150.053 66.7002 149.175 66.7002 148.092Z" fill="#381668"/>
<path d="M66.7041 127.266C66.7041 126.183 65.8264 125.306 64.7437 125.306C63.6609 125.306 62.7832 126.183 62.7832 127.266C62.7832 128.349 63.6609 129.227 64.7437 129.227C65.8264 129.227 66.7041 128.349 66.7041 127.266Z" fill="#381668"/>
<path d="M66.7033 106.436C66.7033 105.352 65.824 104.472 64.7393 104.472C63.6547 104.472 62.7754 105.352 62.7754 106.436C62.7754 107.521 63.6547 108.4 64.7393 108.4C65.824 108.4 66.7033 107.521 66.7033 106.436Z" fill="#381668"/>
<path d="M66.7011 85.6114C66.7011 84.5306 65.8249 83.6544 64.7441 83.6544C63.6633 83.6544 62.7871 84.5306 62.7871 85.6114C62.7871 86.6922 63.6633 87.5684 64.7441 87.5684C65.8249 87.5684 66.7011 86.6922 66.7011 85.6114Z" fill="#381668"/>
<path d="M66.7033 64.7655C66.7033 63.6809 65.824 62.8016 64.7393 62.8016C63.6547 62.8016 62.7754 63.6809 62.7754 64.7655C62.7754 65.8502 63.6547 66.7295 64.7393 66.7295C65.824 66.7295 66.7033 65.8502 66.7033 64.7655Z" fill="#381668"/>
<path d="M66.7041 43.9565C66.7041 42.8738 65.8264 41.9961 64.7437 41.9961C63.6609 41.9961 62.7832 42.8738 62.7832 43.9565C62.7832 45.0393 63.6609 45.917 64.7437 45.917C65.8264 45.917 66.7041 45.0393 66.7041 43.9565Z" fill="#381668"/>
<path d="M66.708 23.1313C66.708 22.0486 65.8303 21.1709 64.7476 21.1709C63.6648 21.1709 62.7871 22.0486 62.7871 23.1313C62.7871 24.2141 63.6648 25.0918 64.7476 25.0918C65.8303 25.0918 66.708 24.2141 66.708 23.1313Z" fill="#381668"/>
<path d="M66.6972 2.31647C66.6972 1.23566 65.821 0.359494 64.7402 0.359494C63.6594 0.359494 62.7832 1.23566 62.7832 2.31647C62.7832 3.39727 63.6594 4.27344 64.7402 4.27344C65.821 4.27344 66.6972 3.39727 66.6972 2.31647Z" fill="#381668"/>
<path d="M85.8604 168.92C85.8604 167.838 84.9827 166.96 83.8999 166.96C82.8172 166.96 81.9395 167.838 81.9395 168.92C81.9395 170.003 82.8172 170.881 83.8999 170.881C84.9827 170.881 85.8604 170.003 85.8604 168.92Z" fill="#381668"/>
<path d="M85.8573 148.096C85.8573 147.015 84.9811 146.139 83.9003 146.139C82.8195 146.139 81.9434 147.015 81.9434 148.096C81.9434 149.177 82.8195 150.053 83.9003 150.053C84.9811 150.053 85.8573 149.177 85.8573 148.096Z" fill="#381668"/>
<path d="M85.8604 127.262C85.8604 126.179 84.9827 125.302 83.8999 125.302C82.8172 125.302 81.9395 126.179 81.9395 127.262C81.9395 128.345 82.8172 129.223 83.8999 129.223C84.9827 129.223 85.8604 128.345 85.8604 127.262Z" fill="#381668"/>
<path d="M85.8575 106.437C85.8575 105.354 84.9797 104.477 83.897 104.477C82.8143 104.477 81.9365 105.354 81.9365 106.437C81.9365 107.52 82.8143 108.397 83.897 108.397C84.9797 108.397 85.8575 107.52 85.8575 106.437Z" fill="#381668"/>
<path d="M85.8604 85.6118C85.8604 84.5291 84.9827 83.6513 83.8999 83.6513C82.8172 83.6513 81.9395 84.5291 81.9395 85.6118C81.9395 86.6945 82.8172 87.5723 83.8999 87.5723C84.9827 87.5723 85.8604 86.6945 85.8604 85.6118Z" fill="#381668"/>
<path d="M85.8575 64.769C85.8575 63.6863 84.9797 62.8086 83.897 62.8086C82.8143 62.8086 81.9365 63.6863 81.9365 64.769C81.9365 65.8518 82.8143 66.7295 83.897 66.7295C84.9797 66.7295 85.8575 65.8518 85.8575 64.769Z" fill="#381668"/>
<path d="M85.8604 43.9604C85.8604 42.8777 84.9827 42 83.8999 42C82.8172 42 81.9395 42.8777 81.9395 43.9604C81.9395 45.0432 82.8172 45.9209 83.8999 45.9209C84.9827 45.9209 85.8604 45.0432 85.8604 43.9604Z" fill="#381668"/>
<path d="M85.8604 23.1313C85.8604 22.0486 84.9827 21.1709 83.8999 21.1709C82.8172 21.1709 81.9395 22.0486 81.9395 23.1313C81.9395 24.2141 82.8172 25.0918 83.8999 25.0918C84.9827 25.0918 85.8604 24.2141 85.8604 23.1313Z" fill="#381668"/>
<path d="M85.8503 2.32287C85.8503 1.24398 84.9757 0.369386 83.8968 0.369386C82.818 0.369386 81.9434 1.24398 81.9434 2.32287C81.9434 3.40175 82.818 4.27637 83.8968 4.27637C84.9757 4.27637 85.8503 3.40175 85.8503 2.32287Z" fill="#381668"/>
<path d="M85.8503 189.743C85.8503 188.664 84.9757 187.789 83.8968 187.789C82.818 187.789 81.9434 188.664 81.9434 189.743C81.9434 190.822 82.818 191.696 83.8968 191.696C84.9757 191.696 85.8503 190.822 85.8503 189.743Z" fill="#381668"/>
</g>
<defs>
<clipPath id="clip0_141_305">
<rect width="191.86" height="105" fill="white" transform="matrix(0 -1 1 0 -14 191.86)"/>
</clipPath>
</defs>
</svg>
