<svg width="190" height="190" viewBox="0 0 190 190" fill="none" xmlns="http://www.w3.org/2000/svg">
<g clip-path="url(#clip0_142_306)">
<path d="M173.081 78.456C177.486 99.181 173.478 120.807 161.938 138.577C150.398 156.347 132.272 168.804 111.547 173.21C90.8222 177.615 69.1961 173.607 51.4263 162.067C33.6566 150.527 21.1988 132.401 16.7935 111.676C12.3883 90.9509 16.3965 69.3248 27.9363 51.555C39.4761 33.7853 57.6023 21.3275 78.3273 16.9223C99.0523 12.517 120.678 16.5252 138.448 28.065C156.218 39.6048 168.676 57.731 173.081 78.456ZM69.1822 21.3168C71.7436 21.8846 74.1188 22.9055 76.3077 24.3793C76.402 24.4405 76.4624 24.4168 76.4889 24.3081C77.0368 22.0027 77.3109 20.0321 78.4981 17.9358C78.5046 17.9249 78.5078 17.9123 78.5072 17.8997C78.5066 17.887 78.5022 17.8748 78.4946 17.8646C78.487 17.8544 78.4766 17.8467 78.4646 17.8425C78.4526 17.8382 78.4397 17.8377 78.4273 17.8408C74.7818 18.6554 71.1953 19.6735 67.668 20.8951C67.5646 20.931 67.5659 20.9604 67.6719 20.9835C68.1772 21.0942 68.6807 21.2053 69.1822 21.3168ZM77.3903 23.9737C79.4394 22.2335 81.6358 20.702 83.9797 19.3789C84.1104 19.3036 84.1294 19.2063 84.0367 19.0873C83.466 18.352 82.7808 17.7492 81.9809 17.2788C81.8411 17.1958 81.676 17.1682 81.5184 17.2016L79.5206 17.6114C79.4288 17.631 79.347 17.6832 79.2902 17.7585C78.9243 18.2388 78.5625 18.9244 78.2046 19.8154C77.5949 21.3309 77.2839 22.6986 77.2716 23.9187C77.2717 24.0217 77.3112 24.0401 77.3903 23.9737ZM92.7189 15.8589C89.355 16.0306 86.0159 16.4122 82.7016 17.0037C82.6822 17.0058 82.6801 17.0142 82.6951 17.0289L84.6906 18.9453C84.7152 18.9678 84.7419 18.9721 84.7706 18.958C87.277 17.6064 89.9199 16.6174 92.6993 15.9909C92.7236 15.9838 92.7362 15.9731 92.7372 15.9591L92.7426 15.8865C92.7446 15.8682 92.7367 15.859 92.7189 15.8589ZM75.4487 24.4935C73.037 22.8856 69.7688 21.5162 66.8392 21.5293C66.1872 21.531 65.4643 21.6887 64.6705 22.0021C63.4223 22.4965 62.0742 22.8841 61.1141 23.796C60.4394 24.4371 59.8646 25.161 59.3898 25.9678C59.3825 25.9793 59.3789 25.9926 59.3795 26.0062C59.38 26.0197 59.3846 26.0327 59.3927 26.0436C59.4008 26.0544 59.4121 26.0626 59.4249 26.0669C59.4377 26.0712 59.4515 26.0716 59.4646 26.0679C64.706 24.7674 70.0218 24.2779 75.4117 24.5995C75.5545 24.6088 75.5668 24.5735 75.4487 24.4935ZM110.642 18.607C102.425 14.6197 93.1433 15.0013 85.1696 19.352C85.0736 19.4042 85.056 19.4753 85.1168 19.5655L86.1901 21.1307C86.2103 21.161 86.2396 21.1841 86.2738 21.1966C86.3081 21.2091 86.3454 21.2104 86.3804 21.2003C94.3545 18.9225 102.337 18.1953 110.608 18.7421C110.848 18.7586 110.859 18.7136 110.642 18.607ZM50.2227 29.5313C50.2189 29.5321 50.2151 29.5329 50.2113 29.5337C50.198 29.5365 50.1945 29.5432 50.2007 29.5538C50.2011 29.5557 50.2027 29.5583 50.2054 29.5617C50.2075 29.5658 50.2127 29.5681 50.22 29.5682C50.2272 29.5683 50.2359 29.5663 50.2442 29.5624C52.835 28.2444 55.5296 27.1859 58.3279 26.3868C58.4234 26.3606 58.4992 26.3068 58.5553 26.2255L60.124 24.0213C60.1276 24.0161 60.1293 24.0099 60.129 24.0036C60.1287 23.9972 60.1263 23.9912 60.1223 23.9863C60.1182 23.9815 60.1127 23.9781 60.1065 23.9767C60.1004 23.9752 60.0939 23.9758 60.0881 23.9784C56.6244 25.4899 53.3397 27.34 50.2341 29.5288C50.2303 29.5297 50.2265 29.5305 50.2227 29.5313ZM85.6348 21.219L84.6189 19.7695C84.5969 19.7378 84.5639 19.7155 84.5263 19.707C84.4887 19.6985 84.4493 19.7043 84.4158 19.7234C82.2864 20.9176 80.2755 22.2868 78.3831 23.8311C78.3511 23.8577 78.3544 23.864 78.393 23.8498L85.592 21.353C85.6658 21.3274 85.6801 21.2828 85.6348 21.219ZM57.4737 30.4555C57.4716 30.4638 57.4717 30.4741 57.474 30.4852C57.5045 30.5818 57.55 30.6049 57.6106 30.5543C57.6479 30.5246 57.6764 30.5046 57.6961 30.4945C63.013 28.1311 68.4347 26.368 73.9613 25.2052C74.3411 25.1265 74.3373 25.0807 73.9499 25.0678C68.9143 24.893 63.9553 25.4425 59.073 26.7162C58.9751 26.741 58.9032 26.7989 58.8571 26.89C58.2813 28.0335 57.8202 29.222 57.4737 30.4555ZM40.7523 40.8323C45.6318 36.9242 50.9062 33.6518 56.5755 31.0152C56.6655 30.9723 56.7282 30.9035 56.7636 30.8087L58.1156 27.0952C58.1369 27.0371 58.1186 27.0162 58.0606 27.0325C54.4412 28.0636 51.024 29.5562 47.8091 31.5105C44.6961 33.4035 41.5676 37.3786 40.5998 40.7309C40.5436 40.9233 40.5944 40.9571 40.7523 40.8323ZM87.6386 23.3419C97.8535 22.7915 107.99 24.0245 117.8 26.9001C117.901 26.9301 117.958 26.8923 117.969 26.7868C118.105 25.582 117.925 24.4486 117.428 23.3865C117.2 22.9016 116.818 22.4593 116.283 22.0595C115.077 21.156 112.934 19.4404 111.424 19.3063C103.058 18.5546 94.819 19.3402 86.7077 21.6631C86.6012 21.6937 86.575 21.7568 86.629 21.8524L87.4134 23.2202C87.4635 23.3067 87.5386 23.3473 87.6386 23.3419ZM79.9271 24.071L86.8057 23.3554C86.8153 23.3542 86.8245 23.3507 86.8324 23.3453C86.8404 23.3399 86.8469 23.3327 86.8513 23.3244C86.8558 23.316 86.858 23.3068 86.8578 23.2976C86.8576 23.2884 86.8551 23.2794 86.8503 23.2715L86.062 21.9134C86.0499 21.8931 86.0313 21.8774 86.0091 21.8687C85.9868 21.86 85.9621 21.8588 85.9388 21.8652C83.8946 22.4623 81.877 23.138 79.8861 23.8923C79.4344 24.0617 79.448 24.1212 79.9271 24.071ZM122.9 20.7719C118.901 19.2864 114.811 18.1154 110.632 17.2589C110.603 17.2532 110.584 17.2641 110.576 17.2916L110.574 17.295C110.566 17.3225 110.576 17.3421 110.605 17.354C111.67 17.7421 112.692 18.2218 113.67 18.7931C114.087 19.0357 114.517 19.1901 114.961 19.2562C118.147 19.7371 121.273 20.4714 124.34 21.4592C124.366 21.4676 124.383 21.46 124.392 21.4363L124.391 21.4335C124.4 21.4098 124.393 21.3933 124.372 21.3841C123.89 21.1613 123.4 20.9572 122.9 20.7719ZM112.736 18.9375C112.745 18.9193 112.746 18.8985 112.739 18.8796C112.732 18.8608 112.718 18.8455 112.7 18.837L110.314 17.7298C110.305 17.7256 110.296 17.7232 110.286 17.7228C110.276 17.7224 110.266 17.7239 110.256 17.7274C110.247 17.7308 110.239 17.736 110.231 17.7427C110.224 17.7494 110.218 17.7575 110.214 17.7665L110.204 17.7877C110.196 17.8059 110.195 17.8267 110.202 17.8455C110.209 17.8643 110.223 17.8797 110.241 17.8881L112.626 18.9954C112.635 18.9995 112.645 19.0019 112.655 19.0023C112.665 19.0027 112.675 19.0012 112.684 18.9978C112.693 18.9944 112.702 18.9892 112.709 18.9824C112.717 18.9757 112.722 18.9676 112.727 18.9586L112.736 18.9375ZM57.2115 31.4749C56.6819 33.125 56.4745 35.1855 56.3317 36.9201C56.3308 36.9329 56.3337 36.9457 56.34 36.9569C56.3462 36.9681 56.3555 36.9773 56.3669 36.9833C56.3782 36.9894 56.391 36.9921 56.4038 36.9911C56.4166 36.99 56.4288 36.9853 56.439 36.9775C61.6631 32.6848 67.3196 29.0646 73.4085 26.1168C74.0631 25.8012 74.0367 25.7235 73.3293 25.8838C67.8409 27.1237 62.537 28.9094 57.4175 31.2407C57.3688 31.2633 57.3253 31.2958 57.2899 31.3361C57.2544 31.3764 57.2277 31.4237 57.2115 31.4749ZM79.3318 24.9083C82.3834 25.259 85.376 25.8779 88.434 26.5663C88.4451 26.5686 88.4567 26.5679 88.4674 26.564C88.4781 26.5602 88.4875 26.5534 88.4946 26.5445C88.5017 26.5355 88.5061 26.5248 88.5074 26.5135C88.5087 26.5022 88.5068 26.4907 88.502 26.4804L87.2506 24.0073C87.2365 23.9778 87.2138 23.9531 87.1853 23.9364C87.1569 23.9197 87.124 23.9117 87.0908 23.9134C84.4922 24.0751 81.905 24.3514 79.3292 24.7423C78.9123 24.8051 78.9132 24.8605 79.3318 24.9083ZM76.7926 25.5551L76.2759 32.3031C76.2746 32.317 76.2766 32.3312 76.2819 32.3442C76.2872 32.3572 76.2955 32.3688 76.3062 32.3779C76.3169 32.387 76.3296 32.3934 76.3433 32.3965C76.357 32.3997 76.3713 32.3994 76.3849 32.3959L83.1745 30.688C83.1869 30.6851 83.1983 30.6789 83.2074 30.67C83.2165 30.6611 83.223 30.6499 83.2262 30.6376C83.2294 30.6253 83.2292 30.6123 83.2255 30.6001C83.2219 30.5879 83.215 30.577 83.2056 30.5684C81.2706 28.7035 79.2031 26.9987 77.0031 25.4538C76.9836 25.4402 76.9608 25.4319 76.9371 25.43C76.9134 25.4281 76.8896 25.4325 76.8681 25.4428C76.8467 25.4531 76.8284 25.4689 76.8151 25.4887C76.8018 25.5084 76.7941 25.5313 76.7926 25.5551ZM88.7287 27.2114C85.2226 26.2615 81.5422 25.6251 77.9182 25.3099C77.7671 25.2984 77.7533 25.336 77.8768 25.4228C79.9677 26.9393 81.938 28.5973 83.7878 30.3971C83.8683 30.4771 83.9647 30.5062 84.077 30.4843L89.6303 29.3545C89.7408 29.333 89.7733 29.2715 89.728 29.1701L88.9328 27.3881C88.9146 27.3457 88.8868 27.3078 88.8515 27.2772C88.8161 27.2466 88.7742 27.2242 88.7287 27.2114ZM74.8673 26.0119C68.1866 29.1232 62.0162 33.0351 56.3559 37.7476C56.2783 37.8117 56.2373 37.8938 56.2328 37.9939L56.1703 39.2533C56.1617 39.39 56.2212 39.4319 56.3487 39.379C59.8537 37.8845 63.4095 36.5259 67.0159 35.3033C67.1288 35.2655 67.2185 35.1978 67.2851 35.1004C69.5588 31.871 72.1167 28.8866 74.9585 26.1472C75.1992 25.9176 75.1688 25.8725 74.8673 26.0119ZM68.1918 34.875L75.6064 32.609C75.692 32.5828 75.7383 32.5254 75.7452 32.4367L76.2308 25.8083C76.2398 25.7013 76.2055 25.6848 76.1281 25.7588C73.1712 28.5167 70.513 31.5374 68.1535 34.8206C68.1491 34.8265 68.1466 34.8337 68.1465 34.8411C68.1464 34.8485 68.1486 34.8557 68.1529 34.8618C68.1571 34.8678 68.1632 34.8723 68.1702 34.8747C68.1772 34.8771 68.1848 34.8772 68.1918 34.875ZM115.153 26.746C106.242 24.3653 97.1772 23.4062 87.9587 23.8687C87.8371 23.8747 87.8037 23.9323 87.8587 24.0416L89.1515 26.6398C89.1975 26.7351 89.2709 26.7958 89.3716 26.822C91.0114 27.2606 92.6399 27.7492 94.2573 28.2877C94.6541 28.4195 95.0571 28.4547 95.4664 28.3935C102.06 27.3985 108.616 26.8913 115.135 26.8717C115.462 26.8716 115.468 26.8297 115.153 26.746ZM56.4514 31.7048C50.7562 34.3638 45.3096 37.7729 40.4837 41.7935C40.4065 41.8595 40.3626 41.9422 40.352 42.0416C40.1691 43.7182 40.5433 45.2595 41.4747 46.6656C41.5359 46.7577 41.615 46.7755 41.7121 46.7192C44.4871 45.0924 47.3201 43.5752 50.2111 42.1676C50.7663 41.897 51.2719 41.5476 51.7282 41.1195C52.9934 39.9266 54.2946 38.7677 55.6317 37.6428C55.7025 37.5842 55.7412 37.5095 55.7477 37.4189C55.887 35.5275 56.1634 33.6566 56.577 31.806C56.6034 31.6874 56.5615 31.6537 56.4514 31.7048ZM113.615 19.6256L115.548 20.9546C115.549 20.9547 115.549 20.9548 115.55 20.9547C115.55 20.9545 115.551 20.9543 115.551 20.954L115.596 20.885C115.618 20.8507 115.542 20.7509 115.384 20.6073C115.226 20.4637 114.999 20.288 114.752 20.1186L114.679 20.0687C114.433 19.8994 114.187 19.7503 113.996 19.6539C113.805 19.5574 113.684 19.5214 113.66 19.5538L113.614 19.6199C113.613 19.6201 113.613 19.6206 113.612 19.6212C113.612 19.6218 113.612 19.6226 113.612 19.6234C113.612 19.6241 113.613 19.6248 113.613 19.6252C113.614 19.6256 113.615 19.6258 113.615 19.6256ZM33.1961 47.8751C35.2493 45.6601 37.438 43.5879 39.762 41.6584C39.8341 41.5988 39.8837 41.5169 39.903 41.4262C40.4387 38.9093 41.6751 36.8769 43.3079 34.9179C43.3266 34.8941 43.3258 34.8715 43.3054 34.8501L43.3025 34.8507C43.2825 34.8311 43.2633 34.8293 43.2448 34.8451C38.9712 38.4698 35.5847 42.7883 33.0851 47.8005C32.9451 48.084 32.9821 48.1089 33.1961 47.8751ZM115.462 19.8487C115.234 19.81 115.211 19.8624 115.394 20.0059C116.521 20.8847 117.19 22.1016 118.243 22.999C119.706 24.2484 121.092 25.5906 122.4 27.0256C122.463 27.0961 122.551 27.1393 122.646 27.1458C129.287 27.5634 136.403 28.8733 142.443 31.768C142.834 31.9565 142.859 31.9174 142.519 31.6507C134.52 25.4081 125.501 21.4741 115.462 19.8487ZM89.694 27.4434C89.6775 27.4386 89.6598 27.4386 89.6432 27.4434C89.6266 27.4483 89.6118 27.4578 89.6005 27.4709C89.5891 27.4839 89.5818 27.5 89.5793 27.5171C89.5769 27.5342 89.5794 27.5517 89.5866 27.5674L90.2934 29.1719C90.3013 29.1905 90.3153 29.2058 90.333 29.2156C90.3507 29.2253 90.3711 29.2288 90.3911 29.2255L93.3376 28.7181C93.3578 28.7151 93.3764 28.7053 93.3903 28.6903C93.4042 28.6754 93.4126 28.6561 93.4141 28.6358C93.4157 28.6154 93.4103 28.5951 93.3988 28.5782C93.3873 28.5613 93.3704 28.5489 93.3509 28.5428L89.694 27.4434ZM118.079 23.6109C118.469 24.6164 118.613 25.6566 118.51 26.7312C118.5 26.8504 118.554 26.9123 118.672 26.917L121.61 27.0568C121.627 27.0571 121.643 27.0525 121.658 27.0433C121.672 27.0342 121.683 27.0211 121.689 27.0056C121.696 26.9901 121.698 26.973 121.695 26.9565C121.692 26.9399 121.683 26.9247 121.672 26.9128L118.18 23.5418C118.17 23.5312 118.157 23.5247 118.143 23.5232C118.129 23.5216 118.115 23.5253 118.103 23.5334C118.091 23.5416 118.082 23.5537 118.078 23.5679C118.073 23.582 118.074 23.5972 118.079 23.6109ZM95.1525 44.4905C91.7136 39.7849 88.0294 35.3247 83.8889 31.2083C83.8157 31.1346 83.7293 31.1104 83.6295 31.1356L76.4661 32.9318C76.3379 32.963 76.2729 33.0443 76.271 33.1755C76.1525 39.3432 76.335 45.5004 76.8187 51.6471C76.8251 51.733 76.8702 51.768 76.9541 51.7522C83.3959 50.5395 89.6425 48.6784 95.6937 46.1689C95.7811 46.1325 95.8132 46.0691 95.7901 45.9789C95.6504 45.4197 95.5053 44.9747 95.1525 44.4905ZM84.5477 31.104C88.1706 34.7861 91.647 38.7581 94.6571 42.9571C94.8571 43.2358 94.9079 43.223 94.8095 42.9188C93.4055 38.5241 91.8212 34.1955 90.0567 29.933C90.0433 29.9023 90.0201 29.8772 89.9908 29.8617C89.9615 29.8463 89.928 29.8415 89.8959 29.8482L84.5972 30.9447C84.4852 30.9685 84.4688 31.0216 84.5477 31.104ZM96.8281 45.6571C101.939 43.521 107.117 40.615 111.341 37.0078C111.351 36.9994 111.359 36.9888 111.363 36.9768C111.368 36.9647 111.37 36.9516 111.369 36.9385C111.367 36.9255 111.363 36.9128 111.356 36.9015C111.349 36.8903 111.339 36.8808 111.327 36.8739C106.27 33.807 100.959 31.2688 95.3947 29.2593C94.9871 29.114 94.5701 29.0738 94.1437 29.1386C93.0116 29.3158 91.8698 29.5129 90.7184 29.7299C90.6113 29.7487 90.5784 29.8082 90.6195 29.9085C92.556 34.6441 94.2896 39.4515 95.8204 44.3307C95.9741 44.8156 96.2898 45.2094 96.5917 45.5944C96.6546 45.6761 96.7334 45.6971 96.8281 45.6571ZM58.2954 53.1545C64.3139 53.4297 70.2856 53.004 76.2104 51.8775C76.2381 51.8719 76.2626 51.8564 76.2793 51.8342C76.296 51.8119 76.3037 51.7845 76.3008 51.7572C75.8126 45.6075 75.6267 39.449 75.7434 33.2817C75.7439 33.2638 75.7401 33.246 75.7324 33.2299C75.7247 33.2137 75.7133 33.1996 75.699 33.1887C75.6848 33.1778 75.6682 33.1704 75.6506 33.1671C75.633 33.1639 75.6149 33.1648 75.5977 33.1699L67.6808 35.6052C67.5777 35.6367 67.4888 35.7017 67.4286 35.7896C63.7211 41.1915 60.647 46.9335 58.2064 53.0158C58.1713 53.1026 58.201 53.1488 58.2954 53.1545ZM96.5754 29.1333C101.881 31.1006 106.92 33.5331 111.691 36.4307C111.807 36.5012 111.917 36.4908 112.021 36.3994C114.627 34.1114 117.158 31.0455 117.873 27.6073C117.877 27.5852 117.877 27.5623 117.872 27.5403C117.867 27.5183 117.857 27.4977 117.843 27.48C117.829 27.4623 117.811 27.4478 117.791 27.4377C117.771 27.4275 117.749 27.422 117.726 27.4213C110.523 27.3008 103.358 27.7718 96.2323 28.8345C96.0861 28.8556 96.0772 28.9021 96.2055 28.974C96.2821 29.0172 96.4054 29.0703 96.5754 29.1333ZM22.169 63.6618C24.5884 58.9065 27.5131 54.4909 30.9433 50.4149C31.3641 49.9131 31.7185 49.356 32.0067 48.7435C33.0288 46.5653 34.2243 44.4851 35.5934 42.5029C35.6083 42.4799 35.605 42.4597 35.5835 42.4425L35.5829 42.4397C35.5618 42.4243 35.5361 42.4338 35.5057 42.468C29.9211 48.824 25.4388 55.8786 22.0586 63.6317C22.0478 63.6558 22.0568 63.6747 22.0855 63.6885L22.0889 63.6907C22.1241 63.707 22.1508 63.6974 22.169 63.6618ZM66.3729 36.014L56.2747 39.9122C56.1759 39.951 56.125 40.0243 56.1222 40.132C56.046 44.3912 56.2856 48.6338 56.8409 52.86C56.8559 52.9678 56.9177 53.03 57.0263 53.0466L57.3789 53.0965C57.4316 53.104 57.4852 53.0937 57.5313 53.0672C57.5774 53.0407 57.6133 52.9995 57.6333 52.9503C59.9924 47.0439 62.95 41.4535 66.5061 36.179C66.5197 36.1594 66.5265 36.1359 66.5256 36.1121C66.5248 36.0882 66.5162 36.0653 66.5012 36.0467C66.4862 36.0282 66.4656 36.0149 66.4425 36.009C66.4194 36.0031 66.3949 36.0049 66.3729 36.014ZM55.5937 38.3736L52.8444 40.8019C52.8359 40.8103 52.8306 40.8213 52.8292 40.8331C52.8278 40.8449 52.8305 40.8568 52.8368 40.8669C52.8431 40.877 52.8526 40.8846 52.8638 40.8885C52.875 40.8925 52.8873 40.8925 52.8985 40.8886L55.5127 39.7411C55.5815 39.7106 55.6168 39.6575 55.6186 39.5818L55.6666 38.4087C55.6672 38.4 55.6651 38.3914 55.6607 38.3839C55.6564 38.3764 55.6498 38.3704 55.642 38.3666C55.6342 38.3628 55.6254 38.3615 55.6168 38.3627C55.6082 38.364 55.6002 38.3678 55.5937 38.3736ZM30.4809 54.6056C33.8194 51.8706 37.2696 49.4093 40.9673 47.1749C41.0534 47.1229 41.074 47.0521 41.0292 46.9625C40.2443 45.4104 39.709 44.3196 39.7821 42.5226C39.7828 42.5089 39.7794 42.4953 39.7723 42.4835C39.7653 42.4717 39.755 42.4623 39.7426 42.4564C39.7302 42.4504 39.7164 42.4483 39.7028 42.4501C39.6892 42.452 39.6765 42.4579 39.6662 42.4669C37.2696 44.503 35.0105 46.6864 32.8887 49.017C32.3773 49.5778 31.9825 50.1782 31.7042 50.8183C31.1823 52.0197 30.7376 53.2573 30.3699 54.531C30.329 54.6745 30.366 54.6994 30.4809 54.6056ZM56.171 52.9548C56.189 52.9564 56.207 52.9541 56.2239 52.948C56.2408 52.9419 56.256 52.9322 56.2685 52.9195C56.281 52.9069 56.2903 52.8916 56.2959 52.8749C56.3015 52.8582 56.3031 52.8405 56.3007 52.8231C55.755 48.6981 55.5151 44.5566 55.581 40.3987C55.5816 40.3173 55.5448 40.2934 55.4706 40.327C53.9981 40.9969 51.9417 41.6481 50.7829 42.7866C48.6502 44.8797 46.6199 47.0858 44.692 49.4049C44.6241 49.4867 44.6348 49.5558 44.7241 49.6122C48.0811 51.6794 52.2712 52.5732 56.171 52.9548ZM118.407 27.7703C117.413 31.4464 115.191 34.2861 112.427 36.7146C112.416 36.7243 112.408 36.7363 112.402 36.7499C112.397 36.7634 112.395 36.7779 112.396 36.7924C112.398 36.8068 112.402 36.8208 112.41 36.8331C112.418 36.8454 112.428 36.8558 112.441 36.8633C121.452 42.4703 129.495 49.2298 136.57 57.142C136.911 57.5217 137.018 57.4652 136.891 56.9726C134.416 47.247 130.195 37.6696 123.991 29.6555C123.94 29.5869 123.869 29.5356 123.788 29.5085L118.549 27.6956C118.535 27.6904 118.52 27.6883 118.505 27.6893C118.49 27.6903 118.476 27.6945 118.462 27.7015C118.449 27.7085 118.437 27.7183 118.428 27.7301C118.418 27.7419 118.411 27.7556 118.407 27.7703ZM119.986 27.6041L122.964 28.6277C122.979 28.6337 122.996 28.6343 123.012 28.6293C123.028 28.6244 123.042 28.6142 123.051 28.6004C123.06 28.5867 123.064 28.5703 123.063 28.5538C123.061 28.5373 123.054 28.5218 123.043 28.5098L122.444 27.8192C122.334 27.692 122.195 27.6254 122.027 27.6194C121.441 27.5972 120.812 27.5645 120.138 27.5212C120.086 27.5184 120.034 27.5305 119.983 27.5573C119.951 27.576 119.952 27.5916 119.986 27.6041ZM49.5233 43.0871C47.0339 44.3181 44.6505 45.7259 42.1793 47.0422C41.9188 47.1789 41.8981 47.3469 42.1169 47.5462L43.6697 48.9471C43.8885 49.1464 44.0976 49.1367 44.297 48.9178L49.5697 43.1516C49.6662 43.0458 49.6507 43.0243 49.5233 43.0871ZM143.96 33.1584C137.828 29.6617 130.173 28.2613 123.216 27.7295C123.104 27.7217 123.08 27.7635 123.145 27.8547C123.641 28.5403 124.018 29.0373 124.858 29.3672C135.065 33.3679 144.168 39.129 152.167 46.6504C152.254 46.733 152.303 46.7145 152.316 46.5949C152.524 44.6076 152.253 42.7151 151.504 40.9174C151.168 40.1085 150.607 39.2682 149.82 38.3964C148.068 36.4462 146.227 34.4491 143.96 33.1584ZM41.254 47.6285C37.3214 49.9653 33.6163 52.6176 30.1389 55.5854C30.0191 55.6863 29.9327 55.8219 29.8914 55.974C28.0386 62.8533 27.4324 69.8474 28.073 76.9561C28.0815 77.0613 28.1082 77.0656 28.153 76.9688C28.4152 76.3738 28.6634 75.7738 28.8976 75.1688C32.4806 65.9073 37.4071 57.4299 43.6769 49.7366C43.6878 49.7235 43.6931 49.7065 43.6916 49.6891C43.6901 49.6717 43.682 49.6553 43.669 49.6432L41.4728 47.6504C41.4044 47.5896 41.3315 47.5823 41.254 47.6285ZM146.419 58.4806C146.447 58.4855 146.475 58.4833 146.501 58.4741C146.527 58.4648 146.551 58.449 146.569 58.428C149.211 55.3859 151.451 51.6234 152.195 47.608C152.203 47.5672 152.2 47.5252 152.187 47.4858C152.174 47.4464 152.151 47.411 152.12 47.383C144.226 39.8709 135.219 34.0945 125.099 30.0535C124.984 30.0085 124.963 30.0348 125.036 30.1325C131.014 38.2657 134.971 47.4474 137.533 57.2645C137.561 57.3657 137.627 57.42 137.731 57.4275C140.643 57.6393 143.539 57.9903 146.419 58.4806ZM30.736 51.6784C30.7988 51.4886 30.7674 51.4715 30.6418 51.627C28.4332 54.3231 26.4435 57.1728 24.6729 60.1763C24.4925 60.4843 24.5184 60.5036 24.7506 60.2341C26.163 58.5956 27.6824 57.0642 29.3088 55.6399C29.3856 55.572 29.4404 55.489 29.473 55.3908L30.736 51.6784ZM56.2218 53.4734C51.9764 53.0612 48.0355 52.1085 44.2846 50.0209C44.2375 49.9952 44.1974 50.0027 44.1645 50.0434C37.3201 58.4199 32.0768 67.7013 28.4345 77.8874C28.2752 78.3317 28.2213 78.7873 28.273 79.2542C28.5651 81.9064 29.0065 84.5378 29.5971 87.1485C29.6207 87.2505 29.6806 87.3221 29.7765 87.3631L31.9046 88.2521C32.0108 88.2949 32.109 88.281 32.1991 88.2103C37.9595 83.6708 44.116 79.749 50.6685 76.4448C50.7138 76.4212 50.7534 76.3879 50.7843 76.3474C50.8153 76.3069 50.8369 76.2601 50.8477 76.2105C52.2909 69.3161 53.9724 62.6893 56.4089 56.0746C56.7354 55.1903 56.5316 54.5109 56.3892 53.6311C56.3728 53.5354 56.317 53.4829 56.2218 53.4734ZM111.789 37.3082C107.359 40.9681 102.443 43.8362 97.1502 46.1091C97.0484 46.1526 97.0288 46.2192 97.0915 46.309C99.9526 50.4038 102.642 54.6075 105.161 58.9199C105.185 58.9603 105.22 58.9927 105.262 59.0128C105.305 59.033 105.352 59.0399 105.399 59.0328C115.503 57.4105 125.663 56.8253 135.879 57.277C135.885 57.2776 135.89 57.2764 135.895 57.2736C135.9 57.2708 135.904 57.2665 135.906 57.2614C135.908 57.2563 135.909 57.2506 135.908 57.2451C135.906 57.2396 135.903 57.2347 135.899 57.2311C128.897 49.4443 120.945 42.7972 112.043 37.2897C111.955 37.2353 111.87 37.2414 111.789 37.3082ZM29.1223 56.6372C29.147 56.5387 29.1209 56.5234 29.0442 56.5913C27.2358 58.1951 25.5773 59.9583 24.0687 61.881C23.2325 62.947 22.5023 64.1382 21.878 65.4546C20.7529 67.8291 19.1217 71.0547 19.0487 73.6636C18.9211 78.3244 21.6983 82.4212 25.5489 84.9218C25.6344 84.979 25.6903 84.9572 25.7165 84.8565C26.2375 82.9236 26.812 81.0091 27.44 79.113C27.5813 78.6864 27.6283 78.2452 27.5809 77.7893C26.8577 70.7299 27.3714 63.6792 29.1223 56.6372ZM56.9678 54.0167C56.9585 54.0662 56.9591 54.1157 56.9696 54.165C56.9728 54.1765 56.9789 54.187 56.9873 54.1954C56.9957 54.2038 57.0061 54.2099 57.0174 54.213C57.0287 54.216 57.0404 54.216 57.0515 54.2128C57.0625 54.2097 57.0723 54.2035 57.0801 54.195C57.2096 54.0585 57.2756 53.8977 57.2779 53.7128C57.2783 53.6444 57.2369 53.5758 57.1801 53.5463C57.0718 53.4939 57.0031 53.5254 56.9741 53.6406C56.953 53.7184 56.9509 53.8022 56.968 53.8917C56.9769 53.9335 56.9768 53.9751 56.9678 54.0167ZM57.4455 54.739C57.2568 55.1478 57.183 55.4818 57.2242 55.7407C58.0417 61.0888 59.14 66.3861 60.5189 71.6328C60.5424 71.7249 60.5977 71.7518 60.6847 71.7135C66.1546 69.3791 71.7258 67.3215 77.3986 65.5407C77.4364 65.5295 77.4691 65.5055 77.4914 65.4726C77.5136 65.4397 77.524 65.4 77.5208 65.3601L76.3099 52.5553C76.3016 52.4698 76.2554 52.434 76.1711 52.448C70.0951 53.3856 64.2659 53.9733 58.1062 53.6498C58.0122 53.646 57.9437 53.6873 57.9006 53.7738C57.7425 54.1028 57.5908 54.4245 57.4455 54.739ZM78.1261 65.3117C85.1831 63.1217 92.3447 61.3496 99.6111 59.9955C99.7405 59.9699 99.7869 59.8946 99.7504 59.7696L96.0603 46.7185C96.0562 46.704 96.0491 46.6906 96.0395 46.6791C96.0299 46.6675 96.018 46.6581 96.0045 46.6515C95.9911 46.6448 95.9763 46.641 95.9613 46.6404C95.9463 46.6397 95.9314 46.6423 95.9174 46.6477C89.8045 49.1843 83.4937 51.06 76.9849 52.275C76.8703 52.2954 76.8184 52.3639 76.8293 52.4806L78.0387 65.25C78.0428 65.3066 78.0719 65.3272 78.1261 65.3117ZM96.8635 46.8452C96.7802 46.7241 96.7024 46.6375 96.6298 46.5855C96.5799 46.5466 96.5635 46.558 96.5806 46.6198L100.276 59.6936C100.306 59.7982 100.374 59.8412 100.481 59.8224L104.483 59.1443C104.596 59.1262 104.624 59.0676 104.568 58.9687C102.158 54.8254 99.5903 50.7842 96.8635 46.8452ZM51.4982 75.745C51.471 75.8876 51.5232 75.9281 51.6549 75.8664L59.948 71.9831C59.9724 71.9724 59.9921 71.9529 60.0037 71.9282C60.0153 71.9034 60.018 71.8749 60.0114 71.8477C58.7418 66.8683 57.7632 61.8865 56.8242 56.825C56.7962 56.6842 56.758 56.6814 56.7094 56.8167C54.476 62.9878 52.7389 69.2972 51.4982 75.745ZM170.401 70.5347C166.702 58.9963 160.223 48.1052 151.695 39.6187C151.688 39.6105 151.679 39.6073 151.669 39.6093C151.664 39.6125 151.658 39.6148 151.65 39.6164C151.646 39.6181 151.643 39.6206 151.641 39.6237C151.638 39.6269 151.636 39.6305 151.635 39.6345C151.635 39.6384 151.635 39.6425 151.636 39.6464C151.636 39.6503 151.638 39.654 151.641 39.657C156.244 45.192 159.804 51.3262 162.322 58.0597C162.593 58.7852 162.94 59.4718 163.363 60.1194C164.73 62.2041 165.982 64.3579 167.119 66.5808C167.356 67.0439 167.677 67.4792 168.083 67.8866C168.933 68.7391 169.665 69.6403 170.279 70.5903C170.462 70.8726 170.502 70.8541 170.401 70.5347ZM160.744 56.3487C160.987 56.6779 161.157 56.9223 161.254 57.082C161.261 57.0952 161.273 57.1051 161.287 57.1097C161.294 57.1119 161.301 57.1128 161.308 57.1122C161.316 57.1116 161.323 57.1096 161.329 57.1062C161.336 57.1029 161.342 57.0983 161.346 57.0927C161.351 57.0871 161.355 57.0807 161.357 57.0737C161.359 57.0667 161.36 57.0594 161.359 57.0521C161.359 57.0448 161.357 57.0377 161.353 57.0312C159.121 51.405 156.141 46.2092 152.413 41.4439C152.228 41.2076 152.183 41.2321 152.277 41.5174C152.878 43.3466 153.049 45.2128 152.789 47.1159C152.774 47.2222 152.805 47.3127 152.883 47.3875C155.967 50.4059 158.587 53.3929 160.744 56.3487ZM17.6197 107.699C18.7612 103.653 20.743 100.118 23.3692 96.9424C23.4326 96.867 23.4719 96.7736 23.4818 96.6746C23.9167 92.9835 24.5876 89.3355 25.4948 85.7304C25.5062 85.6855 25.5031 85.6381 25.4859 85.5948C25.4687 85.5515 25.4382 85.5145 25.3989 85.4891C21.6242 83.0377 18.7061 79.0898 18.5364 74.4715C18.5271 74.2038 18.4842 74.198 18.4078 74.4542C15.1755 85.4216 14.866 96.5024 17.4794 107.697C17.5223 107.88 17.5691 107.881 17.6197 107.699ZM147.231 58.6323C153.074 59.707 158.52 61.4552 163.69 64.4129C163.787 64.4696 163.822 64.4433 163.795 64.3341C163.468 63.0493 163.084 61.7827 162.642 60.5343C162.363 59.7412 161.966 58.9818 161.453 58.2561C158.862 54.5996 155.979 51.2043 152.805 48.0702C152.719 47.9853 152.663 48.0012 152.636 48.1179C151.754 51.9964 149.76 55.4745 147.179 58.4885C147.169 58.5002 147.162 58.5145 147.159 58.5297C147.156 58.545 147.158 58.5608 147.163 58.5755C147.168 58.5902 147.177 58.6032 147.189 58.6131C147.201 58.6231 147.215 58.6297 147.231 58.6323ZM78.3045 65.8151C78.195 65.8502 78.1467 65.9259 78.1595 66.0422C79.0663 73.8438 80.1716 81.618 81.4752 89.365C81.4777 89.3785 81.4828 89.3915 81.4903 89.403C81.4978 89.4146 81.5074 89.4245 81.5188 89.4323C81.5301 89.4402 81.5428 89.4457 81.5563 89.4485C81.5698 89.4514 81.5836 89.4516 81.5972 89.4491C89.5625 87.9603 97.3755 85.8941 105.036 83.2507C105.1 83.2271 105.125 83.1821 105.111 83.1157C103.583 75.573 101.857 68.0755 99.9319 60.6232C99.9238 60.5889 99.9028 60.559 99.8732 60.5398C99.8436 60.5206 99.8078 60.5135 99.7732 60.5201C92.5124 61.8632 85.3562 63.6282 78.3045 65.8151ZM115.151 79.2211C112.091 72.5938 108.752 66.0052 105.035 59.7555C104.983 59.6694 104.907 59.634 104.808 59.6493L100.571 60.3685C100.469 60.386 100.432 60.4435 100.459 60.541C102.372 67.9759 104.095 75.4542 105.629 82.9759C105.631 82.9892 105.637 83.0018 105.645 83.0127C105.653 83.0236 105.663 83.0327 105.675 83.0392C105.687 83.0458 105.7 83.0496 105.714 83.0506C105.727 83.0515 105.741 83.0495 105.753 83.0446L115.059 79.4487C115.081 79.4403 115.1 79.4276 115.116 79.4114C115.133 79.3952 115.146 79.3759 115.154 79.3546C115.163 79.3333 115.167 79.3104 115.166 79.2875C115.166 79.2645 115.16 79.2419 115.151 79.2211ZM115.817 79.0231C123.9 75.6364 131.848 71.2227 138.763 65.8332C138.798 65.8052 138.825 65.7684 138.84 65.7268C138.856 65.6852 138.86 65.6403 138.852 65.597C138.461 63.4952 138.016 61.4049 137.516 59.3261C137.383 58.7714 137.037 58.4555 136.675 58.0684C136.546 57.9299 136.367 57.8472 136.177 57.8382C125.952 57.3547 115.784 57.9239 105.672 59.5459C105.585 59.5584 105.564 59.6025 105.608 59.6785C109.236 65.9459 112.569 72.3674 115.606 78.9429C115.65 79.0367 115.72 79.0634 115.817 79.0231ZM61.6059 71.8776C61.3531 71.9848 61.0911 72.105 60.82 72.2379C60.7266 72.2836 60.6934 72.356 60.7205 72.4554C62.4141 78.8466 64.3928 85.1474 66.6566 91.3579C66.6679 91.3903 66.6896 91.418 66.7183 91.4366C66.7471 91.4553 66.7812 91.4639 66.8154 91.461C71.5282 91.0501 76.2125 90.4212 80.8684 89.5743C80.8823 89.5717 80.8956 89.5666 80.9075 89.559C80.9194 89.5515 80.9297 89.5417 80.9377 89.5303C80.9458 89.519 80.9515 89.5062 80.9546 89.4927C80.9576 89.4792 80.9578 89.4653 80.9553 89.4517C79.6538 81.7241 78.5514 73.9681 77.6483 66.1836C77.6462 66.1652 77.6401 66.1475 77.6304 66.1318C77.6207 66.116 77.6076 66.1026 77.5921 66.0926C77.5766 66.0825 77.559 66.076 77.5407 66.0735C77.5224 66.071 77.5037 66.0727 77.4861 66.0783C72.0944 67.7636 66.801 69.6967 61.6059 71.8776ZM51.21 77.2993C50.3469 82.0351 49.7384 86.798 49.3845 91.5882C49.3834 91.6021 49.3851 91.6161 49.3895 91.6293C49.3938 91.6426 49.4008 91.6548 49.41 91.6653C49.4191 91.6758 49.4303 91.6844 49.4428 91.6906C49.4553 91.6967 49.469 91.7003 49.4829 91.7011C55.0061 92.034 60.5255 91.9711 66.0412 91.5125C66.0536 91.5114 66.0657 91.5074 66.0764 91.5008C66.0871 91.4942 66.0961 91.4853 66.1028 91.4747C66.1094 91.464 66.1136 91.452 66.1148 91.4395C66.1161 91.427 66.1144 91.4144 66.11 91.4027C63.8649 85.2338 61.9014 78.9764 60.2194 72.6303C60.1883 72.512 60.1177 72.4784 60.0076 72.5296L51.4804 76.5429C51.367 76.5968 51.3028 76.6867 51.288 76.8128C51.2742 76.9347 51.2482 77.0969 51.21 77.2993ZM26.1669 85.2128C26.1527 85.2605 26.155 85.3117 26.1735 85.358C26.1919 85.4043 26.2255 85.4429 26.2687 85.4677L28.7517 86.8791C28.8934 86.958 28.9503 86.9181 28.9225 86.7595L27.7964 80.1882C27.7571 79.9566 27.704 79.954 27.6371 80.1804L26.1669 85.2128ZM145.991 58.9017L138.088 57.9436C138.024 57.9364 137.959 57.9484 137.902 57.9779C137.845 58.0074 137.798 58.0532 137.767 58.1093C137.736 58.1654 137.723 58.2293 137.729 58.2928C137.735 58.3563 137.76 58.4165 137.8 58.4657L141.697 63.2138C141.78 63.3151 141.868 63.3191 141.962 63.226L146.067 59.1176C146.083 59.1005 146.095 59.0792 146.1 59.056C146.105 59.0328 146.104 59.0087 146.096 58.9863C146.088 58.9639 146.074 58.9441 146.056 58.9292C146.037 58.9142 146.015 58.9047 145.991 58.9017ZM50.5479 77.095C44.3968 80.2256 38.2179 83.9956 32.8579 88.3855C32.7246 88.4952 32.7398 88.5762 32.9036 88.6286C38.0367 90.2975 43.2986 91.2946 48.6894 91.6199C48.7262 91.6222 48.7623 91.6099 48.79 91.5856C48.8178 91.5613 48.8347 91.5271 48.8373 91.4903C49.1972 86.691 49.8109 81.925 50.6786 77.1922C50.7008 77.0725 50.6572 77.0401 50.5479 77.095ZM138.418 60.0684C138.275 59.8906 138.227 59.9126 138.274 60.1346L139.345 65.2157C139.348 65.2298 139.355 65.2429 139.364 65.2537C139.373 65.2646 139.386 65.2729 139.399 65.2777C139.413 65.2826 139.427 65.2839 139.441 65.2816C139.456 65.2792 139.469 65.2732 139.48 65.2642L141.258 63.7771C141.285 63.7548 141.302 63.723 141.306 63.6883C141.309 63.6536 141.299 63.6188 141.278 63.5914L138.418 60.0684ZM163.928 65.2248C158.902 62.064 152.765 60.0553 146.915 59.1336C146.825 59.1191 146.748 59.1434 146.684 59.2066L142.235 63.6883C142.163 63.7591 142.158 63.8356 142.219 63.9178C150.314 74.6467 156.324 86.2024 159.932 99.1757C159.935 99.1852 159.94 99.1939 159.947 99.2009C159.954 99.208 159.962 99.2131 159.972 99.2158C159.981 99.2186 159.991 99.2188 160.001 99.2166C160.011 99.2144 160.02 99.2097 160.027 99.2031C162.087 97.3833 163.999 95.4184 165.763 93.3086C165.833 93.2238 165.877 93.1216 165.891 93.0137C166.969 83.7493 166.384 74.5817 164.134 65.511C164.106 65.3932 164.031 65.2907 163.928 65.2248ZM25.9845 86.0337C25.1929 89.2356 24.5538 92.4972 24.1468 95.7451C24.121 95.941 24.1724 95.9637 24.3011 95.8135C25.9595 93.8867 27.7455 92.0844 29.6591 90.4068C29.6977 90.3733 29.7262 90.3297 29.7415 90.2808C29.7568 90.2319 29.7584 90.1795 29.7459 90.1296L29.1957 87.8346C29.1724 87.7344 29.1158 87.6592 29.0258 87.6089L26.0878 85.988C26.0786 85.9826 26.0682 85.9796 26.0574 85.979C26.0467 85.9785 26.0359 85.9805 26.026 85.985C26.016 85.9894 26.007 85.9961 25.9999 86.0045C25.9927 86.013 25.9874 86.023 25.9845 86.0337ZM141.258 97.9434C146.835 98.3966 152.252 99.3121 157.542 101.156C157.649 101.193 157.746 101.174 157.831 101.1L159.384 99.7888C159.465 99.7201 159.491 99.6342 159.463 99.5311C156.011 86.6883 149.81 74.7001 141.71 64.1836C141.675 64.1395 141.636 64.1348 141.594 64.1695L139.59 65.8386C139.507 65.91 139.474 65.9992 139.493 66.1062C141.331 76.6303 141.752 87.1196 141.112 97.7751C141.104 97.8798 141.153 97.9359 141.258 97.9434ZM30.1806 89.7398C30.1841 89.7565 30.1919 89.772 30.2033 89.7848C30.2146 89.7976 30.229 89.8072 30.2452 89.8128C30.2613 89.8183 30.2787 89.8196 30.2954 89.8164C30.3122 89.8133 30.3279 89.8059 30.341 89.7949L31.4999 88.811C31.5131 88.8002 31.5233 88.7862 31.5294 88.7704C31.5356 88.7546 31.5376 88.7374 31.5352 88.7206C31.5328 88.7038 31.5262 88.6878 31.5158 88.6743C31.5055 88.6608 31.4919 88.6502 31.4762 88.6435L29.9406 88.0093C29.924 88.0026 29.9059 88.0005 29.8883 88.0033C29.8706 88.0061 29.854 88.0136 29.8403 88.0251C29.8265 88.0365 29.8161 88.0515 29.8102 88.0684C29.8043 88.0853 29.8031 88.1035 29.8068 88.121L30.1806 89.7398ZM48.579 92.1639C43.1189 91.8017 37.5077 90.8263 32.3325 88.9641C32.2359 88.9292 32.1489 88.9447 32.0718 89.0106L30.4597 90.3675C30.4327 90.3899 30.4129 90.4199 30.4026 90.4537C30.3924 90.4876 30.3922 90.5239 30.4021 90.5581C33.8508 103.411 40.0401 115.389 48.1457 125.917C48.1551 125.929 48.1672 125.94 48.181 125.948C48.1949 125.955 48.2102 125.96 48.2261 125.962C48.2421 125.963 48.2582 125.962 48.2737 125.957C48.2891 125.952 48.3035 125.944 48.3159 125.934L50.2935 124.282C50.3711 124.218 50.4013 124.137 50.3842 124.037C48.5584 113.554 48.0249 103.008 48.7838 92.3999C48.7879 92.3414 48.7687 92.2837 48.7302 92.2395C48.6918 92.1952 48.6374 92.168 48.579 92.1639ZM138.834 66.4365C131.995 71.6734 124.143 76.0369 116.069 79.5135C115.953 79.564 115.921 79.6471 115.974 79.7629C118.721 85.7557 121.236 91.8433 123.52 98.0258C123.528 98.0465 123.542 98.0642 123.561 98.0763C123.579 98.0884 123.601 98.0942 123.623 98.093C129.201 97.6211 134.784 97.5518 140.371 97.885C140.477 97.8902 140.534 97.8405 140.541 97.7358C141.291 87.2703 140.788 76.8628 139.032 66.5135C139.008 66.3799 138.942 66.3542 138.834 66.4365ZM166.201 65.9968C165.42 64.525 164.604 63.0993 163.754 61.7197C163.696 61.623 163.632 61.5602 163.562 61.5314C163.542 61.5218 163.535 61.5272 163.542 61.5476L164.505 64.8493C164.534 64.9463 164.589 65.0238 164.671 65.0818L166.075 66.1067C166.275 66.2527 166.316 66.216 166.201 65.9968ZM29.8767 90.8988C27.8162 92.7247 25.9007 94.6923 24.1304 96.8014C24.0501 96.898 23.9995 97.0152 23.985 97.1387C22.91 106.391 23.4938 115.546 25.7365 124.604C25.7699 124.734 25.8511 124.846 25.9633 124.915C31.1401 128.142 37.0303 129.969 43.0183 131.01C43.0413 131.014 43.065 131.013 43.0874 131.006C43.1097 130.999 43.1301 130.987 43.1468 130.97L47.656 126.425C47.7311 126.35 47.7359 126.269 47.6702 126.184C39.4589 115.593 33.5413 103.834 29.9174 90.908C29.9102 90.8838 29.8967 90.8807 29.8767 90.8988ZM171.879 81.5755C171.942 81.2558 172.038 80.9528 171.95 80.6235C170.83 76.3966 169.318 72.3162 167.415 68.3825C166.863 67.2389 165.888 66.5985 164.896 65.9024C164.795 65.8306 164.76 65.855 164.789 65.9756C166.865 74.5774 167.447 83.2709 166.535 92.056C166.516 92.2464 166.566 92.2665 166.685 92.1164C169.09 89.104 171.095 85.4151 171.879 81.5755ZM51.0267 123.716C57.8659 118.351 65.8508 113.983 73.8295 110.622C73.8505 110.613 73.8695 110.6 73.8855 110.584C73.9014 110.568 73.9139 110.549 73.9222 110.528C73.9305 110.507 73.9345 110.485 73.9339 110.462C73.9333 110.44 73.9281 110.418 73.9187 110.398C71.1737 104.415 68.6602 98.3355 66.3782 92.1606C66.3463 92.0761 66.2846 92.0377 66.1931 92.0453C60.609 92.5085 55.021 92.5751 49.429 92.2449C49.4178 92.2441 49.4067 92.2455 49.3961 92.249C49.3856 92.2525 49.3758 92.2581 49.3674 92.2654C49.359 92.2728 49.3521 92.2817 49.3472 92.2916C49.3423 92.3016 49.3393 92.3125 49.3386 92.3236C48.5807 102.825 49.0852 113.266 50.8519 123.649C50.8548 123.668 50.8624 123.685 50.8742 123.699C50.886 123.714 50.9014 123.725 50.919 123.732C50.9366 123.738 50.9558 123.741 50.9747 123.738C50.9936 123.735 51.0115 123.728 51.0267 123.716ZM17.8666 109.196C17.8594 109.227 17.8602 109.26 17.8689 109.291C18.9726 113.514 20.4723 117.607 22.3679 121.572C22.6519 122.162 23.009 122.649 23.4393 123.031C23.9357 123.473 24.4611 123.879 25.0156 124.248C25.0919 124.3 25.1196 124.281 25.0988 124.192C23.0108 115.563 22.4266 106.84 23.3463 98.0239C23.3626 97.8579 23.3192 97.8403 23.2162 97.9713C20.5938 101.277 18.6677 105.032 17.8666 109.196ZM108.831 99.9019C108.834 99.9188 108.841 99.9349 108.85 99.9492C108.86 99.9636 108.872 99.976 108.886 99.9857C108.9 99.9954 108.916 100.002 108.933 100.006C108.95 100.009 108.967 100.009 108.984 100.006C113.555 99.1774 118.154 98.5615 122.784 98.1585C122.926 98.1461 122.972 98.0729 122.921 97.9389C120.678 91.8331 118.198 85.8251 115.483 79.9149C115.475 79.8979 115.461 79.8846 115.444 79.8777C115.427 79.8708 115.408 79.8708 115.391 79.8777L105.89 83.5747C105.865 83.5841 105.845 83.6017 105.832 83.6245C105.819 83.6474 105.814 83.674 105.818 83.7L108.831 99.9019ZM172.067 79.1147C172.069 79.1216 172.073 79.1277 172.079 79.132C172.084 79.1363 172.091 79.1386 172.099 79.1384C172.106 79.1383 172.113 79.1357 172.118 79.1312C172.124 79.1266 172.128 79.1203 172.129 79.1133C172.176 78.9507 172.197 78.7757 172.193 78.5882C172.128 74.8963 170.911 71.7725 168.541 69.2168C168.348 69.008 168.311 69.0328 168.429 69.2912C169.898 72.4705 171.111 75.745 172.067 79.1147ZM81.7674 89.9423C81.7124 89.954 81.6748 89.968 81.6544 89.9842C81.5859 90.0444 81.5551 90.0906 81.5619 90.1228L84.5491 106.205C84.5735 106.339 84.6503 106.383 84.7795 106.338C92.4206 103.696 100.216 101.637 108.166 100.159C108.28 100.137 108.326 100.07 108.304 99.9573L105.322 83.8977C105.318 83.8757 105.309 83.8549 105.296 83.8366C105.284 83.8184 105.267 83.8032 105.248 83.792C105.228 83.7808 105.207 83.774 105.184 83.772C105.162 83.77 105.14 83.7728 105.119 83.7803C97.4828 86.4086 89.6991 88.4626 81.7674 89.9423ZM66.9212 92.0987C69.175 98.234 71.6646 104.271 74.39 110.209C74.3977 110.225 74.4117 110.238 74.4291 110.245C74.4465 110.252 74.4661 110.252 74.484 110.245L84.0505 106.546C84.0582 106.544 84.0647 106.538 84.0686 106.531C84.0725 106.523 84.0737 106.514 84.0717 106.506L81.0354 90.1782C81.0309 90.1568 81.0182 90.138 81.0001 90.1258C80.9819 90.1135 80.9597 90.1088 80.9382 90.1126C76.3188 90.9538 71.6711 91.5778 66.9951 91.9848C66.9819 91.9856 66.9691 91.9895 66.9577 91.9961C66.9463 92.0028 66.9366 92.012 66.9294 92.0231C66.9222 92.0342 66.9177 92.0468 66.9163 92.0599C66.9149 92.0731 66.9165 92.0863 66.9212 92.0987ZM16.174 104.578C16.3723 106.453 16.6826 108.342 17.1049 110.245C17.1403 110.402 17.1782 110.403 17.2185 110.247C17.3157 109.856 17.3073 109.419 17.1931 108.938C16.8231 107.375 16.5066 105.802 16.2433 104.218C16.2002 103.959 16.0263 103.729 16.0152 103.425L16.0117 103.422C16.0117 103.422 16.0129 103.423 16.0152 103.425C16.0807 103.807 16.1336 104.192 16.174 104.578ZM17.8725 111.253C17.7356 110.777 17.6672 110.786 17.6675 111.282C17.6748 115.02 18.9169 118.265 21.3935 121.018C21.5774 121.221 21.6114 121.199 21.4954 120.952C20.0407 117.811 18.8331 114.578 17.8725 111.253ZM173.811 86.4259C173.818 86.4563 173.806 86.4914 173.777 86.5313C173.768 86.5432 173.77 86.5478 173.783 86.5449C173.804 86.5405 173.828 86.5343 173.857 86.5264C173.868 86.524 173.873 86.5169 173.873 86.5051L172.815 79.723C172.794 79.5867 172.761 79.5837 172.718 79.7139C172.546 80.2321 172.512 80.6955 172.615 81.1039C173.061 82.8669 173.46 84.6409 173.811 86.4259ZM172.319 82.2314C171.131 86.4514 169.172 89.9132 166.509 93.1917C166.449 93.2666 166.41 93.3571 166.398 93.4532C166.027 96.5041 165.496 99.5267 164.804 102.521C164.659 103.145 164.523 103.783 164.396 104.437C164.376 104.538 164.409 104.616 164.494 104.672C168.302 107.157 171.178 111.073 171.324 115.607C171.336 115.965 171.392 115.972 171.492 115.628C174.717 104.525 175.003 93.3928 172.349 82.2311C172.339 82.1955 172.329 82.1956 172.319 82.2314ZM38.3429 150.556C33.6842 145.037 30.0979 138.896 27.5839 132.134C27.3123 131.407 26.9663 130.721 26.5458 130.077C25.1658 127.959 23.8976 125.775 22.7411 123.524C22.5074 123.069 22.1934 122.641 21.7991 122.241C20.9666 121.389 20.1863 120.46 19.5696 119.517C19.3205 119.138 19.2664 119.163 19.4074 119.593C21.4759 125.869 24.3612 131.692 27.7449 137.397C30.5485 142.121 34.4305 146.519 38.173 150.61C38.2092 150.65 38.2473 150.651 38.2872 150.615L38.3425 150.568C38.3478 150.565 38.3479 150.561 38.3429 150.556ZM84.8158 106.886C84.7958 106.893 84.779 106.906 84.7687 106.925C84.7584 106.944 84.7552 106.966 84.7599 106.987C86.2877 114.548 88.0178 122.062 89.9503 129.531C89.9583 129.561 89.9773 129.588 90.0036 129.605C90.0298 129.622 90.0613 129.628 90.0917 129.623C97.377 128.265 104.559 126.489 111.637 124.297C111.665 124.287 111.69 124.269 111.706 124.243C111.723 124.218 111.73 124.188 111.727 124.159C110.816 116.348 109.711 108.565 108.411 100.809C108.394 100.711 108.338 100.672 108.243 100.69C100.282 102.178 92.4724 104.243 84.8158 106.886ZM128.067 118.33C128.428 118.18 128.774 118.028 129.104 117.875C129.131 117.862 129.152 117.841 129.165 117.815C129.177 117.789 129.18 117.76 129.172 117.732C127.479 111.327 125.498 105.013 123.227 98.7899C123.197 98.7032 123.136 98.6636 123.044 98.6711C118.35 99.0761 113.687 99.7015 109.054 100.547C108.953 100.565 108.911 100.624 108.929 100.726C110.227 108.454 111.328 116.209 112.232 123.992C112.234 124.005 112.239 124.017 112.246 124.028C112.253 124.04 112.263 124.049 112.274 124.056C112.285 124.063 112.297 124.068 112.311 124.07C112.324 124.072 112.337 124.071 112.35 124.068C117.7 122.393 122.939 120.481 128.067 118.33ZM140.494 98.5368C140.496 98.5192 140.492 98.5016 140.483 98.4865C140.475 98.4713 140.462 98.4592 140.447 98.4518C140.377 98.4211 140.291 98.4025 140.191 98.3961C134.752 98.0889 129.313 98.1626 123.871 98.6172C123.855 98.6187 123.839 98.624 123.825 98.6327C123.811 98.6414 123.799 98.6533 123.791 98.6676C123.782 98.6818 123.776 98.6979 123.775 98.7147C123.773 98.7315 123.775 98.7485 123.781 98.7644C126.018 104.915 127.975 111.155 129.651 117.485C129.687 117.614 129.765 117.65 129.886 117.592L138.396 113.586C138.494 113.541 138.552 113.465 138.571 113.358C139.477 108.453 140.118 103.512 140.494 98.5368ZM74.7095 110.872C77.793 117.553 81.1808 124.075 84.8729 130.438C84.8856 130.46 84.9051 130.479 84.9288 130.49C84.9524 130.501 84.9792 130.506 85.0055 130.502L89.3056 129.772C89.3253 129.769 89.3441 129.761 89.3608 129.75C89.3775 129.739 89.3917 129.725 89.4024 129.709C89.4132 129.692 89.4203 129.673 89.4233 129.654C89.4263 129.635 89.4252 129.615 89.4199 129.596C87.5091 122.192 85.7912 114.744 84.2662 107.253C84.2386 107.114 84.1578 107.07 84.0238 107.12L74.7793 110.697C74.763 110.703 74.7481 110.713 74.7357 110.726C74.7233 110.738 74.7135 110.753 74.707 110.77C74.7005 110.786 74.6974 110.804 74.6978 110.821C74.6982 110.839 74.7022 110.856 74.7095 110.872ZM74.151 111.071C66.0317 114.457 58.093 118.874 51.1329 124.285C51.0598 124.343 51.031 124.417 51.0466 124.509C51.6024 127.74 52.0752 129.969 52.4651 131.196C52.5536 131.473 52.8684 131.807 53.4094 132.197C53.4754 132.247 53.5496 132.274 53.6318 132.278C63.8755 132.777 74.0643 132.216 84.1981 130.593C84.2919 130.577 84.3152 130.528 84.2682 130.447C80.6215 124.158 77.2793 117.711 74.2416 111.106C74.2339 111.089 74.2201 111.077 74.2032 111.07C74.1863 111.064 74.1676 111.064 74.151 111.071ZM139.192 112.979C139.176 113.07 139.209 113.095 139.291 113.053C145.593 109.856 151.525 106.081 157.087 101.728C157.104 101.715 157.117 101.698 157.124 101.678C157.132 101.658 157.134 101.637 157.131 101.616C157.127 101.595 157.118 101.576 157.105 101.561C157.091 101.545 157.073 101.533 157.053 101.527C151.866 99.8284 146.546 98.8209 141.091 98.5051C141.08 98.5046 141.069 98.5085 141.06 98.5158C141.051 98.5232 141.045 98.5336 141.043 98.5451C140.681 103.389 140.064 108.2 139.192 112.979ZM26.3198 128.551L25.3721 125.282C25.3466 125.19 25.2951 125.116 25.2176 125.059L23.707 123.941C23.6954 123.933 23.6818 123.93 23.6682 123.931C23.6545 123.932 23.6415 123.937 23.6311 123.946C23.6207 123.955 23.6134 123.967 23.6102 123.98C23.6071 123.993 23.6084 124.007 23.6138 124.02C24.4355 125.572 25.3102 127.094 26.238 128.587C26.3521 128.769 26.3793 128.757 26.3198 128.551ZM165.748 94.3141C165.768 94.167 165.73 94.1494 165.633 94.2612C163.946 96.212 162.135 98.0402 160.202 99.7458C160.13 99.8087 160.105 99.8864 160.127 99.979L160.693 102.351C160.7 102.381 160.714 102.41 160.733 102.434C160.752 102.459 160.776 102.479 160.804 102.494L163.688 104.085C163.809 104.15 163.885 104.117 163.917 103.985C164.708 100.796 165.318 97.5718 165.748 94.3141ZM37.2175 142.099C38.0785 138.216 40.0895 134.692 42.6303 131.717C42.7432 131.586 42.7141 131.505 42.5429 131.473C36.9035 130.477 31.1128 128.672 26.1876 125.677C26.0646 125.602 26.0218 125.634 26.0592 125.772C26.5917 127.676 27.0887 129.958 28.2423 131.607C30.8862 135.39 33.8517 138.894 37.139 142.121C37.1449 142.127 37.1523 142.131 37.1603 142.134C37.1684 142.136 37.1769 142.136 37.1849 142.133C37.193 142.131 37.2002 142.127 37.206 142.12C37.2117 142.114 37.2157 142.107 37.2175 142.099ZM159.697 100.392C159.693 100.375 159.685 100.359 159.673 100.346C159.661 100.334 159.647 100.324 159.63 100.319C159.614 100.314 159.596 100.313 159.579 100.317C159.562 100.32 159.547 100.328 159.534 100.34L158.375 101.324C158.363 101.335 158.353 101.349 158.348 101.364C158.342 101.38 158.341 101.397 158.343 101.413C158.346 101.429 158.353 101.445 158.363 101.458C158.373 101.471 158.386 101.481 158.401 101.488L159.941 102.127C159.958 102.134 159.976 102.136 159.994 102.133C160.012 102.13 160.028 102.122 160.042 102.11C160.056 102.099 160.066 102.083 160.072 102.066C160.077 102.049 160.078 102.03 160.074 102.013L159.697 100.392ZM139.03 113.897C137.588 120.723 135.948 127.311 133.493 133.977C133.154 134.9 133.314 135.571 133.492 136.49C133.511 136.59 133.571 136.643 133.672 136.651C137.789 137.049 141.907 137.994 145.518 140.096C145.604 140.146 145.679 140.132 145.742 140.055C152.563 131.693 157.794 122.434 161.432 112.279C161.592 111.836 161.647 111.383 161.598 110.917C161.316 108.255 160.878 105.616 160.284 103C160.258 102.888 160.193 102.81 160.088 102.765L157.953 101.871C157.861 101.831 157.777 101.843 157.699 101.905C151.923 106.457 145.75 110.39 139.179 113.702C139.099 113.743 139.049 113.808 139.03 113.897ZM50.4495 124.82L48.5962 126.371C48.5753 126.389 48.5622 126.414 48.5597 126.441C48.5571 126.468 48.5653 126.495 48.5825 126.517L51.5137 130.135C51.6202 130.263 51.6562 130.245 51.6215 130.082L50.5165 124.842C50.515 124.835 50.5116 124.828 50.5068 124.823C50.502 124.818 50.4959 124.814 50.4892 124.812C50.4824 124.81 50.4752 124.809 50.4682 124.811C50.4612 124.812 50.4548 124.815 50.4495 124.82ZM43.9146 131.238L51.9037 132.193C52.0255 132.207 52.0863 132.152 52.086 132.03C52.0886 131.771 52.0492 131.595 51.9678 131.501C50.6653 129.982 49.4049 128.446 48.1865 126.892C48.172 126.874 48.1538 126.859 48.1332 126.848C48.1126 126.837 48.0901 126.831 48.067 126.829C48.044 126.828 48.0209 126.831 47.9994 126.839C47.9779 126.847 47.9583 126.86 47.9421 126.876L43.8294 130.992C43.8104 131.011 43.797 131.035 43.791 131.062C43.785 131.088 43.7865 131.116 43.7954 131.142C43.8042 131.167 43.8201 131.19 43.8411 131.207C43.8622 131.224 43.8876 131.235 43.9146 131.238ZM162.208 110.05L163.713 104.918C163.746 104.804 163.711 104.717 163.607 104.658L161.046 103.213C161.034 103.206 161.021 103.203 161.008 103.203C160.995 103.204 160.982 103.208 160.971 103.216C160.96 103.224 160.952 103.234 160.947 103.246C160.942 103.259 160.94 103.272 160.942 103.285L162.094 110.045C162.121 110.213 162.159 110.215 162.208 110.05ZM28.6153 133.069C28.5794 133.021 28.5599 133.027 28.5568 133.087C28.547 133.218 28.5715 133.357 28.6303 133.503C30.8988 139.026 33.8587 144.099 37.5101 148.722C37.6371 148.882 37.6693 148.865 37.6065 148.672C37.0057 146.825 36.8307 144.943 37.0814 143.026C37.0957 142.916 37.063 142.823 36.9834 142.746C33.923 139.756 31.1337 136.531 28.6153 133.069ZM161.018 132.24C160.915 132.682 160.82 133.095 160.731 133.478C160.7 133.612 160.735 133.633 160.837 133.542C162.725 131.85 164.435 130.016 165.966 128.041C167.894 125.553 169.106 122.354 170.218 119.402C172.314 113.856 168.877 108.195 164.29 105.155C164.279 105.148 164.267 105.144 164.254 105.142C164.241 105.141 164.228 105.142 164.216 105.147C164.204 105.152 164.193 105.159 164.184 105.169C164.176 105.178 164.17 105.19 164.166 105.202C163.667 107.144 163.092 109.073 162.44 110.988C162.295 111.415 162.245 111.855 162.292 112.307C162.98 119.025 162.556 125.669 161.018 132.24ZM64.8332 159.959C58.7974 151.823 54.8549 142.594 52.3481 132.857C52.3368 132.815 52.3127 132.778 52.2791 132.75C52.2455 132.722 52.2041 132.705 52.1602 132.701C49.2696 132.496 46.3965 132.15 43.5408 131.663C43.444 131.646 43.3628 131.674 43.2971 131.747C40.6199 134.767 38.3682 138.586 37.7001 142.523C37.6924 142.568 37.696 142.615 37.7105 142.659C37.7251 142.703 37.7502 142.743 37.7836 142.775C45.664 150.27 54.6533 156.034 64.7518 160.066C64.9035 160.126 64.9307 160.091 64.8332 159.959ZM133.18 133.261C135.427 127.058 137.166 120.714 138.399 114.23C138.401 114.225 138.401 114.219 138.399 114.213C138.397 114.208 138.394 114.203 138.389 114.2C138.384 114.196 138.379 114.194 138.373 114.194C138.368 114.194 138.362 114.195 138.357 114.198L129.941 118.146C129.91 118.16 129.885 118.185 129.87 118.216C129.855 118.246 129.852 118.281 129.861 118.314C131.15 123.241 132.202 128.218 133.016 133.246C133.052 133.46 133.107 133.465 133.18 133.261ZM71.4527 162.362C72.5269 158.559 74.6291 156.066 77.3954 153.437C77.4797 153.358 77.4728 153.288 77.3747 153.228C68.3706 147.619 60.335 140.858 53.2678 132.944C52.9505 132.589 52.8499 132.643 52.9662 133.106C55.4418 142.808 59.6467 152.46 65.869 160.453C65.9347 160.538 66.0178 160.597 66.1182 160.632L71.3161 162.432C71.3867 162.457 71.4323 162.434 71.4527 162.362ZM78.1035 152.823C82.4089 149.124 87.5802 146.211 92.78 144.005C92.7927 144 92.804 143.992 92.8132 143.982C92.8223 143.972 92.829 143.96 92.8328 143.946C92.8366 143.933 92.8374 143.92 92.8351 143.906C92.8328 143.893 92.8274 143.88 92.8194 143.869C89.9488 139.766 87.2518 135.552 84.7284 131.227C84.681 131.144 84.6092 131.109 84.5132 131.124C74.3917 132.618 64.3031 133.329 54.0711 132.848C53.9687 132.842 53.9515 132.877 54.0193 132.954C60.9351 140.626 69.0152 147.48 77.8585 152.845C77.9447 152.896 78.0264 152.889 78.1035 152.823ZM131.986 136.359C132.403 135.44 132.729 134.806 132.563 133.756C131.738 128.607 130.668 123.502 129.352 118.44C129.349 118.43 129.344 118.421 129.338 118.413C129.331 118.405 129.323 118.399 129.313 118.394C129.304 118.39 129.293 118.387 129.283 118.387C129.273 118.387 129.262 118.389 129.253 118.393C123.755 120.737 118.157 122.806 112.457 124.598C112.38 124.622 112.346 124.673 112.352 124.751L113.567 137.576C113.569 137.597 113.576 137.618 113.586 137.636C113.597 137.655 113.611 137.671 113.628 137.684C113.645 137.697 113.664 137.706 113.685 137.711C113.706 137.716 113.727 137.717 113.748 137.713C119.716 136.591 125.729 136.18 131.788 136.478C131.882 136.482 131.948 136.442 131.986 136.359ZM161.695 113.205C158.272 122.426 153.601 130.846 147.682 138.465C147.207 139.075 146.731 139.695 146.254 140.324C146.196 140.398 146.202 140.466 146.27 140.528L148.408 142.498C148.465 142.551 148.527 142.558 148.594 142.518C152.557 140.167 156.289 137.494 159.791 134.499C159.875 134.429 159.935 134.335 159.963 134.231C161.826 127.343 162.439 120.34 161.802 113.22C161.789 113.055 161.753 113.049 161.695 113.205ZM111.848 124.966C111.846 124.945 111.84 124.925 111.829 124.906C111.819 124.888 111.804 124.873 111.787 124.861C111.769 124.849 111.75 124.842 111.729 124.839C111.708 124.836 111.687 124.837 111.667 124.843C104.629 127.029 97.4873 128.797 90.2418 130.147C90.131 130.167 90.0913 130.232 90.1226 130.342L93.8152 143.404C93.8386 143.487 93.8893 143.51 93.9672 143.476C100.093 140.935 106.416 139.056 112.937 137.841C112.971 137.835 113.001 137.816 113.023 137.788C113.044 137.761 113.054 137.726 113.051 137.692L111.848 124.966ZM93.1664 143.444C93.2891 143.62 93.3204 143.605 93.2605 143.397L89.5838 130.367C89.5771 130.343 89.5617 130.321 89.5406 130.308C89.5195 130.294 89.4943 130.289 89.4699 130.293L85.3253 130.999C85.3128 131.001 85.3011 131.006 85.2912 131.014C85.2812 131.022 85.2734 131.032 85.2682 131.044C85.2631 131.056 85.2608 131.068 85.2617 131.081C85.2625 131.094 85.2664 131.106 85.2731 131.117C87.7392 135.331 90.3703 139.44 93.1664 143.444ZM66.7358 162.404C66.8062 162.409 66.8208 162.384 66.7794 162.329C66.2935 161.68 65.8883 161.103 65.0805 160.787C54.8264 156.778 45.6868 150.993 37.6615 143.432C37.6533 143.424 37.6431 143.419 37.6321 143.417C37.6211 143.414 37.6097 143.415 37.5992 143.419C37.5886 143.423 37.5793 143.429 37.5722 143.438C37.5652 143.447 37.5607 143.457 37.5592 143.469C37.3528 145.473 37.6252 147.389 38.3764 149.216C38.7001 150.002 39.2323 150.813 39.9731 151.649C41.4955 153.368 43.5576 155.696 45.5502 156.801C51.9759 160.363 59.4013 161.842 66.7358 162.404ZM167.666 126.479C165.28 131.243 162.37 135.653 158.936 139.71C158.519 140.201 158.169 140.748 157.887 141.352C156.858 143.547 155.653 145.641 154.27 147.634C154.252 147.66 154.254 147.681 154.278 147.698L154.281 147.7C154.303 147.718 154.319 147.72 154.331 147.708C159.919 141.359 164.405 134.31 167.79 126.562C167.802 126.534 167.795 126.514 167.769 126.501L167.699 126.468C167.683 126.46 167.672 126.463 167.666 126.479ZM94.5054 145.336C98.0068 150.154 101.76 154.7 105.972 158.917C106.007 158.953 106.051 158.978 106.098 158.992C106.146 159.005 106.196 159.006 106.244 158.993L113.475 157.18C113.56 157.16 113.604 157.107 113.605 157.021C113.723 150.82 113.54 144.628 113.056 138.446C113.055 138.433 113.052 138.42 113.045 138.409C113.039 138.398 113.03 138.388 113.02 138.38C113.01 138.372 112.998 138.366 112.985 138.363C112.972 138.36 112.959 138.36 112.946 138.362C106.502 139.581 100.251 141.444 94.1932 143.951C94.1167 143.984 94.086 144.04 94.1011 144.12C94.2028 144.701 94.3376 145.106 94.5054 145.336ZM131.504 136.973C125.524 136.703 119.592 137.127 113.707 138.245C113.615 138.263 113.573 138.318 113.579 138.412C114.059 144.546 114.245 150.688 114.134 156.838C114.133 156.953 114.187 156.993 114.297 156.958L122.179 154.53C122.296 154.493 122.39 154.424 122.459 154.322C126.147 148.946 129.207 143.234 131.642 137.187C131.696 137.051 131.65 136.979 131.504 136.973ZM132.747 135.953C132.614 136.239 132.552 136.395 132.561 136.421C132.719 136.798 132.837 136.786 132.917 136.387C132.939 136.269 132.918 136.126 132.852 135.957C132.82 135.873 132.785 135.871 132.747 135.953ZM93.0328 144.481C88.0829 146.547 82.5749 149.499 78.5783 153.112C78.5034 153.179 78.5093 153.239 78.5959 153.292C83.6432 156.34 88.9381 158.867 94.4803 160.875C94.867 161.015 95.2647 161.054 95.6736 160.991C96.8685 160.81 98.0523 160.61 99.225 160.39C99.2375 160.388 99.2494 160.383 99.2597 160.375C99.2701 160.368 99.2787 160.358 99.2848 160.347C99.291 160.336 99.2947 160.324 99.2955 160.312C99.2964 160.299 99.2944 160.287 99.2898 160.275C97.3285 155.535 95.5891 150.719 94.0714 145.827C93.9368 145.39 93.6654 144.957 93.257 144.528C93.1935 144.462 93.1187 144.447 93.0328 144.481ZM165.161 130.018C165.353 129.689 165.325 129.669 165.077 129.955C163.655 131.588 162.132 133.119 160.506 134.549C160.467 134.585 160.437 134.63 160.418 134.681L159.149 138.433C159.082 138.632 159.115 138.651 159.247 138.49C161.437 135.818 163.409 132.994 165.161 130.018ZM132.155 137.405C129.785 143.25 126.857 148.77 123.371 153.964C123.25 154.144 123.291 154.195 123.492 154.117L133.687 150.183C133.707 150.176 133.723 150.163 133.735 150.146C133.747 150.129 133.753 150.109 133.753 150.089C133.834 145.805 133.596 141.539 133.038 137.292C133.027 137.213 132.985 137.156 132.913 137.122C132.55 136.957 132.298 137.052 132.155 137.405ZM133.694 137.173C133.678 137.172 133.662 137.174 133.647 137.179C133.632 137.185 133.618 137.193 133.607 137.205C133.596 137.217 133.588 137.23 133.583 137.246C133.578 137.261 133.577 137.277 133.579 137.293C134.122 141.432 134.362 145.59 134.3 149.765C134.3 149.775 134.302 149.785 134.307 149.794C134.312 149.803 134.319 149.81 134.328 149.816C134.336 149.821 134.346 149.824 134.356 149.825C134.367 149.825 134.377 149.823 134.386 149.818C135.837 149.146 137.918 148.496 139.06 147.379C141.215 145.269 143.258 143.049 145.19 140.719C145.258 140.638 145.246 140.57 145.155 140.516C141.793 138.464 137.612 137.545 133.694 137.173ZM95.2936 147.254C95.2047 147.134 95.1183 147.035 95.0345 146.958C94.9871 146.912 94.9732 146.921 94.9926 146.985C96.4127 151.455 98.0213 155.856 99.8182 160.187C99.8472 160.258 99.8989 160.287 99.9733 160.273L105.304 159.214C105.422 159.191 105.438 159.136 105.352 159.049C101.717 155.369 98.3638 151.437 95.2936 147.254ZM73.5582 170.141C73.952 170.212 74.2503 170.267 74.4531 170.307C74.6564 170.349 74.6785 170.304 74.5194 170.171C73.376 169.228 72.6779 168.014 71.5971 167.099C70.1495 165.876 68.7891 164.555 67.516 163.136C67.4514 163.066 67.3636 163.022 67.2698 163.013C60.3157 162.296 53.5432 161.356 47.1787 158.236C46.8447 158.073 46.824 158.106 47.1166 158.336C54.8862 164.443 63.7001 168.378 73.5582 170.141ZM148.788 143.125C149.719 144.474 150.15 145.968 150.08 147.609C150.079 147.623 150.083 147.636 150.09 147.648C150.097 147.66 150.107 147.669 150.12 147.675C150.133 147.681 150.147 147.683 150.161 147.681C150.175 147.679 150.188 147.673 150.199 147.664C152.644 145.594 154.937 143.373 157.078 141.003C157.552 140.48 157.92 139.91 158.184 139.293C158.696 138.076 159.146 136.828 159.533 135.55C159.571 135.421 159.538 135.399 159.435 135.485C156.094 138.271 152.554 140.776 148.815 143C148.805 143.006 148.796 143.015 148.789 143.024C148.782 143.034 148.777 143.045 148.775 143.057C148.772 143.068 148.772 143.081 148.774 143.092C148.777 143.104 148.781 143.115 148.788 143.125ZM93.6341 161.147C88.2185 159.148 83.0441 156.65 78.1107 153.654C78.083 153.637 78.0507 153.629 78.0186 153.632C77.9864 153.634 77.9562 153.647 77.9323 153.668C75.2525 156.004 72.8481 158.936 72.0089 162.446C72.0018 162.477 72.0017 162.509 72.0086 162.54C72.0155 162.571 72.0292 162.6 72.0487 162.625C72.0683 162.649 72.0932 162.67 72.1216 162.684C72.15 162.698 72.1812 162.705 72.2129 162.706C79.3859 162.825 86.521 162.355 93.6182 161.297C93.8183 161.268 93.8236 161.218 93.6341 161.147ZM140.382 147.023C142.948 145.754 145.463 144.393 147.928 142.939C147.942 142.931 147.953 142.92 147.962 142.906C147.971 142.893 147.976 142.877 147.977 142.861C147.979 142.845 147.977 142.829 147.971 142.814C147.965 142.799 147.956 142.786 147.944 142.775L146.026 141.03C145.92 140.933 145.818 140.938 145.72 141.044L140.332 146.954C140.229 147.067 140.246 147.09 140.382 147.023ZM133.306 158.294C133.274 158.436 133.323 158.476 133.453 158.415C139.181 155.71 144.495 152.354 149.395 148.346C149.465 148.287 149.509 148.205 149.519 148.115C149.708 146.421 149.333 144.866 148.393 143.45C148.338 143.365 148.266 143.348 148.178 143.401C145.409 145.03 142.573 146.55 139.668 147.96C139.113 148.231 138.609 148.58 138.154 149.008C136.892 150.198 135.594 151.353 134.26 152.473C134.181 152.54 134.138 152.625 134.13 152.73C133.989 154.604 133.714 156.459 133.306 158.294ZM146.498 155.395C150.84 151.748 154.274 147.386 156.799 142.308C156.933 142.042 156.898 142.018 156.695 142.236C154.648 144.445 152.468 146.514 150.153 148.441C150.076 148.507 150.025 148.59 150.001 148.69C149.395 151.211 148.204 153.418 146.43 155.314C146.416 155.331 146.405 155.349 146.4 155.365C146.396 155.382 146.397 155.395 146.405 155.403L146.408 155.405C146.431 155.43 146.461 155.427 146.498 155.395ZM69.8874 162.623C69.9198 162.626 69.9253 162.615 69.9041 162.59C69.8504 162.524 69.7671 162.472 69.654 162.435C68.7156 162.115 67.7814 161.801 66.8515 161.493C66.8407 161.489 66.829 161.489 66.8182 161.493C66.8073 161.497 66.798 161.504 66.7916 161.513C66.7852 161.523 66.782 161.534 66.7826 161.545C66.7832 161.557 66.7875 161.568 66.7949 161.576L67.4597 162.339C67.546 162.438 67.6545 162.491 67.7851 162.499L69.8874 162.623ZM71.6054 166.508C71.7778 166.675 71.824 166.646 71.7441 166.419C71.3997 165.433 71.2706 164.42 71.3566 163.379C71.3585 163.358 71.3562 163.338 71.3499 163.318C71.3436 163.299 71.3333 163.281 71.3197 163.266C71.3062 163.25 71.2896 163.238 71.271 163.229C71.2523 163.219 71.2321 163.214 71.2113 163.213L68.3449 163.076C68.1447 163.067 68.117 163.132 68.2617 163.272L71.6054 166.508ZM136.896 149.442C137.148 149.218 137.121 149.174 136.815 149.31L134.379 150.387C134.31 150.418 134.274 150.47 134.27 150.544L134.202 151.71C134.202 151.72 134.204 151.731 134.21 151.74C134.216 151.75 134.224 151.757 134.234 151.762C134.244 151.766 134.255 151.768 134.266 151.766C134.276 151.764 134.286 151.76 134.294 151.752L136.896 149.442ZM102.206 166.79C91.9535 167.331 81.9634 166.085 72.1108 163.233C71.9776 163.194 71.905 163.244 71.8929 163.383C71.7859 164.54 71.9642 165.649 72.4277 166.711C72.6307 167.171 72.9669 167.583 73.4365 167.945C74.5968 168.842 75.8179 169.657 77.0998 170.39C77.5338 170.641 78.0072 170.788 78.5201 170.832C86.8901 171.573 95.1305 170.781 103.241 168.456C103.253 168.453 103.265 168.447 103.274 168.438C103.284 168.43 103.291 168.419 103.296 168.408C103.3 168.396 103.302 168.384 103.301 168.371C103.3 168.358 103.297 168.346 103.29 168.336L102.472 166.936C102.413 166.834 102.324 166.785 102.206 166.79ZM74.8392 163.42C83.7284 165.774 92.7694 166.72 101.962 166.259C102.054 166.254 102.08 166.21 102.038 166.127L100.711 163.465C100.675 163.389 100.617 163.341 100.535 163.321C98.899 162.882 97.2721 162.392 95.6543 161.851C95.2464 161.714 94.8312 161.677 94.4086 161.741C87.8332 162.726 81.3164 163.232 74.8584 163.259C74.4464 163.261 74.44 163.315 74.8392 163.42ZM114.746 164.149C114.738 164.15 114.729 164.152 114.72 164.154C114.718 164.155 114.717 164.155 114.717 164.155C114.719 164.154 114.72 164.154 114.72 164.154C114.759 164.15 114.798 164.15 114.839 164.153C114.891 164.158 114.942 164.149 114.991 164.126C121.669 161.022 127.836 157.114 133.493 152.405C133.588 152.327 133.638 152.227 133.644 152.105L133.717 150.787C133.718 150.774 133.715 150.762 133.71 150.751C133.705 150.74 133.696 150.73 133.686 150.723C133.676 150.716 133.664 150.712 133.652 150.71C133.64 150.709 133.627 150.711 133.616 150.716C130.09 152.215 126.514 153.583 122.886 154.82C122.76 154.862 122.651 154.944 122.576 155.052C120.268 158.319 117.664 161.348 114.761 164.139C114.757 164.145 114.751 164.148 114.746 164.149ZM149.152 149.284C144.073 153.151 139.03 156.459 133.234 159.145C133.211 159.156 133.19 159.171 133.173 159.19C133.156 159.209 133.143 159.231 133.135 159.256L131.77 163.031C131.746 163.098 131.767 163.121 131.832 163.101C135.484 162.038 138.919 160.528 142.136 158.574C145.07 156.79 148.513 152.576 149.268 149.358C149.3 149.226 149.261 149.202 149.152 149.284ZM114.132 157.68L113.643 164.306C113.634 164.425 113.674 164.444 113.762 164.364C116.699 161.614 119.344 158.609 121.696 155.349C121.759 155.262 121.74 155.235 121.64 155.266L114.259 157.522C114.181 157.546 114.139 157.599 114.132 157.68ZM133.424 153.41C132.903 153.6 132.433 153.877 132.013 154.242C131.492 154.692 131.226 154.922 131.214 154.932C126.39 158.618 121.255 161.75 115.807 164.328C115.574 164.439 115.584 164.466 115.836 164.411C121.621 163.139 127.209 161.277 132.6 158.822C132.681 158.785 132.729 158.723 132.742 158.637L133.58 153.54C133.603 153.406 133.551 153.363 133.424 153.41ZM113.085 164.535L113.604 157.84C113.605 157.824 113.602 157.808 113.596 157.794C113.59 157.78 113.581 157.767 113.569 157.757C113.557 157.747 113.544 157.74 113.529 157.737C113.514 157.733 113.499 157.733 113.484 157.737L106.702 159.44C106.614 159.463 106.603 159.506 106.67 159.569C108.598 161.418 110.653 163.111 112.836 164.65C112.859 164.666 112.886 164.675 112.914 164.678C112.942 164.68 112.97 164.675 112.995 164.664C113.02 164.652 113.042 164.634 113.057 164.611C113.073 164.588 113.083 164.562 113.085 164.535ZM100.292 162.558L99.6074 161.014C99.5706 160.934 99.5092 160.902 99.423 160.916L96.4805 161.429C96.2778 161.464 96.275 161.511 96.472 161.57L100.182 162.682C100.309 162.721 100.346 162.679 100.292 162.558ZM101.127 162.916C104.669 163.837 108.302 164.492 111.927 164.825C112.113 164.843 112.13 164.797 111.978 164.687C109.879 163.17 107.904 161.506 106.054 159.694C105.994 159.636 105.923 159.615 105.842 159.632L100.267 160.775C100.146 160.799 100.111 160.868 100.163 160.982L100.956 162.77C100.972 162.806 100.996 162.838 101.025 162.863C101.055 162.888 101.09 162.906 101.127 162.916ZM65.4366 168.744C69.8385 170.551 74.531 171.891 79.1797 172.871C79.2171 172.879 79.2419 172.865 79.254 172.829L79.2534 172.826C79.2636 172.79 79.2504 172.765 79.2137 172.751C78.1718 172.374 77.1732 171.906 76.2179 171.348C75.803 171.103 75.3732 170.946 74.9284 170.878C71.7186 170.385 68.5648 169.646 65.467 168.663C65.4414 168.655 65.4234 168.664 65.4131 168.69C65.4027 168.716 65.4106 168.734 65.4366 168.744ZM101.362 163.63L102.637 166.146C102.664 166.197 102.706 166.221 102.762 166.217C105.332 166.058 107.889 165.787 110.432 165.405C110.928 165.329 110.927 165.262 110.428 165.203C107.393 164.849 104.393 164.297 101.428 163.548C101.417 163.545 101.406 163.545 101.395 163.549C101.385 163.553 101.376 163.559 101.369 163.568C101.362 163.576 101.357 163.587 101.356 163.598C101.355 163.609 101.357 163.62 101.362 163.63ZM76.171 170.442L74.54 169.373C74.5009 169.347 74.47 169.351 74.4471 169.384L74.404 169.446C74.4006 169.449 74.4012 169.452 74.4058 169.455L76.0614 170.626C76.094 170.648 76.1208 170.644 76.1417 170.612L76.1893 170.542C76.2162 170.501 76.2101 170.467 76.171 170.442ZM79.6919 172.359C79.7007 172.34 79.7016 172.318 79.6944 172.299C79.6872 172.279 79.6726 172.263 79.6537 172.254L77.2842 171.155C77.2653 171.146 77.2437 171.145 77.2241 171.152C77.2046 171.159 77.1886 171.174 77.1799 171.193L77.175 171.203C77.1662 171.222 77.1653 171.244 77.1725 171.263C77.1796 171.283 77.1943 171.299 77.2132 171.308L79.5827 172.407C79.6016 172.416 79.6232 172.417 79.6427 172.41C79.6623 172.403 79.6782 172.388 79.687 172.369L79.6919 172.359ZM115.878 165.166C117.124 165.098 118.375 165.046 119.631 165.011C123.45 164.903 127.202 164.364 130.886 163.395C130.987 163.367 131.057 163.305 131.093 163.208L132.452 159.722C132.517 159.553 132.468 159.506 132.303 159.581C126.998 161.942 121.506 163.733 115.83 164.953C115.767 164.967 115.751 165.002 115.781 165.059L115.817 165.132C115.83 165.156 115.85 165.168 115.878 165.166ZM79.2153 171.514C87.5089 175.58 96.6143 175.042 104.73 170.798C104.748 170.789 104.764 170.776 104.776 170.76C104.789 170.744 104.798 170.725 104.803 170.706C104.808 170.686 104.808 170.666 104.804 170.646C104.801 170.626 104.792 170.607 104.781 170.591L103.719 169.05C103.692 169.012 103.655 168.983 103.612 168.967C103.568 168.95 103.521 168.948 103.476 168.959C95.3882 171.065 87.5905 172.032 79.2509 171.387C79.0213 171.371 79.0095 171.413 79.2153 171.514ZM110.065 166.208C110.474 166.054 110.461 165.999 110.024 166.045L103.034 166.781C103.028 166.781 103.021 166.783 103.016 166.787C103.011 166.791 103.007 166.796 103.004 166.802C103.001 166.808 102.999 166.814 103 166.821C103 166.828 103.002 166.835 103.005 166.841L103.811 168.21C103.825 168.234 103.848 168.253 103.875 168.264C103.902 168.274 103.932 168.275 103.96 168.268C106.022 167.661 108.057 166.974 110.065 166.208ZM122.278 169.168C119.016 168.662 116.119 167.516 113.586 165.731C113.566 165.717 113.543 165.708 113.519 165.705C113.494 165.702 113.47 165.706 113.447 165.716C113.425 165.725 113.405 165.74 113.39 165.76C113.376 165.779 113.366 165.802 113.362 165.826C113.047 167.883 112.527 170.36 111.382 172.138C111.301 172.263 111.333 172.309 111.477 172.279C115.199 171.452 118.8 170.426 122.279 169.201C122.32 169.186 122.319 169.175 122.278 169.168ZM114.49 165.69C116.876 167.244 120.095 168.609 123.017 168.601C124.524 168.596 127.602 167.421 128.74 166.367C129.414 165.74 129.985 165.019 130.454 164.203C130.521 164.086 130.489 164.044 130.359 164.078C125.156 165.364 119.883 165.852 114.539 165.54C114.336 165.528 114.32 165.578 114.49 165.69ZM105.465 170.398C107.497 169.279 109.485 167.929 111.308 166.447C111.452 166.329 111.436 166.301 111.26 166.362L104.275 168.784C104.263 168.787 104.253 168.793 104.245 168.802C104.236 168.81 104.23 168.821 104.227 168.832C104.223 168.843 104.222 168.856 104.224 168.868C104.226 168.88 104.23 168.891 104.237 168.902L105.243 170.344C105.302 170.429 105.377 170.447 105.465 170.398ZM112.643 166.038C110.253 167.974 108.411 169.314 105.833 170.787C105.742 170.84 105.728 170.908 105.794 170.992C106.396 171.774 107.123 172.409 107.975 172.898C108.049 172.942 108.136 172.957 108.219 172.942L110.234 172.558C110.344 172.536 110.436 172.484 110.51 172.401C111.845 170.904 112.505 168.12 112.761 166.105C112.776 165.987 112.736 165.965 112.643 166.038ZM139.448 160.718L139.405 160.644C139.393 160.623 139.376 160.619 139.355 160.631C136.868 161.963 134.261 162.998 131.533 163.736C131.439 163.76 131.364 163.813 131.308 163.894L129.774 166.111C129.726 166.181 129.74 166.198 129.818 166.162C133.173 164.642 136.377 162.853 139.432 160.796C139.461 160.776 139.466 160.75 139.448 160.718ZM105.187 171.189C105.162 171.164 105.135 171.16 105.104 171.177C102.54 172.547 99.8392 173.55 97.0005 174.187C96.963 174.197 96.9461 174.215 96.9498 174.242L96.9504 174.245C96.9546 174.274 96.989 174.287 97.0536 174.283C100.448 174.105 103.818 173.72 107.164 173.13C107.187 173.125 107.191 173.115 107.176 173.101L105.187 171.189Z" fill="#381668"/>
</g>
<defs>
<clipPath id="clip0_142_306">
<rect width="160" height="160" fill="white" transform="translate(0.115234 33.3799) rotate(-12)"/>
</clipPath>
</defs>
</svg>
