<svg width="332" height="344" viewBox="0 0 332 344" fill="none" xmlns="http://www.w3.org/2000/svg">
<path d="M13.0085 167.267C44.4375 159.72 73.569 146.239 100.366 126.859L13.0085 167.267ZM13.0085 167.267C33.2622 173.413 53.6283 181.29 72.4942 191.471C84.7548 198.081 95.598 205.648 104.983 214.195C113.664 222.097 120.926 231.901 126.821 243.494C133.544 256.708 139.44 270.559 144.512 285.042C144.512 285.042 144.512 285.043 144.512 285.043L138.377 287.191L13.0085 167.267ZM260.149 153.13C278.848 163.701 298.935 171.735 319.164 178.135L100.367 126.858C120.888 112.023 137.209 92.853 150.052 70.3538C160.381 52.2621 168.46 32.8178 174.341 12.6457C184.05 50.6293 199.835 88.2537 222.725 120.541L222.725 120.541C226.949 126.498 231.35 131.615 235.948 135.825L235.951 135.828C242.905 142.188 250.985 147.947 260.147 153.129L260.149 153.13ZM176.326 5.56915C176.326 5.56939 176.324 5.57532 176.317 5.58635C176.323 5.57442 176.326 5.56892 176.326 5.56915Z" fill="#FADB5E" stroke="#F4F4F4" stroke-width="13"/>
<path d="M180.161 91.9941C181.67 103.983 182.572 116.642 185.546 128.228C187.439 135.587 193.838 139.009 200.327 141.715C208.574 145.16 216.64 148.686 224.526 152.294C225.893 152.921 225.818 153.271 224.301 153.346C210.962 153.912 197.353 152.928 183.473 150.393C163.893 146.815 175.835 104.117 179.034 91.927C179.53 90.0035 179.905 90.0259 180.161 91.9941Z" fill="#F9EDC7"/>
</svg>
