<svg width="824" height="214" viewBox="0 0 824 214" fill="none" xmlns="http://www.w3.org/2000/svg">
<path d="M776.303 41.6596C768.216 35.4964 762.017 27.8218 768.104 24.3478C773.875 21.6154 778.008 33.6159 776.303 41.6596Z" stroke="white" stroke-width="3"/>
<path d="M796.763 46.0932C802.197 37.4997 808.518 30.0428 813.294 36.4169C816.519 41.9278 804.924 47.0908 796.763 46.0932Z" stroke="white" stroke-width="3"/>
<path d="M785.759 45.162C785.569 31.7561 782.05 4.15952 798.23 9.46724C805.518 11.858 803.402 31.5785 785.759 45.162Z" stroke="white" stroke-width="3"/>
<path d="M757.064 64.3172C758.154 64.3172 759.353 64.5352 760.443 64.8622C761.533 65.1892 762.732 65.5162 763.822 65.8432C764.912 66.2792 766.002 66.6062 767.092 66.9332C768.182 67.2602 769.381 67.3692 770.471 67.3692C773.523 67.3692 775.049 66.2792 775.049 63.9902H778.537C778.537 66.6062 777.774 68.6772 776.357 70.2032C774.831 71.7292 773.087 72.3832 771.016 72.3832C769.817 72.3832 768.618 72.2742 767.528 71.9472C766.438 71.6202 765.348 71.2932 764.258 70.8572C763.168 70.4212 762.078 70.0942 760.988 69.7672C759.898 69.4402 758.699 69.2222 757.609 69.2222C754.557 69.2222 753.031 70.4212 753.031 72.7102H749.543C749.543 70.0942 750.197 68.1322 751.723 66.6062C753.14 65.0802 754.884 64.3172 757.064 64.3172ZM757.936 161V83.0652H770.362V161H757.936Z" fill="white"/>
<path d="M724.683 176.369C725.882 176.369 726.972 176.26 727.953 175.824C728.825 175.497 729.697 174.843 730.351 173.753C731.005 172.663 731.441 171.137 731.877 169.175C732.204 167.213 732.422 164.706 732.422 161.436V114.566H744.848V161.436C744.848 169.72 743.322 176.042 740.488 180.402C737.654 184.762 732.749 186.942 725.991 186.942C724.465 186.942 723.048 186.942 721.958 186.724C720.759 186.506 719.778 186.288 719.015 185.961C718.034 185.743 717.162 185.416 716.508 184.98V174.516C718.688 175.824 721.413 176.369 724.683 176.369Z" fill="white"/>
<path d="M696.41 161V83.0654H708.836V161H696.41Z" fill="white"/>
<path d="M663.912 101.813H667.618V101.377C667.073 100.832 666.637 100.069 666.31 99.1974C665.983 98.3254 665.874 97.5624 665.874 96.6904C665.874 94.1834 666.637 92.2214 668.163 90.8044C669.689 89.4964 671.76 88.7334 674.594 88.7334C676.665 88.7334 678.518 89.3874 680.262 90.5864C682.006 91.7854 682.878 93.7474 683.096 96.4724H678.191C678.082 95.4914 677.755 94.6194 677.101 93.9654C676.447 93.3114 675.575 92.8754 674.594 92.8754C673.504 92.8754 672.741 93.3114 672.087 94.0744C671.433 94.8374 671.106 95.9274 671.106 97.2354C671.106 98.6524 671.433 99.7424 672.196 100.614C672.85 101.486 673.94 101.813 675.248 101.813H683.314V106.282H663.912V101.813ZM669.798 149.773V114.566H682.224V161H649.633C648.107 161 647.344 160.673 647.344 159.801V151.299C647.344 150.645 647.562 150.209 647.998 149.991C648.434 149.882 648.979 149.773 649.633 149.773H669.798Z" fill="white"/>
<path d="M649.631 149.773C650.176 149.773 650.721 149.882 651.157 149.991C651.593 150.209 651.92 150.645 651.92 151.299V159.801C651.92 160.673 651.157 161 649.631 161H645.925C644.835 161 643.854 160.891 642.764 160.564C641.674 160.346 640.584 159.91 639.603 159.256C638.513 158.711 637.641 158.057 636.769 157.185C635.897 156.422 635.243 155.55 634.807 154.46H634.262C634.044 155.332 633.826 156.313 633.39 157.512C632.954 158.711 632.191 159.91 631.319 161H567.99C566.464 161 565.701 160.673 565.701 159.801V151.299C565.701 150.645 565.919 150.209 566.355 149.991C566.791 149.882 567.336 149.773 567.99 149.773H621.509V136.911C621.509 131.134 620.201 126.883 617.585 124.267C614.969 121.651 611.481 120.343 607.339 120.343H572.895V109.334L599.055 83.0654H614.097L588.264 109.334H606.794C611.808 109.334 616.059 109.988 619.547 111.187C623.035 112.386 625.978 114.13 628.158 116.419C630.338 118.817 631.864 121.651 632.845 125.139C633.826 128.627 634.371 132.551 634.371 136.911V139.745C634.371 143.451 635.243 146.067 636.987 147.593C638.731 149.119 641.02 149.773 643.745 149.773H649.631Z" fill="white"/>
<path d="M549.361 161C547.835 161 547.072 160.673 547.072 159.801V151.299C547.072 150.645 547.29 150.209 547.726 149.991C548.162 149.882 548.707 149.773 549.361 149.773H568C569.526 149.773 570.398 150.209 570.398 150.972V159.474C570.398 160.237 570.071 160.673 569.635 160.782C569.199 161 568.654 161 568 161H549.361Z" fill="white"/>
<path d="M530.734 161C529.208 161 528.445 160.673 528.445 159.801V151.299C528.445 150.645 528.663 150.209 529.099 149.991C529.535 149.882 530.08 149.773 530.734 149.773H549.373C550.899 149.773 551.771 150.209 551.771 150.972V159.474C551.771 160.237 551.444 160.673 551.008 160.782C550.572 161 550.027 161 549.373 161H530.734Z" fill="white"/>
<path d="M512.105 161C510.579 161 509.816 160.673 509.816 159.801V151.299C509.816 150.645 510.034 150.209 510.47 149.991C510.906 149.882 511.451 149.773 512.105 149.773H530.744C532.27 149.773 533.142 150.209 533.142 150.972V159.474C533.142 160.237 532.815 160.673 532.379 160.782C531.943 161 531.398 161 530.744 161H512.105Z" fill="white"/>
<path d="M493.478 161C491.952 161 491.189 160.673 491.189 159.801V151.299C491.189 150.645 491.407 150.209 491.843 149.991C492.279 149.882 492.824 149.773 493.478 149.773H512.117C513.643 149.773 514.515 150.209 514.515 150.972V159.474C514.515 160.237 514.188 160.673 513.752 160.782C513.316 161 512.771 161 512.117 161H493.478Z" fill="white"/>
<path d="M474.85 161C473.324 161 472.561 160.673 472.561 159.801V151.299C472.561 150.645 472.779 150.209 473.215 149.991C473.651 149.882 474.196 149.773 474.85 149.773H493.489C495.015 149.773 495.887 150.209 495.887 150.972V159.474C495.887 160.237 495.56 160.673 495.124 160.782C494.688 161 494.143 161 493.489 161H474.85Z" fill="white"/>
<path d="M456.223 161C454.697 161 453.934 160.673 453.934 159.801V151.299C453.934 150.645 454.152 150.209 454.588 149.991C455.024 149.882 455.569 149.773 456.223 149.773H474.862C476.388 149.773 477.26 150.209 477.26 150.972V159.474C477.26 160.237 476.933 160.673 476.497 160.782C476.061 161 475.516 161 474.862 161H456.223Z" fill="white"/>
<path d="M437.594 161C436.068 161 435.305 160.673 435.305 159.801V151.299C435.305 150.645 435.523 150.209 435.959 149.991C436.395 149.882 436.94 149.773 437.594 149.773H456.233C457.759 149.773 458.631 150.209 458.631 150.972V159.474C458.631 160.237 458.304 160.673 457.868 160.782C457.432 161 456.887 161 456.233 161H437.594Z" fill="white"/>
<path d="M418.967 161C417.441 161 416.678 160.673 416.678 159.801V151.299C416.678 150.645 416.896 150.209 417.332 149.991C417.768 149.882 418.313 149.773 418.967 149.773H437.606C439.132 149.773 440.004 150.209 440.004 150.972V159.474C440.004 160.237 439.677 160.673 439.241 160.782C438.805 161 438.26 161 437.606 161H418.967Z" fill="white"/>
<path d="M400.338 161C398.812 161 398.049 160.673 398.049 159.801V151.299C398.049 150.645 398.267 150.209 398.703 149.991C399.139 149.882 399.684 149.773 400.338 149.773H418.977C420.503 149.773 421.375 150.209 421.375 150.972V159.474C421.375 160.237 421.048 160.673 420.612 160.782C420.176 161 419.631 161 418.977 161H400.338Z" fill="white"/>
<path d="M381.711 161C380.185 161 379.422 160.673 379.422 159.801V151.299C379.422 150.645 379.64 150.209 380.076 149.991C380.512 149.882 381.057 149.773 381.711 149.773H400.35C401.876 149.773 402.748 150.209 402.748 150.972V159.474C402.748 160.237 402.421 160.673 401.985 160.782C401.549 161 401.004 161 400.35 161H381.711Z" fill="white"/>
<path d="M363.082 161C361.556 161 360.793 160.673 360.793 159.801V151.299C360.793 150.645 361.011 150.209 361.447 149.991C361.883 149.882 362.428 149.773 363.082 149.773H381.721C383.247 149.773 384.119 150.209 384.119 150.972V159.474C384.119 160.237 383.792 160.673 383.356 160.782C382.92 161 382.375 161 381.721 161H363.082Z" fill="white"/>
<path d="M344.455 161C342.929 161 342.166 160.673 342.166 159.801V151.299C342.166 150.645 342.384 150.209 342.82 149.991C343.256 149.882 343.801 149.773 344.455 149.773H363.094C364.62 149.773 365.492 150.209 365.492 150.972V159.474C365.492 160.237 365.165 160.673 364.729 160.782C364.293 161 363.748 161 363.094 161H344.455Z" fill="white"/>
<path d="M325.826 161C324.3 161 323.537 160.673 323.537 159.801V151.299C323.537 150.645 323.755 150.209 324.191 149.991C324.627 149.882 325.172 149.773 325.826 149.773H344.465C345.991 149.773 346.863 150.209 346.863 150.972V159.474C346.863 160.237 346.536 160.673 346.1 160.782C345.664 161 345.119 161 344.465 161H325.826Z" fill="white"/>
<path d="M307.199 161C305.673 161 304.91 160.673 304.91 159.801V151.299C304.91 150.645 305.128 150.209 305.564 149.991C306 149.882 306.545 149.773 307.199 149.773H325.838C327.364 149.773 328.236 150.209 328.236 150.972V159.474C328.236 160.237 327.909 160.673 327.473 160.782C327.037 161 326.492 161 325.838 161H307.199Z" fill="white"/>
<path d="M288.57 161C287.044 161 286.281 160.673 286.281 159.801V151.299C286.281 150.645 286.499 150.209 286.935 149.991C287.371 149.882 287.916 149.773 288.57 149.773H307.209C308.735 149.773 309.607 150.209 309.607 150.972V159.474C309.607 160.237 309.28 160.673 308.844 160.782C308.408 161 307.863 161 307.209 161H288.57Z" fill="white"/>
<path d="M269.943 161C268.417 161 267.654 160.673 267.654 159.801V151.299C267.654 150.645 267.872 150.209 268.308 149.991C268.744 149.882 269.289 149.773 269.943 149.773H288.582C290.108 149.773 290.98 150.209 290.98 150.972V159.474C290.98 160.237 290.653 160.673 290.217 160.782C289.781 161 289.236 161 288.582 161H269.943Z" fill="white"/>
<path d="M251.314 161C249.788 161 249.025 160.673 249.025 159.801V151.299C249.025 150.645 249.243 150.209 249.679 149.991C250.115 149.882 250.66 149.773 251.314 149.773H269.953C271.479 149.773 272.351 150.209 272.351 150.972V159.474C272.351 160.237 272.024 160.673 271.588 160.782C271.152 161 270.607 161 269.953 161H251.314Z" fill="white"/>
<path d="M232.687 161C231.161 161 230.398 160.673 230.398 159.801V151.299C230.398 150.645 230.616 150.209 231.052 149.991C231.488 149.882 232.033 149.773 232.687 149.773H251.326C252.852 149.773 253.724 150.209 253.724 150.972V159.474C253.724 160.237 253.397 160.673 252.961 160.782C252.525 161 251.98 161 251.326 161H232.687Z" fill="white"/>
<path d="M214.059 161C212.533 161 211.77 160.673 211.77 159.801V151.299C211.77 150.645 211.988 150.209 212.424 149.991C212.86 149.882 213.405 149.773 214.059 149.773H232.698C234.224 149.773 235.096 150.209 235.096 150.972V159.474C235.096 160.237 234.769 160.673 234.333 160.782C233.897 161 233.352 161 232.698 161H214.059Z" fill="white"/>
<path d="M195.432 161C193.906 161 193.143 160.673 193.143 159.801V151.299C193.143 150.645 193.361 150.209 193.797 149.991C194.233 149.882 194.778 149.773 195.432 149.773H214.071C215.597 149.773 216.469 150.209 216.469 150.972V159.474C216.469 160.237 216.142 160.673 215.706 160.782C215.27 161 214.725 161 214.071 161H195.432Z" fill="white"/>
<path d="M176.803 161C175.277 161 174.514 160.673 174.514 159.801V151.299C174.514 150.645 174.732 150.209 175.168 149.991C175.604 149.882 176.149 149.773 176.803 149.773H195.442C196.968 149.773 197.84 150.209 197.84 150.972V159.474C197.84 160.237 197.513 160.673 197.077 160.782C196.641 161 196.096 161 195.442 161H176.803Z" fill="white"/>
<path d="M135.722 164.27C130.054 164.27 125.258 163.289 121.116 161.218C116.974 159.256 113.922 156.095 111.742 151.953C110.434 155.005 108.69 157.294 106.292 158.82C103.894 160.346 101.278 161 98.3348 161H94.6288C93.1028 161 92.3398 160.673 92.3398 159.801V151.299C92.3398 150.645 92.5578 150.209 92.9938 149.991C93.4298 149.882 93.9748 149.773 94.6288 149.773H98.2258C99.5338 149.773 100.842 149.664 102.15 149.228C103.349 148.792 104.439 148.138 105.42 147.266C106.292 146.394 107.055 145.086 107.709 143.56C108.254 142.034 108.581 139.963 108.581 137.565C108.581 133.096 109.235 129.172 110.543 125.793C111.851 122.523 113.813 119.689 116.211 117.4C118.609 115.22 121.552 113.476 124.822 112.386C128.092 111.296 131.798 110.751 135.722 110.751C139.646 110.751 143.243 111.296 146.513 112.386C149.783 113.476 152.726 115.22 155.124 117.4C157.522 119.689 159.484 122.523 160.792 125.793C162.1 129.172 162.863 133.096 162.863 137.565C162.863 139.963 163.081 142.034 163.735 143.56C164.28 145.086 165.043 146.394 166.024 147.266C166.896 148.138 167.986 148.792 169.294 149.228C170.493 149.664 171.801 149.773 173.218 149.773H176.815C177.36 149.773 177.905 149.882 178.341 149.991C178.777 150.209 179.104 150.645 179.104 151.299V159.801C179.104 160.673 178.341 161 176.815 161H173.109C170.057 161 167.441 160.346 165.043 158.82C162.645 157.294 160.901 155.005 159.702 151.953C157.522 156.095 154.361 159.256 150.219 161.218C146.077 163.289 141.172 164.27 135.722 164.27ZM135.722 153.479C140.3 153.479 143.897 152.062 146.295 149.119C148.693 146.285 150.001 142.361 150.001 137.565C150.001 132.769 148.802 128.954 146.404 126.011C144.006 123.068 140.409 121.542 135.722 121.542C130.926 121.542 127.438 123.068 125.04 126.011C122.642 128.954 121.443 132.769 121.443 137.565C121.443 142.361 122.642 146.285 125.04 149.119C127.438 152.062 131.035 153.479 135.722 153.479Z" fill="white"/>
<path d="M75.9999 161C74.4739 161 73.7109 160.673 73.7109 159.801V151.299C73.7109 150.645 73.9289 150.209 74.3649 149.991C74.8009 149.882 75.3459 149.773 75.9999 149.773H94.6389C96.1649 149.773 97.0369 150.209 97.0369 150.972V159.474C97.0369 160.237 96.7099 160.673 96.2739 160.782C95.8379 161 95.2929 161 94.6389 161H75.9999Z" fill="white"/>
<path d="M62.6675 62.0957C69.4841 62.0942 70.4561 64.6713 65.4618 69.3106L51.93 81.8805C49.551 84.0905 47.5901 86.7114 46.1416 89.6175L44.7409 92.4275C44.7169 92.4765 44.6816 92.519 44.6378 92.5512C44.594 92.5834 44.5432 92.6043 44.4896 92.6122L36.6899 93.7391C36.6706 93.7416 36.6525 93.7496 36.6377 93.7622C36.6229 93.7748 36.612 93.7915 36.6062 93.8103C36.6004 93.8292 36.6 93.8495 36.605 93.869C36.61 93.8884 36.6202 93.9061 36.6345 93.9202L42.2728 99.4144C42.3688 99.508 42.4058 99.6213 42.3836 99.7543L41.0572 107.473C41.0276 107.645 41.0892 107.691 41.2419 107.609L47.6632 104.246C47.9478 104.096 48.3655 104.233 48.3655 104.554V104.554C48.3638 110.482 51.2383 116.849 53.0827 123.071C54.4196 127.582 50.4964 131.265 45.8235 130.724V130.724V130.724C45.2345 130.724 44.6926 130.651 44.1048 130.688C42.2111 130.809 42.0018 130.809 39.0769 130.809C36.605 130.724 34.9855 130.807 32.9805 130.809C26.2721 130.82 19.668 130.832 13.0435 130.831C5.30614 130.83 0.026356 125.53 0.026356 117.792V117.792C0.01404 102.353 0.0165048 86.9887 0.0337472 71.6996C0.037442 67.3619 2.74204 63.5711 6.94303 62.4331C7.74604 62.2163 10.1293 62.0928 11.9201 62.0928C20.6025 62.103 47.5297 62.0991 62.6675 62.0957ZM14.8573 92.5272C14.8486 92.544 14.836 92.5585 14.8206 92.5694C14.8052 92.5804 14.7874 92.5874 14.7686 92.59L6.86913 93.7354C6.84765 93.7387 6.8275 93.7479 6.81089 93.7619C6.79429 93.776 6.78186 93.7943 6.77499 93.8149C6.76812 93.8355 6.76706 93.8576 6.77194 93.8788C6.77681 93.9 6.78743 93.9194 6.80263 93.935L12.5185 99.5104C12.5325 99.5241 12.5428 99.5411 12.5486 99.5598C12.5544 99.5785 12.5555 99.5984 12.5517 99.6176L11.1994 107.524C11.1957 107.546 11.198 107.568 11.2062 107.589C11.2144 107.609 11.228 107.627 11.2457 107.64C11.2633 107.653 11.2842 107.661 11.3061 107.662C11.3279 107.664 11.3499 107.66 11.3694 107.65L18.4708 103.915C18.4879 103.906 18.5069 103.901 18.5263 103.901C18.5456 103.901 18.5646 103.906 18.5817 103.915L25.6535 107.628C25.6731 107.638 25.695 107.642 25.7169 107.64C25.7387 107.638 25.7596 107.631 25.7773 107.618C25.7949 107.604 25.8086 107.587 25.8167 107.566C25.8249 107.546 25.8272 107.524 25.8235 107.502L24.4675 99.625C24.4637 99.6057 24.4648 99.5859 24.4706 99.5672C24.4764 99.5485 24.4868 99.5315 24.5007 99.5178L30.2573 93.9239C30.2724 93.9086 30.2831 93.8894 30.2882 93.8685C30.2932 93.8476 30.2925 93.8257 30.286 93.8052C30.2796 93.7846 30.2676 93.7663 30.2515 93.752C30.2353 93.7378 30.2156 93.7282 30.1944 93.7243L22.2469 92.5679C22.2282 92.5653 22.2104 92.5582 22.1949 92.5473C22.1795 92.5363 22.1669 92.5219 22.1582 92.5051L18.6149 85.3298C18.6054 85.3094 18.5903 85.2921 18.5713 85.28C18.5523 85.2679 18.5303 85.2615 18.5078 85.2615C18.4853 85.2615 18.4632 85.2679 18.4443 85.28C18.4253 85.2921 18.4101 85.3094 18.4006 85.3298L14.8573 92.5272Z" fill="#F1F1F1"/>
<path d="M48.8089 85.9099L48.4985 86.235C48.4148 86.3262 48.3729 86.4346 48.3729 86.5602V103.933C48.2547 104.01 48.2005 104.018 48.2103 103.959L41.2419 107.609C41.0892 107.691 41.0276 107.645 41.0572 107.473L42.3836 99.7543C42.4058 99.6213 42.3688 99.508 42.2728 99.4144L36.6345 93.9202C36.6202 93.9062 36.61 93.8884 36.605 93.869C36.6 93.8496 36.6004 93.8293 36.6062 93.8104C36.612 93.7915 36.6229 93.7748 36.6377 93.7622C36.6525 93.7496 36.6706 93.7417 36.6899 93.7392L44.4897 92.6123C44.5432 92.6044 44.594 92.5834 44.6378 92.5512C44.6816 92.519 44.717 92.4766 44.7409 92.4275L48.3322 85.2227C48.4825 85.2867 48.6414 85.5158 48.8089 85.9099Z" fill="#B7B3BF"/>
<path d="M14.8579 92.5265L18.4012 85.329C18.4107 85.3086 18.4259 85.2913 18.4449 85.2793C18.4638 85.2672 18.4859 85.2607 18.5084 85.2607C18.5309 85.2607 18.5529 85.2672 18.5719 85.2793C18.5909 85.2913 18.606 85.3086 18.6155 85.329L22.1588 92.5043C22.1675 92.5211 22.1801 92.5356 22.1955 92.5465C22.211 92.5574 22.2288 92.5645 22.2475 92.5671L30.195 93.7236C30.2162 93.7274 30.236 93.737 30.2521 93.7513C30.2682 93.7655 30.2802 93.7839 30.2866 93.8044C30.2931 93.8249 30.2938 93.8468 30.2888 93.8678C30.2837 93.8887 30.273 93.9078 30.2579 93.9231L24.5014 99.517C24.4874 99.5308 24.477 99.5477 24.4712 99.5664C24.4654 99.5851 24.4643 99.605 24.4681 99.6242L25.8241 107.502C25.8278 107.523 25.8255 107.545 25.8173 107.566C25.8092 107.586 25.7955 107.604 25.7779 107.617C25.7602 107.63 25.7393 107.638 25.7175 107.64C25.6956 107.641 25.6737 107.637 25.6541 107.627L18.5823 103.914C18.5652 103.905 18.5462 103.9 18.5269 103.9C18.5075 103.9 18.4885 103.905 18.4714 103.914L11.37 107.649C11.3505 107.659 11.3285 107.664 11.3067 107.662C11.2848 107.66 11.2639 107.652 11.2463 107.639C11.2286 107.626 11.215 107.608 11.2068 107.588C11.1987 107.568 11.1963 107.545 11.2001 107.524L12.5524 99.6168C12.5561 99.5976 12.5551 99.5777 12.5493 99.559C12.5434 99.5403 12.5331 99.5234 12.5191 99.5097L6.80324 93.9342C6.78804 93.9187 6.77742 93.8992 6.77254 93.8781C6.76767 93.8569 6.76873 93.8348 6.7756 93.8141C6.78247 93.7935 6.79489 93.7752 6.8115 93.7612C6.82811 93.7472 6.84826 93.738 6.86974 93.7347L14.7692 92.5893C14.788 92.5867 14.8058 92.5796 14.8212 92.5687C14.8366 92.5577 14.8492 92.5433 14.8579 92.5265Z" fill="#B7B3BF"/>
<path d="M72.2266 99.5131L66.4922 93.9228C66.4776 93.9085 66.4673 93.8905 66.4623 93.8706C66.4573 93.8508 66.458 93.83 66.4641 93.8105C66.4702 93.791 66.4816 93.7736 66.497 93.7601C66.5124 93.7467 66.5312 93.7378 66.5513 93.7344L74.473 92.5927C74.4909 92.5905 74.508 92.584 74.5228 92.5737C74.5376 92.5634 74.5497 92.5496 74.558 92.5336L78.1161 85.3213C78.1252 85.3026 78.1393 85.2868 78.157 85.2757C78.1746 85.2647 78.195 85.2588 78.2158 85.2588C78.2367 85.2588 78.2571 85.2647 78.2747 85.2757C78.2923 85.2868 78.3065 85.3026 78.3156 85.3213L81.8589 92.5077C81.8672 92.5237 81.8793 92.5375 81.8941 92.5478C81.9089 92.5581 81.926 92.5646 81.9439 92.5668L89.9099 93.7233C89.93 93.7267 89.9489 93.7356 89.9643 93.7491C89.9797 93.7625 89.991 93.7799 89.9972 93.7994C90.0033 93.8189 90.0039 93.8397 89.9989 93.8595C89.994 93.8794 89.9836 93.8974 89.969 93.9117L84.2051 99.5241C84.1924 99.5371 84.1831 99.5529 84.1779 99.5703C84.1727 99.5877 84.1719 99.6061 84.1756 99.6239L85.5279 107.512C85.5319 107.533 85.53 107.554 85.5223 107.574C85.5145 107.594 85.5014 107.611 85.4843 107.623C85.4672 107.636 85.4469 107.643 85.4258 107.644C85.4048 107.646 85.3837 107.641 85.3653 107.631L78.2786 103.91C78.2627 103.901 78.2449 103.897 78.2269 103.897C78.2089 103.897 78.1911 103.901 78.1752 103.91L71.059 107.656C71.0405 107.667 71.0195 107.671 70.9984 107.67C70.9774 107.669 70.9571 107.662 70.94 107.649C70.9229 107.637 70.9097 107.62 70.902 107.6C70.8943 107.58 70.8924 107.559 70.8964 107.538L72.2561 99.6128C72.2597 99.595 72.2589 99.5767 72.2538 99.5593C72.2486 99.5419 72.2393 99.526 72.2266 99.5131Z" fill="#381668"/>
<path d="M48.809 85.9092L51.9644 92.3049C52.0309 92.4404 52.1393 92.5167 52.2895 92.534C53.7157 92.7162 55.1592 92.9244 56.6199 93.1584C57.8244 93.3505 59.0067 93.3949 60.1779 93.7865C60.1924 93.7914 60.2053 93.7999 60.2155 93.8112C60.2257 93.8225 60.2328 93.8362 60.2361 93.8511C60.2394 93.8659 60.2389 93.8814 60.2345 93.8959C60.2302 93.9105 60.2221 93.9237 60.2112 93.9343L54.5286 99.4469C54.4832 99.4902 54.4493 99.5439 54.4299 99.6033C54.4106 99.6626 54.4064 99.7257 54.4177 99.7869L55.7627 107.557C55.7675 107.585 55.7644 107.614 55.7536 107.64C55.7428 107.667 55.7248 107.689 55.7016 107.706C55.6785 107.723 55.6511 107.732 55.6227 107.734C55.5943 107.736 55.566 107.73 55.541 107.716L48.373 103.932V86.5595C48.373 86.4338 48.4149 86.3255 48.4987 86.2343L48.809 85.9092Z" fill="#B7B3BF"/>
<path d="M48.3562 130.809C48.3611 122.037 48.3648 113.286 48.3673 104.554C48.3673 104.354 48.2749 104.162 48.2121 103.959C48.2022 104.018 48.2564 104.009 48.3746 103.933L55.5426 107.716C55.5676 107.73 55.5959 107.736 55.6243 107.734C55.6527 107.733 55.6801 107.723 55.7032 107.706C55.7264 107.69 55.7444 107.667 55.7552 107.641C55.766 107.614 55.7691 107.585 55.7643 107.557L54.4193 99.7873C54.408 99.7261 54.4122 99.663 54.4315 99.6037C54.4509 99.5443 54.4848 99.4906 54.5302 99.4473L60.2128 93.9347C60.2237 93.9241 60.2318 93.9109 60.2361 93.8963C60.2405 93.8818 60.241 93.8663 60.2377 93.8515C60.2344 93.8366 60.2273 93.8229 60.2171 93.8116C60.2069 93.8003 60.194 93.7918 60.1795 93.7869C59.0083 93.3953 57.826 93.3509 56.6215 93.1588C55.1608 92.9248 53.7173 92.7166 52.2911 92.5344C52.1409 92.5171 52.0325 92.4408 51.966 92.3053L48.8106 85.9096C48.6431 85.5155 48.4843 85.2864 48.334 85.2223L48.3673 62.0596C60.6192 62.0054 72.8503 61.9882 85.0604 62.0079C87.6221 62.0128 89.3784 62.1877 90.3292 62.5325C94.4378 64.0179 96.8135 67.624 96.8135 71.9469C96.8111 87.9331 96.8086 104.312 96.8061 121.084C96.8061 121.981 96.6842 122.897 96.4404 123.833C95.2987 128.215 91.2455 130.868 86.9262 130.864C83.4014 130.864 79.9 130.863 76.4219 130.861C76.3283 130.861 76.2815 130.907 76.2815 131.001L75 150.5C75 150.707 74 160.5 74 160.5L52.1729 131.019C52.0818 130.931 51.9721 130.884 51.8441 130.879L48.3562 130.809ZM72.2283 99.5139C72.241 99.5268 72.2504 99.5427 72.2555 99.56C72.2607 99.5774 72.2615 99.5958 72.2579 99.6136L70.8982 107.539C70.8941 107.56 70.8961 107.581 70.9038 107.601C70.9115 107.62 70.9247 107.638 70.9418 107.65C70.9588 107.662 70.9791 107.67 71.0002 107.671C71.0213 107.672 71.0423 107.667 71.0607 107.657L78.1769 103.911C78.1929 103.902 78.2106 103.898 78.2287 103.898C78.2467 103.898 78.2645 103.902 78.2804 103.911L85.367 107.631C85.3855 107.642 85.4065 107.646 85.4276 107.645C85.4487 107.644 85.4689 107.636 85.486 107.624C85.5031 107.612 85.5163 107.595 85.524 107.575C85.5317 107.555 85.5337 107.534 85.5296 107.513L84.1773 99.6247C84.1737 99.6069 84.1745 99.5885 84.1796 99.5711C84.1848 99.5537 84.1942 99.5379 84.2069 99.5249L89.9708 93.9125C89.9853 93.8982 89.9957 93.8802 90.0007 93.8603C90.0056 93.8405 90.005 93.8197 89.9989 93.8002C89.9928 93.7807 89.9814 93.7633 89.966 93.7498C89.9506 93.7364 89.9318 93.7275 89.9116 93.7241L81.9456 92.5676C81.9277 92.5654 81.9106 92.5589 81.8958 92.5486C81.881 92.5383 81.8689 92.5245 81.8607 92.5085L78.3173 85.3221C78.3083 85.3034 78.2941 85.2876 78.2765 85.2765C78.2588 85.2654 78.2384 85.2596 78.2176 85.2596C78.1968 85.2596 78.1764 85.2654 78.1587 85.2765C78.1411 85.2876 78.1269 85.3034 78.1178 85.3221L74.5597 92.5344C74.5514 92.5504 74.5394 92.5642 74.5246 92.5745C74.5097 92.5848 74.4926 92.5913 74.4747 92.5935L66.5531 93.7352C66.5329 93.7386 66.5141 93.7475 66.4987 93.7609C66.4833 93.7744 66.4719 93.7918 66.4658 93.8113C66.4597 93.8308 66.4591 93.8516 66.4641 93.8714C66.469 93.8912 66.4794 93.9093 66.494 93.9236L72.2283 99.5139Z" fill="white"/>
<path d="M578.716 69.733C580.133 69.733 581.55 69.406 582.967 68.534C584.275 67.662 585.583 66.681 586.782 65.373C586.128 65.264 585.365 65.046 584.602 64.61C583.73 64.174 582.967 63.629 582.313 62.975C581.55 62.321 580.896 61.558 580.46 60.686C580.024 59.814 579.806 58.833 579.806 57.743C579.806 55.454 580.46 53.71 581.768 52.62C583.076 51.53 584.82 50.876 586.782 50.876C588.744 50.876 590.488 51.53 591.905 52.729C593.213 54.037 593.976 55.999 593.976 58.615C593.976 60.359 593.431 62.103 592.559 63.847C591.687 65.591 590.488 67.226 589.071 68.643C587.545 70.06 585.91 71.15 584.166 72.022C582.313 72.894 580.46 73.33 578.716 73.33V69.733ZM583.73 58.07C583.73 59.16 584.166 60.141 585.256 60.904C586.237 61.776 587.436 62.212 588.744 62.43C589.071 61.776 589.398 61.013 589.616 60.359C589.834 59.705 590.052 59.051 590.052 58.397C590.052 57.307 589.725 56.326 589.18 55.563C588.526 54.909 587.763 54.473 586.782 54.473C585.91 54.473 585.147 54.8 584.602 55.454C583.948 56.108 583.73 56.98 583.73 58.07Z" fill="white"/>
</svg>
