<svg width="505" height="74" viewBox="0 0 505 74" fill="none" xmlns="http://www.w3.org/2000/svg">
<path d="M22.1792 36.7453C14.593 38.1773 7.11333 37.7761 8.24584 32.5763C9.63611 27.9318 18.5068 31.6967 22.1792 36.7453Z" stroke="#0F4415" stroke-width="3"/>
<path d="M35.0751 27.4546C32.9875 20.0221 31.9911 12.6674 38.014 13.2109C42.7619 14.1911 39.7845 23.3562 35.0751 27.4546Z" stroke="#0F4415" stroke-width="3"/>
<path d="M28.9588 33.1887C21.298 26.4854 3.93913 14.4506 15.1541 8.01779C20.2057 5.12021 30.2576 16.3331 28.9588 33.1887Z" stroke="#0F4415" stroke-width="3"/>
<path d="M496.031 55.5355H500.553V21.4996L504.871 21.499V59.2415H496.031V55.5355Z" fill="#0F4415"/>
<path d="M485.837 47.3757C485.021 47.3757 484.364 47.4777 483.865 47.6817C483.389 47.8857 483.015 48.135 482.743 48.4297C482.494 48.7017 482.324 49.0077 482.233 49.3477C482.165 49.6877 482.131 49.9937 482.131 50.2657C482.131 50.6057 482.177 51.0024 482.267 51.4557C482.358 51.909 482.528 52.3624 482.777 52.8157C483.049 53.269 483.423 53.6997 483.899 54.1077C484.398 54.493 485.044 54.799 485.837 55.0257C486.631 54.8217 487.277 54.527 487.775 54.1417C488.274 53.7337 488.659 53.303 488.931 52.8497C489.203 52.3964 489.385 51.943 489.475 51.4897C489.566 51.0137 489.611 50.6057 489.611 50.2657C489.611 49.9937 489.577 49.6877 489.509 49.3477C489.441 49.0077 489.271 48.7017 488.999 48.4297C488.75 48.135 488.376 47.8857 487.877 47.6817C487.379 47.4777 486.699 47.3757 485.837 47.3757ZM475.943 59.2417V55.5357H480.805C480.057 55.105 479.457 54.4704 479.003 53.6317C478.55 52.793 478.323 51.909 478.323 50.9797C478.323 49.869 478.505 48.883 478.867 48.0217C479.23 47.1604 479.74 46.435 480.397 45.8457C481.055 45.2564 481.848 44.803 482.777 44.4857C483.707 44.1684 484.738 44.0097 485.871 44.0097C488.229 44.0097 490.076 44.6217 491.413 45.8457C492.751 47.047 493.419 48.7584 493.419 50.9797C493.419 51.909 493.204 52.793 492.773 53.6317C492.365 54.4704 491.787 55.105 491.039 55.5357H497.057V59.2417H488.353H483.355H475.943ZM483.253 39.9637C483.253 39.2384 483.503 38.6264 484.001 38.1277C484.523 37.6064 485.146 37.3457 485.871 37.3457C486.574 37.3457 487.163 37.6064 487.639 38.1277C488.138 38.6264 488.387 39.2384 488.387 39.9637C488.387 40.6664 488.138 41.267 487.639 41.7657C487.163 42.2417 486.574 42.4797 485.871 42.4797C485.146 42.4797 484.523 42.2417 484.001 41.7657C483.503 41.267 483.253 40.6664 483.253 39.9637Z" fill="#0F4415"/>
<path d="M483.776 31.1775C483.776 31.3589 483.765 31.5855 483.742 31.8575C483.742 32.1295 483.765 32.3902 483.81 32.6395C483.856 32.8662 483.935 33.0702 484.048 33.2515C484.184 33.4102 484.377 33.4895 484.626 33.4895C484.944 33.4895 485.182 33.3535 485.34 33.0815C485.522 32.8095 485.612 32.4809 485.612 32.0955V30.8715L487.176 30.4635V31.6195C487.176 31.9595 487.233 32.2429 487.346 32.4695C487.482 32.6735 487.686 32.7755 487.958 32.7755C488.276 32.7755 488.514 32.6509 488.672 32.4015C488.854 32.1522 488.944 31.8349 488.944 31.4495V30.1575L490.508 29.7495V31.2115C490.508 32.3449 490.27 33.1722 489.794 33.6935C489.318 34.2149 488.763 34.4755 488.128 34.4755C487.834 34.4755 487.516 34.4302 487.176 34.3395C486.836 34.2262 486.576 34.0789 486.394 33.8975C486.145 34.2829 485.873 34.5889 485.578 34.8155C485.284 35.0195 484.932 35.1215 484.524 35.1215C484.139 35.1215 483.81 35.0535 483.538 34.9175C483.289 34.7589 483.085 34.5662 482.926 34.3395C482.768 34.0902 482.654 33.8295 482.586 33.5575C482.518 33.2629 482.484 32.9682 482.484 32.6735V31.5515L483.776 31.1775ZM482.518 28.6955L490.168 26.5195V28.2195L482.518 30.3955V28.6955Z" fill="#0F4415"/>
<path d="M464.492 55.5352H476.8V59.2412H464.492V55.5352Z" fill="#0F4415"/>
<path d="M452.871 55.5352H465.179V59.2412H452.871V55.5352Z" fill="#0F4415"/>
<path d="M434.246 53.0537C434.246 52.1017 434.518 51.1724 435.062 50.2657C435.629 49.359 436.501 48.543 437.68 47.8177C438.859 47.0924 440.366 46.469 442.202 45.9477C444.061 45.4264 446.271 45.075 448.832 44.8937V55.5357H453.728V59.2417H446.112C445.863 59.083 445.647 58.879 445.466 58.6297C445.307 58.3804 445.171 58.131 445.058 57.8817C444.945 57.6097 444.854 57.3264 444.786 57.0317C444.673 57.4624 444.446 57.8364 444.106 58.1537C443.811 58.4257 443.381 58.675 442.814 58.9017C442.27 59.1284 441.522 59.2417 440.57 59.2417C438.258 59.2417 436.626 58.6977 435.674 57.6097C434.722 56.499 434.246 54.9804 434.246 53.0537ZM438.36 52.4417V53.5297C438.36 54.187 438.553 54.6857 438.938 55.0257C439.323 55.3657 439.947 55.5357 440.808 55.5357H444.718V48.7697C443.766 48.951 442.893 49.1777 442.1 49.4497C441.329 49.7217 440.672 50.0164 440.128 50.3337C439.584 50.651 439.153 50.991 438.836 51.3537C438.541 51.7164 438.383 52.079 438.36 52.4417ZM437.068 39.9637C437.068 39.2384 437.317 38.6264 437.816 38.1277C438.337 37.6064 438.961 37.3457 439.686 37.3457C440.389 37.3457 440.978 37.6064 441.454 38.1277C441.953 38.6264 442.202 39.2384 442.202 39.9637C442.202 40.6664 441.953 41.267 441.454 41.7657C440.978 42.2417 440.389 42.4797 439.686 42.4797C438.961 42.4797 438.337 42.2417 437.816 41.7657C437.317 41.267 437.068 40.6664 437.068 39.9637ZM443.8 39.9637C443.8 39.2384 444.049 38.6264 444.548 38.1277C445.069 37.6064 445.693 37.3457 446.418 37.3457C447.121 37.3457 447.71 37.6064 448.186 38.1277C448.685 38.6264 448.934 39.2384 448.934 39.9637C448.934 40.6664 448.685 41.267 448.186 41.7657C447.71 42.2417 447.121 42.4797 446.418 42.4797C445.693 42.4797 445.069 42.2417 444.548 41.7657C444.049 41.267 443.8 40.6664 443.8 39.9637Z" fill="#0F4415"/>
<path d="M402.199 55.5354H407.639C407.186 54.946 406.88 54.232 406.721 53.3934C406.585 52.532 406.517 51.6254 406.517 50.6734C406.517 48.8374 407.254 47.3867 408.727 46.3214C410.223 45.2334 412.275 44.6554 414.881 44.5874C415.833 44.542 416.91 44.5987 418.111 44.7574C419.313 44.916 420.457 45.0974 421.545 45.3014V49.1094C421.205 49.0187 420.775 48.9167 420.253 48.8034C419.755 48.69 419.199 48.588 418.587 48.4974C417.998 48.4067 417.375 48.3387 416.717 48.2934C416.083 48.2254 415.459 48.1914 414.847 48.1914C414.349 48.1914 413.884 48.2254 413.453 48.2934C413.023 48.3614 412.637 48.4974 412.297 48.7014C411.98 48.9054 411.731 49.1887 411.549 49.5514C411.368 49.914 411.277 50.3787 411.277 50.9454C411.277 52.1694 411.391 53.144 411.617 53.8694C411.867 54.572 412.184 55.1274 412.569 55.5354H421.681V59.2414H402.199V55.5354Z" fill="#0F4415"/>
<path d="M409.049 37.1496L416.699 34.9736V36.6736L409.049 38.8496V37.1496Z" fill="#0F4415"/>
<path d="M403.209 55.5355V59.2415H389.881V55.5355H394.403V37.4135L398.721 36.1895V55.5355H403.209Z" fill="#0F4415"/>
<path d="M378.43 55.5352H390.738V59.2412H378.43V55.5352Z" fill="#0F4415"/>
<path d="M366.809 55.5352H379.117V59.2412H366.809V55.5352Z" fill="#0F4415"/>
<path d="M357.059 44.7578C358.578 44.7578 359.847 45.1205 360.867 45.8458C361.91 46.5711 362.748 47.4778 363.383 48.5658C364.018 49.6311 364.482 50.7985 364.777 52.0678C365.072 53.3145 365.264 54.4705 365.355 55.5358H368.177V59.2418H361.683C361.683 57.3831 361.592 55.8191 361.411 54.5498C361.23 53.2578 360.992 52.1925 360.697 51.3538C360.402 50.5151 360.074 49.8805 359.711 49.4498C359.348 48.9965 358.974 48.6678 358.589 48.4638C358.226 48.2598 357.886 48.1465 357.569 48.1238C357.252 48.0785 356.98 48.0558 356.753 48.0558C356.005 48.0558 355.325 48.1691 354.713 48.3958C354.124 48.6225 353.614 48.9171 353.183 49.2798C352.775 49.6425 352.446 50.0505 352.197 50.5038C351.97 50.9571 351.857 51.4105 351.857 51.8638C351.857 52.0905 351.902 52.3398 351.993 52.6118C352.106 52.8838 352.344 53.0198 352.707 53.0198H356.107C356.447 53.0198 356.764 53.0765 357.059 53.1898C357.354 53.2805 357.603 53.4618 357.807 53.7338C358.034 54.0058 358.204 54.3685 358.317 54.8218C358.453 55.2751 358.521 55.8418 358.521 56.5218C358.521 59.5818 357.592 61.8145 355.733 63.2198C353.897 64.6478 350.962 65.3618 346.927 65.3618C345.431 65.3618 344.082 65.1465 342.881 64.7158C341.68 64.2851 340.66 63.7185 339.821 63.0158C338.982 62.3358 338.336 61.5651 337.883 60.7038C337.43 59.8651 337.203 59.0265 337.203 58.1878C337.203 56.9185 337.316 55.8305 337.543 54.9238C337.792 53.9945 338.076 53.2011 338.393 52.5438C338.733 51.8865 339.084 51.3198 339.447 50.8438C339.81 50.3451 340.116 49.8805 340.365 49.4498H342.983C342.394 50.4245 341.884 51.5465 341.453 52.8158C341.022 54.0851 340.807 55.3091 340.807 56.4878C340.807 57.0998 340.932 57.7005 341.181 58.2898C341.453 58.8791 341.838 59.4005 342.337 59.8538C342.858 60.3298 343.482 60.7038 344.207 60.9758C344.955 61.2705 345.805 61.4178 346.757 61.4178C348.548 61.4178 349.919 61.3385 350.871 61.1798C351.823 61.0211 352.526 60.7831 352.979 60.4658C353.455 60.1485 353.761 59.7405 353.897 59.2418C354.056 58.7205 354.226 58.1085 354.407 57.4058C354.43 57.3378 354.441 57.2471 354.441 57.1338C354.441 56.8618 354.26 56.7258 353.897 56.7258H352.163C351.279 56.7258 350.542 56.6691 349.953 56.5558C349.386 56.4198 348.933 56.2271 348.593 55.9778C348.253 55.7058 348.015 55.3885 347.879 55.0258C347.743 54.6405 347.675 54.2098 347.675 53.7338C347.675 52.8498 347.856 51.8865 348.219 50.8438C348.582 49.7785 349.148 48.8038 349.919 47.9198C350.69 47.0131 351.664 46.2651 352.843 45.6758C354.022 45.0638 355.427 44.7578 357.059 44.7578Z" fill="#0F4415"/>
<path d="M312.883 55.5356H320.567V45.5736L324.885 44.3496L324.919 59.2416H312.883V55.5356ZM317.031 64.7496C317.031 64.0243 317.28 63.4009 317.779 62.8796C318.3 62.3809 318.924 62.1316 319.649 62.1316C320.352 62.1316 320.941 62.3809 321.417 62.8796C321.915 63.4009 322.165 64.0243 322.165 64.7496C322.165 65.4523 321.915 66.0416 321.417 66.5176C320.941 67.0163 320.352 67.2656 319.649 67.2656C318.924 67.2656 318.3 67.0163 317.779 66.5176C317.28 66.0416 317.031 65.4523 317.031 64.7496Z" fill="#0F4415"/>
<path d="M306.201 59.2415C305.476 59.2415 304.853 59.1282 304.331 58.9015C303.81 58.6522 303.357 58.1875 302.971 57.5075C302.586 58.1875 302.133 58.6522 301.611 58.9015C301.09 59.1282 300.467 59.2415 299.741 59.2415H292.363V55.5355H298.619L294.029 49.6875C295.208 47.8742 296.534 46.5595 298.007 45.7435C299.503 44.9275 301.158 44.5195 302.971 44.5195C304.785 44.5195 306.428 44.9275 307.901 45.7435C309.397 46.5369 310.746 47.8402 311.947 49.6535L307.357 55.5355H313.919V59.2415H306.201ZM307.561 49.7215C307.312 49.4269 307.006 49.1775 306.643 48.9735C306.281 48.7469 305.884 48.5542 305.453 48.3955C305.045 48.2369 304.615 48.1235 304.161 48.0555C303.731 47.9649 303.334 47.9195 302.971 47.9195C302.586 47.9195 302.167 47.9649 301.713 48.0555C301.283 48.1462 300.852 48.2709 300.421 48.4295C300.013 48.5655 299.628 48.7469 299.265 48.9735C298.925 49.2002 298.653 49.4495 298.449 49.7215L302.971 55.5355L307.561 49.7215Z" fill="#0F4415"/>
<path d="M280.912 55.5352H293.22V59.2412H280.912V55.5352Z" fill="#0F4415"/>
<path d="M287.054 43.7953C287.644 43.7953 288.018 43.6819 288.176 43.4553C288.335 43.2059 288.414 42.9453 288.414 42.6733C288.414 42.1973 288.301 41.7779 288.074 41.4153C287.848 41.0299 287.508 40.8373 287.054 40.8373C286.601 40.8373 286.261 41.0299 286.034 41.4153C285.808 41.7779 285.694 42.1973 285.694 42.6733C285.694 42.9453 285.774 43.2059 285.932 43.4553C286.091 43.6819 286.465 43.7953 287.054 43.7953ZM287.02 45.1213C286.476 45.1213 286.023 45.0533 285.66 44.9173C285.298 44.7586 285.003 44.5659 284.776 44.3393C284.572 44.1126 284.425 43.8519 284.334 43.5573C284.266 43.2626 284.232 42.9679 284.232 42.6733C284.232 42.3106 284.289 41.9479 284.402 41.5853C284.516 41.2226 284.686 40.894 284.912 40.5993C285.162 40.3046 285.456 40.0666 285.796 39.8853C286.159 39.7039 286.578 39.6133 287.054 39.6133C287.53 39.6133 287.938 39.7039 288.278 39.8853C288.641 40.0666 288.936 40.3046 289.162 40.5993C289.412 40.894 289.593 41.2226 289.706 41.5853C289.82 41.9479 289.876 42.3106 289.876 42.6733C289.876 42.9679 289.831 43.2626 289.74 43.5573C289.672 43.8519 289.525 44.1239 289.298 44.3733C289.094 44.5999 288.8 44.7813 288.414 44.9173C288.052 45.0533 287.587 45.1213 287.02 45.1213Z" fill="#0F4415"/>
<path d="M269.291 55.5352H281.599V59.2412H269.291V55.5352Z" fill="#0F4415"/>
<path d="M262.658 55.5357V53.6997C262.658 52.4077 262.307 51.365 261.604 50.5717C260.902 49.7784 259.904 49.3817 258.612 49.3817C255.96 49.3817 252.957 51.433 249.602 55.5357H262.658ZM245.522 55.5357V47.2397L249.84 46.0157L249.874 51.0137C251.891 49.087 253.761 47.6477 255.484 46.6957C257.229 45.7437 258.986 45.2677 260.754 45.2677C262.114 45.2677 263.202 45.619 264.018 46.3217C264.857 47.0017 265.503 47.863 265.956 48.9057C266.432 49.9257 266.75 51.0364 266.908 52.2377C267.067 53.4164 267.157 54.5157 267.18 55.5357H270.138V59.2417H242.326V55.5357H245.522ZM254.634 39.9637C254.634 39.2384 254.884 38.6264 255.382 38.1277C255.904 37.6064 256.527 37.3457 257.252 37.3457C257.955 37.3457 258.544 37.6064 259.02 38.1277C259.519 38.6264 259.768 39.2384 259.768 39.9637C259.768 40.6664 259.519 41.267 259.02 41.7657C258.544 42.2417 257.955 42.4797 257.252 42.4797C256.527 42.4797 255.904 42.2417 255.382 41.7657C254.884 41.267 254.634 40.6664 254.634 39.9637Z" fill="#0F4415"/>
<path d="M230.875 55.5352H243.183V59.2412H230.875V55.5352Z" fill="#0F4415"/>
<path d="M219.254 55.5352H231.562V59.2412H219.254V55.5352Z" fill="#0F4415"/>
<path d="M207.633 55.5352H219.941V59.2412H207.633V55.5352Z" fill="#0F4415"/>
<path d="M197.895 56.283C197.849 56.8724 197.589 57.6204 197.113 58.527C196.206 60.3857 195.345 61.315 194.529 61.315C194.234 61.315 193.917 61.2357 193.577 61.077C192.897 60.805 191.967 60.3857 190.789 59.819C189.633 59.2524 188.227 58.5497 186.573 57.711C186.187 58.391 185.745 58.833 185.247 59.037C184.861 59.173 184.227 59.241 183.343 59.241H181.133V55.535H183.649C184.329 53.971 185.043 52.5544 185.791 51.285C186.539 49.993 187.275 48.905 188.001 48.021C188.749 47.1144 189.463 46.4117 190.143 45.913C190.845 45.4144 191.491 45.165 192.081 45.165C193.577 45.165 194.823 46.2304 195.821 48.361C196.115 48.9957 196.41 49.8004 196.705 50.775C196.999 51.727 197.317 52.883 197.657 54.243C197.861 55.1724 197.94 55.8524 197.895 56.283ZM194.087 56.861C193.815 54.821 193.452 53.1777 192.999 51.931C192.568 50.6617 192.024 50.027 191.367 50.027C191.14 50.027 190.743 50.2877 190.177 50.809C189.837 51.149 189.474 51.625 189.089 52.237C188.726 52.8264 188.42 53.359 188.171 53.835C189.123 54.5604 190.109 55.1837 191.129 55.705C192.149 56.2037 193.135 56.589 194.087 56.861Z" fill="#0F4415"/>
<path d="M186.621 38.1496L194.271 35.9736V37.6736L186.621 39.8496V38.1496Z" fill="#0F4415"/>
<path d="M150.387 55.5357H155.827V45.5737L160.145 44.3497V55.5357H164.463V45.5737L168.781 44.3497V55.5357H172.997V45.5737L177.315 44.3497V55.5357H182.143V59.2417H150.387V55.5357ZM160.655 39.9637C160.655 39.2384 160.904 38.6264 161.403 38.1277C161.924 37.6064 162.547 37.3457 163.273 37.3457C163.975 37.3457 164.565 37.6064 165.041 38.1277C165.539 38.6264 165.789 39.2384 165.789 39.9637C165.789 40.6664 165.539 41.2671 165.041 41.7657C164.565 42.2417 163.975 42.4797 163.273 42.4797C162.547 42.4797 161.924 42.2417 161.403 41.7657C160.904 41.2671 160.655 40.6664 160.655 39.9637ZM167.387 39.9637C167.387 39.2384 167.636 38.6264 168.135 38.1277C168.656 37.6064 169.279 37.3457 170.005 37.3457C170.707 37.3457 171.297 37.6064 171.773 38.1277C172.271 38.6264 172.521 39.2384 172.521 39.9637C172.521 40.6664 172.271 41.2671 171.773 41.7657C171.297 42.2417 170.707 42.4797 170.005 42.4797C169.279 42.4797 168.656 42.2417 168.135 41.7657C167.636 41.2671 167.387 40.6664 167.387 39.9637ZM163.885 33.5037C163.885 32.7784 164.134 32.1664 164.633 31.6677C165.154 31.1464 165.777 30.8857 166.503 30.8857C167.205 30.8857 167.795 31.1464 168.271 31.6677C168.769 32.1664 169.019 32.7784 169.019 33.5037C169.019 34.2064 168.769 34.8071 168.271 35.3057C167.795 35.8044 167.205 36.0537 166.503 36.0537C165.777 36.0537 165.154 35.8044 164.633 35.3057C164.134 34.8071 163.885 34.2064 163.885 33.5037Z" fill="#0F4415"/>
<path d="M138.936 55.5352H151.244V59.2412H138.936V55.5352Z" fill="#0F4415"/>
<path d="M127.314 55.5352H139.622V59.2412H127.314V55.5352Z" fill="#0F4415"/>
<path d="M120.045 37.4135L124.363 36.1895V55.5355H128.171V59.2415H120.045V37.4135Z" fill="#0F4415"/>
<path d="M114.966 44.3838C115.42 46.9225 115.726 49.4045 115.884 51.8298C116.043 54.2325 116.122 56.3745 116.122 58.2558C116.122 58.4145 116.111 58.7431 116.088 59.2418C116.066 59.7405 115.975 60.3071 115.816 60.9418C115.658 61.5991 115.386 62.2791 115 62.9818C114.638 63.7071 114.105 64.3645 113.402 64.9538C112.7 65.5658 111.793 66.0645 110.682 66.4498C109.594 66.8351 108.234 67.0278 106.602 67.0278L105.82 64.5798C106.976 64.4891 108.008 64.2171 108.914 63.7638C109.3 63.5598 109.674 63.3105 110.036 63.0158C110.422 62.7211 110.762 62.3585 111.056 61.9278C111.351 61.5198 111.589 61.0211 111.77 60.4318C111.952 59.8651 112.042 59.2078 112.042 58.4598C112.042 56.3971 111.986 54.2891 111.872 52.1358C111.782 49.9598 111.453 47.8178 110.886 45.7098L114.966 44.3838Z" fill="#0F4415"/>
<path d="M108.262 71.9739L115.912 69.7979V71.4979L108.262 73.6739V71.9739Z" fill="#0F4415"/>
<path d="M92.5801 55.5356H100.264V45.5736L104.582 44.3496L104.616 59.2416H92.5801V55.5356ZM93.0901 64.7836C93.0901 64.0583 93.3394 63.4349 93.8381 62.9136C94.3594 62.4149 94.9827 62.1656 95.7081 62.1656C96.4107 62.1656 97.0001 62.4149 97.4761 62.9136C97.9747 63.4349 98.2241 64.0583 98.2241 64.7836C98.2241 65.4863 97.9747 66.0756 97.4761 66.5516C97.0001 67.0503 96.4107 67.2996 95.7081 67.2996C94.9827 67.2996 94.3594 67.0503 93.8381 66.5516C93.3394 66.0756 93.0901 65.4863 93.0901 64.7836ZM99.8221 64.7836C99.8221 64.0583 100.071 63.4349 100.57 62.9136C101.091 62.4149 101.715 62.1656 102.44 62.1656C103.143 62.1656 103.732 62.4149 104.208 62.9136C104.707 63.4349 104.956 64.0583 104.956 64.7836C104.956 65.4863 104.707 66.0756 104.208 66.5516C103.732 67.0503 103.143 67.2996 102.44 67.2996C101.715 67.2996 101.091 67.0503 100.57 66.5516C100.071 66.0756 99.8221 65.4863 99.8221 64.7836Z" fill="#0F4415"/>
<path d="M85.8985 59.2415C85.1732 59.2415 84.5499 59.1282 84.0285 58.9015C83.5072 58.6522 83.0539 58.1875 82.6685 57.5075C82.2832 58.1875 81.8299 58.6522 81.3085 58.9015C80.7872 59.1282 80.1639 59.2415 79.4385 59.2415H72.0605V55.5355H78.3165L73.7265 49.6875C74.9052 47.8742 76.2312 46.5595 77.7045 45.7435C79.2005 44.9275 80.8552 44.5195 82.6685 44.5195C84.4819 44.5195 86.1252 44.9275 87.5985 45.7435C89.0945 46.5369 90.4432 47.8402 91.6445 49.6535L87.0545 55.5355H93.6165V59.2415H85.8985ZM87.2585 49.7215C87.0092 49.4269 86.7032 49.1775 86.3405 48.9735C85.9779 48.7469 85.5812 48.5542 85.1505 48.3955C84.7425 48.2369 84.3119 48.1235 83.8585 48.0555C83.4279 47.9649 83.0312 47.9195 82.6685 47.9195C82.2832 47.9195 81.8639 47.9649 81.4105 48.0555C80.9799 48.1462 80.5492 48.2709 80.1185 48.4295C79.7105 48.5655 79.3252 48.7469 78.9625 48.9735C78.6225 49.2002 78.3505 49.4495 78.1465 49.7215L82.6685 55.5355L87.2585 49.7215Z" fill="#0F4415"/>
<path d="M79.0098 65.9739L86.6598 63.7979V65.4979L79.0098 67.6739V65.9739Z" fill="#0F4415"/>
<path d="M60.6094 55.5352H72.9174V59.2412H60.6094V55.5352Z" fill="#0F4415"/>
<path d="M50.8593 44.7578C52.378 44.7578 53.6473 45.1205 54.6673 45.8458C55.71 46.5711 56.5486 47.4778 57.1833 48.5658C57.818 49.6311 58.2826 50.7985 58.5773 52.0678C58.872 53.3145 59.0646 54.4705 59.1553 55.5358H61.9773V59.2418H55.4833C55.4833 57.3831 55.3926 55.8191 55.2113 54.5498C55.03 53.2578 54.792 52.1925 54.4973 51.3538C54.2027 50.5151 53.874 49.8805 53.5113 49.4498C53.1487 48.9965 52.7747 48.6678 52.3893 48.4638C52.0267 48.2598 51.6867 48.1465 51.3693 48.1238C51.052 48.0785 50.78 48.0558 50.5533 48.0558C49.8053 48.0558 49.1253 48.1691 48.5133 48.3958C47.924 48.6225 47.414 48.9171 46.9833 49.2798C46.5753 49.6425 46.2467 50.0505 45.9973 50.5038C45.7707 50.9571 45.6573 51.4105 45.6573 51.8638C45.6573 52.0905 45.7027 52.3398 45.7933 52.6118C45.9067 52.8838 46.1447 53.0198 46.5073 53.0198H49.9073C50.2473 53.0198 50.5647 53.0765 50.8593 53.1898C51.154 53.2805 51.4033 53.4618 51.6073 53.7338C51.834 54.0058 52.004 54.3685 52.1173 54.8218C52.2533 55.2751 52.3213 55.8418 52.3213 56.5218C52.3213 59.5818 51.392 61.8145 49.5333 63.2198C47.6973 64.6478 44.762 65.3618 40.7273 65.3618C39.2313 65.3618 37.8827 65.1465 36.6814 64.7158C35.48 64.2851 34.46 63.7185 33.6214 63.0158C32.7827 62.3358 32.2516 61.536 31.621 60.7412C30.9169 59.8538 31.0034 59.0265 31.0034 58.1878C31.0034 56.9185 31.1167 55.8305 31.3434 54.9238C31.5927 53.9945 31.876 53.2011 32.1934 52.5438C32.5334 51.8865 32.8847 51.3198 33.2474 50.8438C33.61 50.3451 33.916 49.8805 34.1654 49.4498L36.6211 49.7412C36.0318 50.7159 35.684 51.5465 35.2534 52.8158C34.8227 54.0851 34.6074 55.3091 34.6074 56.4878C34.6074 57.0998 34.732 57.7005 34.9814 58.2898C35.2534 58.8791 35.6387 59.4005 36.1374 59.8538C36.6587 60.3298 37.282 60.7038 38.0073 60.9758C38.7553 61.2705 39.6053 61.4178 40.5573 61.4178C42.348 61.4178 43.7193 61.3385 44.6713 61.1798C45.6233 61.0211 46.326 60.7831 46.7793 60.4658C47.2553 60.1485 47.5613 59.7405 47.6973 59.2418C47.856 58.7205 48.026 58.1085 48.2073 57.4058C48.23 57.3378 48.2413 57.2471 48.2413 57.1338C48.2413 56.8618 48.06 56.7258 47.6973 56.7258H45.9633C45.0793 56.7258 44.3427 56.6691 43.7533 56.5558C43.1867 56.4198 42.7333 56.2271 42.3933 55.9778C42.0533 55.7058 41.8153 55.3885 41.6793 55.0258C41.5433 54.6405 41.4753 54.2098 41.4753 53.7338C41.4753 52.8498 41.6567 51.8865 42.0193 50.8438C42.382 49.7785 42.9487 48.8038 43.7193 47.9198C44.49 47.0131 45.4647 46.2651 46.6433 45.6758C47.822 45.0638 49.2273 44.7578 50.8593 44.7578ZM35.4234 69.6118C35.4234 68.8865 35.6727 68.2631 36.1714 67.7418C36.6927 67.2431 37.316 66.9938 38.0413 66.9938C38.744 66.9938 39.3333 67.2431 39.8093 67.7418C40.308 68.2631 40.5573 68.8865 40.5573 69.6118C40.5573 70.3145 40.308 70.9038 39.8093 71.3798C39.3333 71.8785 38.744 72.1278 38.0413 72.1278C37.316 72.1278 36.6927 71.8785 36.1714 71.3798C35.6727 70.9038 35.4234 70.3145 35.4234 69.6118ZM42.1553 69.6118C42.1553 68.8865 42.4047 68.2631 42.9033 67.7418C43.4247 67.2431 44.048 66.9938 44.7733 66.9938C45.476 66.9938 46.0653 67.2431 46.5413 67.7418C47.04 68.2631 47.2893 68.8865 47.2893 69.6118C47.2893 70.3145 47.04 70.9038 46.5413 71.3798C46.0653 71.8785 45.476 72.1278 44.7733 72.1278C44.048 72.1278 43.4247 71.8785 42.9033 71.3798C42.4047 70.9038 42.1553 70.3145 42.1553 69.6118Z" fill="#0F4415"/>
</svg>
