<svg width="247" height="247" viewBox="0 0 247 247" fill="none" xmlns="http://www.w3.org/2000/svg">
<rect width="247" height="247" rx="11" fill="#063E0C"/>
<g clip-path="url(#clip0_865_121)">
<path d="M96.9422 202.31C96.9422 202.887 96.9761 202.873 97.2344 202.851C98.3116 202.756 101.731 202.113 101.966 203.261C102.193 204.38 98.3783 204.819 97.2251 204.977C97.0458 205.002 97.0099 205.026 97.0201 205.299C97.1667 210.517 97.3389 212.313 96.5507 212.341C96.1837 212.353 95.7553 212.049 95.6343 211.259C95.334 209.452 95.1287 207.631 95.0193 205.803C94.964 204.964 95.0501 205.209 94.3326 205.207C93.1545 205.251 91.9748 205.22 90.8004 205.116C90.6459 205.121 90.4939 205.076 90.3671 204.987C90.2404 204.899 90.1456 204.771 90.097 204.624C90.0483 204.477 90.0484 204.319 90.0973 204.172C90.1461 204.025 90.241 203.898 90.3679 203.81C91.3293 203.092 92.2047 203.381 94.7754 203.07C95.0419 203.038 94.9978 202.781 94.9978 202.493C95.007 197.098 94.8851 197.101 95.3986 196.771C95.8516 196.479 96.2719 196.771 96.4441 197.284C96.7655 198.94 96.9323 200.623 96.9422 202.31Z" fill="#F1EFC8"/>
<path d="M121.786 26.6446C121.818 25.9271 121.932 25.2557 122.65 25.2978C123.586 25.3521 123.131 26.8629 123.437 30.4689C125.496 30.5243 127.566 30.4802 127.127 31.0091C126.127 31.5541 125.039 31.9197 123.913 32.0894C123.106 32.2247 123.463 32.0177 123.242 36.1587C123.129 36.8475 123.094 37.5469 123.139 38.2435C123.2 38.7632 122.438 38.5008 122.238 37.9073C121.392 35.394 121.792 32.7629 121.598 32.3898C121.563 32.3231 117.587 32.8408 117.868 31.2551C118.088 30.0066 121.689 31.0275 121.66 30.3633C121.67 30.4658 121.684 29.1005 121.786 26.6446Z" fill="#F1EFC8"/>
<path d="M210.1 51.9333C210.634 51.9318 211.163 52.0376 211.655 52.2444C212.148 52.4513 212.594 52.7549 212.966 53.1372C213.339 53.5196 213.631 53.973 213.826 54.4704C214.019 54.968 214.113 55.4993 214.097 56.0333C214.091 56.8397 213.845 57.6262 213.391 58.2928C212.937 58.9593 212.295 59.4759 211.547 59.777C210.799 60.078 209.978 60.15 209.189 59.9836C208.399 59.8172 207.678 59.4201 207.115 58.8426C206.551 58.2651 206.173 57.5333 206.027 56.7402C205.88 55.9471 205.973 55.1283 206.293 54.3879C206.613 53.6475 207.146 53.0189 207.823 52.5819C208.501 52.1448 209.293 51.919 210.1 51.9333ZM207.332 55.8426C207.321 56.3819 207.47 56.9125 207.76 57.367C208.051 57.8216 208.469 58.1797 208.964 58.3959C209.458 58.612 210.006 58.6766 210.537 58.5813C211.067 58.4861 211.557 58.2353 211.946 57.8607C212.334 57.4862 212.603 57.0047 212.717 56.4776C212.832 55.9504 212.786 55.4011 212.588 54.8995C212.39 54.3979 212.046 53.9663 211.603 53.6598C211.159 53.3533 210.634 53.1854 210.095 53.1776C209.738 53.1691 209.382 53.2316 209.05 53.3613C208.717 53.4909 208.414 53.6854 208.157 53.9332C207.899 54.1811 207.694 54.4774 207.552 54.8052C207.41 55.1329 207.335 55.4855 207.33 55.8426H207.332Z" fill="#F1EFC8"/>
<path d="M70.0115 63.3479C69.9906 65.5286 69.1344 67.6184 67.6194 69.1871C66.1043 70.7557 64.0456 71.684 61.8669 71.7806C56.8608 72.1086 53.5326 68.2157 53.3225 63.5939C52.7915 51.9725 70.2001 52.0576 70.0115 63.3479ZM56.8915 58.2486C56.1016 59.0264 55.5184 59.9892 55.1946 61.0495C54.8708 62.1098 54.8167 63.2342 55.0373 64.3207C56.2253 70.7915 63.4658 71.8626 66.8606 67.1907C67.814 65.9617 68.3062 64.4373 68.2518 62.8829C68.1972 61.3285 67.5995 59.8423 66.5624 58.6832C64.416 56.3544 59.9378 55.2125 56.8935 58.2486H56.8915Z" fill="#F1EFC8"/>
<path fill-rule="evenodd" clip-rule="evenodd" d="M83.5367 90.759C72.8298 95.5085 62.7705 99.882 61.5158 100.176C61.374 100.209 61.2399 100.245 61.1129 100.278C60.4478 100.454 59.9778 100.579 59.6155 100.052C59.1839 99.4248 42.1689 61.756 41.3705 59.7839C40.3273 57.2168 40.5117 57.0895 41.017 56.7407C41.0321 56.7303 41.0474 56.7198 41.063 56.7089C42.0767 56.0058 91.0368 34.1794 92.0864 34.2512C92.8144 34.3011 92.9772 34.6353 94.2316 37.211C94.5227 37.8087 94.8725 38.527 95.3019 39.3905C95.8128 40.4181 97.6106 44.1855 99.864 48.9637C99.0918 48.9818 98.3439 48.9994 97.6222 49.0164C96.9434 47.5518 96.2703 46.1003 95.6434 44.7487C93.9209 41.0341 92.548 38.0736 92.3673 37.6685C91.642 36.0605 91.5569 36.0984 91.1085 36.2988L91.0963 36.3042C50.9979 54.5374 49.9848 54.949 45.9895 56.5719C45.2043 56.8909 44.3037 57.2568 42.9684 57.8139C42.9275 57.831 42.8887 57.8464 42.8521 57.8609C42.5203 57.9928 42.3779 58.0494 42.6281 58.5775C47.0828 67.9767 59.1593 94.4648 59.0527 94.3613C59.4281 94.6948 59.4638 94.6121 59.8836 93.6382C60.1012 93.1334 60.4221 92.3893 60.9469 91.3396C61.2273 90.7783 61.5005 90.2303 61.7671 89.6956C70.3935 72.3958 72.083 69.0077 83.0439 76.8266C83.1026 76.8686 83.1578 76.909 83.2094 76.9469C83.2133 76.9497 83.2171 76.9526 83.221 76.9553C83.236 77.832 83.2522 78.7144 83.2696 79.601C82.5904 79.2827 81.7345 78.7041 80.7894 78.0652C78.0937 76.243 74.6721 73.93 72.5551 75.7626C68.984 78.8602 60.6353 96.7054 60.4098 97.3102C60.4632 97.4368 60.5096 97.553 60.5515 97.6583C60.7798 98.2312 60.8782 98.4781 61.2903 98.2962C70.0068 94.4389 77.3487 91.1978 83.4753 88.4986C83.4952 89.2524 83.5157 90.0061 83.5367 90.759Z" fill="#F1EFC8"/>
<path d="M190.537 88.2239C189.285 90.0104 187.397 91.2493 185.26 91.6856C183.123 92.1221 180.9 91.7228 179.049 90.5701C174.736 88.0076 174.192 82.9175 176.633 78.9876C182.775 69.1056 197.077 79.0194 190.537 88.2239ZM182.599 76.5994C181.509 76.7949 180.484 77.2595 179.617 77.9508C178.75 78.6422 178.07 79.5385 177.637 80.5589C174.957 86.5685 180.324 91.5459 185.767 89.6117C187.247 89.1372 188.514 88.1586 189.347 86.8463C190.181 85.5341 190.528 83.9712 190.328 82.4296C189.873 79.2951 186.827 75.8183 182.599 76.5994Z" fill="#F1EFC8"/>
<path d="M199.679 85.1372C197.116 82.7254 200.208 78.2861 205.291 79.6125C208.003 80.3197 208.263 81.725 209.058 81.0762C211.48 79.0866 213.475 79.7724 214.394 81.478C215.176 82.9304 214.544 83.3968 215.807 83.6551C217.235 83.8183 218.65 84.0824 220.041 84.4453C222.29 85.2161 222.245 86.2288 222.286 86.7659C222.389 88.1425 221.291 88.8467 219.857 88.982C215.718 89.3715 209.061 88.0769 204.493 87.1083C203.685 86.9361 201.116 86.4892 199.679 85.1372ZM204.379 85.5616C207.227 86.1632 220.187 89.7241 221.049 87.0991C221.125 86.8695 221.208 85.9326 219.689 85.6005C218.997 85.4498 215.006 84.7354 214.502 84.6903C214.057 84.6503 213.875 84.5827 213.785 84.1922C213.684 83.2826 213.352 82.4137 212.824 81.6666C212.004 80.6713 210.239 81.3693 209.43 82.668C208.177 84.679 207.651 80.5052 203.169 80.6272C201.411 80.6754 199.549 82.4425 200.593 83.9072C201.39 85.0347 203.144 85.3012 204.379 85.5616Z" fill="#F1EFC8"/>
<path fill-rule="evenodd" clip-rule="evenodd" d="M196.015 120.476C207.016 122.487 216.92 124.235 217.844 124.325C220.095 124.546 220.18 124.227 220.333 123.654L220.336 123.642C220.331 125.522 228.08 79.88 227.862 78.0176C227.817 77.6476 227.673 77.3657 226.992 77.1648C224.145 76.3217 208.654 73.4524 194.916 71.0488C194.933 71.714 194.951 72.3848 194.968 73.0608C201.692 74.2566 211.338 75.9592 225.478 78.4502L225.488 78.4518C225.976 78.5374 226.066 78.5533 225.754 80.2951C225.677 80.7239 225.156 83.9029 224.496 87.9272C223.25 95.526 221.511 106.138 221.334 106.937C220.906 106.839 220.864 106.782 216.74 101.167C216.558 100.918 216.367 100.658 216.168 100.387C213.134 96.2554 211.907 95.2212 207.558 98.2244C204.225 100.524 200.936 103.753 198.759 105.891C197.762 106.869 196.999 107.619 196.57 107.946C196.232 108.205 196.15 107.972 195.987 107.51C195.967 107.45 195.945 107.387 195.921 107.321C195.864 107.169 195.809 107.018 195.753 106.869C195.779 108.107 195.804 109.318 195.827 110.497C197.345 110.298 199.811 107.885 202.796 104.965C203.114 104.654 203.438 104.337 203.767 104.017C205.9 102.009 208.225 100.215 210.707 98.6601C211.494 98.1476 212.04 98.6662 212.842 99.5498C213.765 100.565 220.827 109.654 220.709 110.455C219.144 121.056 219.109 122.596 218.703 122.7C218.604 122.726 218.483 122.667 218.312 122.632C218.374 122.631 209.993 121.037 195.978 118.391C195.991 119.11 196.004 119.805 196.015 120.476Z" fill="#F1EFC8"/>
<path d="M164.426 173.948C166.406 168.246 166.049 168.425 167.725 168.196C168.48 168.094 168.9 168.899 176.847 178.515C178.541 180.408 180.009 182.492 181.22 184.724C181.78 186.034 181.303 186.159 176.075 187.389C173.264 188.053 165.722 189.501 161.996 189.901C158.645 190.266 159.599 187.874 164.426 173.948ZM167.872 170.279C167.249 169.247 167.462 171.549 164.592 179.636C161.448 188.473 161.457 188.445 161.453 188.475C162.068 188.565 161.396 188.136 177.955 185.27C178.517 185.203 179.069 185.065 179.595 184.86C179.494 184.861 170.148 174.044 167.877 170.279H167.872Z" fill="#F1EFC8"/>
<path fill-rule="evenodd" clip-rule="evenodd" d="M151.637 147.908C150.812 148.272 150.469 149.727 149.058 153.164C148.672 153.549 136.735 185.512 135.012 194.443C134.963 194.698 134.911 194.948 134.86 195.188C134.569 196.582 134.337 197.698 135.079 198.005C141.37 200.609 143.914 201.393 148.754 202.886C152.275 203.973 157.011 205.433 165.288 208.242C173.05 210.874 177.651 212.522 180.645 213.593C184.245 214.882 185.52 215.338 187.164 215.674C187.171 215.675 187.177 215.677 187.185 215.678C187.961 215.838 188.243 215.895 195.274 195.064C203.956 169.351 205.341 166.16 204.447 165.275C204.307 165.137 204.113 165.055 203.884 164.954C202.324 164.262 181.959 157.016 181.011 156.697C173.681 154.226 164.585 151.428 156.147 148.92C153.506 148.135 152.377 147.581 151.637 147.908ZM189.375 205.122C189.29 205.131 189.198 205.063 189.056 204.999C189.055 205.084 186.822 204.257 183.163 202.902C173.58 199.351 154.221 192.18 139.64 188.316C139.371 188.245 139.208 188.21 139.14 188.11C138.997 187.904 139.253 187.422 139.798 185.781C148.359 159.987 148.944 158.14 149.298 158.183C149.345 158.188 149.388 158.227 149.443 158.247C151.084 158.863 163.191 162.887 175.12 166.849C187.261 170.884 199.217 174.857 199.759 175.111C199.786 175.124 199.808 175.134 199.826 175.152C199.995 175.321 199.57 176.088 196.259 185.361C190.044 202.766 189.832 205.072 189.375 205.122ZM176.29 162.077C177.117 159.33 177.918 157.189 178.593 157.427C179.546 157.765 176.39 166.275 175.72 166.279C175.47 166.24 175.518 164.639 176.29 162.077ZM163.814 203.709C162.822 206.022 162.175 207.138 162.339 204.643C162.959 202.302 163.725 200.001 164.631 197.755C165.003 196.859 165.639 197.263 165.586 197.562C165.568 197.915 165.521 198.265 165.445 198.61C165.314 198.985 165.17 199.498 165.006 200.082C164.696 201.184 164.315 202.541 163.814 203.709ZM196.994 164.057C197.139 163.903 197.791 163.846 197.645 164.446C197.414 165.789 197.031 167.102 196.503 168.359C195.811 170.221 194.947 172.305 194.555 172.237C193.669 172.081 196.071 165.034 196.994 164.057ZM183.729 203.888C183.762 203.86 183.797 203.83 183.835 203.796C185.644 202.192 182.375 211.084 181.468 211.992C181.172 212.293 181.107 211.613 181.13 211.473C181.223 210.042 181.565 208.638 182.144 207.326C183.257 204.29 183.364 204.199 183.729 203.888ZM165.675 162.812C165.486 162.481 165.411 162.15 165.765 160.644V160.642C166.2 158.786 167.888 153.856 168.718 154.267C169.27 154.539 168.015 158.146 167.234 160.389C166.979 161.126 166.773 161.715 166.7 161.991C166.549 162.328 166.326 162.627 166.047 162.869C166.02 162.894 165.989 162.912 165.954 162.922C165.92 162.934 165.883 162.936 165.847 162.931C165.811 162.925 165.777 162.911 165.748 162.891C165.718 162.87 165.692 162.843 165.675 162.812ZM152.482 202.672C152.416 202.516 152.441 202.319 152.484 200.516V200.517C152.814 199.565 153.094 198.744 153.336 198.037C154.657 194.167 154.811 193.719 155.476 194.05C155.608 194.115 155.586 194.214 155.563 194.314C155.553 194.361 155.542 194.409 155.548 194.453C155.549 195.42 155.302 196.37 154.83 197.214C154.511 198.054 154.252 198.881 154.017 199.637C153.547 201.141 153.166 202.359 152.566 202.837C152.529 202.76 152.502 202.718 152.482 202.672ZM173.164 204.632C172.658 206.402 171.889 209.102 171.139 208.946L171.135 208.947C170.946 208.908 171.023 208.266 171.092 207.687C171.124 207.416 171.155 207.157 171.156 206.981C171.952 204.576 172.354 203.307 172.597 202.538C172.839 201.775 172.924 201.504 173.086 201.105C173.388 200.365 174.103 200.28 174.097 200.672C174.103 201.565 173.929 202.449 173.585 203.274C173.485 203.501 173.341 204.009 173.164 204.632ZM184.619 169.132C184.088 169.478 184.047 168.518 184.414 167.137C184.784 165.756 186.273 160.94 186.925 160.693C187.918 160.316 187.098 163.052 186.567 164.824C186.491 165.08 186.42 165.317 186.361 165.521C186.149 166.262 185.276 168.702 184.619 169.132ZM143.465 198.699C143.17 199.366 142.68 199.359 142.645 198.993C142.728 198.284 142.855 197.58 143.027 196.886C143.416 195.022 144.017 193.21 144.816 191.483C145.102 190.737 145.91 190.826 145.739 191.605C145.296 194.06 144.532 196.445 143.465 198.699ZM158.809 152.991L158.813 152.992C158.712 153.298 158.609 153.602 158.504 153.907C158.241 154.68 157.975 155.456 157.763 156.249C156.532 160.824 154.574 161.031 157.308 153.666C157.576 152.882 157.898 152.117 158.272 151.377C158.581 151.021 159.135 151.181 158.999 151.767C158.72 152.961 158.731 152.965 158.809 152.991Z" fill="#F1EFC8"/>
<path d="M65.762 115.239C73.0908 114.829 79.2315 121.06 79.0706 127.795C79.0805 130.411 78.2906 132.967 76.8067 135.122C75.3228 137.276 73.2158 138.926 70.7681 139.849C68.671 140.559 66.4463 140.814 64.243 140.594C62.1171 140.498 57.7547 138.251 55.6924 134.989C49.73 125.546 57.4841 114.908 65.762 115.239ZM66.7204 138.877C68.1034 138.866 69.4707 138.582 70.744 138.042C72.0174 137.503 73.1718 136.717 74.1414 135.731C76.109 133.776 77.2713 131.154 77.3985 128.385C77.5256 125.614 76.6084 122.897 74.828 120.77C73.0478 118.644 70.5342 117.263 67.7846 116.901C65.0351 116.539 62.2498 117.223 59.98 118.816C51.0492 125.088 55.8134 139.266 66.7204 138.877Z" fill="#F1EFC8"/>
<path fill-rule="evenodd" clip-rule="evenodd" d="M83.9092 102.616C77.8452 103.037 71.966 103.412 66.5394 103.674C49.8831 104.478 35.2184 105.388 34.71 105.457C33.1869 105.662 33.11 106.167 33.1244 107.686C33.3345 129.599 37.7932 189.096 38.1233 190.325C38.2316 190.632 38.4366 190.894 38.7073 191.073C38.9779 191.253 39.2997 191.34 39.6239 191.32C40.8897 191.276 42.0565 191.241 43.1518 191.21C46.2623 191.117 48.7948 191.043 51.3714 190.815C69.0227 189.256 103.377 187.365 126.011 186.118C138.141 185.451 146.904 184.968 147.926 184.822C148.541 184.734 148.713 184.61 148.705 182.73L145.814 133.766C145.357 133.776 144.901 133.786 144.443 133.796C144.515 134.827 144.586 135.851 144.657 136.865C145.532 149.438 146.293 160.362 146.166 160.842C146.674 161.348 146.329 161.045 145.362 160.195C141.12 156.467 124.908 142.222 116.226 139.693C110.906 138.143 107.425 140.264 94.8929 151.607C83.7948 161.651 75.0796 170.687 68.55 177.458C65.9998 180.102 63.783 182.401 61.8879 184.279C60.7871 185.37 60.6579 184.878 60.9203 184.532C62.8504 181.937 73.8794 169.523 82.6196 161.059C82.8399 160.845 82.8379 160.82 82.6062 160.604C79.5141 157.479 75.8396 154.99 71.7904 153.277C70.1779 152.594 68.4412 152.252 66.69 152.275C58.5268 152.226 43.4831 171.322 39.844 175.941C39.3623 176.552 39.0804 176.91 39.0407 176.936C38.4964 175.118 35.0165 115.302 34.9089 113.409C34.5857 107.74 34.4499 106.762 34.7105 106.642C34.7978 106.602 34.9297 106.658 35.1139 106.666C42.0936 106.97 44.0562 106.843 71.3403 105.074C75.0544 104.833 79.2378 104.562 83.9669 104.258C83.9476 103.714 83.9283 103.167 83.9092 102.616Z" fill="#F1EFC8"/>
<path d="M194.207 48.2812C194.158 47.1137 193.284 46.9128 191.472 46.8985C190.419 46.8892 89.7696 49.1688 85.8101 49.3062C83.6863 49.38 83.3849 49.5245 83.3029 51.5151C82.3404 74.8851 85.0587 132.842 85.3601 134.276C85.4561 134.575 85.6433 134.837 85.8954 135.025C86.1476 135.212 86.452 135.317 86.7664 135.323C91.3215 135.376 95.6921 135.39 98.5805 135.238C125.231 133.839 193.545 132.963 195.341 132.676C195.883 132.588 196.064 132.491 196.131 130.876C196.262 127.62 194.952 66.1223 194.207 48.2812ZM185.708 48.2607C186.248 49.5245 186.268 54.3697 186.135 58.1007C186.097 59.1851 186.074 62.0562 185.552 62.051C184.44 62.0449 184.152 44.6168 185.708 48.2607ZM172.154 47.9296C173.394 47.9839 172.888 60.4777 172.721 61.7282C172.71 61.8269 172.661 61.9177 172.586 61.9825C172.511 62.0472 172.413 62.0813 172.314 62.0778C172.214 62.0743 172.12 62.0335 172.049 61.9636C171.979 61.8937 171.937 61.7998 171.933 61.7005C171.574 59.2025 171.403 56.6811 171.42 54.1575C171.405 52.2018 171.192 47.8855 172.154 47.9296ZM159.521 56.5396C159.502 60.7247 159.592 62.5379 158.906 62.5266C158.598 62.5215 158.354 62.6097 158.116 59.1185C157.264 46.6781 159.577 43.641 159.521 56.5396ZM158.018 62.0808C157.916 62.1833 157.987 62.173 157.747 62.1125C157.8 62.0746 157.741 62.0818 158.018 62.0818V62.0808ZM145.709 62.9817C145.222 62.9817 145.027 61.6974 144.932 59.957C144.83 58.1027 144.702 52.4007 144.824 50.8939C144.946 49.3872 145.098 48.4339 145.725 48.9126C146.341 48.9136 146.814 62.9889 145.709 62.9828V62.9817ZM132.724 48.9618C133.647 48.9987 133.573 56.1706 133.566 57.0788C133.505 64.1041 132.737 63.7208 132.541 62.7163C131.965 59.7745 131.67 48.9198 132.724 48.9618ZM119.551 49.4169C119.637 49.411 119.722 49.4385 119.789 49.4937C119.855 49.5488 119.898 49.6274 119.908 49.7131C120.299 51.8103 120.988 63.6265 119.719 63.5506C118.86 63.5004 118.947 58.8141 118.775 54.2795C118.963 49.8125 118.945 49.3646 119.551 49.4169ZM106.44 50.1477C107.158 49.9058 107.247 52.7471 107.341 54.6085C107.513 57.7099 107.413 60.8204 107.041 63.9042C106.954 64.5039 106.355 64.4875 106.24 63.9042C105.925 61.9385 105.773 59.9501 105.785 57.9592C105.735 53.4544 105.751 50.3794 106.44 50.1477ZM93.2311 50.4808C93.3357 50.4796 93.4382 50.511 93.5242 50.5707C93.6101 50.6304 93.6754 50.7155 93.7108 50.814C94.4539 54.9703 94.2233 62.992 93.8256 64.3614C93.8045 64.4505 93.7538 64.5296 93.6815 64.5858C93.6094 64.642 93.5201 64.6718 93.4287 64.6702C93.3371 64.6687 93.249 64.6359 93.1787 64.5773C93.1085 64.5186 93.0604 64.4378 93.0425 64.3481C92.53 61.723 92.2522 50.4921 93.2311 50.4808ZM94.9428 133.793C94.869 134.402 94.254 134.322 94.1413 133.768C93.0589 128.487 93.4863 122.376 93.9455 120.915C94.1084 120.395 94.663 120.425 94.7522 120.932C95.3833 125.192 95.4475 129.517 94.9428 133.793ZM108.063 133.313C107.976 133.922 107.35 133.837 107.267 133.345C106.783 130.459 106.132 122.275 107.212 120.082C107.417 119.672 107.879 120.133 107.955 120.545C108.565 124.776 108.6 129.071 108.061 133.312L108.063 133.313ZM121.183 132.669C121.027 133.197 120.539 133.012 120.412 132.685C119.977 131.557 119.337 119.451 120.515 119.476C121.066 119.487 121.124 120.523 121.25 121.833C121.568 125.439 121.543 129.068 121.177 132.669H121.183ZM132.02 132.764C132.096 132.718 132.062 132.71 132.161 132.764C132.106 132.8 132.139 132.8 132.014 132.764H132.02ZM134.364 132.825C134.366 132.873 134.357 132.922 134.338 132.967C134.318 133.011 134.289 133.051 134.254 133.084C134.218 133.115 134.175 133.139 134.129 133.153C134.082 133.167 134.033 133.171 133.985 133.163C132.779 133.138 132.985 120.695 133.351 119.326C133.367 119.258 133.401 119.196 133.447 119.144C133.494 119.093 133.552 119.053 133.618 119.03C133.684 119.006 133.753 118.999 133.822 119.009C133.892 119.019 133.956 119.046 134.013 119.087C134.637 119.554 134.835 129.289 134.358 132.825H134.364ZM147.029 132.21C146.99 132.559 146.836 132.665 146.549 132.62C145.593 132.483 145.349 118.873 146.487 118.899C146.8 118.905 147.039 118.767 147.282 122.207C147.464 125.544 147.377 128.889 147.023 132.212L147.029 132.21ZM160.265 131.885C160.23 132.144 160.106 132.234 159.892 132.233C158.619 132.233 159.072 120.919 159.2 119.42C159.272 118.6 159.357 118.477 159.589 118.448C161.068 118.262 160.468 130.327 160.259 131.887L160.265 131.885ZM173.761 131.783C173.727 132.038 173.598 132.128 173.385 132.125C172.293 132.111 172.008 117.96 173.136 117.98C174.362 118.016 174.051 129.585 173.754 131.787L173.761 131.783ZM186.969 131.296C186.898 131.815 186.281 131.818 186.176 131.282C185.561 126.836 185.482 122.332 185.941 117.867C186.001 117.355 186.659 117.481 186.739 117.854C187.414 121.012 187.349 128.471 186.963 131.3L186.969 131.296ZM193.519 116.376C165.595 116.4 86.6126 119.62 86.6054 119.503C86.1698 112.899 85.0013 65.7636 85.0013 65.74C85.0013 65.7164 192.616 62.7675 192.64 62.7675C193.299 62.7675 194.312 115.567 194.365 115.998C194.414 116.4 193.963 116.38 193.513 116.38L193.519 116.376Z" fill="#F1EFC8"/>
<path d="M131.103 72.5526C142.367 76.8504 158.702 86.2876 158.875 86.3737C159.158 86.5172 159.411 86.7158 159.618 86.9579C159.824 87.2 159.981 87.4808 160.077 87.7839C160.174 88.087 160.209 88.4063 160.181 88.7233C160.154 89.0402 160.064 89.3486 159.915 89.6301C159.251 90.8314 156.43 92.6262 154.802 93.6656C131.796 108.323 130.959 109.033 130.139 108.923C127.619 108.584 127.378 108.068 126.551 103.04C125.164 94.499 124.717 85.8314 125.219 77.1928C125.479 73.5182 125.853 72.3199 126.569 71.8515C127.936 70.9546 130.869 72.5516 131.103 72.5526ZM128.766 104.892C129.005 106.547 129.623 107.681 130.996 106.726C150.697 93.0137 160.164 89.7357 158.158 88.0855C157.953 87.9133 146.722 81.5255 130.314 73.9271C128.161 72.9298 127.897 72.6582 127.357 73.1574C127.005 73.4813 126.998 73.6832 126.936 76.0919C126.795 81.4783 126.398 88.4473 128.766 104.892Z" fill="#F1EFC8"/>
</g>
<defs>
<clipPath id="clip0_865_121">
<rect width="205" height="205" fill="white" transform="translate(19 30)"/>
</clipPath>
</defs>
</svg>
