<svg width="25" height="25" viewBox="0 0 25 25" fill="none" xmlns="http://www.w3.org/2000/svg">
<path d="M12.6663 12.1042C12.6351 12.1042 12.6142 12.1042 12.583 12.1042C12.5309 12.0938 12.458 12.0938 12.3955 12.1042C9.37463 12.0105 7.09338 9.63546 7.09338 6.70837C7.09338 3.72921 9.52047 1.30212 12.4996 1.30212C15.4788 1.30212 17.9059 3.72921 17.9059 6.70837C17.8955 9.63546 15.6038 12.0105 12.6976 12.1042C12.6871 12.1042 12.6767 12.1042 12.6663 12.1042ZM12.4996 2.86462C10.3851 2.86462 8.65588 4.59379 8.65588 6.70837C8.65588 8.79171 10.2809 10.4688 12.3538 10.5417C12.4059 10.5313 12.5517 10.5313 12.6871 10.5417C14.7288 10.448 16.333 8.77087 16.3434 6.70837C16.3434 4.59379 14.6142 2.86462 12.4996 2.86462Z" fill="#121212"/>
<path d="M12.6767 23.4895C10.635 23.4895 8.58293 22.9687 7.03084 21.927C5.58293 20.9687 4.79126 19.6562 4.79126 18.2291C4.79126 16.802 5.58293 15.4791 7.03084 14.5104C10.1558 12.4375 15.2183 12.4375 18.3225 14.5104C19.76 15.4687 20.5621 16.7812 20.5621 18.2083C20.5621 19.6354 19.7704 20.9583 18.3225 21.927C16.76 22.9687 14.7183 23.4895 12.6767 23.4895ZM7.89543 15.8229C6.89543 16.4895 6.35376 17.3437 6.35376 18.2395C6.35376 19.125 6.90584 19.9791 7.89543 20.6354C10.4892 22.375 14.8642 22.375 17.4579 20.6354C18.4579 19.9687 18.9996 19.1145 18.9996 18.2187C18.9996 17.3333 18.4475 16.4791 17.4579 15.8229C14.8642 14.0937 10.4892 14.0937 7.89543 15.8229Z" fill="#121212"/>
</svg>
