<svg width="512" height="512" viewBox="0 0 512 512" fill="none" xmlns="http://www.w3.org/2000/svg">
<g clip-path="url(#clip0_475_215)">
<path d="M0 185.295C0 120.436 0 88.0061 12.6225 63.2331C23.7255 41.4421 41.4421 23.7255 63.2331 12.6225C88.0061 0 120.436 0 185.295 0H326.705C391.564 0 423.994 0 448.767 12.6225C470.558 23.7255 488.275 41.4421 499.378 63.2331C512 88.0061 512 120.436 512 185.295V326.705C512 391.564 512 423.994 499.378 448.767C488.275 470.558 470.558 488.275 448.767 499.378C423.994 512 391.564 512 326.705 512H185.295C120.436 512 88.0061 512 63.2331 499.378C41.4421 488.275 23.7255 470.558 12.6225 448.767C0 423.994 0 391.564 0 326.705V185.295Z" fill="white"/>
<path d="M109.715 361.978V131.803C109.715 130.237 110.357 129.342 111.855 129.342C133.966 129.342 156.068 128 178.185 128C214.074 128 252.934 140.508 266.555 178.777C269.764 188.172 271.476 197.791 271.476 207.857C271.476 227.094 267.197 242.976 258.638 255.502C234.73 290.494 193.292 289.95 156.146 289.95V361.754C156.437 363.88 154.66 364.886 152.937 364.886H112.282C110.571 364.886 109.715 363.991 109.715 361.978ZM156.36 172.514V247.673C171.089 248.773 186.501 248.892 200.652 244.094C216.275 239.501 224.831 225.716 224.831 209.199C225.265 195.124 217.741 181.62 204.932 176.54C190.951 170.615 171.452 170.26 156.36 172.514Z" fill="#381668"/>
<path d="M300.481 186.732H338.031C340.102 186.751 341.961 188.246 342.509 190.334C345.261 196.722 345.6 204.424 345.61 211.321C352.049 203.482 359.815 196.951 368.518 192.054C377.852 186.532 388.435 183.733 399.158 183.951C400.938 183.684 402.514 185.331 402.259 187.192V230.768C402.259 232.451 401.107 233.289 398.815 233.289C382.921 232.143 358.176 236.069 346.627 249.135V362.442C346.627 364.603 345.708 365.683 343.871 365.683H303.582C301.603 365.98 299.857 364.118 300.136 362.081V239.052C300.136 222.566 300.478 205.584 298.07 189.254C297.699 187.751 299.075 186.354 300.481 186.732Z" fill="#381668"/>
</g>
<defs>
<clipPath id="clip0_475_215">
<rect width="512" height="512" fill="white"/>
</clipPath>
</defs>
</svg>
