<svg width="512" height="419" viewBox="0 0 512 419" fill="none" xmlns="http://www.w3.org/2000/svg">
<path d="M203.079 144.269C203.253 144.135 203.231 144.069 203.011 144.071C168.85 144.141 135.511 144.194 102.994 144.228C98.359 144.232 94.0459 143.39 90.0548 141.702C83.2271 138.815 77.976 132.977 77.1765 125.553C76.0796 115.367 82.8785 106.201 91.0974 100.893C97.8622 96.526 105.334 94.3391 113.512 94.3327C179.508 94.2751 245.527 94.2112 311.568 94.1409C311.855 94.1409 311.887 94.0503 311.664 93.8691C290.265 76.4722 268.999 59.183 247.867 42.0014C242.702 37.8003 239.411 32.8703 240.038 25.9836C240.882 16.6638 249.728 9.91457 258.02 7.37601C265.817 4.98666 273.441 5.07298 280.892 7.63498C284.03 8.71243 286.614 10.3302 289.092 12.2549C290.842 13.6126 342.203 53.0444 443.175 130.55C455.526 140.031 466.147 150.579 475.04 162.196C492.28 184.72 503.038 211.739 505.536 240.14C507.329 260.521 504.95 280.362 498.398 299.665C491.081 321.23 479.037 340.704 463.326 357.207C435.89 386.024 399.046 404.158 359.688 409.989C340.737 412.797 321.736 412.76 302.687 409.881C244.499 401.092 191.604 364.481 168.732 309.323C163.713 297.225 160.541 284.804 159.215 272.06C158.974 269.763 158.899 267.477 158.991 265.202C159.179 260.509 159.592 255.748 160.232 250.921C160.242 250.846 160.223 250.782 160.174 250.729C160.156 250.708 160.13 250.696 160.103 250.694C160.076 250.691 160.049 250.699 160.027 250.716C127.299 277.51 94.6983 304.18 62.2258 330.725C51.1831 339.751 35.2155 344.377 21.5344 338.654C11.8573 334.61 6.08491 325.651 5.68835 315.312C5.25662 304.16 11.1314 293.168 19.1008 285.731C20.4439 284.48 22.0451 283.141 23.9042 281.713C83.6876 235.854 143.412 190.04 203.079 144.269ZM437.965 239.307C437.854 226.661 435.001 214.163 429.568 202.526C424.134 190.889 416.227 180.341 406.298 171.485C396.369 162.629 384.612 155.637 371.699 150.91C358.786 146.183 344.969 143.813 331.037 143.934C302.902 144.18 276.007 154.561 256.269 172.794C236.532 191.027 225.569 215.618 225.792 241.158C225.902 253.804 228.755 266.302 234.189 277.939C239.622 289.576 247.529 300.124 257.458 308.98C267.387 317.836 279.144 324.828 292.057 329.555C304.97 334.282 318.787 336.652 332.719 336.531C360.855 336.285 387.75 325.904 407.487 307.671C427.224 289.438 438.188 264.847 437.965 239.307Z" fill="#FF6F21"/>
<path d="M334.117 298.587C371.48 298.587 401.768 271.116 401.768 237.23C401.768 203.343 371.48 175.873 334.117 175.873C296.755 175.873 266.467 203.343 266.467 237.23C266.467 271.116 296.755 298.587 334.117 298.587Z" fill="#013AA9"/>
</svg>
