<svg width="247" height="247" viewBox="0 0 247 247" fill="none" xmlns="http://www.w3.org/2000/svg">
<path fill-rule="evenodd" clip-rule="evenodd" d="M196.126 105.429C196.032 100.414 195.859 95.9096 195.586 92.2462C194.742 80.92 191.987 80.3962 181.718 79.9964C137.785 78.2898 61.1903 79.7392 54.4981 80.5284C49.4007 81.1301 47.5045 82.7178 46.6671 88.3041C46.0178 92.6358 45.6224 107.793 45.599 124.504C48.2708 124.451 51.0568 124.403 53.9044 124.359C53.9411 114.847 54.0324 103.408 54.21 89.5546C54.21 89.3137 54.2541 89.1702 54.5401 89.1702C54.5816 89.1702 55.0301 89.1646 55.8414 89.1543C67.8881 89.0022 159.917 87.8401 186.814 89.2143C187.143 89.2313 187.139 89.478 187.134 89.8044V89.805C187.133 89.8522 187.132 89.9011 187.132 89.9512C187.149 95.3533 187.16 100.57 187.165 105.577C189.976 105.508 193.056 105.451 196.126 105.429ZM195.932 139.383C193.046 139.432 190.007 139.47 187.101 139.483C187.004 157.949 186.807 169.96 186.583 172.732C109.983 170.904 77.4557 171.647 63.8091 171.959H63.8084C55.5166 172.148 54.1959 172.178 54.1947 171.375C54.1922 169.299 54.1559 166.862 54.1091 163.711V163.71V163.709V163.708L54.109 163.707C54.0518 159.859 53.9787 154.946 53.9318 148.32C52.0617 148.338 50.2281 148.359 48.4523 148.378H48.4228C47.5437 148.389 46.6791 148.398 45.8312 148.407C46.1157 161.216 46.6717 172.216 47.5588 176.73C47.5943 176.91 47.628 177.06 47.6565 177.187C47.7626 177.659 47.7961 177.808 47.5732 178.005C26.8739 196.068 27.0449 197.642 27.2219 199.274C27.2358 199.401 27.2497 199.529 27.2536 199.665C27.2632 199.998 27.2714 200.317 27.2792 200.621C27.3824 204.639 27.4211 206.144 29.7977 206.812C36.5831 208.716 200.929 209.073 200.953 209.073C201.479 209.073 202.01 209.076 202.542 209.078C208.696 209.11 215.04 209.141 215.168 205.041C215.171 204.95 215.174 204.851 215.178 204.742C215.235 203.142 215.357 199.744 214.163 198.261C209.858 192.921 203.382 187.243 199.035 183.433H199.034C196.29 181.028 194.395 179.365 194.43 179.002C194.723 175.796 195.505 158.483 195.932 139.383ZM62.3455 148.264C62.444 148.33 62.5475 148.391 62.6553 148.444C63.2648 148.744 63.9669 148.796 64.6138 148.589C64.8572 148.514 65.0876 148.403 65.2978 148.261C64.3143 148.261 63.3293 148.262 62.3455 148.264ZM80.8527 137.932C81.6316 137.872 82.4125 137.581 82.459 136.512C82.4954 135.67 81.9121 134.995 80.7816 134.976L80.8166 136.43L80.8527 137.932ZM209.938 202.066C200.726 203.629 34.7883 200.911 34.6254 200.901C26.8641 200.456 27.3141 199.328 31.8579 194.833C36.4417 190.293 39.002 187.969 41.6411 185.574C42.849 184.478 44.0735 183.367 45.516 182.021C46.7498 180.869 47.4614 180.148 47.9022 179.701C48.4047 179.193 48.5554 179.04 48.7264 179.013C48.7994 179 48.8761 179.011 48.9858 179.026C49.0138 179.03 49.044 179.034 49.0768 179.038C56.3851 180.001 188.409 180.166 191.791 180.166C192.082 180.166 192.313 180.159 192.502 180.153C193.226 180.132 193.322 180.13 193.776 180.596C196.186 183.08 197.514 184.28 199.19 185.793C200.134 186.645 201.188 187.597 202.606 188.933C203.646 189.911 204.607 190.811 205.491 191.639C214.815 200.371 215.599 201.105 209.938 202.066ZM88.8735 107.543C88.3247 107.532 87.887 107.536 87.5223 107.54C86.4109 107.55 85.977 107.554 85.1404 107.133C83.9309 106.526 84.5367 104.694 86.2905 104.696C90.1843 104.702 94.2498 104.663 98.0234 104.627C105.531 104.555 111.883 104.494 113.424 104.819C113.709 104.868 113.965 105.021 114.142 105.248C114.32 105.476 114.406 105.761 114.385 106.049C114.212 107.557 113.656 107.553 112.318 107.543C112.153 107.541 111.977 107.54 111.787 107.541C108.31 107.569 105.95 107.599 104.073 107.624H104.072C99.3316 107.685 97.6712 107.706 88.8735 107.543ZM86.3079 164.401C84.5459 164.585 84.4434 166.274 85.3055 166.773L85.308 166.774C85.3885 166.821 85.4627 166.864 85.5388 166.904C86.454 167.382 87.6225 167.376 102.863 167.29C105.458 167.274 108.461 167.258 111.94 167.24C112.166 167.239 112.369 167.241 112.553 167.244C113.503 167.255 113.954 167.26 114.368 166.745C114.739 166.284 114.876 164.767 113.629 164.504C111.561 164.064 87.6029 164.384 86.3582 164.4L86.3079 164.401ZM173.712 155.656C173.572 157.155 173.132 157.153 171.372 157.146C171.015 157.144 170.605 157.143 170.131 157.153C164.494 157.278 151.257 157.311 145.856 157.127C144.785 157.09 143.584 156.466 143.918 155.447C144.297 154.276 145.347 154.282 146.249 154.289C146.322 154.29 146.393 154.29 146.464 154.29C152.739 154.279 157.595 154.223 161.344 154.18C172.477 154.051 173.862 154.035 173.712 155.656ZM173.215 95.2176C173.039 94.9894 172.797 94.8211 172.523 94.7359L172.394 94.7072C172.245 94.674 172.12 94.646 171.993 94.6224C171.306 94.4945 170.595 94.4994 166.021 94.5311C162.424 94.556 156.441 94.5974 146.205 94.6037C144.779 94.6047 143.614 94.7616 143.661 96.2099C143.687 97.0166 144.83 97.4112 145.668 97.4399C150.782 97.6203 171.972 97.608 172.625 97.3569C172.893 97.2506 173.12 97.0639 173.277 96.8227C173.434 96.5816 173.512 96.2976 173.501 96.0102C173.489 95.7227 173.39 95.4459 173.215 95.2176ZM110.748 94.8802C118.712 94.7962 119.855 94.7842 120.335 95.7016C120.459 95.9139 120.525 96.1549 120.526 96.4007C120.528 96.6464 120.465 96.8882 120.344 97.1022C120.223 97.3161 120.048 97.4944 119.837 97.6196C119.625 97.7446 119.384 97.8121 119.139 97.8152C117.023 97.827 114.641 97.8559 112.182 97.8859H112.179H112.178H112.177C102.913 97.9985 92.5569 98.1245 91.2084 97.398C90.1342 96.8199 90.5606 95.1307 92.2058 94.9851C92.5386 94.9554 94.2268 94.9609 95.547 94.9652C96.4545 94.9682 97.1883 94.9706 97.1883 94.9605C103.12 94.9605 107.501 94.9144 110.748 94.8802ZM115.936 126.519C115.796 126.317 115.591 126.168 115.355 126.096C113.801 125.548 88.0145 125.855 87.3483 126.038C87.1195 126.086 86.9082 126.195 86.7367 126.354C86.5652 126.513 86.4401 126.715 86.3746 126.94C86.3092 127.164 86.3059 127.402 86.3651 127.628C86.4243 127.855 86.5438 128.06 86.7107 128.224L86.7494 128.253C86.7954 128.286 86.8387 128.318 86.8832 128.349C87.5802 128.82 88.5962 128.819 105.491 128.812C107.883 128.811 110.594 128.81 113.668 128.81C115.173 128.81 116.183 128.717 116.128 127.212C116.144 126.966 116.076 126.722 115.936 126.519ZM93.0484 157.499C91.7897 157.491 90.4859 156.797 90.9646 155.619C91.3668 154.653 92.3756 154.653 93.3485 154.654H93.4051C103.621 154.654 109.624 154.601 113.26 154.569C118.824 154.52 118.841 154.52 119.924 154.834C120.212 154.961 120.447 155.182 120.593 155.462C120.739 155.741 120.786 156.061 120.726 156.369C120.667 156.679 120.505 156.959 120.266 157.164C120.027 157.369 119.726 157.487 119.411 157.499H93.0484ZM85.9515 136.925C86.0591 137.178 86.2452 137.389 86.4822 137.529C87.484 138.04 88.199 138.036 97.7659 137.985C101.599 137.963 106.852 137.936 114.114 137.93C114.45 137.965 114.788 137.879 115.066 137.688C115.345 137.496 115.545 137.211 115.632 136.884C115.719 136.557 115.685 136.211 115.539 135.906C115.392 135.602 115.141 135.36 114.832 135.224C112.89 134.799 87.5666 135.111 87.0541 135.142C86.7797 135.159 86.5179 135.263 86.3074 135.44C86.0968 135.616 85.9485 135.856 85.8845 136.124C85.8204 136.391 85.8439 136.672 85.9515 136.925ZM118.846 117.743C118.489 117.737 118.147 117.598 117.888 117.353C117.629 117.108 117.471 116.775 117.445 116.419C117.419 116.064 117.528 115.711 117.749 115.431C117.97 115.152 118.288 114.965 118.641 114.908L118.683 114.908H118.684C119.754 114.897 140.334 114.687 144.433 115.054C144.662 115.074 144.883 115.148 145.078 115.27C145.273 115.392 145.436 115.558 145.555 115.755C145.674 115.952 145.745 116.175 145.761 116.404C145.778 116.634 145.74 116.864 145.651 117.076C145.202 118.045 144.44 118.03 143.304 118.006C143.12 118.002 142.924 117.998 142.719 117.998C142.191 117.999 141.653 117.999 141.102 118C135.717 118.007 129.158 118.016 118.846 117.743ZM68.9753 117.726C69.2297 117.908 69.5371 118 69.8496 117.989C71.4189 118.036 86.3295 118.402 95.0205 118.238C97.3678 118.193 97.213 115.42 95.3957 115.294C92.5236 115.097 69.9818 114.857 69.0593 115.369C68.7926 115.532 68.5876 115.779 68.4762 116.072C68.3648 116.364 68.3534 116.685 68.4437 116.984C68.534 117.283 68.7209 117.544 68.9753 117.726ZM126.755 148.157C103.242 148.157 103.24 148.067 103.213 146.571L103.212 146.545C103.213 146.306 103.269 146.07 103.375 145.857C103.481 145.643 103.635 145.456 103.824 145.311C104.014 145.166 104.234 145.066 104.468 145.019C104.703 144.973 104.944 144.981 105.175 145.042C105.19 145.047 105.972 145.041 107.257 145.031H107.261C112.431 144.99 125.744 144.884 130.237 145.2C130.577 145.22 130.898 145.361 131.146 145.596C131.392 145.83 131.547 146.145 131.584 146.483C131.622 146.821 131.539 147.162 131.349 147.445C131.16 147.728 130.877 147.935 130.55 148.029C129.288 148.142 128.021 148.184 126.755 148.157ZM157.32 165.862C157.454 164.461 155.926 164.143 154.52 164.153C151.813 164.173 148.954 164.155 146.284 164.139H146.27C140.668 164.104 135.896 164.075 135.101 164.399C134.89 164.488 134.707 164.636 134.576 164.825C134.445 165.013 134.369 165.235 134.358 165.464C134.348 165.694 134.402 165.921 134.516 166.121C134.628 166.321 134.797 166.485 134.998 166.594C136.218 167.192 144.85 167.104 151.116 167.04H151.12C152.101 167.029 153.023 167.02 153.85 167.014L154.115 167.012C155.985 167.002 157.211 166.994 157.32 165.862ZM154.537 104.705C155.857 104.695 157.383 105.06 157.202 106.368C157.017 107.722 156.17 107.707 154.656 107.68C154.38 107.675 154.082 107.67 153.762 107.672C153.491 107.675 153.062 107.681 152.513 107.689C148.21 107.751 136.497 107.921 134.925 107.17C134.708 107.066 134.528 106.9 134.406 106.693C134.284 106.487 134.227 106.249 134.24 106.009C134.252 105.769 134.336 105.539 134.48 105.347C134.624 105.155 134.821 105.01 135.048 104.93C135.888 104.627 141.688 104.66 147.392 104.692C149.944 104.707 152.476 104.721 154.537 104.705ZM150.152 128.572C150.992 128.571 151.94 128.569 153.04 128.569C154.427 128.57 155.599 128.58 156.589 128.588C161.438 128.627 161.937 128.631 162.229 127.407C162.292 127.087 162.24 126.756 162.082 126.471C161.925 126.186 161.671 125.966 161.367 125.85C160.824 125.672 160.253 125.592 159.683 125.614C159.237 125.614 158.203 125.606 156.834 125.594H156.832H156.831C151.819 125.552 142.304 125.471 140.505 125.651C139.202 125.781 138.213 128.288 141.56 128.436C144.805 128.58 146.353 128.577 150.152 128.572ZM136.064 135.937C136.45 134.733 136.772 134.736 144.303 134.806C147.163 134.833 151.061 134.87 156.396 134.854C157.957 134.854 159.209 135.248 158.916 136.732C158.694 137.856 157.744 137.839 156.588 137.819C156.431 137.817 156.27 137.814 156.106 137.814C153.289 137.815 150.82 137.831 148.67 137.847H148.669C138.477 137.916 135.423 137.938 136.064 135.937ZM68.4098 96.3577C68.3719 96.5553 68.3742 96.7586 68.4166 96.9553C68.7461 98.2301 69.3503 98.223 77.2997 98.1306C79.5904 98.1041 82.4909 98.0704 86.1707 98.0582C87.8629 98.0531 88.4656 95.1277 85.7104 95.1647H69.6179C69.4198 95.2001 69.2309 95.275 69.0624 95.385C68.8939 95.4951 68.7493 95.6378 68.6371 95.8049C68.525 95.9721 68.4477 96.1601 68.4098 96.3577ZM70.3129 157.754C68.0097 157.731 68.0579 154.96 70.2975 154.851C70.3126 154.85 70.3246 154.851 70.3513 154.853C70.5818 154.87 71.9099 154.967 85.8273 154.797C86.8615 154.784 87.6241 154.943 87.8076 156.051C87.9562 156.944 87.416 157.743 86.0866 157.75C82.9101 157.767 74.4723 157.798 70.3129 157.754ZM138.737 157.311C140.753 157.274 140.663 155.115 139.48 154.814C137.53 154.318 127.718 154.555 125.709 154.674C124.473 154.749 123.923 155.754 124.238 156.491C124.727 157.636 126.37 157.596 133.421 157.427H133.422H133.423H133.426H133.431C134.939 157.391 136.694 157.349 138.737 157.311ZM129.328 125.749H129.329C133.321 125.707 136.007 125.68 135.757 127.437C135.746 127.641 135.691 127.839 135.597 128.021C135.503 128.201 135.372 128.361 135.211 128.487C135.05 128.613 134.864 128.704 134.666 128.752C134.468 128.801 134.262 128.806 134.061 128.769C133.944 128.757 133.32 128.772 132.393 128.795H132.392H132.391C129.01 128.877 121.62 129.055 120.264 128.385C119.092 127.804 119.36 126.072 121.412 125.904C123.576 125.722 127.293 125.739 127.293 125.764C128.001 125.764 128.681 125.757 129.328 125.749ZM125.709 94.9697C123.435 95.1162 122.628 98.0241 127.445 97.935C128.421 97.917 128.77 97.922 129.217 97.9281C130.107 97.9404 131.388 97.9581 138.737 97.8151C138.988 97.8088 139.234 97.7353 139.447 97.6022C139.66 97.4691 139.834 97.2811 139.95 97.058C140.066 96.8349 140.12 96.5847 140.107 96.3335C140.094 96.0823 140.014 95.8393 139.874 95.6297C139.571 95.0721 138.261 94.8733 137.655 94.8672C134.421 94.8292 128.46 94.7934 125.709 94.9697ZM69.1013 107.215C68.9221 107.127 68.7649 107 68.6417 106.844C68.5185 106.687 68.4325 106.504 68.3901 106.309C68.3477 106.114 68.3499 105.912 68.3968 105.719C68.4437 105.525 68.5338 105.344 68.6606 105.19C69.2869 104.424 69.7456 104.428 71.7467 104.448C72.0871 104.452 72.4722 104.456 72.9102 104.456C74.7502 104.459 76.1818 104.457 77.3013 104.455C80.8091 104.449 81.2525 104.448 81.5948 104.634C81.6443 104.661 81.6917 104.691 81.7459 104.727L81.7621 104.737C82.02 104.899 82.2203 105.138 82.3348 105.421C82.4492 105.703 82.472 106.014 82.3997 106.31C82.3275 106.606 82.1639 106.872 81.9324 107.069C81.7007 107.267 81.4128 107.387 81.1092 107.412C80.0483 107.49 70.5005 107.796 69.1013 107.215ZM126.695 104.446C125.962 104.455 125.09 104.466 124.046 104.466L124.044 104.451C122.788 104.451 121.817 104.444 121.055 104.438C118.323 104.418 118.294 104.418 117.553 104.839C116.649 105.354 116.291 107.619 119.557 107.625L119.559 107.625L119.561 107.625C119.604 107.617 120.055 107.539 129.433 107.428C129.684 107.447 129.934 107.4 130.162 107.293C130.388 107.185 130.584 107.021 130.728 106.815C130.873 106.61 130.962 106.37 130.987 106.12C131.01 105.87 130.97 105.618 130.868 105.389C130.408 104.4 129.813 104.408 126.695 104.446ZM71.138 167.295C69.5708 167.45 68.0046 166.403 68.8082 165C69.3364 164.076 70.2725 164.096 71.9692 164.13H71.9707C72.3149 164.137 72.6903 164.145 73.0999 164.145C74.9504 164.147 76.389 164.145 77.5131 164.143H77.5332C81.0273 164.136 81.4701 164.135 81.8212 164.314C81.8721 164.34 81.9212 164.369 81.9774 164.404L82.0051 164.421C82.2605 164.583 82.459 164.82 82.573 165.101C82.687 165.381 82.7107 165.69 82.6409 165.985C82.5711 166.279 82.4112 166.544 82.1834 166.743C81.9558 166.942 81.6716 167.066 81.3706 167.096C80.6968 167.157 78.4456 167.177 76.2096 167.195H76.2089C73.9723 167.215 71.751 167.234 71.138 167.295ZM119.211 164.131C116.675 164.113 116.108 167.004 119.605 167.049L121.113 167.058H121.171L121.253 167.059H121.313H121.36C124.273 167.076 129.79 167.109 129.834 167.108C130.184 167.1 130.52 166.965 130.779 166.728C131.037 166.49 131.2 166.167 131.238 165.819C131.276 165.469 131.184 165.119 130.983 164.832C130.782 164.545 130.482 164.342 130.141 164.259C129.758 164.148 129.658 164.149 127.448 164.152H127.447C125.94 164.155 123.448 164.159 119.211 164.131ZM132.274 136.416C132.288 136.143 132.229 135.872 132.1 135.632C131.651 134.795 131.28 134.798 127.293 134.832C125.631 134.846 123.342 134.866 120.158 134.832C119.915 134.801 119.669 134.822 119.435 134.894C119.201 134.965 118.986 135.086 118.802 135.248C118.619 135.41 118.473 135.61 118.373 135.833C118.274 136.056 118.223 136.299 118.224 136.543C118.284 138.1 120.441 138.029 124.435 137.897C126.158 137.84 128.223 137.773 130.609 137.819C130.88 137.851 131.155 137.808 131.403 137.694C131.651 137.581 131.863 137.402 132.017 137.176C132.171 136.951 132.26 136.688 132.274 136.416ZM113.942 115.863C114.058 116.092 114.112 116.346 114.099 116.602C114.086 116.857 114.008 117.105 113.87 117.321C113.733 117.537 113.542 117.714 113.315 117.833C113.089 117.953 112.836 118.012 112.58 118.004C110.723 118.029 109.122 118.069 107.747 118.103C101.87 118.251 100.096 118.295 100.057 116.625C100.069 116.39 100.128 116.16 100.233 115.95C100.337 115.739 100.484 115.553 100.664 115.402C100.845 115.251 101.054 115.139 101.28 115.073C101.505 115.007 101.742 114.989 101.975 115.019C104.916 115.04 107.094 115.025 108.719 115.014C113.239 114.983 113.474 114.982 113.942 115.863ZM99.7013 145.907C99.5215 145.613 99.2436 145.391 98.9164 145.281C98.6407 145.179 87.7163 145.012 86.7856 145.35C86.5091 145.448 86.2703 145.629 86.1023 145.87C85.9343 146.111 85.8455 146.398 85.8485 146.691C85.8515 146.984 85.9459 147.27 86.1186 147.507C86.2914 147.744 86.5338 147.921 86.8122 148.015C87.7512 148.295 88.7426 148.357 89.7089 148.192C91.5252 148.286 93.3454 148.279 95.1608 148.169C95.7132 148.118 96.4966 148.13 97.1927 148.142H97.194C97.7179 148.151 98.1922 148.158 98.4808 148.138C98.8259 148.13 99.1573 148.001 99.4167 147.773C99.6761 147.545 99.8468 147.233 99.8989 146.892C99.951 146.551 99.881 146.202 99.7013 145.907ZM61.2396 156.983C61.057 156.496 61.0241 155.965 61.145 155.46C61.2658 154.954 61.5349 154.496 61.9177 154.144C62.3007 153.791 62.7799 153.562 63.2942 153.484C63.8084 153.406 64.3343 153.483 64.8043 153.705C65.2745 153.928 65.6674 154.285 65.933 154.733C66.1984 155.18 66.3244 155.697 66.2947 156.217C66.265 156.735 66.081 157.234 65.7662 157.649C65.4514 158.063 65.0202 158.373 64.5278 158.54C63.885 158.765 63.1796 158.728 62.5643 158.437C61.9489 158.145 61.473 157.623 61.2396 156.983ZM66.2815 165.485C66.3307 168.773 61.1462 169.038 61.1073 165.512C61.0673 161.899 66.4414 162.047 66.2815 165.485ZM66.0397 105.725C66.257 109.084 60.9485 109.379 60.8655 105.866C60.862 105.179 61.124 104.517 61.5966 104.018C62.0693 103.52 62.7162 103.223 63.4023 103.19C63.7434 103.178 64.0832 103.235 64.4019 103.357C64.7206 103.478 65.0116 103.663 65.2576 103.899C65.5036 104.136 65.6996 104.419 65.8339 104.733C65.9682 105.046 66.0382 105.384 66.0397 105.725ZM60.8501 115.98C60.7821 116.509 60.8777 117.046 61.1237 117.519C61.4131 118.074 61.8924 118.507 62.4742 118.739C63.0561 118.971 63.7018 118.986 64.294 118.782C64.798 118.608 65.2367 118.284 65.5513 117.854C65.8657 117.423 66.041 116.907 66.0535 116.374C66.066 115.841 65.9151 115.317 65.6212 114.872C65.3273 114.427 64.9043 114.083 64.409 113.886C63.9137 113.688 63.3699 113.647 62.8506 113.768C62.3313 113.888 61.8613 114.165 61.5036 114.56C61.146 114.956 60.9179 115.451 60.8501 115.98ZM61.1319 97.5998C59.7399 94.6611 63.8532 92.1991 65.6552 94.985C65.8404 95.2826 65.9639 95.6143 66.0183 95.9604C66.0728 96.3066 66.0571 96.6602 65.9721 97.0002C65.8871 97.3402 65.7346 97.6596 65.5238 97.9395C65.3128 98.2193 65.0479 98.4539 64.7445 98.6293C64.4411 98.8047 64.1055 98.9173 63.7577 98.9604C63.4099 99.0034 63.057 98.9762 62.72 98.8801C62.383 98.7841 62.0687 98.6212 61.7959 98.4013C61.5231 98.1814 61.2973 97.9088 61.1319 97.5998ZM58.4371 192.356C55.3735 192.504 52.3043 192.492 49.2419 192.321C49.0911 192.302 48.9465 192.248 48.8186 192.166C48.6908 192.084 48.5829 191.974 48.5027 191.845C48.4226 191.715 48.3722 191.57 48.3551 191.419C48.3381 191.267 48.355 191.115 48.4044 190.971C49.451 188.991 54.1301 182.985 55.7065 182.865C68.9506 181.848 109.677 182.25 109.903 182.259C122.783 182.826 132.59 182.849 144.173 182.876C154.714 182.9 166.725 182.929 183.86 183.374C186.218 183.435 187.567 183.655 188.946 184.743L188.969 184.761C189.252 184.985 191.201 186.534 191.421 186.741C192.593 187.848 193.622 188.779 194.486 189.561C196.636 191.503 197.772 192.53 197.575 193.073C197.353 193.681 195.453 193.679 191.423 193.676H191.419C191.084 193.675 190.736 193.675 190.372 193.675C190.372 193.651 95.6856 191.815 58.4371 192.356ZM103.084 187.521C102.106 187.521 102.074 187.535 102.227 188.501C102.248 188.558 102.265 188.617 102.278 188.676C102.284 188.83 102.29 188.97 102.295 189.099C102.338 190.18 102.348 190.432 102.073 190.595C101.701 190.809 101.316 190.065 101.231 189.809C100.901 188.811 100.87 188.228 100.852 187.888C100.832 187.498 100.828 187.425 100.411 187.408C99.9447 187.389 99.6108 187.374 99.3284 187.359C97.9612 187.294 97.805 187.286 89.7181 187.275C89.6882 187.275 89.6602 187.274 89.634 187.274C89.5353 187.272 89.4616 187.271 89.4 187.298C89.2196 187.376 89.1431 187.693 88.8417 188.943C88.7639 189.266 88.6712 189.65 88.5578 190.109C88.3528 190.939 87.338 189.77 87.91 187.785C88.0545 187.282 88.0456 187.283 86.9066 187.366H86.9059C86.2347 187.415 85.1716 187.492 83.5168 187.512C81.5146 187.535 80.093 187.526 79.0775 187.52H79.0768C76.5744 187.505 76.5374 187.504 76.35 188.046C76.0508 188.912 75.8068 189.514 75.6375 189.931C75.4172 190.474 75.3234 190.705 75.3996 190.8C75.4559 190.871 75.6054 190.867 75.8655 190.86L75.9288 190.859C83.9369 190.657 91.6856 190.799 98.4889 190.923H98.4898C104.108 191.027 109.082 191.118 113.025 190.994C113.333 190.984 113.309 190.88 113.21 190.455C113.159 190.233 113.088 189.926 113.033 189.499C112.962 188.957 112.94 188.575 112.924 188.306C112.892 187.754 112.888 187.674 112.55 187.654C110.578 187.528 107.253 187.525 104.577 187.523H104.574C104.047 187.523 103.545 187.522 103.084 187.521ZM181.942 192.186C182.302 192.223 182.718 192.213 182.531 191.902C182.274 191.476 182.08 191.122 181.919 190.828C181.618 190.276 181.431 189.934 181.148 189.717C180.687 189.363 179.969 189.342 178.082 189.286C176.719 189.246 174.746 189.189 171.818 188.975L171.658 188.962C171.536 188.953 171.424 188.945 171.32 188.937L171.309 188.936C170.595 188.879 170.317 188.858 170.257 188.961C170.221 189.027 170.271 189.143 170.354 189.332C170.476 189.612 170.666 190.051 170.749 190.723C170.754 190.758 170.761 190.796 170.769 190.835C170.804 191.017 170.844 191.229 170.618 191.326C170.133 191.536 169.532 190.565 169.157 189.96L169.094 189.858L169.05 189.788C168.901 189.554 168.815 189.357 168.746 189.2C168.625 188.922 168.556 188.768 168.299 188.749C164.452 188.385 160.59 188.219 156.726 188.252C156.002 188.246 156.006 188.256 156.248 188.935C156.407 189.377 156.668 190.107 156.894 191.305C156.955 191.628 157.014 191.628 158.298 191.614C158.641 191.61 159.072 191.605 159.613 191.605C159.613 191.58 181.918 192.183 181.942 192.186ZM53.3716 187.663C52.4163 186.968 62.0226 186.516 63.2249 186.535C63.6965 186.543 63.7855 186.378 64.4493 185.149L64.4504 185.147C64.6073 184.857 64.7963 184.508 65.0299 184.086C65.0911 184.005 65.1324 183.91 65.1509 183.811C65.1472 183.768 65.1328 183.727 65.1092 183.691C65.0856 183.655 65.0534 183.626 65.0156 183.606C64.7911 183.55 61.8012 183.654 61.4004 183.681C59.3744 183.821 58.0353 183.82 57.1296 183.82C55.6983 183.819 55.349 183.818 55.0803 184.373C55.0565 184.425 55.036 184.446 54.9528 184.534C54.6781 184.826 53.7199 185.844 49.7021 191.036C52.5495 191.247 53.6399 191.193 55.3116 191.11C56.6963 191.041 58.4798 190.953 61.9908 190.978C62.2045 190.978 62.2087 190.847 62.2184 190.545C62.2239 190.371 62.2313 190.14 62.2819 189.844C62.4014 189.144 62.6521 188.629 62.8234 188.278C63.0282 187.857 63.1194 187.67 62.737 187.677C62.5888 187.679 62.2173 187.699 61.7031 187.727C59.3551 187.853 54.0299 188.138 53.3716 187.663ZM183.367 189.622L183.281 189.621C182.865 189.617 182.752 189.616 182.898 189.906C182.957 190.026 183.014 190.14 183.068 190.249L183.204 190.525L183.395 190.912C184.025 192.192 184.031 192.204 184.264 192.221C188.081 192.46 191.908 192.505 195.729 192.356C195.575 192.044 195.072 191.619 194.361 191.019C193.837 190.577 193.2 190.04 192.509 189.384C191.228 188.165 190.355 187.264 189.71 186.599C188.735 185.594 188.282 185.127 187.73 184.907C187.249 184.718 186.693 184.717 185.653 184.714C185.342 184.714 184.987 184.713 184.578 184.706L183.962 184.697C180.748 184.65 179.905 184.638 179.842 184.852C179.821 184.928 179.898 185.033 180.002 185.176C180.05 185.242 180.105 185.314 180.157 185.396C180.552 186.007 180.855 186.493 181.096 186.88C181.949 188.248 182.031 188.379 182.612 188.388C183.491 188.403 188.796 188.53 188.872 188.539L189.077 188.564C190.357 188.717 191.025 188.797 191.392 189.277C191.776 189.777 190.612 189.748 187.923 189.684C186.732 189.655 185.24 189.619 183.451 189.619V189.622H183.367ZM154.643 188.587C154.825 189.116 155.264 190.316 155.79 191.563C155.194 191.584 141.438 191.476 141.558 191.04C141.692 190.558 141.495 189.85 141.319 189.22C141.09 188.403 140.898 187.714 141.507 187.812C142.505 187.904 143.506 187.938 144.506 187.915C148.675 188.1 151.087 188.123 152.499 188.136C154.014 188.15 154.379 188.154 154.529 188.335C154.576 188.392 154.602 188.468 154.635 188.568L154.643 188.587ZM127.556 187.664C127.267 187.663 127.101 187.663 127.019 187.746C126.908 187.858 126.953 188.123 127.058 188.746C127.126 189.158 127.223 189.728 127.317 190.513L127.325 190.578C127.342 190.72 127.352 190.813 127.402 190.875C127.501 190.994 127.748 190.991 128.477 190.982H128.478C128.933 190.976 129.575 190.968 130.484 190.986C133.14 191.036 135.141 191.107 136.69 191.161C138.8 191.236 140.072 191.281 141.022 191.203C140.254 190.147 140.033 189.284 139.881 188.691C139.736 188.127 139.654 187.804 139.225 187.79C138.678 187.766 138.286 187.747 137.962 187.73H137.959H137.958C137.696 187.717 137.48 187.707 137.264 187.697C136.223 187.655 135.181 187.655 129.127 187.656H129.125H127.625V187.664H127.556ZM125.895 190.973C126.305 190.973 126.303 190.965 125.941 189.478C125.849 189.106 125.736 188.64 125.6 188.06C125.502 187.638 125.474 187.641 124.953 187.694C124.682 187.723 124.275 187.764 123.653 187.767C120.018 187.781 117.785 187.716 116.417 187.675C114.848 187.629 114.416 187.616 114.308 187.797C114.267 187.866 114.273 187.962 114.281 188.096L114.282 188.109C114.382 188.92 114.418 189.738 114.391 190.555C114.391 190.765 114.391 190.875 114.446 190.933C114.507 190.997 114.636 190.997 114.907 190.996H115.011C115.424 190.989 125.093 190.966 125.895 190.966V190.973ZM73.7086 190.973H73.7652C74.1619 190.974 74.4939 190.974 74.5389 190.596C74.6909 189.312 74.9308 188.568 75.0694 188.138C75.2542 187.565 75.2584 187.552 74.6321 187.564C73.7377 187.583 72.843 187.57 71.9487 187.558C70.45 187.538 68.9522 187.518 67.4571 187.641C66.701 187.697 65.9419 187.706 65.1847 187.664C64.5801 187.634 64.4305 187.963 64.1232 188.639C63.8961 189.14 63.5828 189.829 62.9359 190.705C62.689 191.027 62.8327 191.026 66.6369 190.995C68.2515 190.982 70.5254 190.963 73.7086 190.962V190.973ZM155.451 184.233C155.342 184.233 155.243 184.23 155.155 184.228C154.764 184.219 154.591 184.213 154.685 184.461C154.928 185.101 155.096 185.574 155.221 185.924C155.467 186.617 155.542 186.828 155.685 186.896C155.748 186.926 155.823 186.928 155.932 186.931L155.945 186.932C157.738 186.985 159.118 187.024 160.198 187.055C162.944 187.133 163.772 187.156 164.597 187.221C164.953 187.247 165.309 187.283 165.818 187.334C166.275 187.379 166.857 187.436 167.673 187.511C167.831 187.525 167.898 187.417 167.833 187.23L167.813 187.17C167.625 186.62 166.893 184.476 166.483 184.454C164.392 184.337 162.628 184.342 160.917 184.345C159.141 184.349 157.422 184.352 155.451 184.222V184.233ZM147.696 184.233C147.696 184.23 147.696 184.227 147.695 184.224C147.684 184.182 147.51 184.186 144.841 184.239C143.791 184.261 142.356 184.289 140.394 184.326H140.342C140.109 184.325 140.006 184.324 140.096 184.567C140.361 185.293 140.484 185.751 140.563 186.042C140.696 186.539 140.699 186.548 141.051 186.567C148.385 186.95 150.043 186.942 152.336 186.931C152.749 186.929 153.183 186.927 153.675 186.927H153.691C153.837 186.927 153.933 186.927 153.984 186.878C154.083 186.783 154.003 186.5 153.764 185.657C153.683 185.373 153.586 185.026 153.47 184.602L153.461 184.568C153.439 184.487 153.422 184.424 153.386 184.373C153.249 184.183 152.842 184.187 150.896 184.204C150.109 184.212 149.071 184.222 147.696 184.222V184.233ZM169.426 184.505L169.425 184.5C169.425 184.498 169.424 184.497 169.424 184.495C169.41 184.464 169.319 184.466 168.712 184.476L168.627 184.477C168.182 184.484 168.21 184.539 168.572 185.266C168.776 185.675 169.087 186.297 169.478 187.244C169.649 187.652 169.785 187.659 170.964 187.727C171.207 187.74 171.495 187.757 171.836 187.78L172.423 187.82H172.424H172.425C174.672 187.973 175.339 188.018 176.008 188.049C176.29 188.061 176.571 188.073 176.973 188.087H176.974H176.977C177.435 188.103 178.046 188.126 178.988 188.165C179.2 188.173 179.384 188.188 179.543 188.202C179.897 188.231 180.116 188.249 180.185 188.157C180.295 188.007 180.013 187.567 179.277 186.418C179.041 186.048 178.757 185.605 178.424 185.074L178.401 185.037C178.373 184.991 178.349 184.95 178.32 184.915C178.084 184.629 177.51 184.62 172.371 184.548H172.361H172.36C171.512 184.535 170.54 184.522 169.426 184.505V184.516V184.511V184.505ZM88.0022 186.053C88.3358 186.039 88.3582 185.969 88.635 185.099C88.7094 184.864 88.8025 184.572 88.9247 184.208C88.9588 184.108 88.992 184.022 89.0201 183.949C89.1616 183.583 89.1762 183.545 88.5332 183.576C88.2877 183.587 87.4021 183.569 86.232 183.544H86.2273H86.2267C83.5272 183.487 79.3182 183.398 77.9562 183.576C77.7401 183.605 77.7283 183.654 77.5894 184.224L77.5893 184.225C77.5338 184.452 77.4582 184.763 77.3412 185.189C77.2909 185.372 77.2368 185.53 77.1904 185.665C77.0387 186.108 76.9712 186.304 77.3976 186.306C81.2522 186.318 82.3047 186.276 87.1266 186.081L88.0022 186.046V186.053ZM74.6925 186.371C75.6229 186.333 75.6918 186.33 75.8304 186.011C76.0774 185.44 76.2755 185.005 76.4269 184.672C76.7428 183.977 76.8546 183.731 76.78 183.643C76.739 183.594 76.642 183.593 76.4917 183.591C76.468 183.591 76.443 183.59 76.4167 183.59C74.9229 183.564 73.7416 183.528 72.7424 183.498H72.7417C70.3052 183.425 68.9517 183.385 66.7899 183.578C66.4824 183.606 66.4787 183.615 66.0222 184.692L66.022 184.693C65.9081 184.963 65.7658 185.298 65.5834 185.718L65.5492 185.796C65.3112 186.34 65.2762 186.42 65.4604 186.427C65.6685 186.434 66.1748 186.414 66.8543 186.39C68.7089 186.321 71.8543 186.205 73.7558 186.408L73.7547 186.415C74.1375 186.394 74.4431 186.381 74.6889 186.371H74.6925ZM102.479 183.59C101.838 183.59 101.842 183.613 101.91 184.041C101.928 184.153 101.95 184.292 101.967 184.468C101.99 184.723 102.008 184.941 102.024 185.127L102.024 185.129C102.111 186.178 102.112 186.183 102.444 186.196C102.742 186.206 102.981 186.215 103.181 186.223H103.199H103.202C103.664 186.241 103.907 186.25 104.15 186.256C104.421 186.261 104.692 186.263 105.264 186.267H105.266C106.228 186.272 108.04 186.282 112.128 186.327C112.193 186.327 112.255 186.329 112.314 186.33C112.655 186.34 112.873 186.346 112.898 185.987C112.933 185.503 112.967 185.129 112.993 184.84C113.076 183.917 113.081 183.86 112.796 183.846C112.576 183.835 112.382 183.819 112.157 183.8H112.156H112.155C111.17 183.718 109.577 183.586 102.48 183.583L102.479 183.59ZM132.409 184.233V184.231C132.409 184.23 132.408 184.228 132.406 184.227L132.405 184.226C133.72 184.226 134.763 184.221 135.59 184.217C138.235 184.204 138.686 184.202 138.815 184.404C138.84 184.446 138.854 184.496 138.868 184.557L138.874 184.579C138.92 184.77 138.971 184.96 139.02 185.141C139.24 185.963 139.417 186.624 138.936 186.527C138.056 186.353 134.329 186.349 131.078 186.345C129.501 186.344 128.036 186.342 127.062 186.322C126.665 186.313 126.661 186.296 126.387 185.149C126.342 184.961 126.29 184.74 126.228 184.485C126.158 184.202 126.315 184.204 126.954 184.214H126.955C127.091 184.217 127.247 184.219 127.429 184.219C128.786 184.219 129.773 184.218 130.492 184.217C132.182 184.215 132.383 184.214 132.406 184.227L132.409 184.233ZM100.189 186.129C100.564 186.182 100.729 186.207 100.736 185.755C100.689 185.102 100.769 184.447 100.973 183.825C101.029 183.689 100.943 183.591 100.785 183.59C92.9623 183.582 91.2231 183.534 90.7738 183.521C90.6377 183.516 90.62 183.516 90.5873 183.522C90.2997 183.566 90.2867 183.618 90.0047 184.742C89.9459 184.976 89.8756 185.257 89.7888 185.593C89.781 185.621 89.7702 185.647 89.7601 185.672C89.743 185.713 89.7281 185.749 89.7348 185.78C89.7775 185.977 90.6986 185.987 97.5043 186.05H97.5048C98.154 186.056 98.8569 186.064 99.6175 186.071L99.6257 186.078C99.8505 186.08 100.037 186.107 100.189 186.129ZM125.141 186.327C125.172 186.328 125.203 186.322 125.23 186.31C125.259 186.296 125.284 186.277 125.302 186.252C125.32 186.228 125.334 186.199 125.339 186.169C125.345 186.138 125.343 186.108 125.334 186.078C125.288 185.746 125.252 185.474 125.223 185.251C125.127 184.519 125.1 184.311 124.992 184.253C124.949 184.231 124.895 184.232 124.818 184.232C124.801 184.233 124.783 184.233 124.765 184.233C122.015 184.162 119.963 184.103 118.435 184.058H118.429C114.607 183.947 114.06 183.932 114.021 184.065C114.014 184.087 114.022 184.114 114.03 184.145C114.037 184.166 114.043 184.19 114.046 184.215C114.096 184.612 114.133 184.938 114.163 185.207C114.254 186.018 114.285 186.3 114.433 186.39C114.512 186.437 114.623 186.428 114.793 186.417H114.801C115.411 186.372 116.888 186.386 118.574 186.402C120.964 186.424 123.777 186.451 125.14 186.32L125.141 186.327ZM117.919 83.1742C118.195 83.197 118.452 83.3248 118.637 83.5313C118.822 83.7377 118.921 84.0071 118.914 84.2842C118.887 84.5579 118.766 84.8139 118.573 85.0097C118.38 85.2055 118.126 85.3293 117.852 85.3605C117.577 85.3314 117.323 85.1993 117.141 84.9909C116.959 84.7824 116.863 84.5129 116.871 84.2364C116.88 83.9598 116.993 83.6967 117.187 83.4997C117.381 83.3027 117.643 83.1865 117.919 83.1742ZM112.713 81.9574C115.09 81.9574 115.109 85.7499 112.531 85.7642C110.085 85.7775 110.12 81.9574 112.713 81.9574Z" fill="#063E0C"/>
<path d="M70.1087 30.6396C72.2541 31.1603 72.0911 33.6613 72.9265 45.457C73.3386 50.2493 73.4865 55.0608 73.3693 59.8695C72.9388 65.6741 73.6132 68.0849 71.434 68.4908C69.7377 68.8065 56.9631 69.2277 55.9217 69.2667C48.5058 69.5475 48.5796 69.773 46.1842 69.6264C43.9733 69.4901 29.6489 69.7894 28.8986 68.1341C28.2582 67.1083 27.9753 65.8996 28.094 64.6962C28.094 64.6716 26.291 42.8063 28.3492 32.1012C28.3655 31.9295 28.42 31.7637 28.5086 31.6157C28.5973 31.4678 28.718 31.3416 28.8617 31.2464C29.0319 31.1439 29.0534 30.5699 30.7477 30.4612C30.7816 30.4643 63.8736 29.1236 70.1087 30.6396ZM29.9575 65.9324C29.9524 66.029 29.9673 66.1257 30.0012 66.2164C30.0352 66.307 30.0874 66.3897 30.1548 66.4592C30.2221 66.5287 30.303 66.5836 30.3925 66.6205C30.4821 66.6573 30.5782 66.6754 30.675 66.6734C36.9173 67.1187 43.1799 67.209 49.4324 66.944C51.1216 66.8682 61.6822 66.8641 64.7603 66.5822C66.7078 66.4039 69.1339 66.4797 70.7104 66.4397C71.4812 66.4223 71.102 65.9201 71.0896 65.016C71.0732 63.827 70.2348 33.8693 70.2215 33.6356C70.1846 32.9622 70.037 32.6106 69.5552 32.5727C61.9354 31.8962 37.6162 32.4784 37.5916 32.4815C29.9154 33.2185 30.021 31.9864 29.9698 33.5823C29.9185 34.9374 29.9544 65.6341 29.9575 65.9324Z" fill="#063E0C"/>
<path d="M62.4481 58.3861C62.5538 59.5483 62.2396 60.7098 61.5627 61.6603C60.8858 62.6108 59.8908 63.2874 58.7581 63.5675C56.6056 63.8945 55.0947 62.3959 55.6605 61.2531C56.1167 60.3306 56.7142 60.6463 57.7833 60.9548C58.8227 61.2551 59.5996 60.1348 59.78 59.0637C60.1675 56.7759 57.73 52.7005 60.0629 49.7987C60.7292 48.9715 57.0976 47.269 58.7191 42.4013C59.0953 41.2738 58.7489 42.4105 59.6416 39.5661C59.9491 38.5811 58.6166 37.2086 56.8741 37.5766C55.8994 37.7816 55.2956 37.0959 55.6441 36.321C56.5492 34.3273 61.2048 35.0469 62.0155 38.4089C62.323 39.6973 61.9417 40.5491 61.0643 43.4478C60.0824 46.694 63.6063 48.91 63.714 49.0453C64.329 49.8202 64.2972 50.0416 63.5448 50.5572C62.1098 51.5391 61.0305 51.4018 62.0299 55.635C62.2906 56.5296 62.4312 57.4546 62.4481 58.3861Z" fill="#063E0C"/>
<path d="M38.3916 59.9995C37.8165 56.412 40.2109 52.6554 38.3444 51.4172C36.9555 50.4947 35.8588 50.2897 37.0365 49.0925C38.1609 48.3428 39.041 47.2802 39.5683 46.0359C40.1515 44.5087 39.5959 43.4078 38.8508 41.0216C37.5183 36.7412 42.1543 34.0691 44.6605 35.9161C45.3923 36.4563 45.3646 37.9333 43.9214 37.7017C43.5066 37.5885 43.0698 37.5837 42.6525 37.6876C42.2353 37.7915 41.8517 38.0007 41.5383 38.2951C39.4955 39.8326 44.6307 43.5811 41.0432 48.7501C40.5523 49.4564 40.2868 49.4676 40.5307 49.7997C43.5289 53.786 39.1777 58.4651 41.6049 60.6647C42.4393 61.4212 42.715 61.0686 43.9317 60.8C45.2888 60.5018 45.7131 62.645 43.9737 63.4056C41.3764 64.5485 38.7698 62.3662 38.3916 59.9995Z" fill="#063E0C"/>
<path d="M99.6305 67.509C97.968 66.8151 98.173 62.8197 98.0172 60.7358C97.9496 59.8328 97.7835 58.9831 97.7763 58.5003C97.5611 44.6423 96.8446 45.3198 103.295 44.7725C115.852 43.9585 128.444 43.833 141.015 44.3963C145.104 44.628 145.32 44.3102 145.887 49.0088C146.202 54.2774 146.245 59.5588 146.015 64.8317C145.951 65.6593 145.772 66.4738 145.483 67.2518C145.306 67.7643 144.828 67.8586 144.402 67.9067C142.299 68.1476 104.353 69.4801 99.6305 67.509ZM99.279 47.0326C99.3753 47.7573 99.8591 64.39 99.8878 65.8557C99.9052 66.7669 99.8458 66.7864 116.545 66.5917C145.787 66.2514 144.715 67.1749 144.672 66.318C144.255 58.118 144.439 58.8355 144.16 46.5006C144.144 45.8334 144.297 45.8385 143.489 45.8487C96.2255 46.435 99.2175 46.5693 99.279 47.0326Z" fill="#063E0C"/>
<path d="M111.786 59.538C111.946 59.2407 112.212 59.014 112.53 58.903C112.849 58.7919 113.198 58.8044 113.508 58.9381C113.818 59.0717 114.067 59.3168 114.205 59.6248C114.343 59.9329 114.361 60.2815 114.254 60.602C110.917 65.8817 102.979 64.0419 102.605 56.8607C102.491 55.2371 102.944 53.6241 103.886 52.2969C104.828 50.9697 106.202 50.0106 107.772 49.5832C108.856 49.329 109.991 49.4157 111.024 49.8315C112.056 50.2472 112.935 50.9717 113.54 51.9059C113.61 52.0688 113.641 52.2454 113.632 52.4225C113.623 52.5995 113.574 52.7721 113.489 52.9272C113.403 53.0822 113.283 53.2157 113.138 53.3175C112.993 53.4192 112.826 53.4864 112.651 53.5141C111.259 53.7304 111.582 52.6152 109.695 52.0391C109.273 51.9161 108.831 51.88 108.395 51.933C107.959 51.986 107.538 52.1271 107.159 52.3474C106.779 52.5679 106.447 52.8632 106.185 53.2154C105.923 53.5677 105.735 53.9695 105.632 54.3966C103.924 59.9562 108.751 63.3233 111.786 59.538Z" fill="#063E0C"/>
<path d="M122.322 62.2316C121.039 62.2193 121.349 60.6726 121.056 58.1265C121.006 57.695 120.995 57.697 120.554 57.6929C118.354 57.6694 116.557 57.8774 116.879 56.3697C116.903 56.1863 116.982 56.0144 117.105 55.8764C117.228 55.7385 117.39 55.641 117.569 55.5968C120.952 54.7194 121.041 55.7793 121.046 54.5646C121.057 52.1118 120.952 52.4839 121.302 51.2898C121.61 50.2432 123.25 50.48 123.376 51.9253C123.717 55.9504 122.802 54.8978 126.301 55.235C126.682 55.2922 127.057 55.3895 127.417 55.5251C128.122 56.015 127.976 57.5617 125.982 57.5597C125.291 57.5597 124.599 57.6376 123.907 57.6683C123.69 57.6776 123.641 57.7708 123.633 57.9758C123.554 60.0504 123.659 62.4459 122.322 62.2316Z" fill="#063E0C"/>
<path d="M130.279 56.4189C130.264 56.3075 130.271 56.194 130.3 56.0852C130.329 55.9766 130.38 55.8748 130.449 55.7859C130.517 55.6972 130.604 55.6232 130.702 55.5683C130.8 55.5135 130.909 55.4789 131.02 55.4667C131.917 55.1932 132.851 55.0652 133.788 55.0874C135.191 55.1489 133.89 53.5499 134.743 51.0407C135.003 50.2802 136.728 50.2033 136.793 51.9888C136.97 56.5378 136.367 54.2592 140.753 55.3601C141.204 55.4738 141.443 56.671 140.689 57.0841C139.576 57.6991 138.742 57.242 137.325 57.5372C136.461 57.7176 137.805 62.4572 135.487 62.1035C134.242 61.9139 134.727 57.9195 134.36 57.614C134.246 57.5197 134.01 57.573 133.828 57.5648C131.068 57.4295 130.267 57.6684 130.279 56.4189Z" fill="#063E0C"/>
<path d="M203.891 58.8053C173.233 58.8053 173.058 59.7042 172.351 55.2178C171.538 50.0589 171.781 52.5927 171.607 40.5602C171.664 39.1803 171.828 37.8068 172.097 36.4521C172.131 36.2545 172.217 36.0697 172.347 35.9173C172.478 35.7648 172.647 35.6504 172.836 35.5859C175.399 34.6634 218.393 33.3002 219.497 35.2928C220.791 37.6267 220.612 44.0053 220.753 45.3993C221.001 49.3116 220.864 53.2389 220.343 57.1243C220.135 58.5562 219.872 58.8042 203.891 58.8053ZM173.641 36.8702C172.961 36.8805 173.284 36.9912 173.326 38.2417C173.954 56.9777 173.493 56.87 174.346 56.9582C180.291 57.5732 188.733 56.7532 217.089 57.0894C219.027 57.1119 218.986 57.4113 219.02 56.8332C219.14 54.7831 218.743 36.7719 218.741 36.7432C218.673 36.0164 218.672 36.0062 217.956 36.0164C173.641 36.6734 175.848 36.8395 173.641 36.8733V36.8702Z" fill="#063E0C"/>
<path d="M189.977 40.1424C191.74 39.4485 193.248 41.1674 190.243 42.8176C183.718 46.3969 180.436 47.3143 181.456 47.7038C188.944 50.5625 189.056 49.9178 190.672 50.7942C190.926 50.9176 191.137 51.1141 191.278 51.3586C191.42 51.6029 191.485 51.8841 191.465 52.1658C191.446 52.4474 191.342 52.7168 191.169 52.9393C190.995 53.1617 190.758 53.3271 190.489 53.4141C188.315 54.2423 179.471 50.6907 177.799 49.4422C173.515 46.2422 184.79 42.1852 189.977 40.1424Z" fill="#063E0C"/>
<path d="M203.544 39.965C206.071 39.9292 213.766 45.0818 214.893 46.3836C215.116 46.624 215.262 46.9275 215.307 47.2529C215.353 47.5783 215.298 47.9099 215.149 48.203C214.363 50.0223 207.861 52.6105 206.051 53.1414C202.965 54.0455 202.279 54.2689 200.926 53.6211C200.458 53.3966 200.042 52.5572 201.054 51.6316C202.301 50.4908 203.763 50.7091 207.605 49.0968C211.775 47.3461 211.726 47.3748 211.016 46.9197C207.874 44.9066 204.935 43.0759 202.987 41.7947C201.948 41.113 201.948 39.9886 203.544 39.965Z" fill="#063E0C"/>
<path d="M198.951 37.8273C199.5 37.3353 200.02 38.0712 200.057 38.7498C200.144 40.3354 196.08 53.2843 194.68 55.2061C194.584 55.3344 194.451 55.4295 194.298 55.4782C194.145 55.5269 193.981 55.5269 193.829 55.4781C193.676 55.4293 193.542 55.3342 193.445 55.2058C193.349 55.0776 193.296 54.9226 193.292 54.7623C192.979 52.5545 197.292 39.3135 198.951 37.8273Z" fill="#063E0C"/>
<path d="M64.1053 150.376C48.6073 150.575 28.4353 151.401 27.8469 148.736C25.921 146.617 26.1321 131.942 26.1352 129.081C26.1816 127.802 26.3124 126.529 26.5267 125.269C26.8342 122.884 27.0854 122.795 46.9714 122.399C64.9273 122.044 67.9665 121.47 78.9944 122.537C80.6693 122.699 81.0362 122.586 81.4247 123.167C83.3527 126.045 83.3722 144.009 82.299 148.833C81.9721 150.303 79.0857 149.919 77.8003 150.136C76.108 150.423 64.4497 150.372 64.1053 150.376ZM80.5463 124.808C80.5289 124.043 80.6006 124.015 79.7755 124.025C61.8862 124.237 39.8476 124.47 28.3881 125.007C27.7506 125.038 28.0868 125.426 28.1022 126.448C28.1022 126.473 28.4671 141.23 28.5706 142.695C28.9806 148.478 27.8859 148.273 30.7723 148.383C39.8394 148.733 63.3519 147.86 80.536 148.507C81.2474 148.534 81.0916 149.225 80.5463 124.808Z" fill="#063E0C"/>
<path d="M67.9786 136.743C68.081 139.196 68.0383 141.653 67.8505 144.1C67.748 145.023 66.395 145.516 65.5678 145.161C64.5428 144.722 64.794 144.388 64.8022 139.852C64.8134 133.143 65 135.762 63.3805 137.669C63.2215 137.842 63.0284 137.98 62.8134 138.073C62.5983 138.168 62.3661 138.216 62.1315 138.215C61.8968 138.215 61.6648 138.165 61.4504 138.07C61.2359 137.975 61.0436 137.836 60.8856 137.662C60.1763 136.823 59.1749 135.453 59.054 135.392C58.8695 135.862 59.1503 141.76 59.1155 143.3C59.0868 144.573 58.359 145.079 57.5462 144.896C56.0025 144.546 56.0692 143.491 55.9513 142.014C55.9185 141.618 56.0312 141.029 56.0343 140.49C56.0548 136.586 55.8088 133.076 56.185 129.343C56.2977 128.216 57.7758 127.925 58.7475 129.181C59.9003 130.835 60.965 132.549 61.9373 134.314C62.2028 134.756 62.1423 134.535 64.2107 131.085C65.3844 129.122 65.6211 128.34 66.9485 128.585C68.402 128.853 67.9786 131.763 67.9786 136.743Z" fill="#063E0C"/>
<path d="M32.1975 129.352C32.4527 128.957 32.8125 129.11 33.0175 129.068C33.7411 128.926 34.1378 129.376 34.4115 129.921C34.6165 130.337 35.1208 135.311 35.1228 135.339C35.1669 135.865 35.0347 135.647 36.8366 135.834C39.1521 136.074 39.6656 136.28 39.5365 135.817C39.4152 135.091 39.373 134.354 39.4104 133.62C39.229 130.643 38.4233 128.757 40.9766 128.963C42.3563 129.074 42.6166 133.935 42.7622 135.331C42.8554 136.203 43.043 137.304 43.1076 138.604C43.3403 143.355 43.2265 142.367 42.8534 144.991C42.7967 145.226 42.6724 145.441 42.4956 145.607C42.3186 145.773 42.0971 145.884 41.8581 145.926C40.2478 146.189 40.2437 143.333 40.0264 141.614C39.7312 139.281 39.886 139.237 39.3089 139.353C38.7319 139.469 38.1568 139.364 35.8147 139.415C35.6097 139.415 35.3586 139.158 35.1997 139.415C34.9363 139.847 35.1403 143.674 34.7549 145.302C34.6684 145.568 34.496 145.796 34.2648 145.952C34.0337 146.109 33.757 146.184 33.4786 146.165C33.2001 146.147 32.9358 146.037 32.7271 145.852C32.5185 145.666 32.3776 145.416 32.3266 145.142C32.0704 143.82 31.0864 131.067 32.1975 129.352Z" fill="#063E0C"/>
<path d="M47.6912 136.331C47.762 130.883 47.8563 131.364 47.191 131.474C44.3907 131.942 43.2345 130.642 43.6568 129.424C44.0955 128.167 48.4251 128.36 50.6268 128.353C51.7201 128.28 52.8183 128.368 53.8853 128.617C54.5669 128.79 55.0528 129.735 54.036 130.89C53.5235 131.473 50.4013 131.122 50.4229 131.596C51.0286 145.261 51.5996 145.229 49.4819 145.434C48.0418 145.578 48.1269 144.141 47.9444 142.705C47.714 140.589 47.6293 138.459 47.6912 136.331Z" fill="#063E0C"/>
<path d="M73.6556 133.953C73.6556 137.327 73.8606 139.014 73.7714 141.311C73.7519 141.802 73.7294 141.583 75.9752 141.65C77.8007 141.703 79.0676 141.578 78.8944 143.321C78.6637 145.639 74.1455 144.933 71.9049 144.592C70.5878 144.387 70.9516 141.915 70.5601 134.557C70.3725 131.038 69.8508 128.251 71.6784 128.213C73.5275 128.176 73.6546 128.418 73.6556 133.953Z" fill="#063E0C"/>
<path d="M204.327 103.229C213.685 103.549 213.031 103.751 213.604 108.736C214.474 116.294 215.394 131.568 214.311 139.581C214.08 141.296 211.703 140.973 210.511 141.229C210.462 141.24 188.723 142.146 188.177 142.106C185.059 141.876 174.203 142.385 171.432 140.766C170.038 139.946 170.401 134.198 170.12 132.375C169.97 131.403 169.671 116.967 169.671 116.942C169.658 115.965 169.73 114.99 169.886 114.026C170.335 104.303 170.583 103.828 173.292 103.727C175.703 103.636 196.747 102.97 204.327 103.229ZM175.388 105.939C171.351 105.878 172.345 105.572 172.342 108.261C172.342 108.286 172.045 133.42 172.342 134.686C172.361 134.787 172.361 134.892 172.342 134.993C172.228 136.133 172.197 137.28 172.25 138.424C172.228 139.397 173.393 139.135 173.954 139.19C181.584 139.926 210.057 139.075 210.319 139.007C211.768 138.63 212.722 139.665 212.612 138.322C212.509 137.116 211.929 113.568 211.742 110.019C211.567 106.706 211.905 105.878 210.964 105.797C200.087 104.864 176.403 105.954 175.388 105.939Z" fill="#063E0C"/>
<path d="M204.761 114.808C205.129 115.578 203.415 118.627 201.599 116.902C198.852 114.293 195.783 117.184 197.322 119.754C198.258 121.317 200.693 120.931 203.506 123.505C207.289 126.967 204.889 134.595 198.432 134.828C195.262 134.943 193.778 133.13 192.729 131.504C191.916 130.244 194.321 128.143 195.524 129.327C196.401 130.19 195.745 130.241 197.838 130.974C198.691 131.272 200.881 130.366 201.257 128.233C201.247 127.641 201.061 127.065 200.723 126.578C200.385 126.091 199.91 125.716 199.358 125.499C196.228 124.22 193.926 123.552 193.091 120.143C192.65 118.474 192.871 116.7 193.708 115.191C194.544 113.682 195.932 112.555 197.58 112.045C200.275 111.225 203.549 112.27 204.761 114.808Z" fill="#063E0C"/>
<path d="M185.513 122.996C185.583 113.069 183.831 110.141 185.592 109.601C186.426 109.344 188.154 109.191 188.409 109.98C188.835 110.932 189.029 111.97 188.975 113.011C188.975 113.039 189.18 121.976 189.244 122.766C189.882 130.293 187.756 135.659 180.179 134.939C179.554 134.876 178.939 134.733 178.349 134.514C178.107 134.432 177.892 134.285 177.727 134.09C177.562 133.896 177.452 133.66 177.41 133.408C176.464 129.277 180.351 131.43 183.373 130.718C185.989 130.103 185.502 125.066 185.513 122.996Z" fill="#063E0C"/>
</svg>
