<svg width="332" height="332" viewBox="0 0 332 332" fill="none" xmlns="http://www.w3.org/2000/svg">
<path d="M166.1 15.6436H165.899C165.41 15.6436 165.014 16.0398 165.014 16.5286V33.1057C165.014 33.5944 165.41 33.9907 165.899 33.9907H166.1C166.589 33.9907 166.985 33.5944 166.985 33.1057V16.5286C166.985 16.0398 166.589 15.6436 166.1 15.6436Z" fill="#063E0C"/>
<path d="M90.8379 35.7586L90.818 35.77C90.3317 36.0497 90.1642 36.6706 90.4438 37.1569L98.593 51.3287C98.8726 51.815 99.4935 51.9826 99.9798 51.7029L99.9997 51.6915C100.486 51.4119 100.654 50.791 100.374 50.3047L92.2247 36.1328C91.9451 35.6465 91.3242 35.479 90.8379 35.7586Z" fill="#063E0C"/>
<path d="M241.211 35.7896L241.187 35.7758C240.703 35.4951 240.083 35.6601 239.802 36.1443L231.599 50.2956C231.318 50.7798 231.483 51.3999 231.968 51.6806L231.991 51.6944C232.476 51.9751 233.096 51.8101 233.376 51.3259L241.58 37.1746C241.86 36.6904 241.695 36.0703 241.211 35.7896Z" fill="#063E0C"/>
<path d="M284.418 140.683L271.881 147.933C271.916 147.841 272.007 147.75 272.156 147.658C272.435 147.484 272.502 147.14 272.658 146.933C272.999 146.479 273.327 146.019 273.644 145.551C273.841 145.26 274.102 145.026 274.311 144.739C276.019 142.384 277.088 139.271 277.548 136.384C277.915 134.084 278.156 131.551 278.018 129.194C277.797 125.452 277.333 122.205 276.627 119.452C273.848 108.617 268.611 98.9035 260.916 90.31C258.715 87.8521 256.058 85.4882 253.416 83.4934C250.581 81.3519 247.555 79.6438 244.339 78.369C241.629 77.2937 238.527 76.6471 235.636 76.842C234.592 76.9123 233.539 77.0223 232.478 77.1721C232.416 77.1813 232.368 77.1591 232.334 77.1056L232.297 77.0506C232.262 76.9971 232.216 76.9849 232.16 77.0139C231.929 77.1362 231.723 77.1714 231.543 77.1194L241.379 71.3919C247.538 67.8182 253.692 64.2399 259.843 60.657C265.754 57.2154 272.756 58.5522 278.644 61.5489C284.516 64.5387 289.709 69.0922 293.96 74.18C298.63 79.7699 302.342 85.9498 305.097 92.7197C307.935 99.6899 309.643 107.245 309.235 114.696C308.935 120.165 307.167 126.108 302.877 129.721C302.261 130.241 301.264 130.901 299.885 131.702C294.732 134.7 289.576 137.693 284.418 140.683ZM298.344 124.677C299.165 125.241 300.012 125.204 300.885 124.565C303.379 122.74 304.954 117.838 303.469 115.047C303.019 114.205 302.327 113.859 301.391 114.009C301.483 113.94 301.514 113.882 301.485 113.834C301.454 113.784 301.41 113.742 301.357 113.712C301.304 113.682 301.243 113.665 301.18 113.662C299.892 113.603 298.812 114.359 298.106 115.341C296.675 117.335 296.048 119.528 296.223 121.919C296.272 122.587 296.432 123.177 296.703 123.689C297.071 124.386 297.618 124.715 298.344 124.677ZM284.846 131.48C285.222 131.804 285.62 131.947 286.039 131.909C286.881 131.832 287.631 131.393 288.29 130.59C289.932 128.595 290.668 126.288 290.498 123.668C290.404 122.231 289.59 120.502 287.813 120.882C287.917 120.812 287.959 120.732 287.937 120.642C287.92 120.57 287.875 120.53 287.802 120.522C286.654 120.412 285.705 120.824 284.954 121.758C283.175 123.969 282.435 126.407 282.735 129.072C282.846 130.052 283.236 130.803 283.904 131.326C284.216 131.571 284.53 131.622 284.846 131.48Z" fill="#465A65"/>
<path d="M170.136 84.2727C169.829 84.2039 169.511 84.1534 169.18 84.1213C167.224 83.9318 165.244 83.7216 163.24 83.4908C163.088 83.474 162.937 83.4312 162.786 83.3624C162.702 83.3242 162.653 83.26 162.641 83.1698C162.631 83.0888 162.653 83.0215 162.71 82.968C162.797 82.887 162.9 82.8397 163.02 82.8259C165.425 82.5492 167.672 82.3031 169.758 82.0876C170.645 81.9959 171.126 81.4754 171.203 80.5262C171.435 77.6739 171.678 74.7804 171.932 71.8456C171.935 71.8059 171.948 71.7675 171.969 71.7337C171.99 71.6998 172.019 71.6714 172.053 71.6507C172.176 71.5758 172.276 71.5659 172.356 71.6209C172.553 71.76 172.662 71.9855 172.684 72.2973C172.944 75.9077 173.187 78.7485 173.413 80.8197C173.514 81.7391 174.238 82.0372 175.064 82.1197C177.127 82.3261 179.315 82.5592 181.628 82.819C181.686 82.8259 181.74 82.8497 181.785 82.8877C181.829 82.9256 181.862 82.9759 181.878 83.0323C181.944 83.2661 181.853 83.3991 181.605 83.4312C179.768 83.6651 177.547 83.9165 174.942 84.1855C173.969 84.2864 173.443 84.8268 173.365 85.8066C173.128 88.7536 172.882 91.5226 172.626 94.1134C172.611 94.2755 172.565 94.4237 172.489 94.5582C172.466 94.598 172.432 94.6305 172.392 94.6518C172.351 94.673 172.305 94.6821 172.259 94.678C172.214 94.6739 172.171 94.6567 172.135 94.6286C172.099 94.6004 172.072 94.5624 172.058 94.5193C171.94 94.1799 171.869 93.8559 171.845 93.5471C171.663 91.2696 171.488 88.9829 171.322 86.687C171.258 85.7813 171.251 84.5157 170.136 84.2727ZM175.112 83.5481C175.983 83.4885 176.919 83.422 177.753 83.2707C178.131 83.2019 178.131 83.1339 177.753 83.0666C176.922 82.9199 176.117 82.8205 175.339 82.7686C174.701 82.7258 174.22 82.6203 173.894 82.4522C173.277 82.1327 172.921 81.6474 172.828 80.9962C172.657 79.7826 172.519 78.2953 172.416 76.5344C172.414 76.5176 172.406 76.5092 172.39 76.5092H172.324C172.293 76.5077 172.276 76.5222 172.271 76.5527C172.082 77.7206 171.952 78.8822 171.884 80.0378C171.799 81.4961 171.281 82.5439 169.751 82.7113C168.669 82.8305 167.575 82.9489 166.47 83.0666C166.414 83.0728 166.386 83.1041 166.388 83.1607V83.2203C166.388 83.231 166.393 83.2363 166.404 83.2363C167.776 83.3357 168.971 83.4702 169.987 83.6398C171.345 83.8668 171.757 84.9078 171.851 86.1803C171.931 87.2518 172.02 88.2752 172.12 89.2504C172.137 89.42 172.173 89.5668 172.23 89.6906C172.322 89.8939 172.375 89.8847 172.39 89.6631C172.479 88.2492 172.608 86.8345 172.778 85.4191C172.925 84.1718 173.922 83.6307 175.112 83.5481Z" fill="#063E0C"/>
<path d="M177.752 83.2704C176.918 83.4217 175.982 83.4882 175.111 83.5479C173.921 83.6304 172.924 84.1715 172.777 85.4188C172.607 86.8342 172.478 88.2489 172.389 89.6628C172.374 89.8844 172.321 89.8936 172.229 89.6903C172.172 89.5665 172.136 89.4198 172.119 89.2501C172.019 88.2749 171.93 87.2515 171.851 86.18C171.757 84.9075 171.344 83.8666 169.987 83.6396C168.97 83.4699 167.775 83.3354 166.403 83.236C166.392 83.236 166.387 83.2307 166.387 83.22V83.1604C166.385 83.1038 166.413 83.0725 166.469 83.0664C167.574 82.9487 168.668 82.8302 169.75 82.711C171.28 82.5436 171.798 81.4958 171.883 80.0375C171.951 78.882 172.081 77.7203 172.27 76.5525C172.275 76.5219 172.292 76.5074 172.323 76.5089H172.389C172.405 76.5089 172.413 76.5173 172.415 76.5341C172.519 78.295 172.656 79.7823 172.827 80.9959C172.921 81.6471 173.276 82.1324 173.893 82.4519C174.219 82.62 174.701 82.7255 175.338 82.7683C176.116 82.8203 176.921 82.9196 177.752 83.0664C178.13 83.1336 178.13 83.2016 177.752 83.2704Z" fill="#F8F1F9"/>
<path d="M271.88 147.932C270.711 148.697 269.638 149.316 268.661 149.789C266.529 150.824 264.168 151.294 261.579 151.2C262.799 150.438 264.006 149.711 265.201 149.017C266.473 148.28 267.37 147.699 267.893 147.274C270.484 145.163 272.263 142.102 273.167 138.869C273.584 137.375 273.855 136.063 273.981 134.932C274.439 130.764 274.217 126.502 273.313 122.147C270.826 110.231 264.47 98.843 255.762 90.2541C251.211 85.7648 245.408 81.8189 239.258 80.2689C238.956 80.1925 238.268 80.0725 237.195 79.9089C234.466 79.4917 231.842 79.7599 229.323 80.7137C228.613 80.9828 227.748 81.423 226.73 82.0344C225.795 82.5969 224.856 83.1403 223.912 83.6646C223.726 83.767 223.689 83.728 223.802 83.5477C224.813 81.9457 226.063 80.5968 227.553 79.5008C227.957 79.2043 228.616 78.7977 229.53 78.2811C230.207 77.8974 230.878 77.5099 231.543 77.1186C231.723 77.1706 231.929 77.1354 232.16 77.0131C232.216 76.9841 232.262 76.9963 232.297 77.0498L232.334 77.1048C232.368 77.1583 232.416 77.1805 232.478 77.1713C233.539 77.0215 234.592 76.9115 235.636 76.8412C238.527 76.6463 241.629 77.2928 244.339 78.3682C247.555 79.643 250.581 81.3511 253.416 83.4926C256.058 85.4874 258.715 87.8513 260.916 90.3092C268.611 98.9027 273.848 108.617 276.627 119.451C277.333 122.204 277.797 125.451 278.018 129.193C278.156 131.55 277.915 134.084 277.548 136.383C277.087 139.27 276.019 142.384 274.311 144.738C274.102 145.025 273.841 145.259 273.644 145.55C273.327 146.018 272.999 146.479 272.658 146.933C272.502 147.139 272.435 147.483 272.156 147.657C272.007 147.749 271.916 147.841 271.88 147.932Z" fill="#273238"/>
<path d="M221.972 89.179C216.428 93.2939 210.738 97.2031 204.902 100.907C205.174 99.2728 205.782 97.612 206.725 95.9245C207.965 93.7035 209.615 91.9869 211.675 90.7748C212.6 90.2307 213.751 89.7629 215.128 89.3716C216.304 89.0369 217.678 88.871 219.251 88.8741C220.258 88.8756 221.165 88.9772 221.972 89.179Z" fill="white"/>
<path d="M257.587 131.332C258.247 134.486 258.529 137.767 258.433 141.178C258.361 143.739 257.953 146.245 257.208 148.693C257.12 148.985 256.961 149.192 256.734 149.312C250.853 152.46 245.295 155.761 240.058 159.215C237.759 160.788 235.547 162.459 233.423 164.23C231.799 165.556 230.478 167.147 229.458 169.003C229.073 169.705 228.697 170.412 228.33 171.124C226.551 174.582 224.802 178.064 223.082 181.572C223.099 181.682 223.009 181.878 222.814 182.159L222.28 181.935C219.739 180.715 217.27 180.591 214.874 181.563C212.721 182.437 211.379 183.909 210.524 186.073C209.587 188.444 209.619 190.747 210.621 192.981C211.288 194.472 212.135 195.819 213.159 197.024C213.486 197.407 213.43 197.475 212.991 197.225C210.986 196.087 208.757 195.7 206.305 196.065C203.158 196.536 200.975 198.324 199.757 201.428C198.746 204.001 199.292 206.979 200.713 209.361C200.857 209.601 200.804 209.659 200.555 209.533C196.199 207.344 191.317 208.316 189.086 212.938C187.792 215.619 188.073 218.052 189.93 220.236L191.074 221.486C188.503 223.563 185.536 225.534 182.174 227.399C179.272 229.008 176.257 229.547 173.128 229.013C172.974 228.987 172.7 228.92 172.305 228.811C172.015 228.73 171.737 228.675 171.471 228.646C172.018 228.221 172.58 227.807 173.156 227.404C173.848 226.919 174.406 226.501 174.83 226.149C179.998 221.853 184.634 217.051 188.738 211.744C190.305 209.718 191.735 207.439 193.03 204.906C193.043 204.882 193.046 204.854 193.039 204.827C193.032 204.801 193.016 204.777 192.993 204.762L192.941 204.728C192.907 204.706 192.878 204.712 192.853 204.746C192.285 205.548 191.723 206.294 191.168 206.981C186.826 212.369 182.185 217.207 176.822 221.596C174.37 223.603 171.917 225.26 169.462 226.567C168.018 227.335 166.36 227.966 164.489 228.458C163.104 228.824 161.573 228.905 159.894 228.704C159.397 228.644 158.884 228.519 158.353 228.33C158.061 228.226 157.89 228.277 157.84 228.483C157.673 228.196 157.465 228.125 157.214 228.27C157.377 228.114 157.582 227.994 157.828 227.908C157.871 227.893 157.893 227.862 157.893 227.816C157.893 227.79 157.903 227.769 157.925 227.752C165.709 221.965 172.223 214.461 177.019 205.968C177.774 204.632 178.5 203.286 179.197 201.93C179.349 201.634 179.484 201.346 179.603 201.068C179.609 201.054 179.608 201.043 179.599 201.034L179.548 200.986C179.515 200.952 179.486 200.957 179.461 200.999C178.974 201.863 178.459 202.708 177.918 203.533C176.264 206.049 174.272 208.639 171.941 211.303C168.936 214.74 165.725 217.946 162.309 220.924C160.153 222.801 158.069 224.329 156.056 225.507C152.527 227.573 147.956 228.477 143.939 227.303C143.824 227.269 143.712 227.228 143.601 227.179C143.331 227.06 143.207 227.112 143.23 227.337C143.03 226.949 142.849 226.781 142.689 226.833C143.958 226.339 144.771 225.969 145.128 225.723C147.43 224.138 149.557 222.326 151.507 220.289C156.489 215.083 160.554 209.436 163.703 203.35C164.542 201.728 165.418 199.895 166.33 197.851C166.335 197.844 166.332 197.838 166.323 197.833L166.271 197.806C166.226 197.784 166.192 197.795 166.167 197.838C162.534 204.366 158.077 210.194 152.796 215.323C149.43 218.59 145.736 221.488 141.721 223.334C139.545 224.333 137.347 224.78 135.127 224.673C132.966 224.569 131.032 223.746 129.326 222.206C129.248 222.135 129.167 222.129 129.081 222.187C129.021 222.226 128.992 222.304 128.994 222.421L128.836 221.834C128.846 221.772 128.865 221.709 128.891 221.646C128.911 221.6 128.941 221.563 128.982 221.534C129.991 220.817 131.009 220.112 132.036 219.418C132.827 218.883 133.763 218.109 134.845 217.097C137.566 214.557 140.18 211.919 142.687 209.182C145.71 206.278 148.131 203.139 149.948 199.766C152.071 195.824 153.928 191.446 155.517 186.633C156.968 182.238 158.078 178.436 158.849 175.226C159.226 173.658 159.577 172.148 159.901 170.698C160.503 168.01 160.973 165.191 161.311 162.239C161.316 162.196 161.336 162.157 161.368 162.127C161.4 162.098 161.442 162.081 161.485 162.079C167.464 161.798 173.169 160.589 178.601 158.454C180.766 157.603 182.843 156.539 184.833 155.265C185.072 155.112 185.319 155.109 185.574 155.255C187.755 156.516 189.932 157.776 192.104 159.034C194.477 160.407 197.487 161.639 200.216 161.737C204.533 162.769 209.804 162.132 212.941 158.768C214.564 157.028 215.337 154.659 213.514 152.681C212.731 151.831 212.005 151.168 211.336 150.693C209.314 149.253 207.177 147.72 204.927 146.093C204.357 145.681 203.793 145.291 203.277 144.823C200.145 141.98 196.951 139.082 193.406 136.727C190.35 134.696 186.977 133.711 183.286 133.772C179.748 133.831 176.202 133.99 172.647 134.246C166.146 134.714 159.58 135.16 152.949 135.585C151.956 135.648 150.893 135.736 149.76 135.849C148.448 135.98 147.4 136.155 146.614 136.372C145.235 136.752 143.825 137.345 142.384 138.149C140.056 139.448 137.982 140.717 136.161 141.957C132.545 144.418 128.869 146.861 125.133 149.287C129.754 142.785 134.092 136.991 138.149 131.905C139.184 130.609 140.558 129.078 142.272 127.311C144.997 124.498 148.187 122.382 151.842 120.962C153.86 120.178 155.827 119.504 157.744 118.942C161.426 117.863 165.139 116.776 168.884 115.681C175.038 113.885 181.123 111.813 187.14 109.466C190.749 108.058 194.401 106.384 197.989 104.797C199.987 103.912 202.291 102.615 204.902 100.906C210.738 97.2028 216.428 93.2936 221.972 89.1787C223.363 89.3178 224.788 89.6678 226.246 90.2288C232.308 92.556 237.602 96.6212 241.977 101.367C249.633 109.67 255.25 120.175 257.587 131.332Z" fill="#B26668"/>
<path d="M51.3303 98.6069L37.1687 90.4307C36.6829 90.1502 36.0617 90.3167 35.7812 90.8025L35.7697 90.8223C35.4893 91.3082 35.6557 91.9294 36.1415 92.2098L50.3031 100.386C50.7889 100.667 51.4101 100.5 51.6906 100.014L51.7021 99.9944C51.9825 99.5086 51.8161 98.8874 51.3303 98.6069Z" fill="#063E0C"/>
<path d="M103.723 103.202C102.303 103.058 100.906 102.906 99.5322 102.746C99.4874 102.74 99.4448 102.724 99.4077 102.699C99.3706 102.674 99.3402 102.64 99.3189 102.601C99.2364 102.448 99.2463 102.33 99.3487 102.246C99.4007 102.203 99.4596 102.177 99.5253 102.168C100.481 102.028 101.408 101.907 102.364 101.849C102.902 101.817 103.448 101.748 104.003 101.643C104.15 101.615 104.285 101.54 104.386 101.43C104.488 101.319 104.551 101.178 104.567 101.028C104.766 99.1285 104.944 97.2461 105.101 95.3813C105.118 95.1734 105.229 95.0786 105.434 95.097C105.519 95.1046 105.58 95.1474 105.615 95.2254C105.678 95.366 105.717 95.5127 105.732 95.6656C105.902 97.4203 106.048 99.0994 106.17 100.703C106.217 101.33 106.565 101.665 107.213 101.709C108.564 101.801 109.954 101.957 111.381 102.177C111.424 102.184 111.464 102.202 111.497 102.229C111.53 102.256 111.555 102.291 111.57 102.331C111.585 102.371 111.589 102.414 111.582 102.456C111.575 102.498 111.556 102.537 111.528 102.569C111.432 102.684 111.309 102.75 111.159 102.766C109.719 102.927 108.329 103.083 106.988 103.234C106.788 103.256 106.601 103.347 106.459 103.491C106.318 103.635 106.23 103.824 106.211 104.025L105.693 109.592C105.69 109.628 105.679 109.663 105.66 109.694C105.64 109.725 105.614 109.75 105.583 109.769C105.461 109.841 105.358 109.839 105.276 109.764C105.21 109.703 105.171 109.627 105.159 109.537C104.954 107.97 104.785 106.147 104.652 104.066C104.618 103.521 104.265 103.257 103.723 103.202ZM104.764 103.06C105.372 103.702 105.159 104.459 105.296 105.231C105.379 105.688 105.442 105.685 105.487 105.222C105.599 104.037 105.45 102.888 106.977 102.636C107.194 102.601 107.406 102.557 107.612 102.505C107.763 102.467 107.765 102.426 107.617 102.381C106.885 102.163 106.282 102.317 105.821 101.533C105.581 101.125 105.571 100.545 105.542 100.077C105.505 99.4976 105.435 99.4931 105.331 100.063C105.282 100.335 105.247 100.61 105.225 100.889C105.17 101.622 104.59 102.17 103.854 102.239C103.558 102.267 103.266 102.317 102.978 102.39C102.728 102.455 102.731 102.499 102.987 102.523C103.586 102.578 104.32 102.594 104.764 103.06Z" fill="#063E0C"/>
<path d="M104.763 103.06C104.318 102.594 103.584 102.578 102.986 102.523C102.729 102.499 102.726 102.454 102.977 102.39C103.264 102.317 103.556 102.266 103.853 102.239C104.589 102.17 105.169 101.622 105.224 100.888C105.245 100.61 105.28 100.335 105.329 100.063C105.433 99.4927 105.503 99.4973 105.54 100.077C105.57 100.544 105.579 101.124 105.82 101.533C106.281 102.317 106.884 102.163 107.615 102.381C107.763 102.425 107.762 102.467 107.611 102.505C107.404 102.557 107.192 102.6 106.975 102.635C105.448 102.888 105.597 104.036 105.485 105.222C105.441 105.685 105.377 105.688 105.295 105.231C105.157 104.458 105.37 103.702 104.763 103.06Z" fill="#F8F1F9"/>
<path d="M301.39 114.008C300.235 114.456 299.324 115.281 298.659 116.484C297.382 118.791 296.431 122.464 298.343 124.676C297.617 124.714 297.07 124.385 296.701 123.688C296.431 123.176 296.271 122.586 296.222 121.918C296.046 119.527 296.674 117.335 298.105 115.34C298.811 114.359 299.891 113.602 301.179 113.661C301.242 113.664 301.303 113.682 301.356 113.712C301.409 113.741 301.453 113.783 301.484 113.833C301.513 113.881 301.482 113.939 301.39 114.008Z" fill="#273238"/>
<path d="M298.345 124.677C296.432 122.464 297.384 118.791 298.661 116.485C299.326 115.282 300.236 114.456 301.392 114.009C302.327 113.859 303.02 114.205 303.469 115.047C304.955 117.838 303.38 122.74 300.885 124.565C300.012 125.204 299.165 125.241 298.345 124.677Z" fill="#063E0C"/>
<path d="M287.813 120.882C284.651 122.171 283.482 126.63 283.902 129.604C283.989 130.234 284.304 130.859 284.846 131.48C284.53 131.622 284.216 131.571 283.904 131.326C283.236 130.803 282.846 130.052 282.735 129.072C282.435 126.406 283.175 123.968 284.954 121.758C285.705 120.824 286.654 120.412 287.802 120.522C287.875 120.53 287.92 120.57 287.937 120.642C287.958 120.732 287.917 120.812 287.813 120.882Z" fill="#273238"/>
<path d="M284.845 131.479C284.303 130.858 283.988 130.233 283.901 129.603C283.481 126.63 284.65 122.17 287.812 120.882C289.589 120.501 290.403 122.23 290.497 123.667C290.667 126.287 289.931 128.595 288.289 130.589C287.63 131.392 286.88 131.831 286.037 131.908C285.619 131.946 285.221 131.803 284.845 131.479Z" fill="#063E0C"/>
<path d="M273.314 122.147C274.217 126.502 274.439 130.764 273.981 134.932C273.855 136.063 273.584 137.376 273.167 138.869C272.264 142.102 270.484 145.163 267.893 147.274C267.371 147.699 266.473 148.28 265.202 149.017C264.006 149.711 262.799 150.439 261.579 151.2L253.884 155.611C253.816 155.651 253.741 155.666 253.662 155.657C253.402 155.629 253.161 155.699 252.94 155.866C251.842 156.693 250.75 157.384 249.663 157.941C248.347 158.616 246.938 159.031 245.435 159.186C244.469 159.283 242.995 159.344 241.012 159.367C240.95 159.367 240.888 159.374 240.827 159.387C240.755 159.403 240.703 159.375 240.671 159.305C240.66 159.28 240.642 159.259 240.619 159.244C240.596 159.229 240.57 159.221 240.542 159.22L240.059 159.215C245.295 155.761 250.854 152.46 256.734 149.313C256.962 149.192 257.12 148.986 257.209 148.694C257.953 146.245 258.361 143.74 258.433 141.178C258.53 137.768 258.248 134.486 257.587 131.332C259.622 130.256 261.607 129.135 263.542 127.969C264.301 127.513 265.082 127.141 265.839 126.669C266.75 126.097 267.772 125.505 268.905 124.892C269.519 124.559 270.17 124.175 270.858 123.741C271.459 123.36 272.1 122.988 272.782 122.624C272.896 122.563 273.01 122.555 273.123 122.599C273.195 122.63 273.249 122.61 273.284 122.54C273.333 122.446 273.343 122.316 273.314 122.147Z" fill="white"/>
<path d="M76.0504 135.689C77.9565 135.471 79.8886 135.268 81.8467 135.082C82.9747 134.974 83.6672 134.667 83.7726 133.465C84.0447 130.382 84.3245 127.397 84.6118 124.509C84.616 124.468 84.6293 124.429 84.6507 124.394C84.672 124.359 84.701 124.329 84.7353 124.306C84.7696 124.284 84.8085 124.269 84.849 124.264C84.8896 124.259 84.9307 124.263 84.9695 124.276C85.101 124.318 85.1736 124.412 85.1873 124.555C85.4946 127.764 85.775 130.75 86.0288 133.513C86.1388 134.717 86.8886 134.933 87.9868 135.054C90.2155 135.299 92.4059 135.542 94.5581 135.785C94.6347 135.794 94.7047 135.833 94.7529 135.893C94.801 135.954 94.8233 136.031 94.8149 136.109C94.7935 136.303 94.6811 136.411 94.4778 136.434C92.156 136.705 89.8616 136.967 87.5948 137.221C86.1434 137.381 86.0609 138.463 85.9325 139.83C85.6833 142.461 85.4472 145.051 85.224 147.603C85.221 147.651 85.2043 147.697 85.1759 147.738C85.0658 147.897 84.9603 147.965 84.8594 147.942C84.6867 147.901 84.5927 147.792 84.5774 147.616C84.3206 144.764 84.0577 141.78 83.7887 138.663C83.7222 137.881 83.204 137.31 82.3832 137.221C80.0476 136.969 77.6837 136.714 75.2915 136.457C75.2373 136.451 75.1853 136.432 75.1402 136.4C75.0072 136.302 74.9583 136.184 74.9934 136.047C75.0255 135.918 75.1012 135.842 75.2204 135.818C75.4711 135.766 75.7478 135.723 76.0504 135.689ZM81.7091 136.469C82.2823 136.525 82.6553 136.586 82.828 136.652C83.9492 137.076 84.4078 137.87 84.4743 139.034C84.5369 140.15 84.6286 141.252 84.7494 142.341C84.7891 142.691 84.8602 143.028 84.9626 143.352C85.0161 143.523 85.0467 143.519 85.0543 143.34C85.1231 141.789 85.2255 140.198 85.3616 138.567C85.467 137.296 86.4621 136.62 87.7002 136.508C88.7672 136.41 89.747 136.295 90.6396 136.164C90.6779 136.158 90.6962 136.136 90.6947 136.1V136.038C90.6947 136.028 90.6901 136.024 90.6809 136.024C89.8876 135.923 89.082 135.843 88.2643 135.783C86.6341 135.659 85.5152 135.146 85.3593 133.403C85.2462 132.127 85.1667 130.863 85.1208 129.611C85.1162 129.493 85.1002 129.377 85.0727 129.262C84.9794 128.874 84.9068 128.879 84.8549 129.276C84.7081 130.407 84.5912 131.635 84.5041 132.958C84.4032 134.511 83.7749 135.607 82.1379 135.719C81.1474 135.788 80.2685 135.881 79.5011 135.999C78.7949 136.109 78.7972 136.196 79.508 136.26C80.283 136.332 81.0167 136.401 81.7091 136.469Z" fill="#063E0C"/>
<path d="M81.7086 136.469C81.0161 136.401 80.2824 136.332 79.5075 136.26C78.7967 136.196 78.7944 136.109 79.5006 135.999C80.2679 135.881 81.1468 135.788 82.1373 135.719C83.7744 135.607 84.4026 134.511 84.5035 132.958C84.5906 131.635 84.7076 130.407 84.8543 129.276C84.9063 128.879 84.9789 128.874 85.0721 129.262C85.0996 129.377 85.1157 129.493 85.1203 129.611C85.1661 130.863 85.2456 132.127 85.3587 133.403C85.5146 135.146 86.6335 135.659 88.2637 135.783C89.0815 135.843 89.887 135.923 90.6804 136.024C90.6895 136.024 90.6941 136.029 90.6941 136.038V136.1C90.6956 136.136 90.6773 136.158 90.6391 136.164C89.7464 136.295 88.7666 136.41 87.6997 136.508C86.4616 136.62 85.4665 137.296 85.361 138.567C85.225 140.198 85.1226 141.789 85.0538 143.34C85.0461 143.519 85.0156 143.523 84.9621 143.352C84.8597 143.028 84.7886 142.691 84.7488 142.341C84.6281 141.252 84.5364 140.15 84.4737 139.034C84.4072 137.87 83.9487 137.076 82.8275 136.652C82.6547 136.586 82.2818 136.525 81.7086 136.469Z" fill="#F8F1F9"/>
<path d="M200.216 161.738C199.916 161.623 199.62 161.484 199.326 161.32C199.027 161.155 198.728 161.013 198.43 160.894C194.071 159.154 190.03 156.859 186.308 154.006C184.629 152.719 183.272 151.159 182.236 149.327C182.032 148.966 181.94 148.993 181.958 149.407C182.027 150.872 182.759 152.596 183.506 153.802C183.521 153.827 183.526 153.857 183.52 153.886C183.514 153.916 183.496 153.941 183.472 153.958C179.005 156.98 174.009 158.73 168.593 159.69C164.817 160.362 160.679 160.289 157.402 158.071C156.234 157.283 155.109 156.47 154.027 155.634C154.008 155.62 153.985 155.611 153.961 155.61C153.937 155.608 153.913 155.614 153.892 155.626C153.871 155.638 153.854 155.656 153.843 155.677C153.832 155.698 153.827 155.723 153.83 155.747C153.836 155.802 153.855 155.856 153.887 155.909C154.69 157.277 155.514 158.36 156.361 159.158C157.063 159.819 157.794 160.455 158.556 161.068C158.996 161.424 159.165 161.974 159.186 162.513C159.226 163.517 159.15 164.643 158.959 165.892C158.104 171.473 156.623 176.973 154.708 182.268C154.578 182.628 154.37 182.945 154.082 183.217C149.625 187.436 144.108 190.001 137.968 189.394C137.854 189.383 137.743 189.394 137.636 189.426C137.463 189.476 137.462 189.53 137.631 189.589C138.145 189.764 138.669 189.939 139.204 190.111C141.989 191.013 144.863 191.251 147.825 190.824C149.367 190.603 150.837 190.113 152.234 189.355C152.25 189.346 152.268 189.341 152.286 189.339C152.304 189.337 152.322 189.339 152.339 189.344C152.357 189.349 152.373 189.358 152.387 189.37C152.402 189.381 152.413 189.396 152.422 189.412C152.459 189.479 152.464 189.55 152.438 189.625C151.917 191.166 151.366 192.696 150.785 194.215C148.797 199.419 146.167 204.273 142.898 208.779C142.808 208.903 142.737 209.038 142.687 209.183C140.18 211.919 137.566 214.557 134.845 217.098C133.763 218.11 132.827 218.883 132.037 219.418C131.01 220.112 129.992 220.818 128.983 221.534C128.941 221.563 128.911 221.601 128.891 221.647C128.865 221.709 128.847 221.772 128.836 221.835L128.715 221.858C128.653 221.868 128.598 221.892 128.547 221.929L120.171 227.97C120.176 227.84 120.182 227.762 120.19 227.734C120.575 226.285 120.829 224.812 120.951 223.316C121.27 219.415 121.048 215.542 120.284 211.696C119.623 208.335 118.606 204.944 117.232 201.525C114.138 193.824 109.785 187.003 104.172 181.062C99.77 176.4 94.5951 172.525 88.6315 170.311C88.6133 170.304 88.5976 170.292 88.5861 170.276C88.5746 170.26 88.5678 170.242 88.5666 170.223C88.5654 170.203 88.5698 170.184 88.5793 170.167C88.5887 170.15 88.6029 170.136 88.62 170.127C90.5154 169.109 92.5361 167.996 94.6822 166.789C102.762 162.241 111.466 157.29 120.795 151.934C121.462 151.551 122.187 151.114 122.971 150.622C123.705 150.162 124.425 149.717 125.133 149.288C128.869 146.862 132.545 144.419 136.162 141.958C137.982 140.718 140.056 139.448 142.384 138.149C143.826 137.345 145.236 136.753 146.615 136.372C147.4 136.155 148.449 135.981 149.76 135.85C150.893 135.736 151.956 135.648 152.95 135.586C159.58 135.161 166.146 134.715 172.647 134.247C176.203 133.99 179.749 133.832 183.286 133.772C186.977 133.711 190.351 134.696 193.406 136.728C196.951 139.082 200.145 141.981 203.277 144.824C203.793 145.291 204.357 145.681 204.928 146.094C207.178 147.72 209.314 149.253 211.336 150.693C212.006 151.169 212.732 151.831 213.514 152.681C215.337 154.66 214.564 157.028 212.941 158.769C209.805 162.132 204.533 162.769 200.216 161.738Z" fill="#FFBDA7"/>
<path d="M200.215 161.738C197.486 161.639 194.476 160.408 192.103 159.035C189.931 157.777 187.754 156.517 185.573 155.256C185.318 155.11 185.071 155.113 184.832 155.265C182.842 156.54 180.765 157.603 178.6 158.455C173.168 160.59 167.463 161.798 161.484 162.08C161.441 162.082 161.399 162.099 161.367 162.128C161.335 162.158 161.315 162.197 161.31 162.24C160.972 165.192 160.502 168.011 159.9 170.698C159.576 172.149 159.225 173.658 158.848 175.227C158.077 178.437 156.967 182.239 155.516 186.634C153.927 191.447 152.07 195.825 149.947 199.767C148.13 203.14 145.709 206.279 142.686 209.183C142.736 209.038 142.806 208.904 142.897 208.78C146.166 204.274 148.795 199.419 150.784 194.216C151.365 192.696 151.916 191.166 152.437 189.626C152.463 189.551 152.458 189.48 152.421 189.412C152.412 189.396 152.4 189.382 152.386 189.37C152.372 189.359 152.356 189.35 152.338 189.345C152.321 189.339 152.302 189.337 152.284 189.339C152.266 189.341 152.249 189.346 152.233 189.355C150.836 190.113 149.366 190.603 147.824 190.825C144.862 191.251 141.988 191.014 139.203 190.112C138.668 189.939 138.144 189.765 137.63 189.589C137.46 189.531 137.462 189.477 137.635 189.426C137.742 189.394 137.852 189.383 137.967 189.394C144.107 190.002 149.624 187.436 154.081 183.217C154.368 182.945 154.577 182.629 154.707 182.268C156.621 176.974 158.103 171.473 158.958 165.893C159.149 164.644 159.225 163.517 159.185 162.513C159.164 161.974 158.995 161.424 158.554 161.069C157.793 160.456 157.062 159.819 156.36 159.159C155.513 158.361 154.689 157.278 153.886 155.91C153.854 155.856 153.835 155.802 153.829 155.747C153.826 155.723 153.831 155.699 153.842 155.677C153.853 155.656 153.87 155.638 153.891 155.626C153.912 155.614 153.935 155.609 153.96 155.61C153.984 155.612 154.007 155.62 154.026 155.635C155.108 156.471 156.233 157.283 157.401 158.072C160.677 160.289 164.816 160.362 168.592 159.691C174.008 158.73 179.004 156.98 183.47 153.959C183.495 153.942 183.512 153.916 183.519 153.887C183.525 153.858 183.52 153.828 183.505 153.803C182.757 152.597 182.026 150.872 181.957 149.407C181.939 148.993 182.031 148.966 182.234 149.327C183.271 151.16 184.628 152.72 186.307 154.007C190.029 156.859 194.069 159.155 198.429 160.894C198.727 161.014 199.026 161.156 199.325 161.321C199.619 161.484 199.915 161.623 200.215 161.738Z" fill="#F0997B"/>
<path d="M233.423 164.229L239.645 167.802C238.825 167.719 238.038 167.663 237.286 167.632C236.351 167.594 235.562 167.669 234.92 167.857C231.329 168.905 228.248 172.268 228.397 176.17C228.527 179.619 230.053 182.386 232.976 184.473C233.356 184.745 233.779 184.972 234.243 185.154C234.257 185.159 234.269 185.168 234.278 185.18C234.287 185.192 234.292 185.206 234.294 185.221C234.295 185.235 234.293 185.25 234.286 185.263C234.28 185.277 234.27 185.288 234.257 185.296C234.23 185.313 234.192 185.326 234.145 185.335C230.362 184.54 226.674 183.286 223.082 181.572C224.802 178.064 226.551 174.582 228.33 171.124C228.697 170.412 229.073 169.705 229.458 169.003C230.478 167.147 231.799 165.556 233.423 164.229Z" fill="#F0997B"/>
<path d="M33.0915 165.012H16.5465C16.0527 165.012 15.6523 165.412 15.6523 165.906V166.103C15.6523 166.597 16.0527 166.997 16.5465 166.997H33.0915C33.5854 166.997 33.9857 166.597 33.9857 166.103V165.906C33.9857 165.412 33.5854 165.012 33.0915 165.012Z" fill="#063E0C"/>
<path d="M315.455 165.014H298.919C298.42 165.014 298.016 165.418 298.016 165.917V166.091C298.016 166.59 298.42 166.995 298.919 166.995H315.455C315.954 166.995 316.358 166.59 316.358 166.091V165.917C316.358 165.418 315.954 165.014 315.455 165.014Z" fill="#063E0C"/>
<path d="M239.644 167.802C240.867 168.392 241.67 168.827 242.054 169.105C243.624 170.242 244.544 171.734 244.815 173.58C245.263 176.642 244.859 179.506 243.604 182.171C242.714 184.064 241.323 185.191 239.431 185.553C237.855 185.856 236.093 185.783 234.144 185.336C234.191 185.326 234.229 185.313 234.256 185.297C234.269 185.289 234.279 185.277 234.285 185.264C234.292 185.251 234.294 185.236 234.293 185.221C234.291 185.207 234.286 185.193 234.277 185.181C234.268 185.169 234.256 185.16 234.243 185.154C233.778 184.973 233.355 184.746 232.975 184.473C230.052 182.387 228.526 179.62 228.396 176.171C228.247 172.269 231.328 168.905 234.919 167.857C235.561 167.669 236.35 167.595 237.285 167.633C238.037 167.663 238.824 167.72 239.644 167.802Z" fill="#FFBDA7"/>
<path d="M108.008 218.318C109.652 225.81 110.092 234.507 106.376 241.475C105.547 243.005 104.516 244.343 103.283 245.487C102.54 246.175 101.283 247.038 99.5131 248.076C94.8862 250.786 90.2731 253.467 85.6737 256.119C81.4839 258.556 77.3263 260.977 73.2008 263.383C72.9271 263.543 72.5993 263.698 72.2171 263.846C72.4923 263.186 72.8675 262.599 73.3429 262.087C75.3422 259.934 76.5322 256.874 77.1765 253.971C78.7081 247.081 77.7658 239.395 75.6655 232.597C72.5718 222.571 67.4175 213.665 60.2028 205.877C57.472 202.928 54.2712 200.246 50.9008 198.022C46.3817 195.041 41.0853 192.899 35.5985 193.007C35.2302 193.015 34.6279 193.098 33.7918 193.257C32.974 193.411 32.1593 193.454 31.3477 193.385L46.6132 184.512C51.0858 181.926 55.4192 179.406 59.6135 176.953C67.5191 172.326 76.8234 176.045 83.601 180.823C86.1674 182.633 88.6177 184.765 90.9517 187.22C99.3801 196.079 105.066 206.445 108.008 218.318ZM98.2842 240.984C98.9537 241.334 99.5873 241.383 100.185 241.129C103.232 239.831 105.108 233.514 103.113 230.843C102.815 230.444 102.306 230.205 101.586 230.126C100.323 229.672 99.2105 230.058 98.2475 231.286C96.586 233.401 95.8867 235.81 96.1496 238.513C96.2932 239.982 97.0048 240.806 98.2842 240.984ZM84.713 247.714C85.3657 248.203 86.0826 248.253 86.8637 247.863C89.6632 246.471 90.9449 241.727 90.2112 238.889C89.9177 237.751 89.1129 236.88 87.8152 237.084C87.9665 236.918 87.8694 236.814 87.524 236.775C86.9523 236.709 86.4425 236.807 85.9947 237.068C83.296 238.646 82.0212 243.277 82.8764 246.132C83.2035 247.222 83.8157 247.749 84.713 247.714Z" fill="#465A65"/>
<path d="M222.28 181.935C218.755 181.761 216.076 182.903 214.241 185.361C212.924 187.125 212.503 189.09 212.98 191.255C213.304 192.725 214.001 194.365 214.542 195.919C215.2 197.801 214.698 199.021 212.455 198.634C209.667 198.152 206.228 197.233 203.944 199.507C202.993 200.457 202.411 201.62 202.197 202.997C201.883 205.026 202.266 206.966 202.316 208.821C202.367 210.683 201.33 211.086 199.703 210.799C198.74 210.628 197.767 210.49 196.786 210.384C194.539 210.139 192.659 210.875 191.187 212.576C189.457 214.579 189.038 217.132 189.931 220.237C188.073 218.052 187.792 215.62 189.087 212.939C191.318 208.316 196.199 207.344 200.555 209.534C200.805 209.659 200.857 209.602 200.714 209.362C199.292 206.98 198.746 204.001 199.758 201.429C200.976 198.324 203.159 196.537 206.306 196.066C208.758 195.7 210.986 196.087 212.992 197.226C213.43 197.475 213.486 197.408 213.159 197.024C212.135 195.82 211.289 194.472 210.621 192.982C209.62 190.747 209.588 188.444 210.525 186.074C211.38 183.909 212.721 182.437 214.874 181.564C217.271 180.592 219.739 180.715 222.28 181.935Z" fill="#F0997B"/>
<path d="M222.28 181.935L222.814 182.16C224.287 183.028 225.495 183.98 226.437 185.015C228.511 187.297 228.965 189.913 227.798 192.863C226.047 197.293 221.819 201.241 216.669 199.457C216.529 199.408 216.49 199.451 216.555 199.585C218.199 203.04 217.91 206.19 215.688 209.036C213.216 212.203 208.41 215.328 204.336 212.969C204.318 212.958 204.297 212.954 204.277 212.955C204.256 212.956 204.236 212.963 204.219 212.976C204.202 212.988 204.19 213.005 204.182 213.025C204.175 213.044 204.173 213.065 204.178 213.085C204.603 214.969 204.408 216.728 203.593 218.364C201.53 222.504 197.49 224.715 193 222.624C192.511 222.396 191.869 222.017 191.074 221.486L189.93 220.237C189.038 217.132 189.456 214.579 191.187 212.576C192.659 210.875 194.539 210.139 196.786 210.385C197.767 210.49 198.739 210.628 199.702 210.8C201.33 211.086 202.367 210.683 202.316 208.821C202.266 206.966 201.883 205.026 202.197 202.997C202.411 201.62 202.993 200.457 203.944 199.507C206.228 197.233 209.667 198.152 212.455 198.634C214.697 199.021 215.199 197.802 214.541 195.919C214 194.365 213.303 192.725 212.98 191.256C212.503 189.09 212.923 187.125 214.241 185.361C216.075 182.903 218.755 181.761 222.28 181.935Z" fill="#FFBDA7"/>
<path d="M251.999 202.476C249.789 202.265 247.623 202.037 245.501 201.793C245.451 201.787 245.403 201.771 245.36 201.745C245.317 201.719 245.28 201.685 245.251 201.644C245.056 201.369 245.208 201.08 245.517 201.048C248.044 200.788 250.562 200.51 253.072 200.215C254.386 200.059 254.675 199.266 254.78 198.055C254.951 196.065 255.138 194.063 255.339 192.048C255.447 190.948 255.392 189.84 255.624 188.737C255.64 188.658 255.686 188.587 255.751 188.539C255.817 188.491 255.898 188.469 255.979 188.476C256.152 188.493 256.254 188.588 256.286 188.763C256.523 190.014 256.495 191.278 256.628 192.525C256.847 194.569 257.019 196.474 257.146 198.241C257.224 199.33 257.596 200.08 258.76 200.22C261.148 200.509 263.629 200.774 266.203 201.015C266.36 201.031 266.504 201.079 266.634 201.16C266.675 201.186 266.709 201.223 266.732 201.266C266.755 201.309 266.766 201.357 266.765 201.406C266.764 201.455 266.75 201.503 266.725 201.545C266.7 201.587 266.665 201.622 266.622 201.646C266.421 201.761 266.184 201.832 265.912 201.859C263.998 202.052 262.083 202.249 260.166 202.451C259.105 202.562 258.505 202.649 258.366 202.71C257.657 203.025 257.265 203.593 257.192 204.413C256.926 207.389 256.654 210.421 256.376 213.507C256.359 213.689 256.312 213.862 256.234 214.027C256.033 214.451 255.842 214.44 255.66 213.995C255.589 213.819 255.544 213.637 255.527 213.447C255.283 210.514 255.044 207.666 254.81 204.904C254.636 202.818 253.911 202.657 251.999 202.476ZM255.922 193.8C255.746 195.425 255.593 197.01 255.463 198.555C255.301 200.497 253.934 200.963 252.173 201.07C251.346 201.121 250.552 201.203 249.791 201.316C249.212 201.403 249.214 201.476 249.798 201.534C250.865 201.642 251.958 201.758 253.076 201.882C253.965 201.981 254.633 202.374 255.083 203.058C255.309 203.404 255.462 204.053 255.541 205.007C255.653 206.343 255.756 207.688 255.851 209.043C255.865 209.235 255.905 209.241 255.972 209.061C256.02 208.933 256.051 208.8 256.066 208.662C256.196 207.497 256.302 206.268 256.383 204.975C256.481 203.416 256.926 202.132 258.586 201.944C259.726 201.816 260.885 201.679 262.062 201.534C262.761 201.448 262.761 201.359 262.064 201.268C261.199 201.153 260.396 201.075 259.655 201.034C258.089 200.944 256.784 200.511 256.543 198.899C256.375 197.77 256.229 196.089 256.105 193.857C256.102 193.799 256.072 193.77 256.014 193.77H255.956C255.948 193.77 255.94 193.773 255.933 193.779C255.927 193.784 255.923 193.792 255.922 193.8Z" fill="#063E0C"/>
<path d="M72.2173 263.846C70.7484 264.803 69.6814 265.45 69.0165 265.788C62.5393 269.085 55.1083 266.985 49.1859 263.564C43.1421 260.074 37.9145 255.06 33.6705 249.461C28.6247 242.804 24.9119 235.607 22.5319 227.869C20.4271 221.03 19.4802 213.413 21.0003 206.495C21.9266 202.284 23.9512 198.351 27.3721 195.795C27.7787 195.489 28.4352 195.079 29.3416 194.564C30.0325 194.172 30.7013 193.78 31.3478 193.385C32.1595 193.454 32.9742 193.411 33.792 193.257C34.6281 193.098 35.2303 193.014 35.5987 193.007C41.0854 192.899 46.3818 195.041 50.901 198.021C54.2714 200.245 57.4722 202.928 60.2029 205.876C67.4177 213.664 72.5719 222.571 75.6657 232.597C77.7659 239.395 78.7083 247.081 77.1767 253.971C76.5324 256.873 75.3424 259.934 73.3431 262.087C72.8677 262.599 72.4924 263.185 72.2173 263.846Z" fill="#273238"/>
<path d="M255.921 193.8C255.922 193.792 255.926 193.784 255.933 193.779C255.939 193.773 255.947 193.77 255.956 193.771H256.013C256.071 193.771 256.102 193.8 256.105 193.858C256.228 196.089 256.374 197.77 256.543 198.9C256.783 200.511 258.088 200.945 259.654 201.034C260.395 201.075 261.198 201.153 262.064 201.268C262.761 201.36 262.76 201.448 262.061 201.534C260.884 201.679 259.726 201.816 258.585 201.944C256.925 202.132 256.481 203.416 256.382 204.976C256.301 206.269 256.196 207.498 256.066 208.662C256.05 208.8 256.019 208.933 255.972 209.061C255.904 209.242 255.864 209.236 255.85 209.043C255.755 207.689 255.652 206.344 255.541 205.008C255.461 204.054 255.308 203.404 255.082 203.059C254.633 202.374 253.964 201.982 253.076 201.882C251.957 201.759 250.864 201.643 249.797 201.534C249.213 201.476 249.211 201.403 249.79 201.316C250.551 201.203 251.345 201.121 252.172 201.071C253.933 200.963 255.3 200.498 255.463 198.556C255.593 197.01 255.745 195.425 255.921 193.8Z" fill="#F8F1F9"/>
<path d="M142.689 226.833C142.081 227.135 141.311 227.327 140.38 227.408C136.384 227.752 130.796 226.445 128.994 222.421C128.993 222.304 129.022 222.226 129.081 222.187C129.167 222.129 129.249 222.135 129.327 222.206C131.033 223.747 132.966 224.569 135.127 224.673C137.347 224.78 139.545 224.334 141.722 223.334C145.736 221.488 149.43 218.59 152.796 215.323C158.077 210.194 162.534 204.366 166.168 197.838C166.192 197.795 166.227 197.784 166.271 197.806L166.324 197.833C166.333 197.838 166.335 197.844 166.33 197.851C165.418 199.895 164.542 201.728 163.703 203.35C160.554 209.436 156.489 215.083 151.507 220.289C149.557 222.327 147.431 224.138 145.129 225.723C144.771 225.969 143.958 226.339 142.689 226.833Z" fill="#9A4A4D"/>
<path d="M157.213 228.271C154.45 230.119 150.465 230.318 147.315 229.619C145.703 229.261 144.279 228.566 143.229 227.337C143.206 227.113 143.33 227.06 143.601 227.179C143.711 227.228 143.823 227.269 143.938 227.303C147.955 228.477 152.527 227.574 156.055 225.508C158.068 224.329 160.153 222.801 162.308 220.924C165.724 217.947 168.935 214.74 171.94 211.304C174.271 208.639 176.263 206.049 177.917 203.533C178.458 202.708 178.973 201.863 179.46 201C179.485 200.957 179.514 200.952 179.547 200.986L179.598 201.034C179.607 201.043 179.609 201.055 179.603 201.069C179.483 201.347 179.348 201.634 179.197 201.931C178.5 203.287 177.774 204.632 177.019 205.968C172.222 214.461 165.708 221.965 157.924 227.752C157.903 227.769 157.892 227.791 157.892 227.817C157.892 227.862 157.87 227.893 157.828 227.908C157.582 227.994 157.377 228.115 157.213 228.271Z" fill="#9A4A4D"/>
<path d="M171.471 228.647C168.851 229.848 166.128 230.484 163.304 230.555C161.233 230.605 159.206 230.142 157.84 228.484C157.89 228.278 158.061 228.227 158.353 228.331C158.884 228.52 159.397 228.645 159.894 228.704C161.573 228.906 163.104 228.824 164.489 228.459C166.36 227.967 168.018 227.336 169.462 226.567C171.917 225.26 174.37 223.604 176.822 221.597C182.185 217.208 186.826 212.37 191.168 206.982C191.723 206.294 192.285 205.549 192.853 204.747C192.878 204.713 192.907 204.707 192.941 204.728L192.993 204.763C193.016 204.778 193.032 204.801 193.039 204.828C193.046 204.855 193.043 204.883 193.03 204.907C191.735 207.44 190.305 209.719 188.738 211.744C184.634 217.051 179.998 221.853 174.83 226.15C174.406 226.502 173.848 226.92 173.156 227.404C172.58 227.808 172.018 228.222 171.471 228.647Z" fill="#9A4A4D"/>
<path d="M120.283 211.696C121.047 215.542 121.27 219.415 120.95 223.316C120.828 224.813 120.574 226.285 120.189 227.735C120.182 227.762 120.175 227.841 120.171 227.971C119.691 229.388 119.182 230.644 118.644 231.74C117.933 233.183 116.998 234.487 115.837 235.652C115.114 236.378 114.258 237.04 113.267 237.64C112.044 238.379 111.006 238.974 110.151 239.423C109.048 240.003 108.057 240.688 107.18 241.48C107.054 241.595 106.888 241.665 106.68 241.691C106.585 241.703 106.555 241.664 106.588 241.574C106.596 241.556 106.597 241.536 106.591 241.514C106.572 241.464 106.538 241.447 106.487 241.464C106.446 241.476 106.409 241.48 106.375 241.475C110.092 234.508 109.651 225.811 108.007 218.318C108.206 218.457 108.468 218.433 108.794 218.247C111.558 216.66 114.276 215.081 116.949 213.51C117.246 213.336 117.702 213.087 118.316 212.762C118.772 212.522 119.22 212.268 119.662 211.999C119.727 211.96 119.8 211.937 119.875 211.932C120.158 211.919 120.294 211.84 120.283 211.696Z" fill="white"/>
<path d="M238.033 223.958C238.089 224.152 238.127 224.359 238.147 224.579C238.294 226.328 238.421 227.923 238.528 229.364C238.569 229.921 238.867 230.23 239.422 230.291L243.751 230.768C243.787 230.772 243.822 230.786 243.85 230.809C243.878 230.832 243.898 230.862 243.909 230.896C243.989 231.137 243.908 231.276 243.668 231.311C242.481 231.484 241.025 231.661 239.301 231.843C238.886 231.887 238.658 232.116 238.615 232.531C238.467 233.954 238.333 235.418 238.214 236.924C238.179 237.382 238.108 237.825 238.003 238.251C237.992 238.294 237.969 238.332 237.937 238.361C237.904 238.391 237.864 238.409 237.82 238.416C237.777 238.422 237.733 238.415 237.694 238.396C237.654 238.377 237.621 238.346 237.599 238.309C237.505 238.145 237.45 237.964 237.434 237.765C237.294 235.988 237.145 234.248 236.987 232.547C236.946 232.113 236.708 231.874 236.274 231.831C234.816 231.688 233.37 231.525 231.936 231.343C231.716 231.316 231.611 231.193 231.62 230.976C231.622 230.933 231.639 230.891 231.669 230.859C231.698 230.826 231.737 230.805 231.78 230.797C233.008 230.597 234.338 230.457 235.772 230.375C236.064 230.36 236.335 230.305 236.586 230.21C236.682 230.175 236.766 230.114 236.83 230.034C236.893 229.954 236.934 229.858 236.948 229.756C237.153 228.255 237.291 226.764 237.361 225.281C237.382 224.815 237.443 224.357 237.542 223.907C237.548 223.878 237.561 223.85 237.578 223.825C237.596 223.801 237.619 223.78 237.645 223.764C237.671 223.749 237.7 223.739 237.73 223.735C237.76 223.731 237.79 223.734 237.819 223.742C237.93 223.776 238.001 223.848 238.033 223.958ZM236.776 231.43C237.774 231.928 237.519 232.847 237.7 233.767C237.801 234.283 237.875 234.279 237.92 233.755C237.971 233.186 237.877 232.295 238.248 231.841C238.572 231.446 239.163 231.221 240.021 231.164C240.082 231.161 240.123 231.131 240.144 231.073L240.167 231.013C240.168 231.009 240.169 231.005 240.168 231.001C240.168 230.998 240.166 230.994 240.164 230.991C240.162 230.988 240.16 230.985 240.157 230.984C240.154 230.982 240.15 230.981 240.147 230.981C238.636 230.852 237.895 230.515 237.971 228.688C237.975 228.564 237.928 228.466 237.829 228.392L237.778 228.353C237.77 228.347 237.76 228.343 237.75 228.342C237.739 228.341 237.729 228.343 237.719 228.347C237.71 228.352 237.702 228.359 237.696 228.367C237.69 228.376 237.687 228.386 237.686 228.397C237.654 229.91 237.232 230.716 236.419 230.816C236.079 230.859 235.748 230.916 235.423 230.988C235.127 231.055 235.128 231.115 235.426 231.169C235.88 231.251 236.352 231.219 236.776 231.43Z" fill="#063E0C"/>
<path d="M237.702 233.767C237.521 232.847 237.775 231.928 236.778 231.43C236.354 231.219 235.881 231.251 235.427 231.169C235.129 231.115 235.128 231.055 235.425 230.988C235.749 230.916 236.081 230.859 236.42 230.816C237.233 230.716 237.656 229.91 237.688 228.397C237.688 228.386 237.692 228.376 237.697 228.368C237.703 228.359 237.711 228.352 237.721 228.347C237.73 228.343 237.741 228.341 237.751 228.342C237.761 228.343 237.771 228.347 237.78 228.353L237.83 228.392C237.929 228.466 237.977 228.564 237.972 228.688C237.897 230.515 238.637 230.852 240.148 230.981C240.152 230.981 240.155 230.982 240.158 230.984C240.161 230.985 240.164 230.988 240.166 230.991C240.168 230.994 240.169 230.998 240.17 231.002C240.17 231.005 240.17 231.009 240.169 231.013L240.146 231.073C240.124 231.131 240.083 231.161 240.022 231.164C239.165 231.221 238.574 231.446 238.25 231.841C237.878 232.295 237.972 233.187 237.922 233.755C237.876 234.279 237.803 234.283 237.702 233.767Z" fill="#F8F1F9"/>
<path d="M101.586 230.125C100.585 230.446 99.8028 230.973 99.2403 231.705C97.9089 233.437 97.231 235.418 97.2066 237.648C97.1913 238.969 97.5505 240.081 98.2842 240.984C97.0048 240.805 96.2933 239.981 96.1496 238.512C95.8867 235.81 96.586 233.401 98.2475 231.285C99.2105 230.058 100.323 229.671 101.586 230.125Z" fill="#273238"/>
<path d="M101.585 230.126C102.305 230.205 102.814 230.445 103.112 230.844C105.107 233.515 103.231 239.831 100.184 241.129C99.5863 241.383 98.9527 241.335 98.2832 240.985C97.5495 240.081 97.1903 238.969 97.2055 237.649C97.23 235.419 97.9079 233.438 99.2393 231.706C99.8018 230.974 100.584 230.447 101.585 230.126Z" fill="#063E0C"/>
<path d="M295.855 239.785L281.706 231.615C281.22 231.335 280.599 231.501 280.318 231.987L280.305 232.011C280.024 232.497 280.191 233.118 280.676 233.398L294.826 241.568C295.312 241.848 295.933 241.682 296.213 241.196L296.227 241.172C296.508 240.686 296.341 240.065 295.855 239.785Z" fill="#063E0C"/>
<path d="M87.8156 237.084C86.8419 237.425 86.0493 238.046 85.4379 238.946C83.8811 241.239 82.7691 245.29 84.7134 247.714C83.8161 247.749 83.2039 247.222 82.8768 246.132C82.0216 243.277 83.2964 238.646 85.9951 237.068C86.4429 236.807 86.9527 236.709 87.5244 236.775C87.8698 236.814 87.9669 236.918 87.8156 237.084Z" fill="#273238"/>
<path d="M87.8157 237.084C89.1135 236.88 89.9182 237.752 90.2117 238.889C90.9454 241.727 89.6637 246.471 86.8642 247.863C86.0831 248.253 85.3662 248.203 84.7135 247.714C82.7692 245.29 83.8813 241.239 85.4381 238.946C86.0495 238.046 86.842 237.425 87.8157 237.084Z" fill="#063E0C"/>
<path d="M146.382 261.97C146.192 260.892 144.624 260.787 143.714 260.716C141.91 260.577 140.026 260.401 138.062 260.188C137.959 260.178 137.868 260.142 137.787 260.081C137.743 260.047 137.708 260.003 137.684 259.953C137.661 259.903 137.65 259.848 137.653 259.793C137.655 259.738 137.671 259.685 137.699 259.638C137.726 259.59 137.765 259.55 137.812 259.521C137.908 259.462 138.011 259.427 138.121 259.416C140.263 259.208 142.43 258.994 144.624 258.774C145.667 258.668 146.35 258.301 146.449 257.196C146.712 254.249 146.982 251.274 147.258 248.27C147.263 248.217 147.283 248.165 147.315 248.122C147.346 248.079 147.39 248.045 147.439 248.025C147.634 247.949 147.758 247.995 147.813 248.163C147.883 248.372 147.929 248.604 147.948 248.857C148.213 252.139 148.472 254.947 148.726 257.281C148.82 258.14 149.316 258.618 150.211 258.714C152.354 258.945 154.578 259.183 156.884 259.427C157.001 259.439 157.123 259.463 157.248 259.498C157.357 259.527 157.428 259.592 157.461 259.691C157.518 259.859 157.463 259.972 157.296 260.03C157.07 260.11 156.819 260.166 156.542 260.198C154.541 260.432 152.541 260.664 150.542 260.895C149.471 261.021 148.799 261.333 148.7 262.449C148.485 264.84 148.272 267.29 148.061 269.8C148.015 270.349 147.951 270.874 147.87 271.375C147.852 271.487 147.808 271.573 147.737 271.634C147.656 271.701 147.566 271.712 147.467 271.666C147.407 271.639 147.364 271.595 147.336 271.536C147.277 271.407 147.24 271.272 147.226 271.13C146.979 268.553 146.771 266.082 146.603 263.717C146.561 263.152 146.488 262.569 146.382 261.97ZM147.563 252.84C147.381 254.089 147.24 255.355 147.139 256.639C147.054 257.726 146.944 258.464 145.938 259.067C145.63 259.252 145.041 259.379 144.17 259.448C143.429 259.508 142.71 259.582 142.015 259.673C141.299 259.764 141.3 259.851 142.017 259.932C143.02 260.045 144.057 260.169 145.128 260.303C146.545 260.48 147.061 261.583 147.139 262.876C147.22 264.225 147.327 265.544 147.46 266.831C147.462 266.848 147.466 266.863 147.474 266.877C147.483 266.893 147.499 266.903 147.522 266.906C147.556 266.911 147.575 266.897 147.579 266.863C147.764 265.347 147.906 263.941 148.006 262.646C148.122 261.144 148.908 260.332 150.365 260.211C151.273 260.135 152.137 260.042 152.958 259.932C153.643 259.84 153.642 259.757 152.956 259.684C152.274 259.611 151.602 259.534 150.941 259.455C149.874 259.326 149.118 259.306 148.446 258.407C148.189 258.063 148.029 257.431 147.967 256.511C147.883 255.288 147.769 254.06 147.625 252.826C147.625 252.817 147.622 252.809 147.616 252.803C147.61 252.799 147.605 252.793 147.602 252.785C147.584 252.747 147.573 252.749 147.57 252.792C147.569 252.807 147.566 252.823 147.563 252.84Z" fill="#063E0C"/>
<path d="M147.563 252.841C147.566 252.824 147.568 252.808 147.57 252.793C147.573 252.75 147.584 252.748 147.602 252.786C147.605 252.793 147.61 252.8 147.616 252.804C147.622 252.81 147.625 252.818 147.625 252.827C147.769 254.061 147.883 255.289 147.967 256.512C148.029 257.432 148.189 258.064 148.446 258.408C149.118 259.307 149.874 259.327 150.94 259.456C151.602 259.535 152.274 259.612 152.956 259.685C153.642 259.758 153.643 259.841 152.958 259.933C152.137 260.043 151.273 260.136 150.365 260.212C148.908 260.333 148.122 261.145 148.006 262.647C147.906 263.942 147.764 265.347 147.579 266.864C147.575 266.897 147.555 266.912 147.522 266.907C147.499 266.904 147.483 266.894 147.474 266.877C147.466 266.864 147.461 266.848 147.46 266.832C147.327 265.545 147.22 264.226 147.139 262.877C147.061 261.583 146.545 260.481 145.128 260.304C144.057 260.169 143.019 260.046 142.017 259.933C141.3 259.852 141.299 259.765 142.014 259.673C142.71 259.583 143.428 259.508 144.17 259.449C145.041 259.38 145.63 259.253 145.937 259.068C146.944 258.465 147.054 257.727 147.139 256.64C147.24 255.356 147.381 254.09 147.563 252.841Z" fill="#F8F1F9"/>
<path d="M100.019 280.311L99.9948 280.297C99.5101 280.017 98.8903 280.183 98.6105 280.668L90.432 294.833C90.1521 295.318 90.3182 295.938 90.8029 296.218L90.8268 296.231C91.3115 296.511 91.9313 296.345 92.2111 295.86L100.39 281.695C100.669 281.21 100.503 280.59 100.019 280.311Z" fill="#063E0C"/>
<path d="M232.005 280.3L231.985 280.311C231.499 280.592 231.333 281.213 231.613 281.699L239.785 295.853C240.065 296.338 240.687 296.505 241.172 296.224L241.192 296.213C241.678 295.932 241.845 295.311 241.564 294.825L233.392 280.672C233.112 280.186 232.491 280.02 232.005 280.3Z" fill="#063E0C"/>
<path d="M166.094 298.009H165.906C165.413 298.009 165.014 298.408 165.014 298.901V315.464C165.014 315.957 165.413 316.356 165.906 316.356H166.094C166.586 316.356 166.985 315.957 166.985 315.464V298.901C166.985 298.408 166.586 298.009 166.094 298.009Z" fill="#063E0C"/>
</svg>
