<svg width="1448" height="1448" viewBox="0 0 1448 1448" fill="none" xmlns="http://www.w3.org/2000/svg">
<path d="M724.439 68.2305H723.559C721.427 68.2305 719.699 69.9586 719.699 72.0905V144.39C719.699 146.522 721.427 148.25 723.559 148.25H724.439C726.571 148.25 728.299 146.522 728.299 144.39V72.0905C728.299 69.9586 726.571 68.2305 724.439 68.2305Z" fill="#381668"/>
<path d="M396.185 155.96L396.098 156.009C393.977 157.229 393.247 159.937 394.466 162.058L430.008 223.868C431.228 225.989 433.936 226.72 436.057 225.5L436.144 225.45C438.265 224.23 438.995 221.522 437.776 219.401L402.234 157.592C401.014 155.471 398.306 154.74 396.185 155.96Z" fill="#381668"/>
<path d="M1052.03 156.096L1051.92 156.036C1049.81 154.812 1047.11 155.531 1045.88 157.643L1010.11 219.363C1008.88 221.475 1009.6 224.18 1011.71 225.404L1011.82 225.464C1013.93 226.688 1016.63 225.969 1017.86 223.857L1053.63 162.137C1054.86 160.025 1054.14 157.32 1052.03 156.096Z" fill="#381668"/>
<path d="M1240.47 613.58L1185.79 645.2C1185.94 644.8 1186.34 644.4 1186.99 644C1188.21 643.24 1188.5 641.74 1189.18 640.84C1190.67 638.86 1192.1 636.85 1193.48 634.81C1194.34 633.54 1195.48 632.52 1196.39 631.27C1203.84 621 1208.5 607.42 1210.51 594.83C1212.11 584.8 1213.16 573.75 1212.56 563.47C1211.59 547.15 1209.57 532.987 1206.49 520.98C1194.37 473.727 1171.53 431.36 1137.97 393.88C1128.37 383.16 1116.78 372.85 1105.26 364.15C1092.89 354.81 1079.7 347.36 1065.67 341.8C1053.85 337.11 1040.32 334.29 1027.71 335.14C1023.16 335.447 1018.57 335.927 1013.94 336.58C1013.67 336.62 1013.46 336.524 1013.31 336.29L1013.15 336.05C1013 335.817 1012.8 335.764 1012.55 335.89C1011.54 336.424 1010.65 336.577 1009.86 336.35L1052.76 311.37C1079.62 295.784 1106.46 280.177 1133.29 264.55C1159.07 249.54 1189.61 255.37 1215.29 268.44C1240.9 281.48 1263.55 301.34 1282.09 323.53C1302.46 347.91 1318.65 374.864 1330.66 404.39C1343.04 434.79 1350.49 467.74 1348.71 500.24C1347.4 524.09 1339.69 550.01 1320.98 565.77C1318.29 568.037 1313.94 570.917 1307.93 574.41C1285.46 587.484 1262.97 600.54 1240.47 613.58ZM1301.21 543.77C1304.79 546.23 1308.48 546.067 1312.29 543.28C1323.17 535.32 1330.04 513.94 1323.56 501.77C1321.6 498.097 1318.58 496.587 1314.5 497.24C1314.9 496.94 1315.04 496.687 1314.91 496.48C1314.77 496.262 1314.58 496.079 1314.35 495.949C1314.12 495.818 1313.85 495.743 1313.58 495.73C1307.96 495.47 1303.25 498.77 1300.17 503.05C1293.93 511.75 1291.19 521.314 1291.96 531.74C1292.17 534.654 1292.87 537.227 1294.05 539.46C1295.66 542.5 1298.04 543.937 1301.21 543.77ZM1242.34 573.44C1243.98 574.854 1245.71 575.477 1247.54 575.31C1251.21 574.977 1254.49 573.06 1257.36 569.56C1264.52 560.86 1267.73 550.797 1266.99 539.37C1266.58 533.1 1263.03 525.56 1255.28 527.22C1255.73 526.914 1255.91 526.564 1255.82 526.17C1255.75 525.857 1255.55 525.684 1255.23 525.65C1250.22 525.17 1246.08 526.967 1242.81 531.04C1235.05 540.68 1231.82 551.314 1233.13 562.94C1233.62 567.214 1235.32 570.49 1238.23 572.77C1239.59 573.837 1240.96 574.06 1242.34 573.44Z" fill="#465A65"/>
<path d="M742.041 367.55C740.701 367.25 739.311 367.03 737.871 366.89C729.338 366.064 720.701 365.147 711.961 364.14C711.301 364.067 710.641 363.88 709.981 363.58C709.614 363.414 709.404 363.134 709.351 362.74C709.304 362.387 709.404 362.094 709.651 361.86C710.031 361.507 710.481 361.3 711.001 361.24C721.494 360.034 731.291 358.96 740.391 358.02C744.258 357.62 746.358 355.35 746.691 351.21C747.704 338.77 748.764 326.15 749.871 313.35C749.887 313.177 749.943 313.01 750.035 312.862C750.127 312.714 750.252 312.59 750.401 312.5C750.934 312.174 751.374 312.13 751.721 312.37C752.581 312.977 753.058 313.96 753.151 315.32C754.284 331.067 755.344 343.457 756.331 352.49C756.771 356.5 759.931 357.8 763.531 358.16C772.531 359.06 782.074 360.077 792.161 361.21C792.413 361.24 792.651 361.344 792.845 361.51C793.039 361.675 793.18 361.894 793.251 362.14C793.538 363.16 793.141 363.74 792.061 363.88C784.048 364.9 774.361 365.997 763.001 367.17C758.754 367.61 756.461 369.967 756.121 374.24C755.088 387.094 754.014 399.17 752.901 410.47C752.834 411.177 752.634 411.824 752.301 412.41C752.201 412.584 752.054 412.725 751.876 412.818C751.699 412.911 751.499 412.951 751.3 412.933C751.102 412.915 750.913 412.84 750.757 412.717C750.601 412.594 750.484 412.429 750.421 412.24C749.908 410.76 749.598 409.347 749.491 408C748.698 398.067 747.938 388.094 747.211 378.08C746.931 374.13 746.901 368.61 742.041 367.55ZM763.741 364.39C767.541 364.13 771.621 363.84 775.261 363.18C776.908 362.88 776.908 362.584 775.261 362.29C771.634 361.65 768.124 361.217 764.731 360.99C761.951 360.804 759.851 360.344 758.431 359.61C755.738 358.217 754.188 356.1 753.781 353.26C753.034 347.967 752.434 341.48 751.981 333.8C751.974 333.727 751.938 333.69 751.871 333.69H751.581C751.448 333.684 751.371 333.747 751.351 333.88C750.524 338.974 749.961 344.04 749.661 349.08C749.291 355.44 747.031 360.01 740.361 360.74C735.641 361.26 730.871 361.777 726.051 362.29C725.804 362.317 725.684 362.454 725.691 362.7V362.96C725.691 363.007 725.714 363.03 725.761 363.03C731.748 363.464 736.958 364.05 741.391 364.79C747.311 365.78 749.111 370.32 749.521 375.87C749.868 380.544 750.258 385.007 750.691 389.26C750.764 390 750.924 390.64 751.171 391.18C751.571 392.067 751.804 392.027 751.871 391.06C752.258 384.894 752.821 378.724 753.561 372.55C754.201 367.11 758.551 364.75 763.741 364.39Z" fill="#866075"/>
<path d="M775.26 363.18C771.62 363.84 767.54 364.13 763.74 364.39C758.55 364.75 754.2 367.11 753.56 372.55C752.82 378.723 752.256 384.893 751.87 391.06C751.803 392.027 751.57 392.067 751.17 391.18C750.923 390.64 750.763 390 750.69 389.26C750.256 385.007 749.866 380.543 749.52 375.87C749.11 370.32 747.31 365.78 741.39 364.79C736.956 364.05 731.746 363.463 725.76 363.03C725.713 363.03 725.69 363.007 725.69 362.96V362.7C725.683 362.453 725.803 362.317 726.05 362.29C730.87 361.777 735.64 361.26 740.36 360.74C747.03 360.01 749.29 355.44 749.66 349.08C749.96 344.04 750.523 338.973 751.35 333.88C751.37 333.747 751.446 333.683 751.58 333.69H751.87C751.936 333.69 751.973 333.727 751.98 333.8C752.433 341.48 753.033 347.967 753.78 353.26C754.186 356.1 755.736 358.217 758.43 359.61C759.85 360.343 761.95 360.803 764.73 360.99C768.123 361.217 771.633 361.65 775.26 362.29C776.906 362.583 776.906 362.88 775.26 363.18Z" fill="#F8F1F9"/>
<path d="M1185.79 645.2C1180.69 648.533 1176.01 651.233 1171.75 653.3C1162.45 657.813 1152.15 659.863 1140.86 659.45C1146.18 656.13 1151.45 652.956 1156.66 649.93C1162.21 646.716 1166.12 644.183 1168.4 642.33C1179.7 633.12 1187.46 619.77 1191.4 605.67C1193.22 599.156 1194.4 593.433 1194.95 588.5C1196.95 570.32 1195.98 551.733 1192.04 532.74C1181.19 480.77 1153.47 431.1 1115.49 393.64C1095.64 374.06 1070.33 356.85 1043.51 350.09C1042.19 349.756 1039.19 349.233 1034.51 348.52C1022.61 346.7 1011.17 347.87 1000.18 352.03C997.08 353.203 993.31 355.123 988.87 357.79C984.79 360.243 980.693 362.613 976.58 364.9C975.766 365.346 975.606 365.176 976.1 364.39C980.506 357.403 985.96 351.52 992.46 346.74C994.22 345.446 997.093 343.673 1001.08 341.42C1004.03 339.746 1006.96 338.056 1009.86 336.35C1010.65 336.576 1011.54 336.423 1012.55 335.89C1012.8 335.763 1013 335.816 1013.15 336.05L1013.31 336.29C1013.46 336.523 1013.67 336.62 1013.94 336.58C1018.57 335.926 1023.16 335.446 1027.71 335.14C1040.32 334.29 1053.85 337.11 1065.67 341.8C1079.7 347.36 1092.89 354.81 1105.26 364.15C1116.78 372.85 1128.37 383.16 1137.97 393.88C1171.53 431.36 1194.37 473.726 1206.49 520.98C1209.57 532.986 1211.59 547.15 1212.56 563.47C1213.16 573.75 1212.11 584.8 1210.51 594.83C1208.5 607.42 1203.84 621 1196.39 631.27C1195.48 632.52 1194.34 633.54 1193.48 634.81C1192.1 636.85 1190.67 638.86 1189.18 640.84C1188.5 641.74 1188.21 643.24 1186.99 644C1186.34 644.4 1185.94 644.8 1185.79 645.2Z" fill="#273238"/>
<path d="M968.12 388.95C943.94 406.897 919.123 423.947 893.67 440.1C894.857 432.974 897.507 425.73 901.62 418.37C907.027 408.684 914.223 401.197 923.21 395.91C927.243 393.537 932.263 391.497 938.27 389.79C943.397 388.33 949.39 387.607 956.25 387.62C960.643 387.627 964.6 388.07 968.12 388.95Z" fill="white"/>
<path d="M1123.45 572.8C1126.33 586.554 1127.56 600.867 1127.14 615.74C1126.83 626.914 1125.05 637.84 1121.8 648.52C1121.41 649.794 1120.72 650.693 1119.73 651.22C1094.08 664.947 1069.84 679.343 1047 694.41C1036.97 701.27 1027.33 708.56 1018.06 716.28C1010.98 722.067 1005.22 729.007 1000.77 737.1C999.09 740.16 997.45 743.243 995.85 746.35C988.09 761.43 980.46 776.62 972.96 791.92C973.033 792.4 972.643 793.253 971.79 794.48L969.46 793.5C958.38 788.18 947.613 787.64 937.16 791.88C927.77 795.69 921.92 802.11 918.19 811.55C914.103 821.89 914.243 831.934 918.61 841.68C921.523 848.18 925.213 854.057 929.68 859.31C931.106 860.984 930.863 861.277 928.95 860.19C920.203 855.224 910.483 853.537 899.79 855.13C886.063 857.184 876.543 864.98 871.23 878.52C866.82 889.74 869.2 902.73 875.4 913.12C876.026 914.167 875.796 914.417 874.71 913.87C855.71 904.32 834.42 908.56 824.69 928.72C819.043 940.413 820.27 951.024 828.37 960.55L833.36 966C822.146 975.06 809.206 983.657 794.54 991.79C781.886 998.81 768.736 1001.16 755.09 998.83C754.416 998.717 753.22 998.424 751.5 997.95C750.233 997.597 749.02 997.357 747.86 997.23C750.246 995.377 752.696 993.57 755.21 991.81C758.23 989.697 760.663 987.874 762.51 986.34C785.05 967.6 805.27 946.657 823.17 923.51C830.003 914.677 836.243 904.737 841.89 893.69C841.945 893.584 841.959 893.461 841.929 893.345C841.9 893.229 841.829 893.127 841.73 893.06L841.5 892.91C841.353 892.817 841.226 892.844 841.12 892.99C838.64 896.49 836.19 899.74 833.77 902.74C814.83 926.24 794.59 947.34 771.2 966.48C760.506 975.233 749.806 982.46 739.1 988.16C732.8 991.513 725.57 994.263 717.41 996.41C711.37 998.003 704.69 998.36 697.37 997.48C695.203 997.22 692.963 996.677 690.65 995.85C689.376 995.397 688.63 995.62 688.41 996.52C687.683 995.267 686.773 994.957 685.68 995.59C686.393 994.91 687.286 994.384 688.36 994.01C688.546 993.944 688.64 993.81 688.64 993.61C688.64 993.497 688.686 993.404 688.78 993.33C722.73 968.09 751.14 935.36 772.06 898.32C775.353 892.494 778.52 886.624 781.56 880.71C782.22 879.417 782.81 878.164 783.33 876.95C783.356 876.89 783.35 876.84 783.31 876.8L783.09 876.59C782.943 876.444 782.816 876.464 782.71 876.65C780.583 880.417 778.34 884.1 775.98 887.7C768.766 898.674 760.076 909.97 749.91 921.59C736.803 936.577 722.8 950.564 707.9 963.55C698.5 971.737 689.41 978.4 680.63 983.54C665.24 992.55 645.3 996.49 627.78 991.37C627.28 991.224 626.79 991.044 626.31 990.83C625.13 990.31 624.59 990.54 624.69 991.52C623.816 989.827 623.03 989.094 622.33 989.32C627.863 987.167 631.41 985.553 632.97 984.48C643.01 977.567 652.283 969.667 660.79 960.78C682.516 938.074 700.246 913.447 713.98 886.9C717.64 879.827 721.46 871.833 725.44 862.92C725.46 862.887 725.45 862.86 725.41 862.84L725.18 862.72C724.986 862.627 724.836 862.674 724.73 862.86C708.883 891.334 689.443 916.754 666.41 939.12C651.73 953.37 635.62 966.01 618.11 974.06C608.616 978.42 599.03 980.367 589.35 979.9C579.923 979.447 571.49 975.86 564.05 969.14C563.71 968.834 563.353 968.807 562.98 969.06C562.72 969.227 562.593 969.567 562.6 970.08L561.91 967.52C561.956 967.247 562.036 966.974 562.15 966.7C562.236 966.5 562.37 966.337 562.55 966.21C566.95 963.084 571.39 960.007 575.87 956.98C579.316 954.647 583.4 951.274 588.12 946.86C599.986 935.78 611.386 924.274 622.32 912.34C635.506 899.674 646.063 885.984 653.99 871.27C663.25 854.077 671.346 834.984 678.28 813.99C684.606 794.824 689.45 778.24 692.81 764.24C694.456 757.4 695.986 750.817 697.4 744.49C700.026 732.77 702.076 720.473 703.55 707.6C703.571 707.413 703.659 707.24 703.799 707.112C703.938 706.983 704.119 706.908 704.31 706.9C730.383 705.674 755.266 700.404 778.96 691.09C788.4 687.377 797.46 682.74 806.14 677.18C807.18 676.514 808.256 676.5 809.37 677.14C818.883 682.64 828.376 688.134 837.85 693.62C848.2 699.61 861.33 704.98 873.23 705.41C892.06 709.91 915.05 707.13 928.73 692.46C935.81 684.87 939.18 674.54 931.23 665.91C927.816 662.203 924.65 659.314 921.73 657.24C912.91 650.96 903.593 644.274 893.78 637.18C891.29 635.38 888.83 633.68 886.58 631.64C872.92 619.24 858.99 606.6 843.53 596.33C830.203 587.47 815.49 583.174 799.39 583.44C783.963 583.7 768.496 584.39 752.99 585.51C724.636 587.55 696 589.497 667.08 591.35C662.746 591.623 658.11 592.007 653.17 592.5C647.45 593.074 642.876 593.834 639.45 594.78C633.436 596.44 627.286 599.024 621 602.53C610.846 608.197 601.8 613.734 593.86 619.14C578.086 629.874 562.053 640.53 545.76 651.11C565.913 622.75 584.836 597.48 602.53 575.3C607.043 569.647 613.036 562.967 620.51 555.26C632.396 542.994 646.31 533.764 662.25 527.57C671.05 524.15 679.63 521.214 687.99 518.76C704.05 514.054 720.246 509.314 736.58 504.54C763.42 496.707 789.96 487.67 816.2 477.43C831.94 471.29 847.87 463.99 863.52 457.07C872.233 453.21 882.283 447.554 893.67 440.1C919.123 423.947 943.94 406.897 968.12 388.95C974.186 389.557 980.4 391.084 986.76 393.53C1013.2 403.68 1036.29 421.41 1055.37 442.11C1088.76 478.32 1113.26 524.14 1123.45 572.8Z" fill="#B26668"/>
<path d="M223.873 430.07L162.108 394.41C159.989 393.187 157.28 393.913 156.056 396.032L156.006 396.118C154.783 398.237 155.509 400.947 157.628 402.17L219.393 437.83C221.512 439.053 224.221 438.327 225.444 436.208L225.494 436.122C226.718 434.003 225.992 431.294 223.873 430.07Z" fill="#381668"/>
<path d="M452.381 450.11C446.187 449.483 440.094 448.82 434.101 448.12C433.906 448.095 433.719 448.025 433.558 447.916C433.396 447.806 433.263 447.66 433.171 447.49C432.811 446.823 432.854 446.306 433.301 445.94C433.527 445.753 433.784 445.64 434.071 445.6C438.241 444.99 442.281 444.46 446.451 444.21C448.797 444.07 451.181 443.77 453.601 443.31C454.242 443.188 454.828 442.862 455.271 442.38C455.714 441.897 455.991 441.283 456.061 440.63C456.927 432.343 457.704 424.133 458.391 416C458.464 415.093 458.947 414.68 459.841 414.76C460.214 414.793 460.477 414.98 460.631 415.32C460.904 415.933 461.074 416.573 461.141 417.24C461.881 424.893 462.517 432.216 463.051 439.21C463.257 441.943 464.774 443.406 467.601 443.6C473.494 444 479.554 444.68 485.781 445.64C485.965 445.669 486.139 445.747 486.284 445.865C486.429 445.983 486.54 446.137 486.605 446.311C486.67 446.486 486.688 446.674 486.655 446.857C486.623 447.039 486.542 447.209 486.421 447.35C486.001 447.85 485.464 448.136 484.811 448.21C478.531 448.91 472.467 449.59 466.621 450.25C465.746 450.345 464.93 450.741 464.313 451.369C463.695 451.998 463.313 452.821 463.231 453.7L460.971 477.98C460.959 478.137 460.909 478.29 460.825 478.424C460.742 478.558 460.627 478.67 460.491 478.75C459.957 479.063 459.511 479.056 459.151 478.73C458.864 478.463 458.694 478.133 458.641 477.74C457.747 470.906 457.011 462.953 456.431 453.88C456.281 451.5 454.741 450.35 452.381 450.11ZM456.921 449.49C459.571 452.29 458.641 455.59 459.241 458.96C459.601 460.953 459.877 460.94 460.071 458.92C460.561 453.75 459.911 448.74 466.571 447.64C467.517 447.486 468.441 447.296 469.341 447.07C470.001 446.903 470.007 446.723 469.361 446.53C466.171 445.58 463.541 446.25 461.531 442.83C460.481 441.05 460.441 438.52 460.311 436.48C460.151 433.953 459.844 433.933 459.391 436.42C459.177 437.606 459.024 438.806 458.931 440.02C458.691 443.22 456.161 445.61 452.951 445.91C451.657 446.03 450.384 446.25 449.131 446.57C448.037 446.85 448.051 447.043 449.171 447.15C451.781 447.39 454.981 447.46 456.921 449.49Z" fill="#866075"/>
<path d="M456.92 449.49C454.98 447.46 451.78 447.39 449.17 447.15C448.05 447.044 448.037 446.85 449.13 446.57C450.384 446.25 451.657 446.03 452.95 445.91C456.16 445.61 458.69 443.22 458.93 440.02C459.024 438.807 459.177 437.607 459.39 436.42C459.844 433.934 460.15 433.954 460.31 436.48C460.44 438.52 460.48 441.05 461.53 442.83C463.54 446.25 466.17 445.58 469.36 446.53C470.007 446.724 470 446.904 469.34 447.07C468.44 447.297 467.517 447.487 466.57 447.64C459.91 448.74 460.56 453.75 460.07 458.92C459.877 460.94 459.6 460.954 459.24 458.96C458.64 455.59 459.57 452.29 456.92 449.49Z" fill="#F8F1F9"/>
<path d="M1314.5 497.24C1309.46 499.194 1305.49 502.794 1302.59 508.04C1297.02 518.1 1292.87 534.12 1301.21 543.77C1298.04 543.937 1295.66 542.5 1294.05 539.46C1292.87 537.227 1292.17 534.654 1291.96 531.74C1291.19 521.314 1293.93 511.75 1300.17 503.05C1303.25 498.77 1307.96 495.47 1313.58 495.73C1313.85 495.743 1314.12 495.818 1314.35 495.948C1314.58 496.079 1314.77 496.262 1314.91 496.48C1315.04 496.687 1314.9 496.94 1314.5 497.24Z" fill="#273238"/>
<path d="M1301.21 543.77C1292.87 534.12 1297.02 518.1 1302.59 508.04C1305.49 502.793 1309.46 499.193 1314.5 497.24C1318.58 496.586 1321.6 498.096 1323.56 501.77C1330.04 513.94 1323.17 535.32 1312.29 543.28C1308.48 546.066 1304.79 546.23 1301.21 543.77Z" fill="#381668"/>
<path d="M1255.28 527.22C1241.49 532.84 1236.39 552.29 1238.22 565.26C1238.6 568.007 1239.97 570.733 1242.34 573.44C1240.96 574.06 1239.59 573.837 1238.23 572.77C1235.32 570.49 1233.62 567.213 1233.13 562.94C1231.82 551.313 1235.05 540.68 1242.81 531.04C1246.08 526.967 1250.22 525.17 1255.23 525.65C1255.55 525.683 1255.75 525.857 1255.82 526.17C1255.91 526.563 1255.73 526.913 1255.28 527.22Z" fill="#273238"/>
<path d="M1242.34 573.44C1239.97 570.734 1238.6 568.007 1238.22 565.26C1236.39 552.29 1241.49 532.84 1255.28 527.22C1263.03 525.56 1266.58 533.1 1266.99 539.37C1267.73 550.797 1264.52 560.86 1257.36 569.56C1254.49 573.06 1251.21 574.977 1247.54 575.31C1245.71 575.477 1243.98 574.854 1242.34 573.44Z" fill="#381668"/>
<path d="M1192.04 532.74C1195.98 551.734 1196.95 570.32 1194.95 588.5C1194.4 593.434 1193.22 599.157 1191.4 605.67C1187.46 619.77 1179.7 633.12 1168.4 642.33C1166.12 644.184 1162.21 646.717 1156.66 649.93C1151.45 652.957 1146.18 656.13 1140.86 659.45L1107.3 678.69C1107 678.864 1106.68 678.93 1106.33 678.89C1105.2 678.77 1104.15 679.074 1103.18 679.8C1098.39 683.407 1093.63 686.424 1088.89 688.85C1083.15 691.797 1077 693.607 1070.45 694.28C1066.24 694.707 1059.81 694.97 1051.16 695.07C1050.89 695.07 1050.62 695.1 1050.35 695.16C1050.04 695.227 1049.81 695.107 1049.67 694.8C1049.62 694.692 1049.54 694.6 1049.45 694.535C1049.35 694.469 1049.23 694.433 1049.11 694.43L1047 694.41C1069.84 679.344 1094.08 664.947 1119.73 651.22C1120.72 650.694 1121.41 649.794 1121.8 648.52C1125.05 637.84 1126.83 626.914 1127.14 615.74C1127.56 600.867 1126.33 586.554 1123.45 572.8C1132.32 568.107 1140.98 563.217 1149.42 558.13C1152.73 556.14 1156.14 554.52 1159.44 552.46C1163.41 549.967 1167.87 547.384 1172.81 544.71C1175.49 543.257 1178.33 541.584 1181.33 539.69C1183.95 538.03 1186.75 536.407 1189.72 534.82C1190.22 534.554 1190.72 534.517 1191.21 534.71C1191.52 534.844 1191.76 534.757 1191.91 534.45C1192.12 534.044 1192.17 533.474 1192.04 532.74Z" fill="white"/>
<path d="M331.689 591.8C340.003 590.847 348.429 589.963 356.969 589.15C361.889 588.68 364.909 587.34 365.369 582.1C366.556 568.653 367.776 555.633 369.029 543.04C369.048 542.861 369.106 542.689 369.199 542.536C369.292 542.382 369.418 542.252 369.568 542.154C369.718 542.056 369.887 541.993 370.064 541.97C370.241 541.947 370.42 541.964 370.589 542.02C371.163 542.207 371.479 542.613 371.539 543.24C372.879 557.233 374.103 570.257 375.209 582.31C375.689 587.56 378.959 588.5 383.749 589.03C393.469 590.097 403.023 591.16 412.409 592.22C412.743 592.257 413.049 592.427 413.259 592.691C413.469 592.956 413.566 593.293 413.529 593.63C413.436 594.477 412.946 594.95 412.059 595.05C401.933 596.23 391.926 597.373 382.039 598.48C375.709 599.18 375.349 603.9 374.789 609.86C373.703 621.333 372.673 632.633 371.699 643.76C371.686 643.97 371.613 644.174 371.489 644.35C371.009 645.043 370.549 645.34 370.109 645.24C369.356 645.06 368.946 644.587 368.879 643.82C367.759 631.38 366.613 618.363 365.439 604.77C365.149 601.36 362.889 598.87 359.309 598.48C349.123 597.38 338.813 596.27 328.379 595.15C328.143 595.124 327.916 595.038 327.719 594.9C327.139 594.473 326.926 593.96 327.079 593.36C327.219 592.8 327.549 592.467 328.069 592.36C329.163 592.133 330.369 591.947 331.689 591.8ZM356.369 595.2C358.869 595.447 360.496 595.713 361.249 596C366.139 597.85 368.139 601.31 368.429 606.39C368.703 611.257 369.103 616.063 369.629 620.81C369.803 622.337 370.113 623.807 370.559 625.22C370.793 625.967 370.926 625.95 370.959 625.17C371.259 618.403 371.706 611.463 372.299 604.35C372.759 598.81 377.099 595.86 382.499 595.37C387.153 594.943 391.426 594.443 395.319 593.87C395.486 593.843 395.566 593.75 395.559 593.59V593.32C395.559 593.28 395.539 593.26 395.499 593.26C392.039 592.82 388.526 592.47 384.959 592.21C377.849 591.67 372.969 589.43 372.289 581.83C371.796 576.263 371.449 570.75 371.249 565.29C371.229 564.777 371.159 564.27 371.039 563.77C370.633 562.077 370.316 562.097 370.089 563.83C369.449 568.763 368.939 574.117 368.559 579.89C368.119 586.66 365.379 591.44 358.239 591.93C353.919 592.23 350.086 592.637 346.739 593.15C343.659 593.63 343.669 594.01 346.769 594.29C350.149 594.603 353.349 594.907 356.369 595.2Z" fill="#866075"/>
<path d="M356.37 595.2C353.35 594.906 350.15 594.603 346.77 594.29C343.67 594.01 343.66 593.63 346.74 593.15C350.087 592.636 353.92 592.23 358.24 591.93C365.38 591.44 368.12 586.66 368.56 579.89C368.94 574.116 369.45 568.763 370.09 563.83C370.317 562.096 370.633 562.076 371.04 563.77C371.16 564.27 371.23 564.776 371.25 565.29C371.45 570.75 371.797 576.263 372.29 581.83C372.97 589.43 377.85 591.67 384.96 592.21C388.527 592.47 392.04 592.82 395.5 593.26C395.54 593.26 395.56 593.28 395.56 593.32V593.59C395.567 593.75 395.487 593.843 395.32 593.87C391.427 594.443 387.153 594.943 382.5 595.37C377.1 595.86 372.76 598.81 372.3 604.35C371.707 611.463 371.26 618.403 370.96 625.17C370.927 625.95 370.793 625.966 370.56 625.22C370.113 623.806 369.803 622.336 369.63 620.81C369.103 616.063 368.703 611.256 368.43 606.39C368.14 601.31 366.14 597.85 361.25 596C360.497 595.713 358.87 595.446 356.37 595.2Z" fill="#F8F1F9"/>
<path d="M873.229 705.41C871.922 704.91 870.629 704.304 869.349 703.59C868.042 702.87 866.739 702.25 865.439 701.73C846.426 694.144 828.802 684.13 812.569 671.69C805.249 666.077 799.329 659.274 794.809 651.28C793.922 649.707 793.519 649.824 793.599 651.63C793.899 658.02 797.089 665.54 800.349 670.8C800.417 670.91 800.439 671.041 800.411 671.168C800.383 671.294 800.307 671.406 800.199 671.48C780.719 684.66 758.929 692.29 735.309 696.48C718.839 699.41 700.789 699.09 686.499 689.42C681.406 685.98 676.499 682.437 671.779 678.79C671.695 678.728 671.594 678.691 671.489 678.684C671.385 678.678 671.28 678.702 671.189 678.754C671.097 678.806 671.023 678.883 670.975 678.977C670.928 679.07 670.908 679.176 670.919 679.28C670.946 679.52 671.029 679.757 671.169 679.99C674.669 685.957 678.266 690.68 681.959 694.16C685.019 697.04 688.209 699.817 691.529 702.49C693.449 704.04 694.189 706.44 694.279 708.79C694.453 713.17 694.122 718.084 693.289 723.53C689.559 747.87 683.099 771.86 674.749 794.95C674.182 796.524 673.272 797.904 672.019 799.09C652.579 817.49 628.519 828.68 601.739 826.03C601.239 825.984 600.756 826.03 600.289 826.17C599.536 826.39 599.529 826.627 600.269 826.88C602.509 827.647 604.796 828.407 607.129 829.16C619.276 833.094 631.809 834.13 644.729 832.27C651.456 831.304 657.866 829.167 663.959 825.86C664.028 825.823 664.105 825.799 664.183 825.791C664.262 825.783 664.342 825.791 664.418 825.814C664.494 825.838 664.566 825.876 664.627 825.926C664.689 825.977 664.741 826.04 664.779 826.11C664.939 826.404 664.962 826.714 664.849 827.04C662.576 833.76 660.172 840.434 657.639 847.06C648.966 869.754 637.499 890.927 623.239 910.58C622.846 911.12 622.539 911.707 622.319 912.34C611.386 924.274 599.986 935.78 588.119 946.86C583.399 951.274 579.316 954.647 575.869 956.98C571.389 960.007 566.949 963.084 562.549 966.21C562.369 966.337 562.236 966.5 562.149 966.7C562.036 966.974 561.956 967.247 561.909 967.52L561.379 967.62C561.112 967.667 560.869 967.77 560.649 967.93L524.119 994.28C524.139 993.714 524.166 993.37 524.199 993.25C525.879 986.93 526.986 980.507 527.519 973.98C528.912 956.967 527.942 940.074 524.609 923.3C521.729 908.64 517.292 893.854 511.299 878.94C497.806 845.354 478.819 815.604 454.339 789.69C435.139 769.36 412.569 752.46 386.559 742.8C386.48 742.77 386.411 742.718 386.361 742.65C386.311 742.582 386.282 742.501 386.276 742.417C386.271 742.332 386.29 742.248 386.331 742.174C386.373 742.1 386.434 742.04 386.509 742C394.776 737.56 403.589 732.707 412.949 727.44C448.189 707.607 486.153 686.01 526.839 662.65C529.746 660.984 532.909 659.077 536.329 656.93C539.529 654.924 542.672 652.984 545.759 651.11C562.052 640.53 578.086 629.874 593.859 619.14C601.799 613.734 610.846 608.197 620.999 602.53C627.286 599.024 633.436 596.44 639.449 594.78C642.876 593.834 647.449 593.074 653.169 592.5C658.109 592.007 662.746 591.624 667.079 591.35C695.999 589.497 724.636 587.55 752.989 585.51C768.496 584.39 783.962 583.7 799.389 583.44C815.489 583.174 830.203 587.47 843.529 596.33C858.989 606.6 872.919 619.24 886.579 631.64C888.829 633.68 891.289 635.38 893.779 637.18C903.593 644.274 912.909 650.96 921.729 657.24C924.649 659.314 927.816 662.204 931.229 665.91C939.179 674.54 935.809 684.87 928.729 692.46C915.049 707.13 892.059 709.91 873.229 705.41Z" fill="#FFBDA7"/>
<path d="M873.231 705.41C861.331 704.98 848.201 699.61 837.851 693.62C828.377 688.133 818.884 682.64 809.371 677.14C808.257 676.5 807.181 676.513 806.141 677.18C797.461 682.74 788.401 687.377 778.961 691.09C755.267 700.404 730.384 705.674 704.311 706.9C704.12 706.908 703.939 706.983 703.8 707.111C703.66 707.24 703.572 707.413 703.551 707.6C702.077 720.473 700.027 732.77 697.401 744.49C695.987 750.817 694.457 757.4 692.811 764.24C689.451 778.24 684.607 794.823 678.281 813.99C671.347 834.983 663.251 854.077 653.991 871.27C646.064 885.984 635.507 899.674 622.321 912.34C622.541 911.707 622.847 911.12 623.241 910.58C637.501 890.927 648.967 869.753 657.641 847.06C660.174 840.433 662.577 833.76 664.851 827.04C664.964 826.713 664.941 826.403 664.781 826.11C664.743 826.04 664.691 825.977 664.629 825.926C664.567 825.875 664.496 825.837 664.42 825.814C664.344 825.791 664.264 825.783 664.185 825.791C664.106 825.799 664.03 825.822 663.961 825.86C657.867 829.167 651.457 831.304 644.731 832.27C631.811 834.13 619.277 833.093 607.131 829.16C604.797 828.407 602.511 827.647 600.271 826.88C599.531 826.627 599.537 826.39 600.291 826.17C600.757 826.03 601.241 825.984 601.741 826.03C628.521 828.68 652.581 817.49 672.021 799.09C673.274 797.904 674.184 796.524 674.751 794.95C683.101 771.86 689.561 747.87 693.291 723.53C694.124 718.084 694.454 713.17 694.281 708.79C694.191 706.44 693.451 704.04 691.531 702.49C688.211 699.817 685.021 697.04 681.961 694.16C678.267 690.68 674.671 685.957 671.171 679.99C671.031 679.757 670.947 679.52 670.921 679.28C670.91 679.176 670.929 679.07 670.977 678.977C671.025 678.883 671.099 678.806 671.19 678.754C671.282 678.702 671.386 678.677 671.491 678.684C671.596 678.69 671.697 678.727 671.781 678.79C676.501 682.437 681.407 685.98 686.501 689.42C700.791 699.09 718.841 699.41 735.311 696.48C758.931 692.29 780.721 684.66 800.201 671.48C800.309 671.406 800.384 671.294 800.412 671.167C800.44 671.041 800.418 670.909 800.351 670.8C797.091 665.54 793.901 658.02 793.601 651.63C793.521 649.824 793.924 649.707 794.811 651.28C799.331 659.274 805.251 666.077 812.571 671.69C828.804 684.13 846.427 694.143 865.441 701.73C866.741 702.25 868.044 702.87 869.351 703.59C870.631 704.304 871.924 704.91 873.231 705.41Z" fill="#F0997B"/>
<path d="M1018.06 716.28L1045.2 731.86C1041.62 731.5 1038.19 731.254 1034.91 731.12C1030.83 730.954 1027.39 731.28 1024.59 732.1C1008.93 736.67 995.491 751.34 996.141 768.36C996.708 783.4 1003.36 795.47 1016.11 804.57C1017.77 805.757 1019.61 806.747 1021.64 807.54C1021.7 807.564 1021.75 807.604 1021.79 807.655C1021.83 807.707 1021.85 807.768 1021.86 807.832C1021.87 807.896 1021.85 807.961 1021.83 808.018C1021.8 808.076 1021.76 808.125 1021.7 808.16C1021.58 808.234 1021.42 808.29 1021.21 808.33C1004.71 804.864 988.628 799.394 972.961 791.92C980.461 776.62 988.091 761.43 995.851 746.35C997.451 743.244 999.091 740.16 1000.77 737.1C1005.22 729.007 1010.98 722.067 1018.06 716.28Z" fill="#F0997B"/>
<path d="M144.33 719.69H72.1695C70.0156 719.69 68.2695 721.437 68.2695 723.59V724.45C68.2695 726.604 70.0156 728.35 72.1695 728.35H144.33C146.483 728.35 148.23 726.604 148.23 724.45V723.59C148.23 721.437 146.483 719.69 144.33 719.69Z" fill="#381668"/>
<path d="M1375.84 719.7H1303.72C1301.54 719.7 1299.78 721.464 1299.78 723.64V724.4C1299.78 726.576 1301.54 728.34 1303.72 728.34H1375.84C1378.02 728.34 1379.78 726.576 1379.78 724.4V723.64C1379.78 721.464 1378.02 719.7 1375.84 719.7Z" fill="#381668"/>
<path d="M1045.2 731.86C1050.53 734.434 1054.04 736.327 1055.71 737.54C1062.56 742.5 1066.57 749.007 1067.75 757.06C1069.7 770.414 1067.94 782.904 1062.47 794.53C1058.59 802.784 1052.52 807.7 1044.27 809.28C1037.4 810.6 1029.71 810.284 1021.21 808.33C1021.42 808.29 1021.58 808.234 1021.7 808.16C1021.75 808.126 1021.8 808.077 1021.83 808.019C1021.85 807.961 1021.87 807.896 1021.86 807.832C1021.85 807.768 1021.83 807.707 1021.79 807.655C1021.75 807.604 1021.7 807.564 1021.64 807.54C1019.61 806.747 1017.77 805.757 1016.11 804.57C1003.36 795.47 996.706 783.4 996.14 768.36C995.49 751.34 1008.93 736.67 1024.59 732.1C1027.39 731.28 1030.83 730.954 1034.91 731.12C1038.19 731.254 1041.62 731.5 1045.2 731.86Z" fill="#FFBDA7"/>
<path d="M471.071 952.18C478.241 984.86 480.161 1022.79 463.951 1053.18C460.337 1059.85 455.841 1065.69 450.461 1070.68C447.221 1073.68 441.741 1077.44 434.021 1081.97C413.841 1093.79 393.721 1105.48 373.661 1117.05C355.387 1127.68 337.254 1138.24 319.261 1148.73C318.067 1149.43 316.637 1150.1 314.971 1150.75C316.171 1147.87 317.807 1145.31 319.881 1143.08C328.601 1133.69 333.791 1120.34 336.601 1107.68C343.281 1077.63 339.171 1044.11 330.011 1014.46C316.517 970.733 294.037 931.886 262.571 897.92C250.661 885.06 236.701 873.36 222.001 863.66C202.291 850.66 179.191 841.32 155.261 841.79C153.654 841.823 151.027 842.186 147.381 842.88C143.814 843.553 140.261 843.74 136.721 843.44L203.301 804.74C222.807 793.46 241.707 782.47 260.001 771.77C294.481 751.59 335.061 767.81 364.621 788.65C375.814 796.543 386.501 805.843 396.681 816.55C433.441 855.19 458.237 900.4 471.071 952.18ZM428.661 1051.04C431.581 1052.57 434.344 1052.78 436.951 1051.67C450.241 1046.01 458.421 1018.46 449.721 1006.81C448.421 1005.07 446.201 1004.03 443.061 1003.68C437.554 1001.7 432.701 1003.39 428.501 1008.74C421.254 1017.97 418.204 1028.47 419.351 1040.26C419.977 1046.67 423.081 1050.26 428.661 1051.04ZM369.471 1080.39C372.317 1082.52 375.444 1082.74 378.851 1081.04C391.061 1074.97 396.651 1054.28 393.451 1041.9C392.171 1036.94 388.661 1033.14 383.001 1034.03C383.661 1033.3 383.237 1032.85 381.731 1032.68C379.237 1032.39 377.014 1032.82 375.061 1033.96C363.291 1040.84 357.731 1061.04 361.461 1073.49C362.887 1078.24 365.557 1080.54 369.471 1080.39Z" fill="#465A65"/>
<path d="M969.46 793.5C954.087 792.74 942.4 797.72 934.4 808.44C928.653 816.134 926.82 824.704 928.9 834.15C930.31 840.56 933.35 847.71 935.71 854.49C938.58 862.7 936.39 868.02 926.61 866.33C914.45 864.23 899.45 860.22 889.49 870.14C885.343 874.28 882.803 879.354 881.87 885.36C880.5 894.21 882.17 902.67 882.39 910.76C882.61 918.88 878.09 920.64 870.99 919.39C866.79 918.644 862.55 918.04 858.27 917.58C848.47 916.51 840.27 919.72 833.85 927.14C826.303 935.874 824.477 947.01 828.37 960.55C820.27 951.024 819.043 940.414 824.69 928.72C834.42 908.56 855.71 904.32 874.71 913.87C875.797 914.417 876.027 914.167 875.4 913.12C869.2 902.73 866.82 889.74 871.23 878.52C876.543 864.98 886.063 857.184 899.79 855.13C910.483 853.537 920.203 855.224 928.95 860.19C930.863 861.277 931.107 860.984 929.68 859.31C925.213 854.057 921.523 848.18 918.61 841.68C914.243 831.934 914.103 821.89 918.19 811.55C921.92 802.11 927.77 795.69 937.16 791.88C947.613 787.64 958.38 788.18 969.46 793.5Z" fill="#F0997B"/>
<path d="M969.46 793.5L971.79 794.48C978.217 798.267 983.484 802.417 987.59 806.93C996.637 816.884 998.617 828.294 993.53 841.16C985.89 860.48 967.45 877.7 944.99 869.92C944.377 869.707 944.21 869.894 944.49 870.48C951.664 885.547 950.404 899.287 940.71 911.7C929.93 925.51 908.97 939.14 891.2 928.85C891.121 928.806 891.031 928.785 890.941 928.791C890.85 928.796 890.763 928.828 890.69 928.882C890.617 928.936 890.561 929.009 890.529 929.094C890.498 929.179 890.491 929.272 890.51 929.36C892.364 937.574 891.514 945.247 887.96 952.38C878.96 970.44 861.34 980.08 841.76 970.96C839.627 969.967 836.827 968.314 833.36 966L828.37 960.55C824.477 947.01 826.304 935.874 833.85 927.14C840.27 919.72 848.47 916.51 858.27 917.58C862.55 918.04 866.79 918.644 870.99 919.39C878.09 920.64 882.61 918.88 882.39 910.76C882.17 902.67 880.5 894.21 881.87 885.36C882.804 879.354 885.344 874.28 889.49 870.14C899.45 860.22 914.45 864.23 926.61 866.33C936.39 868.02 938.58 862.7 935.71 854.49C933.35 847.71 930.31 840.56 928.9 834.15C926.82 824.704 928.654 816.134 934.4 808.44C942.4 797.72 954.087 792.74 969.46 793.5Z" fill="#FFBDA7"/>
<path d="M1099.08 883.09C1089.44 882.17 1079.99 881.176 1070.74 880.109C1070.52 880.084 1070.31 880.013 1070.12 879.901C1069.94 879.789 1069.77 879.639 1069.65 879.46C1068.8 878.26 1069.46 876.999 1070.81 876.859C1081.83 875.726 1092.81 874.516 1103.76 873.229C1109.49 872.549 1110.75 869.089 1111.21 863.809C1111.96 855.129 1112.77 846.396 1113.65 837.609C1114.12 832.809 1113.88 827.979 1114.89 823.169C1114.96 822.823 1115.16 822.516 1115.44 822.306C1115.73 822.095 1116.08 821.997 1116.44 822.03C1117.19 822.103 1117.64 822.52 1117.78 823.28C1118.81 828.74 1118.69 834.249 1119.27 839.689C1120.22 848.603 1120.98 856.913 1121.53 864.619C1121.87 869.369 1123.49 872.639 1128.57 873.249C1138.98 874.509 1149.8 875.666 1161.03 876.719C1161.72 876.786 1162.34 876.996 1162.91 877.349C1163.09 877.464 1163.24 877.623 1163.34 877.812C1163.44 878 1163.49 878.21 1163.48 878.424C1163.48 878.637 1163.42 878.845 1163.31 879.028C1163.2 879.211 1163.04 879.363 1162.86 879.469C1161.98 879.969 1160.95 880.28 1159.76 880.4C1151.41 881.24 1143.06 882.099 1134.7 882.979C1130.07 883.466 1127.46 883.843 1126.85 884.109C1123.76 885.483 1122.05 887.959 1121.73 891.539C1120.57 904.519 1119.38 917.74 1118.17 931.2C1118.1 931.993 1117.89 932.749 1117.55 933.469C1116.68 935.316 1115.84 935.27 1115.05 933.33C1114.74 932.563 1114.54 931.766 1114.47 930.939C1113.4 918.146 1112.36 905.726 1111.34 893.679C1110.58 884.579 1107.42 883.88 1099.08 883.09ZM1116.19 845.249C1115.42 852.336 1114.76 859.249 1114.19 865.989C1113.48 874.459 1107.52 876.49 1099.84 876.96C1096.23 877.18 1092.77 877.536 1089.45 878.03C1086.92 878.41 1086.93 878.726 1089.48 878.979C1094.13 879.453 1098.9 879.959 1103.78 880.499C1107.65 880.933 1110.57 882.643 1112.53 885.629C1113.52 887.136 1114.18 889.97 1114.53 894.13C1115.02 899.956 1115.47 905.823 1115.88 911.729C1115.94 912.569 1116.12 912.596 1116.41 911.809C1116.62 911.249 1116.75 910.67 1116.82 910.07C1117.39 904.99 1117.85 899.629 1118.2 893.989C1118.63 887.189 1120.57 881.59 1127.81 880.77C1132.78 880.21 1137.84 879.613 1142.97 878.979C1146.02 878.606 1146.02 878.219 1142.98 877.819C1139.21 877.319 1135.7 876.979 1132.47 876.799C1125.64 876.409 1119.95 874.519 1118.9 867.489C1118.17 862.563 1117.53 855.233 1116.99 845.499C1116.98 845.246 1116.84 845.119 1116.59 845.119H1116.34C1116.3 845.119 1116.27 845.132 1116.24 845.156C1116.21 845.18 1116.19 845.213 1116.19 845.249Z" fill="#866075"/>
<path d="M314.97 1150.75C308.563 1154.92 303.91 1157.75 301.01 1159.22C272.76 1173.6 240.35 1164.44 214.52 1149.52C188.16 1134.3 165.36 1112.43 146.85 1088.01C124.843 1058.98 108.65 1027.59 98.2695 993.84C89.0895 964.01 84.9595 930.79 91.5895 900.62C95.6295 882.25 104.46 865.1 119.38 853.95C121.153 852.617 124.016 850.827 127.97 848.58C130.983 846.874 133.9 845.16 136.72 843.44C140.26 843.74 143.813 843.554 147.38 842.88C151.026 842.187 153.653 841.824 155.259 841.79C179.189 841.32 202.29 850.66 222 863.66C236.7 873.36 250.66 885.06 262.57 897.92C294.036 931.887 316.516 970.734 330.01 1014.46C339.17 1044.11 343.28 1077.63 336.6 1107.68C333.79 1120.34 328.6 1133.69 319.88 1143.08C317.806 1145.31 316.17 1147.87 314.97 1150.75Z" fill="#273238"/>
<path d="M1116.19 845.25C1116.19 845.214 1116.21 845.181 1116.24 845.157C1116.27 845.133 1116.3 845.12 1116.34 845.12H1116.59C1116.84 845.12 1116.98 845.247 1116.99 845.5C1117.53 855.233 1118.17 862.563 1118.9 867.49C1119.95 874.52 1125.64 876.41 1132.47 876.8C1135.7 876.98 1139.21 877.32 1142.98 877.82C1146.02 878.22 1146.02 878.607 1142.97 878.98C1137.84 879.613 1132.78 880.21 1127.81 880.77C1120.57 881.59 1118.63 887.19 1118.2 893.99C1117.85 899.63 1117.39 904.99 1116.82 910.07C1116.75 910.67 1116.62 911.25 1116.41 911.81C1116.12 912.597 1115.94 912.57 1115.88 911.73C1115.47 905.823 1115.02 899.957 1114.53 894.13C1114.18 889.97 1113.52 887.137 1112.53 885.63C1110.57 882.643 1107.65 880.933 1103.78 880.5C1098.9 879.96 1094.13 879.453 1089.48 878.98C1086.93 878.727 1086.92 878.41 1089.45 878.03C1092.77 877.537 1096.23 877.18 1099.84 876.96C1107.52 876.49 1113.48 874.46 1114.19 865.99C1114.76 859.25 1115.42 852.337 1116.19 845.25Z" fill="#F8F1F9"/>
<path d="M622.33 989.32C619.677 990.64 616.32 991.476 612.26 991.83C594.83 993.33 570.46 987.63 562.6 970.08C562.593 969.566 562.72 969.226 562.98 969.06C563.353 968.806 563.71 968.833 564.05 969.14C571.49 975.86 579.923 979.446 589.35 979.9C599.03 980.366 608.617 978.42 618.11 974.06C635.62 966.01 651.73 953.37 666.41 939.12C689.443 916.753 708.883 891.333 724.73 862.86C724.837 862.673 724.987 862.626 725.18 862.72L725.41 862.84C725.45 862.86 725.46 862.886 725.44 862.92C721.46 871.833 717.64 879.826 713.98 886.9C700.247 913.446 682.517 938.073 660.79 960.78C652.283 969.666 643.01 977.566 632.97 984.48C631.41 985.553 627.863 987.166 622.33 989.32Z" fill="#9A4A4D"/>
<path d="M685.679 995.59C673.629 1003.65 656.249 1004.52 642.509 1001.47C635.479 999.91 629.269 996.88 624.689 991.52C624.589 990.54 625.129 990.31 626.309 990.83C626.789 991.043 627.279 991.223 627.779 991.37C645.299 996.49 665.239 992.55 680.629 983.54C689.409 978.4 698.499 971.737 707.899 963.55C722.799 950.563 736.803 936.577 749.909 921.59C760.076 909.97 768.766 898.673 775.979 887.7C778.339 884.1 780.583 880.417 782.709 876.65C782.816 876.463 782.943 876.443 783.089 876.59L783.309 876.8C783.349 876.84 783.356 876.89 783.329 876.95C782.809 878.163 782.219 879.417 781.559 880.71C778.519 886.623 775.353 892.493 772.059 898.32C751.139 935.36 722.729 968.09 688.779 993.33C688.686 993.403 688.639 993.497 688.639 993.61C688.639 993.81 688.546 993.943 688.359 994.01C687.286 994.383 686.393 994.91 685.679 995.59Z" fill="#9A4A4D"/>
<path d="M747.86 997.23C736.434 1002.47 724.56 1005.24 712.24 1005.55C703.21 1005.77 694.37 1003.75 688.41 996.52C688.63 995.62 689.377 995.397 690.65 995.85C692.964 996.677 695.204 997.22 697.37 997.48C704.69 998.36 711.37 998.003 717.41 996.41C725.57 994.263 732.8 991.513 739.1 988.16C749.807 982.46 760.507 975.233 771.2 966.48C794.59 947.34 814.83 926.24 833.77 902.74C836.19 899.74 838.64 896.49 841.12 892.99C841.227 892.843 841.354 892.817 841.5 892.91L841.73 893.06C841.829 893.127 841.9 893.229 841.93 893.345C841.959 893.461 841.945 893.584 841.89 893.69C836.244 904.737 830.003 914.677 823.17 923.51C805.27 946.657 785.05 967.6 762.51 986.34C760.664 987.873 758.23 989.697 755.21 991.81C752.697 993.57 750.247 995.377 747.86 997.23Z" fill="#9A4A4D"/>
<path d="M524.609 923.3C527.943 940.073 528.913 956.966 527.519 973.98C526.986 980.506 525.879 986.93 524.199 993.25C524.166 993.37 524.139 993.713 524.119 994.28C522.026 1000.46 519.806 1005.94 517.459 1010.72C514.359 1017.01 510.279 1022.7 505.219 1027.78C502.066 1030.95 498.329 1033.84 494.009 1036.45C488.676 1039.68 484.146 1042.27 480.419 1044.23C475.606 1046.76 471.286 1049.75 467.459 1053.2C466.913 1053.7 466.186 1054.01 465.279 1054.12C464.866 1054.17 464.733 1054 464.879 1053.61C464.913 1053.53 464.916 1053.44 464.889 1053.35C464.809 1053.13 464.659 1053.06 464.439 1053.13C464.259 1053.18 464.096 1053.2 463.949 1053.18C480.159 1022.79 478.239 984.86 471.069 952.18C471.936 952.786 473.079 952.683 474.499 951.87C486.553 944.95 498.409 938.063 510.069 931.21C511.363 930.45 513.349 929.363 516.029 927.95C518.016 926.903 519.973 925.793 521.899 924.62C522.182 924.449 522.501 924.35 522.829 924.33C524.063 924.27 524.656 923.926 524.609 923.3Z" fill="white"/>
<path d="M1038.17 976.78C1038.42 977.627 1038.58 978.53 1038.67 979.49C1039.31 987.117 1039.86 994.073 1040.33 1000.36C1040.51 1002.79 1041.81 1004.13 1044.23 1004.4L1063.11 1006.48C1063.27 1006.5 1063.42 1006.56 1063.54 1006.66C1063.66 1006.76 1063.75 1006.89 1063.8 1007.04C1064.15 1008.09 1063.8 1008.7 1062.75 1008.85C1057.57 1009.6 1051.22 1010.38 1043.7 1011.17C1041.89 1011.36 1040.9 1012.36 1040.71 1014.17C1040.06 1020.38 1039.48 1026.76 1038.96 1033.33C1038.81 1035.33 1038.5 1037.26 1038.04 1039.12C1037.99 1039.3 1037.89 1039.47 1037.75 1039.6C1037.61 1039.73 1037.43 1039.81 1037.24 1039.84C1037.05 1039.86 1036.86 1039.83 1036.69 1039.75C1036.52 1039.67 1036.38 1039.53 1036.28 1039.37C1035.87 1038.66 1035.63 1037.87 1035.56 1037C1034.95 1029.25 1034.3 1021.66 1033.61 1014.24C1033.43 1012.35 1032.39 1011.31 1030.5 1011.12C1024.14 1010.49 1017.83 1009.78 1011.58 1008.99C1010.62 1008.87 1010.16 1008.34 1010.2 1007.39C1010.21 1007.2 1010.29 1007.02 1010.41 1006.88C1010.54 1006.74 1010.71 1006.64 1010.9 1006.61C1016.25 1005.74 1022.06 1005.12 1028.31 1004.77C1029.58 1004.7 1030.77 1004.46 1031.86 1004.05C1032.28 1003.9 1032.64 1003.63 1032.92 1003.28C1033.2 1002.93 1033.38 1002.51 1033.44 1002.07C1034.33 995.523 1034.93 989.017 1035.24 982.55C1035.33 980.517 1035.6 978.52 1036.03 976.56C1036.06 976.431 1036.11 976.308 1036.19 976.201C1036.27 976.094 1036.36 976.003 1036.48 975.936C1036.59 975.868 1036.72 975.825 1036.85 975.808C1036.98 975.792 1037.11 975.803 1037.24 975.84C1037.72 975.987 1038.03 976.3 1038.17 976.78ZM1032.69 1009.37C1037.04 1011.54 1035.93 1015.55 1036.72 1019.56C1037.16 1021.81 1037.48 1021.8 1037.68 1019.51C1037.9 1017.03 1037.49 1013.14 1039.11 1011.16C1040.52 1009.44 1043.1 1008.46 1046.84 1008.21C1047.11 1008.2 1047.29 1008.06 1047.38 1007.81L1047.48 1007.55C1047.48 1007.53 1047.49 1007.52 1047.48 1007.5C1047.48 1007.48 1047.48 1007.47 1047.47 1007.45C1047.46 1007.44 1047.45 1007.43 1047.43 1007.42C1047.42 1007.41 1047.41 1007.41 1047.39 1007.41C1040.8 1006.85 1037.57 1005.38 1037.9 997.41C1037.92 996.87 1037.71 996.44 1037.28 996.12L1037.06 995.95C1037.02 995.922 1036.98 995.906 1036.93 995.901C1036.89 995.896 1036.84 995.904 1036.8 995.924C1036.76 995.943 1036.73 995.974 1036.7 996.012C1036.68 996.05 1036.66 996.094 1036.66 996.14C1036.52 1002.74 1034.68 1006.26 1031.13 1006.69C1029.65 1006.88 1028.2 1007.13 1026.79 1007.44C1025.5 1007.73 1025.5 1008 1026.8 1008.23C1028.78 1008.59 1030.84 1008.45 1032.69 1009.37Z" fill="#866075"/>
<path d="M1036.72 1019.56C1035.93 1015.55 1037.04 1011.54 1032.69 1009.37C1030.84 1008.45 1028.78 1008.59 1026.8 1008.23C1025.5 1008 1025.5 1007.73 1026.79 1007.44C1028.2 1007.13 1029.65 1006.88 1031.13 1006.69C1034.68 1006.26 1036.52 1002.74 1036.66 996.14C1036.66 996.094 1036.68 996.05 1036.7 996.012C1036.73 995.974 1036.76 995.943 1036.8 995.924C1036.84 995.904 1036.89 995.896 1036.93 995.901C1036.98 995.905 1037.02 995.922 1037.06 995.95L1037.28 996.12C1037.71 996.44 1037.92 996.87 1037.9 997.41C1037.57 1005.38 1040.8 1006.85 1047.39 1007.41C1047.41 1007.41 1047.42 1007.41 1047.43 1007.42C1047.45 1007.43 1047.46 1007.44 1047.47 1007.45C1047.48 1007.47 1047.48 1007.48 1047.48 1007.5C1047.49 1007.52 1047.48 1007.53 1047.48 1007.55L1047.38 1007.81C1047.29 1008.06 1047.11 1008.2 1046.84 1008.21C1043.1 1008.46 1040.52 1009.44 1039.11 1011.16C1037.49 1013.14 1037.9 1017.03 1037.68 1019.51C1037.48 1021.8 1037.16 1021.81 1036.72 1019.56Z" fill="#F8F1F9"/>
<path d="M443.06 1003.68C438.694 1005.08 435.284 1007.38 432.83 1010.57C427.024 1018.12 424.067 1026.76 423.96 1036.49C423.894 1042.25 425.46 1047.1 428.66 1051.04C423.08 1050.26 419.977 1046.67 419.35 1040.26C418.204 1028.47 421.254 1017.97 428.5 1008.74C432.7 1003.39 437.554 1001.7 443.06 1003.68Z" fill="#273238"/>
<path d="M443.059 1003.68C446.199 1004.03 448.419 1005.07 449.719 1006.81C458.419 1018.46 450.239 1046.01 436.949 1051.67C434.342 1052.78 431.579 1052.57 428.659 1051.04C425.459 1047.1 423.892 1042.25 423.959 1036.49C424.066 1026.76 427.022 1018.12 432.829 1010.57C435.282 1007.38 438.692 1005.08 443.059 1003.68Z" fill="#381668"/>
<path d="M1290.36 1045.81L1228.65 1010.18C1226.53 1008.95 1223.82 1009.68 1222.6 1011.8L1222.54 1011.9C1221.31 1014.02 1222.04 1016.73 1224.16 1017.95L1285.87 1053.58C1287.99 1054.81 1290.7 1054.08 1291.92 1051.96L1291.98 1051.86C1293.21 1049.74 1292.48 1047.03 1290.36 1045.81Z" fill="#381668"/>
<path d="M383 1034.03C378.753 1035.52 375.297 1038.22 372.63 1042.15C365.84 1052.15 360.99 1069.82 369.47 1080.39C365.557 1080.54 362.887 1078.24 361.46 1073.49C357.73 1061.04 363.29 1040.84 375.06 1033.96C377.013 1032.82 379.237 1032.39 381.73 1032.68C383.237 1032.85 383.66 1033.3 383 1034.03Z" fill="#273238"/>
<path d="M383.001 1034.03C388.661 1033.14 392.171 1036.94 393.451 1041.9C396.651 1054.28 391.061 1074.97 378.851 1081.04C375.444 1082.74 372.317 1082.52 369.471 1080.39C360.991 1069.82 365.841 1052.15 372.631 1042.15C375.297 1038.22 378.754 1035.52 383.001 1034.03Z" fill="#381668"/>
<path d="M638.439 1142.57C637.609 1137.87 630.769 1137.41 626.799 1137.1C618.932 1136.49 610.716 1135.73 602.149 1134.8C601.702 1134.75 601.302 1134.6 600.949 1134.33C600.758 1134.18 600.605 1133.99 600.503 1133.77C600.401 1133.56 600.354 1133.32 600.365 1133.08C600.376 1132.84 600.444 1132.6 600.565 1132.4C600.686 1132.19 600.856 1132.02 601.059 1131.89C601.479 1131.63 601.929 1131.48 602.409 1131.43C611.749 1130.52 621.202 1129.59 630.769 1128.63C635.319 1128.17 638.299 1126.57 638.729 1121.75C639.876 1108.9 641.052 1095.92 642.259 1082.82C642.28 1082.59 642.365 1082.36 642.504 1082.17C642.644 1081.98 642.832 1081.84 643.049 1081.75C643.896 1081.42 644.439 1081.62 644.679 1082.35C644.986 1083.26 645.182 1084.27 645.269 1085.38C646.422 1099.69 647.552 1111.94 648.659 1122.12C649.072 1125.87 651.232 1127.95 655.139 1128.37C664.486 1129.38 674.186 1130.41 684.239 1131.48C684.752 1131.53 685.282 1131.64 685.829 1131.79C686.302 1131.92 686.612 1132.2 686.759 1132.63C687.006 1133.36 686.766 1133.86 686.039 1134.11C685.052 1134.46 683.956 1134.7 682.749 1134.84C674.022 1135.86 665.299 1136.87 656.579 1137.88C651.909 1138.43 648.979 1139.79 648.549 1144.66C647.609 1155.09 646.679 1165.77 645.759 1176.72C645.559 1179.11 645.282 1181.4 644.929 1183.59C644.849 1184.08 644.656 1184.45 644.349 1184.72C643.996 1185.01 643.602 1185.06 643.169 1184.86C642.909 1184.74 642.719 1184.55 642.599 1184.29C642.339 1183.73 642.179 1183.14 642.119 1182.52C641.039 1171.28 640.132 1160.5 639.399 1150.19C639.219 1147.72 638.899 1145.18 638.439 1142.57ZM643.589 1102.75C642.796 1108.2 642.179 1113.72 641.739 1119.32C641.369 1124.06 640.889 1127.28 636.499 1129.91C635.159 1130.72 632.589 1131.27 628.789 1131.57C625.556 1131.83 622.422 1132.16 619.389 1132.55C616.269 1132.95 616.272 1133.33 619.399 1133.68C623.772 1134.17 628.296 1134.71 632.969 1135.3C639.149 1136.07 641.399 1140.88 641.739 1146.52C642.092 1152.41 642.559 1158.16 643.139 1163.77C643.146 1163.84 643.166 1163.91 643.199 1163.97C643.239 1164.04 643.309 1164.09 643.409 1164.1C643.556 1164.12 643.639 1164.06 643.659 1163.91C644.466 1157.3 645.086 1151.17 645.519 1145.52C646.026 1138.97 649.456 1135.43 655.809 1134.9C659.769 1134.57 663.539 1134.16 667.119 1133.68C670.106 1133.28 670.102 1132.92 667.109 1132.6C664.136 1132.28 661.206 1131.95 658.319 1131.6C653.669 1131.04 650.369 1130.95 647.439 1127.03C646.319 1125.53 645.622 1122.77 645.349 1118.76C644.982 1113.43 644.486 1108.07 643.859 1102.69C643.859 1102.65 643.846 1102.62 643.819 1102.59C643.792 1102.57 643.772 1102.54 643.759 1102.51C643.679 1102.34 643.632 1102.35 643.619 1102.54C643.612 1102.61 643.602 1102.68 643.589 1102.75Z" fill="#866075"/>
<path d="M643.59 1102.75C643.604 1102.68 643.614 1102.61 643.62 1102.54C643.634 1102.35 643.68 1102.34 643.76 1102.51C643.774 1102.54 643.794 1102.57 643.82 1102.59C643.847 1102.62 643.86 1102.65 643.86 1102.69C644.487 1108.07 644.984 1113.43 645.35 1118.76C645.624 1122.77 646.32 1125.53 647.44 1127.03C650.37 1130.95 653.67 1131.04 658.32 1131.6C661.207 1131.95 664.137 1132.28 667.11 1132.6C670.104 1132.92 670.107 1133.28 667.12 1133.68C663.54 1134.16 659.77 1134.57 655.81 1134.9C649.457 1135.43 646.027 1138.97 645.52 1145.52C645.087 1151.17 644.467 1157.3 643.66 1163.91C643.64 1164.06 643.557 1164.12 643.41 1164.1C643.31 1164.09 643.24 1164.04 643.2 1163.97C643.167 1163.91 643.147 1163.84 643.14 1163.77C642.56 1158.16 642.094 1152.41 641.74 1146.52C641.4 1140.88 639.15 1136.07 632.97 1135.3C628.297 1134.71 623.774 1134.17 619.4 1133.68C616.274 1133.33 616.27 1132.95 619.39 1132.55C622.424 1132.16 625.557 1131.83 628.79 1131.57C632.59 1131.27 635.16 1130.72 636.5 1129.91C640.89 1127.28 641.37 1124.06 641.74 1119.32C642.18 1113.72 642.797 1108.2 643.59 1102.75Z" fill="#F8F1F9"/>
<path d="M436.227 1222.56L436.123 1222.5C434.009 1221.28 431.305 1222 430.085 1224.12L394.415 1285.9C393.194 1288.02 393.919 1290.72 396.033 1291.94L396.137 1292C398.251 1293.22 400.954 1292.5 402.175 1290.38L437.845 1228.6C439.065 1226.48 438.341 1223.78 436.227 1222.56Z" fill="#381668"/>
<path d="M1011.88 1222.51L1011.79 1222.56C1009.67 1223.79 1008.95 1226.5 1010.17 1228.61L1045.81 1290.35C1047.03 1292.46 1049.74 1293.19 1051.86 1291.97L1051.95 1291.92C1054.07 1290.69 1054.79 1287.98 1053.57 1285.87L1017.93 1224.13C1016.71 1222.02 1014 1221.29 1011.88 1222.51Z" fill="#381668"/>
<path d="M724.409 1299.75H723.589C721.441 1299.75 719.699 1301.49 719.699 1303.64V1375.88C719.699 1378.03 721.441 1379.77 723.589 1379.77H724.409C726.558 1379.77 728.299 1378.03 728.299 1375.88V1303.64C728.299 1301.49 726.558 1299.75 724.409 1299.75Z" fill="#381668"/>
</svg>
