<svg width="247" height="247" viewBox="0 0 247 247" fill="none" xmlns="http://www.w3.org/2000/svg">
<rect width="247" height="247" rx="11" fill="#063E0C"/>
<path d="M187.477 91.5737C191.534 93.8574 200.016 98.2219 205.121 106.228C209.113 112.486 210.257 120.967 208.537 127.138C206.436 134.674 203.704 137.239 198.04 142.085C197.336 142.687 197.721 143.62 198.527 144.998C199.075 144.958 199.557 144.928 199.982 144.906C199.715 144.411 199.458 143.923 199.165 143.407C198.183 141.686 200.665 143.561 206.518 135.549C213.797 125.585 211.974 107.471 199.244 97.4244C195.799 94.7051 190.489 90.9434 186.752 89.5289C186.28 89.3495 187.152 88.4577 187.837 85.6595C187.265 85.6257 186.67 85.5888 186.052 85.5498C185.674 87.689 185.209 89.1927 185.116 89.7103C185.03 90.19 185.547 90.4883 187.478 91.5748L187.477 91.5737Z" fill="#F1EFC8"/>
<path d="M77.3668 61.4365C78.7495 61.8137 80.2614 62.2699 82.0756 62.7721C85.3577 63.6803 82.8956 62.7496 86.7609 52.9096C88.7883 47.7487 91.4451 44.9515 95.4847 41.897C102.251 36.7812 124.446 28.3126 135.084 42.2629C135.293 42.5376 138.879 46.0718 141.843 55.1594C142.805 58.1073 143.433 55.6719 151.956 53.6322C154.094 53.1207 156.419 52.9403 158.802 53.0438C158.863 52.5078 158.924 51.9871 158.98 51.4889C156.23 51.4377 153.526 51.7882 150.993 52.5836C146.747 53.9182 145.472 54.4491 144.561 54.8304C143.564 55.2476 143.349 55.0231 143.193 54.4758C141.496 49.8151 141.115 47.7323 137.952 43.4088C133.221 36.939 129.525 34.7107 124.913 33.4387C117.696 31.4491 102.54 33.7615 92.422 42.4658C88.2615 46.0451 84.5766 51.3854 82.9848 60.6545C82.7326 62.1253 80.3916 60.6678 76.7969 59.652C76.9865 60.2373 77.1771 60.8338 77.3678 61.4376L77.3668 61.4365Z" fill="#F1EFC8"/>
<path d="M44.9834 154.527C41.1519 161.014 41.402 168.567 44.3315 174.703C44.679 174.282 45.0254 173.869 45.3719 173.461C45.0254 172.706 44.7415 171.962 44.5416 171.248C42.9939 165.709 43.7267 161.037 45.786 155.668C46.3056 154.312 46.8161 153.397 46.0812 152.817C40.8813 148.715 36.1407 145.3 35.1167 136.047C33.2256 118.951 50.1033 112.728 51.1211 110.315C51.4409 109.558 47.388 105.528 45.1689 98.6074C44.6933 98.7437 44.2567 98.8555 43.862 98.9406C44.8922 103.059 46.5701 106.819 48.8999 109.436C50.2898 110.997 48.207 109.079 40.1023 117.342C35.8927 121.635 33.6377 127.387 33.4142 132.072C32.6619 147.835 45.6896 153.332 44.9834 154.529V154.527Z" fill="#F1EFC8"/>
<path d="M176.34 196.81C172.722 203.072 165.957 209.38 152.819 211.531C151.262 211.787 148.161 212.64 142.457 210.912C139.595 210.045 135.006 209.075 129.649 204.178C122.94 198.048 124.005 197.771 123.259 197.729C123.236 197.729 122.613 197.379 122.845 197.799C122.983 198.051 122.571 198.104 120.175 200.634C115.098 205.991 110.918 209.823 103.215 211.696C100.244 212.419 96.7197 212.88 93.6632 212.773C79.1553 212.26 73.7526 204.733 71.0589 201.165C67.4796 196.424 67.1229 194.406 65.7135 188.765C65.0001 185.908 64.8299 187.386 56.9395 184.464C56.8144 184.418 56.6935 184.361 56.5695 184.312C56.2066 184.706 55.8489 185.092 55.4922 185.474C57.6795 186.431 60.3568 187.265 63.7701 187.935C64.5337 188.085 64.4763 202.197 80.3484 210.835C90.1464 216.169 104.011 214.731 112.002 209.858C116.743 206.967 119.587 203.383 123.121 199.264C123.535 198.781 126.249 204.239 131.423 207.722C138.685 212.61 150.43 215.295 160.044 211.618C167.972 208.586 172.939 204.431 176.099 200.216C176.04 199.125 176.156 197.99 176.339 196.808L176.34 196.81Z" fill="#F1EFC8"/>
<path d="M144.809 92.7935C135.501 85.7394 123.573 83.1431 115.401 84.123C68.8634 89.7072 62.2788 148.43 100.258 166.337C101.802 167.064 101.928 167.02 101.953 167.358C102.048 168.582 103.193 175.666 103.196 175.688C103.948 181.795 104.353 181.272 103.762 181.807C101.643 183.718 101.503 187.899 104.102 190.28C104.449 190.598 102.449 192.702 104.134 196.127C105.439 198.781 109.79 199.039 110.145 199.127C115.914 200.548 129.769 199.786 133.347 197.292C135.88 195.528 136.518 193.366 136.114 191.308C135.659 188.986 134.996 188.978 135.702 188.028C136.306 187.214 136.932 186.071 136.798 183.879C136.621 180.939 134.308 180.569 134.369 179.845C134.587 177.338 134.949 171.362 135.048 167.563C135.066 166.857 144.604 164.481 153.261 153.142C167.267 134.798 163.843 107.219 144.806 92.7935H144.809ZM132.499 188.608C132.007 189.558 127.261 190.4 126.719 190.493C122.521 191.221 118.2 191.52 114.712 191.52C110.611 191.52 107.66 191.105 107.413 190.482C107.374 190.386 107.32 190.138 107.652 189.918C108.262 189.513 114.522 191.576 130.689 188.349C131.762 188.135 131.998 188.062 132.39 188.262C132.515 188.327 132.566 188.48 132.5 188.607L132.499 188.608ZM138.806 163.251C132.686 166.487 133.707 165.464 133.433 169.758C133.376 170.655 132.925 176.388 132.865 179.576C132.845 180.737 111.374 183.108 106.206 181.407C105.783 181.266 105.932 181.292 105.38 178.09C103.437 166.829 103.2 166.905 103.2 166.641C103.198 165.771 102.462 165.884 99.7364 164.168C95.336 161.401 91.728 158.924 88.2338 155.169C73.2217 139.023 73.7772 113.435 89.4782 97.9082C106.749 80.8297 135.641 82.0135 151.221 101.669C167.977 122.809 159.31 152.406 138.806 163.251Z" fill="#F1EFC8"/>
<path d="M81.8938 74.1748C77.4207 64.6279 75.1596 48.847 70.1842 48.8593C68.3218 48.8634 67.4649 49.1371 67.0344 49.2786C66.7064 49.3862 66.8847 49.3134 66.2359 47.5924C65.9028 46.7068 68.7164 47.7503 68.2008 45.0617C67.7109 42.5013 65.1463 43.4771 60.4221 45.2575C58.3424 46.0396 58.0995 46.1708 57.7653 46.4188C57.5009 46.6167 57.2497 47.3249 57.3533 47.5986C58.2163 49.8987 58.9328 49.5871 61.1775 48.886C61.3938 48.8184 61.4307 49.3606 61.4666 49.5389C61.6142 50.2636 61.9975 50.6336 61.525 50.7935C57.997 52.001 58.1579 52.003 57.916 51.6791C57.138 50.6326 54.1973 47.4008 52.8976 47.2931C50.1721 47.0676 42.2489 50.1611 39.4844 52.1988C38.728 52.7574 38.3436 53.4688 38.3252 54.379C38.2954 55.9267 38.2883 57.4775 38.4512 59.0202C38.5363 59.832 38.4974 59.5634 35.942 60.8508C35.4685 61.0896 35.8436 60.4941 34.8289 59.2734C34.1001 58.397 33.2555 58.4595 32.2787 58.7875C29.7644 59.6341 26.347 62.1843 27.3638 64.6638C27.8835 65.9328 27.9552 65.9717 27.7451 66.1778C26.5264 67.3739 25.7054 68.5558 26.347 70.3198C27.4581 73.3784 27.1865 71.4514 32.2008 86.2606C33.0474 88.7626 34.4455 92.7724 35.5843 95.1565C36.8635 97.8338 39.8811 99.2555 42.3237 99.1335C47.7931 99.2975 78.5646 83.9902 81.6212 81.3016C83.7737 79.4084 83.1095 76.7711 81.8928 74.1738L81.8938 74.1748ZM29.5717 70.2326C29.5881 68.3333 32.2213 68.3374 32.2438 70.2808C32.2664 72.1115 29.5553 72.1074 29.5717 70.2326ZM29.7551 64.6095C29.298 64.9672 28.7875 65.2071 28.7353 64.9611C28.6092 64.3676 27.9317 63.7475 28.7804 62.6384C29.6977 61.4381 31.3726 60.3106 32.8998 59.8873C33.7321 59.6546 33.767 59.9294 34.5993 61.3521C34.7305 61.5776 34.5009 61.5591 33.1684 62.3319C30.8252 63.6911 30.284 64.1954 29.7551 64.6085V64.6095ZM34.5532 69.7714C32.578 69.7232 33.031 66.7651 34.6915 66.9219C35.365 66.9178 35.982 67.5338 36.0066 68.24C36.0363 69.0385 35.3598 69.7919 34.5532 69.7714ZM62.7304 48.3632C64.8952 47.6181 64.8768 47.5771 64.9803 47.8231C65.6793 49.5 65.788 49.5779 65.5184 49.6568C63.0963 50.3558 63.1148 50.3558 63.0553 50.1508C62.5951 48.6 62.5018 48.4422 62.7304 48.3632ZM60.6148 55.5464C61.5537 54.6424 65.0213 53.4114 66.0381 53.0946C68.6672 52.2757 69.0741 52.1404 69.6738 53.1223C70.0991 53.8173 70.6188 55.1139 70.6188 56.0938C70.7982 57.2572 69.7814 57.7984 63.5463 60.0288C63.0564 60.203 61.9176 60.3711 61.4625 59.7664C60.7009 58.7526 59.6236 56.5028 60.6148 55.5464ZM50.9409 51.2527C52.0356 50.8807 52.9396 52.2234 53.6499 53.1459C54.0476 53.6635 54.105 53.314 42.7757 57.8107C42.4395 57.9439 42.5092 57.9624 42.3391 56.6832C42.5553 54.0243 41.6052 54.4364 50.9409 51.2527ZM53.3599 60.5279C59.6872 61.1901 63.8405 66.4945 63.4981 71.9567C62.5849 86.5322 44.0354 86.4604 41.4319 74.347C39.6864 66.2208 46.3858 59.7961 53.3599 60.5279ZM78.7747 81.769C72.9374 84.7723 48.7053 97.2896 42.1658 97.8595C41.5795 97.7805 40.9861 97.719 40.3946 97.5376C32.2254 95.0171 71.856 80.0398 80.2097 77.79C82.1675 77.2631 83.1054 79.5427 78.7747 81.769Z" fill="#F1EFC8"/>
<path d="M46.1841 93.2582C45.1755 92.7303 42.7401 94.3826 43.4269 95.673C43.6339 96.0625 44.0675 96.2768 44.5933 96.244C45.1202 96.3198 45.7136 95.9457 45.7772 95.6218C45.9227 94.8879 43.7077 95.3635 45.1038 94.5343C45.3539 94.3856 45.6901 94.235 46.0744 94.1653C46.6105 94.0679 46.6372 93.497 46.1841 93.2582Z" fill="#F1EFC8"/>
<path d="M78.2149 80.6215C77.6235 80.6901 77.4646 80.028 77.7413 79.6692C78.0324 79.292 78.6679 78.9384 78.997 79.333C79.572 80.0229 78.7346 80.6994 78.2149 80.6215Z" fill="#F1EFC8"/>
<path d="M51.0626 80.0701C45.2877 79.1855 42.6699 73.138 44.7148 68.711C48.2766 60.9989 58.5687 62.5928 60.2466 70.0015C61.5883 75.924 56.3803 80.885 51.0626 80.0701Z" fill="#F1EFC8"/>
<path d="M63.823 58.7958C63.617 58.7958 63.4233 58.6707 63.3444 58.4668L62.5459 56.3901C62.4444 56.1257 62.5766 55.8294 62.8411 55.728C63.1035 55.6255 63.4007 55.7587 63.5032 56.0221L64.3017 58.0988C64.4309 58.435 64.1808 58.7958 63.823 58.7958Z" fill="#F1EFC8"/>
<path d="M65.9773 57.9233C65.7713 57.9233 65.5776 57.7982 65.4987 57.5943L64.7002 55.5176C64.5987 55.2532 64.7309 54.9569 64.9954 54.8555C65.2568 54.754 65.555 54.8862 65.6575 55.1496L66.456 57.2263C66.5852 57.5625 66.3351 57.9233 65.9773 57.9233Z" fill="#F1EFC8"/>
<path d="M68.1297 57.0493C67.9236 57.0493 67.7299 56.9242 67.651 56.7202L66.8525 54.6436C66.7511 54.3791 66.8833 54.0829 67.1477 53.9814C67.4091 53.88 67.7074 54.0122 67.8099 54.2756L68.6083 56.3523C68.7375 56.6885 68.4874 57.0493 68.1297 57.0493Z" fill="#F1EFC8"/>
<path d="M120.6 47.7565C120.646 47.8969 127.357 62.5134 125.51 66.391C123.04 71.5775 116.602 71.3315 115.745 67.8096C114.806 63.9525 120.215 60.3343 123.993 62.1035C124.049 62.129 124.119 62.1239 124.184 62.1311C124.171 61.8092 120.778 52.3925 120.769 52.37C117.307 53.6348 109.536 56.1625 106.537 57.1425C105.754 57.3976 105.511 57.3311 105.644 57.655C107.983 63.3345 109.007 68.0967 109.257 68.8582C110.332 72.1259 105.007 75.7595 100.959 72.8905C97.1506 70.1917 101.149 64.0683 107.134 66.3213C107.079 65.6591 102.877 55.4675 102.835 55.364C101.872 52.9737 101.66 52.5596 103.76 51.3552C107.927 48.9649 117.705 46.5285 117.815 46.509C119.123 46.2764 120.176 46.4588 120.6 47.7565ZM120.388 51.2066C120.126 50.4153 119.615 48.8583 119.36 48.023C119.268 47.7196 119.112 47.8733 118.118 48.0763C109.964 49.7378 103.286 52.8517 103.215 52.987C103.107 53.19 103.44 53.3314 103.527 53.5364C103.571 53.64 103.578 53.5099 104.983 56.1882C105.348 56.8852 105.305 56.3009 106.639 55.7976C120.141 50.7013 119.475 51.6873 120.388 51.2066Z" fill="#F1EFC8"/>
<path d="M189.952 43.8798C190.203 44.1329 190.079 44.1288 193.131 42.1936C201.573 36.8421 207.831 37.0143 217.205 41.0754C218.081 41.4546 218.908 41.9353 219.692 42.4827C219.975 42.6805 220.198 42.8896 220.135 43.3109C220.055 43.847 220.496 43.7342 220.494 46.5837C220.494 47.5616 220.679 48.4441 220.814 52.9428C221.031 60.1783 220.613 59.1246 220.598 60.2172C220.598 60.2398 220.498 67.2877 220.023 72.6874C219.248 81.4798 218.908 81.3743 217.93 81.0411C217.403 80.8618 217.275 80.7234 217.022 80.7839C217.008 81.4716 217.071 81.977 216.674 82.4075C216.472 82.6268 216.768 83.2377 216.883 85.9632C217.026 89.3211 209.782 86.3957 209.624 87.2721C209.62 87.2957 207.731 95.7314 207.72 95.754C207.39 96.4295 206.686 96.1589 206.19 95.4844C204.606 93.334 204.808 93.5226 204.56 93.7593C203.069 95.1851 202.888 95.386 202.17 95.671C201.722 95.8483 201.296 95.6023 201.241 95.1236C201.125 94.1048 201.485 93.624 202.328 86.8549C202.447 85.8986 203.147 86.7309 181.394 85.2406C156.894 83.5616 156.855 85.7326 156.936 80.6752C156.942 80.2724 156.922 80.2293 156.499 80.1853C156.15 80.1484 155.889 80.0151 155.895 79.5846C155.913 77.8554 159.704 45.2502 159.704 45.2276C159.766 44.1278 159.881 42.33 160.327 41.3777C160.578 40.8417 160.833 40.6449 167.038 38.6061C174.472 36.1646 184.828 38.7189 189.953 43.8777L189.952 43.8798ZM203.322 39.4067C196.752 39.8433 192.433 43.8562 190.437 44.6116C190.454 54.8042 186.306 81.283 186.315 81.8427C187.918 81.2953 194.607 76.3825 202.595 76.5281C213.088 76.7197 218.117 80.8956 218.265 79.9454C219.843 69.7682 219.914 54.9293 219.52 43.5251C219.506 43.1202 219.369 43.2883 217.958 42.6785C212.243 40.2082 209.115 39.0213 203.321 39.4056L203.322 39.4067ZM170.923 38.7466C165.233 39.6824 165.905 39.9263 161.705 41.224C160.52 41.5899 160.803 43.0751 160.091 49.2098C158.88 59.633 157.412 76.0289 156.668 79.1398C156.514 79.7855 160.16 77.1851 164.429 76.6193C172.411 75.5615 178.36 78.8323 185.536 81.8263C185.805 79.8716 185.463 81.8171 186.173 76.1847C187.544 65.3125 188.451 61.723 189.237 49.7079C189.58 44.462 189.616 44.6024 189.344 44.4527C187.097 43.2125 181.73 38.2084 170.924 38.7486L170.923 38.7466ZM176.289 80.2375C177.347 80.502 179.636 81.2502 180.514 81.898C180.651 81.9995 180.498 82.2486 180.155 82.1717C175.268 81.0811 168.025 78.864 161.225 81.2933C161.57 82.2896 161.531 82.3542 161.961 82.2896C166.355 81.6223 169.621 81.2082 176.878 82.5243C186.628 84.2924 186.131 84.8962 191.941 83.4212C200.47 81.2554 202.739 82.8021 202.758 82.1789C202.807 80.5389 202.824 80.4774 202.516 80.4774C199.038 80.4774 197.35 80.174 190.519 82.511C190.014 82.6842 189.546 81.7966 193.808 80.7008C201.994 78.5975 207.792 79.5375 216.069 81.6971C216.232 80.4272 216.288 80.4231 216.101 80.3564C206.311 76.8684 199.746 76.3569 189.913 81.0206C186.252 82.757 185.86 82.9743 184.96 82.5407C176.866 78.6519 168.743 75.911 160.232 78.7738C158.694 79.2915 158.763 79.3099 158.79 79.6963C158.896 81.1846 158.844 81.1477 159.099 81.0627C163.837 79.4893 168.135 78.1988 176.289 80.2396V80.2375ZM208.965 81.6244C208.962 81.3917 208.92 81.158 208.656 81.1375C208.261 81.1057 207.874 81.0001 207.479 80.9561C203.593 80.5194 203.79 80.4794 203.82 80.7582C204.26 84.8982 202.273 93.3996 202.233 94.3139C202.529 94.2103 202.389 94.2698 202.59 94.0812C204.973 91.8436 204.625 91.8897 206.056 93.3862C206.893 94.2626 206.836 94.6562 207.052 93.7153C208.798 86.1016 209.015 86.0421 208.966 81.6233L208.965 81.6244ZM209.984 83.1403C210.012 83.4858 210.012 83.4878 210.317 83.5729C211.888 84.0116 213.479 84.3919 214.995 85.013C215.337 85.1534 215.14 84.7711 215.101 83.6077C215.066 82.554 215.291 82.346 214.845 82.2373C213.633 81.9421 211.699 81.5659 209.901 81.3722C209.912 82.428 209.901 82.103 209.984 83.1403Z" fill="#F1EFC8"/>
<path d="M201.759 65.4047C204.66 65.3134 207.671 65.3278 210.667 66.0371C210.98 66.1109 211.823 66.319 212.086 66.5865C212.471 66.977 212.058 67.5572 211.352 67.4311C198.805 65.1781 195.614 68.3936 192.224 68.9419C191.937 68.9881 191.66 68.659 191.978 68.3802C193.347 67.181 198.863 65.4959 201.759 65.4047Z" fill="#F1EFC8"/>
<path d="M204.011 54.5605C204.102 54.5646 210.491 54.5646 211.55 55.3149C212.116 55.7147 211.406 56.1083 210.807 56.0827C204.039 55.8028 204.386 54.7573 193.663 58.5232C192.805 58.8245 192.485 58.1132 193.412 57.6581C198.011 55.4021 200.046 55.1714 204.011 54.5605Z" fill="#F1EFC8"/>
<path d="M217.86 46.4737C217.672 53.7717 218.152 51.6551 213.844 51.1354C212.26 50.9448 211.839 50.6363 212.091 45.6086C212.169 44.065 212.209 43.7831 212.809 43.5894C213.92 43.2317 215.553 43.6355 216.089 43.9C216.562 44.1347 217.008 44.4299 217.444 44.7302C217.768 44.9537 217.725 45.2827 217.814 46.4737H217.86ZM212.77 44.7948C212.744 45.0336 212.756 45.0367 212.846 48.1599C212.896 49.9198 212.674 49.9598 213.526 50.0182C216.969 50.256 216.945 51.6028 216.923 50.2027C216.893 48.1558 216.869 47.9651 216.962 45.9889C217.038 44.3838 212.845 44.0916 212.769 44.7948H212.77Z" fill="#F1EFC8"/>
<path d="M209.297 43.2071C209.89 43.2419 210.187 43.7801 209.828 43.9912C208.267 44.9076 204.288 43.366 198.392 46.1622C197.569 46.5527 195.623 47.4414 194.118 48.0133C193.748 48.1537 193.538 47.753 193.813 47.5418C197.496 44.7056 202.993 42.8401 209.297 43.2071Z" fill="#F1EFC8"/>
<path d="M201.544 72.0265C193.435 72.6466 191.432 74.6444 191.192 73.9515C190.508 71.9732 202.627 70.5351 204.693 70.8539C205.351 70.9554 205.369 71.0056 205.068 71.5827C204.939 71.8307 205.011 71.7621 201.544 72.0265Z" fill="#F1EFC8"/>
<path d="M205.838 48.318C206.216 48.7321 205.498 49.0478 204.847 49.1708C203.178 49.4885 201.855 49.4209 199.127 50.4008C197.202 51.0927 195.627 52.0316 194.288 52.5051C193.789 52.6814 193.649 52.1197 193.911 51.9116C198.615 48.1817 205.236 47.6548 205.838 48.317V48.318Z" fill="#F1EFC8"/>
<path d="M201.82 61.0555C195.248 61.7033 193.568 63.1496 192.641 63.372C192.183 63.4817 191.933 63.0153 192.22 62.7252C193.419 61.5157 202.473 59.068 203.784 60.1976C204.184 60.543 203.545 60.8771 203.022 60.9561C202.627 61.0165 202.222 61.0155 201.819 61.0545L201.82 61.0555Z" fill="#F1EFC8"/>
<path d="M167.168 65.2161C163.479 65.497 162.144 65.9838 162.096 65.2879C162.037 64.4207 166.776 63.9605 167.545 63.9267C173.877 63.6427 176.893 64.4812 182.569 66.0956C183.063 66.236 183.473 66.809 183.084 67.1441C181.973 68.1035 177.831 64.4043 167.168 65.2161Z" fill="#F1EFC8"/>
<path d="M175.942 54.0359C180.83 54.9021 181.513 54.9318 182.663 55.7723C182.785 55.8615 182.756 55.9711 182.641 56.046C182.144 56.3688 182.038 56.1997 178.68 55.6524C169.78 54.204 168.37 55.3254 163.797 55.8943C163.02 55.9906 163.135 55.1194 163.483 55.0046C166.982 53.8432 172.019 53.341 175.942 54.0359Z" fill="#F1EFC8"/>
<path d="M178.383 70.6898C178.705 70.823 178.813 71.4524 178.317 71.5549C177.583 71.7056 177.512 71.518 174.476 70.9245C167.652 69.591 161.835 72.337 161.263 71.3202C160.551 70.0574 171.728 67.9407 178.383 70.6898Z" fill="#F1EFC8"/>
<path d="M178.244 60.5472C172.329 59.8871 174.493 59.5539 168.738 59.9055C166.965 60.0142 163.136 60.9664 162.605 60.7153C162.163 60.5062 162.464 60.0367 162.874 59.8942C163.686 59.6113 164.56 59.4115 165.402 59.2454C174.261 57.5039 180.277 59.8768 178.866 60.377C178.671 60.4467 178.462 60.4877 178.244 60.5472Z" fill="#F1EFC8"/>
<path d="M179.873 44.7399C178.557 45.1786 175.924 43.3848 171.011 43.8133C168.739 44.0111 167.546 44.5677 164.691 45.4277C163.948 45.6511 163.637 45.2739 163.856 44.9377C164.318 44.2294 168.408 43.2444 168.876 43.1686C176.415 41.9529 181.271 44.2735 179.873 44.7399Z" fill="#F1EFC8"/>
<path d="M171.12 47.3794C173.866 47.3661 174.171 47.3056 176.386 48.1266C176.853 48.2999 177.292 48.8308 176.8 48.8851C175.199 49.0645 173.82 48.2886 170.74 48.4618C166.537 48.6976 163.842 50.1838 163.417 49.4694C163.282 49.2418 163.85 48.8431 164.096 48.7447C166.617 47.7341 169.443 47.6674 171.12 47.3794Z" fill="#F1EFC8"/>
<path d="M146.145 124.636C147.169 122.835 148.204 121.291 148.316 118.234C148.403 115.882 147.433 112.735 145.264 110.801C143.13 108.898 140.778 108.722 139.963 108.525C138.191 108.095 137.134 108.674 136.303 108.393C135.25 108.037 134.659 107.549 134.266 106.992C132.704 104.78 130.836 102.967 127.931 102.997C126.227 103.015 125.162 103.712 123.697 104.664C123.037 105.092 122.807 104.692 121.232 103.337C119.518 101.865 117.055 101.146 114.483 101.778C109.994 102.885 109.582 106.667 107.438 105.881C103.227 104.337 97.9734 106.576 96.6235 110.778C96.4974 111.169 96.2627 111.072 95.3443 111.072L95.3464 111.046C94.1225 111.159 92.5041 111.192 91.1101 112.468C88.6285 114.74 86.8963 119.86 89.4198 122.896C92.3062 126.369 92.6445 125.164 91.1541 128.388C90.2736 130.289 90.4622 131.702 90.8179 132.941C95.0594 147.69 112.161 135.755 114.661 159.018C115.078 162.912 115.804 177.436 115.804 177.46C115.824 178.264 116.248 178.847 117.016 179.082C117.726 179.3 118.451 179.448 119.203 179.234C120.535 178.856 120.671 178.043 120.738 176.869C120.965 172.855 118.711 150.494 127.161 149.564C133.448 148.872 137.891 149.782 139.823 144.925C140.557 143.076 139.803 142.508 140.488 142.128C141.032 141.826 148.103 140.918 149.153 134.014C150.04 128.169 145.355 126.022 146.144 124.635L146.145 124.636ZM128.924 118.335C129.666 118.476 130.835 117.584 131.131 116.839C131.508 115.893 130.36 114.822 132.099 114.44C133.617 114.104 135.209 112.763 134.629 111.283C134.295 110.43 134.233 109.917 134.44 109.714C135.009 109.16 136.137 111.112 136.052 112.132C135.867 114.27 133.765 115.584 132.384 115.674C132.318 115.678 132.299 115.689 132.299 115.689C132.272 115.792 132.44 116.312 132.299 117.192C132.153 118.108 131.262 118.693 130.548 119.164C130.103 119.457 129.65 119.538 129.081 119.444C128.896 119.412 128.758 119.302 128.537 119.125C128.15 118.818 128.378 118.233 128.923 118.334L128.924 118.335ZM120.751 115.796C121.517 115.509 122.44 114.584 122.025 113.872C121.506 112.986 121.073 112.247 121.805 111.538C123.262 110.127 123.488 109.841 122.926 108.007C122.646 107.088 123.237 106.315 123.568 106.851C125.922 110.683 122.396 112.098 122.664 112.531C123.246 113.473 123.708 114.586 122.719 115.697C120.859 117.784 119.477 116.275 120.751 115.796ZM103.678 134.227C103.192 135.389 101.264 136.255 100.214 136.255C97.8935 136.255 95.3064 133.298 95.3884 130.933C95.4366 129.519 96.1777 128.398 97.3585 127.048C97.9212 126.406 97.4425 126.281 97.0345 124.521C96.522 122.317 98.2461 120.566 99.6329 120.027C101.219 119.41 101.886 120.444 101.508 120.967C101.164 121.438 100.88 120.782 99.8543 121.434C97.6998 122.806 98.1344 123.764 99.0015 126.063C99.6001 127.648 98.0903 127.676 97.1637 129.614C96.7086 130.567 96.7342 131.425 97.2426 132.236C97.7439 133.033 98.3783 133.726 99.1307 134.292C99.9681 134.925 100.375 134.668 102.18 134.081C103.106 133.782 103.487 133.659 103.662 133.848C103.783 133.979 103.704 134.164 103.679 134.226L103.678 134.227ZM105.388 116.301C105.167 116.058 105.085 115.783 105.013 115.656C104.317 116.162 103.89 116.813 103.068 117.151C101.837 117.656 100.464 117.568 99.3951 116.917C97.2959 115.639 97.2867 112.781 98.2061 112.629C98.8068 112.535 98.7412 113.472 98.9503 114.17C99.4177 115.745 101.077 116.466 102.6 115.85C103.191 115.608 105.229 113.09 106.171 114.91C107.105 116.715 110.086 116.826 111.149 114.775C111.848 113.422 112.012 113.375 114.037 113.922C114.925 114.161 115.852 113.649 116.265 113.044C116.646 112.482 116.796 111.813 116.954 111.102C117.103 110.437 117.256 109.749 117.61 109.066C117.648 108.993 117.736 108.963 117.809 108.996C118.679 109.38 118.032 112.201 118.024 112.229C117.312 114.882 115.768 115.152 114.643 115.349C114.548 115.365 114.454 115.382 114.365 115.399C114.264 115.435 113.365 115.353 112.675 115.067C112.617 115.044 112.55 115.016 112.529 115.016C112.52 115.025 112.046 115.857 112.04 115.869C110.733 118.066 107.613 118.735 105.39 116.301H105.388ZM114.803 125.685C114.74 126.387 114.178 126.724 113.53 126.432C113.491 126.414 113.439 126.389 113.376 126.357C112.866 126.104 111.511 125.433 110.067 125.837C108.699 126.222 108.009 127.592 107.821 128.747C107.636 129.869 108.345 130.628 109.096 131.432C110.547 132.986 110.809 133.721 109.771 135.448C109.387 136.087 109.025 136.691 109.048 137.428C109.067 138.084 109.484 138.746 110.247 138.746C110.453 138.746 110.626 138.794 110.794 138.838C111.033 138.901 111.195 138.97 111.189 139.193C111.159 140.204 107.978 140.385 107.805 137.784C107.699 136.147 108.32 135.684 108.918 134.235C109.589 132.605 105.037 131.364 106.895 127.08C107.95 124.644 109.527 124.324 111.087 124.353C112.221 124.22 113.171 124.693 113.334 124.713C113.713 122.604 115.543 120.043 117.647 120.002C120.54 119.966 121.05 122.733 121.408 123.153C121.662 122.992 122.503 122.249 123.568 122.018C124.83 121.745 126.035 122.172 127.048 123.257C128.199 124.495 128.159 126.697 127.266 126.747C126.19 126.815 127.053 124.216 124.297 123.455C123.95 123.356 122.593 123.818 121.936 124.733C121.411 125.463 120.65 125.467 120.339 124.716C120.266 124.543 119.86 122.916 119.251 122.217C118.552 121.415 117.54 121.196 116.788 121.682C116.529 121.848 116.297 122.094 116.102 122.311C114.743 123.811 114.899 124.585 114.8 125.686L114.803 125.685ZM130.208 143.282C129.777 144.888 126.777 146.346 124.834 145.188C124.005 144.696 123.691 145.549 122.11 145.497C120.73 145.449 119.896 144.154 119.574 142.959C119.236 141.702 119.203 142.494 117.469 142.306C115.933 142.141 114.759 140.092 115.791 138.013C116.167 137.256 116.952 137.36 117.063 137.729C117.263 138.404 116.566 138.376 116.642 139.701C116.676 140.314 117.075 140.847 117.592 140.967C118.771 141.242 120.252 140.093 120.883 142.305C121.487 144.409 122.246 144.179 123.838 143.653C125.365 143.15 125.395 144.443 127.079 144.063C128.765 143.681 129.798 142.671 130.143 142.949C130.226 143.016 130.249 143.127 130.208 143.28V143.282ZM138.791 142.534C138.737 142.767 138.455 142.599 138.247 142.479C137.886 142.273 137.285 141.93 135.588 141.788C134.78 141.914 133.688 142.164 132.956 141.258C132.238 140.368 132.915 139.463 133.629 140.35C133.817 140.585 134.09 140.785 134.791 140.67C136.22 140.436 137.858 141.007 138.495 141.685C138.752 141.959 138.855 142.254 138.791 142.534ZM142.044 129.921C142.083 130.626 141.917 131.33 141.526 132.138C141.211 132.781 140.654 133.194 140.064 133.593C137.635 135.239 136.497 133.692 136.366 134.091C135.789 135.872 134.054 137.35 132.022 137.191C129.854 137.025 129.236 136.181 128.055 134.629C127.605 134.745 125.821 138.214 122.058 136.657C119.234 135.489 119.597 132.357 118.166 132.496C117.831 132.528 117.698 132.479 117.613 132.274C117.252 131.401 119.259 130.748 120.179 132.253C121.253 134.001 121.449 135.129 123.737 135.478C123.926 135.507 124.156 135.439 124.377 135.374C125.273 135.113 125.79 134.732 126.549 134.039C129.724 131.151 128.761 135.993 132.72 135.603C133.831 135.494 134.809 134.247 135.076 133.155C135.234 132.513 135.427 132.174 135.699 132.057C136.478 131.723 137.335 133.378 138.889 132.532C140.593 131.602 140.438 130.701 140.793 129.981C140.995 129.572 141.363 128.691 141.727 128.877C142.19 129.116 142.011 129.647 142.044 129.917V129.921ZM144.134 124.966C144.04 125.228 143.506 125.358 143.24 125.32C141.424 125.05 141.542 123.783 141.236 123.952C139.952 124.656 138.453 125.242 137.053 124.251C136.273 123.699 136.21 122.933 136.083 122.746C135.2 123.304 134.526 124.059 133.733 123.968C132.72 124.044 132.027 122.878 132.626 122.364C133.069 121.98 133.233 123.102 134.069 122.591C136.346 121.212 136.528 120.665 137.514 122.53C137.824 123.119 138.308 123.352 138.991 123.248C139.773 123.128 140.621 122.596 141.076 122.377C141.803 122.027 142.357 122.285 142.597 122.995C142.959 124.065 143.715 123.847 144.082 124.543C144.16 124.692 144.179 124.842 144.134 124.966Z" fill="#F1EFC8"/>
<path d="M33.7309 197.75C33.5997 195.722 35.0849 194.103 34.803 193.366C34.7877 193.325 35.787 185.891 37.9887 182.89C44.6769 173.768 48.5924 169.672 56.3332 161.509C56.6345 161.191 56.2696 160.658 56.3926 159.686C56.4972 158.865 57.4709 157.344 58.9705 157.068C59.2093 157.024 59.2288 156.925 59.2349 156.732C59.2729 155.556 59.9278 154.675 61.0379 154.28C62.4114 153.79 62.5672 154.367 62.8091 153.795C63.6025 151.913 64.7002 150.115 66.4817 149.119C69.5106 147.427 74.7483 151.741 76.8731 154.634C79.9399 158.81 73.3451 162.266 73.5911 162.977C74.0954 164.438 72.7362 165.913 71.5349 166.351C70.8472 166.602 71.5616 167.291 70.3828 168.877C69.1498 170.534 67.726 170.259 67.4278 170.728C62.1275 179.054 52.7815 188.355 48.3771 192.833C46.8663 194.37 41.3302 196.09 39.272 197.345C36.7423 198.889 36.2042 199.386 35.049 199.516C34.4105 199.588 33.7309 199.127 33.7309 197.75ZM48.497 191.495C48.5196 191.478 56.0164 183.628 66.7677 170.264C67.0731 169.883 66.7123 169.905 66.5124 169.273C66.2019 168.291 65.5366 167.558 64.8427 166.843C64.6572 166.652 64.6131 166.662 64.4399 166.878C57.7559 175.229 45.5553 188.966 45.994 189.026C46.7996 189.137 47.1481 189.307 47.6688 189.698C48.6159 190.409 48.4325 191.127 48.497 191.495ZM60.181 163.226C59.6265 162.61 58.3524 162.157 57.5222 162.002C57.228 161.947 57.1378 162.05 56.5197 162.757C54.3928 165.187 39.5754 181.495 38.6212 183.797C38.7524 183.813 40.789 183.245 41.524 184.958C41.7495 185.483 41.3446 184.54 50.9191 173.622C52.7549 171.529 59.6839 164.04 60.181 163.226ZM44.6922 190.283C44.191 190.417 43.9091 189.873 44.0034 189.365C44.4667 186.866 43.5494 186.518 41.2124 187.192C39.6779 187.633 41.6531 185.106 39.4125 184.854C38.7975 184.784 38.0882 184.564 37.7684 185.419C37.3778 186.464 36.1181 191.174 35.6886 193.686C35.5974 194.222 36.3129 193.48 38.4346 195.395C39.0875 195.984 38.8354 196.398 39.4032 196.117C43.2193 194.23 45.6352 193.483 46.6889 192.757C47.8441 191.96 46.7955 189.722 44.6933 190.284L44.6922 190.283ZM74.8313 154.224C72.3939 152.039 72.2832 151.824 70.1532 150.586C66.6252 148.535 65.0457 152.244 63.9612 154.112C63.8064 154.378 63.7982 154.371 64.074 154.528C70.4853 158.164 72.7106 161.936 73.1063 161.536C75.9824 158.63 77.8766 156.954 74.8313 154.224ZM62.0527 155.179C60.9928 155.262 60.8001 155.873 60.4455 156.869C60.2128 157.522 60.7899 156.839 63.8085 159.136C70.8369 164.487 70.3316 165.577 70.8051 165.362C74.3752 163.743 71.4468 161.675 68.4681 159.099C66.7892 157.648 64.7997 155.912 62.0537 155.178L62.0527 155.179ZM69.486 166.207C69.4655 166.184 66.0625 162.045 61.3054 159.088C59.5158 157.976 58.8762 158 58.2028 158.909C57.9332 159.272 57.6831 159.389 57.6411 160.057C57.5949 160.8 57.4361 160.813 57.7723 160.866C60.9764 161.376 64.0422 164.457 66.3331 166.754C67.0465 167.47 67.3099 167.969 67.6307 168.995C67.8347 169.648 70.4618 167.289 69.487 166.207H69.486Z" fill="#F1EFC8"/>
<path d="M190.414 194.473C190.495 195.549 189.927 195.335 189.926 196.978C189.924 203.682 183.519 202.889 183.279 198.579C183.261 198.248 183.051 198.287 182.72 198.303C181.167 198.38 180.503 196.68 180.91 195.311C181.409 193.63 182.722 194.403 182.695 193.259C182.671 192.286 183.047 191.516 183.952 191.155C184.429 190.965 184.67 191.327 184.918 191.007C185.658 190.055 186.105 189.409 187.255 189.589C187.747 189.664 188.304 190.299 188.226 191.214C188.094 192.746 190.413 191.787 190.413 194.474L190.414 194.473Z" fill="#F1EFC8"/>
<path d="M193.558 191.763C192.319 190.983 192.348 189.285 193.238 188.143C193.792 187.431 194.039 187.784 194.094 187.133C194.174 186.186 194.8 185.142 195.741 185.212C196.603 185.276 196.448 184.299 197.696 183.903C198.48 183.655 199.558 184.014 199.913 184.667C200.172 185.145 200.532 185.529 200.902 185.918C201.917 186.983 200.965 187.501 201.318 187.945C201.958 188.747 202.224 189.594 201.893 190.55C201.103 192.832 201.171 193.821 199.481 194.424C195.385 195.884 194.57 192.399 193.558 191.763Z" fill="#F1EFC8"/>
<path d="M210.289 180.491C209.776 181.565 209.081 182.782 207.876 182.968C206.864 183.125 205.856 182.59 205.1 181.899C204.843 181.665 204.79 181.552 204.481 181.6C200.672 182.199 201.042 178.391 202.377 176.975C202.492 176.853 202.705 176.785 202.756 176.648C202.807 176.513 202.692 176.324 202.682 176.156C202.589 174.418 204.29 173.589 204.863 173.78C205.092 173.857 205.235 173.784 205.36 173.621C206.118 172.625 208.23 172.849 208.921 173.971C209.511 174.93 210.496 174.208 211.31 176.075C212.124 177.943 210.886 179.237 210.289 180.491Z" fill="#F1EFC8"/>
<path d="M215.821 164.081C215.834 165.254 215.319 166.912 214.334 167.552C212.989 168.426 212.994 169.155 211.786 169.491C210.198 169.933 208.496 168.705 208.458 167.06C208.451 166.749 208.451 166.737 208.162 166.72C206.398 166.611 205.505 164.181 207.132 162.223C207.527 161.747 207.624 162.032 207.923 161.432C208.252 160.772 208.411 160.408 210.708 159.969C211.407 159.836 213.092 160.453 213.672 161.65C213.898 162.114 216.032 162.358 215.821 164.081Z" fill="#F1EFC8"/>
<path d="M206.813 149.513C204.818 148.828 204.929 149.727 203.013 150.384C202.282 150.635 201.596 150.955 201.348 151.796C201.307 151.937 201.176 152.048 201.104 152.181C200.412 153.473 201.308 153.469 201.322 154.662C201.349 156.907 204.492 157.511 206.311 156.267C207.118 155.716 208.164 156.005 208.836 155.071C209.7 153.87 209.422 152.842 208.627 151.778C207.966 150.892 208.222 149.997 206.813 149.513Z" fill="#F1EFC8"/>
<path d="M186.125 141.444C186.516 141.649 193.079 143.624 192.22 142.947C191.08 142.049 187.878 140.99 186.383 140.725C185.847 140.693 185.649 141.193 186.125 141.444Z" fill="#F1EFC8"/>
<path d="M204.788 145.195C202.639 145.078 203.9 144.402 194.32 145.375C193.964 145.412 194.132 145.343 195.029 142.976C195.328 142.182 195.263 141.531 194.756 141.04C195.627 139.139 199.35 131.002 199.476 130.653C199.705 130.015 199.548 129.216 198.891 128.979C198.502 128.841 194.812 127.308 194.269 127.255C193.928 127.224 193.513 127.392 193.173 127.577C192.514 126.291 192.302 126.346 190.88 125.874C190.051 125.599 189.184 125.795 188.956 126.633C188.818 127.138 186.232 136.044 185.748 137.71C184.913 137.809 184.498 138.532 184.072 139.805C182.349 144.955 181.184 148.283 182.124 149.294C182.712 149.927 170.944 154.37 168.007 166.317C167.524 168.288 167.28 169.64 167.885 172.058C168.678 175.232 170.166 176.911 172.276 179.093C172.786 179.622 170.449 185.301 168.391 192.095C167.31 195.669 166.725 196.909 167.727 197.785C168.695 198.636 170.284 198.562 171.305 196.38C172.485 193.859 174.09 189.372 175.284 186.386C176.209 184.075 176.046 184.261 176.268 184.857C178.768 191.515 175.199 196.983 176.287 201.653C177.307 206.041 181.015 208.553 184.537 208.87C189.636 209.331 195.313 205.49 199.24 202.205C208.266 194.659 208.997 191.531 212.355 187.372C216.281 182.513 220.042 172.3 220.064 164.228C220.099 152.73 212.431 145.616 204.788 145.195ZM190.003 126.813C190.088 126.768 190.296 126.759 190.557 126.845C191.064 127.013 191.504 127.15 191.77 127.271C191.888 127.366 192.165 127.832 192.4 128.325C191.827 129.704 190.319 133.503 190.09 135.081C190.04 135.431 190.508 135.593 190.686 135.303C191.941 133.241 192.581 130.907 193.386 128.644C193.697 128.444 194.053 128.274 194.162 128.273C194.662 128.359 198.33 129.882 198.519 129.924C198.679 130.137 198.582 130.224 193.871 140.514C192.5 139.957 187.926 138.225 186.777 137.842C189.982 126.809 189.901 126.867 190.003 126.813ZM185.11 139.615C185.639 137.858 186.646 138.992 192.7 141.076C193.107 141.216 193.495 141.425 193.876 141.638C194.188 141.812 194.239 142 194.119 142.364C193.811 143.317 190.718 150.359 190.377 150.874C189.834 151.7 189.345 150.419 185.612 149.437C183.14 148.786 182.592 149.014 182.587 148.057C183.194 145.594 183.248 145.799 185.111 139.616L185.11 139.615ZM185.142 162.614C187.328 166.584 185.678 171.682 183.319 173.642C182.498 174.325 181.335 174.618 180.092 174.503C180.922 172.282 183.068 167.325 185.143 162.613L185.142 162.614ZM214.189 182.459C211.981 186.512 211.896 185.965 210.435 187.912C207.993 191.172 207.565 192.499 204.779 195.242C198.722 201.206 188.495 210.863 181.253 206.388C175.003 202.526 177.954 196.411 178.364 191.755C179.078 183.623 175.372 180.777 171.43 176.284C169.328 173.887 168.141 170.232 169.187 166.511C171.303 158.984 175.961 155.101 181.676 151.26C182.034 151.008 181.817 151.153 178.318 161.116C174.684 162.935 173.084 165.353 173.295 168.684C173.676 174.725 180.664 177.178 183.972 174.429C187.177 171.766 188.467 165.72 185.644 161.471C187.4 157.496 189.02 153.878 189.64 152.482C189.864 151.981 190.554 152.447 191.023 151.56C191.69 150.295 192.663 148.468 193.325 147.027C193.549 146.539 193.675 146.645 196.426 146.24C201.048 145.561 208.02 146.102 212.132 149.23C218.09 153.76 219.524 162.016 218.521 167.795C218.203 169.631 217.97 175.514 214.188 182.457L214.189 182.459ZM177.814 162.558C176.878 165.246 176.116 167.501 174.941 170.999C174.587 170.274 174.372 169.472 174.319 168.619C174.155 166.016 175.243 164.1 177.814 162.558Z" fill="#F1EFC8"/>
<path d="M191.772 137.674C191.883 137.761 192.047 137.742 192.131 137.628C193.006 136.45 193.734 135.178 194.01 133.72C193.603 131.765 191.286 137.315 191.772 137.674Z" fill="#F1EFC8"/>
<path d="M195.72 133.107C196.04 132.619 196.97 131.239 196.507 130.794C195.634 130.217 195.277 132.309 195.151 132.872C195.086 133.187 195.537 133.381 195.72 133.107Z" fill="#F1EFC8"/>
<path d="M176.818 116.135C176.92 115.654 176.46 115.959 174.762 116.65C174.24 116.863 173.24 117.455 173.246 116.471C173.25 115.894 173.526 115.677 175.709 114.659C176.242 114.41 176.249 114.441 175.881 113.985C173.827 111.443 172.901 111.159 173.326 110.533C174.062 109.452 176.493 112.401 177.264 113.291C177.469 113.527 177.524 113.024 177.625 112.628C179.087 106.869 179.193 105.588 180.047 105.952C180.613 106.192 180.454 106.97 180.233 107.941C178.958 113.553 178.852 113.457 179.256 113.293C184.957 110.987 182.436 113.293 181.068 114.008C178.539 115.331 178.333 114.762 179.585 116.166C180.836 117.569 181.034 117.603 180.988 117.985C180.908 118.647 180.318 118.431 179.808 118.153C178.619 117.506 178.255 116.458 178.111 117.012C177.071 120.989 177.2 120.603 176.881 121.332C176.681 121.787 176.047 121.771 176.011 121.134C175.944 119.952 176.484 117.716 176.819 116.136L176.818 116.135Z" fill="#F1EFC8"/>
<path d="M81.5579 183.103C81.6286 186.068 77.2129 186.029 77.2129 183.23C77.2129 180.18 81.4882 180.217 81.5579 183.103ZM78.0759 183.196C78.0698 185.137 80.6364 184.695 80.6056 183.373C80.5657 181.629 78.0811 181.713 78.0759 183.196Z" fill="#F1EFC8"/>
<path d="M152.495 179.805C150.578 179.695 149.544 177.043 151.854 175.88C152.776 175.415 153.459 175.978 154.228 176.671C155.451 177.775 154.266 179.79 152.495 179.805ZM152.449 178.683C153.13 178.635 153.908 178.03 153.516 177.474C152.778 176.423 151.792 176.797 151.6 177.524C151.506 177.883 151.785 178.729 152.449 178.683Z" fill="#F1EFC8"/>
<path d="M52.8222 138.626C52.8365 139.026 52.3476 139.261 52.1416 138.887C51.9427 138.525 51.9355 138.381 51.0858 134.756C51.0007 134.392 51.1668 134.345 49.1609 135.959C48.6545 136.366 47.8847 136.072 48.1512 135.456C48.633 134.339 50.4995 133.457 50.026 133.119C48.591 132.095 47.5301 131.769 47.3302 131.627C46.7388 131.204 47.0822 130.364 47.7699 130.511C48.8831 130.75 49.1773 130.987 50.19 131.482C50.8706 131.815 49.534 128.649 49.4704 126.726C49.4561 126.31 50.0444 126.058 50.2966 126.421C51.3605 127.957 51.6926 131.959 52.079 131.653C53.3203 130.672 53.5079 130.534 54.8732 129.666C55.0505 129.553 55.3314 129.677 55.1489 129.935C53.8697 131.745 54.5196 131.011 52.7504 132.916C52.4193 133.273 52.5157 133.144 54.6456 134.865C54.9214 135.088 55.2248 135.388 55.0546 135.651C54.5913 136.367 53.0466 135.135 52.5218 134.898C52.3589 135.414 52.7094 135.37 52.8232 138.629L52.8222 138.626Z" fill="#F1EFC8"/>
</svg>
