<svg width="512" height="512" viewBox="0 0 512 512" fill="none" xmlns="http://www.w3.org/2000/svg">
<g clip-path="url(#clip0_567_2)">
<path d="M222.12 0H236.95L236.94 55.58C236.94 55.9867 236.737 56.19 236.33 56.19L222.73 56.18C222.33 56.18 222.13 55.98 222.13 55.58L222.12 0Z" fill="white"/>
<path d="M185.242 70.633L145.927 31.3179C145.822 31.2124 145.651 31.2124 145.545 31.3179L135.377 41.4861C135.272 41.5915 135.272 41.7625 135.377 41.8679L174.692 81.183C174.798 81.2885 174.969 81.2885 175.074 81.183L185.242 71.0148C185.348 70.9094 185.348 70.7384 185.242 70.633Z" fill="white"/>
<path d="M323.365 42.357L313.253 32.2453C313.136 32.1282 312.946 32.1282 312.829 32.2453L273.556 71.518C273.439 71.6352 273.439 71.8252 273.556 71.9423L283.668 82.0539C283.785 82.1711 283.975 82.1711 284.092 82.0539L323.365 42.7812C323.482 42.6641 323.482 42.4741 323.365 42.357Z" fill="white"/>
<path d="M396.21 512H218.7C218.76 503.086 218.69 494.17 218.49 485.25C218.283 475.663 214.107 468.68 205.96 464.3C201.273 461.773 196.693 459.026 192.22 456.06C183.193 450.066 176.31 441.963 171.57 431.75C162.463 412.143 153.783 393.716 145.53 376.47C141.943 368.97 139.957 363.613 139.57 360.4C138.683 353.126 139.963 346.596 143.41 340.81C146.96 334.83 152.67 329.33 157.11 323.72C160.597 319.32 162.813 314.51 163.76 309.29C164.49 305.3 164.23 301.43 163.99 297.41C163.17 283.6 174.18 272.86 187.75 272.84C192.91 272.84 197.777 273.846 202.35 275.86C202.783 276.046 203 275.903 203 275.43C202.98 223.53 202.977 172.543 202.99 122.47C202.99 114.356 205.703 107.69 211.13 102.47C221.51 92.4697 237.82 92.4797 248.1 102.55C253.407 107.743 256.07 114.193 256.09 121.9C256.203 163.693 256.22 202.97 256.14 239.73C256.14 239.863 256.207 239.933 256.34 239.94C256.453 239.946 256.517 239.896 256.53 239.79C259.49 217.97 285.65 208.95 301.35 224.21C306.377 229.09 309.05 235.18 309.37 242.48C309.59 247.613 309.557 252.883 309.27 258.29C309.263 258.383 309.307 258.436 309.4 258.45H309.41C309.49 258.456 309.537 258.42 309.55 258.34C312.15 244.44 322.68 234.66 336.87 235.04C351.34 235.43 362.19 246.92 362.66 261.26C362.767 264.553 362.757 267.96 362.63 271.48C362.63 271.566 362.673 271.613 362.76 271.62C362.847 271.626 362.897 271.586 362.91 271.5C363.657 265.98 365.78 261.4 369.28 257.76C378.33 248.33 392.64 248.09 401.99 257.26C407.84 263 408.89 269.46 408.87 278.02C408.75 326.706 408.723 375.303 408.79 423.81C408.803 433.67 407.803 443.026 405.79 451.88C403.71 461.03 401.05 469.79 399.37 479.07C397.703 488.256 396.813 495.316 396.7 500.25C396.613 504.176 396.45 508.093 396.21 512Z" fill="#FCD09F"/>
<path d="M158.99 117.71H103.49C103.335 117.71 103.21 117.835 103.21 117.99V132.35C103.21 132.505 103.335 132.63 103.49 132.63H158.99C159.145 132.63 159.27 132.505 159.27 132.35V117.99C159.27 117.835 159.145 117.71 158.99 117.71Z" fill="white"/>
<path d="M354.38 118.98H298.88C298.687 118.98 298.53 119.137 298.53 119.33V133.53C298.53 133.724 298.687 133.88 298.88 133.88H354.38C354.574 133.88 354.73 133.724 354.73 133.53V119.33C354.73 119.137 354.574 118.98 354.38 118.98Z" fill="white"/>
</g>
<defs>
<clipPath id="clip0_567_2">
<rect width="512" height="512" fill="white"/>
</clipPath>
</defs>
</svg>
