<svg width="61" height="62" viewBox="0 0 61 62" fill="none" xmlns="http://www.w3.org/2000/svg">
<rect width="61" height="62" rx="16" fill="#F9F9F9"/>
<g clip-path="url(#clip0_515_16)">
<path d="M31.25 13.0087C37.1907 13.0087 37.8953 13.031 40.2409 13.1385C42.6661 13.2498 45.1637 13.8023 46.9307 15.5693C48.7144 17.353 49.2502 19.8265 49.3615 22.2591C49.469 24.6047 49.4913 25.3092 49.4913 31.25C49.4913 37.1907 49.469 37.8953 49.3615 40.2409C49.2521 42.6531 48.6866 45.1748 46.9307 46.9307C45.147 48.7144 42.6754 49.2502 40.2409 49.3615C37.8953 49.469 37.1907 49.4913 31.25 49.4913C25.3092 49.4913 24.6047 49.469 22.2591 49.3615C19.8654 49.2521 17.3104 48.6736 15.5693 46.9307C13.7949 45.1563 13.2498 42.6587 13.1385 40.2409C13.031 37.8953 13.0087 37.1907 13.0087 31.25C13.0087 25.3092 13.031 24.6047 13.1385 22.2591C13.2479 19.8561 13.819 17.3196 15.5693 15.5693C17.3493 13.7893 19.832 13.2498 22.2591 13.1385C24.6047 13.031 25.3092 13.0087 31.25 13.0087ZM31.25 9C25.2073 9 24.4489 9.02596 22.0756 9.1335C18.6361 9.2911 15.2207 10.2479 12.7343 12.7343C10.2386 15.23 9.2911 18.638 9.1335 22.0756C9.02596 24.4489 9 25.2073 9 31.25C9 37.2927 9.02596 38.0511 9.1335 40.4244C9.2911 43.8602 10.2516 47.2848 12.7343 49.7657C15.2281 52.2596 18.6417 53.2089 22.0756 53.3665C24.4489 53.474 25.2073 53.5 31.25 53.5C37.2927 53.5 38.0511 53.474 40.4244 53.3665C43.862 53.2089 47.2811 52.2503 49.7657 49.7657C52.2633 47.2681 53.2089 43.862 53.3665 40.4244C53.474 38.0511 53.5 37.2927 53.5 31.25C53.5 25.2073 53.474 24.4489 53.3665 22.0756C53.2089 18.6361 52.2503 15.2189 49.7657 12.7343C47.2756 10.2441 43.8528 9.28925 40.4244 9.1335C38.0511 9.02596 37.2927 9 31.25 9Z" fill="#381668"/>
<path d="M31.2496 19.8242C24.9399 19.8242 19.8242 24.9399 19.8242 31.2496C19.8242 37.5593 24.9399 42.675 31.2496 42.675C37.5593 42.675 42.675 37.5593 42.675 31.2496C42.675 24.9399 37.5593 19.8242 31.2496 19.8242ZM31.2496 38.6663C27.1537 38.6663 23.8329 35.3454 23.8329 31.2496C23.8329 27.1537 27.1537 23.8329 31.2496 23.8329C35.3454 23.8329 38.6663 27.1537 38.6663 31.2496C38.6663 35.3454 35.3454 38.6663 31.2496 38.6663Z" fill="#381668"/>
<path d="M43.127 22.0421C44.6016 22.0421 45.797 20.8467 45.797 19.3721C45.797 17.8975 44.6016 16.7021 43.127 16.7021C41.6524 16.7021 40.457 17.8975 40.457 19.3721C40.457 20.8467 41.6524 22.0421 43.127 22.0421Z" fill="#381668"/>
</g>
<defs>
<clipPath id="clip0_515_16">
<rect width="44.5" height="44.5" fill="white" transform="translate(9 9)"/>
</clipPath>
</defs>
</svg>
