<svg width="90" height="96" viewBox="0 0 90 96" fill="none" xmlns="http://www.w3.org/2000/svg">
<g filter="url(#filter0_d_127_306)">
<path d="M51.2639 0.169356C50.567 2.25583 51.6058 3.56646 53.0129 4.94721C57.5454 9.38754 52.5132 13.258 48.9889 15.5505C48.8399 15.6499 48.7843 15.6119 48.8223 15.4366C49.9007 10.571 41.8264 9.65054 46.3895 4.78941C47.9091 3.17049 49.4638 1.58664 51.0535 0.0378613C51.0738 0.017287 51.1005 0.00423696 51.1292 0.000867469C51.1579 -0.00250202 51.1869 0.00400582 51.2114 0.0193209C51.2359 0.034636 51.2544 0.0578416 51.264 0.0851153C51.2735 0.112389 51.2735 0.142102 51.2639 0.169356Z" fill="#551AA6"/>
<path d="M66.899 27.8368C68.9095 28.5323 70.8251 28.8728 72.6457 28.8581L76.7573 28.959C78.7942 28.956 80.286 28.2226 81.2328 26.7585C81.3715 26.5421 81.4198 26.28 81.3673 26.0284C81.3149 25.7768 81.1659 25.5558 80.9523 25.4128L79.6592 24.5493C80.5592 24.3564 81.3702 24.5391 82.092 25.0972C83.0943 25.8745 83.1908 26.8973 82.3813 28.1656C79.5321 32.6234 73.4435 35.3586 68.2535 35.1482C65.9741 35.0547 63.4872 34.6018 60.7928 33.7894L57.0888 32.5708C52.5125 30.6714 48.1422 28.5308 43.978 26.1492C40.3003 24.0496 37.0039 22.5505 32.8528 22.1998C28.5746 21.8375 25.0298 23.246 22.2186 26.4254C22.1806 26.4663 22.1411 26.4692 22.1002 26.4341L22.0082 26.364C21.941 26.3085 21.9322 26.2457 21.9819 26.1755C24.7025 22.3737 27.882 19.5143 31.5202 17.5973C36.6006 14.9235 42.8164 16.3524 48.0239 19.206C51.0689 20.8775 54.1461 22.4891 57.2554 24.0408C60.4904 25.6539 63.7049 26.9192 66.899 27.8368Z" fill="#551AA6"/>
<path d="M79.6596 24.5496L80.9527 25.4131C81.1663 25.556 81.3153 25.777 81.3678 26.0286C81.4202 26.2802 81.3719 26.5424 81.2333 26.7588C80.2864 28.2228 78.7946 28.9563 76.7578 28.9592C75.4018 28.5063 74.0313 28.4727 72.6461 28.8584C70.8255 28.873 68.91 28.5326 66.8994 27.8371C70.0643 26.0867 73.3621 24.9747 76.7928 24.5013C77.8156 24.3581 78.7712 24.3742 79.6596 24.5496Z" fill="#381668"/>
<path d="M76.7572 28.9592L72.6455 28.8584C74.0307 28.4727 75.4012 28.5063 76.7572 28.9592Z" fill="#260A4F"/>
<path d="M47.6823 36.1175L53.2317 37.9322C57.6005 39.3524 61.756 40.3153 65.6982 40.8209L68.7403 41.1671C74.3467 41.9167 80.5011 41.5748 85.8445 39.2604C87.1654 38.7461 88.5505 37.7262 90 36.2008C89.3717 38.6087 87.7338 40.701 85.0862 42.4778C77.3669 47.6501 68.8455 48.1411 59.8989 46.9049L56.6727 46.4272C50.8603 45.1969 45.2363 43.5429 39.8008 41.4652L32.6997 38.6686C27.4088 36.4287 18.6639 34.3598 13.3073 36.5164C10.16 37.2703 9.01155 38.6716 9.86193 40.72C9.46742 40.8106 9.02323 40.419 8.52936 39.5453C6.92941 36.7049 9.25702 34.4256 11.5101 33.1193C20.9257 27.6752 31.823 29.5644 41.2693 33.6585C43.4902 34.6199 45.6279 35.4396 47.6823 36.1175Z" fill="#551AA6"/>
<path d="M57.0895 32.5708L60.7935 33.7894L53.2321 37.9316L47.6826 36.1169C51.0199 35.1906 54.1555 34.0085 57.0895 32.5708Z" fill="#381668"/>
<path d="M90 36.2003C88.5506 37.7257 87.1654 38.7456 85.8445 39.2599C83.7142 37.9858 81.1747 37.5723 78.2261 38.0194C74.6259 38.56 71.4639 39.6091 68.7404 41.1666L65.6982 40.8204C69.3014 38.427 73.0449 36.551 76.9286 35.1921C80.7641 33.8508 84.5602 33.3204 88.308 34.2804C89.2782 34.5288 89.8422 35.1688 90 36.2003Z" fill="#381668"/>
<path d="M32.7 38.6682C30.0787 39.1329 26.9533 39.3067 23.3238 39.1899C19.4839 39.0642 16.1452 38.1729 13.3076 36.516C18.6642 34.3594 27.4091 36.4283 32.7 38.6682Z" fill="#260A4F"/>
<path d="M13.3075 36.5161C16.1451 38.173 19.4838 39.0643 23.3237 39.19C26.9532 39.3068 30.0786 39.133 32.6999 38.6683L39.8011 41.4649C37.06 41.95 33.7212 42.403 29.7849 42.8238C23.8804 43.455 17.748 43.8056 12.1459 42.0654C11.2722 41.7937 10.5109 41.3451 9.86216 40.7197C9.01177 38.6713 10.1602 37.27 13.3075 36.5161Z" fill="#381668"/>
<path d="M85.8444 39.2599C80.501 41.5743 74.3467 41.9162 68.7402 41.1667C71.4638 39.6091 74.6257 38.56 78.226 38.0194C81.1746 37.5723 83.7141 37.9858 85.8444 39.2599Z" fill="#260A4F"/>
<path d="M48.8616 50.7618L52.1974 51.8927L56.9315 53.4006L60 54.08C63.5769 55.097 67.2356 55.3468 70.9761 54.8296C72.5015 54.853 73.7508 54.2539 74.7239 53.0324C75.209 52.4246 75.2134 51.5231 74.7371 50.3279C75.6401 50.9386 76.0697 51.8036 76.0258 52.9228C75.9206 55.5484 73.2906 58.0426 71.0681 59.1384C64.6157 62.3207 57.3085 61.0978 50.6632 59.2918L49.655 59.042L41.984 56.4076L35.9393 54.023C33.2478 52.8614 29.3641 51.827 26.3044 52.4143C25.4219 52.3764 24.4166 52.6394 23.2886 53.2034C22.0291 53.8346 21.6288 54.8471 22.0876 56.241C21.0765 55.6098 20.7755 54.6089 21.1846 53.2384C21.4534 52.3413 22.0028 51.45 22.8328 50.5646C28.4129 44.6207 36.6494 45.8569 43.3648 48.6447C45.276 49.4366 47.1083 50.1423 48.8616 50.7618Z" fill="#551AA6"/>
<path d="M56.6726 46.4268L59.8988 46.9045L52.1971 51.8928L48.8613 50.7619L56.6726 46.4268Z" fill="#381668"/>
<path d="M74.7372 50.328C75.2135 51.5231 75.2091 52.4247 74.724 53.0325C73.7509 54.254 72.5016 54.853 70.9762 54.8297C67.8084 52.7549 64.1497 52.505 60 54.0801L56.9316 53.4007C61.6964 50.1526 66.6278 48.316 72.5235 49.4294C73.3856 49.5901 74.1235 49.8896 74.7372 50.328Z" fill="#381668"/>
<path d="M35.9385 54.0231C32.4551 54.7887 29.2435 54.2525 26.3037 52.4144C29.3634 51.827 33.2471 52.8615 35.9385 54.0231Z" fill="#260A4F"/>
<path d="M26.3039 52.4147C29.2438 54.2528 32.4554 54.789 35.9387 54.0234L41.9835 56.408C36.8154 57.929 29.105 59.4938 23.9763 57.495C23.3217 57.2408 22.692 56.8229 22.0871 56.2414C21.6283 54.8475 22.0286 53.8349 23.2881 53.2037C24.4161 52.6397 25.4214 52.3767 26.3039 52.4147Z" fill="#381668"/>
<path d="M70.9761 54.8297C67.2356 55.3469 63.5769 55.0971 60 54.0801C64.1497 52.505 67.8084 52.7549 70.9761 54.8297Z" fill="#260A4F"/>
<path d="M49.6546 59.042L50.6628 59.2918C50.4466 59.8558 50.2332 60.4111 50.0228 60.9575C49.0979 63.3421 50.1587 65.7748 52.2233 67.0986C54.1257 68.3172 52.0042 69.562 51.2546 70.4913L48.7034 73.0775C48.5456 72.9022 48.5003 72.6085 48.5675 72.1964C48.5909 72.0445 48.5573 71.9057 48.4667 71.78C48.0605 71.216 47.6178 70.6871 47.1385 70.1932C43.5353 66.4762 47.2043 62.0139 49.6546 59.042Z" fill="#381668"/>
<path d="M51.2548 70.4912C51.2197 70.8214 50.9596 71.3211 50.4745 71.9903C48.3354 74.9491 54.9106 77.1846 53.8673 80.8578C53.1616 83.3257 50.1019 85.5217 48.182 86.977C47.8167 87.2546 47.713 87.1772 47.8708 86.7447C49.5365 82.2517 40.0726 81.0376 46.0692 75.5627C47.0014 74.7153 47.8795 73.8869 48.7036 73.0774L51.2548 70.4912Z" fill="#551AA6"/>
</g>
<defs>
<filter id="filter0_d_127_306" x="0" y="0" width="90" height="95.1396" filterUnits="userSpaceOnUse" color-interpolation-filters="sRGB">
<feFlood flood-opacity="0" result="BackgroundImageFix"/>
<feColorMatrix in="SourceAlpha" type="matrix" values="0 0 0 0 0 0 0 0 0 0 0 0 0 0 0 0 0 0 127 0" result="hardAlpha"/>
<feOffset dx="-4" dy="4"/>
<feGaussianBlur stdDeviation="2"/>
<feComposite in2="hardAlpha" operator="out"/>
<feColorMatrix type="matrix" values="0 0 0 0 0 0 0 0 0 0 0 0 0 0 0 0 0 0 0.45 0"/>
<feBlend mode="normal" in2="BackgroundImageFix" result="effect1_dropShadow_127_306"/>
<feBlend mode="normal" in="SourceGraphic" in2="effect1_dropShadow_127_306" result="shape"/>
</filter>
</defs>
</svg>
