<svg width="266" height="235" viewBox="0 0 266 235" fill="none" xmlns="http://www.w3.org/2000/svg">
<path d="M265.004 234.5H197.504L114.004 141.5V234.5H54.0039V0H126.504C110.504 23 108.504 57.5 129.004 80L265.004 234.5Z" fill="#551AA6"/>
<path d="M121.5 149.5L113 140.5L125.411 132.015L136.768 125.706L148.598 119.882L160.5 115L169.5 125.706C161.455 127.647 136.643 139.309 121.5 149.5Z" fill="#2C0B5A"/>
<path d="M114 142C96 151.5 61 184 54 234.5H63C58.5 216.5 92.5 163 114 152.5V142Z" fill="#2C0B5A"/>
<path d="M144.71 128C114.71 140.5 70.2103 167 54.2103 234.5C50.2104 135 104.316 97.302 127.71 84C136.504 79 191.21 58.5 218.21 47C232.71 40 253.71 25.5 264.21 4C268.21 32 261.21 57.5 242.71 77.5C226.71 99 174.71 115.5 144.71 128Z" fill="#551AA6"/>
<path d="M22.3647 89.6078C19.8839 97.0956 23.5816 101.799 28.5898 106.754C44.7223 122.689 26.8112 136.579 14.2672 144.807C13.7368 145.163 13.5391 145.027 13.6744 144.398C17.5124 126.937 -11.2264 123.633 5.01528 106.188C10.424 100.378 15.9574 94.694 21.6157 89.1359C21.688 89.062 21.783 89.0152 21.8851 89.0031C21.9873 88.991 22.0905 89.0144 22.1777 89.0693C22.2649 89.1243 22.331 89.2076 22.3649 89.3055C22.3989 89.4033 22.3988 89.51 22.3647 89.6078Z" fill="url(#paint0_linear_389_9)"/>
<defs>
<linearGradient id="paint0_linear_389_9" x1="17.5" y1="89" x2="18" y2="149.5" gradientUnits="userSpaceOnUse">
<stop stop-color="#6B00FF"/>
<stop offset="0.979167" stop-color="#381668"/>
</linearGradient>
</defs>
</svg>
