<svg width="166" height="124" viewBox="0 0 166 124" fill="none" xmlns="http://www.w3.org/2000/svg">
<path d="M56.2061 40.5647L64.6888 39.5232C65.1085 39.4716 65.4807 39.6726 65.8055 40.126C66.1303 40.5795 66.3996 41.1294 66.6135 41.7758C66.8274 42.4223 66.9656 42.9995 67.0279 43.5076C67.0903 44.0157 67.0959 44.6092 67.0448 45.2882C66.9936 45.9672 66.8667 46.577 66.664 47.1176C66.4585 47.6361 66.146 47.9212 65.7263 47.9727L57.2436 49.0142C56.8239 49.0658 56.4516 48.8648 56.1269 48.4114C55.7773 47.9386 55.4956 47.379 55.2817 46.7325C55.0678 46.0861 54.9296 45.5088 54.8672 45.0008C54.8049 44.4927 54.7992 43.8991 54.8504 43.2202C54.9016 42.5412 55.0409 41.9411 55.2684 41.4198C55.4738 40.9013 55.7864 40.6162 56.2061 40.5647Z" fill="#0F4415"/>
<path d="M64.6888 39.5232L73.1715 38.4816C73.5912 38.4301 73.9634 38.631 74.2882 39.0845C74.6129 39.5379 74.8823 40.0879 75.0962 40.7343C75.3101 41.3807 75.4482 41.958 75.5106 42.4661C75.573 42.9741 75.5786 43.5677 75.5274 44.2467C75.4763 44.9256 75.3493 45.5354 75.1466 46.0761C74.9412 46.5946 74.6286 46.8796 74.2089 46.9312L65.7263 47.9727C65.3065 48.0242 64.9343 47.8233 64.6096 47.3699C64.26 46.897 63.9783 46.3374 63.7643 45.691C63.5504 45.0445 63.4123 44.4673 63.3499 43.9592C63.2875 43.4511 63.2819 42.8576 63.3331 42.1786C63.3843 41.4996 63.5236 40.8995 63.7511 40.3783C63.9565 39.8597 64.2691 39.5747 64.6888 39.5232Z" fill="#0F4415"/>
<path d="M73.1715 38.4816L81.6541 37.4401C82.0738 37.3886 82.4461 37.5895 82.7708 38.0429C83.0956 38.4964 83.3649 39.0463 83.5788 39.6928C83.7927 40.3392 83.9309 40.9164 83.9933 41.4245C84.0557 41.9326 84.0613 42.5261 84.0101 43.2051C83.9589 43.8841 83.832 44.4939 83.6293 45.0345C83.4239 45.5531 83.1113 45.8381 82.6916 45.8896L74.2089 46.9312C73.7892 46.9827 73.417 46.7818 73.0922 46.3283C72.7427 45.8555 72.4609 45.2959 72.247 44.6494C72.0331 44.003 71.895 43.4257 71.8326 42.9177C71.7702 42.4096 71.7646 41.8161 71.8158 41.1371C71.8669 40.4581 72.0063 39.858 72.2338 39.3367C72.4392 38.8182 72.7517 38.5332 73.1715 38.4816Z" fill="#0F4415"/>
<path d="M81.6541 37.4401L90.1368 36.3986C90.5565 36.347 90.9288 36.548 91.2535 37.0014C91.5783 37.4548 91.8476 38.0048 92.0615 38.6512C92.2754 39.2976 92.4136 39.8749 92.476 40.383C92.5383 40.8911 92.5439 41.4846 92.4928 42.1636C92.4416 42.8426 92.3147 43.4524 92.112 43.993C91.9066 44.5115 91.594 44.7965 91.1743 44.8481L82.6916 45.8896C82.2719 45.9412 81.8997 45.7402 81.5749 45.2868C81.2253 44.814 80.9436 44.2543 80.7297 43.6079C80.5158 42.9615 80.3776 42.3842 80.3152 41.8761C80.2529 41.3681 80.2473 40.7745 80.2984 40.0955C80.3496 39.4166 80.4889 38.8164 80.7164 38.2952C80.9219 37.7767 81.2344 37.4916 81.6541 37.4401Z" fill="#0F4415"/>
<path d="M91.4394 44.8155C90.7104 44.905 90.1521 44.5588 89.7646 43.7767C89.3743 42.9725 89.1074 41.985 88.9636 40.8142C88.8226 39.6656 88.8454 38.6649 89.0323 37.8123C89.2164 36.9376 89.5845 36.4664 90.1368 36.3986C92.3679 36.1246 94.3221 35.6044 95.9995 34.8378C97.6741 34.0492 99.2233 33.1526 100.647 32.1482C102.071 31.1437 103.495 30.1392 104.919 29.1347C106.34 28.1081 107.9 27.2102 109.6 26.4409C111.296 25.6496 113.282 25.1142 115.558 24.8349L115.213 30.7969C113.026 31.0654 111.096 31.0447 109.421 30.7346C107.768 30.4218 106.259 30.0017 104.893 29.4742C103.528 28.9467 102.218 28.5021 100.962 28.1405C99.7265 27.7541 98.4348 27.6436 97.0873 27.8091C95.9828 27.9447 95.0075 28.3111 94.1615 28.9083C93.3375 29.5028 92.4977 30.4244 91.6419 31.673L90.8845 31.5306C90.9322 28.6321 91.527 26.171 92.6687 24.1472C93.8105 22.1235 95.4748 20.9774 97.6618 20.7088C99.1418 20.5271 100.486 20.6087 101.694 20.9537C102.9 21.2765 104.172 21.681 105.51 22.167C106.845 22.6309 108.404 23.0001 110.186 23.2745C111.966 23.5268 114.16 23.493 116.766 23.1729L116.26 31.3748C113.653 31.6948 111.508 32.3057 109.825 33.2075C108.164 34.1066 106.711 35.1483 105.466 36.3326C104.244 37.5142 103.033 38.7055 101.835 39.9065C100.635 41.0854 99.2258 42.1217 97.609 43.0153C95.9921 43.909 93.9356 44.509 91.4394 44.8155Z" fill="#0F4415"/>
<path d="M95.2252 11.7329L94.4563 10.8292C95.299 10.3022 96.1458 9.62358 96.9966 8.79318C97.8456 7.94789 98.5419 7.0911 99.0856 6.2228C99.6275 5.3396 99.86 4.58513 99.7832 3.95938C99.7466 3.6614 99.6372 3.44798 99.455 3.31912C99.2859 3.17352 99.0971 3.11353 98.8885 3.13914C98.665 3.16658 98.4264 3.31687 98.1725 3.59001C97.9336 3.86132 97.8398 4.20556 97.891 4.62272C97.9386 5.01009 98.2078 5.35512 98.6987 5.65781C99.1895 5.96051 100.211 6.39468 101.762 6.96035L100.82 8.89089C99.5734 8.34824 98.5441 7.78651 97.7318 7.2057C96.9027 6.61182 96.4397 5.92006 96.3427 5.13042C96.2458 4.34079 96.3504 3.71543 96.6568 3.25436C96.9483 2.79512 97.3297 2.45337 97.8013 2.22912C98.2877 2.00303 98.7544 1.86255 99.2014 1.80767C99.7079 1.74547 100.142 1.83579 100.505 2.07862C100.868 2.32145 101.079 2.6887 101.139 3.18036C101.255 4.11898 101.016 5.13131 100.423 6.21734C99.8308 7.30337 99.0577 8.33594 98.1042 9.31506C97.1507 10.2942 96.191 11.1001 95.2252 11.7329Z" fill="#0F4415"/>
<path d="M105.198 12.8582C104.292 11.797 103.196 10.9402 101.908 10.2879L99.3637 13.5746C100.638 14.263 101.725 15.1123 102.625 16.1225L105.198 12.8582Z" fill="#0F4415"/>
<path d="M52.3718 41.5L94.4458 36.334L93.9218 43.2868L51.2525 49.2148L52.3718 41.5Z" fill="#0F4415" stroke="#0F4415"/>
<path d="M47.7893 93.9869L47.9643 93.4945C48.486 93.5425 49.045 93.53 49.6414 93.4567C51.2099 93.2642 52.8478 92.8164 54.5554 92.1134C56.285 91.4077 57.8852 90.561 59.356 89.5731C60.8268 88.5853 62.0009 87.5554 62.8783 86.4835C63.7557 85.4115 64.1375 84.4117 64.0236 83.4839C63.9775 83.1084 63.6665 82.6757 63.0906 82.1858C62.5341 81.6711 61.8574 81.1824 61.0606 80.7196C60.2611 80.2348 59.4862 79.8591 58.736 79.5924L59.7023 71.3005C60.9215 71.7338 61.9136 72.5089 62.6786 73.6258C63.4436 74.7427 64.022 75.9835 64.4138 77.348C64.8249 78.6878 65.0997 79.921 65.238 81.0476C65.4577 82.8369 65.4468 84.6658 65.2053 86.5341C64.9859 88.3998 64.5267 90.1379 63.8275 91.7485C63.1531 93.3785 62.242 94.7237 61.094 95.784C59.9682 96.8416 58.621 97.4667 57.0526 97.6593C55.7272 97.822 54.2026 97.5495 52.4788 96.8418C50.7771 96.1314 49.2139 95.1798 47.7893 93.9869ZM67.435 74.2863C67.8989 74.2293 68.3042 74.4262 68.6511 74.8769C69.02 75.325 69.3225 75.8708 69.5585 76.5145C69.7945 77.1583 69.9437 77.7342 70.0061 78.2422C70.0712 78.7724 70.0671 79.3783 69.9938 80.06C69.9206 80.7417 69.7591 81.3446 69.5095 81.8685C69.282 82.3898 68.9363 82.6789 68.4724 82.7358C67.4121 82.866 66.4117 82.7534 65.4711 82.398C64.5278 82.0205 63.6952 81.5397 62.9732 80.9557L61.9723 72.8044C62.8098 73.5985 63.7087 74.0711 64.669 74.2223C65.6294 74.3734 66.5514 74.3948 67.435 74.2863Z" fill="#0F4415"/>
<path d="M81.6448 73.0461L83.8089 81.3573C81.0034 81.7017 78.7276 81.6112 76.9813 81.0856C75.2323 80.538 74.0237 79.6437 73.3556 78.4028L73.7126 78.0226C73.1266 79.6417 72.4822 80.786 71.7796 81.4552C71.0991 82.1218 70.1071 82.5351 68.8038 82.6951L68.3068 82.7562C67.9533 82.7996 67.6239 82.5821 67.3185 82.1039C67.0132 81.6257 66.7646 81.062 66.5727 80.4128C66.3561 79.7443 66.2152 79.145 66.1502 78.6148C66.0552 77.8416 66.0806 76.9528 66.2264 75.9483C66.3694 74.9217 66.717 74.3744 67.2693 74.3066L67.435 74.2863C69.1359 74.0774 70.3395 73.47 71.0456 72.4639C71.7738 71.4552 72.2459 70.1863 72.4618 68.6575L72.9588 68.5964C73.5475 70.8338 74.5907 72.208 76.0886 72.7192C77.5837 73.2084 79.4358 73.3173 81.6448 73.0461ZM98.5576 57.1118C100.988 56.8135 102.751 57.2024 103.847 58.2787C104.965 59.3522 105.626 60.7173 105.83 62.3741C106.074 64.3622 105.629 66.4013 104.496 68.4913C103.359 70.5593 101.726 72.5088 99.5966 74.3399C97.4864 76.1462 95.062 77.6772 92.3236 78.9328C89.5851 80.1884 86.7248 80.9992 83.7426 81.3654L81.5454 73.0583C84.2377 72.7053 86.8349 72.3079 89.3369 71.8661C91.8389 71.4244 94.0664 70.9379 96.0192 70.4066C97.9721 69.8753 99.5068 69.3169 100.623 68.7313C101.74 68.1458 102.259 67.5327 102.18 66.8921C102.074 66.0305 101.491 65.295 100.429 64.6853C99.3872 64.0509 97.8721 63.8557 95.8839 64.0998C95.3096 64.1704 94.4572 64.5329 93.3267 65.1874C92.1935 65.8199 90.9467 66.6232 89.5864 67.5975C88.2261 68.5718 86.9208 69.629 85.6705 70.7691C84.4397 71.8845 83.4407 72.9713 82.6737 74.0297L80.6362 74.1453C82.7794 71.1465 84.8751 68.4002 86.9234 65.9064C88.9937 63.4098 90.9982 61.3811 92.9367 59.8201C94.8726 58.237 96.7462 57.3342 98.5576 57.1118ZM102.979 69.0139C103.588 69.2306 104.378 69.3579 105.347 69.3959C106.315 69.4339 107.209 69.4027 108.026 69.3024C108.401 69.2562 108.757 69.6835 109.091 70.5842C109.448 71.4822 109.685 72.4061 109.802 73.3559C109.926 74.3721 109.923 75.348 109.791 76.2835C109.659 77.219 109.417 77.7085 109.063 77.7519C107.031 78.0014 105.275 78.1273 103.795 78.1296C102.335 78.1071 100.958 77.9399 99.664 77.6279C98.3893 77.2911 97.024 76.7636 95.568 76.0454L102.979 69.0139ZM86.328 54.0043C88.0018 54.8526 89.4279 55.9669 90.6064 57.347L87.2597 61.5923C86.0893 60.2785 84.6756 59.1739 83.0184 58.2787L86.328 54.0043Z" fill="#0F4415"/>
<path d="M108.059 69.2983L116.542 68.2567C116.961 68.2052 117.334 68.4062 117.658 68.8596C117.983 69.313 117.723 69.9696 117.937 70.6161C118.151 71.2625 118.62 71.7575 118.682 72.2656C118.744 72.7737 118.949 73.3428 118.898 74.0218C118.846 74.7007 118.72 75.3106 118.517 75.8512C118.311 76.3697 117.999 76.6547 117.579 76.7063L109.096 77.7478C108.677 77.7994 108.305 77.5984 107.98 77.145C107.63 76.6721 107.348 76.1125 107.135 75.4661C106.921 74.8197 106.783 74.2424 106.72 73.7343C106.658 73.2262 106.652 72.6327 106.703 71.9537C106.754 71.2747 106.894 70.6746 107.121 70.1534C107.327 69.6349 107.639 69.3498 108.059 69.2983Z" fill="#0F4415"/>
<path d="M80.1384 55.3977L79.5285 54.6808C80.197 54.2628 80.8687 53.7245 81.5436 53.0657C82.2171 52.3952 82.7695 51.7155 83.2008 51.0267C83.6306 50.3261 83.8151 49.7276 83.7541 49.2312C83.7251 48.9948 83.6383 48.8255 83.4938 48.7233C83.3597 48.6078 83.2099 48.5602 83.0444 48.5806C82.8671 48.6023 82.6778 48.7215 82.4765 48.9382C82.287 49.1534 82.2125 49.4265 82.2531 49.7574C82.2909 50.0647 82.5044 50.3384 82.8938 50.5785C83.2832 50.8187 84.0933 51.1631 85.3241 51.6118L84.5764 53.1432C83.5878 52.7128 82.7712 52.2672 82.1268 51.8064C81.4691 51.3353 81.1018 50.7866 81.0249 50.1602C80.948 49.5338 81.0311 49.0377 81.2741 48.672C81.5053 48.3077 81.8079 48.0366 82.182 47.8587C82.5678 47.6793 82.9381 47.5679 83.2926 47.5243C83.6945 47.475 84.0392 47.5466 84.3268 47.7393C84.6143 47.9319 84.7821 48.2232 84.83 48.6133C84.9214 49.3578 84.7321 50.1609 84.262 51.0224C83.7919 51.8839 83.1787 52.703 82.4223 53.4797C81.6658 54.2564 80.9045 54.8958 80.1384 55.3977Z" fill="#0F4415"/>
<path d="M117.608 67.9013L102.083 70.4963L101.642 78.1277L120.727 76.4733L117.608 67.9013Z" fill="#0F4415"/>
<path d="M20.0575 114.713C20.0575 115.354 19.96 115.989 19.7651 116.621C19.5794 117.252 19.301 117.85 18.9297 118.417C18.5584 118.983 18.099 119.484 17.5514 119.92C17.0037 120.356 16.3726 120.7 15.6579 120.95C14.9524 121.201 14.1589 121.326 13.2771 121.326C13.1379 121.326 12.9569 121.322 12.7341 121.312C12.5113 121.303 12.27 121.299 12.0101 121.299C11.7595 121.289 11.4996 121.285 11.2304 121.285C11.017 121.285 10.7849 121.289 10.5343 121.299C10.2837 121.299 10.047 121.303 9.82424 121.312C9.61075 121.312 9.42976 121.317 9.28125 121.326L9.32302 121.048C9.62004 121.029 9.85208 120.992 10.0192 120.937C10.1955 120.881 10.3347 120.769 10.4368 120.602C10.5389 120.435 10.6318 120.185 10.7153 119.851L12.5392 112.945C12.6134 112.666 12.6459 112.444 12.6366 112.277C12.6366 112.1 12.567 111.97 12.4278 111.887C12.2978 111.803 12.0658 111.757 11.7317 111.748L11.7734 111.469C11.9312 111.478 12.1261 111.488 12.3582 111.497C12.5902 111.506 12.8362 111.511 13.0961 111.511C13.3653 111.511 13.6205 111.511 13.8618 111.511C14.0382 111.502 14.2563 111.497 14.5162 111.497C14.7761 111.488 15.036 111.483 15.2959 111.483C15.5558 111.474 15.7739 111.469 15.9502 111.469C17.2868 111.469 18.3032 111.743 18.9993 112.291C19.7047 112.838 20.0575 113.646 20.0575 114.713ZM13.2214 121.076C13.8618 121.076 14.4373 120.95 14.9478 120.7C15.4676 120.449 15.9224 120.101 16.3122 119.656C16.7114 119.21 17.0409 118.7 17.3008 118.124C17.5699 117.549 17.7695 116.936 17.8994 116.286C18.0387 115.627 18.1083 114.968 18.1083 114.309C18.1083 113.455 17.9134 112.81 17.5235 112.374C17.1337 111.938 16.4979 111.72 15.6161 111.72C15.3655 111.72 15.1706 111.752 15.0313 111.817C14.8921 111.873 14.7807 111.989 14.6972 112.165C14.6137 112.332 14.5301 112.583 14.4466 112.917L12.6227 119.878C12.5392 120.166 12.4881 120.398 12.4696 120.575C12.4603 120.751 12.5113 120.881 12.6227 120.964C12.7341 121.039 12.9337 121.076 13.2214 121.076Z" fill="#0F4415"/>
<path d="M22.311 118.263C22.7472 118.096 23.1463 117.925 23.5083 117.748C23.8796 117.563 24.1906 117.368 24.4412 117.163C24.7846 116.857 25.063 116.5 25.2765 116.091C25.49 115.674 25.5968 115.219 25.5968 114.727C25.5968 114.514 25.5782 114.374 25.5411 114.309C25.5039 114.244 25.4482 114.212 25.374 114.212C25.1605 114.212 24.9285 114.314 24.6779 114.518C24.4272 114.722 24.1813 115.005 23.9399 115.367C23.6986 115.72 23.4759 116.119 23.2717 116.565C23.0767 117.01 22.9189 117.479 22.7983 117.971C22.6776 118.463 22.6173 118.95 22.6173 119.433C22.6173 119.925 22.7101 120.273 22.8957 120.477C23.0907 120.672 23.3459 120.769 23.6615 120.769C23.9307 120.769 24.2509 120.681 24.6222 120.505C24.9934 120.329 25.3601 120.008 25.7221 119.544L25.9448 119.656C25.7592 119.962 25.5132 120.259 25.2069 120.547C24.9006 120.834 24.5479 121.071 24.1488 121.257C23.7589 121.433 23.3273 121.521 22.854 121.521C22.4641 121.521 22.1114 121.447 21.7958 121.299C21.4803 121.15 21.2343 120.932 21.0579 120.644C20.8816 120.347 20.7934 119.985 20.7934 119.558C20.7934 119.103 20.8723 118.621 21.0301 118.11C21.1879 117.59 21.4106 117.085 21.6984 116.593C21.9954 116.101 22.3435 115.655 22.7426 115.256C23.151 114.857 23.6012 114.541 24.0931 114.309C24.585 114.068 25.1141 113.947 25.6803 113.947C26.0516 113.947 26.3625 114.036 26.6131 114.212C26.8637 114.379 26.989 114.639 26.989 114.992C26.989 115.354 26.8869 115.692 26.6827 116.008C26.4785 116.323 26.2001 116.611 25.8474 116.871C25.5039 117.131 25.1234 117.363 24.7057 117.567C24.2973 117.771 23.8843 117.948 23.4666 118.096C23.0489 118.245 22.6591 118.365 22.2971 118.458L22.311 118.263Z" fill="#0F4415"/>
<path d="M34.0208 116.509C33.6773 116.351 33.3757 116.124 33.1158 115.827C32.8652 115.521 32.7492 115.159 32.7677 114.741C32.777 114.472 32.8605 114.272 33.0183 114.142C33.1761 114.003 33.3571 113.933 33.5613 113.933C33.9048 113.933 34.1461 114.096 34.2853 114.421C34.4245 114.736 34.4756 115.149 34.4385 115.66C34.4013 116.198 34.3132 116.746 34.1739 117.303C34.0347 117.85 33.8398 118.375 33.5892 118.876C33.3478 119.377 33.0508 119.827 32.6981 120.226C32.3454 120.626 31.9416 120.941 31.4868 121.173C31.032 121.405 30.5215 121.521 29.9553 121.521C29.4727 121.521 29.0968 121.438 28.8276 121.271C28.5584 121.094 28.3681 120.876 28.2568 120.616C28.1547 120.347 28.1082 120.073 28.1175 119.795C28.1454 119.238 28.3124 118.663 28.6187 118.068C28.9343 117.474 29.352 116.876 29.8718 116.272C30.4009 115.669 31.0042 115.08 31.6818 114.504C31.4776 114.541 31.2826 114.616 31.097 114.727C30.9206 114.838 30.7536 114.959 30.5958 115.089C30.438 115.21 30.2848 115.316 30.1363 115.409C29.9878 115.502 29.8347 115.548 29.6769 115.548C29.5098 115.548 29.3659 115.502 29.2453 115.409C29.1339 115.307 29.0039 115.256 28.8554 115.256C28.7162 115.256 28.6048 115.312 28.5213 115.423C28.4378 115.525 28.3542 115.711 28.2707 115.98L28.1315 116.412H27.8669L28.1732 115.395C28.3403 114.82 28.5399 114.435 28.7719 114.24C29.0039 114.045 29.2406 113.947 29.482 113.947C29.6583 113.947 29.8068 113.989 29.9275 114.073C30.0574 114.147 30.192 114.226 30.3312 114.309C30.4705 114.393 30.6468 114.435 30.8603 114.435C31.0274 114.435 31.2037 114.411 31.3894 114.365C31.575 114.309 31.7514 114.217 31.9184 114.087L32.0577 113.822L32.35 113.961C32.0066 114.435 31.6957 114.917 31.4172 115.409C31.1388 115.901 30.8974 116.393 30.6932 116.885C30.4983 117.377 30.3405 117.86 30.2199 118.333C30.1085 118.797 30.0389 119.243 30.011 119.67C29.9925 120.115 30.0342 120.44 30.1363 120.644C30.2477 120.848 30.4101 120.95 30.6236 120.95C31.0042 120.95 31.3569 120.858 31.6818 120.672C32.0066 120.477 32.299 120.222 32.5589 119.906C32.8281 119.581 33.0601 119.224 33.255 118.834C33.4592 118.435 33.6217 118.036 33.7423 117.637C33.8723 117.238 33.9651 116.862 34.0208 116.509Z" fill="#0F4415"/>
<path d="M36.838 118.263C37.2742 118.096 37.6733 117.925 38.0353 117.748C38.4066 117.563 38.7175 117.368 38.9681 117.163C39.3116 116.857 39.59 116.5 39.8035 116.091C40.017 115.674 40.1237 115.219 40.1237 114.727C40.1237 114.514 40.1052 114.374 40.068 114.309C40.0309 114.244 39.9752 114.212 39.901 114.212C39.6875 114.212 39.4554 114.314 39.2048 114.518C38.9542 114.722 38.7082 115.005 38.4669 115.367C38.2256 115.72 38.0028 116.119 37.7986 116.565C37.6037 117.01 37.4459 117.479 37.3253 117.971C37.2046 118.463 37.1443 118.95 37.1443 119.433C37.1443 119.925 37.2371 120.273 37.4227 120.477C37.6176 120.672 37.8729 120.769 38.1885 120.769C38.4576 120.769 38.7779 120.681 39.1491 120.505C39.5204 120.329 39.887 120.008 40.249 119.544L40.4718 119.656C40.2862 119.962 40.0402 120.259 39.7339 120.547C39.4276 120.834 39.0749 121.071 38.6758 121.257C38.2859 121.433 37.8543 121.521 37.3809 121.521C36.9911 121.521 36.6384 121.447 36.3228 121.299C36.0072 121.15 35.7613 120.932 35.5849 120.644C35.4086 120.347 35.3204 119.985 35.3204 119.558C35.3204 119.103 35.3993 118.621 35.5571 118.11C35.7149 117.59 35.9376 117.085 36.2254 116.593C36.5224 116.101 36.8704 115.655 37.2696 115.256C37.678 114.857 38.1281 114.541 38.6201 114.309C39.112 114.068 39.6411 113.947 40.2073 113.947C40.5785 113.947 40.8895 114.036 41.1401 114.212C41.3907 114.379 41.516 114.639 41.516 114.992C41.516 115.354 41.4139 115.692 41.2097 116.008C41.0055 116.323 40.727 116.611 40.3743 116.871C40.0309 117.131 39.6504 117.363 39.2327 117.567C38.8243 117.771 38.4112 117.948 37.9935 118.096C37.5759 118.245 37.186 118.365 36.824 118.458L36.838 118.263Z" fill="#0F4415"/>
<path d="M43.8001 120.143C43.7258 120.394 43.7073 120.584 43.7444 120.714C43.7908 120.834 43.8836 120.895 44.0229 120.895C44.1528 120.895 44.292 120.816 44.4405 120.658C44.5983 120.491 44.7654 120.171 44.9418 119.697L45.1645 119.071H45.4291L45.081 120.087C44.951 120.459 44.7886 120.751 44.5937 120.964C44.3988 121.169 44.1899 121.312 43.9672 121.396C43.7444 121.48 43.517 121.521 43.2849 121.521C42.9879 121.521 42.7512 121.466 42.5749 121.354C42.3985 121.243 42.2779 121.09 42.2129 120.895C42.1479 120.7 42.1247 120.477 42.1433 120.226C42.1618 119.967 42.2175 119.688 42.3104 119.391L44.5241 112.04C44.6169 111.724 44.6076 111.492 44.4962 111.344C44.3848 111.195 44.1018 111.121 43.6469 111.121L43.7444 110.829C44.3477 110.819 44.8861 110.768 45.3594 110.675C45.8328 110.573 46.2876 110.434 46.7239 110.258L43.8001 120.143Z" fill="#0F4415"/>
<path d="M50.9838 114.226C50.7425 114.226 50.4965 114.351 50.2459 114.602C49.9953 114.843 49.7586 115.177 49.5358 115.604C49.3131 116.022 49.1089 116.491 48.9232 117.01C48.7469 117.53 48.6076 118.068 48.5055 118.625C48.4034 119.173 48.3524 119.697 48.3524 120.199C48.3524 120.57 48.3988 120.839 48.4916 121.006C48.5937 121.164 48.7422 121.243 48.9372 121.243C49.1692 121.243 49.4105 121.122 49.6611 120.881C49.9117 120.64 50.1484 120.315 50.3712 119.906C50.6032 119.489 50.8074 119.025 50.9838 118.514C51.1601 117.994 51.2994 117.456 51.4015 116.899C51.5036 116.342 51.5546 115.799 51.5546 115.27C51.5546 114.88 51.5036 114.611 51.4015 114.462C51.3087 114.305 51.1694 114.226 50.9838 114.226ZM46.7095 119.266C46.7095 118.848 46.7652 118.398 46.8766 117.915C46.9972 117.433 47.1736 116.959 47.4056 116.495C47.6377 116.022 47.9254 115.595 48.2689 115.214C48.6216 114.824 49.03 114.518 49.4941 114.295C49.9582 114.063 50.4826 113.947 51.0673 113.947C51.7356 113.947 52.2554 114.138 52.6267 114.518C53.0072 114.889 53.1975 115.451 53.1975 116.203C53.1975 116.621 53.1372 117.071 53.0165 117.553C52.9051 118.036 52.7334 118.514 52.5014 118.987C52.2693 119.451 51.977 119.878 51.6242 120.268C51.2808 120.649 50.8771 120.955 50.413 121.187C49.9489 121.41 49.4244 121.521 48.8397 121.521C48.1714 121.521 47.647 121.331 47.2664 120.95C46.8951 120.57 46.7095 120.008 46.7095 119.266Z" fill="#0F4415"/>
<path d="M59.3322 114.588C59.128 114.588 58.9006 114.722 58.65 114.992C58.4087 115.261 58.1627 115.632 57.9121 116.105C57.6615 116.569 57.4248 117.094 57.202 117.679C56.9886 118.263 56.8029 118.876 56.6451 119.516L56.9097 118.068C57.2345 117.085 57.5594 116.291 57.8843 115.688C58.2091 115.084 58.5433 114.643 58.8867 114.365C59.2301 114.087 59.5968 113.947 59.9866 113.947C60.5064 113.947 60.9055 114.124 61.1839 114.476C61.4717 114.829 61.6156 115.349 61.6156 116.036C61.6156 116.463 61.5552 116.922 61.4346 117.414C61.3139 117.906 61.1375 118.393 60.9055 118.876C60.6827 119.359 60.4043 119.804 60.0701 120.213C59.736 120.612 59.3508 120.932 58.9145 121.173C58.4876 121.405 58.0096 121.521 57.4805 121.521C57.1835 121.521 56.9189 121.456 56.6869 121.326C56.4549 121.196 56.2831 121.015 56.1718 120.783L56.2831 120.547C56.3945 120.76 56.5152 120.913 56.6451 121.006C56.7751 121.099 56.9282 121.145 57.1046 121.145C57.3923 121.145 57.6708 121.034 57.9399 120.811C58.2184 120.579 58.469 120.273 58.6918 119.892C58.9238 119.503 59.128 119.071 59.3044 118.598C59.4807 118.124 59.6153 117.642 59.7081 117.15C59.8102 116.658 59.8613 116.198 59.8613 115.771C59.8613 115.326 59.8149 115.019 59.7221 114.852C59.6292 114.676 59.4993 114.588 59.3322 114.588ZM57.0628 112.123C57.3877 112.096 57.6986 112.058 57.9956 112.012C58.3019 111.956 58.5897 111.882 58.8588 111.789L55.8376 122.44C55.7077 122.886 55.7448 123.183 55.949 123.331C56.1532 123.48 56.4827 123.554 56.9375 123.554L56.854 123.846C56.6405 123.837 56.3435 123.823 55.9629 123.805C55.5824 123.795 55.1832 123.791 54.7656 123.791C54.4221 123.791 54.0741 123.795 53.7214 123.805C53.3686 123.823 53.1088 123.837 52.9417 123.846L53.0252 123.554C53.3594 123.554 53.6007 123.489 53.7492 123.359C53.8977 123.238 54.0184 123.016 54.1112 122.691L57.0628 112.123ZM54.2922 116.412C54.6449 116.059 54.9698 115.706 55.2668 115.354C55.5731 114.992 55.8701 114.569 56.1578 114.087C56.4456 113.595 56.7333 112.977 57.021 112.235L57.0628 112.458C56.8679 113.098 56.6359 113.664 56.3667 114.156C56.0975 114.639 55.8005 115.075 55.4756 115.465C55.16 115.855 54.8166 116.231 54.4453 116.593L54.2922 116.412Z" fill="#0F4415"/>
<path d="M64.0972 118.263C64.5334 118.096 64.9325 117.925 65.2945 117.748C65.6658 117.563 65.9767 117.368 66.2274 117.163C66.5708 116.857 66.8492 116.5 67.0627 116.091C67.2762 115.674 67.3829 115.219 67.3829 114.727C67.3829 114.514 67.3644 114.374 67.3273 114.309C67.2901 114.244 67.2344 114.212 67.1602 114.212C66.9467 114.212 66.7146 114.314 66.464 114.518C66.2134 114.722 65.9675 115.005 65.7261 115.367C65.4848 115.72 65.262 116.119 65.0578 116.565C64.8629 117.01 64.7051 117.479 64.5845 117.971C64.4638 118.463 64.4035 118.95 64.4035 119.433C64.4035 119.925 64.4963 120.273 64.6819 120.477C64.8768 120.672 65.1321 120.769 65.4477 120.769C65.7169 120.769 66.0371 120.681 66.4084 120.505C66.7796 120.329 67.1463 120.008 67.5082 119.544L67.731 119.656C67.5454 119.962 67.2994 120.259 66.9931 120.547C66.6868 120.834 66.3341 121.071 65.935 121.257C65.5451 121.433 65.1135 121.521 64.6402 121.521C64.2503 121.521 63.8976 121.447 63.582 121.299C63.2664 121.15 63.0205 120.932 62.8441 120.644C62.6678 120.347 62.5796 119.985 62.5796 119.558C62.5796 119.103 62.6585 118.621 62.8163 118.11C62.9741 117.59 63.1968 117.085 63.4846 116.593C63.7816 116.101 64.1297 115.655 64.5288 115.256C64.9372 114.857 65.3873 114.541 65.8793 114.309C66.3712 114.068 66.9003 113.947 67.4665 113.947C67.8378 113.947 68.1487 114.036 68.3993 114.212C68.6499 114.379 68.7752 114.639 68.7752 114.992C68.7752 115.354 68.6731 115.692 68.4689 116.008C68.2647 116.323 67.9863 116.611 67.6336 116.871C67.2901 117.131 66.9096 117.363 66.4919 117.567C66.0835 117.771 65.6704 117.948 65.2528 118.096C64.8351 118.245 64.4452 118.365 64.0833 118.458L64.0972 118.263Z" fill="#0F4415"/>
<path d="M71.2821 121.326H69.5696L71.2403 115.326C71.3238 115.047 71.3517 114.852 71.3238 114.741C71.296 114.63 71.2125 114.574 71.0732 114.574C70.8969 114.574 70.7344 114.662 70.5859 114.838C70.4374 115.015 70.2843 115.326 70.1265 115.771L69.8898 116.426H69.6253L69.9873 115.381C70.1172 115.01 70.2796 114.722 70.4746 114.518C70.6695 114.305 70.8829 114.156 71.115 114.073C71.347 113.989 71.5837 113.947 71.8251 113.947C72.1221 113.947 72.3402 114.008 72.4794 114.128C72.6279 114.249 72.7208 114.407 72.7579 114.602C72.8043 114.797 72.8136 115.01 72.7857 115.242C72.7672 115.465 72.73 115.683 72.6743 115.897L71.2821 121.326ZM74.8463 114.268C74.6421 114.268 74.4332 114.342 74.2198 114.49C74.0063 114.63 73.7835 114.857 73.5515 115.173C73.3194 115.488 73.0827 115.906 72.8414 116.426C72.6094 116.936 72.368 117.563 72.1174 118.305C71.8668 119.038 71.6162 119.906 71.3656 120.909L71.6998 119.057C71.9875 118.082 72.2567 117.27 72.5073 116.621C72.7672 115.961 73.0178 115.437 73.2591 115.047C73.5097 114.648 73.7742 114.365 74.0527 114.198C74.3311 114.031 74.6328 113.947 74.9577 113.947C75.2918 113.947 75.5471 114.045 75.7234 114.24C75.9091 114.435 76.0019 114.676 76.0019 114.964C76.0019 115.196 75.9462 115.414 75.8348 115.618C75.7234 115.813 75.5749 115.971 75.3893 116.091C75.2129 116.203 75.0087 116.259 74.7767 116.259C74.5446 116.259 74.359 116.198 74.2198 116.078C74.0898 115.957 74.0248 115.781 74.0248 115.548C74.0248 115.344 74.0713 115.159 74.1641 114.992C74.2569 114.824 74.3776 114.685 74.5261 114.574C74.6746 114.453 74.837 114.37 75.0134 114.323C74.9948 114.305 74.9716 114.291 74.9437 114.281C74.9159 114.272 74.8834 114.268 74.8463 114.268Z" fill="#0F4415"/>
<path d="M106.458 114.713C106.458 115.354 106.36 115.989 106.166 116.621C105.98 117.252 105.701 117.85 105.33 118.417C104.959 118.983 104.499 119.484 103.952 119.92C103.404 120.356 102.773 120.7 102.058 120.95C101.353 121.201 100.559 121.326 99.6775 121.326C99.5383 121.326 99.3573 121.322 99.1345 121.312C98.9118 121.303 98.6704 121.299 98.4105 121.299C98.1599 121.289 97.9 121.285 97.6309 121.285C97.4174 121.285 97.1853 121.289 96.9347 121.299C96.6841 121.299 96.4474 121.303 96.2247 121.312C96.0112 121.312 95.8302 121.317 95.6817 121.326L95.7235 121.048C96.0205 121.029 96.2525 120.992 96.4196 120.937C96.5959 120.881 96.7352 120.769 96.8373 120.602C96.9394 120.435 97.0322 120.185 97.1157 119.851L98.9396 112.945C99.0139 112.666 99.0463 112.444 99.0371 112.277C99.0371 112.1 98.9675 111.97 98.8282 111.887C98.6983 111.803 98.4662 111.757 98.1321 111.748L98.1739 111.469C98.3316 111.478 98.5266 111.488 98.7586 111.497C98.9907 111.506 99.2366 111.511 99.4965 111.511C99.7657 111.511 100.021 111.511 100.262 111.511C100.439 111.502 100.657 111.497 100.917 111.497C101.177 111.488 101.436 111.483 101.696 111.483C101.956 111.474 102.174 111.469 102.351 111.469C103.687 111.469 104.704 111.743 105.4 112.291C106.105 112.838 106.458 113.646 106.458 114.713ZM99.6218 121.076C100.262 121.076 100.838 120.95 101.348 120.7C101.868 120.449 102.323 120.101 102.713 119.656C103.112 119.21 103.441 118.7 103.701 118.124C103.97 117.549 104.17 116.936 104.3 116.286C104.439 115.627 104.509 114.968 104.509 114.309C104.509 113.455 104.314 112.81 103.924 112.374C103.534 111.938 102.898 111.72 102.017 111.72C101.766 111.72 101.571 111.752 101.432 111.817C101.293 111.873 101.181 111.989 101.098 112.165C101.014 112.332 100.931 112.583 100.847 112.917L99.0231 119.878C98.9396 120.166 98.8886 120.398 98.87 120.575C98.8607 120.751 98.9118 120.881 99.0231 120.964C99.1345 121.039 99.3341 121.076 99.6218 121.076Z" fill="#0F4415"/>
<path d="M108.711 118.263C109.148 118.096 109.547 117.925 109.909 117.748C110.28 117.563 110.591 117.368 110.842 117.163C111.185 116.857 111.463 116.5 111.677 116.091C111.89 115.674 111.997 115.219 111.997 114.727C111.997 114.514 111.979 114.374 111.941 114.309C111.904 114.244 111.849 114.212 111.774 114.212C111.561 114.212 111.329 114.314 111.078 114.518C110.828 114.722 110.582 115.005 110.34 115.367C110.099 115.72 109.876 116.119 109.672 116.565C109.477 117.01 109.319 117.479 109.199 117.971C109.078 118.463 109.018 118.95 109.018 119.433C109.018 119.925 109.111 120.273 109.296 120.477C109.491 120.672 109.746 120.769 110.062 120.769C110.331 120.769 110.651 120.681 111.023 120.505C111.394 120.329 111.761 120.008 112.122 119.544L112.345 119.656C112.16 119.962 111.914 120.259 111.607 120.547C111.301 120.834 110.948 121.071 110.549 121.257C110.159 121.433 109.728 121.521 109.254 121.521C108.865 121.521 108.512 121.447 108.196 121.299C107.881 121.15 107.635 120.932 107.458 120.644C107.282 120.347 107.194 119.985 107.194 119.558C107.194 119.103 107.273 118.621 107.431 118.11C107.588 117.59 107.811 117.085 108.099 116.593C108.396 116.101 108.744 115.655 109.143 115.256C109.551 114.857 110.002 114.541 110.494 114.309C110.985 114.068 111.515 113.947 112.081 113.947C112.452 113.947 112.763 114.036 113.014 114.212C113.264 114.379 113.389 114.639 113.389 114.992C113.389 115.354 113.287 115.692 113.083 116.008C112.879 116.323 112.601 116.611 112.248 116.871C111.904 117.131 111.524 117.363 111.106 117.567C110.698 117.771 110.285 117.948 109.867 118.096C109.449 118.245 109.059 118.365 108.697 118.458L108.711 118.263Z" fill="#0F4415"/>
<path d="M114.838 121.118C114.912 121.155 114.991 121.187 115.075 121.215C115.158 121.234 115.274 121.243 115.423 121.243C115.776 121.243 116.068 121.131 116.3 120.909C116.541 120.677 116.662 120.356 116.662 119.948C116.662 119.651 116.597 119.349 116.467 119.043C116.346 118.737 116.161 118.398 115.91 118.027C115.687 117.702 115.483 117.382 115.298 117.066C115.121 116.75 115.033 116.388 115.033 115.98C115.033 115.581 115.131 115.233 115.325 114.936C115.52 114.63 115.799 114.388 116.161 114.212C116.523 114.036 116.945 113.947 117.428 113.947C117.743 113.947 118.054 113.984 118.361 114.059C118.667 114.133 118.918 114.268 119.112 114.462C119.307 114.657 119.405 114.94 119.405 115.312C119.405 115.442 119.377 115.581 119.321 115.729C119.266 115.869 119.182 115.989 119.071 116.091C118.959 116.194 118.811 116.245 118.625 116.245C118.43 116.245 118.268 116.17 118.138 116.022C118.008 115.864 117.943 115.664 117.943 115.423C117.943 115.21 117.98 115.01 118.054 114.824C118.138 114.639 118.235 114.476 118.347 114.337C118.217 114.263 118.031 114.226 117.79 114.226C117.456 114.226 117.186 114.333 116.982 114.546C116.778 114.76 116.676 115.061 116.676 115.451C116.676 115.655 116.708 115.85 116.773 116.036C116.848 116.212 116.945 116.398 117.066 116.593C117.196 116.778 117.34 116.996 117.497 117.247C117.757 117.665 117.962 118.041 118.11 118.375C118.259 118.7 118.333 119.034 118.333 119.377C118.333 119.786 118.221 120.152 117.999 120.477C117.785 120.802 117.488 121.057 117.108 121.243C116.727 121.428 116.282 121.521 115.771 121.521C115.409 121.521 115.061 121.47 114.727 121.368C114.402 121.275 114.133 121.118 113.919 120.895C113.715 120.672 113.613 120.366 113.613 119.976C113.613 119.762 113.673 119.567 113.794 119.391C113.905 119.205 114.082 119.113 114.323 119.113C114.564 119.113 114.745 119.21 114.866 119.405C114.987 119.6 115.047 119.841 115.047 120.129C115.047 120.333 115.019 120.524 114.963 120.7C114.917 120.867 114.875 121.006 114.838 121.118Z" fill="#0F4415"/>
<path d="M122.485 111.748C122.513 111.404 122.652 111.13 122.903 110.926C123.153 110.722 123.446 110.62 123.78 110.62C124.086 110.62 124.318 110.708 124.476 110.884C124.643 111.051 124.713 111.27 124.685 111.539C124.657 111.854 124.518 112.119 124.267 112.332C124.016 112.546 123.724 112.653 123.39 112.653C123.084 112.653 122.847 112.569 122.68 112.402C122.522 112.226 122.457 112.007 122.485 111.748ZM121.998 115.326C122.165 114.824 122.109 114.574 121.831 114.574C121.645 114.574 121.478 114.671 121.329 114.866C121.181 115.052 121.023 115.354 120.856 115.771L120.619 116.426H120.355L120.717 115.381C120.856 115.01 121.023 114.722 121.218 114.518C121.413 114.305 121.631 114.156 121.872 114.073C122.114 113.989 122.35 113.947 122.582 113.947C122.907 113.947 123.153 114.008 123.32 114.128C123.487 114.249 123.599 114.407 123.654 114.602C123.71 114.797 123.724 115.01 123.696 115.242C123.668 115.465 123.617 115.683 123.543 115.897L122.067 120.143C121.984 120.394 121.961 120.584 121.998 120.714C122.035 120.834 122.123 120.895 122.262 120.895C122.411 120.895 122.559 120.816 122.708 120.658C122.865 120.491 123.033 120.171 123.209 119.697L123.446 119.071H123.71L123.362 120.087C123.223 120.459 123.056 120.751 122.861 120.964C122.666 121.169 122.452 121.312 122.22 121.396C121.988 121.48 121.761 121.521 121.538 121.521C121.13 121.521 120.833 121.433 120.647 121.257C120.461 121.071 120.369 120.821 120.369 120.505C120.369 120.18 120.443 119.809 120.591 119.391L121.998 115.326Z" fill="#0F4415"/>
<path d="M127.865 118.18L128.408 118.152C128.046 118.319 127.73 118.472 127.461 118.611C127.192 118.741 126.978 118.867 126.821 118.987C126.663 119.099 126.584 119.21 126.584 119.322C126.584 119.405 126.64 119.484 126.751 119.558C126.862 119.623 127.039 119.688 127.28 119.753L128.394 120.101C128.672 120.185 128.928 120.282 129.16 120.394C129.401 120.505 129.596 120.649 129.744 120.825C129.893 121.002 129.967 121.229 129.967 121.507C129.967 121.814 129.865 122.115 129.661 122.412C129.466 122.709 129.183 122.974 128.812 123.206C128.45 123.447 128.013 123.638 127.503 123.777C126.992 123.925 126.426 124 125.804 124C125.331 124 124.913 123.953 124.551 123.86C124.18 123.777 123.897 123.656 123.702 123.498C123.498 123.341 123.396 123.155 123.396 122.941C123.396 122.774 123.461 122.617 123.59 122.468C123.72 122.32 123.897 122.185 124.12 122.064C124.342 121.944 124.593 121.837 124.871 121.744C125.15 121.651 125.442 121.582 125.749 121.535L125.804 121.744C125.479 121.911 125.252 122.092 125.122 122.287C125.001 122.491 124.941 122.691 124.941 122.886C124.941 123.192 125.048 123.415 125.261 123.554C125.484 123.693 125.767 123.763 126.11 123.763C126.389 123.763 126.672 123.721 126.96 123.638C127.257 123.554 127.531 123.438 127.781 123.29C128.041 123.15 128.245 122.988 128.394 122.802C128.552 122.617 128.631 122.417 128.631 122.204C128.631 122.036 128.575 121.92 128.463 121.855C128.352 121.8 128.19 121.749 127.976 121.702L125.93 121.131C125.707 121.067 125.516 120.964 125.359 120.825C125.201 120.677 125.122 120.482 125.122 120.24C125.122 120.018 125.215 119.804 125.4 119.6C125.595 119.386 125.892 119.168 126.291 118.946C126.7 118.714 127.224 118.458 127.865 118.18ZM128.505 114.198C128.282 114.198 128.092 114.272 127.934 114.421C127.777 114.569 127.637 114.764 127.517 115.005C127.405 115.238 127.312 115.493 127.238 115.771C127.173 116.04 127.122 116.31 127.085 116.579C127.057 116.839 127.043 117.071 127.043 117.275C127.043 117.572 127.09 117.781 127.183 117.901C127.285 118.022 127.424 118.082 127.6 118.082C127.86 118.082 128.078 117.985 128.255 117.79C128.44 117.595 128.589 117.344 128.7 117.038C128.812 116.732 128.89 116.412 128.937 116.078C128.983 115.734 129.006 115.419 129.006 115.131C129.006 114.862 128.974 114.639 128.909 114.462C128.853 114.286 128.719 114.198 128.505 114.198ZM128.672 113.947C129.266 113.947 129.749 114.073 130.12 114.323C130.501 114.565 130.691 114.964 130.691 115.521C130.691 115.966 130.556 116.407 130.287 116.843C130.018 117.28 129.633 117.637 129.132 117.915C128.64 118.194 128.06 118.333 127.391 118.333C126.825 118.333 126.347 118.212 125.957 117.971C125.577 117.72 125.387 117.326 125.387 116.788C125.387 116.509 125.451 116.207 125.581 115.883C125.711 115.548 125.911 115.238 126.18 114.95C126.449 114.653 126.788 114.411 127.196 114.226C127.614 114.04 128.106 113.947 128.672 113.947ZM129.744 114.685L129.466 114.588C129.605 114.244 129.833 113.952 130.148 113.711C130.464 113.469 130.798 113.349 131.151 113.349C131.429 113.349 131.642 113.428 131.791 113.585C131.939 113.734 132.014 113.943 132.014 114.212C132.014 114.481 131.949 114.681 131.819 114.811C131.689 114.94 131.54 115.005 131.373 115.005C131.225 115.005 131.081 114.954 130.942 114.852C130.812 114.741 130.733 114.574 130.705 114.351C130.677 114.128 130.737 113.841 130.886 113.488L131.011 113.558C130.649 113.697 130.38 113.85 130.204 114.017C130.027 114.184 129.874 114.407 129.744 114.685Z" fill="#0F4415"/>
<path d="M133.683 121.326H131.97L133.655 115.326C133.692 115.196 133.72 115.075 133.738 114.964C133.757 114.852 133.748 114.76 133.71 114.685C133.683 114.611 133.604 114.574 133.474 114.574C133.297 114.574 133.135 114.662 132.986 114.838C132.847 115.005 132.694 115.316 132.527 115.771L132.29 116.426H132.026L132.388 115.381C132.583 114.834 132.833 114.458 133.14 114.254C133.446 114.049 133.785 113.947 134.156 113.947C134.462 113.947 134.694 114.008 134.852 114.128C135.019 114.249 135.126 114.407 135.172 114.602C135.219 114.787 135.228 114.996 135.2 115.228C135.172 115.451 135.131 115.674 135.075 115.897L133.683 121.326ZM134.198 118.792C134.541 117.836 134.871 117.047 135.186 116.426C135.502 115.804 135.808 115.312 136.105 114.95C136.402 114.579 136.709 114.319 137.024 114.17C137.34 114.022 137.669 113.947 138.013 113.947C138.467 113.947 138.783 114.049 138.959 114.254C139.145 114.449 139.233 114.708 139.224 115.033C139.224 115.349 139.164 115.688 139.043 116.05L137.678 120.143C137.595 120.394 137.572 120.584 137.609 120.714C137.646 120.834 137.739 120.895 137.887 120.895C138.027 120.895 138.17 120.816 138.319 120.658C138.477 120.5 138.644 120.18 138.82 119.697L139.043 119.071H139.307L138.959 120.087C138.829 120.477 138.662 120.774 138.458 120.978C138.263 121.183 138.05 121.322 137.818 121.396C137.595 121.48 137.372 121.521 137.149 121.521C136.908 121.521 136.699 121.48 136.523 121.396C136.356 121.322 136.226 121.215 136.133 121.076C136.012 120.899 135.961 120.672 135.98 120.394C135.998 120.115 136.073 119.781 136.203 119.391L137.47 115.562C137.516 115.414 137.553 115.265 137.581 115.117C137.609 114.959 137.604 114.829 137.567 114.727C137.53 114.616 137.432 114.56 137.275 114.56C137.08 114.56 136.866 114.671 136.634 114.894C136.402 115.108 136.161 115.409 135.91 115.799C135.66 116.189 135.409 116.644 135.158 117.163C134.908 117.683 134.666 118.249 134.434 118.862C134.212 119.465 134.012 120.092 133.836 120.742L134.198 118.792Z" fill="#0F4415"/>
<path d="M141.976 118.263C142.413 118.096 142.812 117.925 143.174 117.748C143.545 117.563 143.856 117.368 144.107 117.163C144.45 116.857 144.729 116.5 144.942 116.091C145.155 115.674 145.262 115.219 145.262 114.727C145.262 114.514 145.244 114.374 145.207 114.309C145.169 114.244 145.114 114.212 145.039 114.212C144.826 114.212 144.594 114.314 144.343 114.518C144.093 114.722 143.847 115.005 143.605 115.367C143.364 115.72 143.141 116.119 142.937 116.565C142.742 117.01 142.584 117.479 142.464 117.971C142.343 118.463 142.283 118.95 142.283 119.433C142.283 119.925 142.376 120.273 142.561 120.477C142.756 120.672 143.011 120.769 143.327 120.769C143.596 120.769 143.916 120.681 144.288 120.505C144.659 120.329 145.026 120.008 145.388 119.544L145.61 119.656C145.425 119.962 145.179 120.259 144.872 120.547C144.566 120.834 144.213 121.071 143.814 121.257C143.424 121.433 142.993 121.521 142.519 121.521C142.13 121.521 141.777 121.447 141.461 121.299C141.146 121.15 140.9 120.932 140.723 120.644C140.547 120.347 140.459 119.985 140.459 119.558C140.459 119.103 140.538 118.621 140.696 118.11C140.853 117.59 141.076 117.085 141.364 116.593C141.661 116.101 142.009 115.655 142.408 115.256C142.816 114.857 143.267 114.541 143.759 114.309C144.251 114.068 144.78 113.947 145.346 113.947C145.717 113.947 146.028 114.036 146.279 114.212C146.529 114.379 146.654 114.639 146.654 114.992C146.654 115.354 146.552 115.692 146.348 116.008C146.144 116.323 145.866 116.611 145.513 116.871C145.169 117.131 144.789 117.363 144.371 117.567C143.963 117.771 143.55 117.948 143.132 118.096C142.714 118.245 142.325 118.365 141.963 118.458L141.976 118.263Z" fill="#0F4415"/>
<path d="M149.161 121.326H147.449L149.12 115.326C149.203 115.047 149.231 114.852 149.203 114.741C149.175 114.63 149.092 114.574 148.953 114.574C148.776 114.574 148.614 114.662 148.465 114.838C148.317 115.015 148.164 115.326 148.006 115.771L147.769 116.426H147.505L147.867 115.381C147.996 115.01 148.159 114.722 148.354 114.518C148.549 114.305 148.762 114.156 148.994 114.073C149.226 113.989 149.463 113.947 149.704 113.947C150.001 113.947 150.219 114.008 150.359 114.128C150.507 114.249 150.6 114.407 150.637 114.602C150.684 114.797 150.693 115.01 150.665 115.242C150.646 115.465 150.609 115.683 150.554 115.897L149.161 121.326ZM152.726 114.268C152.521 114.268 152.313 114.342 152.099 114.49C151.886 114.63 151.663 114.857 151.431 115.173C151.199 115.488 150.962 115.906 150.721 116.426C150.489 116.936 150.247 117.563 149.997 118.305C149.746 119.038 149.495 119.906 149.245 120.909L149.579 119.057C149.867 118.082 150.136 117.27 150.387 116.621C150.646 115.961 150.897 115.437 151.138 115.047C151.389 114.648 151.654 114.365 151.932 114.198C152.21 114.031 152.512 113.947 152.837 113.947C153.171 113.947 153.426 114.045 153.603 114.24C153.788 114.435 153.881 114.676 153.881 114.964C153.881 115.196 153.825 115.414 153.714 115.618C153.603 115.813 153.454 115.971 153.269 116.091C153.092 116.203 152.888 116.259 152.656 116.259C152.424 116.259 152.238 116.198 152.099 116.078C151.969 115.957 151.904 115.781 151.904 115.548C151.904 115.344 151.951 115.159 152.043 114.992C152.136 114.824 152.257 114.685 152.405 114.574C152.554 114.453 152.716 114.37 152.893 114.323C152.874 114.305 152.851 114.291 152.823 114.281C152.795 114.272 152.763 114.268 152.726 114.268Z" fill="#0F4415"/>
<path d="M89.3269 117.187L88.3274 117.437C88.3274 117.954 88.2485 118.476 88.0906 119.002C87.9328 119.52 87.718 119.98 87.4462 120.383C87.5339 120.532 87.6654 120.659 87.8408 120.765C88.0249 120.87 88.209 120.922 88.3931 120.922C88.6035 120.922 88.8008 120.87 88.985 120.765C89.1778 120.659 89.34 120.523 89.4716 120.357L89.8793 120.949C89.5022 121.483 88.9543 121.751 88.2353 121.751C87.9284 121.751 87.6303 121.698 87.341 121.593C87.0604 121.479 86.793 121.321 86.5387 121.12C86.2143 121.339 85.8592 121.501 85.4734 121.606C85.0964 121.703 84.6624 121.751 84.1714 121.751C83.1105 121.751 82.2732 121.519 81.6594 121.054C81.0544 120.589 80.752 119.954 80.752 119.147C80.752 118.603 80.9054 118.134 81.2123 117.74C81.5191 117.345 82.0364 116.946 82.7642 116.543C82.2819 115.771 82.0408 115.039 82.0408 114.346C82.0408 113.891 82.1373 113.492 82.3302 113.15C82.5231 112.799 82.7992 112.527 83.1587 112.334C83.5182 112.141 83.9391 112.045 84.4213 112.045C84.8685 112.045 85.2586 112.124 85.5918 112.282C85.925 112.439 86.1836 112.659 86.3678 112.939C86.5519 113.22 86.6439 113.54 86.6439 113.899C86.6439 114.39 86.4642 114.873 86.1047 115.346C85.7452 115.811 85.1972 116.236 84.4608 116.622L86.7886 119.633C86.964 119.362 87.1086 119.037 87.2226 118.66C87.3454 118.283 87.4111 117.876 87.4199 117.437L86.4072 117.187V116.556H89.3269V117.187ZM84.3292 120.896C84.6624 120.896 84.9605 120.861 85.2236 120.791C85.4866 120.721 85.7058 120.62 85.8811 120.488L83.3165 117.2C82.9746 117.385 82.7072 117.648 82.5143 117.99C82.3302 118.331 82.2381 118.713 82.2381 119.134C82.2381 119.695 82.4178 120.129 82.7773 120.436C83.1456 120.743 83.6629 120.896 84.3292 120.896ZM83.3297 114.044C83.3297 114.351 83.3779 114.649 83.4744 114.938C83.5708 115.219 83.7286 115.535 83.9478 115.885C84.4914 115.552 84.8948 115.241 85.1578 114.951C85.4296 114.653 85.5655 114.325 85.5655 113.965C85.5655 113.632 85.4603 113.364 85.2498 113.163C85.0394 112.952 84.7501 112.847 84.3818 112.847C84.0574 112.847 83.7988 112.948 83.6059 113.15C83.4218 113.351 83.3297 113.649 83.3297 114.044Z" fill="#0F4415"/>
<path d="M165.216 116.756L161.504 113.043L157.791 116.756L161.504 120.468L165.216 116.756Z" fill="#0F4415"/>
<path d="M7.42546 116.756L3.71273 113.043L0 116.756L3.71273 120.468L7.42546 116.756Z" fill="#0F4415"/>
</svg>
