<svg width="173" height="88" viewBox="0 0 173 88" fill="none" xmlns="http://www.w3.org/2000/svg">
<path d="M134.264 0.169356C133.567 2.25583 134.606 3.56646 136.013 4.94721C140.545 9.38754 135.513 13.258 131.989 15.5505C131.84 15.6499 131.784 15.6119 131.822 15.4366C132.901 10.571 124.826 9.65055 129.39 4.78941C130.909 3.17049 132.464 1.58664 134.054 0.0378613C134.074 0.017287 134.1 0.00423696 134.129 0.00086747C134.158 -0.00250202 134.187 0.00400582 134.211 0.0193209C134.236 0.034636 134.254 0.0578416 134.264 0.0851153C134.274 0.112389 134.274 0.142102 134.264 0.169356Z" fill="#551AA6"/>
<path d="M149.898 27.8368C151.909 28.5323 153.824 28.8728 155.645 28.8581L159.756 28.959C161.793 28.956 163.285 28.2226 164.232 26.7585C164.37 26.5421 164.419 26.28 164.366 26.0284C164.314 25.7768 164.165 25.5558 163.951 25.4128L162.658 24.5493C163.558 24.3564 164.369 24.5391 165.091 25.0972C166.093 25.8745 166.19 26.8973 165.38 28.1656C162.531 32.6234 156.442 35.3586 151.252 35.1482C148.973 35.0547 146.486 34.6018 143.792 33.7894L140.088 32.5708C135.512 30.6714 131.141 28.5308 126.977 26.1492C123.299 24.0496 120.003 22.5505 115.852 22.1998C111.574 21.8375 108.029 23.246 105.218 26.4254C105.18 26.4663 105.14 26.4692 105.099 26.4341L105.007 26.364C104.94 26.3085 104.931 26.2457 104.981 26.1755C107.702 22.3737 110.881 19.5143 114.519 17.5973C119.6 14.9235 125.815 16.3524 131.023 19.206C134.068 20.8775 137.145 22.4891 140.254 24.0408C143.489 25.6539 146.704 26.9192 149.898 27.8368Z" fill="#551AA6"/>
<path d="M162.659 24.5496L163.952 25.4131C164.165 25.556 164.314 25.777 164.367 26.0286C164.419 26.2802 164.371 26.5424 164.232 26.7588C163.285 28.2228 161.794 28.9563 159.757 28.9592C158.401 28.5063 157.03 28.4727 155.645 28.8584C153.825 28.873 151.909 28.5326 149.898 27.8371C153.063 26.0867 156.361 24.9747 159.792 24.5013C160.815 24.3581 161.77 24.3742 162.659 24.5496Z" fill="#381668"/>
<path d="M159.756 28.9592L155.645 28.8584C157.03 28.4727 158.4 28.5063 159.756 28.9592Z" fill="#260A4F"/>
<path d="M130.682 36.1175L136.232 37.9322C140.601 39.3524 144.756 40.3153 148.698 40.8209L151.74 41.1671C157.347 41.9167 163.501 41.5748 168.845 39.2604C170.165 38.7461 171.551 37.7262 173 36.2008C172.372 38.6087 170.734 40.701 168.086 42.4778C160.367 47.6501 151.846 48.141 142.899 46.9049L139.673 46.4272C133.86 45.1969 128.236 43.5429 122.801 41.4652L115.7 38.6686C110.409 36.4287 101.664 34.3598 96.3073 36.5164C93.1603 37.2703 92.0123 38.6716 92.8623 40.72C92.4673 40.8106 92.0233 40.419 91.5293 39.5453C89.9293 36.7049 92.2573 34.4256 94.5103 33.1193C103.926 27.6752 114.823 29.5644 124.269 33.6585C126.49 34.6199 128.628 35.4396 130.682 36.1175Z" fill="#551AA6"/>
<path d="M140.09 32.5708L143.794 33.7894L136.233 37.9316L130.684 36.1169C134.021 35.1906 137.156 34.0085 140.09 32.5708Z" fill="#381668"/>
<path d="M173.001 36.2003C171.552 37.7257 170.166 38.7456 168.846 39.2599C166.715 37.9858 164.176 37.5723 161.227 38.0194C157.627 38.56 154.465 39.6091 151.741 41.1666L148.699 40.8204C152.302 38.427 156.046 36.551 159.93 35.1921C163.765 33.8508 167.561 33.3204 171.309 34.2804C172.279 34.5288 172.843 35.1688 173.001 36.2003Z" fill="#381668"/>
<path d="M115.701 38.6682C113.08 39.1329 109.954 39.3067 106.325 39.1899C102.485 39.0642 99.1456 38.1729 96.3086 36.516C101.665 34.3594 110.41 36.4283 115.701 38.6682Z" fill="#260A4F"/>
<path d="M96.307 36.5161C99.144 38.173 102.483 39.0643 106.323 39.19C109.952 39.3068 113.078 39.133 115.699 38.6683L122.8 41.4649C120.059 41.95 116.72 42.403 112.784 42.8238C106.879 43.455 100.747 43.8056 95.145 42.0654C94.271 41.7937 93.51 41.3451 92.861 40.7197C92.011 38.6713 93.159 37.27 96.307 36.5161Z" fill="#381668"/>
<path d="M168.844 39.2599C163.501 41.5743 157.347 41.9162 151.74 41.1667C154.464 39.6091 157.626 38.56 161.226 38.0194C164.175 37.5723 166.714 37.9858 168.844 39.2599Z" fill="#260A4F"/>
<path d="M131.862 50.7618L135.197 51.8927L139.932 53.4006L143 54.08C146.577 55.097 150.236 55.3468 153.976 54.8296C155.502 54.853 156.751 54.2539 157.724 53.0324C158.209 52.4246 158.213 51.5231 157.737 50.3279C158.64 50.9386 159.07 51.8036 159.026 52.9228C158.921 55.5484 156.291 58.0426 154.068 59.1384C147.616 62.3207 140.309 61.0978 133.663 59.2918L132.655 59.042L124.984 56.4076L118.939 54.023C116.248 52.8614 112.364 51.827 109.304 52.4143C108.422 52.3764 107.417 52.6394 106.289 53.2034C105.029 53.8346 104.629 54.8471 105.088 56.241C104.076 55.6098 103.775 54.6089 104.185 53.2384C104.453 52.3413 105.003 51.45 105.833 50.5646C111.413 44.6207 119.649 45.8569 126.365 48.6447C128.276 49.4366 130.108 50.1423 131.862 50.7618Z" fill="#551AA6"/>
<path d="M139.673 46.4268L142.899 46.9045L135.197 51.8928L131.861 50.7619L139.673 46.4268Z" fill="#381668"/>
<path d="M157.737 50.328C158.214 51.5231 158.209 52.4247 157.724 53.0325C156.751 54.254 155.502 54.853 153.976 54.8297C150.808 52.7549 147.15 52.505 143 54.0801L139.932 53.4007C144.696 50.1526 149.628 48.316 155.524 49.4294C156.386 49.5901 157.123 49.8896 157.737 50.328Z" fill="#381668"/>
<path d="M118.94 54.0231C115.456 54.7887 112.245 54.2525 109.305 52.4144C112.364 51.827 116.248 52.8615 118.94 54.0231Z" fill="#260A4F"/>
<path d="M109.303 52.4147C112.243 54.2528 115.454 54.789 118.938 54.0234L124.983 56.408C119.814 57.929 112.104 59.4938 106.975 57.495C106.321 57.2408 105.691 56.8229 105.086 56.2414C104.627 54.8475 105.028 53.8349 106.287 53.2037C107.415 52.6397 108.42 52.3767 109.303 52.4147Z" fill="#381668"/>
<path d="M153.976 54.8297C150.236 55.3469 146.577 55.0971 143 54.0801C147.15 52.505 150.808 52.7549 153.976 54.8297Z" fill="#260A4F"/>
<path d="M132.654 59.042L133.662 59.2918C133.446 59.8558 133.232 60.4111 133.022 60.9575C132.097 63.3421 133.158 65.7748 135.222 67.0986C137.125 68.3172 135.003 69.562 134.254 70.4913L131.702 73.0775C131.545 72.9022 131.499 72.6085 131.567 72.1964C131.59 72.0445 131.556 71.9057 131.466 71.78C131.06 71.216 130.617 70.6871 130.138 70.1932C126.534 66.4762 130.203 62.0139 132.654 59.042Z" fill="#381668"/>
<path d="M134.255 70.4912C134.22 70.8214 133.96 71.3211 133.475 71.9903C131.335 74.9491 137.911 77.1846 136.867 80.8578C136.162 83.3257 133.102 85.5217 131.182 86.977C130.817 87.2546 130.713 87.1772 130.871 86.7447C132.536 82.2517 123.073 81.0376 129.069 75.5627C130.001 74.7153 130.88 73.8869 131.704 73.0774L134.255 70.4912Z" fill="#551AA6"/>
<path d="M73.0086 55.7799C72.6682 55.7799 72.4309 55.5891 72.2968 55.2074C72.1628 54.8154 72.0957 54.3461 72.0957 53.7994C72.0957 53.263 72.1628 52.804 72.2968 52.4223C72.4309 52.0303 72.6269 51.8343 72.8848 51.8343C73.9267 51.8343 74.855 51.7054 75.6699 51.4475C76.4848 51.1793 77.2482 50.8544 77.9599 50.4727C78.6717 50.0911 79.3834 49.7094 80.0952 49.3277C80.8069 48.9357 81.5754 48.6108 82.4006 48.3529C83.2258 48.0847 84.1697 47.9506 85.2321 47.9506L84.737 50.6739C83.7158 50.6739 82.8287 50.5552 82.0757 50.318C81.333 50.0807 80.6625 49.8022 80.0642 49.4825C79.4659 49.1627 78.8883 48.8842 78.3313 48.6469C77.7845 48.3994 77.1966 48.2756 76.5674 48.2756C76.0516 48.2756 75.5822 48.389 75.1593 48.616C74.7467 48.8429 74.3083 49.2194 73.8441 49.7455L73.5037 49.6372C73.6894 48.3065 74.102 47.2079 74.7416 46.3415C75.3811 45.475 76.2115 45.0417 77.2327 45.0417C77.9238 45.0417 78.5376 45.1552 79.074 45.3822C79.6103 45.5988 80.1725 45.8567 80.7605 46.1558C81.3485 46.4446 82.0447 46.7025 82.8493 46.9294C83.6539 47.1461 84.6648 47.2544 85.882 47.2544L85.1857 50.9988C83.9685 50.9988 82.9473 51.1587 82.1221 51.4784C81.3072 51.7982 80.58 52.1954 79.9404 52.6699C79.3112 53.1444 78.6871 53.624 78.0682 54.1088C77.4493 54.5833 76.7427 54.9805 75.9484 55.3002C75.1542 55.62 74.1742 55.7799 73.0086 55.7799ZM80.2344 39.4561C80.9565 39.9409 81.5496 40.534 82.0138 41.2354L80.2344 42.9993C79.7702 42.3288 79.1823 41.7409 78.4705 41.2354L80.2344 39.4561Z" fill="#551AA6"/>
<path d="M60.5206 52.0667L61.0466 56.0122C59.7366 56.0122 58.6948 55.842 57.9211 55.5016C57.1475 55.1509 56.642 54.6713 56.4048 54.0627L56.5905 53.9079C56.2294 54.6197 55.8684 55.1096 55.5074 55.3778C55.1566 55.646 54.677 55.7801 54.0684 55.7801H53.8363C53.6713 55.7801 53.532 55.6615 53.4185 55.4243C53.3051 55.187 53.2225 54.9137 53.171 54.6042C53.1091 54.2844 53.0781 54.0008 53.0781 53.7532C53.0781 53.3922 53.14 52.9847 53.2638 52.5308C53.3876 52.0667 53.5784 51.8346 53.8363 51.8346H53.9137C54.7079 51.8346 55.2959 51.6231 55.6776 51.2002C56.0695 50.7773 56.3584 50.2202 56.544 49.5291H56.7761C56.9205 50.5916 57.3228 51.2827 57.983 51.6025C58.6432 51.9119 59.489 52.0667 60.5206 52.0667ZM69.2008 45.6918C70.3355 45.6918 71.1246 45.9704 71.5682 46.5274C72.022 47.0844 72.249 47.7497 72.249 48.5234C72.249 49.4517 71.9292 50.3646 71.2897 51.2621C70.6501 52.1492 69.7888 52.9538 68.7057 53.6758C67.6329 54.3876 66.4312 54.9549 65.1005 55.3778C63.7699 55.8008 62.4082 56.0122 61.0157 56.0122L60.4741 52.0667C61.7326 52.0563 62.9498 52.0202 64.1257 51.9583C65.3017 51.8965 66.3538 51.7985 67.2822 51.6644C68.2106 51.5303 68.9481 51.3601 69.4948 51.1538C70.0415 50.9475 70.3149 50.6947 70.3149 50.3956C70.3149 49.9933 70.0879 49.6219 69.6341 49.2815C69.1905 48.9308 68.5045 48.7555 67.5762 48.7555C67.308 48.7555 66.8954 48.8741 66.3383 49.1113C65.7813 49.3383 65.1624 49.6374 64.4816 50.0088C63.8008 50.3801 63.1406 50.7927 62.5011 51.2466C61.8719 51.6902 61.3509 52.1337 60.9383 52.5773L59.9945 52.5154C61.1498 51.2569 62.269 50.1119 63.3521 49.0804C64.4455 48.0489 65.4822 47.2288 66.4621 46.6202C67.4421 46.0013 68.355 45.6918 69.2008 45.6918ZM70.5624 51.4168C70.8306 51.5509 71.1865 51.654 71.6301 51.7263C72.0736 51.7985 72.4862 51.8346 72.8679 51.8346C73.0432 51.8346 73.1825 52.0512 73.2857 52.4844C73.3991 52.9177 73.4559 53.3561 73.4559 53.7996C73.4559 54.2741 73.3991 54.7228 73.2857 55.1458C73.1722 55.5687 73.0329 55.7801 72.8679 55.7801C71.9189 55.7801 71.104 55.7389 70.4232 55.6564C69.7527 55.5635 69.1286 55.4088 68.551 55.1922C67.9836 54.9652 67.3853 54.6455 66.7561 54.2329L70.5624 51.4168ZM61.9595 42.9067C62.6816 43.3916 63.2747 43.9847 63.7389 44.6861L61.9595 46.45C61.4953 45.7795 60.9074 45.1916 60.1956 44.6861L61.9595 42.9067Z" fill="#551AA6"/>
<path d="M49.9544 51.8345H53.9154C54.1114 51.8345 54.2713 51.9479 54.3951 52.1749C54.5189 52.4018 54.6117 52.67 54.6736 52.9795C54.7355 53.2889 54.7664 53.5623 54.7664 53.7995C54.7664 54.0368 54.7355 54.3101 54.6736 54.6196C54.6117 54.929 54.5189 55.2024 54.3951 55.4396C54.2713 55.6666 54.1114 55.78 53.9154 55.78H49.9544C49.7584 55.78 49.5985 55.6666 49.4747 55.4396C49.3406 55.2024 49.2426 54.929 49.1807 54.6196C49.1188 54.3101 49.0879 54.0368 49.0879 53.7995C49.0879 53.5623 49.1188 53.2889 49.1807 52.9795C49.2426 52.67 49.3406 52.4018 49.4747 52.1749C49.5985 51.9479 49.7584 51.8345 49.9544 51.8345Z" fill="#551AA6"/>
<path d="M45.9934 51.8345H49.9545C50.1505 51.8345 50.3104 51.9479 50.4341 52.1749C50.5579 52.4018 50.6508 52.67 50.7126 52.9795C50.7745 53.2889 50.8055 53.5623 50.8055 53.7995C50.8055 54.0368 50.7745 54.3101 50.7126 54.6196C50.6508 54.929 50.5579 55.2024 50.4341 55.4396C50.3104 55.6666 50.1505 55.78 49.9545 55.78H45.9934C45.7974 55.78 45.6376 55.6666 45.5138 55.4396C45.3797 55.2024 45.2817 54.929 45.2198 54.6196C45.1579 54.3101 45.127 54.0368 45.127 53.7995C45.127 53.5623 45.1579 53.2889 45.2198 52.9795C45.2817 52.67 45.3797 52.4018 45.5138 52.1749C45.6376 51.9479 45.7974 51.8345 45.9934 51.8345Z" fill="#551AA6"/>
<path d="M42.0325 51.8345H45.9935C46.1895 51.8345 46.3494 51.9479 46.4732 52.1749C46.597 52.4018 46.6898 52.67 46.7517 52.9795C46.8136 53.2889 46.8445 53.5623 46.8445 53.7995C46.8445 54.0368 46.8136 54.3101 46.7517 54.6196C46.6898 54.929 46.597 55.2024 46.4732 55.4396C46.3494 55.6666 46.1895 55.78 45.9935 55.78H42.0325C41.8365 55.78 41.6766 55.6666 41.5528 55.4396C41.4187 55.2024 41.3207 54.929 41.2589 54.6196C41.197 54.3101 41.166 54.0368 41.166 53.7995C41.166 53.5623 41.197 53.2889 41.2589 52.9795C41.3207 52.67 41.4187 52.4018 41.5528 52.1749C41.6766 51.9479 41.8365 51.8345 42.0325 51.8345Z" fill="#551AA6"/>
<path d="M38.0716 51.8345H42.0326C42.2286 51.8345 42.3885 51.9479 42.5123 52.1749C42.636 52.4018 42.7289 52.67 42.7908 52.9795C42.8527 53.2889 42.8836 53.5623 42.8836 53.7995C42.8836 54.0368 42.8527 54.3101 42.7908 54.6196C42.7289 54.929 42.636 55.2024 42.5123 55.4396C42.3885 55.6666 42.2286 55.78 42.0326 55.78H38.0716C37.8756 55.78 37.7157 55.6666 37.5919 55.4396C37.4578 55.2024 37.3598 54.929 37.2979 54.6196C37.236 54.3101 37.2051 54.0368 37.2051 53.7995C37.2051 53.5623 37.236 53.2889 37.2979 52.9795C37.3598 52.67 37.4578 52.4018 37.5919 52.1749C37.7157 51.9479 37.8756 51.8345 38.0716 51.8345Z" fill="#551AA6"/>
<path d="M34.1106 51.8345H38.0717C38.2677 51.8345 38.4275 51.9479 38.5513 52.1749C38.6751 52.4018 38.7679 52.67 38.8298 52.9795C38.8917 53.2889 38.9227 53.5623 38.9227 53.7995C38.9227 54.0368 38.8917 54.3101 38.8298 54.6196C38.7679 54.929 38.6751 55.2024 38.5513 55.4396C38.4275 55.6666 38.2677 55.78 38.0717 55.78H34.1106C33.9146 55.78 33.7547 55.6666 33.631 55.4396C33.4969 55.2024 33.3989 54.929 33.337 54.6196C33.2751 54.3101 33.2441 54.0368 33.2441 53.7995C33.2441 53.5623 33.2751 53.2889 33.337 52.9795C33.3989 52.67 33.4969 52.4018 33.631 52.1749C33.7547 51.9479 33.9146 51.8345 34.1106 51.8345Z" fill="#551AA6"/>
<path d="M30.1477 51.8345H34.1088C34.3048 51.8345 34.4647 51.9479 34.5884 52.1749C34.7122 52.4018 34.8051 52.67 34.8669 52.9795C34.9288 53.2889 34.9598 53.5623 34.9598 53.7995C34.9598 54.0368 34.9288 54.3101 34.8669 54.6196C34.8051 54.929 34.7122 55.2024 34.5884 55.4396C34.4647 55.6666 34.3048 55.78 34.1088 55.78H30.1477C29.9517 55.78 29.7919 55.6666 29.6681 55.4396C29.534 55.2024 29.436 54.929 29.3741 54.6196C29.3122 54.3101 29.2812 54.0368 29.2812 53.7995C29.2812 53.5623 29.3122 53.2889 29.3741 52.9795C29.436 52.67 29.534 52.4018 29.6681 52.1749C29.7919 51.9479 29.9517 51.8345 30.1477 51.8345Z" fill="#551AA6"/>
<path d="M26.1868 51.8345H30.1478C30.3438 51.8345 30.5037 51.9479 30.6275 52.1749C30.7513 52.4018 30.8441 52.67 30.906 52.9795C30.9679 53.2889 30.9988 53.5623 30.9988 53.7995C30.9988 54.0368 30.9679 54.3101 30.906 54.6196C30.8441 54.929 30.7513 55.2024 30.6275 55.4396C30.5037 55.6666 30.3438 55.78 30.1478 55.78H26.1868C25.9908 55.78 25.8309 55.6666 25.7071 55.4396C25.573 55.2024 25.475 54.929 25.4131 54.6196C25.3513 54.3101 25.3203 54.0368 25.3203 53.7995C25.3203 53.5623 25.3513 53.2889 25.4131 52.9795C25.475 52.67 25.573 52.4018 25.7071 52.1749C25.8309 51.9479 25.9908 51.8345 26.1868 51.8345Z" fill="#551AA6"/>
<path d="M22.2259 51.8345H26.1869C26.3829 51.8345 26.5428 51.9479 26.6666 52.1749C26.7903 52.4018 26.8832 52.67 26.9451 52.9795C27.007 53.2889 27.0379 53.5623 27.0379 53.7995C27.0379 54.0368 27.007 54.3101 26.9451 54.6196C26.8832 54.929 26.7903 55.2024 26.6666 55.4396C26.5428 55.6666 26.3829 55.78 26.1869 55.78H22.2259C22.0299 55.78 21.87 55.6666 21.7462 55.4396C21.6121 55.2024 21.5141 54.929 21.4522 54.6196C21.3903 54.3101 21.3594 54.0368 21.3594 53.7995C21.3594 53.5623 21.3903 53.2889 21.4522 52.9795C21.5141 52.67 21.6121 52.4018 21.7462 52.1749C21.87 51.9479 22.0299 51.8345 22.2259 51.8345Z" fill="#551AA6"/>
<path d="M18.2649 51.8345H22.226C22.422 51.8345 22.5818 51.9479 22.7056 52.1749C22.8294 52.4018 22.9222 52.67 22.9841 52.9795C23.046 53.2889 23.077 53.5623 23.077 53.7995C23.077 54.0368 23.046 54.3101 22.9841 54.6196C22.9222 54.929 22.8294 55.2024 22.7056 55.4396C22.5818 55.6666 22.422 55.78 22.226 55.78H18.2649C18.0689 55.78 17.909 55.6666 17.7853 55.4396C17.6512 55.2024 17.5532 54.929 17.4913 54.6196C17.4294 54.3101 17.3984 54.0368 17.3984 53.7995C17.3984 53.5623 17.4294 53.2889 17.4913 52.9795C17.5532 52.67 17.6512 52.4018 17.7853 52.1749C17.909 51.9479 18.0689 51.8345 18.2649 51.8345Z" fill="#551AA6"/>
<path d="M14.304 51.8345H18.265C18.461 51.8345 18.6209 51.9479 18.7447 52.1749C18.8685 52.4018 18.9613 52.67 19.0232 52.9795C19.0851 53.2889 19.116 53.5623 19.116 53.7995C19.116 54.0368 19.0851 54.3101 19.0232 54.6196C18.9613 54.929 18.8685 55.2024 18.7447 55.4396C18.6209 55.6666 18.461 55.78 18.265 55.78H14.304C14.108 55.78 13.9481 55.6666 13.8243 55.4396C13.6902 55.2024 13.5922 54.929 13.5303 54.6196C13.4684 54.3101 13.4375 54.0368 13.4375 53.7995C13.4375 53.5623 13.4684 53.2889 13.5303 52.9795C13.5922 52.67 13.6902 52.4018 13.8243 52.1749C13.9481 51.9479 14.108 51.8345 14.304 51.8345Z" fill="#551AA6"/>
<path d="M10.343 51.8345H14.3041C14.5001 51.8345 14.66 51.9479 14.7837 52.1749C14.9075 52.4018 15.0004 52.67 15.0623 52.9795C15.1241 53.2889 15.1551 53.5623 15.1551 53.7995C15.1551 54.0368 15.1241 54.3101 15.0623 54.6196C15.0004 54.929 14.9075 55.2024 14.7837 55.4396C14.66 55.6666 14.5001 55.78 14.3041 55.78H10.343C10.1471 55.78 9.98717 55.6666 9.86338 55.4396C9.72929 55.2024 9.63129 54.929 9.5694 54.6196C9.50751 54.3101 9.47656 54.0368 9.47656 53.7995C9.47656 53.5623 9.50751 53.2889 9.5694 52.9795C9.63129 52.67 9.72929 52.4018 9.86338 52.1749C9.98717 51.9479 10.1471 51.8345 10.343 51.8345Z" fill="#551AA6"/>
<path d="M0.193359 59.7873L0.301669 59.5707C0.538919 59.6222 0.7968 59.648 1.07531 59.648C1.80769 59.648 2.58649 59.5346 3.41171 59.3076C4.24724 59.0807 5.0312 58.7816 5.76358 58.4102C6.49596 58.0389 7.09424 57.6314 7.55843 57.1878C8.02262 56.7443 8.25471 56.3059 8.25471 55.8727C8.25471 55.6973 8.13608 55.4807 7.89883 55.2228C7.6719 54.9546 7.38823 54.6916 7.04783 54.4337C6.70742 54.1655 6.37218 53.9489 6.04209 53.7838L6.95499 50.0239C7.49138 50.2921 7.90399 50.7047 8.19282 51.2618C8.48164 51.8188 8.67763 52.4222 8.78078 53.0721C8.89425 53.7116 8.95099 54.2944 8.95099 54.8205C8.95099 55.656 8.84268 56.4967 8.62606 57.3426C8.41975 58.1884 8.11029 58.9621 7.69769 59.6635C7.29539 60.3753 6.80026 60.9426 6.21229 61.3655C5.63464 61.7884 4.97962 61.9999 4.24724 61.9999C3.62833 61.9999 2.94237 61.7884 2.18936 61.3655C1.44666 60.9426 0.781327 60.4165 0.193359 59.7873ZM10.3435 51.8342C10.5602 51.8342 10.7355 51.9477 10.8696 52.1747C11.014 52.4016 11.1223 52.6698 11.1945 52.9792C11.2668 53.2887 11.3029 53.562 11.3029 53.7993C11.3029 54.0469 11.2668 54.3254 11.1945 54.6348C11.1223 54.9443 11.014 55.2125 10.8696 55.4394C10.7355 55.6664 10.5602 55.7798 10.3435 55.7798C9.84841 55.7798 9.39454 55.6715 8.98193 55.4549C8.56932 55.228 8.21345 54.9598 7.91431 54.6503V50.844C8.25471 51.2566 8.64153 51.5248 9.07477 51.6486C9.50801 51.7724 9.93093 51.8342 10.3435 51.8342Z" fill="#551AA6"/>
<path d="M74.4412 29.6669V33.0954C74.4412 33.2933 74.4859 33.4465 74.5753 33.5551C74.6647 33.6572 74.8243 33.7434 75.0541 33.8136V34.0722H71.2617V33.804C71.4852 33.7466 71.6416 33.6636 71.731 33.5551C71.8267 33.4465 71.8746 33.2933 71.8746 33.0954V24.323C71.8746 24.1251 71.8299 23.9751 71.7406 23.8729C71.6512 23.7708 71.4916 23.6846 71.2617 23.6143V23.3462H78.2911C79.2041 23.3462 79.9 23.3941 80.3788 23.4898C80.8577 23.5792 81.2854 23.7452 81.6621 23.9878C82.4346 24.4922 82.8209 25.3158 82.8209 26.4586C82.8209 27.3269 82.5815 28.0069 82.1026 28.4985C81.6302 28.9837 80.864 29.3349 79.8042 29.552L81.8345 32.3867C82.2048 32.9102 82.4985 33.2677 82.7156 33.4593C82.939 33.6444 83.1912 33.7625 83.4721 33.8136V34.0722H78.971V33.8136C79.303 33.7242 79.469 33.5806 79.469 33.3827C79.469 33.2422 79.3669 33.0283 79.1626 32.741L77.0174 29.6669H74.4412ZM74.4412 27.7228H78.3102C78.8976 27.7228 79.3318 27.6589 79.6127 27.5312C80.0085 27.3589 80.2064 27.0173 80.2064 26.5065C80.2064 26.0532 80.066 25.7372 79.7851 25.5584C79.5105 25.3797 79.0189 25.2903 78.3102 25.2903H74.4412V27.7228Z" fill="#551AA6"/>
<path d="M63.5072 23.1167C65.2118 23.1167 66.6324 23.5508 67.7688 24.4191C69.1287 25.4662 69.8087 26.9251 69.8087 28.7957C69.8087 30.5515 69.1287 31.9529 67.7688 32.9999C66.6452 33.8682 65.231 34.3024 63.5263 34.3024C61.8217 34.3024 60.4075 33.8682 59.2838 32.9999C57.9175 31.9529 57.2344 30.5228 57.2344 28.7095C57.2344 26.8772 57.9175 25.4471 59.2838 24.4191C60.4139 23.57 61.8217 23.1359 63.5072 23.1167ZM63.5167 25.147C62.4122 25.147 61.512 25.5013 60.8161 26.21C60.1713 26.874 59.8488 27.7072 59.8488 28.7095C59.8488 29.7055 60.1713 30.5355 60.8161 31.1995C61.512 31.9146 62.4154 32.2721 63.5263 32.2721C64.6308 32.2721 65.5311 31.9146 66.227 31.1995C66.8718 30.5419 67.1942 29.7279 67.1942 28.7574C67.1942 27.704 66.8718 26.8548 66.227 26.21C65.5247 25.5141 64.6213 25.1597 63.5167 25.147Z" fill="#551AA6"/>
<path d="M44.234 33.0954V24.323C44.234 24.1251 44.1893 23.9751 44.0999 23.8729C44.0105 23.7708 43.8509 23.6846 43.6211 23.6143V23.3462H49.913C51.2219 23.3462 52.253 23.509 53.0063 23.8346C54.0662 24.2943 54.8291 25.0541 55.2952 26.1139C55.6208 26.8545 55.7836 27.7196 55.7836 28.7092C55.7836 30.5416 55.2377 31.9302 54.146 32.8751C53.6544 33.2965 53.0734 33.6029 52.403 33.7945C51.739 33.9796 50.909 34.0722 49.913 34.0722H43.6211V33.804C43.8446 33.7466 44.001 33.6636 44.0904 33.5551C44.1861 33.4465 44.234 33.2933 44.234 33.0954ZM46.8006 32.1281H49.5396C50.7973 32.1281 51.7103 31.8408 52.2785 31.2662C52.8723 30.6661 53.1692 29.8137 53.1692 28.7092C53.1692 27.6047 52.8723 26.7523 52.2785 26.1522C51.9848 25.8521 51.6209 25.635 51.1868 25.501C50.7526 25.3605 50.2035 25.2903 49.5396 25.2903H46.8006V32.1281Z" fill="#551AA6"/>
<path d="M35.8685 23.1167C37.5732 23.1167 38.9937 23.5508 40.1302 24.4191C41.4901 25.4662 42.17 26.9251 42.17 28.7957C42.17 30.5515 41.4901 31.9529 40.1302 32.9999C39.0065 33.8682 37.5923 34.3024 35.8877 34.3024C34.183 34.3024 32.7688 33.8682 31.6451 32.9999C30.2788 31.9529 29.5957 30.5228 29.5957 28.7095C29.5957 26.8772 30.2788 25.4471 31.6451 24.4191C32.7752 23.57 34.183 23.1359 35.8685 23.1167ZM35.8781 25.147C34.7736 25.147 33.8733 25.5013 33.1774 26.21C32.5326 26.874 32.2102 27.7072 32.2102 28.7095C32.2102 29.7055 32.5326 30.5355 33.1774 31.1995C33.8733 31.9146 34.7767 32.2721 35.8877 32.2721C36.9922 32.2721 37.8924 31.9146 38.5883 31.1995C39.2331 30.5419 39.5556 29.7279 39.5556 28.7574C39.5556 27.704 39.2331 26.8548 38.5883 26.21C37.886 25.5141 36.9826 25.1597 35.8781 25.147Z" fill="#551AA6"/>
<path d="M24.9638 29.4083H18.9783V33.0954C18.9783 33.2933 19.023 33.4465 19.1124 33.5551C19.2018 33.6572 19.3614 33.7434 19.5912 33.8136V34.0722H15.7988V33.804C16.0223 33.7466 16.1787 33.6636 16.2681 33.5551C16.3639 33.4465 16.4117 33.2933 16.4117 33.0954V24.323C16.4117 24.1251 16.3671 23.9751 16.2777 23.8729C16.1883 23.7708 16.0287 23.6846 15.7988 23.6143V23.3462H19.5912V23.6143C19.3614 23.6782 19.2018 23.7644 19.1124 23.8729C19.023 23.9751 18.9783 24.1251 18.9783 24.323V27.4642H24.9638V24.323C24.9638 24.1251 24.9191 23.9751 24.8297 23.8729C24.7467 23.7708 24.5871 23.6846 24.3509 23.6143V23.3462H28.1433V23.6143C27.9135 23.6782 27.7539 23.7644 27.6645 23.8729C27.5751 23.9751 27.5304 24.1251 27.5304 24.323V33.0954C27.5304 33.2933 27.5751 33.4465 27.6645 33.5551C27.7539 33.6572 27.9135 33.7434 28.1433 33.8136V34.0722H24.3509V33.804C24.5744 33.7466 24.7308 33.6636 24.8202 33.5551C24.9159 33.4465 24.9638 33.2933 24.9638 33.0954V29.4083Z" fill="#551AA6"/>
<path d="M5.43004 27.9623L3.4668 29.5617V33.0668C3.4668 33.2647 3.51149 33.4179 3.60087 33.5264C3.69664 33.6286 3.85625 33.7084 4.07971 33.7659V34.0723H0V33.7659C0.229843 33.702 0.389456 33.619 0.47884 33.5169C0.568223 33.4147 0.612915 33.2647 0.612915 33.0668V21.996C0.612915 21.8045 0.568223 21.6576 0.47884 21.5555C0.389456 21.4533 0.229843 21.3703 0 21.3065V21H4.07971V21.3065C3.84987 21.3639 3.69026 21.4469 3.60087 21.5555C3.51149 21.6576 3.4668 21.8045 3.4668 21.996V26.5737L8.84895 22.1779C9.09795 21.9736 9.22245 21.8108 9.22245 21.6895C9.22245 21.5044 9.0373 21.3767 8.667 21.3065V21H14.0108V21.3065C13.7874 21.3511 13.6278 21.4022 13.532 21.4597C13.4362 21.5171 13.1585 21.7342 12.6988 22.1109L11.9614 22.7238L7.51778 26.296L12.5552 32.3581C13.0212 32.9199 13.3564 33.2838 13.5607 33.4498C13.7714 33.6094 14.0332 33.7148 14.346 33.7659V34.0723H9.2416V33.7659C9.57998 33.6956 9.74917 33.5743 9.74917 33.4019C9.74917 33.3126 9.59594 33.0763 9.28949 32.6933L5.43004 27.9623Z" fill="#551AA6"/>
</svg>
