<svg width="150" height="160" viewBox="0 0 150 160" fill="none" xmlns="http://www.w3.org/2000/svg">
<path d="M79.1361 0.30977C77.8612 4.12614 79.7615 6.52341 82.3352 9.04895C90.6259 17.1708 81.4212 24.2503 74.9747 28.4435C74.7021 28.6252 74.6005 28.5557 74.67 28.235C76.6424 19.3355 61.8732 17.6518 70.22 8.76032C72.9996 5.79915 75.8433 2.90213 78.7512 0.0692522C78.7883 0.0316198 78.8371 0.00774983 78.8896 0.00158669C78.9421 -0.00457645 78.9952 0.00732705 79.04 0.0353399C79.0848 0.0633528 79.1187 0.105798 79.1362 0.155685C79.1537 0.205571 79.1536 0.259919 79.1361 0.30977Z" fill="#551AA6"/>
<path d="M107.736 50.9166C111.414 52.1888 114.918 52.8115 118.248 52.7847L125.769 52.9691C129.495 52.9638 132.223 51.6222 133.955 48.9443C134.209 48.5485 134.297 48.069 134.201 47.6088C134.105 47.1486 133.833 46.7444 133.442 46.4829L131.077 44.9034C132.723 44.5507 134.207 44.8847 135.527 45.9056C137.36 47.3274 137.537 49.1982 136.056 51.518C130.844 59.6718 119.707 64.6748 110.214 64.29C106.045 64.1189 101.496 63.2905 96.5673 61.8045L89.792 59.5756C81.4212 56.1014 73.4272 52.1861 65.8101 47.8299C59.0829 43.9894 53.0533 41.2474 45.4603 40.606C37.6346 39.9432 31.1507 42.5195 26.0085 48.335C25.939 48.4098 25.8668 48.4152 25.792 48.351L25.6236 48.2227C25.5007 48.1212 25.4846 48.0062 25.5755 47.878C30.552 40.924 36.3678 35.6939 43.0228 32.1875C52.3157 27.2968 63.6853 29.9105 73.2107 35.13C78.7806 38.1874 84.4093 41.1352 90.0967 43.9734C96.014 46.9239 101.894 49.2383 107.736 50.9166Z" fill="#551AA6"/>
<path d="M131.077 44.904L133.442 46.4834C133.833 46.7449 134.105 47.1491 134.201 47.6093C134.297 48.0695 134.209 48.549 133.955 48.9448C132.223 51.6227 129.495 52.9643 125.769 52.9697C123.289 52.1412 120.782 52.0797 118.248 52.7853C114.918 52.812 111.414 52.1893 107.736 50.9172C113.525 47.7155 119.558 45.6817 125.833 44.8158C127.704 44.5539 129.452 44.5833 131.077 44.904Z" fill="#381668"/>
<path d="M125.769 52.9695L118.248 52.7851C120.782 52.0795 123.289 52.141 125.769 52.9695Z" fill="#260A4F"/>
<path d="M72.5855 66.0623L82.7363 69.3816C90.7276 71.9793 98.3287 73.7405 105.54 74.6652L111.104 75.2986C121.359 76.6696 132.617 76.0442 142.391 71.8109C144.807 70.8702 147.34 69.0048 149.992 66.2146C148.842 70.619 145.846 74.446 141.003 77.6958C126.884 87.1566 111.297 88.0546 94.9318 85.7936L89.0305 84.9197C78.3986 82.6694 68.1114 79.6441 58.169 75.8438L45.1798 70.7285C35.502 66.6316 19.506 62.8473 9.70797 66.7919C3.95102 68.1709 1.85029 70.7339 3.40579 74.4808C2.68416 74.6465 1.87166 73.9302 0.968296 72.3321C-1.95829 67.1367 2.29929 62.9675 6.42057 60.5783C23.6433 50.6204 43.5762 54.076 60.8551 61.5644C64.9176 63.323 68.8277 64.8223 72.5855 66.0623Z" fill="#551AA6"/>
<path d="M89.7927 59.5757L96.5679 61.8046L82.7368 69.3812L72.5859 66.0619C78.6903 64.3675 84.4259 62.2055 89.7927 59.5757Z" fill="#381668"/>
<path d="M149.991 66.214C147.34 69.0041 144.806 70.8695 142.39 71.8102C138.493 69.4798 133.848 68.7235 128.455 69.5413C121.869 70.5301 116.085 72.449 111.104 75.2979L105.539 74.6645C112.13 70.2869 118.977 66.8554 126.081 64.3699C133.097 61.9165 140.041 60.9464 146.896 62.7023C148.671 63.1566 149.702 64.3272 149.991 66.214Z" fill="#381668"/>
<path d="M45.1808 70.7283C40.386 71.5781 34.6691 71.8962 28.0302 71.6824C21.0064 71.4525 14.8993 69.8223 9.70898 66.7916C19.507 62.847 35.503 66.6313 45.1808 70.7283Z" fill="#260A4F"/>
<path d="M9.70867 66.792C14.899 69.8226 21.0061 71.4529 28.0299 71.6827C34.6688 71.8965 40.3857 71.5785 45.1805 70.7286L58.1697 75.8438C53.1558 76.7311 47.0487 77.5596 39.8485 78.3293C29.0482 79.4838 17.8309 80.1252 7.58388 76.9423C5.98561 76.4452 4.59315 75.6247 3.40648 74.4809C1.85098 70.734 3.95171 68.171 9.70867 66.792Z" fill="#381668"/>
<path d="M142.39 71.8108C132.616 76.0441 121.359 76.6694 111.104 75.2984C116.085 72.4495 121.869 70.5306 128.455 69.5418C133.848 68.724 138.493 69.4803 142.39 71.8108Z" fill="#260A4F"/>
<path d="M74.7422 92.8489L80.844 94.9175L89.5035 97.6755L95.1161 98.9183C101.659 100.778 108.351 101.235 115.193 100.289C117.984 100.332 120.269 99.2363 122.049 97.002C122.936 95.8903 122.944 94.2413 122.073 92.0552C123.724 93.1723 124.51 94.7544 124.43 96.8016C124.238 101.604 119.427 106.166 115.362 108.171C103.559 113.991 90.193 111.754 78.0377 108.451L76.1935 107.994L62.1619 103.176L51.1051 98.814C46.182 96.6894 39.078 94.7972 33.4814 95.8716C31.8671 95.8021 30.0283 96.2831 27.965 97.3147C25.6611 98.4693 24.9288 100.321 25.768 102.871C23.9186 101.716 23.368 99.8857 24.1163 97.3789C24.6081 95.7379 25.613 94.1077 27.1311 92.4881C37.3381 81.6163 52.404 83.8773 64.6876 88.9764C68.1835 90.425 71.535 91.7158 74.7422 92.8489Z" fill="#551AA6"/>
<path d="M89.0303 84.9194L94.9316 85.7934L80.8439 94.9174L74.7422 92.8488L89.0303 84.9194Z" fill="#381668"/>
<path d="M122.073 92.055C122.944 94.2411 122.936 95.89 122.049 97.0018C120.269 99.2361 117.984 100.332 115.194 100.289C109.399 96.494 102.707 96.037 95.1165 98.918L89.5039 97.6753C98.2195 91.7343 107.24 88.3749 118.024 90.4114C119.601 90.7053 120.951 91.2532 122.073 92.055Z" fill="#381668"/>
<path d="M51.1041 98.814C44.7325 100.214 38.8579 99.2336 33.4805 95.8715C39.0771 94.7972 46.181 96.6893 51.1041 98.814Z" fill="#260A4F"/>
<path d="M33.4811 95.8713C38.8585 99.2334 44.7331 100.214 51.1048 98.8138L62.1616 103.175C52.7084 105.957 38.6046 108.82 29.2235 105.164C28.0262 104.699 26.8742 103.934 25.7678 102.871C24.9285 100.321 25.6608 98.469 27.9647 97.3145C30.028 96.2829 31.8668 95.8018 33.4811 95.8713Z" fill="#381668"/>
<path d="M115.194 100.289C108.352 101.235 101.66 100.778 95.1172 98.9181C102.708 96.0371 109.4 96.4942 115.194 100.289Z" fill="#260A4F"/>
<path d="M76.1939 107.994L78.0381 108.451C77.6426 109.483 77.2524 110.498 76.8675 111.498C75.1757 115.859 77.116 120.309 80.8925 122.73C84.3724 124.959 80.4916 127.236 79.1206 128.936L74.454 133.666C74.1654 133.346 74.0825 132.809 74.2055 132.055C74.2483 131.777 74.1868 131.523 74.0211 131.293C73.2781 130.262 72.4682 129.294 71.5916 128.391C65.0008 121.592 71.7119 113.43 76.1939 107.994Z" fill="#381668"/>
<path d="M79.1194 128.936C79.0553 129.54 78.5795 130.454 77.6922 131.678C73.7794 137.09 85.8065 141.179 83.8982 147.898C82.6073 152.412 77.0107 156.428 73.4988 159.09C72.8306 159.598 72.6408 159.456 72.9295 158.665C75.9763 150.447 58.6654 148.226 69.6341 138.212C71.3392 136.662 72.9455 135.147 74.4529 133.666L79.1194 128.936Z" fill="#551AA6"/>
</svg>
