<svg width="733" height="209" viewBox="0 0 733 209" fill="none" xmlns="http://www.w3.org/2000/svg">
<path fill-rule="evenodd" clip-rule="evenodd" d="M683.267 86.3703C682.606 86.5028 681.945 87.9581 681.945 88.7513C681.813 94.0417 681.68 108.063 681.68 117.585C681.68 117.85 682.076 118.379 682.474 118.379C684.457 118.511 689.219 118.643 693.319 118.643C699.007 118.643 702.313 117.85 704.166 117.057C708.927 114.676 711.175 109.517 711.175 103.829C711.175 90.9999 702.181 86.1055 688.822 86.1055C687.896 85.9743 685.252 85.9743 683.267 86.3703V86.3703V86.3703V86.3703ZM717.393 145.493C717.393 132.399 707.737 125.124 690.278 125.124C689.485 125.124 683.93 124.991 682.607 125.256C682.209 125.389 681.681 125.653 681.681 126.051C681.681 135.441 681.549 150.388 681.946 156.206C682.209 158.72 684.062 162.291 686.311 163.349C688.69 164.672 694.114 164.936 697.817 164.936C708.266 164.936 717.393 159.117 717.393 145.493V145.493V145.493V145.493ZM656.285 79.0957C657.607 79.0957 661.576 79.4917 671.76 79.4917C681.415 79.4917 689.087 79.2281 698.478 79.2281C709.985 79.2281 725.857 83.328 725.857 100.522C725.857 108.988 719.905 115.733 712.101 119.04C711.705 119.172 711.705 119.436 712.101 119.568C723.211 122.347 733 129.225 733 142.186C733 154.884 725.064 162.952 713.556 167.979C706.546 171.02 697.816 172.078 688.954 172.078C682.209 172.078 664.089 171.285 654.037 171.55C652.979 171.153 654.962 166.391 655.888 165.598C658.269 165.465 660.12 165.333 662.634 164.54C666.205 163.614 666.601 162.556 667.131 157.133C667.396 152.504 667.396 136.102 667.396 124.463C667.396 108.458 667.528 97.6126 667.396 92.3222C667.263 88.2223 665.808 86.8994 662.899 86.105C660.65 85.709 656.946 85.1793 653.904 84.7833C653.242 84.1212 655.491 79.6241 656.285 79.0957V79.0957V79.0957V79.0957ZM579.967 161.365C583.142 163.877 589.358 164.935 594.914 164.935C602.056 164.935 609.198 163.613 616.076 157.396C623.087 151.048 627.98 141.26 627.98 125.653C627.98 110.706 622.292 98.5375 610.653 91.3959C604.04 87.2948 595.574 85.5759 585.787 85.5759C582.878 85.5759 580.099 85.7083 578.38 86.5015C577.983 86.7664 577.058 87.9568 577.058 88.6177C576.793 91.2635 576.793 111.632 576.793 123.536C576.793 135.837 576.793 153.031 577.058 155.015C577.058 157 577.983 160.042 579.967 161.365V161.365V161.365V161.365ZM549.943 79.0959C552.456 79.0959 562.111 79.4919 566.741 79.4919C575.074 79.4919 581.025 79.0959 596.765 79.0959C609.992 79.0959 621.102 82.6674 629.038 89.4118C638.693 97.7452 643.72 109.253 643.72 123.273C643.72 143.245 634.593 154.752 625.467 161.366C616.341 168.111 604.437 172.079 587.507 172.079C578.513 172.079 563.038 171.814 550.208 171.681H550.075C549.414 170.492 551.133 165.863 552.191 165.73C555.63 165.333 556.556 165.201 558.276 164.54C561.053 163.482 561.583 162.026 561.98 157.133C562.376 148.007 562.244 137.029 562.244 124.595C562.244 115.734 562.376 98.406 562.111 92.8508C561.715 88.2226 559.732 87.0321 555.763 86.2376C553.779 85.8416 551.133 85.3119 547.431 84.9159C546.901 83.989 549.282 79.8892 549.943 79.0959V79.0959V79.0959V79.0959Z" fill="white"/>
<path fill-rule="evenodd" clip-rule="evenodd" d="M389.902 166.524C386.596 166.126 384.215 165.598 381.304 164.275C380.908 164.01 380.246 162.688 380.246 162.159C379.981 157.529 379.981 144.303 379.981 135.441C379.981 128.298 378.792 122.082 375.749 117.717C372.177 112.691 367.019 109.781 360.406 109.781C354.586 109.781 346.782 113.75 340.302 119.305C340.169 119.436 339.111 120.363 339.243 118.908C339.243 117.453 339.508 114.543 339.641 112.559C339.773 110.707 338.715 109.781 338.715 109.781C334.482 111.897 322.578 114.676 318.213 115.072C315.039 115.734 314.246 118.775 317.552 119.834H317.685C321.255 120.892 323.636 122.082 325.487 123.273C326.81 124.331 326.678 125.786 326.678 126.976C326.81 136.896 326.81 152.107 326.414 160.44C326.282 163.747 325.356 164.936 322.975 165.465L323.239 165.333C321.387 165.73 319.932 166.126 317.684 166.391C316.89 167.184 316.89 171.418 317.684 172.344C319.139 172.344 326.81 171.946 333.16 171.946C341.889 171.946 346.386 172.344 348.635 172.344C349.561 171.285 349.825 167.317 349.296 166.391C346.782 166.259 344.931 165.995 343.212 165.465C340.831 164.936 340.169 163.747 340.037 160.968C339.773 153.958 339.773 139.145 339.773 129.093C339.773 126.314 340.566 124.991 341.36 124.198C344.401 121.554 349.296 119.701 353.66 119.701C357.893 119.701 360.671 121.024 362.787 122.744C365.696 125.124 366.622 128.563 367.019 131.076C367.68 136.764 367.417 148.007 367.417 157.794C367.417 163.084 367.019 164.407 365.036 165.068C364.11 165.465 361.729 165.995 358.951 166.259C358.025 167.184 358.29 171.285 358.951 172.211C362.787 172.211 367.284 171.814 373.897 171.814C382.097 171.814 387.389 172.211 389.505 172.211C390.166 171.418 390.431 167.582 389.901 166.524H389.902V166.524V166.524ZM426.539 115.999C419.529 115.999 415.164 121.422 415.164 129.886C415.164 138.483 418.999 148.403 429.846 148.403C431.697 148.403 435.136 147.61 436.723 145.759C439.236 143.378 440.956 138.616 440.956 133.59C440.956 122.612 435.532 115.999 426.539 115.999V115.999V115.999V115.999ZM425.612 174.46C422.968 174.46 421.115 175.253 419.926 175.915C414.369 179.485 411.857 182.924 411.857 187.026C411.857 190.861 413.311 193.902 416.487 196.548C420.322 199.855 425.612 201.443 432.358 201.443C445.849 201.443 451.802 194.167 451.802 187.026C451.802 181.999 449.288 178.692 444.13 176.841C440.426 175.253 433.681 174.46 425.612 174.46V174.46V174.46V174.46ZM426.539 208.849C418.471 208.849 412.651 207.128 407.625 203.293C402.731 199.59 400.615 194.034 400.615 190.199C400.615 189.141 400.879 186.231 403.26 183.586C404.714 181.998 407.889 178.957 415.429 173.799C415.692 173.666 415.825 173.534 415.825 173.269C415.825 173.004 415.56 172.739 415.296 172.608C409.079 170.227 407.228 166.391 406.698 164.275V164.01C406.567 163.217 406.302 162.423 407.493 161.629C408.418 160.968 409.741 160.175 411.195 159.249C413.444 157.926 415.825 156.471 417.28 155.281C417.545 155.016 417.545 154.752 417.545 154.487C417.545 154.222 417.28 153.958 417.015 153.826C407.758 150.783 403.128 143.905 403.128 133.589C403.128 126.844 406.17 120.759 411.593 116.924C415.296 114.013 424.554 110.443 430.639 110.443H431.036C437.252 110.574 440.691 111.897 445.584 113.617C448.23 114.543 450.744 114.939 454.183 114.939C459.341 114.939 461.589 113.352 463.44 111.501C463.573 111.765 463.838 112.427 463.97 114.146C464.103 115.866 463.573 118.378 462.25 120.231C461.192 121.685 458.812 122.744 456.431 122.744H455.769C453.388 122.479 452.33 122.214 452.33 122.214L451.802 122.479C451.669 122.744 451.802 123.008 451.934 123.405L452.067 123.67C452.33 124.86 452.86 128.43 452.86 129.357C452.86 140.203 448.495 144.963 443.866 148.535C439.368 151.841 434.21 153.958 428.39 154.487C428.258 154.487 427.73 154.487 426.539 154.62C425.877 154.62 424.951 154.752 424.819 154.752H424.687C423.629 155.016 420.984 156.339 420.984 158.587C420.984 160.571 422.174 162.952 427.861 163.349C429.051 163.481 430.242 163.481 431.565 163.614C439.104 164.142 448.495 164.804 452.86 166.258C458.943 168.507 462.78 173.93 462.78 180.412C462.78 190.199 455.769 199.326 444.13 205.012C438.443 207.526 432.755 208.849 426.539 208.849V208.849V208.849V208.849ZM501.93 116.66C499.152 116.66 496.639 117.321 494.788 118.644C489.63 121.818 486.984 128.167 486.984 137.425C486.984 154.753 495.713 166.921 508.146 166.921C511.85 166.921 514.76 165.863 517.273 163.747C521.108 160.572 523.093 154.223 523.093 145.361C523.093 128.167 514.495 116.66 501.93 116.66V116.66V116.66V116.66ZM504.312 173.269C481.826 173.269 473.758 156.736 473.758 141.261C473.758 130.416 478.123 122.082 486.852 116.13C493.069 112.295 500.476 110.179 507.089 110.179C524.283 110.179 536.32 122.479 536.32 140.203C536.32 152.239 531.558 161.762 522.432 167.582C518.067 170.491 510.528 173.269 504.311 173.269H504.312V173.269V173.269ZM268.613 116.66C265.835 116.66 263.323 117.321 261.47 118.644C256.312 121.818 253.666 128.167 253.666 137.425C253.666 154.753 262.396 166.921 274.829 166.921C278.533 166.921 281.442 165.863 283.956 163.747C287.791 160.572 289.776 154.223 289.776 145.361C289.776 128.167 281.31 116.66 268.613 116.66V116.66V116.66V116.66ZM270.994 173.269C248.509 173.269 240.44 156.736 240.44 141.261C240.44 130.416 244.805 122.082 253.534 116.13C259.752 112.295 267.158 110.179 273.771 110.179C290.967 110.179 303.003 122.479 303.003 140.203C303.003 152.239 298.241 161.762 289.114 167.582C284.882 170.491 277.343 173.269 270.994 173.269V173.269V173.269V173.269ZM119.814 171.946C119.549 171.55 119.284 170.36 119.417 168.904C119.417 167.846 119.681 167.184 119.814 166.921C122.591 166.523 124.046 166.126 125.633 165.73C128.278 165.068 129.336 163.614 129.469 160.307C129.866 152.371 129.866 137.292 129.734 126.844V126.579C129.734 125.388 129.734 123.933 128.278 122.875C126.162 121.553 123.649 120.363 120.342 119.436C119.152 119.04 118.359 118.378 118.491 117.585C118.491 116.792 119.284 115.866 121.004 115.601C125.369 115.204 136.743 112.427 141.24 110.443C141.505 110.707 141.902 111.501 141.902 112.559L141.77 114.013C141.637 115.469 141.505 117.189 141.505 118.908C141.505 119.436 142.035 119.833 142.563 119.833C142.828 119.833 143.093 119.701 143.357 119.568C151.822 112.955 159.493 110.574 163.461 110.574C169.943 110.574 174.968 113.617 178.805 119.966C179.068 120.363 179.333 120.494 179.73 120.494C179.995 120.494 180.391 120.363 180.524 120.098C188.327 114.146 196.131 110.574 201.289 110.574C213.59 110.574 220.865 119.701 220.865 135.176C220.865 139.541 220.865 145.228 220.733 150.387C220.733 155.016 220.6 159.249 220.6 162.291C220.6 162.952 221.526 165.068 222.981 165.465C224.833 166.391 227.346 166.788 230.653 167.317H230.785C231.05 168.242 230.52 171.681 229.992 172.343C229.197 172.343 228.007 172.343 226.685 172.211C224.172 172.078 220.6 171.946 216.633 171.946C208.432 171.946 204.2 172.078 200.099 172.343C199.835 171.285 199.703 168.111 200.099 167.317C202.479 166.921 203.67 166.523 205.125 166.126C207.771 165.333 208.432 164.142 208.564 160.703C208.564 158.191 209.093 136.764 208.299 131.604C207.506 126.314 203.538 120.098 194.808 120.098C191.502 120.098 186.344 121.421 181.317 125.256C181.053 125.521 180.788 126.182 180.788 126.579V126.711C181.317 129.488 181.317 132.664 181.317 137.557V146.154C181.317 152.106 181.184 157.661 181.317 161.894C181.317 164.804 183.037 165.465 184.492 165.995C185.286 166.126 185.814 166.258 186.476 166.391C187.666 166.656 188.857 166.921 190.708 167.317C190.973 167.846 190.973 169.565 190.576 171.02C190.443 171.814 190.179 172.211 190.047 172.343C185.55 172.211 180.921 172.078 174.175 172.078C172.191 172.078 168.752 172.211 165.842 172.211C163.461 172.211 161.212 172.343 159.891 172.343C159.758 172.078 159.493 171.153 159.493 169.697C159.493 168.507 159.758 167.581 160.023 167.317C160.684 167.184 161.212 167.053 161.874 167.053C163.461 166.788 164.784 166.523 166.107 166.258C168.355 165.598 169.148 164.407 169.281 161.498C169.678 154.885 170.074 135.97 169.148 131.208C167.562 123.537 163.197 119.701 156.187 119.701C152.087 119.701 146.928 121.685 142.695 124.86C142.035 125.388 141.505 126.711 141.505 127.902V135.706C141.505 145.228 141.505 157.133 141.637 162.291C141.77 163.877 142.298 165.73 145.341 166.391C146.002 166.523 147.06 166.788 148.383 166.921L150.764 167.317C151.029 168.111 150.896 171.285 150.367 172.343C149.044 172.343 147.457 172.211 145.605 172.211C142.828 172.078 139.256 171.946 135.289 171.946C130.659 171.946 127.353 172.078 124.707 172.211C122.856 171.946 121.4 171.946 119.814 171.946V171.946V171.946V171.946Z" fill="#AEAEAE"/>
<path fill-rule="evenodd" clip-rule="evenodd" d="M50.2415 203.69L44.8187 201.838C44.8187 201.838 45.4808 174.194 35.5609 172.211C28.9477 164.539 36.619 -153.164 60.4262 171.152C60.4262 171.152 52.2265 175.252 50.7711 182.263C49.1834 189.141 50.2415 203.69 50.2415 203.69V203.69V203.69V203.69Z" fill="white"/>
<path fill-rule="evenodd" clip-rule="evenodd" d="M50.2415 203.69L44.8187 201.838C44.8187 201.838 45.4808 174.194 35.5609 172.211C28.9477 164.539 36.619 -153.164 60.4262 171.152C60.4262 171.152 52.2265 175.252 50.7711 182.263C49.1834 189.141 50.2415 203.69 50.2415 203.69V203.69V203.69V203.69Z" fill="#A6A385"/>
<path fill-rule="evenodd" clip-rule="evenodd" d="M53.1517 176.972C53.1517 176.972 100.635 145.757 89.5246 80.8139C78.8115 33.5955 53.5477 18.1205 50.7708 12.1681C47.729 7.93579 44.8184 0.529297 44.8184 0.529297L46.8033 131.869C46.8033 132.001 42.7022 172.078 53.1517 176.972" fill="white"/>
<path fill-rule="evenodd" clip-rule="evenodd" d="M53.1517 176.972C53.1517 176.972 100.635 145.757 89.5246 80.8139C78.8115 33.5955 53.5477 18.1205 50.7708 12.1681C47.729 7.93579 44.8184 0.529297 44.8184 0.529297L46.8033 131.869C46.8033 132.001 42.7022 172.078 53.1517 176.972" fill="white"/>
<path fill-rule="evenodd" clip-rule="evenodd" d="M42.0413 178.691C42.0413 178.691 -2.5325 148.27 0.113292 94.7029C2.62544 41.1348 34.1052 14.8142 40.1888 10.0523C44.1575 5.82001 44.2899 4.23228 44.5547 0C47.3317 5.95242 46.8033 89.0153 47.1993 98.8027C48.3898 136.498 45.0831 171.55 42.0413 178.691V178.691V178.691V178.691Z" fill="white"/>
<path fill-rule="evenodd" clip-rule="evenodd" d="M42.0413 178.691C42.0413 178.691 -2.5325 148.27 0.113292 94.7029C2.62544 41.1348 34.1052 14.8142 40.1888 10.0523C44.1575 5.82001 44.2899 4.23228 44.5547 0C47.3317 5.95242 46.8033 89.0153 47.1993 98.8027C48.3898 136.498 45.0831 171.55 42.0413 178.691V178.691V178.691V178.691Z" fill="#D7D7D7"/>
</svg>
