<svg width="516" height="147" viewBox="0 0 516 147" fill="none" xmlns="http://www.w3.org/2000/svg">
<g clip-path="url(#clip0_871_2)">
<path fill-rule="evenodd" clip-rule="evenodd" d="M480.991 60.7484C480.525 60.8416 480.06 61.8652 480.06 62.4231C479.967 66.1441 479.874 76.006 479.874 82.7033C479.874 82.8896 480.152 83.2617 480.433 83.2617C481.828 83.3546 485.181 83.4474 488.067 83.4474C492.071 83.4474 494.398 82.8896 495.703 82.3319C499.054 80.6572 500.637 77.0286 500.637 73.028C500.637 64.0046 494.305 60.5622 484.901 60.5622C484.249 60.4699 482.388 60.4699 480.991 60.7484ZM505.014 102.332C505.014 93.1227 498.217 88.0058 485.926 88.0058C485.368 88.0058 481.457 87.9123 480.526 88.0986C480.246 88.1922 479.874 88.3779 479.874 88.6578C479.874 95.2623 479.781 105.775 480.061 109.867C480.246 111.636 481.55 114.147 483.134 114.891C484.808 115.822 488.627 116.008 491.233 116.008C498.589 116.008 505.014 111.915 505.014 102.332ZM461.997 55.6318C462.927 55.6318 465.721 55.9104 472.89 55.9104C479.687 55.9104 485.088 55.725 491.699 55.725C499.799 55.725 510.972 58.6086 510.972 70.702C510.972 76.6566 506.782 81.4007 501.289 83.7266C501.01 83.8195 501.01 84.0052 501.289 84.098C509.11 86.0526 516.001 90.8902 516.001 100.006C516.001 108.937 510.414 114.612 502.313 118.148C497.378 120.287 491.233 121.031 484.994 121.031C480.246 121.031 467.49 120.473 460.414 120.66C459.669 120.38 461.065 117.031 461.717 116.473C463.393 116.38 464.696 116.287 466.466 115.729C468.98 115.078 469.259 114.334 469.632 110.519C469.818 107.264 469.818 95.7272 469.818 87.5409C469.818 76.2838 469.911 68.6557 469.818 64.9347C469.725 62.051 468.7 61.1206 466.653 60.5618C465.069 60.2833 462.462 59.9107 460.32 59.6322C459.854 59.1665 461.438 56.0035 461.997 55.6318ZM408.272 113.496C410.507 115.263 414.883 116.007 418.794 116.007C423.822 116.007 428.849 115.077 433.691 110.704C438.627 106.239 442.071 99.3551 442.071 88.3779C442.071 77.8649 438.067 69.3062 429.874 64.2832C425.218 61.3987 419.259 60.1897 412.369 60.1897C410.321 60.1897 408.365 60.2828 407.155 60.8407C406.875 61.027 406.224 61.8643 406.224 62.3291C406.038 64.19 406.038 78.5162 406.038 86.8889C406.038 95.5408 406.038 107.634 406.224 109.03C406.224 110.426 406.875 112.565 408.272 113.496ZM387.136 55.632C388.906 55.632 395.702 55.9105 398.962 55.9105C404.828 55.9105 409.017 55.632 420.097 55.632C429.408 55.632 437.229 58.144 442.816 62.8877C449.613 68.7489 453.151 76.843 453.151 86.7039C453.151 100.751 446.726 108.845 440.302 113.497C433.878 118.241 425.498 121.032 413.58 121.032C407.249 121.032 396.355 120.845 387.323 120.752H387.229C386.764 119.915 387.974 116.66 388.719 116.566C391.14 116.287 391.792 116.194 393.003 115.729C394.957 114.985 395.331 113.961 395.61 110.519C395.889 104.101 395.796 96.3792 395.796 87.6337C395.796 81.4014 395.889 69.2137 395.702 65.3065C395.423 62.0512 394.028 61.2139 391.234 60.6551C389.837 60.3766 387.974 60.004 385.368 59.7255C384.995 59.0735 386.671 56.1899 387.136 55.632Z" fill="white"/>
<path fill-rule="evenodd" clip-rule="evenodd" d="M274.474 117.125C272.147 116.845 270.471 116.474 268.421 115.543C268.143 115.357 267.677 114.427 267.677 114.055C267.49 110.798 267.49 101.496 267.49 95.2628C267.49 90.2388 266.653 85.8667 264.511 82.7966C261.996 79.2616 258.365 77.2148 253.71 77.2148C249.613 77.2148 244.119 80.0064 239.558 83.9135C239.464 84.0057 238.719 84.6577 238.812 83.6343C238.812 82.6109 238.999 80.5642 239.092 79.1687C239.185 77.8661 238.441 77.2148 238.441 77.2148C235.461 78.7031 227.081 80.6577 224.008 80.9363C221.774 81.4019 221.215 83.5408 223.543 84.2856H223.636C226.149 85.0298 227.826 85.8667 229.129 86.7044C230.06 87.4486 229.967 88.4719 229.967 89.3089C230.06 96.2862 230.06 106.985 229.781 112.846C229.688 115.172 229.036 116.008 227.36 116.38L227.546 116.287C226.242 116.567 225.218 116.845 223.636 117.031C223.077 117.589 223.077 120.567 223.636 121.218C224.66 121.218 230.06 120.939 234.53 120.939C240.675 120.939 243.841 121.218 245.424 121.218C246.076 120.474 246.261 117.683 245.889 117.031C244.119 116.939 242.816 116.753 241.606 116.38C239.93 116.008 239.464 115.172 239.371 113.217C239.185 108.287 239.185 97.868 239.185 90.7979C239.185 88.8433 239.744 87.9128 240.302 87.355C242.443 85.4954 245.889 84.1921 248.961 84.1921C251.941 84.1921 253.897 85.1226 255.386 86.3324C257.434 88.0063 258.086 90.4252 258.365 92.1927C258.831 96.1933 258.645 104.101 258.645 110.985C258.645 114.705 258.365 115.636 256.969 116.101C256.317 116.38 254.641 116.753 252.686 116.939C252.034 117.589 252.22 120.474 252.686 121.125C255.386 121.125 258.552 120.846 263.207 120.846C268.98 120.846 272.705 121.125 274.194 121.125C274.66 120.567 274.846 117.869 274.473 117.125H274.474ZM300.265 81.5883C295.33 81.5883 292.257 85.4025 292.257 91.3557C292.257 97.4024 294.957 104.38 302.593 104.38C303.896 104.38 306.317 103.822 307.434 102.52C309.203 100.845 310.414 97.4959 310.414 93.9609C310.414 86.2395 306.595 81.5883 300.265 81.5883ZM299.612 122.707C297.751 122.707 296.447 123.265 295.61 123.73C291.698 126.241 289.929 128.66 289.929 131.545C289.929 134.242 290.953 136.381 293.189 138.242C295.888 140.568 299.612 141.685 304.361 141.685C313.858 141.685 318.049 136.568 318.049 131.545C318.049 128.009 316.279 125.683 312.648 124.381C310.041 123.265 305.292 122.707 299.612 122.707ZM300.265 146.894C294.585 146.894 290.488 145.684 286.95 142.986C283.505 140.382 282.015 136.474 282.015 133.777C282.015 133.033 282.201 130.986 283.877 129.126C284.901 128.009 287.136 125.87 292.444 122.242C292.629 122.148 292.723 122.055 292.723 121.869C292.723 121.683 292.536 121.496 292.35 121.404C287.974 119.729 286.671 117.031 286.298 115.543V115.357C286.205 114.799 286.019 114.241 286.857 113.682C287.508 113.217 288.44 112.659 289.463 112.008C291.046 111.078 292.723 110.054 293.747 109.217C293.933 109.031 293.933 108.845 293.933 108.659C293.933 108.472 293.747 108.287 293.56 108.194C287.044 106.054 283.784 101.216 283.784 93.9602C283.784 89.2161 285.926 84.9362 289.743 82.2389C292.35 80.1914 298.867 77.6805 303.151 77.6805H303.43C307.806 77.7726 310.227 78.7031 313.672 79.9129C315.534 80.5642 317.304 80.8427 319.725 80.8427C323.356 80.8427 324.938 79.7265 326.241 78.4246C326.335 78.6103 326.522 79.0759 326.615 80.285C326.708 81.4947 326.335 83.2615 325.404 84.5648C324.659 85.5875 322.984 86.3324 321.307 86.3324H320.841C319.165 86.146 318.421 85.9596 318.421 85.9596L318.049 86.146C317.955 86.3324 318.049 86.518 318.142 86.7973L318.235 86.9837C318.421 87.8206 318.794 90.3316 318.794 90.9836C318.794 98.6121 315.721 101.96 312.462 104.472C309.296 106.798 305.665 108.287 301.568 108.659C301.475 108.659 301.103 108.659 300.265 108.752C299.799 108.752 299.147 108.845 299.054 108.845H298.961C298.216 109.031 296.354 109.961 296.354 111.543C296.354 112.938 297.192 114.613 301.195 114.892C302.033 114.985 302.872 114.985 303.803 115.078C309.11 115.45 315.721 115.915 318.794 116.938C323.076 118.52 325.777 122.334 325.777 126.893C325.777 133.777 320.841 140.196 312.648 144.195C308.645 145.964 304.641 146.894 300.265 146.894ZM353.337 82.0532C351.381 82.0532 349.612 82.5181 348.309 83.4486C344.678 85.6811 342.815 90.1466 342.815 96.6582C342.815 108.846 348.96 117.404 357.713 117.404C360.32 117.404 362.369 116.66 364.138 115.172C366.837 112.939 368.235 108.473 368.235 102.24C368.235 90.1466 362.182 82.0532 353.337 82.0532ZM355.014 121.869C339.184 121.869 333.505 110.241 333.505 99.3563C333.505 91.7285 336.578 85.8667 342.722 81.6804C347.099 78.9831 352.313 77.4948 356.968 77.4948C369.072 77.4948 377.546 86.146 377.546 98.6121C377.546 107.078 374.194 113.776 367.769 117.869C364.696 119.915 359.389 121.869 355.013 121.869H355.014ZM189.092 82.0532C187.136 82.0532 185.368 82.5181 184.063 83.4486C180.432 85.6811 178.57 90.1466 178.57 96.6582C178.57 108.846 184.715 117.404 193.468 117.404C196.075 117.404 198.123 116.66 199.893 115.172C202.592 112.939 203.99 108.473 203.99 102.24C203.99 90.1466 198.03 82.0532 189.092 82.0532ZM190.768 121.869C174.939 121.869 169.259 110.241 169.259 99.3563C169.259 91.7285 172.332 85.8667 178.477 81.6804C182.854 78.9831 188.068 77.4948 192.723 77.4948C204.828 77.4948 213.301 86.146 213.301 98.6121C213.301 107.078 209.949 113.776 203.524 117.869C200.544 119.915 195.237 121.869 190.768 121.869ZM84.3438 120.939C84.1572 120.66 83.9707 119.823 84.0643 118.799C84.0643 118.055 84.2501 117.589 84.3438 117.404C86.2987 117.124 87.3229 116.845 88.4401 116.567C90.3021 116.101 91.0468 115.078 91.1405 112.752C91.4199 107.17 91.4199 96.5647 91.327 89.2161V89.0297C91.327 88.192 91.327 87.1686 90.3021 86.4245C88.8125 85.4947 87.0434 84.6577 84.7155 84.0057C83.8777 83.7272 83.3195 83.2615 83.4124 82.7038C83.4124 82.146 83.9707 81.4947 85.1815 81.3083C88.2542 81.0291 96.261 79.0759 99.4267 77.6805C99.6133 77.8661 99.8927 78.4246 99.8927 79.1687L99.7998 80.1914C99.7062 81.2155 99.6133 82.4253 99.6133 83.6343C99.6133 84.0057 99.9864 84.2849 100.358 84.2849C100.545 84.2849 100.731 84.1921 100.917 84.0985C106.876 79.4473 112.276 77.7726 115.069 77.7726C119.632 77.7726 123.17 79.9129 125.871 84.3785C126.056 84.6577 126.243 84.7498 126.522 84.7498C126.709 84.7498 126.987 84.6577 127.081 84.4713C132.574 80.285 138.068 77.7726 141.699 77.7726C150.358 77.7726 155.479 84.1921 155.479 95.0764C155.479 98.1465 155.479 102.146 155.386 105.775C155.386 109.031 155.293 112.008 155.293 114.148C155.293 114.613 155.945 116.101 156.969 116.38C158.273 117.031 160.042 117.311 162.37 117.683H162.463C162.649 118.333 162.276 120.752 161.904 121.218C161.345 121.218 160.507 121.218 159.576 121.125C157.807 121.031 155.293 120.939 152.5 120.939C146.727 120.939 143.748 121.031 140.861 121.218C140.675 120.474 140.582 118.241 140.861 117.683C142.536 117.404 143.375 117.124 144.399 116.845C146.262 116.287 146.727 115.45 146.82 113.031C146.82 111.264 147.192 96.1933 146.633 92.564C146.075 88.8433 143.282 84.4713 137.136 84.4713C134.809 84.4713 131.178 85.4018 127.639 88.0992C127.453 88.2856 127.267 88.7505 127.267 89.0297V89.1225C127.639 91.0757 127.639 93.3096 127.639 96.7511V102.798C127.639 106.984 127.546 110.891 127.639 113.868C127.639 115.915 128.85 116.38 129.874 116.753C130.433 116.845 130.805 116.938 131.271 117.031C132.109 117.218 132.947 117.404 134.25 117.683C134.437 118.055 134.437 119.264 134.157 120.287C134.064 120.846 133.878 121.125 133.785 121.218C130.619 121.125 127.36 121.031 122.612 121.031C121.215 121.031 118.794 121.125 116.745 121.125C115.069 121.125 113.486 121.218 112.556 121.218C112.463 121.031 112.276 120.381 112.276 119.357C112.276 118.52 112.463 117.868 112.649 117.683C113.114 117.589 113.486 117.497 113.952 117.497C115.069 117.311 116.001 117.124 116.932 116.938C118.515 116.474 119.073 115.636 119.166 113.59C119.446 108.939 119.725 95.6349 119.073 92.2855C117.956 86.8901 114.884 84.1921 109.949 84.1921C107.063 84.1921 103.431 85.5875 100.451 87.8206C99.9864 88.192 99.6133 89.1225 99.6133 89.9602V95.4492C99.6133 102.146 99.6133 110.52 99.7062 114.148C99.7998 115.263 100.172 116.567 102.314 117.031C102.779 117.124 103.524 117.311 104.455 117.404L106.131 117.683C106.318 118.241 106.224 120.474 105.852 121.218C104.92 121.218 103.803 121.125 102.5 121.125C100.545 121.031 98.0301 120.939 95.2375 120.939C91.9782 120.939 89.6509 121.031 87.7882 121.125C86.4852 120.939 85.4602 120.939 84.3438 120.939Z" fill="#F1EFC8"/>
<path fill-rule="evenodd" clip-rule="evenodd" d="M35.3687 143.265L31.5513 141.963C31.5513 141.963 32.0174 122.519 25.0342 121.124C20.3788 115.728 25.7791 -107.728 42.5383 120.38C42.5383 120.38 36.7661 123.263 35.7416 128.194C34.6239 133.032 35.3687 143.265 35.3687 143.265Z" fill="white"/>
<path fill-rule="evenodd" clip-rule="evenodd" d="M35.3687 143.265L31.5513 141.963C31.5513 141.963 32.0174 122.519 25.0342 121.124C20.3788 115.728 25.7791 -107.728 42.5383 120.38C42.5383 120.38 36.7661 123.263 35.7416 128.194C34.6239 133.032 35.3687 143.265 35.3687 143.265Z" fill="#F1EFC8"/>
<path fill-rule="evenodd" clip-rule="evenodd" d="M37.4171 124.473C37.4171 124.473 70.8432 102.518 63.022 56.8402C55.4804 23.6292 37.6958 12.7448 35.741 8.55821C33.5997 5.58142 31.5508 0.37207 31.5508 0.37207L32.9481 92.7498C32.9481 92.8426 30.0611 121.031 37.4171 124.473Z" fill="white"/>
<path fill-rule="evenodd" clip-rule="evenodd" d="M37.4171 124.473C37.4171 124.473 70.8432 102.518 63.022 56.8402C55.4804 23.6292 37.6958 12.7448 35.741 8.55821C33.5997 5.58142 31.5508 0.37207 31.5508 0.37207L32.9481 92.7498C32.9481 92.8426 30.0611 121.031 37.4171 124.473Z" fill="white"/>
<path fill-rule="evenodd" clip-rule="evenodd" d="M29.5952 125.682C29.5952 125.682 -1.78277 104.286 0.0797525 66.6092C1.84819 28.9321 24.0086 10.4196 28.2912 7.07028C31.085 4.0935 31.1782 2.97677 31.3646 0C33.3195 4.18663 32.9475 62.6088 33.2262 69.4928C34.0643 96.0058 31.7365 120.66 29.5952 125.682Z" fill="white"/>
<path fill-rule="evenodd" clip-rule="evenodd" d="M29.5952 125.682C29.5952 125.682 -1.78277 104.286 0.0797525 66.6092C1.84819 28.9321 24.0086 10.4196 28.2912 7.07028C31.085 4.0935 31.1782 2.97677 31.3646 0C33.3195 4.18663 32.9475 62.6088 33.2262 69.4928C34.0643 96.0058 31.7365 120.66 29.5952 125.682Z" fill="#F1EFC8"/>
</g>
<defs>
<clipPath id="clip0_871_2">
<rect width="516" height="147" fill="white"/>
</clipPath>
</defs>
</svg>
