<svg width="389" height="389" viewBox="0 0 389 389" fill="none" xmlns="http://www.w3.org/2000/svg">
<path d="M181.761 0.104681C180.925 0.180721 178.263 0.44686 175.868 0.636959C120.617 5.61756 68.864 35.4251 36.0861 81.239C17.8339 106.712 6.16012 135.607 1.74917 166.213C0.190127 176.897 0 180.053 0 194.538C0 209.024 0.190127 212.179 1.74917 222.863C12.3202 295.899 64.301 357.263 134.8 379.999C147.425 384.067 160.733 386.842 175.868 388.515C181.761 389.162 207.239 389.162 213.132 388.515C239.256 385.626 261.387 379.162 283.213 368.023C286.56 366.312 287.206 365.855 286.75 365.475C286.445 365.247 272.186 346.123 255.074 323.007L223.97 280.995L184.994 223.319C163.547 191.611 145.904 165.681 145.751 165.681C145.599 165.643 145.447 191.268 145.371 222.559C145.257 277.345 145.219 279.55 144.535 280.843C143.546 282.706 142.785 283.466 141.188 284.303C139.972 284.911 138.907 285.025 133.165 285.025H126.587L124.837 283.923C123.697 283.2 122.86 282.25 122.29 281.147L121.491 279.436L121.567 203.207L121.681 126.939L122.86 125.456C123.469 124.658 124.761 123.631 125.674 123.137C127.233 122.376 127.841 122.3 134.42 122.3C142.177 122.3 143.47 122.605 145.485 124.81C146.056 125.418 167.16 157.203 192.409 195.489C217.657 233.775 252.185 286.052 269.144 311.715L299.944 358.366L301.504 357.339C315.307 348.366 329.909 335.592 341.468 322.285C366.071 294.036 381.927 259.59 387.251 222.863C388.81 212.179 389 209.024 389 194.538C389 180.053 388.81 176.897 387.251 166.213C376.68 93.1772 324.699 31.8132 254.2 9.07736C241.766 5.04726 228.533 2.27181 213.703 0.598939C210.052 0.218741 184.918 -0.199477 181.761 0.104681ZM261.387 117.738C263.212 118.651 264.695 120.399 265.227 122.224C265.531 123.213 265.608 144.352 265.531 191.991L265.417 260.35L253.363 241.873L241.271 223.395V173.703C241.271 141.576 241.423 123.517 241.652 122.643C242.26 120.513 243.591 118.841 245.416 117.852C246.975 117.054 247.545 116.978 253.515 116.978C259.143 116.978 260.132 117.054 261.387 117.738Z" fill="white"/>
</svg>
