<svg width="222" height="222" viewBox="0 0 222 222" fill="none" xmlns="http://www.w3.org/2000/svg">
<g clip-path="url(#clip0_871_20)">
<path d="M103.73 0.0597408C103.253 0.103136 101.734 0.25502 100.367 0.363509C68.8354 3.20591 39.3003 20.2169 20.5941 46.3626C10.1777 60.8999 3.51554 77.3901 0.998241 94.8568C0.108504 100.954 0 102.755 0 111.022C0 119.289 0.108504 121.089 0.998241 127.187C7.03107 168.868 36.6962 203.888 76.9296 216.863C84.1346 219.185 91.7294 220.768 100.367 221.723C103.73 222.092 118.27 222.092 121.633 221.723C136.542 220.074 149.172 216.386 161.628 210.029C163.538 209.052 163.907 208.791 163.647 208.574C163.472 208.444 155.335 197.53 145.569 184.338L127.818 160.362L105.575 127.447C93.3353 109.351 83.2666 94.5532 83.1792 94.5532C83.0925 94.5315 83.0057 109.156 82.9624 127.013C82.8973 158.279 82.8756 159.538 82.4853 160.275C81.9209 161.339 81.4866 161.772 80.5752 162.25C79.8812 162.597 79.2734 162.662 75.9965 162.662H72.2425L71.2437 162.033C70.5931 161.621 70.1155 161.078 69.7902 160.449L69.3342 159.472L69.3776 115.969L69.4426 72.4433L70.1155 71.597C70.463 71.1416 71.2004 70.5555 71.7214 70.2736C72.6111 69.8393 72.9581 69.7959 76.7127 69.7959C81.1396 69.7959 81.8775 69.9699 83.0274 71.2283C83.3533 71.5753 95.3972 89.7148 109.807 111.564C124.216 133.414 143.92 163.248 153.599 177.894L171.176 204.517L172.067 203.931C179.944 198.81 188.277 191.52 194.874 183.926C208.915 167.805 217.963 148.146 221.002 127.187C221.892 121.089 222 119.289 222 111.022C222 102.755 221.892 100.954 221.002 94.8568C214.969 53.1757 185.304 18.1556 145.07 5.1804C137.974 2.88044 130.422 1.29651 121.959 0.341811C119.875 0.124834 105.532 -0.11384 103.73 0.0597408ZM149.172 67.1924C150.214 67.7134 151.06 68.711 151.363 69.7525C151.537 70.3169 151.581 82.3808 151.537 109.568L151.472 148.58L144.593 138.035L137.692 127.49V99.1313C137.692 80.7966 137.779 70.4904 137.909 69.9916C138.256 68.7761 139.016 67.8219 140.057 67.2574C140.947 66.802 141.272 66.7587 144.68 66.7587C147.891 66.7587 148.456 66.802 149.172 67.1924Z" fill="#F1EFC8"/>
</g>
<defs>
<clipPath id="clip0_871_20">
<rect width="222" height="222" fill="white"/>
</clipPath>
</defs>
</svg>
