<svg width="201" height="227" viewBox="0 0 201 227" fill="none" xmlns="http://www.w3.org/2000/svg">
<g clip-path="url(#clip0_871_22)">
<path fill-rule="evenodd" clip-rule="evenodd" d="M100.5 227C97.379 227 94.4658 226.166 91.761 224.706L64.087 208.231C59.9253 205.937 62.0061 205.103 63.2546 204.686C68.8727 202.809 69.9128 202.392 75.7392 199.055C76.3632 198.638 77.1955 198.847 77.8201 199.263L99.0437 211.985C99.876 212.402 100.916 212.402 101.54 211.985L184.562 163.811C185.394 163.394 185.811 162.56 185.811 161.517V65.3786C185.811 64.3356 185.394 63.5017 184.562 63.0845L101.54 15.1194C100.708 14.7024 99.6677 14.7024 99.0437 15.1194L16.0217 63.0845C15.1895 63.5017 14.7733 64.5442 14.7733 65.3786V161.517C14.7733 162.351 15.1895 163.394 16.0217 163.811L38.7018 176.95C50.9783 183.206 58.6768 175.907 58.6768 168.608V73.7204C58.6768 72.4692 59.7175 71.2176 61.1738 71.2176H71.7859C73.0344 71.2176 74.2824 72.2606 74.2824 73.7204V168.608C74.2824 185.083 65.3355 194.676 49.7298 194.676C44.9441 194.676 41.1988 194.676 30.587 189.462L8.73914 176.95C3.3292 173.822 0 167.982 0 161.726V65.5872C0 59.3306 3.3292 53.4916 8.73914 50.3634L91.761 2.18971C96.9628 -0.729904 104.037 -0.729904 109.239 2.18971L192.261 50.3634C197.671 53.4916 201 59.3306 201 65.5872V161.726C201 167.982 197.671 173.822 192.261 176.95L109.239 225.123C106.534 226.374 103.413 227 100.5 227ZM126.093 160.892C89.6801 160.892 82.1896 144.208 82.1896 130.027C82.1896 128.776 83.2297 127.525 84.6861 127.525H95.506C96.7545 127.525 97.7952 128.359 97.7952 129.61C99.4598 140.663 104.246 146.085 126.301 146.085C143.78 146.085 151.27 142.122 151.27 132.738C151.27 127.316 149.189 123.353 121.931 120.643C99.2515 118.348 85.1022 113.343 85.1022 95.2002C85.1022 78.3082 99.2515 68.2981 122.972 68.2981C149.605 68.2981 162.714 77.4743 164.379 97.4944C164.379 98.1197 164.171 98.7455 163.755 99.3714C163.338 99.788 162.714 100.205 162.09 100.205H151.27C150.23 100.205 149.189 99.3714 148.981 98.3283C146.484 86.8585 140.034 83.1046 122.972 83.1046C103.829 83.1046 101.54 89.778 101.54 94.783C101.54 100.831 104.246 102.708 130.046 106.045C155.64 109.381 167.708 114.178 167.708 132.112C167.5 150.464 152.519 160.892 126.093 160.892Z" fill="#F1EFC8"/>
</g>
<defs>
<clipPath id="clip0_871_22">
<rect width="201" height="227" fill="white"/>
</clipPath>
</defs>
</svg>
