<svg width="383" height="432" viewBox="0 0 383 432" fill="none" xmlns="http://www.w3.org/2000/svg">
<path fill-rule="evenodd" clip-rule="evenodd" d="M191.5 432C185.553 432 180.002 430.413 174.848 427.634L122.116 396.281C114.186 391.915 118.151 390.328 120.53 389.534C131.235 385.962 133.217 385.169 144.319 378.819C145.508 378.025 147.094 378.422 148.284 379.215L188.725 403.425C190.311 404.219 192.293 404.219 193.482 403.425L351.678 311.746C353.264 310.953 354.057 309.365 354.057 307.381V124.421C354.057 122.436 353.264 120.849 351.678 120.055L193.482 28.7735C191.896 27.9798 189.914 27.9798 188.725 28.7735L30.529 120.055C28.9431 120.849 28.1501 122.833 28.1501 124.421V307.381C28.1501 308.968 28.9431 310.953 30.529 311.746L73.7453 336.75C97.1377 348.656 111.807 334.765 111.807 320.875V140.296C111.807 137.915 113.79 135.533 116.565 135.533H136.786C139.165 135.533 141.543 137.518 141.543 140.296V320.875C141.543 352.228 124.495 370.484 94.7588 370.484C85.6397 370.484 78.5031 370.484 58.2826 360.562L16.6522 336.75C6.34369 330.797 0 319.684 0 307.778V124.818C0 112.911 6.34369 101.799 16.6522 95.8457L174.848 4.1672C184.76 -1.38907 198.24 -1.38907 208.152 4.1672L366.348 95.8457C376.656 101.799 383 112.911 383 124.818V307.778C383 319.684 376.656 330.797 366.348 336.75L208.152 428.428C202.998 430.809 197.051 432 191.5 432ZM240.267 306.19C170.883 306.19 156.61 274.44 156.61 247.452C156.61 245.071 158.592 242.69 161.367 242.69H181.984C184.363 242.69 186.346 244.277 186.346 246.659C189.518 267.693 198.637 278.012 240.664 278.012C273.968 278.012 288.241 270.471 288.241 252.612C288.241 242.293 284.276 234.752 232.337 229.593C189.121 225.227 162.16 215.702 162.16 181.174C162.16 149.027 189.121 129.977 234.32 129.977C285.069 129.977 310.048 147.44 313.219 185.54C313.219 186.73 312.823 187.921 312.03 189.112C311.237 189.905 310.048 190.699 308.858 190.699H288.241C286.259 190.699 284.276 189.112 283.88 187.127C279.122 165.299 266.831 158.155 234.32 158.155C197.844 158.155 193.482 170.855 193.482 180.38C193.482 191.89 198.637 195.462 247.8 201.812C296.567 208.162 319.563 217.29 319.563 251.421C319.167 286.346 290.62 306.19 240.267 306.19Z" fill="white"/>
</svg>
