<svg width="841" height="228" viewBox="0 0 841 228" fill="none" xmlns="http://www.w3.org/2000/svg">
<path d="M753.35 94.4951H765.548V107.014H753.35V94.4951ZM758.486 129.163C756.453 129.163 754.42 129.484 752.494 130.126C750.461 130.768 748.642 131.731 746.93 132.908C745.218 134.085 743.827 135.476 742.65 136.974C741.473 138.579 740.724 140.291 740.403 142.11H728.526C728.74 138.579 729.703 135.369 731.522 132.373C733.234 129.484 735.588 127.023 738.37 124.883C741.152 122.85 744.255 121.245 747.786 120.175C751.21 119.105 754.848 118.463 758.486 118.463C763.194 118.463 767.367 119.212 771.112 120.603C774.857 121.994 778.067 123.92 780.849 126.488C783.524 129.056 785.664 132.266 787.376 135.904C788.981 139.542 790.051 143.715 790.693 148.209C791.121 152.168 791.549 155.378 791.87 157.732C792.084 160.086 792.405 162.119 792.619 163.617C792.833 165.115 793.154 166.399 793.368 167.469C793.582 168.539 793.796 169.716 794.224 171H721.036C719.538 171 718.789 170.679 718.789 169.823V161.477C718.789 160.835 719.003 160.407 719.431 160.193C719.859 160.086 720.394 159.979 721.036 159.979H780.314C780.1 159.551 779.886 158.909 779.672 158.053C779.458 157.197 779.244 156.127 779.03 154.95C778.816 153.773 778.602 152.489 778.388 151.205C778.174 149.921 777.96 148.53 777.853 147.246C777.425 144.25 776.676 141.575 775.606 139.328C774.429 137.081 773.038 135.155 771.326 133.657C769.614 132.159 767.581 131.089 765.441 130.34C763.194 129.591 760.84 129.163 758.486 129.163Z" fill="white"/>
<path d="M710.657 91.3921L709.48 86.8981L731.094 81.1201L732.271 85.6141L710.657 91.3921Z" fill="white"/>
<path d="M721.014 159.979C721.549 159.979 722.084 160.086 722.512 160.193C722.94 160.407 723.261 160.835 723.261 161.477V169.823C723.261 170.679 722.512 171 721.014 171H717.59C716.52 171 715.45 170.893 714.38 170.572C713.31 170.251 712.24 169.823 711.17 169.181C710.1 168.646 709.244 168.004 708.495 167.148C707.639 166.292 707.104 165.329 706.676 164.259H706.248C706.034 165.115 705.82 166.078 705.392 167.362C704.964 168.646 704.215 169.823 703.252 171H663.555V159.979H694.05V148.744C694.05 146.176 693.729 143.822 693.087 141.682C692.445 139.542 691.482 137.616 690.198 136.011C688.807 134.513 687.095 133.229 685.062 132.373C682.922 131.517 680.461 130.982 677.572 130.982H668.37V120.282H677.572C681.424 120.282 685.169 120.817 688.593 121.887C692.017 122.957 695.12 124.669 697.688 127.023C700.256 129.377 702.396 132.266 703.894 135.904C705.392 139.542 706.248 143.929 706.248 149.065V150.777C706.355 154.415 707.532 156.876 709.672 158.16C711.812 159.444 714.487 159.979 717.697 159.979H721.014Z" fill="white"/>
<path d="M649.216 91.3921L648.039 86.8981L669.653 81.1201L670.83 85.6141L649.216 91.3921Z" fill="white"/>
<path d="M595.751 171C594.253 171 593.504 170.679 593.504 169.823V161.477C593.504 160.835 593.718 160.407 594.146 160.193C594.574 160.086 595.109 159.979 595.751 159.979H608.698V159.551C608.056 159.23 607.307 158.588 606.451 157.625C605.595 156.662 604.846 155.485 604.204 154.094C603.562 152.81 602.92 151.312 602.492 149.707C601.957 148.102 601.743 146.497 601.743 144.785C601.743 140.505 602.385 136.76 603.669 133.55C604.953 130.34 606.879 127.558 609.233 125.311C611.587 123.064 614.476 121.352 617.686 120.175C620.896 119.105 624.534 118.463 628.386 118.463C632.238 118.463 635.769 118.998 638.979 120.068C642.189 121.138 645.078 122.85 647.432 124.99C649.786 127.237 651.712 130.019 652.996 133.229C654.28 136.546 655.029 140.398 655.029 144.785C655.029 149.279 654.387 153.131 653.103 156.341C651.819 159.658 650 162.44 647.646 164.58C645.292 166.72 642.51 168.325 639.3 169.395C635.983 170.465 632.345 171 628.386 171H595.751ZM628.386 129.056C623.678 129.056 620.254 130.554 617.9 133.443C615.546 136.332 614.369 140.077 614.369 144.785C614.369 149.493 615.546 153.345 617.9 156.127C620.254 159.016 623.785 160.407 628.386 160.407C632.88 160.407 636.411 159.016 638.765 156.127C641.119 153.345 642.403 149.493 642.403 144.785C642.403 140.077 641.226 136.332 638.872 133.443C636.518 130.554 632.987 129.056 628.386 129.056Z" fill="white"/>
<path d="M577.466 171C575.968 171 575.219 170.679 575.219 169.823V161.477C575.219 160.835 575.433 160.407 575.861 160.193C576.289 160.086 576.824 159.979 577.466 159.979H595.763C597.261 159.979 598.117 160.407 598.117 161.156V169.502C598.117 170.251 597.796 170.679 597.368 170.786C596.94 171 596.405 171 595.763 171H577.466Z" fill="white"/>
<path d="M559.179 171C557.681 171 556.932 170.679 556.932 169.823V161.477C556.932 160.835 557.146 160.407 557.574 160.193C558.002 160.086 558.537 159.979 559.179 159.979H577.476C578.974 159.979 579.83 160.407 579.83 161.156V169.502C579.83 170.251 579.509 170.679 579.081 170.786C578.653 171 578.118 171 577.476 171H559.179Z" fill="white"/>
<path d="M540.892 171C539.394 171 538.645 170.679 538.645 169.823V161.477C538.645 160.835 538.859 160.407 539.287 160.193C539.715 160.086 540.25 159.979 540.892 159.979H559.189C560.687 159.979 561.543 160.407 561.543 161.156V169.502C561.543 170.251 561.222 170.679 560.794 170.786C560.366 171 559.831 171 559.189 171H540.892Z" fill="white"/>
<path d="M522.606 171C521.108 171 520.359 170.679 520.359 169.823V161.477C520.359 160.835 520.573 160.407 521.001 160.193C521.429 160.086 521.964 159.979 522.606 159.979H540.903C542.401 159.979 543.257 160.407 543.257 161.156V169.502C543.257 170.251 542.936 170.679 542.508 170.786C542.08 171 541.545 171 540.903 171H522.606Z" fill="white"/>
<path d="M504.321 171C502.823 171 502.074 170.679 502.074 169.823V161.477C502.074 160.835 502.288 160.407 502.716 160.193C503.144 160.086 503.679 159.979 504.321 159.979H522.618C524.116 159.979 524.972 160.407 524.972 161.156V169.502C524.972 170.251 524.651 170.679 524.223 170.786C523.795 171 523.26 171 522.618 171H504.321Z" fill="white"/>
<path d="M486.034 171C484.536 171 483.787 170.679 483.787 169.823V161.477C483.787 160.835 484.001 160.407 484.429 160.193C484.857 160.086 485.392 159.979 486.034 159.979H504.331C505.829 159.979 506.685 160.407 506.685 161.156V169.502C506.685 170.251 506.364 170.679 505.936 170.786C505.508 171 504.973 171 504.331 171H486.034Z" fill="white"/>
<path d="M467.747 171C466.249 171 465.5 170.679 465.5 169.823V161.477C465.5 160.835 465.714 160.407 466.142 160.193C466.57 160.086 467.105 159.979 467.747 159.979H486.044C487.542 159.979 488.398 160.407 488.398 161.156V169.502C488.398 170.251 488.077 170.679 487.649 170.786C487.221 171 486.686 171 486.044 171H467.747Z" fill="white"/>
<path d="M449.462 171C447.964 171 447.215 170.679 447.215 169.823V161.477C447.215 160.835 447.429 160.407 447.857 160.193C448.285 160.086 448.82 159.979 449.462 159.979H467.759C469.257 159.979 470.113 160.407 470.113 161.156V169.502C470.113 170.251 469.792 170.679 469.364 170.786C468.936 171 468.401 171 467.759 171H449.462Z" fill="white"/>
<path d="M431.177 171C429.679 171 428.93 170.679 428.93 169.823V161.477C428.93 160.835 429.144 160.407 429.572 160.193C430 160.086 430.535 159.979 431.177 159.979H449.474C450.972 159.979 451.828 160.407 451.828 161.156V169.502C451.828 170.251 451.507 170.679 451.079 170.786C450.651 171 450.116 171 449.474 171H431.177Z" fill="white"/>
<path d="M412.89 171C411.392 171 410.643 170.679 410.643 169.823V161.477C410.643 160.835 410.857 160.407 411.285 160.193C411.713 160.086 412.248 159.979 412.89 159.979H431.187C432.685 159.979 433.541 160.407 433.541 161.156V169.502C433.541 170.251 433.22 170.679 432.792 170.786C432.364 171 431.829 171 431.187 171H412.89Z" fill="white"/>
<path d="M394.602 171C393.104 171 392.355 170.679 392.355 169.823V161.477C392.355 160.835 392.569 160.407 392.997 160.193C393.425 160.086 393.96 159.979 394.602 159.979H412.899C414.397 159.979 415.253 160.407 415.253 161.156V169.502C415.253 170.251 414.932 170.679 414.504 170.786C414.076 171 413.541 171 412.899 171H394.602Z" fill="white"/>
<path d="M376.317 171C374.819 171 374.07 170.679 374.07 169.823V161.477C374.07 160.835 374.284 160.407 374.712 160.193C375.14 160.086 375.675 159.979 376.317 159.979H394.614C396.112 159.979 396.968 160.407 396.968 161.156V169.502C396.968 170.251 396.647 170.679 396.219 170.786C395.791 171 395.256 171 394.614 171H376.317Z" fill="white"/>
<path d="M358.032 171C356.534 171 355.785 170.679 355.785 169.823V161.477C355.785 160.835 355.999 160.407 356.427 160.193C356.855 160.086 357.39 159.979 358.032 159.979H376.329C377.827 159.979 378.683 160.407 378.683 161.156V169.502C378.683 170.251 378.362 170.679 377.934 170.786C377.506 171 376.971 171 376.329 171H358.032Z" fill="white"/>
<path d="M339.745 171C338.247 171 337.498 170.679 337.498 169.823V161.477C337.498 160.835 337.712 160.407 338.14 160.193C338.568 160.086 339.103 159.979 339.745 159.979H358.042C359.54 159.979 360.396 160.407 360.396 161.156V169.502C360.396 170.251 360.075 170.679 359.647 170.786C359.219 171 358.684 171 358.042 171H339.745Z" fill="white"/>
<path d="M321.458 171C319.96 171 319.211 170.679 319.211 169.823V161.477C319.211 160.835 319.425 160.407 319.853 160.193C320.281 160.086 320.816 159.979 321.458 159.979H339.755C341.253 159.979 342.109 160.407 342.109 161.156V169.502C342.109 170.251 341.788 170.679 341.36 170.786C340.932 171 340.397 171 339.755 171H321.458Z" fill="white"/>
<path d="M303.173 171C301.675 171 300.926 170.679 300.926 169.823V161.477C300.926 160.835 301.14 160.407 301.568 160.193C301.996 160.086 302.531 159.979 303.173 159.979H321.47C322.968 159.979 323.824 160.407 323.824 161.156V169.502C323.824 170.251 323.503 170.679 323.075 170.786C322.647 171 322.112 171 321.47 171H303.173Z" fill="white"/>
<path d="M284.888 171C283.39 171 282.641 170.679 282.641 169.823V161.477C282.641 160.835 282.855 160.407 283.283 160.193C283.711 160.086 284.246 159.979 284.888 159.979H303.185C304.683 159.979 305.539 160.407 305.539 161.156V169.502C305.539 170.251 305.218 170.679 304.79 170.786C304.362 171 303.827 171 303.185 171H284.888Z" fill="white"/>
<path d="M266.601 171C265.103 171 264.354 170.679 264.354 169.823V161.477C264.354 160.835 264.568 160.407 264.996 160.193C265.424 160.086 265.959 159.979 266.601 159.979H284.898C286.396 159.979 287.252 160.407 287.252 161.156V169.502C287.252 170.251 286.931 170.679 286.503 170.786C286.075 171 285.54 171 284.898 171H266.601Z" fill="white"/>
<path d="M248.315 171C246.817 171 246.068 170.679 246.068 169.823V161.477C246.068 160.835 246.282 160.407 246.71 160.193C247.138 160.086 247.673 159.979 248.315 159.979H266.612C268.11 159.979 268.966 160.407 268.966 161.156V169.502C268.966 170.251 268.645 170.679 268.217 170.786C267.789 171 267.254 171 266.612 171H248.315Z" fill="white"/>
<path d="M248.349 159.979C248.884 159.979 249.419 160.086 249.847 160.193C250.275 160.407 250.596 160.835 250.596 161.477V169.823C250.596 170.679 249.847 171 248.349 171H226.521V94.4951H238.719V159.979H248.349Z" fill="white"/>
<path d="M183.816 94.4951H196.014V107.014H183.816V94.4951ZM201.899 94.4951H214.097V107.014H201.899V94.4951ZM200.294 159.979V125.418H212.492V171H180.499C179.001 171 178.252 170.679 178.252 169.823V161.477C178.252 160.835 178.466 160.407 178.894 160.193C179.322 160.086 179.857 159.979 180.499 159.979H200.294Z" fill="white"/>
<path d="M169.585 212.195L168.408 207.701L190.022 201.923L191.199 206.417L169.585 212.195Z" fill="white"/>
<path d="M127.982 215.405H140.18V227.924H127.982V215.405ZM146.065 215.405H158.263V227.924H146.065V215.405ZM142.32 200.746C134.83 200.746 128.624 199.783 123.595 197.75C118.566 195.824 114.5 193.042 111.397 189.404C108.294 185.766 106.047 181.486 104.763 176.35C103.372 171.214 102.623 165.543 102.623 159.337L113.014 130.5C113.014 136.064 114.393 169.609 115.677 173.461C116.961 177.313 118.78 180.523 121.241 182.984C123.702 185.445 126.698 187.264 130.229 188.441C133.76 189.618 137.826 190.153 142.534 190.153C145.958 190.153 149.061 189.939 152.057 189.511C155.053 189.083 157.621 188.227 159.761 187.157C161.901 186.087 163.613 184.696 164.897 182.984C166.181 181.272 166.823 179.239 166.823 176.671C166.823 176.243 166.716 175.708 166.502 175.066C166.288 174.424 165.967 173.889 165.539 173.247C165.111 172.605 164.576 172.07 163.934 171.642C163.292 171.214 162.65 171 162.008 171C161.152 171 160.296 171 159.226 170.786C158.156 170.679 157.086 170.465 155.909 170.144C154.732 169.93 153.555 169.502 152.378 168.967C151.094 168.539 150.024 167.897 149.061 167.255V156.662C149.917 157.197 150.987 157.625 152.485 158.053C153.983 158.481 155.481 158.909 157.193 159.123C158.798 159.444 160.403 159.658 162.008 159.765C163.506 159.979 164.897 159.979 165.967 159.979H180.519C181.054 159.979 181.589 160.086 182.017 160.193C182.445 160.407 182.766 160.835 182.766 161.477V169.823C182.766 170.679 182.017 171 180.519 171H173.029C173.992 172.07 174.848 173.568 175.49 175.28C176.132 176.992 176.453 178.597 176.453 179.988C176.453 182.77 175.704 185.338 174.206 187.799C172.708 190.367 170.568 192.507 167.786 194.433C164.897 196.359 161.366 197.964 157.086 199.034C152.806 200.211 147.884 200.746 142.32 200.746Z" fill="white"/>
<path d="M773.84 55.2503C764.178 45.4829 757.326 34.0484 766.125 30.5447C774.361 27.974 777.634 44.8082 773.84 55.2503Z" stroke="white" stroke-width="6"/>
<path d="M800.382 65.03C809.27 54.5536 819.129 45.7646 824.321 55.1914C827.6 63.1717 811.115 67.8996 800.382 65.03Z" stroke="white" stroke-width="6"/>
<path d="M785.833 61.7146C788.1 43.7413 788.581 6.15427 809.232 16.2988C818.534 20.8683 811.994 46.857 785.833 61.7146Z" stroke="white" stroke-width="6"/>
<path d="M99.1401 159.607L103.028 160.223L112.654 132.241L112.709 131.671L112.915 131.102C110.105 130.438 105.04 129.617 102.229 128.948C101.326 128.734 100.715 128.67 100.396 128.756C99.2295 129.071 98.8223 129.768 98.5419 130.838C96.3783 139.099 94.2605 147.196 92.1883 155.131C91.881 156.308 92.0822 157.181 92.7917 157.75C93.1392 158.027 93.8416 158.291 94.8989 158.543C96.3166 158.881 97.7304 159.236 99.1401 159.607ZM98.988 151.282C99.0278 151.03 99.1168 150.789 99.2499 150.572C99.383 150.355 99.5575 150.166 99.7636 150.016C99.9697 149.867 100.203 149.759 100.451 149.7C100.699 149.64 100.955 149.63 101.207 149.67C101.715 149.75 102.17 150.029 102.473 150.445C102.775 150.862 102.9 151.381 102.819 151.889C102.739 152.397 102.46 152.852 102.044 153.155C101.628 153.457 101.108 153.582 100.6 153.501C100.349 153.461 100.107 153.372 99.8902 153.239C99.6731 153.106 99.4842 152.932 99.3345 152.726C99.1848 152.519 99.0772 152.286 99.0177 152.038C98.9582 151.791 98.9481 151.534 98.988 151.282Z" fill="white"/>
<path d="M67.6935 133.669C70.9215 134.516 69.6385 139.414 66.3653 138.559C59.2701 136.703 52.0416 134.811 44.6798 132.881C43.0825 132.462 41.7747 131.698 40.7563 130.588C40.3442 130.14 39.9398 129.795 39.5431 129.555C30.1675 123.846 20.7916 118.139 11.4154 112.434C10.7403 112.023 9.83778 111.933 8.70786 112.161C4.48029 113.013 3.26422 118.916 6.72609 121.453C20.0642 131.229 33.441 141.047 46.8566 150.907C48.8177 152.348 50.3919 153.346 51.5793 153.901C56.9262 156.394 62.3741 156.64 68.0013 155.076C68.9534 154.811 69.9359 154.531 70.9488 154.236C76.172 152.709 81.3596 152.634 86.5114 154.011C86.6209 154.04 86.6902 153.998 86.7194 153.887L94.4701 124.258C94.5076 124.119 94.4567 124.032 94.3174 123.996C93.1306 123.706 91.8353 123.368 90.4315 122.983C86.2938 121.853 82.1963 121.847 78.1389 122.967C76.8641 123.318 75.5772 123.677 74.2784 124.045C69.5529 125.382 64.6155 125.396 59.4664 124.088C55.8274 123.163 52.0564 122.17 48.1533 121.107C47.3753 120.895 46.7257 120.855 46.2043 120.987C44.1062 121.516 43.0295 123.867 43.7183 125.886C44.1257 127.084 44.9884 127.73 46.1883 128.042C53.1991 129.87 60.3675 131.745 67.6935 133.669Z" fill="white"/>
</svg>
