<svg width="725" height="515" viewBox="0 0 725 515" fill="none" xmlns="http://www.w3.org/2000/svg">
<path d="M426.616 109.802C426.136 109.733 425.69 109.548 425.279 109.247C425.174 109.171 425.094 109.065 425.051 108.943C425.007 108.821 425.002 108.689 425.035 108.564C425.069 108.439 425.14 108.327 425.238 108.243C425.337 108.159 425.459 108.108 425.587 108.095C428.001 107.861 430.408 107.957 432.808 108.383C434.014 108.602 434.035 108.89 432.869 109.247C430.785 109.905 428.7 110.09 426.616 109.802Z" fill="#010101"/>
<path d="M446.376 109.925C448.75 109.896 450.669 109.43 450.663 108.885C450.656 108.34 448.726 107.921 446.352 107.95C443.977 107.979 442.058 108.445 442.065 108.99C442.071 109.536 444.002 109.954 446.376 109.925Z" fill="#010101"/>
<path d="M463.564 109.759C466.096 109.679 468.136 109.21 468.12 108.71C468.105 108.211 466.039 107.87 463.507 107.95C460.975 108.029 458.935 108.499 458.95 108.998C458.966 109.498 461.032 109.839 463.564 109.759Z" fill="#010101"/>
<path d="M481.035 109.78C483.51 109.693 485.502 109.209 485.484 108.698C485.466 108.187 483.445 107.843 480.97 107.929C478.495 108.016 476.503 108.5 476.521 109.011C476.538 109.522 478.559 109.866 481.035 109.78Z" fill="#010101"/>
<path d="M498.126 109.699C500.58 109.674 502.565 109.238 502.56 108.727C502.554 108.216 500.561 107.822 498.107 107.848C495.653 107.874 493.668 108.309 493.674 108.82C493.679 109.331 495.673 109.725 498.126 109.699Z" fill="#010101"/>
<path d="M515.131 109.862C517.664 109.911 519.725 109.508 519.736 108.963C519.746 108.418 517.701 107.937 515.168 107.888C512.635 107.839 510.574 108.242 510.563 108.787C510.553 109.332 512.598 109.814 515.131 109.862Z" fill="#010101"/>
<path d="M532.267 109.699C534.88 109.745 537.005 109.377 537.014 108.877C537.022 108.377 534.911 107.935 532.299 107.889C529.686 107.844 527.561 108.212 527.553 108.712C527.544 109.211 529.655 109.654 532.267 109.699Z" fill="#010101"/>
<path d="M419.804 116.942C419.813 119.282 420.206 121.178 420.683 121.176C421.16 121.175 421.541 119.276 421.532 116.936C421.524 114.595 421.131 112.7 420.654 112.701C420.176 112.703 419.796 114.601 419.804 116.942Z" fill="#010101"/>
<path d="M306.19 122.35C300.657 120.91 295.555 122.329 289.96 122.35C254.016 122.528 216.92 122.467 178.673 122.165C165.782 122.055 152.068 122.062 137.531 122.185C99.2837 122.487 59.4178 122.357 17.9337 121.795C17.6701 121.789 17.4081 121.837 17.1635 121.935C16.9189 122.033 16.6966 122.18 16.5102 122.367C16.3238 122.553 16.177 122.775 16.0788 123.02C15.9805 123.264 15.9327 123.526 15.9383 123.79C16.3634 160.131 16.6308 196.665 16.7405 233.39C16.768 241.029 16.5828 248.619 16.1851 256.162C15.7737 263.732 15.808 271.329 16.288 278.954C16.6994 285.578 15.8766 291.914 16.6171 298.435C16.6377 298.67 16.761 298.889 16.9628 299.049C17.1645 299.209 17.4301 299.298 17.7074 299.299L126.691 299.422C127.039 299.416 127.38 299.525 127.661 299.732C127.941 299.94 128.145 300.234 128.241 300.569C128.337 300.905 128.32 301.262 128.192 301.587C128.064 301.911 127.833 302.184 127.534 302.364C124.531 304.242 121.185 305.175 117.496 305.161C80.2078 305.01 45.5532 305.086 13.5315 305.388C13.122 305.39 12.7161 305.312 12.3378 305.156C11.9594 305 11.6163 304.771 11.3287 304.481C11.0411 304.192 10.8148 303.848 10.6631 303.47C10.5115 303.092 10.4377 302.688 10.4459 302.281C11.0219 264.966 10.2402 228.33 11.0219 190.809C11.5156 166.687 11.447 142.715 10.8162 118.894C10.808 118.507 10.8768 118.122 11.0187 117.762C11.1605 117.402 11.3725 117.074 11.6424 116.796C11.9123 116.518 12.2346 116.297 12.5907 116.145C12.9468 115.994 13.3296 115.914 13.7167 115.911L305.408 115.5C305.891 115.5 306.368 115.606 306.805 115.813C307.243 116.019 307.63 116.32 307.939 116.693C308.857 117.818 309.241 119.031 309.091 120.334C308.899 122.131 307.932 122.803 306.19 122.35Z" fill="#EBEFF3"/>
<path d="M419.865 138.333L419.948 131.072C419.948 130.942 419.978 130.812 420.034 130.692C420.091 130.571 420.174 130.462 420.277 130.372C420.661 130.029 420.969 130.016 421.202 130.331C421.339 130.496 421.415 130.681 421.429 130.887C421.607 133.122 421.614 135.522 421.449 138.086C421.422 138.511 421.195 138.703 420.77 138.662L420.112 138.621C419.948 138.607 419.865 138.511 419.865 138.333Z" fill="#010101"/>
<path d="M311.685 195.374L305.534 196.526C305.26 196.595 304.999 196.609 304.753 196.567C304.149 196.471 303.875 196.122 303.93 195.518C304.547 188.524 303.656 181.743 301.256 175.174C300.937 174.302 300.343 173.558 299.563 173.053C298.784 172.548 297.862 172.311 296.936 172.376C286.548 173.158 275.542 176.388 266.018 170.36C258.551 165.629 250.919 161.947 242.094 161.248C234.545 160.672 230.061 166.164 230.102 173.035C230.211 189.957 231.37 209.726 233.578 232.34C234.291 239.69 238.131 243.612 245.098 244.106C252.565 244.641 258.304 238.84 266.039 240.671C271.428 241.946 276.447 242.666 281.096 242.831C281.741 242.858 282.173 243.174 282.392 243.777C282.721 244.723 283.352 245.443 284.285 245.937C289.743 248.789 294.07 248.076 297.265 243.798C297.484 243.51 297.697 243.516 297.903 243.818C298.053 244.051 298.184 244.476 298.293 245.094C294.289 257.888 286.993 268.935 276.406 278.233C274.185 280.194 271.778 281.613 269.186 282.491C263.536 283.396 259.065 283.163 255.774 281.792C246.27 277.863 225.946 263.813 223.56 250.792C222.408 244.518 220.331 235.487 224.712 230.242C225.247 229.611 225.528 228.884 225.556 228.061C225.741 221.952 225.041 210.021 220.022 205.495C219.12 204.674 217.94 204.228 216.721 204.247C215.502 204.266 214.336 204.749 213.46 205.598C212.034 206.956 210.553 207.724 209.017 207.902C208.4 190.828 210.011 174.056 213.851 157.586C216.731 145.182 226.214 142.899 236.006 149.954C237.089 150.736 238.09 150.64 239.009 149.666C249.226 138.86 260.821 134.053 273.794 135.246C279.924 135.822 284.984 138.496 290.744 140.492C292.787 141.205 294.927 142.165 297.162 143.372C308.764 149.625 319.913 156.626 330.61 164.374C333.613 166.555 333.353 167.049 329.828 165.855C327.154 164.95 324.542 163.949 321.991 162.852C318.617 161.385 318.028 162.125 320.222 165.074L328.183 175.668C330.212 178.383 329.767 178.877 326.845 177.149L319.214 172.582C317.966 171.841 317.733 172.081 318.514 173.302C325.323 183.916 323.924 191.24 311.685 195.374ZM286.218 251.8L256.453 246.657C256.442 246.657 256.431 246.661 256.424 246.669C256.416 246.677 256.412 246.687 256.412 246.698C255.743 250.577 256.668 254.567 258.982 257.792C261.297 261.016 264.811 263.212 268.754 263.895L268.836 263.916C270.791 264.256 272.792 264.214 274.725 263.792C276.659 263.37 278.487 262.576 280.105 261.457C281.723 260.338 283.099 258.914 284.155 257.267C285.211 255.621 285.926 253.784 286.26 251.861V251.841C286.26 251.83 286.255 251.819 286.248 251.812C286.24 251.804 286.229 251.8 286.218 251.8Z" fill="#2C3749"/>
<path d="M419.703 151.519C419.646 154.017 420.023 156.053 420.546 156.064C421.068 156.076 421.538 154.06 421.595 151.561C421.651 149.063 421.274 147.027 420.751 147.016C420.229 147.004 419.759 149.02 419.703 151.519Z" fill="#010101"/>
<path d="M51.9285 154.993L50.9823 154.998C47.9944 155.014 45.5849 157.449 45.6006 160.436L45.9317 223.67C45.9473 226.658 48.3822 229.067 51.37 229.051L52.3163 229.046C55.3041 229.031 57.7136 226.596 57.6979 223.608L57.3668 160.375C57.3512 157.387 54.9164 154.977 51.9285 154.993Z" fill="#EBEFF3"/>
<path d="M305.534 196.528C304.012 197.68 303.518 199.744 304.053 202.72L294.961 197.577C294.052 197.068 292.982 196.927 291.974 197.184C290.967 197.44 290.099 198.075 289.551 198.955C288.838 200.107 288.522 201.417 288.605 202.884C288.701 204.654 289.633 205.49 291.402 205.394L303.395 204.756C303.134 217.798 301.482 230.847 298.438 243.902C298.3 244.204 298.252 244.602 298.294 245.095C298.184 244.478 298.054 244.053 297.903 243.82C297.697 243.518 297.484 243.511 297.265 243.799C294.07 248.078 289.743 248.791 284.285 245.939C283.352 245.445 282.722 244.725 282.392 243.779C282.173 243.176 281.741 242.86 281.096 242.833C276.447 242.668 271.428 241.948 266.039 240.673C258.304 238.842 252.565 244.643 245.098 244.108C238.131 243.614 234.291 239.692 233.578 232.342C231.37 209.728 230.212 189.959 230.102 173.036C230.061 166.166 234.545 160.674 242.095 161.25C250.919 161.949 258.551 165.631 266.018 170.362C275.542 176.39 286.548 173.16 296.936 172.378C297.862 172.313 298.784 172.55 299.563 173.055C300.343 173.56 300.937 174.304 301.256 175.176C303.656 181.745 304.547 188.526 303.93 195.52C303.875 196.124 304.149 196.473 304.753 196.569C305 196.61 305.26 196.597 305.534 196.528ZM244.769 201.301C244.606 201.358 244.469 201.471 244.383 201.621C244.297 201.77 244.267 201.946 244.3 202.115C244.332 202.285 244.424 202.437 244.559 202.544C244.695 202.651 244.864 202.706 245.036 202.699L266.8 202.638C266.937 202.639 267.073 202.601 267.189 202.528C267.306 202.455 267.399 202.351 267.458 202.226L268.425 200.19C268.468 200.1 268.492 200.003 268.495 199.904C268.499 199.805 268.482 199.706 268.446 199.614L266.183 194.039C266.114 193.862 265.978 193.72 265.805 193.643C265.631 193.566 265.434 193.561 265.257 193.628L244.769 201.301ZM264.681 211.709L257.481 211.216C256.672 211.161 256.377 211.524 256.597 212.306C257.187 214.294 258.208 215.926 259.662 217.202C259.86 217.373 260.094 217.499 260.347 217.569C260.599 217.639 260.863 217.652 261.12 217.607C261.377 217.561 261.62 217.459 261.83 217.307C262.041 217.155 262.214 216.957 262.336 216.728L264.887 212.1C264.907 212.062 264.918 212.019 264.918 211.975C264.918 211.932 264.907 211.889 264.887 211.85C264.867 211.812 264.837 211.779 264.802 211.754C264.766 211.73 264.724 211.714 264.681 211.709ZM285.067 241.434L284.285 241.866C283.448 242.332 283.503 242.613 284.449 242.709C285.519 242.819 286.417 242.476 287.144 241.681C292.307 236.024 284.984 229.277 281.652 225.162C279.183 222.091 278.765 217.812 280.397 212.326C280.479 212.025 280.37 211.846 280.068 211.792L279.41 211.689C278.806 211.593 278.463 211.846 278.381 212.45C277.874 215.961 278.031 219.341 278.854 222.591C279.965 227.034 283.915 230.12 286.651 233.658C287.11 234.254 287.436 234.942 287.606 235.676C287.776 236.409 287.787 237.171 287.636 237.908C287.486 238.646 287.179 239.343 286.735 239.951C286.292 240.559 285.723 241.065 285.067 241.434ZM294.447 212.121L288.81 212.429C288.672 212.44 288.543 212.504 288.451 212.607C288.359 212.711 288.311 212.846 288.317 212.985V213.334C288.359 214.105 288.48 214.865 288.672 215.569C288.865 216.273 289.125 216.908 289.439 217.437C289.752 217.967 290.112 218.38 290.499 218.654C290.885 218.928 291.29 219.056 291.69 219.032L292.307 218.991C292.707 218.97 293.094 218.797 293.447 218.482C293.8 218.167 294.111 217.717 294.364 217.157C294.616 216.598 294.804 215.939 294.917 215.22C295.03 214.5 295.066 213.734 295.023 212.964L295.002 212.614C294.992 212.476 294.928 212.347 294.824 212.255C294.721 212.163 294.585 212.115 294.447 212.121Z" fill="#FCAC92"/>
<path d="M72.6174 163.158L68.421 163.166C66.4669 163.169 64.8856 164.756 64.889 166.71L64.9907 224.966C64.9941 226.92 66.5809 228.501 68.535 228.498L72.7314 228.491C74.6855 228.487 76.2668 226.9 76.2634 224.946L76.1617 166.69C76.1583 164.736 74.5714 163.155 72.6174 163.158Z" fill="#EBEFF3"/>
<path d="M419.929 169.063C419.865 171.494 420.191 173.474 420.657 173.486C421.123 173.498 421.552 171.538 421.615 169.108C421.679 166.677 421.353 164.697 420.887 164.685C420.422 164.673 419.993 166.633 419.929 169.063Z" fill="#010101"/>
<path d="M109.407 174.967L107.062 174.971C104.721 174.975 102.828 176.876 102.832 179.216L102.91 224.307C102.914 226.647 104.815 228.541 107.155 228.537L109.5 228.533C111.841 228.529 113.735 226.628 113.73 224.288L113.652 179.197C113.648 176.857 111.747 174.963 109.407 174.967Z" fill="#EBEFF3"/>
<path d="M127.786 180.592L125.976 180.629C123.75 180.676 121.983 182.519 122.03 184.745L122.841 223.45C122.887 225.677 124.73 227.443 126.956 227.397L128.766 227.359C130.992 227.312 132.759 225.47 132.712 223.243L131.901 184.538C131.855 182.312 130.012 180.545 127.786 180.592Z" fill="#EBEFF3"/>
<path d="M420.359 183.094C420.606 181.887 420.887 181.88 421.203 183.073C421.669 184.87 421.724 187.03 421.367 189.553C421.313 189.91 421.107 190.115 420.75 190.17C420.503 190.211 420.305 190.15 420.154 189.985C420.058 189.848 420.003 189.697 419.989 189.533C419.811 187.421 419.934 185.274 420.359 183.094Z" fill="#010101"/>
<path d="M146.59 187.1L145.315 187.111C142.873 187.132 140.91 189.129 140.931 191.572L141.213 223.867C141.234 226.309 143.232 228.272 145.674 228.251L146.949 228.239C149.392 228.218 151.355 226.221 151.333 223.778L151.052 191.484C151.03 189.041 149.033 187.078 146.59 187.1Z" fill="#EBEFF3"/>
<path d="M244.771 201.3L265.259 193.627C265.437 193.56 265.633 193.565 265.807 193.642C265.98 193.719 266.116 193.861 266.185 194.038L268.448 199.613C268.484 199.705 268.501 199.804 268.498 199.903C268.494 200.002 268.47 200.099 268.427 200.189L267.46 202.225C267.401 202.35 267.308 202.454 267.191 202.527C267.075 202.6 266.94 202.638 266.802 202.637L245.038 202.698C244.866 202.705 244.697 202.65 244.562 202.543C244.426 202.436 244.334 202.284 244.302 202.114C244.269 201.945 244.299 201.769 244.385 201.62C244.471 201.47 244.608 201.357 244.771 201.3Z" fill="#2C3749"/>
<path d="M311.687 195.376L309.918 198.708C309.63 199.23 309.506 199.785 309.548 200.375C311.015 229.9 311.173 261.463 310.021 295.061C309.952 297.063 309.136 297.441 307.573 296.193C307.23 295.918 306.805 295.576 306.297 295.164C304.789 293.957 303.973 292.394 303.85 290.474C303.191 280.778 302.924 271.302 303.047 262.045C303.13 255.73 302.122 249.826 302.451 243.594C302.492 242.798 302.211 242.16 301.607 241.68C301.072 241.269 300.586 241.324 300.147 241.845L298.439 243.902C301.484 230.847 303.136 217.798 303.397 204.756C303.767 204.674 304.151 204.489 304.549 204.201C305.029 203.872 305.063 203.501 304.652 203.09C304.501 202.939 304.302 202.816 304.055 202.72C303.52 199.744 304.014 197.68 305.536 196.528L311.687 195.376Z" fill="#EBEFF3"/>
<path d="M304.053 202.719C304.3 202.815 304.499 202.939 304.65 203.089C305.061 203.501 305.027 203.871 304.547 204.2C304.149 204.488 303.765 204.673 303.395 204.756L291.402 205.393C289.633 205.489 288.701 204.653 288.605 202.884C288.522 201.416 288.838 200.107 289.551 198.955C290.099 198.074 290.967 197.44 291.974 197.183C292.982 196.926 294.051 197.067 294.961 197.576L304.053 202.719Z" fill="#2C3749"/>
<path d="M419.845 203.032C419.857 205.338 420.244 207.206 420.71 207.204C421.176 207.201 421.544 205.33 421.532 203.023C421.52 200.717 421.132 198.85 420.666 198.852C420.201 198.855 419.833 200.726 419.845 203.032Z" fill="#010101"/>
<path d="M269.185 282.491C269.007 283.794 269.027 285.028 269.247 286.194C268.355 291.529 267.43 296.918 266.47 302.363C265.469 308.109 263.192 312.278 259.64 314.87C250.486 321.555 231.664 325.299 221.77 316.351C214.282 309.576 210.003 301.163 208.934 291.11C208.701 288.875 209.551 284.027 211.484 276.567C212.774 270.149 214.022 263.635 215.228 257.025C216.627 249.434 219.507 242.44 219.301 234.562C219.301 234.523 219.291 234.486 219.273 234.453C219.255 234.421 219.229 234.395 219.198 234.377C215.002 232.1 212.438 230.029 211.505 228.164C208.282 221.746 207.453 214.992 209.016 207.902C210.552 207.724 212.033 206.956 213.459 205.598C214.335 204.75 215.501 204.267 216.72 204.248C217.939 204.229 219.12 204.675 220.021 205.495C225.041 210.021 225.74 221.952 225.555 228.061C225.527 228.884 225.246 229.611 224.711 230.242C220.33 235.487 222.408 244.518 223.559 250.792C225.946 263.813 246.269 277.863 255.773 281.792C259.064 283.163 263.535 283.396 269.185 282.491Z" fill="#FCAC92"/>
<path d="M264.68 211.709C264.723 211.714 264.764 211.73 264.8 211.754C264.836 211.779 264.866 211.812 264.886 211.85C264.906 211.889 264.917 211.932 264.917 211.975C264.917 212.019 264.906 212.061 264.886 212.1L262.335 216.728C262.212 216.957 262.039 217.155 261.829 217.307C261.619 217.459 261.376 217.561 261.119 217.607C260.862 217.652 260.598 217.639 260.345 217.569C260.093 217.499 259.859 217.373 259.661 217.201C258.207 215.926 257.185 214.294 256.596 212.306C256.376 211.524 256.671 211.161 257.48 211.215L264.68 211.709Z" fill="#2C3749"/>
<path d="M285.066 241.433C285.722 241.064 286.291 240.558 286.734 239.95C287.178 239.342 287.485 238.645 287.635 237.907C287.786 237.17 287.775 236.408 287.605 235.675C287.435 234.941 287.109 234.253 286.65 233.657C283.914 230.119 279.964 227.033 278.853 222.59C278.03 219.34 277.873 215.96 278.38 212.449C278.462 211.845 278.805 211.592 279.409 211.688L280.067 211.791C280.369 211.845 280.478 212.024 280.396 212.325C278.764 217.811 279.182 222.09 281.651 225.161C284.983 229.276 292.306 236.023 287.143 241.68C286.416 242.475 285.518 242.818 284.449 242.708C283.502 242.612 283.447 242.331 284.284 241.865L285.066 241.433Z" fill="#924848"/>
<path d="M294.445 212.121C294.583 212.115 294.719 212.163 294.822 212.255C294.926 212.347 294.99 212.476 295 212.614L295.021 212.964C295.064 213.733 295.028 214.5 294.915 215.219C294.802 215.939 294.614 216.597 294.362 217.157C294.11 217.717 293.798 218.167 293.445 218.482C293.093 218.797 292.705 218.97 292.306 218.991L291.688 219.032C291.288 219.056 290.883 218.928 290.497 218.654C290.11 218.38 289.75 217.967 289.437 217.437C289.123 216.908 288.863 216.273 288.67 215.569C288.478 214.864 288.357 214.105 288.315 213.334V212.985C288.309 212.846 288.357 212.711 288.45 212.607C288.542 212.503 288.67 212.44 288.809 212.429L294.445 212.121Z" fill="#2C3749"/>
<path d="M419.909 220.489C419.838 222.874 420.149 224.818 420.603 224.831C421.057 224.845 421.483 222.922 421.553 220.538C421.624 218.153 421.313 216.209 420.859 216.195C420.405 216.182 419.979 218.104 419.909 220.489Z" fill="#010101"/>
<path d="M419.762 237.712C419.716 240.074 420.122 241.998 420.667 242.009C421.212 242.019 421.691 240.112 421.736 237.75C421.782 235.387 421.376 233.463 420.831 233.453C420.286 233.442 419.807 235.349 419.762 237.712Z" fill="#2C3749"/>
<path d="M286.22 251.801C286.231 251.801 286.242 251.805 286.249 251.813C286.257 251.821 286.261 251.831 286.261 251.842V251.863C285.928 253.785 285.213 255.622 284.157 257.269C283.101 258.915 281.725 260.339 280.107 261.458C278.488 262.578 276.66 263.371 274.727 263.793C272.793 264.215 270.792 264.257 268.838 263.917L268.756 263.896C264.813 263.213 261.298 261.018 258.984 257.793C256.67 254.569 255.745 250.578 256.413 246.699C256.413 246.688 256.418 246.678 256.425 246.67C256.433 246.663 256.444 246.658 256.454 246.658L286.22 251.801ZM266.143 252.973C265.554 252.384 264.875 251.869 264.107 251.431C263.215 250.923 262.927 251.163 263.243 252.151C263.586 253.261 264.292 254.118 265.362 254.722C271.224 258.075 276.346 259.535 282.332 254.496C283.21 253.755 283.087 253.515 281.962 253.776C279.974 254.242 278.088 254.996 276.305 256.038C275.606 256.436 274.872 256.505 274.104 256.244L267.974 254.105C267.275 253.872 266.664 253.495 266.143 252.973Z" fill="#FCAC92"/>
<path d="M419.846 254.586C419.812 256.995 420.172 258.952 420.649 258.959C421.126 258.966 421.54 257.019 421.574 254.611C421.608 252.202 421.248 250.245 420.771 250.238C420.294 250.231 419.88 252.178 419.846 254.586Z" fill="#010101"/>
<path d="M267.974 254.104L274.104 256.244C274.872 256.504 275.606 256.436 276.305 256.038C278.088 254.996 279.974 254.242 281.962 253.775C283.087 253.515 283.21 253.755 282.332 254.495C276.346 259.535 271.224 258.075 265.362 254.722C264.292 254.118 263.586 253.261 263.243 252.15C262.927 251.163 263.215 250.923 264.107 251.43C264.875 251.869 265.554 252.383 266.143 252.973C266.664 253.494 267.275 253.871 267.974 254.104Z" fill="#924848"/>
<path d="M22.5246 257.416C22.5352 257.197 22.5888 256.983 22.6824 256.784C22.776 256.586 22.9078 256.409 23.0703 256.261C23.2327 256.114 23.4225 256.001 23.6289 255.927C23.8353 255.853 24.0542 255.821 24.2731 255.832L24.9108 255.873C25.7689 255.92 26.6124 256.079 27.3932 256.342C28.1739 256.605 28.8767 256.967 29.4612 257.406C30.0458 257.845 30.5007 258.354 30.8 258.903C31.0992 259.452 31.237 260.03 31.2054 260.605L31.1849 261.181C31.1181 262.339 30.3681 263.412 29.0994 264.164C27.8306 264.916 26.1468 265.285 24.4171 265.192L23.7794 265.151C23.5605 265.14 23.3459 265.087 23.1477 264.993C22.9496 264.899 22.7718 264.767 22.6247 264.605C22.4776 264.443 22.3639 264.253 22.2903 264.046C22.2166 263.84 22.1844 263.621 22.1955 263.402L22.5246 257.416Z" fill="#EBEFF3"/>
<path d="M419.7 271.766C419.73 274.242 420.178 276.245 420.701 276.238C421.223 276.232 421.622 274.219 421.592 271.743C421.562 269.266 421.113 267.264 420.591 267.27C420.068 267.277 419.669 269.289 419.7 271.766Z" fill="#010101"/>
<path d="M721.988 503.584L687.655 503.708C692.387 499.264 691.934 492.147 684.837 492.106C677.788 492.078 671.528 492.092 666.056 492.147C665.316 492.147 664.932 491.783 664.904 491.057L664.39 478.611L664.637 472.625L669.635 470.342C670.027 470.163 670.372 469.898 670.646 469.566C670.919 469.234 671.114 468.845 671.215 468.427C671.316 468.009 671.321 467.573 671.229 467.153C671.137 466.733 670.951 466.339 670.685 466.002L667.907 462.484C667.666 462.184 667.499 461.832 667.42 461.457C667.341 461.081 667.353 460.693 667.455 460.324L690.7 375.552C696.569 375.265 699.401 372.508 699.195 367.283C699.176 366.797 699.055 366.32 698.839 365.88C698.623 365.441 698.317 365.05 697.941 364.732C695.664 362.799 694.348 360.399 693.991 357.533C693.933 357.09 693.775 356.666 693.53 356.292C693.284 355.918 692.956 355.604 692.572 355.373C689.335 353.398 685.975 352.781 682.492 353.521L671.158 303.185C670.787 301.539 669.821 301.039 668.257 301.683C667.27 302.074 666.426 302.321 665.336 302.218C660.331 301.711 655.476 301.738 650.772 302.3C650.141 302.369 649.84 302.719 649.867 303.35C650.128 310.124 650.388 317.029 650.649 324.064C650.772 327.191 649.312 329.022 646.658 330.153C646.417 330.26 646.213 330.435 646.072 330.658C645.931 330.88 645.858 331.139 645.865 331.401C645.872 331.662 645.957 331.915 646.109 332.125C646.262 332.335 646.474 332.494 646.72 332.58C652.671 334.692 658.829 335.584 665.192 335.255C666.029 335.213 666.454 334.775 666.468 333.938L666.879 307.587C666.887 307.38 666.967 307.181 667.106 307.027C667.245 306.873 667.434 306.773 667.64 306.744L668.257 306.682C668.614 306.641 668.806 306.792 668.833 307.135C669.217 311.139 669.313 315.157 669.121 319.189C668.957 322.508 669.059 326.197 669.43 330.256C670.225 339.28 669.039 347.864 665.871 356.01L639.417 336.983L640.837 337.044C640.986 337.05 641.135 337.026 641.274 336.973C641.414 336.921 641.541 336.842 641.649 336.74C641.757 336.638 641.842 336.516 641.9 336.381C641.959 336.246 641.989 336.101 641.988 335.954C641.988 335.008 642.297 334.178 642.914 333.465C643.353 332.958 643.675 332.388 643.881 331.758C644.622 329.618 644.875 327.602 644.642 325.71C643.806 318.921 643.586 311.516 643.984 303.494C644.039 302.616 643.627 302.177 642.75 302.177L601.485 302.156C601.403 298.166 599.599 295.327 596.075 293.64C600.271 292.879 604.097 290.884 608.088 290.76C615.637 290.493 623.166 291.048 630.736 290.863C643.764 290.548 656.738 290.575 669.656 290.945C675.765 291.11 681.093 289.691 686.956 289.053C687.389 289.005 687.827 289.044 688.245 289.169C688.663 289.294 689.051 289.501 689.389 289.779C689.726 290.057 690.005 290.399 690.209 290.787C690.413 291.175 690.538 291.599 690.576 292.036C691.111 297.734 693.477 302.691 694.238 308.204C695.308 316.083 698.311 323.509 699.586 331.387C700.683 338.093 701.924 344.854 703.31 351.67C704.05 355.27 705.552 358.623 706.683 362.12C706.773 362.393 706.924 362.64 707.125 362.84C707.325 363.04 707.568 363.189 707.835 363.272C708.603 363.505 709.316 363.388 709.974 362.922C710.55 362.524 710.832 361.976 710.818 361.276C710.633 351.567 709.686 342.166 709.81 332.395C709.974 318.435 710.05 303.733 710.036 288.292C710.037 287.359 709.678 286.463 709.035 285.788C708.391 285.114 707.512 284.714 706.58 284.671C699.915 284.363 693.148 283.746 686.545 283.869C659.762 284.363 632.848 284.575 605.805 284.507C602.184 284.493 598.53 284.329 594.841 284.013C590.932 283.663 582.478 284.671 579.166 282.224C578.617 281.798 578 281.558 577.314 281.504C575.984 281.394 574.866 281.593 573.961 282.1C567.584 277.629 560.906 277.671 553.926 282.224C550.141 282.415 546.383 282.861 542.653 283.561C538.347 284.37 534.61 284.747 531.442 284.692C513.065 284.404 494.394 284.349 475.428 284.527C473.344 284.541 471.376 284.932 469.524 285.7C469.141 285.858 468.805 286.111 468.549 286.436C468.293 286.76 468.126 287.144 468.064 287.551C467.625 290.225 467.947 292.543 469.031 294.504C469.193 294.814 469.46 295.057 469.784 295.189C470.108 295.321 470.469 295.334 470.802 295.225C471.134 295.117 471.418 294.894 471.602 294.596C471.786 294.299 471.859 293.945 471.808 293.599C471.67 292.475 472.068 291.638 473.001 291.089C473.535 290.774 474.146 290.616 474.831 290.616C481.126 290.657 487.194 290.897 493.036 291.336C493.448 291.364 493.852 291.288 494.25 291.11C494.662 290.918 495.094 290.822 495.546 290.822C508.773 290.863 521.835 290.801 534.898 291.172C539.506 291.309 544.196 290.945 548.968 290.081L541.83 305.818C541.501 306.517 540.959 306.922 540.205 307.032C527.78 308.842 517.618 312.956 510.892 324.373C509.143 327.335 509.946 330.852 512.291 333.177C517.886 338.731 524.606 343.325 532.45 346.959C544.237 352.431 555.386 358.355 568.675 359.343C569.076 359.373 569.477 359.298 569.839 359.125C570.2 358.951 570.508 358.686 570.732 358.355C578.981 346.136 576.615 333.198 568.325 321.431C567.749 320.622 567.701 319.779 568.181 318.901L570.526 314.684C570.992 313.861 571.589 313.751 572.316 314.355L581.778 322.213C583.794 330.462 590.891 332.683 596.589 325.73L672.063 380.057C672.952 380.699 673.626 381.594 673.997 382.626C674.368 383.657 674.418 384.777 674.14 385.838C668.915 405.558 663.553 425.333 658.054 445.164C655.38 454.832 650.978 463.924 648.653 474.086C648.572 474.448 648.587 474.826 648.697 475.181C648.808 475.536 649.01 475.856 649.283 476.108C649.556 476.36 649.89 476.536 650.253 476.618C650.615 476.7 650.993 476.685 651.348 476.575L654.681 475.546C654.992 475.449 655.323 475.427 655.645 475.482C655.967 475.536 656.272 475.666 656.534 475.86C656.797 476.055 657.01 476.308 657.156 476.601C657.302 476.893 657.377 477.215 657.375 477.542L657.293 491.18C657.288 491.422 657.188 491.652 657.015 491.821C656.842 491.991 656.609 492.085 656.367 492.085L625.964 492.147C625.767 492.147 625.572 492.098 625.396 492.005C625.22 491.912 625.069 491.777 624.956 491.612L624.565 491.016C624.62 488.931 623.921 487.813 622.467 487.662C621.726 487.58 621.198 487.882 620.883 488.568C620.554 489.281 620.506 490.227 620.739 491.406L609.693 492.764C609.007 492.846 608.486 493.182 608.129 493.772C606.305 496.707 606.394 500.046 608.397 503.79L591.261 503.605C592.029 495.939 592.331 489.377 592.166 483.919C591.494 460.605 591.275 432.663 591.508 400.093C591.536 396.459 591.433 392.455 591.2 388.08C591.18 387.64 591.018 387.218 590.736 386.877C590.454 386.535 590.068 386.294 589.636 386.187L589.081 386.064C588.464 385.913 588.135 386.153 588.093 386.784C587.641 395.972 587.449 405.181 587.517 414.41C587.751 444.073 587.723 472.001 587.435 498.195C587.435 498.839 587.552 499.463 587.785 500.067L589.245 503.666L458.334 503.564C456.77 483.761 456.318 466.296 456.976 451.17C457.017 450.334 457.511 449.518 458.457 448.722C458.978 448.297 458.992 447.858 458.498 447.406L457.964 446.933C469.181 446.878 480.399 446.885 491.617 446.953C501.388 447.015 506.839 444.505 506.778 434.035C506.682 418.278 506.874 389.362 507.354 347.288C507.395 343.997 507.162 338.059 506.654 329.474C506.311 323.618 506.325 317.66 506.695 311.598C505.255 304.55 500.654 301.203 492.892 301.56C487.092 301.834 475.126 301.834 456.997 301.56C457.545 295.745 457.545 288.47 456.997 279.734C456.695 275.058 458.786 272.85 463.271 273.111C464.916 273.207 465.808 273.255 465.945 273.255C482.031 273.31 497.788 273.241 513.216 273.049C524.379 272.912 536.749 273.118 550.326 273.666C566.597 274.324 583.198 273.399 599.963 273.337C640.117 273.2 680.168 273.399 720.116 273.934C721.46 273.947 722.132 274.626 722.132 275.97L721.988 503.584ZM690.116 302.662C689.959 301.953 689.526 301.336 688.915 300.947C688.303 300.557 687.561 300.426 686.852 300.583L676.972 302.773C676.621 302.851 676.289 302.997 675.994 303.203C675.7 303.409 675.449 303.671 675.256 303.974C675.063 304.278 674.932 304.616 674.869 304.969C674.807 305.323 674.815 305.686 674.893 306.037L680.752 332.466C680.909 333.174 681.341 333.791 681.953 334.181C682.565 334.571 683.307 334.702 684.015 334.545L693.896 332.354C694.247 332.277 694.579 332.13 694.873 331.924C695.167 331.718 695.418 331.456 695.611 331.153C695.804 330.85 695.936 330.512 695.998 330.158C696.06 329.804 696.052 329.442 695.975 329.091L690.116 302.662ZM611.523 442.613C613.107 428.522 613.848 412.333 610.783 398.365C610.724 398.115 610.608 397.882 610.443 397.685C610.278 397.488 610.069 397.333 609.834 397.233C609.6 397.132 609.345 397.089 609.091 397.107C608.838 397.126 608.593 397.204 608.376 397.337C607.087 398.105 606.367 399.27 606.216 400.834C605.078 412.984 604.961 425.251 605.866 437.635C606.031 439.801 606.785 441.769 608.129 443.538C608.357 443.842 608.67 444.069 609.029 444.192C609.388 444.315 609.775 444.328 610.141 444.228C610.506 444.128 610.834 443.921 611.08 443.633C611.327 443.345 611.481 442.99 611.523 442.613ZM570.443 444.773C571.447 444.776 572.418 442.276 573.144 437.823C573.869 433.37 574.289 427.328 574.311 421.027C574.322 417.907 574.235 414.817 574.055 411.934C573.875 409.05 573.605 406.43 573.261 404.223C572.917 402.015 572.506 400.264 572.051 399.068C571.596 397.873 571.106 397.256 570.609 397.255C569.605 397.251 568.634 399.751 567.908 404.204C567.183 408.657 566.763 414.699 566.741 421C566.73 424.121 566.817 427.21 566.997 430.094C567.178 432.977 567.447 435.597 567.791 437.804C568.135 440.012 568.546 441.763 569.001 442.959C569.456 444.155 569.946 444.771 570.443 444.773Z" fill="#EBEFF3"/>
<path d="M211.486 276.568C209.552 284.029 208.702 288.876 208.935 291.112C210.004 301.164 214.283 309.577 221.771 316.352C231.665 325.3 250.487 321.556 259.641 314.871C263.193 312.279 265.47 308.11 266.471 302.364C267.431 296.92 268.357 291.53 269.248 286.195C285.293 289.706 300.289 294.842 314.236 301.603C308.133 306.115 304.945 311.696 304.671 318.347C304.067 332.815 303.244 347.27 302.202 361.71C301.996 364.563 301.4 367.388 300.412 370.185C299.494 372.805 298.664 375.671 297.923 378.784C296.607 384.379 294.735 390.681 292.308 397.688C292.212 397.949 292.28 398.148 292.513 398.285L293.028 398.614C293.171 398.704 293.332 398.759 293.5 398.777C293.668 398.795 293.837 398.774 293.996 398.717C294.154 398.659 294.298 398.567 294.415 398.445C294.533 398.324 294.621 398.178 294.673 398.017C297.951 387.705 300.358 377.769 301.894 368.211C302.277 365.907 302.758 365.886 303.333 368.149C303.443 368.601 303.532 369.657 303.601 371.317C304.067 382.123 304.095 392.902 303.683 403.654L293.274 403.921C292.692 403.933 292.131 404.138 291.68 404.504C291.229 404.869 290.914 405.373 290.785 405.937C287.672 419.239 284.498 433.303 281.261 448.127C278.628 460.244 282.372 477.523 285.375 489.145C285.43 489.345 285.424 489.555 285.359 489.751C285.294 489.948 285.173 490.12 285.01 490.247C284.848 490.375 284.651 490.451 284.445 490.468C284.24 490.484 284.034 490.439 283.853 490.338C276.009 486.06 267.664 483.797 258.819 483.55C248.513 483.242 238.618 485.545 228.58 486.718C222.806 487.404 215.511 487.445 206.693 486.841C191.799 485.813 176.289 485.065 160.162 484.599C159.38 484.585 158.818 484.215 158.475 483.488C156.857 471.311 155.348 459.119 153.949 446.914C152.77 436.67 150.919 426.041 148.395 415.029L155.595 391.661C155.67 391.412 155.692 391.15 155.661 390.892C155.629 390.635 155.545 390.387 155.414 390.164C155.282 389.942 155.106 389.749 154.896 389.6C154.687 389.45 154.448 389.347 154.196 389.295L108.468 379.915L104.621 379.092C104.109 378.984 103.655 378.692 103.344 378.271C103.034 377.85 102.888 377.33 102.934 376.809C105.485 348.586 116.717 309.523 141.607 294.506C155.115 286.346 169.878 281.306 185.896 279.387C194.138 278.413 202.668 277.473 211.486 276.568ZM170.385 362.389C170.619 362.471 170.776 362.396 170.859 362.163C177.016 345.048 178.778 327.542 176.145 309.646C176.118 309.454 176.008 309.372 175.816 309.399L175.302 309.44C175.124 309.454 175.048 309.55 175.076 309.728C175.693 314.768 176.783 319.52 176.536 324.642C175.905 337.588 173.684 350.108 169.871 362.204C169.871 362.218 169.878 362.231 169.892 362.245L170.385 362.389ZM173.342 363.988C173.491 364.068 174.016 363.432 174.802 362.22C175.587 361.009 176.568 359.32 177.53 357.527C178.006 356.639 178.463 355.752 178.875 354.916C179.287 354.081 179.645 353.313 179.929 352.657C180.214 352.001 180.419 351.47 180.533 351.093C180.647 350.717 180.668 350.503 180.594 350.464C180.445 350.384 179.92 351.02 179.134 352.231C178.349 353.443 177.368 355.131 176.406 356.924C175.93 357.813 175.473 358.7 175.061 359.535C174.65 360.371 174.291 361.139 174.007 361.795C173.722 362.45 173.517 362.982 173.403 363.358C173.289 363.735 173.268 363.949 173.342 363.988ZM171.489 366.545C171.516 366.48 171.531 366.411 171.532 366.34C171.532 366.27 171.519 366.2 171.493 366.135C171.467 366.07 171.428 366.011 171.379 365.96C171.33 365.91 171.271 365.87 171.207 365.843L170.563 365.568C170.433 365.513 170.285 365.511 170.154 365.564C170.022 365.617 169.917 365.72 169.861 365.85L161.177 386.21C161.15 386.274 161.135 386.344 161.135 386.414C161.134 386.484 161.147 386.554 161.173 386.619C161.199 386.684 161.238 386.744 161.287 386.794C161.336 386.844 161.395 386.884 161.459 386.912L162.103 387.186C162.233 387.242 162.381 387.243 162.512 387.19C162.644 387.137 162.749 387.034 162.805 386.904L171.489 366.545Z" fill="#551AA6"/>
<path d="M573.961 282.1C578.926 287.695 580.249 293.523 577.931 299.585C577.438 300.915 577.897 301.656 579.31 301.806L580.626 301.95C581.984 302.088 582.992 301.56 583.65 300.366C587.284 293.839 591.426 291.597 596.075 293.64C599.599 295.327 601.402 298.165 601.485 302.156L601.279 308.554C601.252 309.239 601.519 309.788 602.081 310.199L639.417 336.982L665.871 356.01C668.463 358.739 670.739 359.761 672.7 359.075C673.358 360.309 674.257 360.817 675.395 360.597C674.915 360.94 674.689 361.242 674.716 361.502C674.73 361.736 674.956 361.9 675.395 361.996C679.002 362.764 682.588 363.505 686.153 364.218C684.398 370.087 685.913 373.865 690.7 375.552L667.455 460.324C667.353 460.692 667.341 461.081 667.42 461.456C667.498 461.832 667.665 462.184 667.907 462.484L670.684 466.001C670.951 466.339 671.137 466.733 671.229 467.153C671.321 467.573 671.316 468.009 671.215 468.427C671.114 468.845 670.919 469.234 670.646 469.566C670.372 469.898 670.026 470.163 669.635 470.342L664.637 472.625C662.25 472.433 660.228 473.078 658.568 474.559C658.268 474.828 658.037 475.167 657.898 475.546C657.759 475.925 657.715 476.332 657.77 476.732C657.825 477.132 657.977 477.513 658.213 477.84C658.449 478.168 658.762 478.433 659.124 478.611C660.413 479.242 662.168 479.242 664.39 478.611L664.904 491.056C664.931 491.783 665.315 492.147 666.056 492.147C671.528 492.092 677.788 492.078 684.837 492.105C691.934 492.147 692.386 499.264 687.655 503.707L608.396 503.79C606.394 500.046 606.305 496.706 608.129 493.772C608.486 493.182 609.007 492.846 609.692 492.764L620.739 491.406C622.357 492.174 623.632 492.044 624.565 491.015L624.956 491.612C625.069 491.777 625.22 491.912 625.396 492.005C625.571 492.098 625.766 492.147 625.964 492.147L656.367 492.085C656.609 492.085 656.842 491.99 657.015 491.821C657.188 491.652 657.287 491.422 657.293 491.18L657.375 477.541C657.377 477.215 657.302 476.892 657.155 476.6C657.009 476.308 656.796 476.055 656.534 475.86C656.271 475.666 655.967 475.536 655.645 475.482C655.323 475.427 654.992 475.449 654.68 475.546L651.348 476.575C650.993 476.685 650.615 476.7 650.253 476.618C649.89 476.536 649.556 476.36 649.283 476.107C649.01 475.855 648.808 475.536 648.697 475.181C648.587 474.826 648.572 474.448 648.653 474.086C650.978 463.924 655.38 454.831 658.054 445.163C663.553 425.333 668.915 405.558 674.14 385.838C674.418 384.777 674.368 383.657 673.997 382.625C673.626 381.594 672.952 380.698 672.063 380.057L596.589 325.73C597.672 320.766 594.847 317.111 588.114 314.766C590.994 310.624 594.216 307.456 597.782 305.262C598.426 304.865 598.783 304.289 598.852 303.534C599.222 299.311 597.261 296.794 592.968 295.985C592.371 295.872 591.754 295.912 591.175 296.103C590.595 296.294 590.073 296.628 589.657 297.075C586.118 300.922 584.082 306.62 577.376 303.905C577.142 303.811 576.892 303.764 576.641 303.767C576.389 303.77 576.141 303.823 575.911 303.923C575.681 304.023 575.474 304.167 575.302 304.347C575.129 304.528 574.995 304.741 574.907 304.974L573.118 309.582C572.857 310.282 573.022 310.851 573.611 311.289L583.568 318.777L581.778 322.213L572.315 314.355C571.589 313.751 570.992 313.861 570.526 314.684L568.181 318.901C567.701 319.778 567.749 320.622 568.325 321.431C576.615 333.197 578.98 346.136 570.732 358.355C570.508 358.686 570.2 358.951 569.838 359.124C569.477 359.298 569.076 359.373 568.674 359.343C555.386 358.355 544.237 352.431 532.45 346.959C524.605 343.325 517.886 338.731 512.29 333.177C509.945 330.852 509.143 327.335 510.892 324.372C517.618 312.956 527.78 308.842 540.205 307.031C540.959 306.922 541.501 306.517 541.83 305.818L548.968 290.081L553.925 282.223C560.906 277.67 567.584 277.629 573.961 282.1ZM604.961 317.852C604.858 317.774 604.733 317.729 604.604 317.724C604.474 317.719 604.346 317.753 604.237 317.822C604.128 317.892 604.042 317.992 603.991 318.112C603.94 318.231 603.927 318.362 603.953 318.489L605.619 326.491C605.65 326.648 605.738 326.787 605.866 326.882L669.121 371.911C669.229 371.99 669.359 372.034 669.493 372.035C669.627 372.036 669.758 371.995 669.867 371.917C669.976 371.84 670.058 371.73 670.101 371.604C670.145 371.477 670.147 371.34 670.108 371.212L668.113 363.909C668.073 363.768 667.986 363.644 667.866 363.559L604.961 317.852ZM569.586 356.473C569.938 355.758 569.54 354.683 568.414 353.308C567.288 351.934 565.457 350.287 563.026 348.463C560.594 346.638 557.609 344.671 554.241 342.674C550.874 340.677 547.189 338.689 543.398 336.824C535.742 333.057 528.118 330.018 522.202 328.375C516.286 326.732 512.563 326.621 511.852 328.064C511.5 328.779 511.898 329.855 513.024 331.229C514.15 332.604 515.981 334.25 518.412 336.075C520.844 337.9 523.829 339.866 527.197 341.863C530.564 343.86 534.249 345.848 538.04 347.714C545.696 351.481 553.32 354.52 559.236 356.163C565.152 357.806 568.875 357.917 569.586 356.473ZM685.392 377.794C685.708 376.642 685.344 376.361 684.302 376.951C681.971 378.268 680.401 380.379 679.591 383.287C673.091 406.669 666.886 429.351 660.975 451.334C660.591 452.748 660.738 454.219 661.386 455.449C661.565 455.791 661.791 456.093 662.065 456.354C662.206 456.494 662.382 456.595 662.574 456.646C662.766 456.697 662.968 456.696 663.16 456.644C663.352 456.592 663.527 456.49 663.667 456.349C663.807 456.207 663.907 456.032 663.958 455.839L685.392 377.794Z" fill="#F83D52"/>
<path d="M553.925 282.225L548.967 290.083C544.195 290.947 539.505 291.31 534.897 291.173C521.835 290.803 508.772 290.864 495.545 290.823C495.093 290.823 494.661 290.919 494.249 291.111C493.852 291.289 493.447 291.365 493.036 291.337C487.194 290.899 481.125 290.659 474.831 290.617C474.145 290.617 473.535 290.775 473 291.091C472.067 291.639 471.67 292.476 471.807 293.6C471.858 293.946 471.785 294.3 471.601 294.597C471.417 294.895 471.134 295.118 470.801 295.226C470.468 295.335 470.107 295.322 469.783 295.19C469.459 295.058 469.192 294.815 469.03 294.505C467.946 292.544 467.624 290.227 468.063 287.552C468.125 287.145 468.292 286.761 468.548 286.437C468.804 286.112 469.14 285.859 469.523 285.701C471.375 284.933 473.343 284.542 475.427 284.529C494.393 284.35 513.065 284.405 531.441 284.693C534.609 284.748 538.346 284.371 542.652 283.562C546.382 282.862 550.14 282.417 553.925 282.225Z" fill="white"/>
<path d="M596.074 293.642C591.425 291.598 587.284 293.84 583.65 300.368C582.991 301.561 581.983 302.089 580.626 301.952L579.309 301.808C577.897 301.657 577.437 300.917 577.931 299.586C580.249 293.525 578.925 287.697 573.961 282.101C574.866 281.594 575.984 281.395 577.314 281.505C578 281.56 578.617 281.8 579.165 282.225C582.477 284.673 590.932 283.665 594.84 284.014C598.529 284.33 602.184 284.494 605.804 284.508C632.848 284.577 659.761 284.364 686.544 283.87C693.147 283.747 699.915 284.364 706.58 284.673C707.511 284.715 708.39 285.115 709.034 285.79C709.678 286.464 710.037 287.361 710.036 288.293C710.049 303.735 709.974 318.436 709.809 332.397C709.686 342.168 710.632 351.568 710.817 361.278C710.831 361.977 710.55 362.526 709.974 362.923C709.316 363.39 708.603 363.506 707.835 363.273C707.568 363.19 707.324 363.042 707.124 362.841C706.924 362.641 706.772 362.394 706.683 362.121C705.551 358.624 704.05 355.271 703.309 351.671C701.924 344.856 700.683 338.095 699.586 331.389C698.31 323.51 695.307 316.084 694.237 308.205C693.476 302.693 691.111 297.735 690.576 292.037C690.537 291.6 690.412 291.176 690.208 290.788C690.004 290.401 689.726 290.058 689.388 289.78C689.051 289.502 688.662 289.295 688.244 289.17C687.827 289.046 687.388 289.006 686.955 289.054C681.093 289.692 675.765 291.111 669.656 290.947C656.737 290.576 643.764 290.549 630.736 290.864C623.166 291.05 615.637 290.494 608.088 290.762C604.097 290.885 600.271 292.88 596.074 293.642Z" fill="white"/>
<path d="M419.741 286.626C419.632 286.16 419.755 285.817 420.112 285.598C420.921 285.09 421.367 285.31 421.449 286.256C421.627 287.929 422.491 288.724 424.041 288.642C425.124 288.587 425.426 289.047 424.946 290.02L421.346 297.282C420.797 298.393 420.242 298.393 419.68 297.282L416.08 290.164C415.974 289.96 415.921 289.732 415.924 289.501C415.927 289.271 415.988 289.044 416.1 288.843C416.212 288.641 416.372 288.471 416.566 288.346C416.76 288.221 416.981 288.146 417.211 288.128L418.713 288.004C418.877 287.99 419.036 287.942 419.179 287.862C419.322 287.783 419.447 287.674 419.545 287.543C419.642 287.413 419.71 287.263 419.744 287.105C419.778 286.947 419.777 286.784 419.741 286.626Z" fill="#010101"/>
<path d="M588.112 314.767C586.933 315.356 585.417 316.693 583.566 318.778L573.61 311.29C573.02 310.851 572.855 310.282 573.116 309.583L574.906 304.975C574.993 304.742 575.127 304.529 575.3 304.348C575.472 304.168 575.679 304.023 575.909 303.924C576.139 303.824 576.387 303.771 576.639 303.768C576.89 303.765 577.14 303.811 577.374 303.905C584.08 306.621 586.117 300.923 589.655 297.076C590.071 296.629 590.594 296.294 591.173 296.104C591.752 295.913 592.369 295.872 592.967 295.986C597.259 296.795 599.22 299.311 598.85 303.535C598.781 304.289 598.425 304.865 597.78 305.263C594.214 307.457 590.992 310.625 588.112 314.767Z" fill="white"/>
<path d="M686.851 300.584L676.97 302.774C675.495 303.101 674.564 304.562 674.891 306.037L680.75 332.467C681.077 333.942 682.538 334.872 684.013 334.545L693.894 332.355C695.369 332.028 696.3 330.567 695.973 329.092L690.114 302.662C689.787 301.187 688.326 300.256 686.851 300.584Z" fill="white"/>
<path d="M456.994 301.562C475.124 301.836 487.089 301.836 492.89 301.562C500.652 301.205 505.253 304.551 506.693 311.6C447.052 311.559 387.623 311.58 328.407 311.662C324.279 311.662 321.235 312.176 319.274 313.205C315.763 315.015 314.001 317.922 313.987 321.927C313.781 363.109 313.761 404.655 313.925 446.564C314.46 446.057 313.829 446.098 312.033 446.688C306.616 445.083 303.894 441.381 303.866 435.58C303.812 424.965 303.75 414.323 303.681 403.654C304.093 392.902 304.065 382.123 303.599 371.317C303.53 369.658 303.441 368.602 303.332 368.149C302.756 365.886 302.276 365.907 301.892 368.211C300.356 377.769 297.949 387.705 294.671 398.018C294.619 398.178 294.531 398.324 294.413 398.446C294.296 398.567 294.153 398.66 293.994 398.717C293.835 398.775 293.666 398.795 293.498 398.777C293.33 398.76 293.169 398.704 293.026 398.614L292.511 398.285C292.278 398.148 292.21 397.949 292.306 397.688C294.733 390.681 296.605 384.379 297.921 378.784C298.662 375.671 299.492 372.805 300.41 370.186C301.398 367.388 301.994 364.563 302.2 361.71C303.242 347.27 304.065 332.816 304.669 318.348C304.943 311.696 308.131 306.115 314.234 301.603L456.994 301.562Z" fill="#1E597A"/>
<path d="M682.493 353.521L672.701 359.075C670.74 359.761 668.463 358.739 665.871 356.01C669.039 347.864 670.226 339.279 669.43 330.256C669.06 326.197 668.957 322.508 669.122 319.189C669.314 315.157 669.218 311.139 668.834 307.134C668.806 306.792 668.614 306.641 668.258 306.682L667.641 306.744C667.435 306.772 667.246 306.873 667.107 307.027C666.968 307.181 666.887 307.379 666.879 307.587L666.468 333.938C666.454 334.775 666.029 335.213 665.193 335.255C658.83 335.584 652.672 334.692 646.72 332.58C646.475 332.494 646.262 332.335 646.11 332.125C645.957 331.914 645.872 331.662 645.866 331.401C645.859 331.139 645.931 330.88 646.072 330.658C646.214 330.435 646.418 330.259 646.659 330.153C649.312 329.022 650.773 327.191 650.649 324.064C650.389 317.029 650.128 310.124 649.868 303.349C649.84 302.719 650.142 302.369 650.773 302.3C655.476 301.738 660.331 301.711 665.337 302.218C666.427 302.321 667.27 302.074 668.258 301.683C669.821 301.039 670.788 301.539 671.158 303.185L682.493 353.521Z" fill="white"/>
<path d="M601.485 302.156L642.75 302.177C643.627 302.177 644.039 302.616 643.984 303.493C643.586 311.516 643.806 318.921 644.642 325.71C644.875 327.602 644.622 329.618 643.881 331.757C643.675 332.388 643.353 332.957 642.914 333.465C642.297 334.178 641.989 335.008 641.989 335.954C641.989 336.1 641.959 336.246 641.9 336.381C641.842 336.516 641.757 336.638 641.649 336.74C641.542 336.841 641.414 336.921 641.274 336.973C641.135 337.025 640.986 337.05 640.837 337.044L639.417 336.982L602.081 310.199C601.519 309.788 601.252 309.239 601.279 308.554L601.485 302.156Z" fill="white"/>
<path d="M169.873 362.203C173.685 350.107 175.907 337.586 176.538 324.641C176.785 319.518 175.695 314.767 175.077 309.727C175.05 309.549 175.125 309.453 175.304 309.439L175.818 309.398C176.01 309.37 176.12 309.453 176.147 309.645C178.78 327.541 177.018 345.047 170.86 362.161C170.778 362.395 170.62 362.47 170.387 362.388L169.894 362.244C169.88 362.23 169.873 362.216 169.873 362.203Z" fill="#505E81"/>
<path d="M506.696 311.599C506.325 317.66 506.312 323.619 506.654 329.475C507.162 338.059 507.395 343.997 507.354 347.289C506.874 389.363 506.682 418.278 506.778 434.035C506.84 444.506 501.388 447.015 491.617 446.954C480.399 446.885 469.182 446.878 457.964 446.933L432.929 446.378C431.421 446.336 430.666 447.077 430.666 448.599C430.68 463.3 427.375 476.047 420.751 486.84C416.843 493.217 410.398 498.778 401.415 503.523L348.219 503.214C348.203 503.217 348.186 503.213 348.173 503.203C348.159 503.194 348.15 503.179 348.147 503.163C348.145 503.146 348.149 503.13 348.158 503.116C348.168 503.103 348.182 503.094 348.199 503.091C358.059 500.828 366.561 495.994 373.706 488.588C381.359 480.689 389.751 468.82 392.158 458.041C393.214 453.282 393.653 447.927 393.475 441.975C392.981 426.479 392.947 411.558 393.372 397.214C393.386 396.761 393.166 396.535 392.714 396.535L385.267 396.576C384.814 396.576 384.588 396.809 384.588 397.275L384.547 446.522L313.928 446.563C313.764 404.653 313.784 363.108 313.99 321.925C314.003 317.921 315.766 315.013 319.276 313.203C321.238 312.175 324.282 311.66 328.41 311.66C387.626 311.578 447.054 311.558 506.696 311.599Z" fill="#386F95"/>
<path d="M588.115 314.767C594.849 317.112 597.674 320.766 596.59 325.731C590.892 332.684 583.795 330.462 581.779 322.213L583.569 318.778C585.42 316.693 586.936 315.356 588.115 314.767ZM592.682 323.345C592.682 322.526 592.357 321.741 591.778 321.163C591.199 320.584 590.415 320.259 589.596 320.259C588.778 320.259 587.993 320.584 587.414 321.163C586.836 321.741 586.511 322.526 586.511 323.345C586.511 324.163 586.836 324.948 587.414 325.526C587.993 326.105 588.778 326.43 589.596 326.43C590.415 326.43 591.199 326.105 591.778 325.526C592.357 324.948 592.682 324.163 592.682 323.345Z" fill="#924848"/>
<path d="M604.962 317.854L667.867 363.562C667.988 363.646 668.075 363.77 668.114 363.911L670.11 371.214C670.148 371.342 670.146 371.479 670.103 371.606C670.059 371.732 669.977 371.842 669.868 371.919C669.759 371.997 669.628 372.038 669.494 372.037C669.36 372.036 669.23 371.992 669.122 371.913L605.868 326.884C605.739 326.789 605.651 326.65 605.621 326.493L603.954 318.491C603.928 318.364 603.942 318.233 603.992 318.114C604.043 317.994 604.129 317.894 604.238 317.824C604.348 317.755 604.475 317.721 604.605 317.726C604.734 317.731 604.859 317.776 604.962 317.854Z" fill="white"/>
<path d="M589.593 326.432C591.298 326.432 592.679 325.05 592.679 323.346C592.679 321.642 591.298 320.261 589.593 320.261C587.889 320.261 586.508 321.642 586.508 323.346C586.508 325.05 587.889 326.432 589.593 326.432Z" fill="#F83D52"/>
<path d="M103.347 406.141C103.95 404.961 105.041 405.195 106.618 406.84C107.067 407.317 107.324 407.94 107.338 408.589C107.667 420.725 103.32 431.155 94.2959 439.877L81.2952 449.874L58.0504 450.1C25.0551 435.598 0.102874 406.552 2.05315e-05 369.463C-0.00107854 369.265 0.0419613 369.069 0.125927 368.89C0.209893 368.71 0.332617 368.552 0.484923 368.428C0.637229 368.303 0.815179 368.215 1.00549 368.17C1.1958 368.125 1.39355 368.124 1.58396 368.167C20.3992 372.24 35.121 382.491 45.7491 398.921C46.5582 400.182 46.8942 400.066 46.7571 398.571C46.3045 393.613 39.8659 387.607 47.2302 384.501C48.4233 384.007 49.5821 383.445 50.7067 382.814C50.8901 382.711 51.0389 382.557 51.1351 382.37C51.2314 382.184 51.271 381.972 51.2493 381.762C51.2276 381.551 51.1454 381.35 51.0127 381.183C50.8799 381.015 50.7023 380.889 50.501 380.818L41.5116 377.856C41.0645 377.706 40.6637 377.445 40.347 377.1C40.0302 376.754 39.808 376.335 39.7014 375.881C35.409 358.081 34.977 340.52 38.4054 323.2C38.4952 322.751 38.7499 322.352 39.1193 322.082C39.4886 321.812 39.9458 321.689 40.4008 321.739C45.2554 322.254 51.2209 331.469 53.134 335.378C61.4034 352.184 65.209 370.451 68.4797 389.088C68.7128 390.391 69.0351 390.411 69.4465 389.149C70.4545 386.084 70.6396 382.875 71.5036 379.728C74.4246 368.949 79.9718 359.843 88.1452 352.41C88.335 352.238 88.5627 352.114 88.8098 352.047C89.0568 351.98 89.3162 351.972 89.5669 352.024C89.8175 352.076 90.0523 352.187 90.2521 352.347C90.4519 352.507 90.611 352.712 90.7166 352.945C96.49 365.548 99.0477 378.672 98.3894 392.317C98.362 393.085 98.0603 393.737 97.4843 394.272C96.1404 395.52 94.625 396.637 92.9382 397.625C92.2525 398.022 91.7314 398.598 91.3748 399.353C91.0731 399.997 91.2651 400.251 91.9508 400.114L96.0238 399.353C96.2868 399.303 96.5581 399.319 96.8136 399.399C97.069 399.479 97.3007 399.621 97.4879 399.812C97.6752 400.004 97.8123 400.238 97.887 400.496C97.9618 400.753 97.9718 401.024 97.9163 401.286L96.3529 408.712C96.1746 409.535 96.4969 409.864 97.3197 409.7C99.5276 409.261 101.537 408.074 103.347 406.141ZM54.3477 412.97C55.335 415.507 56.9876 416.076 59.3052 414.678C59.5178 414.548 59.6948 414.367 59.8202 414.152C59.9456 413.937 60.0156 413.694 60.0238 413.445C60.0319 413.196 59.9781 412.949 59.867 412.726C59.7559 412.503 59.5911 412.311 59.3875 412.168C57.7144 410.975 55.9316 410.337 54.0391 410.255C53.9268 410.251 53.8151 410.274 53.713 410.321C53.6109 410.368 53.5213 410.438 53.4513 410.526C53.3813 410.614 53.3329 410.717 53.31 410.827C53.287 410.938 53.2902 411.051 53.3191 411.16C53.4014 411.462 53.5454 411.736 53.7511 411.983C54.0117 412.285 54.2105 412.614 54.3477 412.97Z" fill="#86C4C1"/>
<path d="M538.04 347.715C553.983 355.56 568.106 359.482 569.586 356.475C571.066 353.468 559.341 344.67 543.398 336.825C527.455 328.981 513.332 325.059 511.852 328.066C510.372 331.073 522.097 339.87 538.04 347.715Z" fill="white"/>
<path d="M176.404 356.924C174.402 360.659 173.03 363.821 173.341 363.988C173.651 364.154 175.526 361.261 177.528 357.527C179.531 353.792 180.903 350.63 180.592 350.463C180.282 350.297 178.407 353.189 176.404 356.924Z" fill="#505E81"/>
<path d="M690.699 375.554C685.912 373.867 684.397 370.089 686.152 364.219L691.048 361.71C691.638 361.408 691.864 360.935 691.727 360.29C689.896 352.165 679.508 356.917 675.394 360.599C674.256 360.818 673.357 360.311 672.699 359.077L682.491 353.523C685.974 352.782 689.334 353.399 692.57 355.374C692.955 355.605 693.283 355.919 693.528 356.293C693.774 356.667 693.932 357.091 693.99 357.534C694.346 360.4 695.663 362.8 697.939 364.734C698.316 365.052 698.621 365.443 698.837 365.882C699.053 366.321 699.175 366.799 699.194 367.284C699.4 372.509 696.568 375.266 690.699 375.554ZM695.851 367.446C695.614 366.657 695.018 366.011 694.193 365.65C693.368 365.29 692.382 365.244 691.452 365.523C690.521 365.802 689.723 366.383 689.233 367.138C688.743 367.894 688.6 368.761 688.837 369.55C689.074 370.339 689.67 370.985 690.495 371.346C691.321 371.706 692.307 371.752 693.237 371.473C694.167 371.194 694.965 370.613 695.455 369.858C695.945 369.103 696.088 368.235 695.851 367.446Z" fill="#924848"/>
<path d="M686.152 364.218C682.587 363.505 679.001 362.765 675.394 361.997C674.955 361.901 674.729 361.736 674.715 361.503C674.688 361.243 674.914 360.941 675.394 360.598C679.508 356.916 689.896 352.164 691.727 360.289C691.864 360.934 691.638 361.407 691.048 361.709L686.152 364.218Z" fill="white"/>
<path d="M693.236 371.472C695.173 370.891 696.343 369.088 695.85 367.445C695.357 365.802 693.387 364.941 691.45 365.522C689.514 366.103 688.343 367.906 688.836 369.549C689.329 371.193 691.299 372.053 693.236 371.472Z" fill="#F83D52"/>
<path d="M171.206 365.842L170.562 365.567C170.291 365.451 169.976 365.578 169.86 365.849L161.176 386.209C161.061 386.48 161.187 386.795 161.459 386.911L162.102 387.185C162.374 387.301 162.688 387.174 162.804 386.903L171.488 366.543C171.604 366.272 171.477 365.958 171.206 365.842Z" fill="#404D68"/>
<path d="M685.391 377.796L663.956 455.841C663.906 456.034 663.805 456.209 663.665 456.35C663.525 456.492 663.35 456.593 663.159 456.646C662.967 456.698 662.764 456.698 662.572 456.647C662.38 456.596 662.205 456.496 662.064 456.355C661.789 456.095 661.563 455.793 661.385 455.45C660.736 454.221 660.589 452.75 660.973 451.336C666.884 429.353 673.09 406.671 679.59 383.289C680.399 380.381 681.969 378.269 684.3 376.953C685.343 376.363 685.706 376.644 685.391 377.796Z" fill="#EBEFF3"/>
<path d="M108.466 379.915L154.194 389.295C154.446 389.346 154.684 389.45 154.894 389.6C155.104 389.749 155.28 389.941 155.411 390.164C155.543 390.387 155.627 390.635 155.658 390.892C155.69 391.15 155.667 391.412 155.593 391.661L148.393 415.029L129.098 481.02C129.042 481.219 129.031 481.428 129.064 481.631C129.097 481.835 129.175 482.028 129.291 482.197C129.407 482.366 129.559 482.507 129.735 482.609C129.912 482.712 130.108 482.773 130.312 482.789C138.883 483.488 147.461 483.948 156.045 484.167C157.225 484.194 158.034 483.968 158.473 483.488C158.816 484.215 159.378 484.585 160.16 484.599C176.287 485.065 191.797 485.813 206.69 486.841C215.508 487.445 222.804 487.403 228.577 486.718C238.616 485.545 248.51 483.241 258.816 483.55C267.662 483.797 276.007 486.06 283.851 490.338C284.031 490.439 284.237 490.484 284.443 490.467C284.649 490.451 284.846 490.375 285.008 490.247C285.171 490.12 285.292 489.947 285.357 489.751C285.422 489.555 285.427 489.344 285.373 489.145C282.37 477.523 278.626 460.243 281.259 448.127C284.495 433.303 287.67 419.239 290.783 405.937C290.912 405.373 291.226 404.869 291.677 404.503C292.128 404.138 292.69 403.933 293.272 403.921L303.681 403.654C303.749 414.323 303.811 424.965 303.866 435.579C303.893 441.38 306.616 445.083 312.033 446.687C311.073 447.058 310.764 448.264 311.107 450.308C311.326 451.652 311.326 452.824 311.107 453.825C309.516 460.943 308.062 468.293 306.746 475.877C306.417 477.728 307.144 478.976 308.926 479.621C318.704 483.132 328.434 487.76 338.116 493.506L250.382 494.164C250.208 494.166 250.037 494.205 249.878 494.276C249.72 494.348 249.578 494.452 249.462 494.582C249.346 494.712 249.258 494.864 249.204 495.029C249.15 495.195 249.131 495.369 249.148 495.543L249.704 501.734C249.813 502.886 249.292 503.462 248.14 503.462L86.1875 503.606C94.1141 496.132 99.8053 487.829 103.261 478.695C104.962 476.899 105.531 475.562 104.968 474.684C106.82 472.956 107.094 470.824 105.791 468.286C106.395 466.367 106.882 465.509 107.252 465.715C108.774 461.066 108.877 456.404 107.56 451.727C107.421 451.247 107.137 450.821 106.747 450.508C106.357 450.195 105.879 450.01 105.38 449.979L92.153 449.115L94.2923 439.878C103.316 431.156 107.663 420.727 107.334 408.591C107.32 407.942 107.064 407.319 106.614 406.842C105.037 405.196 103.947 404.963 103.343 406.143C103.083 397.311 104.79 388.568 108.466 379.915Z" fill="#FCAC92"/>
<path d="M591.262 503.607C590.247 503.456 589.575 503.477 589.246 503.669L587.785 500.069C587.552 499.465 587.436 498.841 587.436 498.197C587.724 472.003 587.751 444.075 587.518 414.412C587.449 405.183 587.641 395.974 588.094 386.786C588.135 386.155 588.464 385.915 589.081 386.066L589.637 386.19C590.068 386.296 590.454 386.537 590.736 386.879C591.018 387.22 591.181 387.642 591.2 388.082C591.433 392.457 591.536 396.461 591.509 400.095C591.275 432.666 591.495 460.607 592.167 483.921C592.331 489.379 592.03 495.941 591.262 503.607Z" fill="#DFE4ED"/>
<path d="M401.413 503.522L458.332 503.563L589.243 503.666C589.572 503.474 590.244 503.454 591.259 503.604L608.395 503.79L687.653 503.707L721.986 503.584C724.18 504.626 724.797 507.828 723.837 513.19C723.727 513.835 723.336 514.157 722.664 514.157L10.9408 514.219C10.8003 514.219 10.6612 514.191 10.5314 514.137C10.4016 514.084 10.2837 514.005 10.1844 513.906C10.0851 513.806 10.0063 513.688 9.95252 513.559C9.89877 513.429 9.87109 513.29 9.87109 513.149L9.89167 504.633C9.90538 503.988 10.2345 503.666 10.8791 503.666L56.9573 503.769L86.1882 503.604L248.141 503.46C249.293 503.46 249.814 502.884 249.704 501.732L249.149 495.541C249.132 495.368 249.151 495.193 249.205 495.027C249.259 494.862 249.347 494.71 249.463 494.58C249.579 494.45 249.721 494.346 249.879 494.275C250.037 494.203 250.209 494.164 250.383 494.162L338.117 493.504C342.656 493.833 348.135 494.039 354.553 494.121C357.46 494.149 359.503 493.648 360.683 492.62C375.754 479.605 383.708 464.239 384.545 446.521L384.586 397.275C384.586 396.808 384.812 396.575 385.265 396.575L392.711 396.534C393.164 396.534 393.383 396.76 393.37 397.213C392.944 411.558 392.979 426.478 393.472 441.975C393.651 447.926 393.212 453.282 392.156 458.04C389.749 468.819 381.356 480.689 373.704 488.588C366.559 495.993 358.057 500.827 348.196 503.09C348.18 503.093 348.165 503.102 348.156 503.115C348.146 503.129 348.142 503.146 348.145 503.162C348.148 503.179 348.157 503.193 348.17 503.203C348.184 503.212 348.201 503.216 348.217 503.214L401.413 503.522Z" fill="#1E597A"/>
<path d="M610.781 398.367C613.846 412.335 613.106 428.524 611.522 442.615C611.48 442.992 611.325 443.347 611.079 443.635C610.832 443.923 610.505 444.13 610.139 444.23C609.773 444.33 609.386 444.317 609.028 444.194C608.669 444.072 608.355 443.844 608.128 443.541C606.784 441.771 606.03 439.804 605.865 437.637C604.96 425.253 605.076 412.986 606.215 400.836C606.366 399.272 607.086 398.107 608.375 397.339C608.591 397.206 608.836 397.128 609.09 397.11C609.343 397.091 609.598 397.134 609.833 397.235C610.068 397.335 610.276 397.49 610.441 397.687C610.606 397.884 610.723 398.117 610.781 398.367Z" fill="white"/>
<path d="M566.742 421.002C566.696 434.124 568.353 444.767 570.444 444.774C572.534 444.782 574.266 434.15 574.312 421.028C574.357 407.907 572.7 397.264 570.61 397.256C568.519 397.249 566.787 407.88 566.742 421.002Z" fill="white"/>
<path d="M53.7512 411.983C53.5455 411.736 53.4015 411.462 53.3192 411.16C53.2903 411.052 53.2871 410.938 53.3101 410.828C53.333 410.718 53.3815 410.615 53.4515 410.527C53.5214 410.439 53.6111 410.368 53.7131 410.321C53.8152 410.274 53.9269 410.251 54.0392 410.255C55.9317 410.338 57.7145 410.975 59.3876 412.168C59.5912 412.312 59.756 412.504 59.8671 412.726C59.9782 412.949 60.032 413.196 60.0239 413.445C60.0157 413.694 59.9458 413.937 59.8203 414.152C59.6949 414.368 59.5179 414.548 59.3053 414.678C56.9877 416.077 55.3352 415.508 54.3478 412.971C54.2106 412.614 54.0118 412.285 53.7512 411.983Z" fill="white"/>
<path d="M148.397 415.028C150.92 426.04 152.771 436.669 153.951 446.913C155.349 459.118 156.858 471.31 158.476 483.487C158.037 483.967 157.228 484.194 156.049 484.166C147.464 483.947 138.886 483.487 130.315 482.788C130.112 482.772 129.915 482.711 129.739 482.609C129.562 482.506 129.411 482.366 129.294 482.196C129.178 482.027 129.101 481.834 129.067 481.63C129.034 481.427 129.046 481.218 129.101 481.019L148.397 415.028Z" fill="white"/>
<path d="M94.2956 439.878L92.1562 449.114C88.5769 450.211 84.9565 450.465 81.2949 449.875L94.2956 439.878Z" fill="white"/>
<path d="M384.547 446.522C383.71 464.24 375.756 479.606 360.685 492.621C359.506 493.649 357.462 494.15 354.555 494.122C348.137 494.04 342.658 493.834 338.119 493.505C328.437 487.759 318.707 483.131 308.929 479.62C307.147 478.975 306.42 477.727 306.749 475.876C308.065 468.292 309.519 460.942 311.11 453.824C311.329 452.823 311.329 451.651 311.11 450.307C310.767 448.263 311.076 447.057 312.035 446.686C313.832 446.097 314.463 446.056 313.928 446.563L384.547 446.522Z" fill="white"/>
<path d="M457.961 446.933L458.496 447.406C458.989 447.859 458.976 448.298 458.455 448.723C457.508 449.518 457.015 450.334 456.973 451.171C456.315 466.297 456.768 483.761 458.331 503.564L401.412 503.523C410.395 498.778 416.84 493.217 420.748 486.84C427.372 476.047 430.677 463.3 430.664 448.599C430.664 447.077 431.418 446.336 432.926 446.378L457.961 446.933Z" fill="white"/>
<path d="M58.047 450.102L81.2918 449.875C84.9534 450.465 88.5738 450.211 92.1531 449.114L105.38 449.978C105.879 450.009 106.357 450.194 106.747 450.507C107.138 450.82 107.422 451.246 107.561 451.727C108.877 456.403 108.774 461.066 107.252 465.715C103.323 461.292 98.1598 459.626 94.6216 464.645C93.6479 466.03 92.4137 466.915 90.9189 467.299C90.5812 467.386 90.2246 467.374 89.8898 467.265C89.555 467.155 89.2558 466.953 89.0264 466.682C86.2905 463.39 78.8028 458.104 75.5526 464.275C74.9904 465.331 74.3184 466.311 73.5367 467.216C73.3345 467.457 73.0841 467.652 72.8013 467.79C72.5185 467.928 72.2095 468.005 71.8941 468.017C71.5786 468.028 71.2637 467.974 70.9692 467.858C70.6747 467.741 70.4072 467.565 70.1837 467.34L66.049 463.123C65.5879 462.658 65.0261 462.305 64.407 462.091C63.788 461.877 63.1281 461.808 62.4782 461.89C61.8284 461.971 61.2059 462.201 60.6587 462.561C60.1116 462.921 59.6544 463.402 59.3224 463.966L57.1213 467.69C56.9604 467.969 56.7328 468.204 56.4589 468.374C56.185 468.544 55.8732 468.644 55.5514 468.664C55.2296 468.685 54.9078 468.625 54.6146 468.491C54.3215 468.357 54.0661 468.152 53.8712 467.895L50.8061 463.843C50.3619 463.257 49.7816 462.788 49.1151 462.476C48.4486 462.165 47.7158 462.02 46.9795 462.054C46.2432 462.089 45.5254 462.301 44.8877 462.674C44.2501 463.046 43.7116 463.567 43.3184 464.193L41.3642 467.299C41.1608 467.623 40.8906 467.9 40.572 468.111C40.2534 468.322 39.8938 468.463 39.5175 468.523C39.1411 468.584 38.7568 468.563 38.3905 468.461C38.0242 468.36 37.6844 468.181 37.3941 467.936C32.3748 463.678 33.7531 457.98 35.3782 452.447C35.563 451.785 35.9867 451.208 36.5713 450.822C38.2855 449.697 40.226 449.265 42.3927 449.526C47.3846 450.102 52.6026 450.294 58.047 450.102Z" fill="#F83D52"/>
<path d="M105.792 468.286C107.095 470.823 106.82 472.956 104.969 474.684C102.158 475.081 99.2984 475.314 96.391 475.383C77.2603 475.836 58.1365 475.698 39.0195 474.972C37.6893 474.917 36.7705 474.574 36.263 473.943C35.6048 473.12 35.4197 472.181 35.7076 471.125C35.7419 470.99 35.806 470.865 35.8951 470.759C35.9843 470.653 36.0962 470.568 36.2226 470.51C36.349 470.453 36.4867 470.425 36.6254 470.428C36.7642 470.431 36.9005 470.465 37.0242 470.528C42.0023 473.141 43.4011 467.278 45.7667 464.83C45.9645 464.623 46.2041 464.461 46.4696 464.354C46.7351 464.246 47.0204 464.197 47.3065 464.209C47.5926 464.22 47.8729 464.293 48.1288 464.421C48.3847 464.55 48.6103 464.731 48.7906 464.954L51.9585 468.862C52.3726 469.379 52.8989 469.795 53.4976 470.078C54.0963 470.361 54.7516 470.504 55.4138 470.496C56.076 470.488 56.7277 470.329 57.3194 470.032C57.9112 469.735 58.4274 469.306 58.829 468.78L61.9969 464.645C62.6826 463.754 63.4232 463.699 64.2186 464.481L68.8058 468.924C69.278 469.382 69.8447 469.731 70.4666 469.947C71.0884 470.163 71.7504 470.24 72.4064 470.173C73.0624 470.107 73.6966 469.898 74.2649 469.561C74.8332 469.225 75.3219 468.768 75.697 468.224L77.8363 465.118C78.1738 464.631 78.6165 464.227 79.1314 463.934C79.6463 463.642 80.2201 463.469 80.8096 463.43C81.3992 463.39 81.9894 463.484 82.5361 463.706C83.0828 463.927 83.5717 464.269 83.9664 464.707L87.4222 468.554C88.0805 469.294 88.9033 469.664 89.8907 469.664C92.798 469.678 95.0265 468.279 96.5762 465.468C96.9189 464.834 97.5012 464.355 98.2012 464.131C101.314 463.143 103.844 464.529 105.792 468.286Z" fill="#F83D52"/>
<path d="M664.636 472.627L664.389 478.613C662.167 479.244 660.412 479.244 659.123 478.613C658.761 478.434 658.448 478.17 658.212 477.842C657.976 477.515 657.824 477.134 657.769 476.734C657.714 476.334 657.758 475.927 657.897 475.548C658.037 475.169 658.267 474.83 658.567 474.56C660.227 473.079 662.25 472.435 664.636 472.627Z" fill="#924848"/>
<path d="M103.264 478.695C99.8083 487.829 94.1171 496.133 86.1905 503.607L56.9596 503.771C54.6009 501.111 52.249 498.519 49.9039 495.995C45.5429 491.305 41.9088 485.936 39.0015 479.889C38.5078 478.846 38.8369 478.325 39.9889 478.325L103.264 478.695Z" fill="#F83D52"/>
<path d="M624.565 491.017C623.632 492.045 622.357 492.175 620.739 491.407C620.506 490.228 620.554 489.282 620.883 488.569C621.198 487.883 621.726 487.581 622.467 487.664C623.92 487.814 624.62 488.932 624.565 491.017Z" fill="#2C3749"/>
<path d="M340.913 0H350.727C380.649 2.62746 403.097 25.4217 406.772 55.0391L393.49 54.6402C384.269 -0.0825347 307.839 -0.880405 297.489 53.9799C296.636 58.5103 296.925 64.5906 298.356 72.2208L286.299 78.5625C283.106 66.6495 283.239 54.7915 286.698 42.9886C286.799 42.6401 286.712 42.3099 286.437 41.9981C286.85 41.7092 287.276 41.2965 287.455 40.7876C295.796 17.8007 316.4 1.76081 340.913 0Z" fill="#386F95"/>
<path d="M393.491 54.6405C396.313 83.8589 376.176 109.102 346.254 109.625C322.98 110.024 304.096 94.6164 298.357 72.2211C296.925 64.5909 296.636 58.5106 297.49 53.9802C307.84 -0.880152 384.27 -0.0822817 393.491 54.6405ZM348.388 18.874C348.388 18.1041 348.082 17.3659 347.537 16.8215C346.993 16.2772 346.254 15.9714 345.484 15.9714C345.102 15.9714 344.725 16.0464 344.372 16.1923C344.02 16.3382 343.7 16.552 343.43 16.8215C343.16 17.091 342.946 17.411 342.801 17.7632C342.655 18.1153 342.579 18.4928 342.579 18.874C342.579 19.2551 342.655 19.6326 342.801 19.9847C342.946 20.3369 343.16 20.6569 343.43 20.9264C343.7 21.1959 344.02 21.4097 344.372 21.5556C344.725 21.7015 345.102 21.7765 345.484 21.7765C346.254 21.7765 346.993 21.4707 347.537 20.9264C348.082 20.3821 348.388 19.6438 348.388 18.874ZM341.286 58.6436C339.928 61.5782 340.524 63.9352 343.075 65.7143C343.497 66.017 343.708 66.4251 343.708 66.9386L343.625 88.935C343.625 89.2245 343.683 89.5111 343.795 89.7777C343.908 90.0443 344.072 90.2856 344.279 90.487C344.485 90.6885 344.73 90.8461 344.999 90.9505C345.267 91.0549 345.554 91.104 345.841 91.0948L346.337 91.081C346.759 91.0668 347.16 90.89 347.455 90.5875C347.75 90.285 347.916 89.8802 347.92 89.4578C348.002 81.8643 348.067 74.4404 348.112 67.1862C348.126 64.9715 350.136 64.1599 350.439 62.1102C350.962 58.4647 348.539 57.5155 345.952 56.0436C345.575 55.8235 345.277 55.53 345.057 55.1632L327.522 24.9955C327.417 24.8142 327.276 24.6565 327.107 24.5323C326.938 24.4081 326.745 24.3201 326.54 24.2736C326.335 24.2272 326.122 24.2233 325.914 24.2623C325.707 24.3013 325.509 24.3823 325.334 24.5003L325.031 24.7066C323.737 25.5779 323.48 26.683 324.26 28.0219L341.231 57.4055C341.337 57.5928 341.398 57.8027 341.407 58.0179C341.417 58.2331 341.375 58.4475 341.286 58.6436ZM305.899 61.326C305.899 60.5672 305.598 59.8394 305.061 59.3028C304.524 58.7662 303.796 58.4647 303.037 58.4647C302.277 58.4647 301.549 58.7662 301.012 59.3028C300.475 59.8394 300.174 60.5672 300.174 61.326C300.174 62.0849 300.475 62.8127 301.012 63.3493C301.549 63.8859 302.277 64.1874 303.037 64.1874C303.796 64.1874 304.524 63.8859 305.061 63.3493C305.598 62.8127 305.899 62.0849 305.899 61.326ZM390.849 61.3398C390.849 60.5773 390.545 59.846 390.006 59.3068C389.467 58.7676 388.735 58.4647 387.972 58.4647C387.209 58.4647 386.477 58.7676 385.938 59.3068C385.398 59.846 385.095 60.5773 385.095 61.3398C385.095 62.1023 385.398 62.8336 385.938 63.3728C386.477 63.912 387.209 64.2149 387.972 64.2149C388.735 64.2149 389.467 63.912 390.006 63.3728C390.545 62.8336 390.849 62.1023 390.849 61.3398ZM348.388 103.806C348.388 103.039 348.083 102.305 347.541 101.763C346.999 101.221 346.264 100.917 345.497 100.917C344.731 100.917 343.996 101.221 343.454 101.763C342.912 102.305 342.607 103.039 342.607 103.806C342.607 104.572 342.912 105.307 343.454 105.848C343.996 106.39 344.731 106.694 345.497 106.694C346.264 106.694 346.999 106.39 347.541 105.848C348.083 105.307 348.388 104.572 348.388 103.806Z" fill="white"/>
<path d="M345.482 21.7759C347.086 21.7759 348.386 20.4763 348.386 18.8733C348.386 17.2702 347.086 15.9707 345.482 15.9707C343.878 15.9707 342.578 17.2702 342.578 18.8733C342.578 20.4763 343.878 21.7759 345.482 21.7759Z" fill="#072F3F"/>
<path d="M341.231 57.4051L324.26 28.0216C323.48 26.6826 323.737 25.5776 325.031 24.7063L325.334 24.5C325.509 24.382 325.707 24.301 325.914 24.262C326.122 24.223 326.335 24.2268 326.54 24.2733C326.745 24.3197 326.938 24.4078 327.107 24.532C327.276 24.6562 327.418 24.8138 327.522 24.9952L345.057 55.1629C345.277 55.5297 345.576 55.8232 345.952 56.0433C348.539 57.5152 350.962 58.4644 350.439 62.1098C350.136 64.1595 348.126 64.9711 348.113 67.1859C348.067 74.4401 348.003 81.8639 347.92 89.4574C347.917 89.8798 347.75 90.2846 347.455 90.5871C347.16 90.8897 346.76 91.0665 346.337 91.0807L345.842 91.0944C345.554 91.1037 345.267 91.0546 344.999 90.9502C344.73 90.8458 344.486 90.6882 344.279 90.4867C344.072 90.2852 343.908 90.044 343.796 89.7774C343.683 89.5108 343.626 89.2242 343.626 88.9347L343.708 66.9383C343.708 66.4247 343.497 66.0166 343.075 65.714C340.524 63.9348 339.928 61.5779 341.286 58.6432C341.375 58.4472 341.417 58.2328 341.407 58.0176C341.398 57.8023 341.337 57.5925 341.231 57.4051Z" fill="#072F3F"/>
<path d="M406.772 55.0396L407.199 60.776C406.868 76.3756 402.069 89.6918 392.802 100.724C361.297 138.224 300.104 126.077 286.299 78.5629L298.356 72.2212C304.095 94.6166 322.979 110.024 346.253 109.625C376.175 109.102 396.312 83.8591 393.49 54.6406L406.772 55.0396Z" fill="#0B3E54"/>
<path d="M303.037 64.1875C304.618 64.1875 305.899 62.9064 305.899 61.3262C305.899 59.7459 304.618 58.4648 303.037 58.4648C301.456 58.4648 300.174 59.7459 300.174 61.3262C300.174 62.9064 301.456 64.1875 303.037 64.1875Z" fill="#072F3F"/>
<path d="M387.97 64.215C389.559 64.215 390.847 62.9278 390.847 61.3399C390.847 59.7521 389.559 58.4648 387.97 58.4648C386.382 58.4648 385.094 59.7521 385.094 61.3399C385.094 62.9278 386.382 64.215 387.97 64.215Z" fill="#072F3F"/>
<path d="M345.496 106.695C347.092 106.695 348.386 105.401 348.386 103.806C348.386 102.21 347.092 100.917 345.496 100.917C343.9 100.917 342.605 102.21 342.605 103.806C342.605 105.401 343.9 106.695 345.496 106.695Z" fill="#072F3F"/>
</svg>
