<svg width="1035" height="85" viewBox="0 0 1035 85" fill="none" xmlns="http://www.w3.org/2000/svg">
<g clip-path="url(#clip0_535_151)">
<rect width="1035" height="85" fill="url(#paint0_linear_535_151)"/>
<path d="M786.089 51.31H789.694V54.985H786.089V51.31ZM792.739 45.395V41.23C792.739 39.27 792.249 37.765 791.304 36.785C790.324 35.805 788.959 35.315 787.209 35.315C785.809 35.315 784.689 35.735 783.814 36.54C782.939 37.345 782.379 38.36 782.169 39.55H778.284C778.354 38.395 778.634 37.345 779.124 36.365C779.614 35.42 780.279 34.615 781.084 33.915C781.889 33.25 782.834 32.725 783.884 32.375C784.934 32.025 786.019 31.815 787.209 31.815C788.749 31.815 790.149 32.06 791.339 32.515C792.529 32.97 793.544 33.6 794.384 34.44C795.224 35.28 795.854 36.33 796.274 37.52C796.694 38.71 796.904 40.075 796.904 41.545V42.175C796.904 42.805 796.974 43.33 797.184 43.75C797.394 44.17 797.639 44.52 797.989 44.765C798.304 45.01 798.689 45.185 799.144 45.255C799.599 45.36 800.089 45.395 800.649 45.395H802.084C802.259 45.395 802.434 45.43 802.574 45.465C802.714 45.535 802.819 45.675 802.819 45.885V48.615C802.819 48.895 802.574 49 802.084 49H800.614C800.264 49 799.914 48.965 799.564 48.86C799.214 48.755 798.864 48.615 798.514 48.405C798.164 48.23 797.884 48.02 797.639 47.74C797.359 47.46 797.184 47.145 797.044 46.795H796.904C796.834 47.075 796.764 47.39 796.624 47.81C796.484 48.23 796.239 48.615 795.924 49H784.584C783.884 49 783.254 49.105 782.694 49.315C782.134 49.525 781.644 49.77 781.224 50.12C780.804 50.47 780.454 50.89 780.244 51.345C779.999 51.835 779.894 52.325 779.894 52.85C779.894 53.69 779.999 54.425 780.209 55.09C780.419 55.79 780.804 56.525 781.364 57.33H777.549C777.059 56.77 776.674 56.105 776.359 55.335C776.044 54.6 775.904 53.725 775.904 52.745C775.904 51.8 776.079 50.89 776.429 49.98C776.779 49.105 777.339 48.335 778.039 47.635C778.739 46.97 779.579 46.445 780.629 46.025C781.679 45.605 782.869 45.395 784.199 45.395H792.739ZM802.1 49C801.61 49 801.365 48.895 801.365 48.615V45.885C801.365 45.675 801.435 45.535 801.575 45.465C801.715 45.43 801.89 45.395 802.1 45.395H806.335V45.255C806.125 45.15 805.88 44.94 805.6 44.625C805.32 44.31 805.075 43.925 804.865 43.47C804.655 43.05 804.445 42.56 804.305 42.035C804.13 41.51 804.06 40.985 804.06 40.425C804.06 39.025 804.27 37.8 804.69 36.75C805.11 35.7 805.74 34.79 806.51 34.055C807.28 33.32 808.225 32.76 809.275 32.375C810.325 32.025 811.515 31.815 812.775 31.815C814.035 31.815 815.19 31.99 816.24 32.34C817.29 32.69 818.235 33.25 819.005 33.95C819.775 34.685 820.405 35.595 820.825 36.645C821.245 37.73 821.49 38.99 821.49 40.425C821.49 41.895 821.28 43.155 820.86 44.205C820.44 45.29 819.845 46.2 819.075 46.9C818.305 47.6 817.395 48.125 816.345 48.475C815.26 48.825 814.07 49 812.775 49H802.1ZM812.775 35.28C811.235 35.28 810.115 35.77 809.345 36.715C808.575 37.66 808.19 38.885 808.19 40.425C808.19 41.965 808.575 43.225 809.345 44.135C810.115 45.08 811.27 45.535 812.775 45.535C814.245 45.535 815.4 45.08 816.17 44.135C816.94 43.225 817.36 41.965 817.36 40.425C817.36 38.885 816.975 37.66 816.205 36.715C815.435 35.77 814.28 35.28 812.775 35.28ZM832.503 49.14C832.503 51.8 832.013 53.83 831.103 55.23C830.193 56.63 828.618 57.33 826.448 57.33C825.958 57.33 825.503 57.33 825.153 57.26C824.768 57.19 824.453 57.12 824.208 57.015C823.893 56.945 823.613 56.84 823.403 56.7V53.34C824.103 53.76 824.978 53.935 826.028 53.935C826.413 53.935 826.763 53.9 827.078 53.76C827.358 53.655 827.638 53.445 827.848 53.095C828.058 52.745 828.198 52.255 828.338 51.625C828.443 50.995 828.513 50.19 828.513 49.14V34.09H832.503V42.385C832.503 43.015 832.573 43.505 832.783 43.89C832.993 44.275 833.238 44.59 833.588 44.8C833.938 45.045 834.323 45.22 834.778 45.29C835.233 45.36 835.723 45.395 836.248 45.395H837.473C837.648 45.395 837.823 45.43 837.963 45.465C838.103 45.535 838.208 45.675 838.208 45.885V48.615C838.208 48.895 837.963 49 837.473 49H836.213C835.863 49 835.513 48.965 835.163 48.86C834.813 48.755 834.463 48.615 834.113 48.405C833.763 48.23 833.483 48.02 833.238 47.74C832.958 47.46 832.783 47.145 832.643 46.795H832.503V49.14ZM845.036 52.325H849.026V56.42H845.036V52.325ZM852.596 49C852.071 49 851.581 48.93 851.126 48.72C850.636 48.51 850.216 48.265 849.831 47.95C849.411 47.635 849.061 47.285 848.781 46.9C848.501 46.515 848.291 46.13 848.151 45.745C847.521 46.865 846.681 47.705 845.631 48.23C844.581 48.755 843.531 49 842.516 49H837.476C836.986 49 836.741 48.895 836.741 48.615V45.885C836.741 45.675 836.811 45.535 836.951 45.465C837.091 45.43 837.266 45.395 837.476 45.395H842.551C842.761 45.395 843.041 45.36 843.321 45.29C843.601 45.22 843.846 45.045 844.091 44.835C844.336 44.625 844.546 44.345 844.721 43.995C844.861 43.645 844.966 43.225 844.966 42.665V34.09H848.956V41.44C848.956 42.07 849.061 42.595 849.306 43.085C849.516 43.575 849.831 43.995 850.181 44.345C850.531 44.695 850.951 44.94 851.371 45.115C851.791 45.325 852.176 45.395 852.596 45.395H854.101C854.276 45.395 854.451 45.43 854.591 45.465C854.731 45.535 854.836 45.675 854.836 45.885V48.615C854.836 48.895 854.591 49 854.101 49H852.596ZM854.087 49C853.597 49 853.352 48.895 853.352 48.615V45.885C853.352 45.675 853.422 45.535 853.562 45.465C853.702 45.43 853.877 45.395 854.087 45.395H858.322V45.255C858.112 45.15 857.867 44.94 857.587 44.625C857.307 44.31 857.062 43.925 856.852 43.47C856.642 43.05 856.432 42.56 856.292 42.035C856.117 41.51 856.047 40.985 856.047 40.425C856.047 39.025 856.257 37.8 856.677 36.75C857.097 35.7 857.727 34.79 858.497 34.055C859.267 33.32 860.212 32.76 861.262 32.375C862.312 32.025 863.502 31.815 864.762 31.815C866.022 31.815 867.177 31.99 868.227 32.34C869.277 32.69 870.222 33.25 870.992 33.95C871.762 34.685 872.392 35.595 872.812 36.645C873.232 37.73 873.477 38.99 873.477 40.425C873.477 41.895 873.267 43.155 872.847 44.205C872.427 45.29 871.832 46.2 871.062 46.9C870.292 47.6 869.382 48.125 868.332 48.475C867.247 48.825 866.057 49 864.762 49H854.087ZM864.762 35.28C863.222 35.28 862.102 35.77 861.332 36.715C860.562 37.66 860.177 38.885 860.177 40.425C860.177 41.965 860.562 43.225 861.332 44.135C862.102 45.08 863.257 45.535 864.762 45.535C866.232 45.535 867.387 45.08 868.157 44.135C868.927 43.225 869.347 41.965 869.347 40.425C869.347 38.885 868.962 37.66 868.192 36.715C867.422 35.77 866.267 35.28 864.762 35.28Z" fill="#F9F9F9"/>
<path d="M932.805 45.395C932.98 45.395 933.155 45.43 933.295 45.465C933.435 45.535 933.54 45.675 933.54 45.885V48.615C933.54 48.895 933.295 49 932.805 49H931.615C931.125 49 930.635 48.895 930.18 48.685C929.725 48.475 929.305 48.195 928.955 47.81C928.57 47.46 928.255 47.005 927.975 46.515C927.695 46.025 927.485 45.5 927.38 44.94C926.68 46.34 925.665 47.355 924.335 48.02C923.005 48.685 921.43 49 919.61 49H914.99C914.22 49 913.625 49.105 913.135 49.28C912.645 49.49 912.295 49.735 912.015 50.05C911.735 50.4 911.525 50.75 911.42 51.17C911.315 51.59 911.28 52.045 911.28 52.465V57.365H907.29V52.5C907.29 50.61 907.745 49.07 908.69 47.845C909.635 46.655 911.14 45.885 913.17 45.535C912.96 45.325 912.715 45.045 912.435 44.66C912.155 44.31 911.91 43.89 911.7 43.4C911.49 42.91 911.28 42.42 911.14 41.895C910.965 41.405 910.895 40.915 910.895 40.425C910.895 39.025 911.105 37.8 911.525 36.75C911.945 35.7 912.575 34.79 913.345 34.055C914.115 33.32 915.06 32.76 916.11 32.375C917.16 32.025 918.35 31.815 919.61 31.815C920.87 31.815 922.025 31.99 923.075 32.34C924.125 32.69 925.07 33.25 925.84 33.95C926.61 34.685 927.24 35.595 927.66 36.645C928.08 37.73 928.325 38.99 928.325 40.425V40.67C928.36 42.21 928.71 43.365 929.375 44.17C930.005 45.01 930.775 45.395 931.65 45.395H932.805ZM919.61 35.28C918.07 35.28 916.95 35.77 916.18 36.715C915.41 37.66 915.025 38.885 915.025 40.425C915.025 41.965 915.41 43.225 916.18 44.135C916.95 45.08 918.105 45.535 919.61 45.535C921.08 45.535 922.235 45.08 923.005 44.135C923.775 43.225 924.195 41.965 924.195 40.425C924.195 38.885 923.81 37.66 923.04 36.715C922.27 35.77 921.115 35.28 919.61 35.28ZM945.997 50.05C944.177 50.05 942.637 49.735 941.307 49.07C939.977 48.44 938.997 47.425 938.297 46.095C937.877 47.075 937.317 47.81 936.547 48.3C935.777 48.79 934.937 49 933.992 49H932.802C932.312 49 932.067 48.895 932.067 48.615V45.885C932.067 45.675 932.137 45.535 932.277 45.465C932.417 45.43 932.592 45.395 932.802 45.395H933.957C934.377 45.395 934.797 45.36 935.217 45.22C935.602 45.08 935.952 44.87 936.267 44.59C936.547 44.31 936.792 43.89 937.002 43.4C937.177 42.91 937.282 42.245 937.282 41.475C937.282 40.04 937.492 38.78 937.912 37.695C938.332 36.645 938.962 35.735 939.732 35C940.502 34.3 941.447 33.74 942.497 33.39C943.547 33.04 944.737 32.865 945.997 32.865C947.257 32.865 948.412 33.04 949.462 33.39C950.512 33.74 951.457 34.3 952.227 35C952.997 35.735 953.627 36.645 954.047 37.695C954.467 38.78 954.712 40.04 954.712 41.475C954.712 42.245 954.782 42.91 954.992 43.4C955.167 43.89 955.412 44.31 955.727 44.59C956.007 44.87 956.357 45.08 956.777 45.22C957.162 45.36 957.582 45.395 958.037 45.395H959.192C959.367 45.395 959.542 45.43 959.682 45.465C959.822 45.535 959.927 45.675 959.927 45.885V48.615C959.927 48.895 959.682 49 959.192 49H958.002C957.022 49 956.182 48.79 955.412 48.3C954.642 47.81 954.082 47.075 953.697 46.095C952.997 47.425 951.982 48.44 950.652 49.07C949.322 49.735 947.747 50.05 945.997 50.05ZM945.997 46.585C947.467 46.585 948.622 46.13 949.392 45.185C950.162 44.275 950.582 43.015 950.582 41.475C950.582 39.935 950.197 38.71 949.427 37.765C948.657 36.82 947.502 36.33 945.997 36.33C944.457 36.33 943.337 36.82 942.567 37.765C941.797 38.71 941.412 39.935 941.412 41.475C941.412 43.015 941.797 44.275 942.567 45.185C943.337 46.13 944.492 46.585 945.997 46.585ZM994.713 45.395C994.888 45.395 995.063 45.43 995.203 45.465C995.343 45.535 995.448 45.675 995.448 45.885V48.615C995.448 48.895 995.203 49 994.713 49H993.593C993.243 49 992.893 48.965 992.543 48.86C992.193 48.755 991.843 48.615 991.493 48.405C991.143 48.23 990.863 48.02 990.583 47.74C990.303 47.46 990.128 47.145 989.988 46.795H989.883C989.813 47.075 989.743 47.39 989.603 47.81C989.463 48.23 989.218 48.615 988.903 49H959.188C958.698 49 958.453 48.895 958.453 48.615V45.885C958.453 45.675 958.523 45.535 958.663 45.465C958.803 45.43 958.978 45.395 959.188 45.395H963.528V35.07H967.518V40.88H967.728C968.498 39.9 969.373 38.885 970.353 37.905C971.298 36.925 972.313 36.05 973.433 35.245C974.518 34.475 975.673 33.81 976.898 33.32C978.123 32.83 979.383 32.585 980.713 32.585C982.043 32.585 983.268 32.795 984.388 33.145C985.508 33.53 986.488 34.09 987.293 34.79C988.098 35.525 988.728 36.435 989.183 37.485C989.638 38.57 989.883 39.795 989.883 41.195V42.175C989.883 43.365 990.163 44.205 990.723 44.695C991.283 45.185 992.018 45.395 992.893 45.395H994.713ZM980.573 36.19C979.628 36.19 978.683 36.4 977.773 36.75C976.828 37.135 975.918 37.625 975.043 38.185C974.168 38.78 973.328 39.445 972.558 40.145C971.753 40.88 971.018 41.58 970.388 42.245C969.758 42.945 969.198 43.575 968.743 44.135C968.288 44.695 967.973 45.115 967.763 45.395H985.928V41.265C985.928 39.515 985.508 38.255 984.703 37.415C983.863 36.61 982.498 36.19 980.573 36.19ZM994.701 49C994.211 49 993.966 48.895 993.966 48.615V45.885C993.966 45.675 994.036 45.535 994.176 45.465C994.316 45.43 994.491 45.395 994.701 45.395H998.936V45.255C998.726 45.15 998.481 44.94 998.201 44.625C997.921 44.31 997.676 43.925 997.466 43.47C997.256 43.05 997.046 42.56 996.906 42.035C996.731 41.51 996.661 40.985 996.661 40.425C996.661 39.025 996.871 37.8 997.291 36.75C997.711 35.7 998.341 34.79 999.111 34.055C999.881 33.32 1000.83 32.76 1001.88 32.375C1002.93 32.025 1004.12 31.815 1005.38 31.815C1006.64 31.815 1007.79 31.99 1008.84 32.34C1009.89 32.69 1010.84 33.25 1011.61 33.95C1012.38 34.685 1013.01 35.595 1013.43 36.645C1013.85 37.73 1014.09 38.99 1014.09 40.425C1014.09 41.895 1013.88 43.155 1013.46 44.205C1013.04 45.29 1012.45 46.2 1011.68 46.9C1010.91 47.6 1010 48.125 1008.95 48.475C1007.86 48.825 1006.67 49 1005.38 49H994.701ZM1005.38 35.28C1003.84 35.28 1002.72 35.77 1001.95 36.715C1001.18 37.66 1000.79 38.885 1000.79 40.425C1000.79 41.965 1001.18 43.225 1001.95 44.135C1002.72 45.08 1003.87 45.535 1005.38 45.535C1006.85 45.535 1008 45.08 1008.77 44.135C1009.54 43.225 1009.96 41.965 1009.96 40.425C1009.96 38.885 1009.58 37.66 1008.81 36.715C1008.04 35.77 1006.88 35.28 1005.38 35.28Z" fill="#F9F9F9"/>
<path d="M514.089 51.31H517.694V54.985H514.089V51.31ZM520.739 45.395V41.23C520.739 39.27 520.249 37.765 519.304 36.785C518.324 35.805 516.959 35.315 515.209 35.315C513.809 35.315 512.689 35.735 511.814 36.54C510.939 37.345 510.379 38.36 510.169 39.55H506.284C506.354 38.395 506.634 37.345 507.124 36.365C507.614 35.42 508.279 34.615 509.084 33.915C509.889 33.25 510.834 32.725 511.884 32.375C512.934 32.025 514.019 31.815 515.209 31.815C516.749 31.815 518.149 32.06 519.339 32.515C520.529 32.97 521.544 33.6 522.384 34.44C523.224 35.28 523.854 36.33 524.274 37.52C524.694 38.71 524.904 40.075 524.904 41.545V42.175C524.904 42.805 524.974 43.33 525.184 43.75C525.394 44.17 525.639 44.52 525.989 44.765C526.304 45.01 526.689 45.185 527.144 45.255C527.599 45.36 528.089 45.395 528.649 45.395H530.084C530.259 45.395 530.434 45.43 530.574 45.465C530.714 45.535 530.819 45.675 530.819 45.885V48.615C530.819 48.895 530.574 49 530.084 49H528.614C528.264 49 527.914 48.965 527.564 48.86C527.214 48.755 526.864 48.615 526.514 48.405C526.164 48.23 525.884 48.02 525.639 47.74C525.359 47.46 525.184 47.145 525.044 46.795H524.904C524.834 47.075 524.764 47.39 524.624 47.81C524.484 48.23 524.239 48.615 523.924 49H512.584C511.884 49 511.254 49.105 510.694 49.315C510.134 49.525 509.644 49.77 509.224 50.12C508.804 50.47 508.454 50.89 508.244 51.345C507.999 51.835 507.894 52.325 507.894 52.85C507.894 53.69 507.999 54.425 508.209 55.09C508.419 55.79 508.804 56.525 509.364 57.33H505.549C505.059 56.77 504.674 56.105 504.359 55.335C504.044 54.6 503.904 53.725 503.904 52.745C503.904 51.8 504.079 50.89 504.429 49.98C504.779 49.105 505.339 48.335 506.039 47.635C506.739 46.97 507.579 46.445 508.629 46.025C509.679 45.605 510.869 45.395 512.199 45.395H520.739ZM530.1 49C529.61 49 529.365 48.895 529.365 48.615V45.885C529.365 45.675 529.435 45.535 529.575 45.465C529.715 45.43 529.89 45.395 530.1 45.395H534.335V45.255C534.125 45.15 533.88 44.94 533.6 44.625C533.32 44.31 533.075 43.925 532.865 43.47C532.655 43.05 532.445 42.56 532.305 42.035C532.13 41.51 532.06 40.985 532.06 40.425C532.06 39.025 532.27 37.8 532.69 36.75C533.11 35.7 533.74 34.79 534.51 34.055C535.28 33.32 536.225 32.76 537.275 32.375C538.325 32.025 539.515 31.815 540.775 31.815C542.035 31.815 543.19 31.99 544.24 32.34C545.29 32.69 546.235 33.25 547.005 33.95C547.775 34.685 548.405 35.595 548.825 36.645C549.245 37.73 549.49 38.99 549.49 40.425C549.49 41.895 549.28 43.155 548.86 44.205C548.44 45.29 547.845 46.2 547.075 46.9C546.305 47.6 545.395 48.125 544.345 48.475C543.26 48.825 542.07 49 540.775 49H530.1ZM540.775 35.28C539.235 35.28 538.115 35.77 537.345 36.715C536.575 37.66 536.19 38.885 536.19 40.425C536.19 41.965 536.575 43.225 537.345 44.135C538.115 45.08 539.27 45.535 540.775 45.535C542.245 45.535 543.4 45.08 544.17 44.135C544.94 43.225 545.36 41.965 545.36 40.425C545.36 38.885 544.975 37.66 544.205 36.715C543.435 35.77 542.28 35.28 540.775 35.28ZM560.503 49.14C560.503 51.8 560.013 53.83 559.103 55.23C558.193 56.63 556.618 57.33 554.448 57.33C553.958 57.33 553.503 57.33 553.153 57.26C552.768 57.19 552.453 57.12 552.208 57.015C551.893 56.945 551.613 56.84 551.403 56.7V53.34C552.103 53.76 552.978 53.935 554.028 53.935C554.413 53.935 554.763 53.9 555.078 53.76C555.358 53.655 555.638 53.445 555.848 53.095C556.058 52.745 556.198 52.255 556.338 51.625C556.443 50.995 556.513 50.19 556.513 49.14V34.09H560.503V42.385C560.503 43.015 560.573 43.505 560.783 43.89C560.993 44.275 561.238 44.59 561.588 44.8C561.938 45.045 562.323 45.22 562.778 45.29C563.233 45.36 563.723 45.395 564.248 45.395H565.473C565.648 45.395 565.823 45.43 565.963 45.465C566.103 45.535 566.208 45.675 566.208 45.885V48.615C566.208 48.895 565.963 49 565.473 49H564.213C563.863 49 563.513 48.965 563.163 48.86C562.813 48.755 562.463 48.615 562.113 48.405C561.763 48.23 561.483 48.02 561.238 47.74C560.958 47.46 560.783 47.145 560.643 46.795H560.503V49.14ZM573.036 52.325H577.026V56.42H573.036V52.325ZM580.596 49C580.071 49 579.581 48.93 579.126 48.72C578.636 48.51 578.216 48.265 577.831 47.95C577.411 47.635 577.061 47.285 576.781 46.9C576.501 46.515 576.291 46.13 576.151 45.745C575.521 46.865 574.681 47.705 573.631 48.23C572.581 48.755 571.531 49 570.516 49H565.476C564.986 49 564.741 48.895 564.741 48.615V45.885C564.741 45.675 564.811 45.535 564.951 45.465C565.091 45.43 565.266 45.395 565.476 45.395H570.551C570.761 45.395 571.041 45.36 571.321 45.29C571.601 45.22 571.846 45.045 572.091 44.835C572.336 44.625 572.546 44.345 572.721 43.995C572.861 43.645 572.966 43.225 572.966 42.665V34.09H576.956V41.44C576.956 42.07 577.061 42.595 577.306 43.085C577.516 43.575 577.831 43.995 578.181 44.345C578.531 44.695 578.951 44.94 579.371 45.115C579.791 45.325 580.176 45.395 580.596 45.395H582.101C582.276 45.395 582.451 45.43 582.591 45.465C582.731 45.535 582.836 45.675 582.836 45.885V48.615C582.836 48.895 582.591 49 582.101 49H580.596ZM582.087 49C581.597 49 581.352 48.895 581.352 48.615V45.885C581.352 45.675 581.422 45.535 581.562 45.465C581.702 45.43 581.877 45.395 582.087 45.395H586.322V45.255C586.112 45.15 585.867 44.94 585.587 44.625C585.307 44.31 585.062 43.925 584.852 43.47C584.642 43.05 584.432 42.56 584.292 42.035C584.117 41.51 584.047 40.985 584.047 40.425C584.047 39.025 584.257 37.8 584.677 36.75C585.097 35.7 585.727 34.79 586.497 34.055C587.267 33.32 588.212 32.76 589.262 32.375C590.312 32.025 591.502 31.815 592.762 31.815C594.022 31.815 595.177 31.99 596.227 32.34C597.277 32.69 598.222 33.25 598.992 33.95C599.762 34.685 600.392 35.595 600.812 36.645C601.232 37.73 601.477 38.99 601.477 40.425C601.477 41.895 601.267 43.155 600.847 44.205C600.427 45.29 599.832 46.2 599.062 46.9C598.292 47.6 597.382 48.125 596.332 48.475C595.247 48.825 594.057 49 592.762 49H582.087ZM592.762 35.28C591.222 35.28 590.102 35.77 589.332 36.715C588.562 37.66 588.177 38.885 588.177 40.425C588.177 41.965 588.562 43.225 589.332 44.135C590.102 45.08 591.257 45.535 592.762 45.535C594.232 45.535 595.387 45.08 596.157 44.135C596.927 43.225 597.347 41.965 597.347 40.425C597.347 38.885 596.962 37.66 596.192 36.715C595.422 35.77 594.267 35.28 592.762 35.28Z" fill="#F9F9F9"/>
<path d="M660.805 45.395C660.98 45.395 661.155 45.43 661.295 45.465C661.435 45.535 661.54 45.675 661.54 45.885V48.615C661.54 48.895 661.295 49 660.805 49H659.615C659.125 49 658.635 48.895 658.18 48.685C657.725 48.475 657.305 48.195 656.955 47.81C656.57 47.46 656.255 47.005 655.975 46.515C655.695 46.025 655.485 45.5 655.38 44.94C654.68 46.34 653.665 47.355 652.335 48.02C651.005 48.685 649.43 49 647.61 49H642.99C642.22 49 641.625 49.105 641.135 49.28C640.645 49.49 640.295 49.735 640.015 50.05C639.735 50.4 639.525 50.75 639.42 51.17C639.315 51.59 639.28 52.045 639.28 52.465V57.365H635.29V52.5C635.29 50.61 635.745 49.07 636.69 47.845C637.635 46.655 639.14 45.885 641.17 45.535C640.96 45.325 640.715 45.045 640.435 44.66C640.155 44.31 639.91 43.89 639.7 43.4C639.49 42.91 639.28 42.42 639.14 41.895C638.965 41.405 638.895 40.915 638.895 40.425C638.895 39.025 639.105 37.8 639.525 36.75C639.945 35.7 640.575 34.79 641.345 34.055C642.115 33.32 643.06 32.76 644.11 32.375C645.16 32.025 646.35 31.815 647.61 31.815C648.87 31.815 650.025 31.99 651.075 32.34C652.125 32.69 653.07 33.25 653.84 33.95C654.61 34.685 655.24 35.595 655.66 36.645C656.08 37.73 656.325 38.99 656.325 40.425V40.67C656.36 42.21 656.71 43.365 657.375 44.17C658.005 45.01 658.775 45.395 659.65 45.395H660.805ZM647.61 35.28C646.07 35.28 644.95 35.77 644.18 36.715C643.41 37.66 643.025 38.885 643.025 40.425C643.025 41.965 643.41 43.225 644.18 44.135C644.95 45.08 646.105 45.535 647.61 45.535C649.08 45.535 650.235 45.08 651.005 44.135C651.775 43.225 652.195 41.965 652.195 40.425C652.195 38.885 651.81 37.66 651.04 36.715C650.27 35.77 649.115 35.28 647.61 35.28ZM673.997 50.05C672.177 50.05 670.637 49.735 669.307 49.07C667.977 48.44 666.997 47.425 666.297 46.095C665.877 47.075 665.317 47.81 664.547 48.3C663.777 48.79 662.937 49 661.992 49H660.802C660.312 49 660.067 48.895 660.067 48.615V45.885C660.067 45.675 660.137 45.535 660.277 45.465C660.417 45.43 660.592 45.395 660.802 45.395H661.957C662.377 45.395 662.797 45.36 663.217 45.22C663.602 45.08 663.952 44.87 664.267 44.59C664.547 44.31 664.792 43.89 665.002 43.4C665.177 42.91 665.282 42.245 665.282 41.475C665.282 40.04 665.492 38.78 665.912 37.695C666.332 36.645 666.962 35.735 667.732 35C668.502 34.3 669.447 33.74 670.497 33.39C671.547 33.04 672.737 32.865 673.997 32.865C675.257 32.865 676.412 33.04 677.462 33.39C678.512 33.74 679.457 34.3 680.227 35C680.997 35.735 681.627 36.645 682.047 37.695C682.467 38.78 682.712 40.04 682.712 41.475C682.712 42.245 682.782 42.91 682.992 43.4C683.167 43.89 683.412 44.31 683.727 44.59C684.007 44.87 684.357 45.08 684.777 45.22C685.162 45.36 685.582 45.395 686.037 45.395H687.192C687.367 45.395 687.542 45.43 687.682 45.465C687.822 45.535 687.927 45.675 687.927 45.885V48.615C687.927 48.895 687.682 49 687.192 49H686.002C685.022 49 684.182 48.79 683.412 48.3C682.642 47.81 682.082 47.075 681.697 46.095C680.997 47.425 679.982 48.44 678.652 49.07C677.322 49.735 675.747 50.05 673.997 50.05ZM673.997 46.585C675.467 46.585 676.622 46.13 677.392 45.185C678.162 44.275 678.582 43.015 678.582 41.475C678.582 39.935 678.197 38.71 677.427 37.765C676.657 36.82 675.502 36.33 673.997 36.33C672.457 36.33 671.337 36.82 670.567 37.765C669.797 38.71 669.412 39.935 669.412 41.475C669.412 43.015 669.797 44.275 670.567 45.185C671.337 46.13 672.492 46.585 673.997 46.585ZM722.713 45.395C722.888 45.395 723.063 45.43 723.203 45.465C723.343 45.535 723.448 45.675 723.448 45.885V48.615C723.448 48.895 723.203 49 722.713 49H721.593C721.243 49 720.893 48.965 720.543 48.86C720.193 48.755 719.843 48.615 719.493 48.405C719.143 48.23 718.863 48.02 718.583 47.74C718.303 47.46 718.128 47.145 717.988 46.795H717.883C717.813 47.075 717.743 47.39 717.603 47.81C717.463 48.23 717.218 48.615 716.903 49H687.188C686.698 49 686.453 48.895 686.453 48.615V45.885C686.453 45.675 686.523 45.535 686.663 45.465C686.803 45.43 686.978 45.395 687.188 45.395H691.528V35.07H695.518V40.88H695.728C696.498 39.9 697.373 38.885 698.353 37.905C699.298 36.925 700.313 36.05 701.433 35.245C702.518 34.475 703.673 33.81 704.898 33.32C706.123 32.83 707.383 32.585 708.713 32.585C710.043 32.585 711.268 32.795 712.388 33.145C713.508 33.53 714.488 34.09 715.293 34.79C716.098 35.525 716.728 36.435 717.183 37.485C717.638 38.57 717.883 39.795 717.883 41.195V42.175C717.883 43.365 718.163 44.205 718.723 44.695C719.283 45.185 720.018 45.395 720.893 45.395H722.713ZM708.573 36.19C707.628 36.19 706.683 36.4 705.773 36.75C704.828 37.135 703.918 37.625 703.043 38.185C702.168 38.78 701.328 39.445 700.558 40.145C699.753 40.88 699.018 41.58 698.388 42.245C697.758 42.945 697.198 43.575 696.743 44.135C696.288 44.695 695.973 45.115 695.763 45.395H713.928V41.265C713.928 39.515 713.508 38.255 712.703 37.415C711.863 36.61 710.498 36.19 708.573 36.19ZM722.701 49C722.211 49 721.966 48.895 721.966 48.615V45.885C721.966 45.675 722.036 45.535 722.176 45.465C722.316 45.43 722.491 45.395 722.701 45.395H726.936V45.255C726.726 45.15 726.481 44.94 726.201 44.625C725.921 44.31 725.676 43.925 725.466 43.47C725.256 43.05 725.046 42.56 724.906 42.035C724.731 41.51 724.661 40.985 724.661 40.425C724.661 39.025 724.871 37.8 725.291 36.75C725.711 35.7 726.341 34.79 727.111 34.055C727.881 33.32 728.826 32.76 729.876 32.375C730.926 32.025 732.116 31.815 733.376 31.815C734.636 31.815 735.791 31.99 736.841 32.34C737.891 32.69 738.836 33.25 739.606 33.95C740.376 34.685 741.006 35.595 741.426 36.645C741.846 37.73 742.091 38.99 742.091 40.425C742.091 41.895 741.881 43.155 741.461 44.205C741.041 45.29 740.446 46.2 739.676 46.9C738.906 47.6 737.996 48.125 736.946 48.475C735.861 48.825 734.671 49 733.376 49H722.701ZM733.376 35.28C731.836 35.28 730.716 35.77 729.946 36.715C729.176 37.66 728.791 38.885 728.791 40.425C728.791 41.965 729.176 43.225 729.946 44.135C730.716 45.08 731.871 45.535 733.376 45.535C734.846 45.535 736.001 45.08 736.771 44.135C737.541 43.225 737.961 41.965 737.961 40.425C737.961 38.885 737.576 37.66 736.806 36.715C736.036 35.77 734.881 35.28 733.376 35.28Z" fill="#F9F9F9"/>
<path d="M242.089 51.31H245.694V54.985H242.089V51.31ZM248.739 45.395V41.23C248.739 39.27 248.249 37.765 247.304 36.785C246.324 35.805 244.959 35.315 243.209 35.315C241.809 35.315 240.689 35.735 239.814 36.54C238.939 37.345 238.379 38.36 238.169 39.55H234.284C234.354 38.395 234.634 37.345 235.124 36.365C235.614 35.42 236.279 34.615 237.084 33.915C237.889 33.25 238.834 32.725 239.884 32.375C240.934 32.025 242.019 31.815 243.209 31.815C244.749 31.815 246.149 32.06 247.339 32.515C248.529 32.97 249.544 33.6 250.384 34.44C251.224 35.28 251.854 36.33 252.274 37.52C252.694 38.71 252.904 40.075 252.904 41.545V42.175C252.904 42.805 252.974 43.33 253.184 43.75C253.394 44.17 253.639 44.52 253.989 44.765C254.304 45.01 254.689 45.185 255.144 45.255C255.599 45.36 256.089 45.395 256.649 45.395H258.084C258.259 45.395 258.434 45.43 258.574 45.465C258.714 45.535 258.819 45.675 258.819 45.885V48.615C258.819 48.895 258.574 49 258.084 49H256.614C256.264 49 255.914 48.965 255.564 48.86C255.214 48.755 254.864 48.615 254.514 48.405C254.164 48.23 253.884 48.02 253.639 47.74C253.359 47.46 253.184 47.145 253.044 46.795H252.904C252.834 47.075 252.764 47.39 252.624 47.81C252.484 48.23 252.239 48.615 251.924 49H240.584C239.884 49 239.254 49.105 238.694 49.315C238.134 49.525 237.644 49.77 237.224 50.12C236.804 50.47 236.454 50.89 236.244 51.345C235.999 51.835 235.894 52.325 235.894 52.85C235.894 53.69 235.999 54.425 236.209 55.09C236.419 55.79 236.804 56.525 237.364 57.33H233.549C233.059 56.77 232.674 56.105 232.359 55.335C232.044 54.6 231.904 53.725 231.904 52.745C231.904 51.8 232.079 50.89 232.429 49.98C232.779 49.105 233.339 48.335 234.039 47.635C234.739 46.97 235.579 46.445 236.629 46.025C237.679 45.605 238.869 45.395 240.199 45.395H248.739ZM258.1 49C257.61 49 257.365 48.895 257.365 48.615V45.885C257.365 45.675 257.435 45.535 257.575 45.465C257.715 45.43 257.89 45.395 258.1 45.395H262.335V45.255C262.125 45.15 261.88 44.94 261.6 44.625C261.32 44.31 261.075 43.925 260.865 43.47C260.655 43.05 260.445 42.56 260.305 42.035C260.13 41.51 260.06 40.985 260.06 40.425C260.06 39.025 260.27 37.8 260.69 36.75C261.11 35.7 261.74 34.79 262.51 34.055C263.28 33.32 264.225 32.76 265.275 32.375C266.325 32.025 267.515 31.815 268.775 31.815C270.035 31.815 271.19 31.99 272.24 32.34C273.29 32.69 274.235 33.25 275.005 33.95C275.775 34.685 276.405 35.595 276.825 36.645C277.245 37.73 277.49 38.99 277.49 40.425C277.49 41.895 277.28 43.155 276.86 44.205C276.44 45.29 275.845 46.2 275.075 46.9C274.305 47.6 273.395 48.125 272.345 48.475C271.26 48.825 270.07 49 268.775 49H258.1ZM268.775 35.28C267.235 35.28 266.115 35.77 265.345 36.715C264.575 37.66 264.19 38.885 264.19 40.425C264.19 41.965 264.575 43.225 265.345 44.135C266.115 45.08 267.27 45.535 268.775 45.535C270.245 45.535 271.4 45.08 272.17 44.135C272.94 43.225 273.36 41.965 273.36 40.425C273.36 38.885 272.975 37.66 272.205 36.715C271.435 35.77 270.28 35.28 268.775 35.28ZM288.503 49.14C288.503 51.8 288.013 53.83 287.103 55.23C286.193 56.63 284.618 57.33 282.448 57.33C281.958 57.33 281.503 57.33 281.153 57.26C280.768 57.19 280.453 57.12 280.208 57.015C279.893 56.945 279.613 56.84 279.403 56.7V53.34C280.103 53.76 280.978 53.935 282.028 53.935C282.413 53.935 282.763 53.9 283.078 53.76C283.358 53.655 283.638 53.445 283.848 53.095C284.058 52.745 284.198 52.255 284.338 51.625C284.443 50.995 284.513 50.19 284.513 49.14V34.09H288.503V42.385C288.503 43.015 288.573 43.505 288.783 43.89C288.993 44.275 289.238 44.59 289.588 44.8C289.938 45.045 290.323 45.22 290.778 45.29C291.233 45.36 291.723 45.395 292.248 45.395H293.473C293.648 45.395 293.823 45.43 293.963 45.465C294.103 45.535 294.208 45.675 294.208 45.885V48.615C294.208 48.895 293.963 49 293.473 49H292.213C291.863 49 291.513 48.965 291.163 48.86C290.813 48.755 290.463 48.615 290.113 48.405C289.763 48.23 289.483 48.02 289.238 47.74C288.958 47.46 288.783 47.145 288.643 46.795H288.503V49.14ZM301.036 52.325H305.026V56.42H301.036V52.325ZM308.596 49C308.071 49 307.581 48.93 307.126 48.72C306.636 48.51 306.216 48.265 305.831 47.95C305.411 47.635 305.061 47.285 304.781 46.9C304.501 46.515 304.291 46.13 304.151 45.745C303.521 46.865 302.681 47.705 301.631 48.23C300.581 48.755 299.531 49 298.516 49H293.476C292.986 49 292.741 48.895 292.741 48.615V45.885C292.741 45.675 292.811 45.535 292.951 45.465C293.091 45.43 293.266 45.395 293.476 45.395H298.551C298.761 45.395 299.041 45.36 299.321 45.29C299.601 45.22 299.846 45.045 300.091 44.835C300.336 44.625 300.546 44.345 300.721 43.995C300.861 43.645 300.966 43.225 300.966 42.665V34.09H304.956V41.44C304.956 42.07 305.061 42.595 305.306 43.085C305.516 43.575 305.831 43.995 306.181 44.345C306.531 44.695 306.951 44.94 307.371 45.115C307.791 45.325 308.176 45.395 308.596 45.395H310.101C310.276 45.395 310.451 45.43 310.591 45.465C310.731 45.535 310.836 45.675 310.836 45.885V48.615C310.836 48.895 310.591 49 310.101 49H308.596ZM310.087 49C309.597 49 309.352 48.895 309.352 48.615V45.885C309.352 45.675 309.422 45.535 309.562 45.465C309.702 45.43 309.877 45.395 310.087 45.395H314.322V45.255C314.112 45.15 313.867 44.94 313.587 44.625C313.307 44.31 313.062 43.925 312.852 43.47C312.642 43.05 312.432 42.56 312.292 42.035C312.117 41.51 312.047 40.985 312.047 40.425C312.047 39.025 312.257 37.8 312.677 36.75C313.097 35.7 313.727 34.79 314.497 34.055C315.267 33.32 316.212 32.76 317.262 32.375C318.312 32.025 319.502 31.815 320.762 31.815C322.022 31.815 323.177 31.99 324.227 32.34C325.277 32.69 326.222 33.25 326.992 33.95C327.762 34.685 328.392 35.595 328.812 36.645C329.232 37.73 329.477 38.99 329.477 40.425C329.477 41.895 329.267 43.155 328.847 44.205C328.427 45.29 327.832 46.2 327.062 46.9C326.292 47.6 325.382 48.125 324.332 48.475C323.247 48.825 322.057 49 320.762 49H310.087ZM320.762 35.28C319.222 35.28 318.102 35.77 317.332 36.715C316.562 37.66 316.177 38.885 316.177 40.425C316.177 41.965 316.562 43.225 317.332 44.135C318.102 45.08 319.257 45.535 320.762 45.535C322.232 45.535 323.387 45.08 324.157 44.135C324.927 43.225 325.347 41.965 325.347 40.425C325.347 38.885 324.962 37.66 324.192 36.715C323.422 35.77 322.267 35.28 320.762 35.28Z" fill="#F9F9F9"/>
<path d="M388.805 45.395C388.98 45.395 389.155 45.43 389.295 45.465C389.435 45.535 389.54 45.675 389.54 45.885V48.615C389.54 48.895 389.295 49 388.805 49H387.615C387.125 49 386.635 48.895 386.18 48.685C385.725 48.475 385.305 48.195 384.955 47.81C384.57 47.46 384.255 47.005 383.975 46.515C383.695 46.025 383.485 45.5 383.38 44.94C382.68 46.34 381.665 47.355 380.335 48.02C379.005 48.685 377.43 49 375.61 49H370.99C370.22 49 369.625 49.105 369.135 49.28C368.645 49.49 368.295 49.735 368.015 50.05C367.735 50.4 367.525 50.75 367.42 51.17C367.315 51.59 367.28 52.045 367.28 52.465V57.365H363.29V52.5C363.29 50.61 363.745 49.07 364.69 47.845C365.635 46.655 367.14 45.885 369.17 45.535C368.96 45.325 368.715 45.045 368.435 44.66C368.155 44.31 367.91 43.89 367.7 43.4C367.49 42.91 367.28 42.42 367.14 41.895C366.965 41.405 366.895 40.915 366.895 40.425C366.895 39.025 367.105 37.8 367.525 36.75C367.945 35.7 368.575 34.79 369.345 34.055C370.115 33.32 371.06 32.76 372.11 32.375C373.16 32.025 374.35 31.815 375.61 31.815C376.87 31.815 378.025 31.99 379.075 32.34C380.125 32.69 381.07 33.25 381.84 33.95C382.61 34.685 383.24 35.595 383.66 36.645C384.08 37.73 384.325 38.99 384.325 40.425V40.67C384.36 42.21 384.71 43.365 385.375 44.17C386.005 45.01 386.775 45.395 387.65 45.395H388.805ZM375.61 35.28C374.07 35.28 372.95 35.77 372.18 36.715C371.41 37.66 371.025 38.885 371.025 40.425C371.025 41.965 371.41 43.225 372.18 44.135C372.95 45.08 374.105 45.535 375.61 45.535C377.08 45.535 378.235 45.08 379.005 44.135C379.775 43.225 380.195 41.965 380.195 40.425C380.195 38.885 379.81 37.66 379.04 36.715C378.27 35.77 377.115 35.28 375.61 35.28ZM401.997 50.05C400.177 50.05 398.637 49.735 397.307 49.07C395.977 48.44 394.997 47.425 394.297 46.095C393.877 47.075 393.317 47.81 392.547 48.3C391.777 48.79 390.937 49 389.992 49H388.802C388.312 49 388.067 48.895 388.067 48.615V45.885C388.067 45.675 388.137 45.535 388.277 45.465C388.417 45.43 388.592 45.395 388.802 45.395H389.957C390.377 45.395 390.797 45.36 391.217 45.22C391.602 45.08 391.952 44.87 392.267 44.59C392.547 44.31 392.792 43.89 393.002 43.4C393.177 42.91 393.282 42.245 393.282 41.475C393.282 40.04 393.492 38.78 393.912 37.695C394.332 36.645 394.962 35.735 395.732 35C396.502 34.3 397.447 33.74 398.497 33.39C399.547 33.04 400.737 32.865 401.997 32.865C403.257 32.865 404.412 33.04 405.462 33.39C406.512 33.74 407.457 34.3 408.227 35C408.997 35.735 409.627 36.645 410.047 37.695C410.467 38.78 410.712 40.04 410.712 41.475C410.712 42.245 410.782 42.91 410.992 43.4C411.167 43.89 411.412 44.31 411.727 44.59C412.007 44.87 412.357 45.08 412.777 45.22C413.162 45.36 413.582 45.395 414.037 45.395H415.192C415.367 45.395 415.542 45.43 415.682 45.465C415.822 45.535 415.927 45.675 415.927 45.885V48.615C415.927 48.895 415.682 49 415.192 49H414.002C413.022 49 412.182 48.79 411.412 48.3C410.642 47.81 410.082 47.075 409.697 46.095C408.997 47.425 407.982 48.44 406.652 49.07C405.322 49.735 403.747 50.05 401.997 50.05ZM401.997 46.585C403.467 46.585 404.622 46.13 405.392 45.185C406.162 44.275 406.582 43.015 406.582 41.475C406.582 39.935 406.197 38.71 405.427 37.765C404.657 36.82 403.502 36.33 401.997 36.33C400.457 36.33 399.337 36.82 398.567 37.765C397.797 38.71 397.412 39.935 397.412 41.475C397.412 43.015 397.797 44.275 398.567 45.185C399.337 46.13 400.492 46.585 401.997 46.585ZM450.713 45.395C450.888 45.395 451.063 45.43 451.203 45.465C451.343 45.535 451.448 45.675 451.448 45.885V48.615C451.448 48.895 451.203 49 450.713 49H449.593C449.243 49 448.893 48.965 448.543 48.86C448.193 48.755 447.843 48.615 447.493 48.405C447.143 48.23 446.863 48.02 446.583 47.74C446.303 47.46 446.128 47.145 445.988 46.795H445.883C445.813 47.075 445.743 47.39 445.603 47.81C445.463 48.23 445.218 48.615 444.903 49H415.188C414.698 49 414.453 48.895 414.453 48.615V45.885C414.453 45.675 414.523 45.535 414.663 45.465C414.803 45.43 414.978 45.395 415.188 45.395H419.528V35.07H423.518V40.88H423.728C424.498 39.9 425.373 38.885 426.353 37.905C427.298 36.925 428.313 36.05 429.433 35.245C430.518 34.475 431.673 33.81 432.898 33.32C434.123 32.83 435.383 32.585 436.713 32.585C438.043 32.585 439.268 32.795 440.388 33.145C441.508 33.53 442.488 34.09 443.293 34.79C444.098 35.525 444.728 36.435 445.183 37.485C445.638 38.57 445.883 39.795 445.883 41.195V42.175C445.883 43.365 446.163 44.205 446.723 44.695C447.283 45.185 448.018 45.395 448.893 45.395H450.713ZM436.573 36.19C435.628 36.19 434.683 36.4 433.773 36.75C432.828 37.135 431.918 37.625 431.043 38.185C430.168 38.78 429.328 39.445 428.558 40.145C427.753 40.88 427.018 41.58 426.388 42.245C425.758 42.945 425.198 43.575 424.743 44.135C424.288 44.695 423.973 45.115 423.763 45.395H441.928V41.265C441.928 39.515 441.508 38.255 440.703 37.415C439.863 36.61 438.498 36.19 436.573 36.19ZM450.701 49C450.211 49 449.966 48.895 449.966 48.615V45.885C449.966 45.675 450.036 45.535 450.176 45.465C450.316 45.43 450.491 45.395 450.701 45.395H454.936V45.255C454.726 45.15 454.481 44.94 454.201 44.625C453.921 44.31 453.676 43.925 453.466 43.47C453.256 43.05 453.046 42.56 452.906 42.035C452.731 41.51 452.661 40.985 452.661 40.425C452.661 39.025 452.871 37.8 453.291 36.75C453.711 35.7 454.341 34.79 455.111 34.055C455.881 33.32 456.826 32.76 457.876 32.375C458.926 32.025 460.116 31.815 461.376 31.815C462.636 31.815 463.791 31.99 464.841 32.34C465.891 32.69 466.836 33.25 467.606 33.95C468.376 34.685 469.006 35.595 469.426 36.645C469.846 37.73 470.091 38.99 470.091 40.425C470.091 41.895 469.881 43.155 469.461 44.205C469.041 45.29 468.446 46.2 467.676 46.9C466.906 47.6 465.996 48.125 464.946 48.475C463.861 48.825 462.671 49 461.376 49H450.701ZM461.376 35.28C459.836 35.28 458.716 35.77 457.946 36.715C457.176 37.66 456.791 38.885 456.791 40.425C456.791 41.965 457.176 43.225 457.946 44.135C458.716 45.08 459.871 45.535 461.376 45.535C462.846 45.535 464.001 45.08 464.771 44.135C465.541 43.225 465.961 41.965 465.961 40.425C465.961 38.885 465.576 37.66 464.806 36.715C464.036 35.77 462.881 35.28 461.376 35.28Z" fill="#F9F9F9"/>
<path d="M-29.9107 51.31H-26.3057V54.985H-29.9107V51.31ZM-23.2607 45.395V41.23C-23.2607 39.27 -23.7507 37.765 -24.6957 36.785C-25.6757 35.805 -27.0407 35.315 -28.7907 35.315C-30.1907 35.315 -31.3107 35.735 -32.1857 36.54C-33.0607 37.345 -33.6207 38.36 -33.8307 39.55H-37.7157C-37.6457 38.395 -37.3657 37.345 -36.8757 36.365C-36.3857 35.42 -35.7207 34.615 -34.9157 33.915C-34.1107 33.25 -33.1657 32.725 -32.1157 32.375C-31.0657 32.025 -29.9807 31.815 -28.7907 31.815C-27.2507 31.815 -25.8507 32.06 -24.6607 32.515C-23.4707 32.97 -22.4557 33.6 -21.6157 34.44C-20.7757 35.28 -20.1457 36.33 -19.7257 37.52C-19.3057 38.71 -19.0957 40.075 -19.0957 41.545V42.175C-19.0957 42.805 -19.0257 43.33 -18.8157 43.75C-18.6057 44.17 -18.3607 44.52 -18.0107 44.765C-17.6957 45.01 -17.3107 45.185 -16.8557 45.255C-16.4007 45.36 -15.9107 45.395 -15.3507 45.395H-13.9157C-13.7407 45.395 -13.5657 45.43 -13.4257 45.465C-13.2857 45.535 -13.1807 45.675 -13.1807 45.885V48.615C-13.1807 48.895 -13.4257 49 -13.9157 49H-15.3857C-15.7357 49 -16.0857 48.965 -16.4357 48.86C-16.7857 48.755 -17.1357 48.615 -17.4857 48.405C-17.8357 48.23 -18.1157 48.02 -18.3607 47.74C-18.6407 47.46 -18.8157 47.145 -18.9557 46.795H-19.0957C-19.1657 47.075 -19.2357 47.39 -19.3757 47.81C-19.5157 48.23 -19.7607 48.615 -20.0757 49H-31.4157C-32.1157 49 -32.7457 49.105 -33.3057 49.315C-33.8657 49.525 -34.3557 49.77 -34.7757 50.12C-35.1957 50.47 -35.5457 50.89 -35.7557 51.345C-36.0007 51.835 -36.1057 52.325 -36.1057 52.85C-36.1057 53.69 -36.0007 54.425 -35.7907 55.09C-35.5807 55.79 -35.1957 56.525 -34.6357 57.33H-38.4507C-38.9407 56.77 -39.3257 56.105 -39.6407 55.335C-39.9557 54.6 -40.0957 53.725 -40.0957 52.745C-40.0957 51.8 -39.9207 50.89 -39.5707 49.98C-39.2207 49.105 -38.6607 48.335 -37.9607 47.635C-37.2607 46.97 -36.4207 46.445 -35.3707 46.025C-34.3207 45.605 -33.1307 45.395 -31.8007 45.395H-23.2607ZM-13.9004 49C-14.3904 49 -14.6354 48.895 -14.6354 48.615V45.885C-14.6354 45.675 -14.5654 45.535 -14.4254 45.465C-14.2854 45.43 -14.1104 45.395 -13.9004 45.395H-9.66539V45.255C-9.87539 45.15 -10.1204 44.94 -10.4004 44.625C-10.6804 44.31 -10.9254 43.925 -11.1354 43.47C-11.3454 43.05 -11.5554 42.56 -11.6954 42.035C-11.8704 41.51 -11.9404 40.985 -11.9404 40.425C-11.9404 39.025 -11.7304 37.8 -11.3104 36.75C-10.8904 35.7 -10.2604 34.79 -9.49039 34.055C-8.72039 33.32 -7.77539 32.76 -6.72539 32.375C-5.67539 32.025 -4.48539 31.815 -3.22539 31.815C-1.96539 31.815 -0.81039 31.99 0.23961 32.34C1.28961 32.69 2.23461 33.25 3.00461 33.95C3.77461 34.685 4.40461 35.595 4.82461 36.645C5.24461 37.73 5.48961 38.99 5.48961 40.425C5.48961 41.895 5.27961 43.155 4.85961 44.205C4.43961 45.29 3.84461 46.2 3.07461 46.9C2.30461 47.6 1.39461 48.125 0.34461 48.475C-0.74039 48.825 -1.93039 49 -3.22539 49H-13.9004ZM-3.22539 35.28C-4.76539 35.28 -5.88539 35.77 -6.65539 36.715C-7.42539 37.66 -7.81039 38.885 -7.81039 40.425C-7.81039 41.965 -7.42539 43.225 -6.65539 44.135C-5.88539 45.08 -4.73039 45.535 -3.22539 45.535C-1.75539 45.535 -0.60039 45.08 0.16961 44.135C0.93961 43.225 1.35961 41.965 1.35961 40.425C1.35961 38.885 0.97461 37.66 0.20461 36.715C-0.56539 35.77 -1.72039 35.28 -3.22539 35.28ZM16.5034 49.14C16.5034 51.8 16.0134 53.83 15.1034 55.23C14.1934 56.63 12.6184 57.33 10.4484 57.33C9.9584 57.33 9.5034 57.33 9.1534 57.26C8.7684 57.19 8.4534 57.12 8.2084 57.015C7.8934 56.945 7.6134 56.84 7.4034 56.7V53.34C8.1034 53.76 8.9784 53.935 10.0284 53.935C10.4134 53.935 10.7634 53.9 11.0784 53.76C11.3584 53.655 11.6384 53.445 11.8484 53.095C12.0584 52.745 12.1984 52.255 12.3384 51.625C12.4434 50.995 12.5134 50.19 12.5134 49.14V34.09H16.5034V42.385C16.5034 43.015 16.5734 43.505 16.7834 43.89C16.9934 44.275 17.2384 44.59 17.5884 44.8C17.9384 45.045 18.3234 45.22 18.7784 45.29C19.2334 45.36 19.7234 45.395 20.2484 45.395H21.4734C21.6484 45.395 21.8234 45.43 21.9634 45.465C22.1034 45.535 22.2084 45.675 22.2084 45.885V48.615C22.2084 48.895 21.9634 49 21.4734 49H20.2134C19.8634 49 19.5134 48.965 19.1634 48.86C18.8134 48.755 18.4634 48.615 18.1134 48.405C17.7634 48.23 17.4834 48.02 17.2384 47.74C16.9584 47.46 16.7834 47.145 16.6434 46.795H16.5034V49.14ZM29.0356 52.325H33.0256V56.42H29.0356V52.325ZM36.5956 49C36.0706 49 35.5806 48.93 35.1256 48.72C34.6356 48.51 34.2156 48.265 33.8306 47.95C33.4106 47.635 33.0606 47.285 32.7806 46.9C32.5006 46.515 32.2906 46.13 32.1506 45.745C31.5206 46.865 30.6806 47.705 29.6306 48.23C28.5806 48.755 27.5306 49 26.5156 49H21.4756C20.9856 49 20.7406 48.895 20.7406 48.615V45.885C20.7406 45.675 20.8106 45.535 20.9506 45.465C21.0906 45.43 21.2656 45.395 21.4756 45.395H26.5506C26.7606 45.395 27.0406 45.36 27.3206 45.29C27.6006 45.22 27.8456 45.045 28.0906 44.835C28.3356 44.625 28.5456 44.345 28.7206 43.995C28.8606 43.645 28.9656 43.225 28.9656 42.665V34.09H32.9556V41.44C32.9556 42.07 33.0606 42.595 33.3056 43.085C33.5156 43.575 33.8306 43.995 34.1806 44.345C34.5306 44.695 34.9506 44.94 35.3706 45.115C35.7906 45.325 36.1756 45.395 36.5956 45.395H38.1006C38.2756 45.395 38.4506 45.43 38.5906 45.465C38.7306 45.535 38.8356 45.675 38.8356 45.885V48.615C38.8356 48.895 38.5906 49 38.1006 49H36.5956ZM38.0869 49C37.5969 49 37.3519 48.895 37.3519 48.615V45.885C37.3519 45.675 37.4219 45.535 37.5619 45.465C37.7019 45.43 37.8769 45.395 38.0869 45.395H42.3219V45.255C42.1119 45.15 41.8669 44.94 41.5869 44.625C41.3069 44.31 41.0619 43.925 40.8519 43.47C40.6419 43.05 40.4319 42.56 40.2919 42.035C40.1169 41.51 40.0469 40.985 40.0469 40.425C40.0469 39.025 40.2569 37.8 40.6769 36.75C41.0969 35.7 41.7269 34.79 42.4969 34.055C43.2669 33.32 44.2119 32.76 45.2619 32.375C46.3119 32.025 47.5019 31.815 48.7619 31.815C50.0219 31.815 51.1769 31.99 52.2269 32.34C53.2769 32.69 54.2219 33.25 54.9919 33.95C55.7619 34.685 56.3919 35.595 56.8119 36.645C57.2319 37.73 57.4769 38.99 57.4769 40.425C57.4769 41.895 57.2669 43.155 56.8469 44.205C56.4269 45.29 55.8319 46.2 55.0619 46.9C54.2919 47.6 53.3819 48.125 52.3319 48.475C51.2469 48.825 50.0569 49 48.7619 49H38.0869ZM48.7619 35.28C47.2219 35.28 46.1019 35.77 45.3319 36.715C44.5619 37.66 44.1769 38.885 44.1769 40.425C44.1769 41.965 44.5619 43.225 45.3319 44.135C46.1019 45.08 47.2569 45.535 48.7619 45.535C50.2319 45.535 51.3869 45.08 52.1569 44.135C52.9269 43.225 53.3469 41.965 53.3469 40.425C53.3469 38.885 52.9619 37.66 52.1919 36.715C51.4219 35.77 50.2669 35.28 48.7619 35.28Z" fill="#F9F9F9"/>
<path d="M116.805 45.395C116.98 45.395 117.155 45.43 117.295 45.465C117.435 45.535 117.54 45.675 117.54 45.885V48.615C117.54 48.895 117.295 49 116.805 49H115.615C115.125 49 114.635 48.895 114.18 48.685C113.725 48.475 113.305 48.195 112.955 47.81C112.57 47.46 112.255 47.005 111.975 46.515C111.695 46.025 111.485 45.5 111.38 44.94C110.68 46.34 109.665 47.355 108.335 48.02C107.005 48.685 105.43 49 103.61 49H98.99C98.22 49 97.625 49.105 97.135 49.28C96.645 49.49 96.295 49.735 96.015 50.05C95.735 50.4 95.525 50.75 95.42 51.17C95.315 51.59 95.28 52.045 95.28 52.465V57.365H91.29V52.5C91.29 50.61 91.745 49.07 92.69 47.845C93.635 46.655 95.14 45.885 97.17 45.535C96.96 45.325 96.715 45.045 96.435 44.66C96.155 44.31 95.91 43.89 95.7 43.4C95.49 42.91 95.28 42.42 95.14 41.895C94.965 41.405 94.895 40.915 94.895 40.425C94.895 39.025 95.105 37.8 95.525 36.75C95.945 35.7 96.575 34.79 97.345 34.055C98.115 33.32 99.06 32.76 100.11 32.375C101.16 32.025 102.35 31.815 103.61 31.815C104.87 31.815 106.025 31.99 107.075 32.34C108.125 32.69 109.07 33.25 109.84 33.95C110.61 34.685 111.24 35.595 111.66 36.645C112.08 37.73 112.325 38.99 112.325 40.425V40.67C112.36 42.21 112.71 43.365 113.375 44.17C114.005 45.01 114.775 45.395 115.65 45.395H116.805ZM103.61 35.28C102.07 35.28 100.95 35.77 100.18 36.715C99.41 37.66 99.025 38.885 99.025 40.425C99.025 41.965 99.41 43.225 100.18 44.135C100.95 45.08 102.105 45.535 103.61 45.535C105.08 45.535 106.235 45.08 107.005 44.135C107.775 43.225 108.195 41.965 108.195 40.425C108.195 38.885 107.81 37.66 107.04 36.715C106.27 35.77 105.115 35.28 103.61 35.28ZM129.997 50.05C128.177 50.05 126.637 49.735 125.307 49.07C123.977 48.44 122.997 47.425 122.297 46.095C121.877 47.075 121.317 47.81 120.547 48.3C119.777 48.79 118.937 49 117.992 49H116.802C116.312 49 116.067 48.895 116.067 48.615V45.885C116.067 45.675 116.137 45.535 116.277 45.465C116.417 45.43 116.592 45.395 116.802 45.395H117.957C118.377 45.395 118.797 45.36 119.217 45.22C119.602 45.08 119.952 44.87 120.267 44.59C120.547 44.31 120.792 43.89 121.002 43.4C121.177 42.91 121.282 42.245 121.282 41.475C121.282 40.04 121.492 38.78 121.912 37.695C122.332 36.645 122.962 35.735 123.732 35C124.502 34.3 125.447 33.74 126.497 33.39C127.547 33.04 128.737 32.865 129.997 32.865C131.257 32.865 132.412 33.04 133.462 33.39C134.512 33.74 135.457 34.3 136.227 35C136.997 35.735 137.627 36.645 138.047 37.695C138.467 38.78 138.712 40.04 138.712 41.475C138.712 42.245 138.782 42.91 138.992 43.4C139.167 43.89 139.412 44.31 139.727 44.59C140.007 44.87 140.357 45.08 140.777 45.22C141.162 45.36 141.582 45.395 142.037 45.395H143.192C143.367 45.395 143.542 45.43 143.682 45.465C143.822 45.535 143.927 45.675 143.927 45.885V48.615C143.927 48.895 143.682 49 143.192 49H142.002C141.022 49 140.182 48.79 139.412 48.3C138.642 47.81 138.082 47.075 137.697 46.095C136.997 47.425 135.982 48.44 134.652 49.07C133.322 49.735 131.747 50.05 129.997 50.05ZM129.997 46.585C131.467 46.585 132.622 46.13 133.392 45.185C134.162 44.275 134.582 43.015 134.582 41.475C134.582 39.935 134.197 38.71 133.427 37.765C132.657 36.82 131.502 36.33 129.997 36.33C128.457 36.33 127.337 36.82 126.567 37.765C125.797 38.71 125.412 39.935 125.412 41.475C125.412 43.015 125.797 44.275 126.567 45.185C127.337 46.13 128.492 46.585 129.997 46.585ZM178.713 45.395C178.888 45.395 179.063 45.43 179.203 45.465C179.343 45.535 179.448 45.675 179.448 45.885V48.615C179.448 48.895 179.203 49 178.713 49H177.593C177.243 49 176.893 48.965 176.543 48.86C176.193 48.755 175.843 48.615 175.493 48.405C175.143 48.23 174.863 48.02 174.583 47.74C174.303 47.46 174.128 47.145 173.988 46.795H173.883C173.813 47.075 173.743 47.39 173.603 47.81C173.463 48.23 173.218 48.615 172.903 49H143.188C142.698 49 142.453 48.895 142.453 48.615V45.885C142.453 45.675 142.523 45.535 142.663 45.465C142.803 45.43 142.978 45.395 143.188 45.395H147.528V35.07H151.518V40.88H151.728C152.498 39.9 153.373 38.885 154.353 37.905C155.298 36.925 156.313 36.05 157.433 35.245C158.518 34.475 159.673 33.81 160.898 33.32C162.123 32.83 163.383 32.585 164.713 32.585C166.043 32.585 167.268 32.795 168.388 33.145C169.508 33.53 170.488 34.09 171.293 34.79C172.098 35.525 172.728 36.435 173.183 37.485C173.638 38.57 173.883 39.795 173.883 41.195V42.175C173.883 43.365 174.163 44.205 174.723 44.695C175.283 45.185 176.018 45.395 176.893 45.395H178.713ZM164.573 36.19C163.628 36.19 162.683 36.4 161.773 36.75C160.828 37.135 159.918 37.625 159.043 38.185C158.168 38.78 157.328 39.445 156.558 40.145C155.753 40.88 155.018 41.58 154.388 42.245C153.758 42.945 153.198 43.575 152.743 44.135C152.288 44.695 151.973 45.115 151.763 45.395H169.928V41.265C169.928 39.515 169.508 38.255 168.703 37.415C167.863 36.61 166.498 36.19 164.573 36.19ZM178.701 49C178.211 49 177.966 48.895 177.966 48.615V45.885C177.966 45.675 178.036 45.535 178.176 45.465C178.316 45.43 178.491 45.395 178.701 45.395H182.936V45.255C182.726 45.15 182.481 44.94 182.201 44.625C181.921 44.31 181.676 43.925 181.466 43.47C181.256 43.05 181.046 42.56 180.906 42.035C180.731 41.51 180.661 40.985 180.661 40.425C180.661 39.025 180.871 37.8 181.291 36.75C181.711 35.7 182.341 34.79 183.111 34.055C183.881 33.32 184.826 32.76 185.876 32.375C186.926 32.025 188.116 31.815 189.376 31.815C190.636 31.815 191.791 31.99 192.841 32.34C193.891 32.69 194.836 33.25 195.606 33.95C196.376 34.685 197.006 35.595 197.426 36.645C197.846 37.73 198.091 38.99 198.091 40.425C198.091 41.895 197.881 43.155 197.461 44.205C197.041 45.29 196.446 46.2 195.676 46.9C194.906 47.6 193.996 48.125 192.946 48.475C191.861 48.825 190.671 49 189.376 49H178.701ZM189.376 35.28C187.836 35.28 186.716 35.77 185.946 36.715C185.176 37.66 184.791 38.885 184.791 40.425C184.791 41.965 185.176 43.225 185.946 44.135C186.716 45.08 187.871 45.535 189.376 45.535C190.846 45.535 192.001 45.08 192.771 44.135C193.541 43.225 193.961 41.965 193.961 40.425C193.961 38.885 193.576 37.66 192.806 36.715C192.036 35.77 190.881 35.28 189.376 35.28Z" fill="#F9F9F9"/>
</g>
<defs>
<linearGradient id="paint0_linear_535_151" x1="-2.00258e-06" y1="43" x2="1035" y2="43" gradientUnits="userSpaceOnUse">
<stop stop-color="#381668"/>
<stop offset="1" stop-color="#9448FD"/>
</linearGradient>
<clipPath id="clip0_535_151">
<rect width="1035" height="85" fill="white"/>
</clipPath>
</defs>
</svg>
