<svg width="779" height="192" viewBox="0 0 779 192" fill="none" xmlns="http://www.w3.org/2000/svg">
<path d="M470.303 88.6596C462.216 82.4964 456.017 74.8218 462.104 71.3478C467.875 68.6154 472.008 80.6159 470.303 88.6596Z" stroke="white" stroke-width="3"/>
<path d="M490.763 93.0932C496.197 84.4997 502.518 77.0428 507.294 83.4169C510.519 88.9278 498.924 94.0908 490.763 93.0932Z" stroke="white" stroke-width="3"/>
<path d="M479.759 92.162C479.569 78.7561 476.05 51.1595 492.23 56.4672C499.518 58.858 497.402 78.5785 479.759 92.162Z" stroke="white" stroke-width="3"/>
<path d="M757.064 29.3172C758.154 29.3172 759.353 29.5352 760.443 29.8622C761.533 30.1892 762.732 30.5162 763.822 30.8432C764.912 31.2792 766.002 31.6062 767.092 31.9332C768.182 32.2602 769.381 32.3692 770.471 32.3692C773.523 32.3692 775.049 31.2792 775.049 28.9902H778.537C778.537 31.6062 777.774 33.6772 776.357 35.2032C774.831 36.7292 773.087 37.3832 771.016 37.3832C769.817 37.3832 768.618 37.2742 767.528 36.9472C766.438 36.6202 765.348 36.2932 764.258 35.8572C763.168 35.4212 762.078 35.0942 760.988 34.7672C759.898 34.4402 758.699 34.2222 757.609 34.2222C754.557 34.2222 753.031 35.4212 753.031 37.7102H749.543C749.543 35.0942 750.197 33.1322 751.723 31.6062C753.14 30.0802 754.884 29.3172 757.064 29.3172ZM757.936 126V48.0652H770.362V126H757.936Z" fill="white"/>
<path d="M724.683 141.369C725.882 141.369 726.972 141.26 727.953 140.824C728.825 140.497 729.697 139.843 730.351 138.753C731.005 137.663 731.441 136.137 731.877 134.175C732.204 132.213 732.422 129.706 732.422 126.436V79.5664H744.848V126.436C744.848 134.72 743.322 141.042 740.488 145.402C737.654 149.762 732.749 151.942 725.991 151.942C724.465 151.942 723.048 151.942 721.958 151.724C720.759 151.506 719.778 151.288 719.015 150.961C718.034 150.743 717.162 150.416 716.508 149.98V139.516C718.688 140.824 721.413 141.369 724.683 141.369Z" fill="white"/>
<path d="M696.41 126V48.0654H708.836V126H696.41Z" fill="white"/>
<path d="M663.912 66.8134H667.618V66.3774C667.073 65.8324 666.637 65.0694 666.31 64.1974C665.983 63.3254 665.874 62.5624 665.874 61.6904C665.874 59.1834 666.637 57.2214 668.163 55.8044C669.689 54.4964 671.76 53.7334 674.594 53.7334C676.665 53.7334 678.518 54.3874 680.262 55.5864C682.006 56.7854 682.878 58.7474 683.096 61.4724H678.191C678.082 60.4914 677.755 59.6194 677.101 58.9654C676.447 58.3114 675.575 57.8754 674.594 57.8754C673.504 57.8754 672.741 58.3114 672.087 59.0744C671.433 59.8374 671.106 60.9274 671.106 62.2354C671.106 63.6524 671.433 64.7424 672.196 65.6144C672.85 66.4864 673.94 66.8134 675.248 66.8134H683.314V71.2824H663.912V66.8134ZM669.798 114.773V79.5664H682.224V126H649.633C648.107 126 647.344 125.673 647.344 124.801V116.299C647.344 115.645 647.562 115.209 647.998 114.991C648.434 114.882 648.979 114.773 649.633 114.773H669.798Z" fill="white"/>
<path d="M649.631 114.773C650.176 114.773 650.721 114.882 651.157 114.991C651.593 115.209 651.92 115.645 651.92 116.299V124.801C651.92 125.673 651.157 126 649.631 126H645.925C644.835 126 643.854 125.891 642.764 125.564C641.674 125.346 640.584 124.91 639.603 124.256C638.513 123.711 637.641 123.057 636.769 122.185C635.897 121.422 635.243 120.55 634.807 119.46H634.262C634.044 120.332 633.826 121.313 633.39 122.512C632.954 123.711 632.191 124.91 631.319 126H567.99C566.464 126 565.701 125.673 565.701 124.801V116.299C565.701 115.645 565.919 115.209 566.355 114.991C566.791 114.882 567.336 114.773 567.99 114.773H621.509V101.911C621.509 96.1344 620.201 91.8834 617.585 89.2674C614.969 86.6514 611.481 85.3434 607.339 85.3434H572.895V74.3344L599.055 48.0654H614.097L588.264 74.3344H606.794C611.808 74.3344 616.059 74.9884 619.547 76.1874C623.035 77.3864 625.978 79.1304 628.158 81.4194C630.338 83.8174 631.864 86.6514 632.845 90.1394C633.826 93.6274 634.371 97.5514 634.371 101.911V104.745C634.371 108.451 635.243 111.067 636.987 112.593C638.731 114.119 641.02 114.773 643.745 114.773H649.631Z" fill="white"/>
<path d="M549.361 126C547.835 126 547.072 125.673 547.072 124.801V116.299C547.072 115.645 547.29 115.209 547.726 114.991C548.162 114.882 548.707 114.773 549.361 114.773H568C569.526 114.773 570.398 115.209 570.398 115.972V124.474C570.398 125.237 570.071 125.673 569.635 125.782C569.199 126 568.654 126 568 126H549.361Z" fill="white"/>
<path d="M530.734 126C529.208 126 528.445 125.673 528.445 124.801V116.299C528.445 115.645 528.663 115.209 529.099 114.991C529.535 114.882 530.08 114.773 530.734 114.773H549.373C550.899 114.773 551.771 115.209 551.771 115.972V124.474C551.771 125.237 551.444 125.673 551.008 125.782C550.572 126 550.027 126 549.373 126H530.734Z" fill="white"/>
<path d="M512.105 126C510.579 126 509.816 125.673 509.816 124.801V116.299C509.816 115.645 510.034 115.209 510.47 114.991C510.906 114.882 511.451 114.773 512.105 114.773H530.744C532.27 114.773 533.142 115.209 533.142 115.972V124.474C533.142 125.237 532.815 125.673 532.379 125.782C531.943 126 531.398 126 530.744 126H512.105Z" fill="white"/>
<path d="M493.478 126C491.952 126 491.189 125.673 491.189 124.801V116.299C491.189 115.645 491.407 115.209 491.843 114.991C492.279 114.882 492.824 114.773 493.478 114.773H512.117C513.643 114.773 514.515 115.209 514.515 115.972V124.474C514.515 125.237 514.188 125.673 513.752 125.782C513.316 126 512.771 126 512.117 126H493.478Z" fill="white"/>
<path d="M474.85 126C473.324 126 472.561 125.673 472.561 124.801V116.299C472.561 115.645 472.779 115.209 473.215 114.991C473.651 114.882 474.196 114.773 474.85 114.773H493.489C495.015 114.773 495.887 115.209 495.887 115.972V124.474C495.887 125.237 495.56 125.673 495.124 125.782C494.688 126 494.143 126 493.489 126H474.85Z" fill="white"/>
<path d="M456.223 126C454.697 126 453.934 125.673 453.934 124.801V116.299C453.934 115.645 454.152 115.209 454.588 114.991C455.024 114.882 455.569 114.773 456.223 114.773H474.862C476.388 114.773 477.26 115.209 477.26 115.972V124.474C477.26 125.237 476.933 125.673 476.497 125.782C476.061 126 475.516 126 474.862 126H456.223Z" fill="white"/>
<path d="M437.594 126C436.068 126 435.305 125.673 435.305 124.801V116.299C435.305 115.645 435.523 115.209 435.959 114.991C436.395 114.882 436.94 114.773 437.594 114.773H456.233C457.759 114.773 458.631 115.209 458.631 115.972V124.474C458.631 125.237 458.304 125.673 457.868 125.782C457.432 126 456.887 126 456.233 126H437.594Z" fill="white"/>
<path d="M418.967 126C417.441 126 416.678 125.673 416.678 124.801V116.299C416.678 115.645 416.896 115.209 417.332 114.991C417.768 114.882 418.313 114.773 418.967 114.773H437.606C439.132 114.773 440.004 115.209 440.004 115.972V124.474C440.004 125.237 439.677 125.673 439.241 125.782C438.805 126 438.26 126 437.606 126H418.967Z" fill="white"/>
<path d="M400.338 126C398.812 126 398.049 125.673 398.049 124.801V116.299C398.049 115.645 398.267 115.209 398.703 114.991C399.139 114.882 399.684 114.773 400.338 114.773H418.977C420.503 114.773 421.375 115.209 421.375 115.972V124.474C421.375 125.237 421.048 125.673 420.612 125.782C420.176 126 419.631 126 418.977 126H400.338Z" fill="white"/>
<path d="M381.711 126C380.185 126 379.422 125.673 379.422 124.801V116.299C379.422 115.645 379.64 115.209 380.076 114.991C380.512 114.882 381.057 114.773 381.711 114.773H400.35C401.876 114.773 402.748 115.209 402.748 115.972V124.474C402.748 125.237 402.421 125.673 401.985 125.782C401.549 126 401.004 126 400.35 126H381.711Z" fill="white"/>
<path d="M363.082 126C361.556 126 360.793 125.673 360.793 124.801V116.299C360.793 115.645 361.011 115.209 361.447 114.991C361.883 114.882 362.428 114.773 363.082 114.773H381.721C383.247 114.773 384.119 115.209 384.119 115.972V124.474C384.119 125.237 383.792 125.673 383.356 125.782C382.92 126 382.375 126 381.721 126H363.082Z" fill="white"/>
<path d="M344.455 126C342.929 126 342.166 125.673 342.166 124.801V116.299C342.166 115.645 342.384 115.209 342.82 114.991C343.256 114.882 343.801 114.773 344.455 114.773H363.094C364.62 114.773 365.492 115.209 365.492 115.972V124.474C365.492 125.237 365.165 125.673 364.729 125.782C364.293 126 363.748 126 363.094 126H344.455Z" fill="white"/>
<path d="M325.826 126C324.3 126 323.537 125.673 323.537 124.801V116.299C323.537 115.645 323.755 115.209 324.191 114.991C324.627 114.882 325.172 114.773 325.826 114.773H344.465C345.991 114.773 346.863 115.209 346.863 115.972V124.474C346.863 125.237 346.536 125.673 346.1 125.782C345.664 126 345.119 126 344.465 126H325.826Z" fill="white"/>
<path d="M307.199 126C305.673 126 304.91 125.673 304.91 124.801V116.299C304.91 115.645 305.128 115.209 305.564 114.991C306 114.882 306.545 114.773 307.199 114.773H325.838C327.364 114.773 328.236 115.209 328.236 115.972V124.474C328.236 125.237 327.909 125.673 327.473 125.782C327.037 126 326.492 126 325.838 126H307.199Z" fill="white"/>
<path d="M288.57 126C287.044 126 286.281 125.673 286.281 124.801V116.299C286.281 115.645 286.499 115.209 286.935 114.991C287.371 114.882 287.916 114.773 288.57 114.773H307.209C308.735 114.773 309.607 115.209 309.607 115.972V124.474C309.607 125.237 309.28 125.673 308.844 125.782C308.408 126 307.863 126 307.209 126H288.57Z" fill="white"/>
<path d="M269.943 126C268.417 126 267.654 125.673 267.654 124.801V116.299C267.654 115.645 267.872 115.209 268.308 114.991C268.744 114.882 269.289 114.773 269.943 114.773H288.582C290.108 114.773 290.98 115.209 290.98 115.972V124.474C290.98 125.237 290.653 125.673 290.217 125.782C289.781 126 289.236 126 288.582 126H269.943Z" fill="white"/>
<path d="M251.314 126C249.788 126 249.025 125.673 249.025 124.801V116.299C249.025 115.645 249.243 115.209 249.679 114.991C250.115 114.882 250.66 114.773 251.314 114.773H269.953C271.479 114.773 272.351 115.209 272.351 115.972V124.474C272.351 125.237 272.024 125.673 271.588 125.782C271.152 126 270.607 126 269.953 126H251.314Z" fill="white"/>
<path d="M232.687 126C231.161 126 230.398 125.673 230.398 124.801V116.299C230.398 115.645 230.616 115.209 231.052 114.991C231.488 114.882 232.033 114.773 232.687 114.773H251.326C252.852 114.773 253.724 115.209 253.724 115.972V124.474C253.724 125.237 253.397 125.673 252.961 125.782C252.525 126 251.98 126 251.326 126H232.687Z" fill="white"/>
<path d="M214.059 126C212.533 126 211.77 125.673 211.77 124.801V116.299C211.77 115.645 211.988 115.209 212.424 114.991C212.86 114.882 213.405 114.773 214.059 114.773H232.698C234.224 114.773 235.096 115.209 235.096 115.972V124.474C235.096 125.237 234.769 125.673 234.333 125.782C233.897 126 233.352 126 232.698 126H214.059Z" fill="white"/>
<path d="M195.432 126C193.906 126 193.143 125.673 193.143 124.801V116.299C193.143 115.645 193.361 115.209 193.797 114.991C194.233 114.882 194.778 114.773 195.432 114.773H214.071C215.597 114.773 216.469 115.209 216.469 115.972V124.474C216.469 125.237 216.142 125.673 215.706 125.782C215.27 126 214.725 126 214.071 126H195.432Z" fill="white"/>
<path d="M176.803 126C175.277 126 174.514 125.673 174.514 124.801V116.299C174.514 115.645 174.732 115.209 175.168 114.991C175.604 114.882 176.149 114.773 176.803 114.773H195.442C196.968 114.773 197.84 115.209 197.84 115.972V124.474C197.84 125.237 197.513 125.673 197.077 125.782C196.641 126 196.096 126 195.442 126H176.803Z" fill="white"/>
<path d="M135.722 129.27C130.054 129.27 125.258 128.289 121.116 126.218C116.974 124.256 113.922 121.095 111.742 116.953C110.434 120.005 108.69 122.294 106.292 123.82C103.894 125.346 101.278 126 98.3348 126H94.6288C93.1028 126 92.3398 125.673 92.3398 124.801V116.299C92.3398 115.645 92.5578 115.209 92.9938 114.991C93.4298 114.882 93.9748 114.773 94.6288 114.773H98.2258C99.5338 114.773 100.842 114.664 102.15 114.228C103.349 113.792 104.439 113.138 105.42 112.266C106.292 111.394 107.055 110.086 107.709 108.56C108.254 107.034 108.581 104.963 108.581 102.565C108.581 98.096 109.235 94.172 110.543 90.793C111.851 87.523 113.813 84.689 116.211 82.4C118.609 80.22 121.552 78.476 124.822 77.386C128.092 76.296 131.798 75.751 135.722 75.751C139.646 75.751 143.243 76.296 146.513 77.386C149.783 78.476 152.726 80.22 155.124 82.4C157.522 84.689 159.484 87.523 160.792 90.793C162.1 94.172 162.863 98.096 162.863 102.565C162.863 104.963 163.081 107.034 163.735 108.56C164.28 110.086 165.043 111.394 166.024 112.266C166.896 113.138 167.986 113.792 169.294 114.228C170.493 114.664 171.801 114.773 173.218 114.773H176.815C177.36 114.773 177.905 114.882 178.341 114.991C178.777 115.209 179.104 115.645 179.104 116.299V124.801C179.104 125.673 178.341 126 176.815 126H173.109C170.057 126 167.441 125.346 165.043 123.82C162.645 122.294 160.901 120.005 159.702 116.953C157.522 121.095 154.361 124.256 150.219 126.218C146.077 128.289 141.172 129.27 135.722 129.27ZM135.722 118.479C140.3 118.479 143.897 117.062 146.295 114.119C148.693 111.285 150.001 107.361 150.001 102.565C150.001 97.769 148.802 93.954 146.404 91.011C144.006 88.068 140.409 86.542 135.722 86.542C130.926 86.542 127.438 88.068 125.04 91.011C122.642 93.954 121.443 97.769 121.443 102.565C121.443 107.361 122.642 111.285 125.04 114.119C127.438 117.062 131.035 118.479 135.722 118.479Z" fill="white"/>
<path d="M75.9999 126C74.4739 126 73.7109 125.673 73.7109 124.801V116.299C73.7109 115.645 73.9289 115.209 74.3649 114.991C74.8009 114.882 75.3459 114.773 75.9999 114.773H94.6389C96.1649 114.773 97.0369 115.209 97.0369 115.972V124.474C97.0369 125.237 96.7099 125.673 96.2739 125.782C95.8379 126 95.2929 126 94.6389 126H75.9999Z" fill="white"/>
<path d="M62.6675 27.0957C69.4841 27.0942 70.4561 29.6713 65.4618 34.3106L51.93 46.8805C49.551 49.0905 47.5901 51.7114 46.1416 54.6175L44.7409 57.4275C44.7169 57.4765 44.6816 57.519 44.6378 57.5512C44.594 57.5834 44.5432 57.6043 44.4896 57.6122L36.6899 58.7391C36.6706 58.7416 36.6525 58.7496 36.6377 58.7622C36.6229 58.7748 36.612 58.7915 36.6062 58.8103C36.6004 58.8292 36.6 58.8495 36.605 58.869C36.61 58.8884 36.6202 58.9061 36.6345 58.9202L42.2728 64.4144C42.3688 64.508 42.4058 64.6213 42.3836 64.7543L41.0572 72.4727C41.0276 72.6452 41.0892 72.6907 41.2419 72.6094L47.6632 69.2456C47.9478 69.0965 48.3655 69.2326 48.3655 69.5538V69.5538C48.3638 75.4824 51.2383 81.8492 53.0827 88.0715C54.4196 92.5816 50.4964 96.2653 45.8235 95.7242V95.7242V95.7242C45.2345 95.7242 44.6926 95.6509 44.1048 95.6884C42.2111 95.8091 42.0018 95.8091 39.0769 95.8091C36.605 95.7242 34.9855 95.8067 32.9805 95.8091C26.2721 95.8196 19.668 95.8318 13.0435 95.8311C5.30614 95.8303 0.026356 90.5297 0.026356 82.7923V82.7923C0.01404 67.353 0.0165048 51.9887 0.0337472 36.6996C0.037442 32.3619 2.74204 28.5711 6.94303 27.4331C7.74604 27.2163 10.1293 27.0928 11.9201 27.0928C20.6025 27.103 47.5297 27.0991 62.6675 27.0957ZM14.8573 57.5272C14.8486 57.544 14.836 57.5585 14.8206 57.5694C14.8052 57.5804 14.7874 57.5874 14.7686 57.59L6.86913 58.7354C6.84765 58.7387 6.8275 58.7479 6.81089 58.7619C6.79429 58.776 6.78186 58.7943 6.77499 58.8149C6.76812 58.8355 6.76706 58.8576 6.77194 58.8788C6.77681 58.9 6.78743 58.9194 6.80263 58.935L12.5185 64.5104C12.5325 64.5241 12.5428 64.5411 12.5486 64.5598C12.5544 64.5785 12.5555 64.5984 12.5517 64.6176L11.1994 72.5245C11.1957 72.5461 11.198 72.5683 11.2062 72.5886C11.2144 72.609 11.228 72.6267 11.2457 72.6397C11.2633 72.6527 11.2842 72.6606 11.3061 72.6624C11.3279 72.6643 11.3499 72.66 11.3694 72.6501L18.4708 68.9146C18.4879 68.9056 18.5069 68.9008 18.5263 68.9008C18.5456 68.9008 18.5646 68.9056 18.5817 68.9146L25.6535 72.6279C25.6731 72.6378 25.695 72.6421 25.7169 72.6403C25.7387 72.6384 25.7596 72.6306 25.7773 72.6175C25.7949 72.6045 25.8086 72.5868 25.8167 72.5665C25.8249 72.5461 25.8272 72.5239 25.8235 72.5023L24.4675 64.625C24.4637 64.6057 24.4648 64.5859 24.4706 64.5672C24.4764 64.5485 24.4868 64.5315 24.5007 64.5178L30.2573 58.9239C30.2724 58.9086 30.2831 58.8894 30.2882 58.8685C30.2932 58.8476 30.2925 58.8257 30.286 58.8052C30.2796 58.7846 30.2676 58.7663 30.2515 58.752C30.2353 58.7378 30.2156 58.7282 30.1944 58.7243L22.2469 57.5679C22.2282 57.5653 22.2104 57.5582 22.1949 57.5473C22.1795 57.5363 22.1669 57.5219 22.1582 57.5051L18.6149 50.3298C18.6054 50.3094 18.5903 50.2921 18.5713 50.28C18.5523 50.2679 18.5303 50.2615 18.5078 50.2615C18.4853 50.2615 18.4632 50.2679 18.4443 50.28C18.4253 50.2921 18.4101 50.3094 18.4006 50.3298L14.8573 57.5272Z" fill="#F1F1F1"/>
<path d="M48.8089 50.9099L48.4985 51.235C48.4148 51.3262 48.3729 51.4346 48.3729 51.5602V68.9331C48.2547 69.0095 48.2005 69.0181 48.2103 68.959L41.2419 72.6095C41.0892 72.6908 41.0276 72.6452 41.0572 72.4728L42.3836 64.7543C42.4058 64.6213 42.3688 64.508 42.2728 64.4144L36.6345 58.9202C36.6202 58.9062 36.61 58.8884 36.605 58.869C36.6 58.8496 36.6004 58.8293 36.6062 58.8104C36.612 58.7915 36.6229 58.7748 36.6377 58.7622C36.6525 58.7496 36.6706 58.7417 36.6899 58.7392L44.4897 57.6123C44.5432 57.6044 44.594 57.5834 44.6378 57.5512C44.6816 57.519 44.717 57.4766 44.7409 57.4275L48.3322 50.2227C48.4825 50.2867 48.6414 50.5158 48.8089 50.9099Z" fill="#B7B3BF"/>
<path d="M14.8579 57.5265L18.4012 50.329C18.4107 50.3086 18.4259 50.2913 18.4449 50.2793C18.4638 50.2672 18.4859 50.2607 18.5084 50.2607C18.5309 50.2607 18.5529 50.2672 18.5719 50.2793C18.5909 50.2913 18.606 50.3086 18.6155 50.329L22.1588 57.5043C22.1675 57.5211 22.1801 57.5356 22.1955 57.5465C22.211 57.5574 22.2288 57.5645 22.2475 57.5671L30.195 58.7236C30.2162 58.7274 30.236 58.737 30.2521 58.7513C30.2682 58.7655 30.2802 58.7839 30.2866 58.8044C30.2931 58.8249 30.2938 58.8468 30.2888 58.8678C30.2837 58.8887 30.273 58.9078 30.2579 58.9231L24.5014 64.517C24.4874 64.5308 24.477 64.5477 24.4712 64.5664C24.4654 64.5851 24.4643 64.605 24.4681 64.6242L25.8241 72.5015C25.8278 72.5231 25.8255 72.5453 25.8173 72.5657C25.8092 72.586 25.7955 72.6037 25.7779 72.6168C25.7602 72.6298 25.7393 72.6377 25.7175 72.6395C25.6956 72.6413 25.6737 72.6371 25.6541 72.6271L18.5823 68.9139C18.5652 68.9048 18.5462 68.9001 18.5269 68.9001C18.5075 68.9001 18.4885 68.9048 18.4714 68.9139L11.37 72.6493C11.3505 72.6592 11.3285 72.6635 11.3067 72.6617C11.2848 72.6598 11.2639 72.652 11.2463 72.6389C11.2286 72.6259 11.215 72.6082 11.2068 72.5879C11.1987 72.5675 11.1963 72.5453 11.2001 72.5237L12.5524 64.6168C12.5561 64.5976 12.5551 64.5777 12.5493 64.559C12.5434 64.5403 12.5331 64.5234 12.5191 64.5097L6.80324 58.9342C6.78804 58.9187 6.77742 58.8992 6.77254 58.8781C6.76767 58.8569 6.76873 58.8348 6.7756 58.8141C6.78247 58.7935 6.79489 58.7752 6.8115 58.7612C6.82811 58.7472 6.84826 58.738 6.86974 58.7347L14.7692 57.5893C14.788 57.5867 14.8058 57.5796 14.8212 57.5687C14.8366 57.5577 14.8492 57.5433 14.8579 57.5265Z" fill="#B7B3BF"/>
<path d="M72.2266 64.5131L66.4922 58.9228C66.4776 58.9085 66.4673 58.8905 66.4623 58.8706C66.4573 58.8508 66.458 58.83 66.4641 58.8105C66.4702 58.791 66.4816 58.7736 66.497 58.7601C66.5124 58.7467 66.5312 58.7378 66.5513 58.7344L74.473 57.5927C74.4909 57.5905 74.508 57.584 74.5228 57.5737C74.5376 57.5634 74.5497 57.5496 74.558 57.5336L78.1161 50.3213C78.1252 50.3026 78.1393 50.2868 78.157 50.2757C78.1746 50.2647 78.195 50.2588 78.2158 50.2588C78.2367 50.2588 78.2571 50.2647 78.2747 50.2757C78.2923 50.2868 78.3065 50.3026 78.3156 50.3213L81.8589 57.5077C81.8672 57.5237 81.8793 57.5375 81.8941 57.5478C81.9089 57.5581 81.926 57.5646 81.9439 57.5668L89.9099 58.7233C89.93 58.7267 89.9489 58.7356 89.9643 58.7491C89.9797 58.7625 89.991 58.7799 89.9972 58.7994C90.0033 58.8189 90.0039 58.8397 89.9989 58.8595C89.994 58.8794 89.9836 58.8974 89.969 58.9117L84.2051 64.5241C84.1924 64.5371 84.1831 64.5529 84.1779 64.5703C84.1727 64.5877 84.1719 64.6061 84.1756 64.6239L85.5279 72.5123C85.5319 72.533 85.53 72.5545 85.5223 72.5742C85.5145 72.5938 85.5014 72.6109 85.4843 72.6233C85.4672 72.6357 85.4469 72.643 85.4258 72.6443C85.4048 72.6456 85.3837 72.6408 85.3653 72.6305L78.2786 68.9099C78.2627 68.9015 78.2449 68.8971 78.2269 68.8971C78.2089 68.8971 78.1911 68.9015 78.1752 68.9099L71.059 72.6564C71.0405 72.6667 71.0195 72.6714 70.9984 72.6701C70.9774 72.6688 70.9571 72.6616 70.94 72.6491C70.9229 72.6367 70.9097 72.6197 70.902 72.6C70.8943 72.5804 70.8924 72.5589 70.8964 72.5382L72.2561 64.6128C72.2597 64.595 72.2589 64.5767 72.2538 64.5593C72.2486 64.5419 72.2393 64.526 72.2266 64.5131Z" fill="#B7B3BF"/>
<path d="M48.809 50.9092L51.9644 57.3049C52.0309 57.4404 52.1393 57.5167 52.2895 57.534C53.7157 57.7162 55.1592 57.9244 56.6199 58.1584C57.8244 58.3505 59.0067 58.3949 60.1779 58.7865C60.1924 58.7914 60.2053 58.7999 60.2155 58.8112C60.2257 58.8225 60.2328 58.8362 60.2361 58.8511C60.2394 58.8659 60.2389 58.8814 60.2345 58.8959C60.2302 58.9105 60.2221 58.9237 60.2112 58.9343L54.5286 64.4469C54.4832 64.4902 54.4493 64.5439 54.4299 64.6033C54.4106 64.6626 54.4064 64.7257 54.4177 64.7869L55.7627 72.557C55.7675 72.5851 55.7644 72.614 55.7536 72.6403C55.7428 72.6666 55.7248 72.6894 55.7016 72.706C55.6785 72.7226 55.6511 72.7323 55.6227 72.7341C55.5943 72.7358 55.566 72.7295 55.541 72.7159L48.373 68.9324V51.5595C48.373 51.4338 48.4149 51.3255 48.4987 51.2343L48.809 50.9092Z" fill="#B7B3BF"/>
<path d="M48.3562 95.8088C48.3611 87.0374 48.3648 78.2856 48.3673 69.5536C48.3673 69.354 48.2749 69.1619 48.2121 68.9587C48.2022 69.0178 48.2564 69.0092 48.3746 68.9328L55.5426 72.7163C55.5676 72.7299 55.5959 72.7362 55.6243 72.7345C55.6527 72.7327 55.6801 72.723 55.7032 72.7064C55.7264 72.6898 55.7444 72.667 55.7552 72.6407C55.766 72.6144 55.7691 72.5855 55.7643 72.5574L54.4193 64.7873C54.408 64.7261 54.4122 64.663 54.4315 64.6037C54.4509 64.5443 54.4848 64.4906 54.5302 64.4473L60.2128 58.9347C60.2237 58.9241 60.2318 58.9109 60.2361 58.8963C60.2405 58.8818 60.241 58.8663 60.2377 58.8515C60.2344 58.8366 60.2273 58.8229 60.2171 58.8116C60.2069 58.8003 60.194 58.7918 60.1795 58.7869C59.0083 58.3953 57.826 58.3509 56.6215 58.1588C55.1608 57.9248 53.7173 57.7166 52.2911 57.5344C52.1409 57.5171 52.0325 57.4408 51.966 57.3053L48.8106 50.9096C48.6431 50.5155 48.4843 50.2864 48.334 50.2223L48.3673 27.0596C60.6192 27.0054 72.8503 26.9882 85.0604 27.0079C87.6221 27.0128 89.3784 27.1877 90.3292 27.5325C94.4378 29.0179 96.8135 32.624 96.8135 36.9469C96.8111 52.9331 96.8086 69.3122 96.8061 86.0841C96.8061 86.9807 96.6842 87.897 96.4404 88.8331C95.2987 93.2151 91.2455 95.868 86.9262 95.8643C83.4014 95.8643 79.9 95.863 76.4219 95.8606C76.3283 95.8606 76.2815 95.9074 76.2815 96.001L75 115.5C75 115.707 74 125.5 74 125.5L52.1729 96.0195C52.0818 95.9308 51.9721 95.884 51.8441 95.8791L48.3562 95.8088ZM72.2283 64.5139C72.241 64.5268 72.2504 64.5427 72.2555 64.56C72.2607 64.5774 72.2615 64.5958 72.2579 64.6136L70.8982 72.539C70.8941 72.5597 70.8961 72.5811 70.9038 72.6008C70.9115 72.6205 70.9247 72.6375 70.9418 72.6499C70.9588 72.6624 70.9791 72.6696 71.0002 72.6709C71.0213 72.6722 71.0423 72.6675 71.0607 72.6572L78.1769 68.9107C78.1929 68.9023 78.2106 68.8979 78.2287 68.8979C78.2467 68.8979 78.2645 68.9023 78.2804 68.9107L85.367 72.6313C85.3855 72.6416 85.4065 72.6463 85.4276 72.6451C85.4487 72.6438 85.4689 72.6365 85.486 72.6241C85.5031 72.6116 85.5163 72.5946 85.524 72.5749C85.5317 72.5553 85.5337 72.5338 85.5296 72.5131L84.1773 64.6247C84.1737 64.6069 84.1745 64.5885 84.1796 64.5711C84.1848 64.5537 84.1942 64.5379 84.2069 64.5249L89.9708 58.9125C89.9853 58.8982 89.9957 58.8802 90.0007 58.8603C90.0056 58.8405 90.005 58.8197 89.9989 58.8002C89.9928 58.7807 89.9814 58.7633 89.966 58.7498C89.9506 58.7364 89.9318 58.7275 89.9116 58.7241L81.9456 57.5676C81.9277 57.5654 81.9106 57.5589 81.8958 57.5486C81.881 57.5383 81.8689 57.5245 81.8607 57.5085L78.3173 50.3221C78.3083 50.3034 78.2941 50.2876 78.2765 50.2765C78.2588 50.2654 78.2384 50.2596 78.2176 50.2596C78.1968 50.2596 78.1764 50.2654 78.1587 50.2765C78.1411 50.2876 78.1269 50.3034 78.1178 50.3221L74.5597 57.5344C74.5514 57.5504 74.5394 57.5642 74.5246 57.5745C74.5097 57.5848 74.4926 57.5913 74.4747 57.5935L66.5531 58.7352C66.5329 58.7386 66.5141 58.7475 66.4987 58.7609C66.4833 58.7744 66.4719 58.7918 66.4658 58.8113C66.4597 58.8308 66.4591 58.8516 66.4641 58.8714C66.469 58.8912 66.4794 58.9093 66.494 58.9236L72.2283 64.5139Z" fill="white"/>
<path d="M286.2 92.6559C276.196 90.8359 267.189 86.8122 271.036 80.9531C274.937 75.8985 284.068 84.7148 286.2 92.6559Z" stroke="white" stroke-width="3"/>
<path d="M306.444 87.3173C307.385 77.193 309.631 67.6794 316.78 71.1905C322.156 74.6367 314.169 84.5008 306.444 87.3173Z" stroke="white" stroke-width="3"/>
<path d="M296.216 91.4836C289.96 79.6253 274.296 56.6341 291.122 54.0178C298.701 52.8393 305.768 71.3711 296.216 91.4836Z" stroke="white" stroke-width="3"/>
<path d="M656.716 47.733C658.133 47.733 659.55 47.406 660.967 46.534C662.275 45.662 663.583 44.681 664.782 43.373C664.128 43.264 663.365 43.046 662.602 42.61C661.73 42.174 660.967 41.629 660.313 40.975C659.55 40.321 658.896 39.558 658.46 38.686C658.024 37.814 657.806 36.833 657.806 35.743C657.806 33.454 658.46 31.71 659.768 30.62C661.076 29.53 662.82 28.876 664.782 28.876C666.744 28.876 668.488 29.53 669.905 30.729C671.213 32.037 671.976 33.999 671.976 36.615C671.976 38.359 671.431 40.103 670.559 41.847C669.687 43.591 668.488 45.226 667.071 46.643C665.545 48.06 663.91 49.15 662.166 50.022C660.313 50.894 658.46 51.33 656.716 51.33V47.733ZM661.73 36.07C661.73 37.16 662.166 38.141 663.256 38.904C664.237 39.776 665.436 40.212 666.744 40.43C667.071 39.776 667.398 39.013 667.616 38.359C667.834 37.705 668.052 37.051 668.052 36.397C668.052 35.307 667.725 34.326 667.18 33.563C666.526 32.909 665.763 32.473 664.782 32.473C663.91 32.473 663.147 32.8 662.602 33.454C661.948 34.108 661.73 34.98 661.73 36.07Z" fill="white"/>
<path d="M578.716 34.733C580.133 34.733 581.55 34.406 582.967 33.534C584.275 32.662 585.583 31.681 586.782 30.373C586.128 30.264 585.365 30.046 584.602 29.61C583.73 29.174 582.967 28.629 582.313 27.975C581.55 27.321 580.896 26.558 580.46 25.686C580.024 24.814 579.806 23.833 579.806 22.743C579.806 20.454 580.46 18.71 581.768 17.62C583.076 16.53 584.82 15.876 586.782 15.876C588.744 15.876 590.488 16.53 591.905 17.729C593.213 19.037 593.976 20.999 593.976 23.615C593.976 25.359 593.431 27.103 592.559 28.847C591.687 30.591 590.488 32.226 589.071 33.643C587.545 35.06 585.91 36.15 584.166 37.022C582.313 37.894 580.46 38.33 578.716 38.33V34.733ZM583.73 23.07C583.73 24.16 584.166 25.141 585.256 25.904C586.237 26.776 587.436 27.212 588.744 27.43C589.071 26.776 589.398 26.013 589.616 25.359C589.834 24.705 590.052 24.051 590.052 23.397C590.052 22.307 589.725 21.326 589.18 20.563C588.526 19.909 587.763 19.473 586.782 19.473C585.91 19.473 585.147 19.8 584.602 20.454C583.948 21.108 583.73 21.98 583.73 23.07Z" fill="white"/>
</svg>
