<svg width="533" height="133" viewBox="0 0 533 133" fill="none" xmlns="http://www.w3.org/2000/svg">
<path d="M22.1792 95.7453C14.593 97.1773 7.11333 96.7761 8.24584 91.5763C9.63611 86.9318 18.5068 90.6967 22.1792 95.7453Z" stroke="#381668" stroke-width="3"/>
<path d="M35.0751 86.4546C32.9875 79.0221 31.9911 71.6674 38.014 72.2109C42.7619 73.1911 39.7845 82.3562 35.0751 86.4546Z" stroke="#381668" stroke-width="3"/>
<path d="M28.9588 92.1887C21.298 85.4854 3.93913 73.4506 15.1541 67.0178C20.2057 64.1202 30.2576 75.3331 28.9588 92.1887Z" stroke="#381668" stroke-width="3"/>
<path d="M496.031 114.536H500.553V70L504.871 68V118.242H496.031V114.536Z" fill="#381668"/>
<path d="M485.837 106.376C485.021 106.376 484.364 106.478 483.865 106.682C483.389 106.886 483.015 107.135 482.743 107.43C482.494 107.702 482.324 108.008 482.233 108.348C482.165 108.688 482.131 108.994 482.131 109.266C482.131 109.606 482.177 110.002 482.267 110.456C482.358 110.909 482.528 111.362 482.777 111.816C483.049 112.269 483.423 112.7 483.899 113.108C484.398 113.493 485.044 113.799 485.837 114.026C486.631 113.822 487.277 113.527 487.775 113.142C488.274 112.734 488.659 112.303 488.931 111.85C489.203 111.396 489.385 110.943 489.475 110.49C489.566 110.014 489.611 109.606 489.611 109.266C489.611 108.994 489.577 108.688 489.509 108.348C489.441 108.008 489.271 107.702 488.999 107.43C488.75 107.135 488.376 106.886 487.877 106.682C487.379 106.478 486.699 106.376 485.837 106.376ZM475.943 118.242V114.536H480.805C480.057 114.105 479.457 113.47 479.003 112.632C478.55 111.793 478.323 110.909 478.323 109.98C478.323 108.869 478.505 107.883 478.867 107.022C479.23 106.16 479.74 105.435 480.397 104.846C481.055 104.256 481.848 103.803 482.777 103.486C483.707 103.168 484.738 103.01 485.871 103.01C488.229 103.01 490.076 103.622 491.413 104.846C492.751 106.047 493.419 107.758 493.419 109.98C493.419 110.909 493.204 111.793 492.773 112.632C492.365 113.47 491.787 114.105 491.039 114.536H497.057V118.242H488.353H483.355H475.943ZM483.253 98.9637C483.253 98.2384 483.503 97.6264 484.001 97.1277C484.523 96.6064 485.146 96.3457 485.871 96.3457C486.574 96.3457 487.163 96.6064 487.639 97.1277C488.138 97.6264 488.387 98.2384 488.387 98.9637C488.387 99.6664 488.138 100.267 487.639 100.766C487.163 101.242 486.574 101.48 485.871 101.48C485.146 101.48 484.523 101.242 484.001 100.766C483.503 100.267 483.253 99.6664 483.253 98.9637Z" fill="#381668"/>
<path d="M483.776 90.1775C483.776 90.3589 483.765 90.5855 483.742 90.8575C483.742 91.1295 483.765 91.3902 483.81 91.6395C483.856 91.8662 483.935 92.0702 484.048 92.2515C484.184 92.4102 484.377 92.4895 484.626 92.4895C484.944 92.4895 485.182 92.3535 485.34 92.0815C485.522 91.8095 485.612 91.4809 485.612 91.0955V89.8715L487.176 89.4635V90.6195C487.176 90.9595 487.233 91.2429 487.346 91.4695C487.482 91.6735 487.686 91.7755 487.958 91.7755C488.276 91.7755 488.514 91.6509 488.672 91.4015C488.854 91.1522 488.944 90.8349 488.944 90.4495V89.1575L490.508 88.7495V90.2115C490.508 91.3449 490.27 92.1722 489.794 92.6935C489.318 93.2149 488.763 93.4755 488.128 93.4755C487.834 93.4755 487.516 93.4302 487.176 93.3395C486.836 93.2262 486.576 93.0789 486.394 92.8975C486.145 93.2829 485.873 93.5889 485.578 93.8155C485.284 94.0195 484.932 94.1215 484.524 94.1215C484.139 94.1215 483.81 94.0535 483.538 93.9175C483.289 93.7589 483.085 93.5662 482.926 93.3395C482.768 93.0902 482.654 92.8295 482.586 92.5575C482.518 92.2629 482.484 91.9682 482.484 91.6735V90.5515L483.776 90.1775ZM482.518 87.6955L490.168 85.5195V87.2195L482.518 89.3955V87.6955Z" fill="#381668"/>
<path d="M464.492 114.535H476.8V118.241H464.492V114.535Z" fill="#381668"/>
<path d="M452.871 114.535H465.179V118.241H452.871V114.535Z" fill="#381668"/>
<path d="M434.246 112.054C434.246 111.102 434.518 110.172 435.062 109.266C435.629 108.359 436.501 107.543 437.68 106.818C438.859 106.092 440.366 105.469 442.202 104.948C444.061 104.426 446.271 104.075 448.832 103.894V114.536H453.728V118.242H446.112C445.863 118.083 445.647 117.879 445.466 117.63C445.307 117.38 445.171 117.131 445.058 116.882C444.945 116.61 444.854 116.326 444.786 116.032C444.673 116.462 444.446 116.836 444.106 117.154C443.811 117.426 443.381 117.675 442.814 117.902C442.27 118.128 441.522 118.242 440.57 118.242C438.258 118.242 436.626 117.698 435.674 116.61C434.722 115.499 434.246 113.98 434.246 112.054ZM438.36 111.442V112.53C438.36 113.187 438.553 113.686 438.938 114.026C439.323 114.366 439.947 114.536 440.808 114.536H444.718V107.77C443.766 107.951 442.893 108.178 442.1 108.45C441.329 108.722 440.672 109.016 440.128 109.334C439.584 109.651 439.153 109.991 438.836 110.354C438.541 110.716 438.383 111.079 438.36 111.442ZM437.068 98.9637C437.068 98.2384 437.317 97.6264 437.816 97.1277C438.337 96.6064 438.961 96.3457 439.686 96.3457C440.389 96.3457 440.978 96.6064 441.454 97.1277C441.953 97.6264 442.202 98.2384 442.202 98.9637C442.202 99.6664 441.953 100.267 441.454 100.766C440.978 101.242 440.389 101.48 439.686 101.48C438.961 101.48 438.337 101.242 437.816 100.766C437.317 100.267 437.068 99.6664 437.068 98.9637ZM443.8 98.9637C443.8 98.2384 444.049 97.6264 444.548 97.1277C445.069 96.6064 445.693 96.3457 446.418 96.3457C447.121 96.3457 447.71 96.6064 448.186 97.1277C448.685 97.6264 448.934 98.2384 448.934 98.9637C448.934 99.6664 448.685 100.267 448.186 100.766C447.71 101.242 447.121 101.48 446.418 101.48C445.693 101.48 445.069 101.242 444.548 100.766C444.049 100.267 443.8 99.6664 443.8 98.9637Z" fill="#381668"/>
<path d="M402.199 114.535H407.639C407.186 113.946 406.88 113.232 406.721 112.393C406.585 111.532 406.517 110.625 406.517 109.673C406.517 107.837 407.254 106.387 408.727 105.321C410.223 104.233 412.275 103.655 414.881 103.587C415.833 103.542 416.91 103.599 418.111 103.757C419.313 103.916 420.457 104.097 421.545 104.301V108.109C421.205 108.019 420.775 107.917 420.253 107.803C419.755 107.69 419.199 107.588 418.587 107.497C417.998 107.407 417.375 107.339 416.717 107.293C416.083 107.225 415.459 107.191 414.847 107.191C414.349 107.191 413.884 107.225 413.453 107.293C413.023 107.361 412.637 107.497 412.297 107.701C411.98 107.905 411.731 108.189 411.549 108.551C411.368 108.914 411.277 109.379 411.277 109.945C411.277 111.169 411.391 112.144 411.617 112.869C411.867 113.572 412.184 114.127 412.569 114.535H421.681V118.241H402.199V114.535Z" fill="#381668"/>
<path d="M409.049 96.1496L416.699 93.9736V95.6736L409.049 97.8496V96.1496Z" fill="#381668"/>
<path d="M403.209 114.535V118.241H389.881V114.535H394.403V96.4135L398.721 95.1895V114.535H403.209Z" fill="#381668"/>
<path d="M378.43 114.535H390.738V118.241H378.43V114.535Z" fill="#381668"/>
<path d="M366.809 114.535H379.117V118.241H366.809V114.535Z" fill="#381668"/>
<path d="M357.059 103.758C358.578 103.758 359.847 104.12 360.867 104.846C361.91 105.571 362.748 106.478 363.383 107.566C364.018 108.631 364.482 109.798 364.777 111.068C365.072 112.314 365.264 113.47 365.355 114.536H368.177V118.242H361.683C361.683 116.383 361.592 114.819 361.411 113.55C361.23 112.258 360.992 111.192 360.697 110.354C360.402 109.515 360.074 108.88 359.711 108.45C359.348 107.996 358.974 107.668 358.589 107.464C358.226 107.26 357.886 107.146 357.569 107.124C357.252 107.078 356.98 107.056 356.753 107.056C356.005 107.056 355.325 107.169 354.713 107.396C354.124 107.622 353.614 107.917 353.183 108.28C352.775 108.642 352.446 109.05 352.197 109.504C351.97 109.957 351.857 110.41 351.857 110.864C351.857 111.09 351.902 111.34 351.993 111.612C352.106 111.884 352.344 112.02 352.707 112.02H356.107C356.447 112.02 356.764 112.076 357.059 112.19C357.354 112.28 357.603 112.462 357.807 112.734C358.034 113.006 358.204 113.368 358.317 113.822C358.453 114.275 358.521 114.842 358.521 115.522C358.521 118.582 357.592 120.814 355.733 122.22C353.897 123.648 350.962 124.362 346.927 124.362C345.431 124.362 344.082 124.146 342.881 123.716C341.68 123.285 340.66 122.718 339.821 122.016C338.982 121.336 338.336 120.565 337.883 119.704C337.43 118.865 337.203 118.026 337.203 117.188C337.203 115.918 337.316 114.83 337.543 113.924C337.792 112.994 338.076 112.201 338.393 111.544C338.733 110.886 339.084 110.32 339.447 109.844C339.81 109.345 340.116 108.88 340.365 108.45H342.983C342.394 109.424 341.884 110.546 341.453 111.816C341.022 113.085 340.807 114.309 340.807 115.488C340.807 116.1 340.932 116.7 341.181 117.29C341.453 117.879 341.838 118.4 342.337 118.854C342.858 119.33 343.482 119.704 344.207 119.976C344.955 120.27 345.805 120.418 346.757 120.418C348.548 120.418 349.919 120.338 350.871 120.18C351.823 120.021 352.526 119.783 352.979 119.466C353.455 119.148 353.761 118.74 353.897 118.242C354.056 117.72 354.226 117.108 354.407 116.406C354.43 116.338 354.441 116.247 354.441 116.134C354.441 115.862 354.26 115.726 353.897 115.726H352.163C351.279 115.726 350.542 115.669 349.953 115.556C349.386 115.42 348.933 115.227 348.593 114.978C348.253 114.706 348.015 114.388 347.879 114.026C347.743 113.64 347.675 113.21 347.675 112.734C347.675 111.85 347.856 110.886 348.219 109.844C348.582 108.778 349.148 107.804 349.919 106.92C350.69 106.013 351.664 105.265 352.843 104.676C354.022 104.064 355.427 103.758 357.059 103.758Z" fill="#381668"/>
<path d="M312.883 114.536H320.567V104.574L324.885 103.35L324.919 118.242H312.883V114.536ZM317.031 123.75C317.031 123.024 317.28 122.401 317.779 121.88C318.3 121.381 318.924 121.132 319.649 121.132C320.352 121.132 320.941 121.381 321.417 121.88C321.915 122.401 322.165 123.024 322.165 123.75C322.165 124.452 321.915 125.042 321.417 125.518C320.941 126.016 320.352 126.266 319.649 126.266C318.924 126.266 318.3 126.016 317.779 125.518C317.28 125.042 317.031 124.452 317.031 123.75Z" fill="#381668"/>
<path d="M306.201 118.242C305.476 118.242 304.853 118.128 304.331 117.902C303.81 117.652 303.357 117.188 302.971 116.508C302.586 117.188 302.133 117.652 301.611 117.902C301.09 118.128 300.467 118.242 299.741 118.242H292.363V114.536H298.619L294.029 108.688C295.208 106.874 296.534 105.56 298.007 104.744C299.503 103.928 301.158 103.52 302.971 103.52C304.785 103.52 306.428 103.928 307.901 104.744C309.397 105.537 310.746 106.84 311.947 108.654L307.357 114.536H313.919V118.242H306.201ZM307.561 108.722C307.312 108.427 307.006 108.178 306.643 107.974C306.281 107.747 305.884 107.554 305.453 107.396C305.045 107.237 304.615 107.124 304.161 107.056C303.731 106.965 303.334 106.92 302.971 106.92C302.586 106.92 302.167 106.965 301.713 107.056C301.283 107.146 300.852 107.271 300.421 107.43C300.013 107.566 299.628 107.747 299.265 107.974C298.925 108.2 298.653 108.45 298.449 108.722L302.971 114.536L307.561 108.722Z" fill="#381668"/>
<path d="M280.912 114.535H293.22V118.241H280.912V114.535Z" fill="#381668"/>
<path d="M287.054 102.795C287.644 102.795 288.018 102.682 288.176 102.455C288.335 102.206 288.414 101.945 288.414 101.673C288.414 101.197 288.301 100.778 288.074 100.415C287.848 100.03 287.508 99.8373 287.054 99.8373C286.601 99.8373 286.261 100.03 286.034 100.415C285.808 100.778 285.694 101.197 285.694 101.673C285.694 101.945 285.774 102.206 285.932 102.455C286.091 102.682 286.465 102.795 287.054 102.795ZM287.02 104.121C286.476 104.121 286.023 104.053 285.66 103.917C285.298 103.759 285.003 103.566 284.776 103.339C284.572 103.113 284.425 102.852 284.334 102.557C284.266 102.263 284.232 101.968 284.232 101.673C284.232 101.311 284.289 100.948 284.402 100.585C284.516 100.223 284.686 99.894 284.912 99.5993C285.162 99.3046 285.456 99.0666 285.796 98.8853C286.159 98.7039 286.578 98.6133 287.054 98.6133C287.53 98.6133 287.938 98.7039 288.278 98.8853C288.641 99.0666 288.936 99.3046 289.162 99.5993C289.412 99.894 289.593 100.223 289.706 100.585C289.82 100.948 289.876 101.311 289.876 101.673C289.876 101.968 289.831 102.263 289.74 102.557C289.672 102.852 289.525 103.124 289.298 103.373C289.094 103.6 288.8 103.781 288.414 103.917C288.052 104.053 287.587 104.121 287.02 104.121Z" fill="#381668"/>
<path d="M269.291 114.535H281.599V118.241H269.291V114.535Z" fill="#381668"/>
<path d="M262.658 114.536V112.7C262.658 111.408 262.307 110.365 261.604 109.572C260.902 108.778 259.904 108.382 258.612 108.382C255.96 108.382 252.957 110.433 249.602 114.536H262.658ZM245.522 114.536V106.24L249.84 105.016L249.874 110.014C251.891 108.087 253.761 106.648 255.484 105.696C257.229 104.744 258.986 104.268 260.754 104.268C262.114 104.268 263.202 104.619 264.018 105.322C264.857 106.002 265.503 106.863 265.956 107.906C266.432 108.926 266.75 110.036 266.908 111.238C267.067 112.416 267.157 113.516 267.18 114.536H270.138V118.242H242.326V114.536H245.522ZM254.634 98.9637C254.634 98.2384 254.884 97.6264 255.382 97.1277C255.904 96.6064 256.527 96.3457 257.252 96.3457C257.955 96.3457 258.544 96.6064 259.02 97.1277C259.519 97.6264 259.768 98.2384 259.768 98.9637C259.768 99.6664 259.519 100.267 259.02 100.766C258.544 101.242 257.955 101.48 257.252 101.48C256.527 101.48 255.904 101.242 255.382 100.766C254.884 100.267 254.634 99.6664 254.634 98.9637Z" fill="#381668"/>
<path d="M230.875 114.535H243.183V118.241H230.875V114.535Z" fill="#381668"/>
<path d="M219.254 114.535H231.562V118.241H219.254V114.535Z" fill="#381668"/>
<path d="M207.633 114.535H219.941V118.241H207.633V114.535Z" fill="#381668"/>
<path d="M197.895 115.283C197.849 115.872 197.589 116.62 197.113 117.527C196.206 119.386 195.345 120.315 194.529 120.315C194.234 120.315 193.917 120.236 193.577 120.077C192.897 119.805 191.967 119.386 190.789 118.819C189.633 118.252 188.227 117.55 186.573 116.711C186.187 117.391 185.745 117.833 185.247 118.037C184.861 118.173 184.227 118.241 183.343 118.241H181.133V114.535H183.649C184.329 112.971 185.043 111.554 185.791 110.285C186.539 108.993 187.275 107.905 188.001 107.021C188.749 106.114 189.463 105.412 190.143 104.913C190.845 104.414 191.491 104.165 192.081 104.165C193.577 104.165 194.823 105.23 195.821 107.361C196.115 107.996 196.41 108.8 196.705 109.775C196.999 110.727 197.317 111.883 197.657 113.243C197.861 114.172 197.94 114.852 197.895 115.283ZM194.087 115.861C193.815 113.821 193.452 112.178 192.999 110.931C192.568 109.662 192.024 109.027 191.367 109.027C191.14 109.027 190.743 109.288 190.177 109.809C189.837 110.149 189.474 110.625 189.089 111.237C188.726 111.826 188.42 112.359 188.171 112.835C189.123 113.56 190.109 114.184 191.129 114.705C192.149 115.204 193.135 115.589 194.087 115.861Z" fill="#381668"/>
<path d="M186.621 97.1496L194.271 94.9736V96.6736L186.621 98.8496V97.1496Z" fill="#381668"/>
<path d="M150.387 114.536H155.827V104.574L160.145 103.35V114.536H164.463V104.574L168.781 103.35V114.536H172.997V104.574L177.315 103.35V114.536H182.143V118.242H150.387V114.536ZM160.655 98.9637C160.655 98.2384 160.904 97.6264 161.403 97.1277C161.924 96.6064 162.547 96.3457 163.273 96.3457C163.975 96.3457 164.565 96.6064 165.041 97.1277C165.539 97.6264 165.789 98.2384 165.789 98.9637C165.789 99.6664 165.539 100.267 165.041 100.766C164.565 101.242 163.975 101.48 163.273 101.48C162.547 101.48 161.924 101.242 161.403 100.766C160.904 100.267 160.655 99.6664 160.655 98.9637ZM167.387 98.9637C167.387 98.2384 167.636 97.6264 168.135 97.1277C168.656 96.6064 169.279 96.3457 170.005 96.3457C170.707 96.3457 171.297 96.6064 171.773 97.1277C172.271 97.6264 172.521 98.2384 172.521 98.9637C172.521 99.6664 172.271 100.267 171.773 100.766C171.297 101.242 170.707 101.48 170.005 101.48C169.279 101.48 168.656 101.242 168.135 100.766C167.636 100.267 167.387 99.6664 167.387 98.9637ZM163.885 92.5037C163.885 91.7784 164.134 91.1664 164.633 90.6677C165.154 90.1464 165.777 89.8857 166.503 89.8857C167.205 89.8857 167.795 90.1464 168.271 90.6677C168.769 91.1664 169.019 91.7784 169.019 92.5037C169.019 93.2064 168.769 93.8071 168.271 94.3057C167.795 94.8044 167.205 95.0537 166.503 95.0537C165.777 95.0537 165.154 94.8044 164.633 94.3057C164.134 93.8071 163.885 93.2064 163.885 92.5037Z" fill="#381668"/>
<path d="M138.936 114.535H151.244V118.241H138.936V114.535Z" fill="#381668"/>
<path d="M127.314 114.535H139.622V118.241H127.314V114.535Z" fill="#381668"/>
<path d="M120.045 96.4135L124.363 95.1895V114.535H128.171V118.241H120.045V96.4135Z" fill="#381668"/>
<path d="M114.966 103.384C115.42 105.922 115.726 108.404 115.884 110.83C116.043 113.232 116.122 115.374 116.122 117.256C116.122 117.414 116.111 117.743 116.088 118.242C116.066 118.74 115.975 119.307 115.816 119.942C115.658 120.599 115.386 121.279 115 121.982C114.638 122.707 114.105 123.364 113.402 123.954C112.7 124.566 111.793 125.064 110.682 125.45C109.594 125.835 108.234 126.028 106.602 126.028L105.82 123.58C106.976 123.489 108.008 123.217 108.914 122.764C109.3 122.56 109.674 122.31 110.036 122.016C110.422 121.721 110.762 121.358 111.056 120.928C111.351 120.52 111.589 120.021 111.77 119.432C111.952 118.865 112.042 118.208 112.042 117.46C112.042 115.397 111.986 113.289 111.872 111.136C111.782 108.96 111.453 106.818 110.886 104.71L114.966 103.384Z" fill="#381668"/>
<path d="M108.262 130.974L115.912 128.798V130.498L108.262 132.674V130.974Z" fill="#381668"/>
<path d="M92.5801 114.536H100.264V104.574L104.582 103.35L104.616 118.242H92.5801V114.536ZM93.0901 123.784C93.0901 123.058 93.3394 122.435 93.8381 121.914C94.3594 121.415 94.9827 121.166 95.7081 121.166C96.4107 121.166 97.0001 121.415 97.4761 121.914C97.9747 122.435 98.2241 123.058 98.2241 123.784C98.2241 124.486 97.9747 125.076 97.4761 125.552C97.0001 126.05 96.4107 126.3 95.7081 126.3C94.9827 126.3 94.3594 126.05 93.8381 125.552C93.3394 125.076 93.0901 124.486 93.0901 123.784ZM99.8221 123.784C99.8221 123.058 100.071 122.435 100.57 121.914C101.091 121.415 101.715 121.166 102.44 121.166C103.143 121.166 103.732 121.415 104.208 121.914C104.707 122.435 104.956 123.058 104.956 123.784C104.956 124.486 104.707 125.076 104.208 125.552C103.732 126.05 103.143 126.3 102.44 126.3C101.715 126.3 101.091 126.05 100.57 125.552C100.071 125.076 99.8221 124.486 99.8221 123.784Z" fill="#381668"/>
<path d="M85.8985 118.242C85.1732 118.242 84.5499 118.128 84.0285 117.902C83.5072 117.652 83.0539 117.188 82.6685 116.508C82.2832 117.188 81.8299 117.652 81.3085 117.902C80.7872 118.128 80.1639 118.242 79.4385 118.242H72.0605V114.536H78.3165L73.7265 108.688C74.9052 106.874 76.2312 105.56 77.7045 104.744C79.2005 103.928 80.8552 103.52 82.6685 103.52C84.4819 103.52 86.1252 103.928 87.5985 104.744C89.0945 105.537 90.4432 106.84 91.6445 108.654L87.0545 114.536H93.6165V118.242H85.8985ZM87.2585 108.722C87.0092 108.427 86.7032 108.178 86.3405 107.974C85.9779 107.747 85.5812 107.554 85.1505 107.396C84.7425 107.237 84.3119 107.124 83.8585 107.056C83.4279 106.965 83.0312 106.92 82.6685 106.92C82.2832 106.92 81.8639 106.965 81.4105 107.056C80.9799 107.146 80.5492 107.271 80.1185 107.43C79.7105 107.566 79.3252 107.747 78.9625 107.974C78.6225 108.2 78.3505 108.45 78.1465 108.722L82.6685 114.536L87.2585 108.722Z" fill="#381668"/>
<path d="M79.0098 124.974L86.6598 122.798V124.498L79.0098 126.674V124.974Z" fill="#381668"/>
<path d="M60.6094 114.535H72.9174V118.241H60.6094V114.535Z" fill="#381668"/>
<path d="M50.8593 103.758C52.378 103.758 53.6473 104.12 54.6673 104.846C55.71 105.571 56.5486 106.478 57.1833 107.566C57.818 108.631 58.2826 109.798 58.5773 111.068C58.872 112.314 59.0646 113.47 59.1553 114.536H61.9773V118.242H55.4833C55.4833 116.383 55.3926 114.819 55.2113 113.55C55.03 112.258 54.792 111.192 54.4973 110.354C54.2026 109.515 53.874 108.88 53.5113 108.45C53.1487 107.996 52.7747 107.668 52.3893 107.464C52.0267 107.26 51.6867 107.146 51.3693 107.124C51.052 107.078 50.78 107.056 50.5533 107.056C49.8053 107.056 49.1253 107.169 48.5133 107.396C47.924 107.622 47.414 107.917 46.9833 108.28C46.5753 108.642 46.2467 109.05 45.9973 109.504C45.7707 109.957 45.6573 110.41 45.6573 110.864C45.6573 111.09 45.7027 111.34 45.7933 111.612C45.9067 111.884 46.1447 112.02 46.5073 112.02H49.9073C50.2473 112.02 50.5647 112.076 50.8593 112.19C51.154 112.28 51.4033 112.462 51.6073 112.734C51.834 113.006 52.004 113.368 52.1173 113.822C52.2533 114.275 52.3213 114.842 52.3213 115.522C52.3213 118.582 51.392 120.814 49.5333 122.22C47.6973 123.648 44.762 124.362 40.7273 124.362C39.2313 124.362 37.8827 124.146 36.6814 123.716C35.48 123.285 34.46 122.718 33.6214 122.016C32.7827 121.336 32.2516 120.536 31.621 119.741C30.9169 118.854 31.0034 118.026 31.0034 117.188C31.0034 115.918 31.1167 114.83 31.3434 113.924C31.5927 112.994 31.876 112.201 32.1934 111.544C32.5334 110.886 32.8847 110.32 33.2474 109.844C33.61 109.345 33.916 108.88 34.1654 108.45L36.6211 108.741C36.0318 109.716 35.684 110.546 35.2534 111.816C34.8227 113.085 34.6074 114.309 34.6074 115.488C34.6074 116.1 34.732 116.7 34.9814 117.29C35.2534 117.879 35.6387 118.4 36.1374 118.854C36.6587 119.33 37.282 119.704 38.0073 119.976C38.7553 120.27 39.6053 120.418 40.5573 120.418C42.348 120.418 43.7193 120.338 44.6713 120.18C45.6233 120.021 46.326 119.783 46.7793 119.466C47.2553 119.148 47.5613 118.74 47.6973 118.242C47.856 117.72 48.026 117.108 48.2073 116.406C48.23 116.338 48.2413 116.247 48.2413 116.134C48.2413 115.862 48.06 115.726 47.6973 115.726H45.9633C45.0793 115.726 44.3427 115.669 43.7533 115.556C43.1867 115.42 42.7333 115.227 42.3933 114.978C42.0533 114.706 41.8153 114.388 41.6793 114.026C41.5433 113.64 41.4753 113.21 41.4753 112.734C41.4753 111.85 41.6567 110.886 42.0193 109.844C42.382 108.778 42.9487 107.804 43.7193 106.92C44.49 106.013 45.4647 105.265 46.6433 104.676C47.822 104.064 49.2273 103.758 50.8593 103.758ZM35.4234 128.612C35.4234 127.886 35.6727 127.263 36.1714 126.742C36.6927 126.243 37.316 125.994 38.0413 125.994C38.744 125.994 39.3333 126.243 39.8093 126.742C40.308 127.263 40.5573 127.886 40.5573 128.612C40.5573 129.314 40.308 129.904 39.8093 130.38C39.3333 130.878 38.744 131.128 38.0413 131.128C37.316 131.128 36.6927 130.878 36.1714 130.38C35.6727 129.904 35.4234 129.314 35.4234 128.612ZM42.1553 128.612C42.1553 127.886 42.4047 127.263 42.9033 126.742C43.4247 126.243 44.048 125.994 44.7733 125.994C45.476 125.994 46.0653 126.243 46.5413 126.742C47.04 127.263 47.2893 127.886 47.2893 128.612C47.2893 129.314 47.04 129.904 46.5413 130.38C46.0653 130.878 45.476 131.128 44.7733 131.128C44.048 131.128 43.4247 130.878 42.9033 130.38C42.4047 129.904 42.1553 129.314 42.1553 128.612Z" fill="#381668"/>
<path d="M486.969 11.1508L486.966 11.1525C486.944 11.1653 486.938 11.1946 486.954 11.2179L494.668 22.8154C494.684 22.8387 494.714 22.8471 494.736 22.8342L494.739 22.8325C494.761 22.8196 494.767 22.7904 494.751 22.7671L487.037 11.1696C487.021 11.1463 486.991 11.1379 486.969 11.1508Z" fill="#F9F9F9"/>
<path d="M472.061 31.5557L472.061 31.5591C472.056 31.5847 472.074 31.6112 472.101 31.6184L485.222 35.1297C485.249 35.1369 485.274 35.1219 485.279 35.0963L485.279 35.0928C485.284 35.0672 485.266 35.0407 485.239 35.0336L472.118 31.5222C472.091 31.5151 472.066 31.5301 472.061 31.5557Z" fill="#F9F9F9"/>
<path d="M488.925 27.1214L489.959 27.825C490.067 27.8973 490.058 27.9261 489.935 27.9113L488.639 27.7612C488.569 27.7531 488.527 27.7812 488.513 27.8454L488.264 28.9354C488.234 29.0697 488.207 29.0664 488.182 28.9254L487.985 27.8024C487.973 27.7286 487.929 27.6881 487.853 27.6809L486.535 27.5628C486.405 27.5506 486.399 27.5234 486.516 27.481L487.525 27.1081C487.548 27.0992 487.566 27.0822 487.577 27.06C487.587 27.0379 487.588 27.0121 487.58 26.9873L487.247 25.8944C487.224 25.8224 487.243 25.812 487.302 25.8632L488.159 26.6241C488.205 26.6654 488.25 26.6697 488.295 26.637L489.223 25.9725C489.329 25.8967 489.355 25.9181 489.3 26.0369L488.871 26.9556C488.84 27.021 488.857 27.0762 488.925 27.1214Z" fill="#F9F9F9"/>
<path d="M499.691 22.0857L500.723 22.7894C500.826 22.8593 500.818 22.8872 500.698 22.8732L499.4 22.7231C499.371 22.7201 499.344 22.7267 499.322 22.7418C499.299 22.7568 499.284 22.7795 499.278 22.806L499.019 23.9264C498.995 24.0354 498.973 24.0328 498.954 23.9187L498.753 22.7655C498.74 22.6916 498.696 22.6511 498.62 22.644L497.289 22.521C497.164 22.5096 497.157 22.4832 497.27 22.4418L498.292 22.0687C498.348 22.0484 498.367 22.0085 498.349 21.949L498.029 20.9153C497.995 20.8064 498.022 20.7908 498.11 20.8685L498.936 21.5958C498.989 21.6421 499.042 21.6463 499.093 21.6084L499.962 20.9689C500.076 20.8853 500.103 20.9076 500.044 21.0357L499.638 21.9225C499.609 21.9869 499.626 22.0414 499.691 22.0857Z" fill="#F9F9F9"/>
<path d="M510.401 7.21558L505.727 19.1079C505.718 19.1308 505.731 19.1586 505.755 19.17L505.758 19.1716C505.783 19.1829 505.81 19.1735 505.819 19.1506L510.493 7.25828C510.502 7.23534 510.489 7.20755 510.465 7.19619L510.462 7.19461C510.437 7.18326 510.41 7.19265 510.401 7.21558Z" fill="#F9F9F9"/>
<path d="M491.275 36.9599L491.93 36.42C491.939 36.4121 491.951 36.408 491.965 36.4085C491.978 36.409 491.991 36.4141 492.001 36.4228C492.012 36.4315 492.02 36.4433 492.023 36.4561C492.026 36.469 492.025 36.482 492.019 36.493L491.633 37.2507C491.627 37.2626 491.626 37.277 491.63 37.2907C491.634 37.3045 491.644 37.3167 491.656 37.3248L492.447 37.8305C492.459 37.8379 492.467 37.8486 492.472 37.8609C492.477 37.8731 492.477 37.8862 492.473 37.8979C492.469 37.9095 492.461 37.919 492.45 37.9248C492.44 37.9306 492.427 37.9322 492.414 37.9295L491.52 37.7235C491.505 37.7201 491.491 37.7221 491.479 37.7291C491.467 37.7361 491.459 37.7476 491.457 37.7612L491.291 38.6111C491.289 38.6238 491.282 38.6349 491.272 38.6424C491.262 38.6499 491.249 38.6533 491.236 38.652C491.222 38.6507 491.21 38.6448 491.199 38.6353C491.189 38.6259 491.182 38.6135 491.18 38.6003L491.016 37.7155C491.013 37.7012 491.005 37.688 490.993 37.6785C490.982 37.6691 490.967 37.6641 490.953 37.6648L490.058 37.686C490.045 37.6862 490.032 37.6818 490.021 37.6737C490.01 37.6655 490.002 37.654 489.998 37.6413C489.994 37.6286 489.995 37.6154 490 37.604C490.005 37.5927 490.014 37.5839 490.026 37.5792L490.816 37.2378C490.828 37.2325 490.838 37.2225 490.843 37.2098C490.847 37.197 490.846 37.1825 490.84 37.1692L490.453 36.331C490.447 36.3187 490.445 36.3049 490.448 36.2923C490.451 36.2797 490.459 36.2691 490.47 36.2625C490.481 36.2559 490.494 36.2536 490.508 36.2562C490.521 36.2588 490.534 36.266 490.543 36.2765L491.198 36.9511C491.208 36.9621 491.222 36.9691 491.236 36.9707C491.251 36.9724 491.265 36.9685 491.275 36.9599Z" fill="#F9F9F9"/>
<path d="M484.212 47.8605L483.676 46.0564C483.642 45.9433 483.671 45.9281 483.761 46.0108L485.17 47.2991C485.224 47.3478 485.278 47.3532 485.331 47.3153L486.893 46.1605C487.01 46.0735 487.038 46.0962 486.976 46.2286L486.216 47.851C486.207 47.8718 486.205 47.8962 486.213 47.9198C486.221 47.9434 486.237 47.9645 486.258 47.9791L488.096 49.2489C488.189 49.313 488.181 49.3379 488.074 49.3238L485.793 49.0348C485.769 49.0318 485.745 49.0371 485.726 49.0499C485.707 49.0627 485.694 49.0821 485.69 49.1047L485.27 51.0346C485.242 51.1647 485.217 51.1618 485.193 51.0258L484.84 49.0343C484.83 48.9697 484.791 48.9345 484.724 48.9289L482.451 48.7345C482.302 48.7219 482.295 48.6909 482.429 48.6415L484.138 48.0145C484.21 47.9889 484.235 47.9375 484.212 47.8605Z" fill="#F9F9F9"/>
<path d="M502.479 31.2727L503.122 30.738C503.131 30.7296 503.144 30.7251 503.158 30.7254C503.171 30.7257 503.185 30.7307 503.196 30.7396C503.207 30.7484 503.215 30.7606 503.219 30.7739C503.222 30.7872 503.221 30.8008 503.215 30.8122L502.848 31.5683C502.842 31.5809 502.841 31.5959 502.846 31.6101C502.851 31.6244 502.861 31.6368 502.874 31.6449L503.657 32.1394C503.669 32.1468 503.679 32.1579 503.684 32.1707C503.689 32.1836 503.69 32.1973 503.686 32.2095C503.682 32.2218 503.673 32.2317 503.662 32.2377C503.65 32.2437 503.637 32.2453 503.623 32.2422L502.739 32.0537C502.724 32.0509 502.71 32.0534 502.698 32.0609C502.687 32.0683 502.679 32.0801 502.676 32.0939L502.517 32.9361C502.514 32.9486 502.507 32.9594 502.497 32.9666C502.487 32.9738 502.474 32.9771 502.461 32.9758C502.448 32.9746 502.435 32.9689 502.424 32.9597C502.414 32.9505 502.407 32.9384 502.404 32.9254L502.222 32.0522C502.219 32.0381 502.211 32.0251 502.199 32.0157C502.187 32.0064 502.173 32.0013 502.159 32.0015L501.276 32.0263C501.263 32.0261 501.251 32.0216 501.24 32.0135C501.229 32.0055 501.221 31.9944 501.217 31.9819C501.212 31.9695 501.212 31.9565 501.217 31.945C501.221 31.9335 501.229 31.9241 501.24 31.9184L502.013 31.5646C502.025 31.5587 502.034 31.5483 502.039 31.5355C502.043 31.5226 502.042 31.5081 502.036 31.4947L501.651 30.6691C501.644 30.6566 501.642 30.6428 501.645 30.6301C501.648 30.6173 501.656 30.6065 501.667 30.5995C501.678 30.5926 501.691 30.5899 501.705 30.5919C501.718 30.594 501.731 30.6007 501.741 30.6108L502.4 31.2665C502.411 31.2773 502.425 31.284 502.44 31.2852C502.455 31.2864 502.469 31.2819 502.479 31.2727Z" fill="#F9F9F9"/>
<path d="M478.278 60.5697L478.918 60.0438C478.927 60.0366 478.94 60.0331 478.953 60.0338C478.965 60.0346 478.978 60.0395 478.989 60.0479C478.999 60.0563 479.007 60.0676 479.011 60.0801C479.014 60.0926 479.014 60.1055 479.009 60.1168L478.646 60.8653C478.64 60.8776 478.64 60.8922 478.644 60.9061C478.649 60.9201 478.658 60.9324 478.671 60.9406L479.444 61.4352C479.456 61.4427 479.466 61.4538 479.471 61.4666C479.476 61.4794 479.477 61.4932 479.472 61.5054C479.468 61.5176 479.46 61.5276 479.448 61.5336C479.437 61.5396 479.423 61.5412 479.41 61.5381L478.535 61.3507C478.52 61.3478 478.506 61.3504 478.494 61.3579C478.483 61.3653 478.475 61.3771 478.472 61.3909L478.309 62.2206C478.306 62.2331 478.299 62.2438 478.289 62.251C478.279 62.2583 478.266 62.2615 478.253 62.2603C478.239 62.259 478.226 62.2533 478.216 62.2441C478.206 62.235 478.198 62.2228 478.196 62.2098L478.018 61.3467C478.015 61.3326 478.006 61.3196 477.995 61.3102C477.983 61.3008 477.968 61.2958 477.954 61.296L477.081 61.3156C477.068 61.3163 477.054 61.3123 477.043 61.3043C477.031 61.2963 477.022 61.2847 477.018 61.2718C477.013 61.2588 477.013 61.2451 477.018 61.2331C477.023 61.2212 477.032 61.2117 477.044 61.2064L477.81 60.8603C477.823 60.8546 477.832 60.8441 477.837 60.8309C477.841 60.8177 477.841 60.8028 477.834 60.7892L477.456 59.9698C477.449 59.9571 477.447 59.943 477.45 59.93C477.453 59.917 477.461 59.9061 477.472 59.8992C477.484 59.8922 477.497 59.8898 477.511 59.8923C477.525 59.8947 477.538 59.902 477.548 59.9127L478.199 60.5621C478.21 60.5728 478.224 60.5796 478.239 60.5809C478.253 60.5823 478.267 60.5783 478.278 60.5697Z" fill="#F9F9F9"/>
<path d="M468.807 72.7647L469.763 71.9786C469.773 71.9698 469.787 71.9652 469.801 71.9658C469.816 71.9663 469.83 71.9719 469.842 71.9815C469.854 71.9912 469.862 72.0042 469.865 72.0184C469.869 72.0326 469.867 72.047 469.861 72.059L469.314 73.1741C469.307 73.1872 469.306 73.2027 469.311 73.2176C469.316 73.2324 469.326 73.2456 469.339 73.2545L470.495 73.9915C470.508 73.9994 470.518 74.0113 470.523 74.0251C470.529 74.0388 470.53 74.0536 470.525 74.0667C470.521 74.0798 470.511 74.0904 470.499 74.0966C470.487 74.1029 470.472 74.1043 470.457 74.1007L469.152 73.8182C469.136 73.8146 469.12 73.8168 469.108 73.8246C469.095 73.8323 469.086 73.8449 469.083 73.8598L468.841 75.1024C468.839 75.1161 468.831 75.128 468.82 75.1359C468.809 75.1439 468.795 75.1474 468.78 75.1458C468.766 75.1442 468.752 75.1377 468.741 75.1274C468.73 75.117 468.722 75.1035 468.72 75.0893L468.46 73.7995C468.457 73.7839 468.448 73.7694 468.435 73.7591C468.423 73.7487 468.407 73.7432 468.391 73.7438L467.086 73.7744C467.072 73.7742 467.058 73.7694 467.046 73.7607C467.035 73.752 467.026 73.7399 467.022 73.7265C467.017 73.7131 467.018 73.6991 467.023 73.6868C467.028 73.6745 467.037 73.6647 467.049 73.6589L468.195 73.1436C468.208 73.1374 468.218 73.1264 468.223 73.1125C468.227 73.0986 468.226 73.083 468.22 73.0687L467.657 71.8458C467.649 71.8323 467.647 71.8171 467.65 71.8031C467.653 71.7891 467.662 71.7772 467.674 71.7698C467.686 71.7623 467.7 71.7597 467.715 71.7625C467.73 71.7652 467.744 71.7732 467.755 71.7848L468.723 72.7573C468.735 72.7686 468.75 72.7757 468.765 72.7771C468.781 72.7784 468.796 72.774 468.807 72.7647Z" fill="#F9F9F9"/>
<path d="M511.991 24.499L513.549 23.3885C513.673 23.2997 513.703 23.3249 513.639 23.464L512.892 25.0622C512.868 25.1148 512.882 25.1592 512.934 25.1954L514.736 26.4354C514.841 26.5069 514.832 26.5348 514.711 26.5192L512.471 26.2346C512.396 26.2249 512.351 26.2555 512.336 26.3265L511.92 28.2614C511.897 28.3712 511.875 28.3686 511.855 28.2536L511.496 26.2483C511.482 26.172 511.437 26.1302 511.36 26.1231L509.044 25.9294C508.932 25.9195 508.927 25.896 509.027 25.859L510.825 25.2015C510.878 25.1821 510.897 25.1439 510.879 25.087L510.319 23.2252C510.291 23.1339 510.314 23.1213 510.387 23.1875L511.816 24.4817C511.875 24.5346 511.933 24.5404 511.991 24.499Z" fill="#F9F9F9"/>
<path d="M502.931 38.9747L505.114 37.422C505.232 37.3375 505.26 37.361 505.198 37.4925L504.128 39.7565C504.121 39.77 504.12 39.786 504.125 39.8015C504.13 39.817 504.141 39.8309 504.155 39.8406L506.71 41.6009C506.791 41.656 506.784 41.678 506.69 41.6669L503.555 41.2672C503.495 41.2598 503.458 41.2844 503.446 41.341L502.873 43.9717C502.836 44.139 502.802 44.1349 502.771 43.9595L502.301 41.2591C502.289 41.1903 502.248 41.1527 502.177 41.1463L498.994 40.8611C498.888 40.8511 498.883 40.8284 498.978 40.7932L501.439 39.891C501.458 39.884 501.473 39.8701 501.482 39.8519C501.49 39.8336 501.491 39.8123 501.485 39.7918L500.716 37.2088C500.689 37.12 500.712 37.1078 500.782 37.1723L502.735 38.9553C502.8 39.0148 502.865 39.0213 502.931 38.9747Z" fill="#F9F9F9"/>
<path d="M495.271 49.7927L490.745 61.3081C490.736 61.331 490.748 61.3588 490.773 61.3702L490.776 61.3717C490.8 61.3831 490.827 61.3737 490.836 61.3508L495.362 49.8354C495.371 49.8125 495.359 49.7847 495.334 49.7733L495.331 49.7717C495.307 49.7604 495.28 49.7698 495.271 49.7927Z" fill="#F9F9F9"/>
<path d="M480.433 73.3832L481.092 72.847C481.102 72.8385 481.115 72.834 481.128 72.8343C481.142 72.8346 481.155 72.8396 481.166 72.8485C481.178 72.8574 481.186 72.8695 481.189 72.8828C481.193 72.8961 481.191 72.9097 481.185 72.9212L480.803 73.6838C480.797 73.6962 480.796 73.7107 480.8 73.7247C480.805 73.7386 480.814 73.7509 480.827 73.7592L481.619 74.2699C481.631 74.2777 481.639 74.2888 481.644 74.3015C481.649 74.3141 481.649 74.3275 481.645 74.3394C481.641 74.3514 481.632 74.361 481.621 74.3669C481.61 74.3727 481.596 74.3744 481.583 74.3715L480.687 74.1706C480.673 74.1673 480.658 74.1695 480.646 74.1768C480.634 74.184 480.626 74.1957 480.623 74.2095L480.454 75.0608C480.451 75.0733 480.444 75.084 480.434 75.0913C480.424 75.0985 480.411 75.1017 480.397 75.1005C480.384 75.0992 480.371 75.0935 480.361 75.0844C480.351 75.0752 480.343 75.0631 480.34 75.0501L480.168 74.1628C480.166 74.1483 480.157 74.1348 480.145 74.1251C480.133 74.1154 480.118 74.1103 480.104 74.1109L479.208 74.1284C479.194 74.1284 479.181 74.124 479.17 74.1158C479.159 74.1075 479.15 74.096 479.146 74.0832C479.142 74.0704 479.142 74.057 479.147 74.0453C479.152 74.0336 479.161 74.0244 479.173 74.0191L479.962 73.6726C479.975 73.6672 479.985 73.6566 479.99 73.6431C479.995 73.6296 479.994 73.6142 479.987 73.6002L479.602 72.7595C479.597 72.7471 479.596 72.7339 479.599 72.7219C479.603 72.7099 479.611 72.6998 479.621 72.6933C479.632 72.6868 479.645 72.6843 479.658 72.6862C479.671 72.6881 479.683 72.6942 479.693 72.7036L480.355 73.3756C480.366 73.3864 480.38 73.3931 480.394 73.3945C480.409 73.3959 480.423 73.3918 480.433 73.3832Z" fill="#F9F9F9"/>
<path d="M473.088 85.0834L473.774 85.5631C473.887 85.642 473.878 85.6738 473.747 85.6583L472.919 85.5597C472.838 85.5493 472.789 85.5821 472.771 85.6581L472.614 86.3628C472.587 86.4777 472.564 86.4743 472.543 86.3526L472.413 85.6149C472.398 85.536 472.351 85.4926 472.271 85.4847L471.361 85.3951C471.247 85.3844 471.241 85.3609 471.345 85.3246L472.036 85.0871C472.098 85.0659 472.119 85.023 472.098 84.9585L471.887 84.2626C471.855 84.1579 471.881 84.1436 471.965 84.2196L472.507 84.7131C472.526 84.7305 472.55 84.7414 472.575 84.7437C472.6 84.7461 472.624 84.7398 472.643 84.726L473.241 84.2804C473.361 84.19 473.389 84.2127 473.324 84.3485L473.045 84.9402C473.018 84.9962 473.032 85.044 473.088 85.0834Z" fill="#F9F9F9"/>
<path d="M514.536 36.9173L514.536 36.9244C514.538 36.95 514.56 36.9716 514.586 36.9728L526.952 37.5131C526.978 37.5142 526.998 37.4944 526.996 37.4688L526.996 37.4617C526.994 37.4361 526.972 37.4145 526.946 37.4133L514.58 36.8731C514.554 36.8719 514.534 36.8917 514.536 36.9173Z" fill="#F9F9F9"/>
<path d="M494.84 67.7592L495.484 67.246C495.494 67.239 495.506 67.2357 495.519 67.2366C495.532 67.2376 495.545 67.2427 495.555 67.2513C495.566 67.2598 495.573 67.2712 495.577 67.2837C495.58 67.2962 495.58 67.309 495.575 67.3202L495.214 68.0636C495.208 68.0759 495.207 68.0905 495.212 68.1045C495.216 68.1184 495.226 68.1307 495.238 68.1389L496 68.6388C496.011 68.6466 496.02 68.6577 496.025 68.6704C496.029 68.6831 496.03 68.6965 496.025 68.7084C496.021 68.7203 496.013 68.73 496.002 68.7358C495.99 68.7417 495.977 68.7433 495.964 68.7404L495.095 68.5542C495.081 68.5512 495.067 68.5534 495.055 68.5604C495.043 68.5673 495.035 68.5785 495.032 68.5919L494.859 69.4154C494.857 69.4279 494.85 69.4387 494.839 69.4459C494.829 69.4531 494.816 69.4564 494.803 69.4551C494.79 69.4539 494.777 69.4482 494.766 69.439C494.756 69.4298 494.749 69.4177 494.746 69.4047L494.571 68.5465C494.569 68.532 494.561 68.5183 494.549 68.5084C494.537 68.4985 494.522 68.4931 494.507 68.4933L493.639 68.5027C493.625 68.5028 493.612 68.4984 493.601 68.4902C493.59 68.4819 493.581 68.4704 493.577 68.4576C493.573 68.4448 493.573 68.4314 493.578 68.4197C493.583 68.408 493.592 68.3988 493.603 68.3935L494.365 68.05C494.377 68.0441 494.386 68.0338 494.391 68.0209C494.395 68.008 494.394 67.9935 494.388 67.9802L494.024 67.1618C494.019 67.1495 494.018 67.1362 494.021 67.1242C494.025 67.1122 494.032 67.1021 494.043 67.0957C494.053 67.0892 494.066 67.0867 494.079 67.0885C494.092 67.0904 494.105 67.0966 494.115 67.106L494.762 67.7517C494.773 67.7624 494.787 67.7691 494.801 67.7705C494.816 67.7719 494.83 67.7679 494.84 67.7592Z" fill="#F9F9F9"/>
<path d="M521.635 45.0741L522.679 45.8041C522.764 45.8633 522.758 45.8866 522.659 45.8739L521.345 45.7102C521.274 45.7013 521.232 45.7298 521.218 45.7957L520.954 46.9516C520.932 47.047 520.913 47.0448 520.894 46.945L520.681 45.7516C520.669 45.6887 520.631 45.6544 520.568 45.6487L519.221 45.526C519.093 45.5138 519.086 45.4866 519.202 45.4443L520.21 45.0752C520.272 45.0523 520.292 45.0077 520.272 44.9416L519.953 43.904C519.921 43.8027 519.945 43.7884 520.027 43.8611L520.855 44.5872C520.908 44.6351 520.961 44.6397 521.013 44.6009L521.85 43.9898C521.996 43.8821 522.032 43.9114 521.956 44.0776L521.58 44.8983C521.549 44.967 521.567 45.0256 521.635 45.0741Z" fill="#F9F9F9"/>
</svg>
