<svg width="61" height="62" viewBox="0 0 61 62" fill="none" xmlns="http://www.w3.org/2000/svg">
<rect width="61" height="62" rx="16" fill="#F9F9F9"/>
<g clip-path="url(#clip0_515_18)">
<path fill-rule="evenodd" clip-rule="evenodd" d="M46.9416 15.4673C42.7771 11.2992 37.2406 9.00185 31.3425 9C19.1884 9 9.29645 18.8901 9.29089 31.0497C9.28903 34.9361 10.3051 38.7297 12.2353 42.0746L9.10547 53.5L20.7941 50.4332C24.0148 52.191 27.6416 53.1162 31.3314 53.118H31.3406C43.4928 53.118 53.3867 43.2261 53.3922 31.0664C53.396 25.1757 51.1042 19.6336 46.9416 15.4673ZM31.3425 49.393H31.3351C28.0458 49.393 24.8214 48.5086 22.0068 46.838L21.3374 46.4412L14.401 48.2601L16.2533 41.4961L15.8176 40.8027C13.9819 37.8842 13.0141 34.5115 13.0159 31.0497C13.0196 20.9445 21.2428 12.7232 31.3518 12.7232C36.2468 12.7232 40.8488 14.633 44.3087 18.0965C47.7686 21.562 49.6728 26.1659 49.6709 31.0627C49.6654 41.1716 41.444 49.393 31.3425 49.393ZM41.3958 35.6666C40.8451 35.3904 38.1362 34.0572 37.63 33.8736C37.1256 33.6901 36.7585 33.5974 36.3895 34.1481C36.0206 34.6987 34.9674 35.941 34.6448 36.31C34.324 36.6771 34.0014 36.7235 33.4507 36.4472C32.9 36.171 31.1237 35.5906 29.0192 33.7123C27.382 32.2512 26.2751 30.4471 25.9543 29.8946C25.6335 29.3421 25.9209 29.0454 26.1953 28.771C26.4438 28.5244 26.746 28.1276 27.0223 27.805C27.3004 27.486 27.3913 27.2561 27.5767 26.8871C27.7602 26.52 27.6694 26.1974 27.5303 25.9211C27.3913 25.6467 26.2899 22.9341 25.8319 21.8308C25.3851 20.7554 24.9308 20.9019 24.5915 20.8852C24.2707 20.8685 23.9036 20.8667 23.5346 20.8667C23.1675 20.8667 22.5704 21.0039 22.0661 21.5564C21.5618 22.109 20.1378 23.4421 20.1378 26.1529C20.1378 28.8655 22.1124 31.4855 22.3869 31.8526C22.6613 32.2197 26.2713 37.7859 31.7986 40.1722C33.1132 40.7396 34.1404 41.0789 34.9396 41.333C36.2597 41.752 37.4612 41.6927 38.4106 41.5517C39.4693 41.3941 41.6702 40.2186 42.13 38.9318C42.5899 37.645 42.5899 36.5399 42.4508 36.3119C42.3136 36.0801 41.9465 35.9429 41.3958 35.6666Z" fill="#381668"/>
</g>
<defs>
<clipPath id="clip0_515_18">
<rect width="44.5" height="44.5" fill="white" transform="translate(9 9)"/>
</clipPath>
</defs>
</svg>
